%TF.GenerationSoftware,KiCad,Pcbnew,(6.0.0)*%
%TF.CreationDate,2022-04-23T15:12:40-04:00*%
%TF.ProjectId,DIY,4449592e-6b69-4636-9164-5f7063625858,rev?*%
%TF.SameCoordinates,Original*%
%TF.FileFunction,Legend,Top*%
%TF.FilePolarity,Positive*%
%FSLAX46Y46*%
G04 Gerber Fmt 4.6, Leading zero omitted, Abs format (unit mm)*
G04 Created by KiCad (PCBNEW (6.0.0)) date 2022-04-23 15:12:40*
%MOMM*%
%LPD*%
G01*
G04 APERTURE LIST*
%ADD10C,0.150000*%
%ADD11C,0.254000*%
%ADD12C,0.120000*%
%ADD13C,0.100000*%
G04 APERTURE END LIST*
D10*
X73025000Y-142875000D02*
X71755000Y-142875000D01*
X71755000Y-142875000D02*
X72390000Y-142240000D01*
X72390000Y-142240000D02*
X73025000Y-142875000D01*
G36*
X73025000Y-142875000D02*
G01*
X71755000Y-142875000D01*
X72390000Y-142240000D01*
X73025000Y-142875000D01*
G37*
X73025000Y-142875000D02*
X71755000Y-142875000D01*
X72390000Y-142240000D01*
X73025000Y-142875000D01*
X72390000Y-142240000D02*
X72390000Y-144145000D01*
X72390000Y-144145000D02*
X75565000Y-144145000D01*
X88900000Y-133985000D02*
X87630000Y-132715000D01*
X87630000Y-132715000D02*
X90170000Y-132715000D01*
X90170000Y-132715000D02*
X88900000Y-133985000D01*
G36*
X88900000Y-133985000D02*
G01*
X87630000Y-132715000D01*
X90170000Y-132715000D01*
X88900000Y-133985000D01*
G37*
X88900000Y-133985000D02*
X87630000Y-132715000D01*
X90170000Y-132715000D01*
X88900000Y-133985000D01*
X112458571Y-89007142D02*
X113601428Y-89007142D01*
X113030000Y-89578571D02*
X113030000Y-88435714D01*
X124485714Y-94712571D02*
X124428571Y-94769714D01*
X124257142Y-94826857D01*
X124142857Y-94826857D01*
X123971428Y-94769714D01*
X123857142Y-94655428D01*
X123800000Y-94541142D01*
X123742857Y-94312571D01*
X123742857Y-94141142D01*
X123800000Y-93912571D01*
X123857142Y-93798285D01*
X123971428Y-93684000D01*
X124142857Y-93626857D01*
X124257142Y-93626857D01*
X124428571Y-93684000D01*
X124485714Y-93741142D01*
X125685714Y-94826857D02*
X125285714Y-94255428D01*
X125000000Y-94826857D02*
X125000000Y-93626857D01*
X125457142Y-93626857D01*
X125571428Y-93684000D01*
X125628571Y-93741142D01*
X125685714Y-93855428D01*
X125685714Y-94026857D01*
X125628571Y-94141142D01*
X125571428Y-94198285D01*
X125457142Y-94255428D01*
X125000000Y-94255428D01*
X126142857Y-93741142D02*
X126200000Y-93684000D01*
X126314285Y-93626857D01*
X126600000Y-93626857D01*
X126714285Y-93684000D01*
X126771428Y-93741142D01*
X126828571Y-93855428D01*
X126828571Y-93969714D01*
X126771428Y-94141142D01*
X126085714Y-94826857D01*
X126828571Y-94826857D01*
X127571428Y-93626857D02*
X127685714Y-93626857D01*
X127800000Y-93684000D01*
X127857142Y-93741142D01*
X127914285Y-93855428D01*
X127971428Y-94084000D01*
X127971428Y-94369714D01*
X127914285Y-94598285D01*
X127857142Y-94712571D01*
X127800000Y-94769714D01*
X127685714Y-94826857D01*
X127571428Y-94826857D01*
X127457142Y-94769714D01*
X127400000Y-94712571D01*
X127342857Y-94598285D01*
X127285714Y-94369714D01*
X127285714Y-94084000D01*
X127342857Y-93855428D01*
X127400000Y-93741142D01*
X127457142Y-93684000D01*
X127571428Y-93626857D01*
X128428571Y-93741142D02*
X128485714Y-93684000D01*
X128600000Y-93626857D01*
X128885714Y-93626857D01*
X129000000Y-93684000D01*
X129057142Y-93741142D01*
X129114285Y-93855428D01*
X129114285Y-93969714D01*
X129057142Y-94141142D01*
X128371428Y-94826857D01*
X129114285Y-94826857D01*
X129514285Y-93626857D02*
X130257142Y-93626857D01*
X129857142Y-94084000D01*
X130028571Y-94084000D01*
X130142857Y-94141142D01*
X130200000Y-94198285D01*
X130257142Y-94312571D01*
X130257142Y-94598285D01*
X130200000Y-94712571D01*
X130142857Y-94769714D01*
X130028571Y-94826857D01*
X129685714Y-94826857D01*
X129571428Y-94769714D01*
X129514285Y-94712571D01*
X121942857Y-95558857D02*
X122685714Y-95558857D01*
X122285714Y-96016000D01*
X122457142Y-96016000D01*
X122571428Y-96073142D01*
X122628571Y-96130285D01*
X122685714Y-96244571D01*
X122685714Y-96530285D01*
X122628571Y-96644571D01*
X122571428Y-96701714D01*
X122457142Y-96758857D01*
X122114285Y-96758857D01*
X122000000Y-96701714D01*
X121942857Y-96644571D01*
X123028571Y-95558857D02*
X123428571Y-96758857D01*
X123828571Y-95558857D01*
X125542857Y-96130285D02*
X125714285Y-96187428D01*
X125771428Y-96244571D01*
X125828571Y-96358857D01*
X125828571Y-96530285D01*
X125771428Y-96644571D01*
X125714285Y-96701714D01*
X125600000Y-96758857D01*
X125142857Y-96758857D01*
X125142857Y-95558857D01*
X125542857Y-95558857D01*
X125657142Y-95616000D01*
X125714285Y-95673142D01*
X125771428Y-95787428D01*
X125771428Y-95901714D01*
X125714285Y-96016000D01*
X125657142Y-96073142D01*
X125542857Y-96130285D01*
X125142857Y-96130285D01*
X126285714Y-96416000D02*
X126857142Y-96416000D01*
X126171428Y-96758857D02*
X126571428Y-95558857D01*
X126971428Y-96758857D01*
X127200000Y-95558857D02*
X127885714Y-95558857D01*
X127542857Y-96758857D02*
X127542857Y-95558857D01*
X128114285Y-95558857D02*
X128800000Y-95558857D01*
X128457142Y-96758857D02*
X128457142Y-95558857D01*
X129200000Y-96130285D02*
X129600000Y-96130285D01*
X129771428Y-96758857D02*
X129200000Y-96758857D01*
X129200000Y-95558857D01*
X129771428Y-95558857D01*
X130971428Y-96758857D02*
X130571428Y-96187428D01*
X130285714Y-96758857D02*
X130285714Y-95558857D01*
X130742857Y-95558857D01*
X130857142Y-95616000D01*
X130914285Y-95673142D01*
X130971428Y-95787428D01*
X130971428Y-95958857D01*
X130914285Y-96073142D01*
X130857142Y-96130285D01*
X130742857Y-96187428D01*
X130285714Y-96187428D01*
X131714285Y-96187428D02*
X131714285Y-96758857D01*
X131314285Y-95558857D02*
X131714285Y-96187428D01*
X132114285Y-95558857D01*
X75981428Y-144687857D02*
X75981428Y-143487857D01*
X75981428Y-144059285D02*
X76667142Y-144059285D01*
X76667142Y-144687857D02*
X76667142Y-143487857D01*
X77181428Y-144345000D02*
X77752857Y-144345000D01*
X77067142Y-144687857D02*
X77467142Y-143487857D01*
X77867142Y-144687857D01*
X78952857Y-144573571D02*
X78895714Y-144630714D01*
X78724285Y-144687857D01*
X78610000Y-144687857D01*
X78438571Y-144630714D01*
X78324285Y-144516428D01*
X78267142Y-144402142D01*
X78210000Y-144173571D01*
X78210000Y-144002142D01*
X78267142Y-143773571D01*
X78324285Y-143659285D01*
X78438571Y-143545000D01*
X78610000Y-143487857D01*
X78724285Y-143487857D01*
X78895714Y-143545000D01*
X78952857Y-143602142D01*
X79467142Y-144687857D02*
X79467142Y-143487857D01*
X80152857Y-144687857D02*
X79638571Y-144002142D01*
X80152857Y-143487857D02*
X79467142Y-144173571D01*
X81581428Y-144687857D02*
X81581428Y-143487857D01*
X81981428Y-144345000D01*
X82381428Y-143487857D01*
X82381428Y-144687857D01*
X82952857Y-144059285D02*
X83352857Y-144059285D01*
X83524285Y-144687857D02*
X82952857Y-144687857D01*
X82952857Y-143487857D01*
X83524285Y-143487857D01*
X84038571Y-144573571D02*
X84095714Y-144630714D01*
X84038571Y-144687857D01*
X83981428Y-144630714D01*
X84038571Y-144573571D01*
X84038571Y-144687857D01*
X84038571Y-144230714D02*
X83981428Y-143545000D01*
X84038571Y-143487857D01*
X84095714Y-143545000D01*
X84038571Y-144230714D01*
X84038571Y-143487857D01*
X87590476Y-130897380D02*
X88161904Y-130897380D01*
X87876190Y-131897380D02*
X87876190Y-130897380D01*
X88685714Y-130897380D02*
X88876190Y-130897380D01*
X88971428Y-130945000D01*
X89066666Y-131040238D01*
X89114285Y-131230714D01*
X89114285Y-131564047D01*
X89066666Y-131754523D01*
X88971428Y-131849761D01*
X88876190Y-131897380D01*
X88685714Y-131897380D01*
X88590476Y-131849761D01*
X88495238Y-131754523D01*
X88447619Y-131564047D01*
X88447619Y-131230714D01*
X88495238Y-131040238D01*
X88590476Y-130945000D01*
X88685714Y-130897380D01*
X89542857Y-131897380D02*
X89542857Y-130897380D01*
X89923809Y-130897380D01*
X90019047Y-130945000D01*
X90066666Y-130992619D01*
X90114285Y-131087857D01*
X90114285Y-131230714D01*
X90066666Y-131325952D01*
X90019047Y-131373571D01*
X89923809Y-131421190D01*
X89542857Y-131421190D01*
X89066666Y-124268571D02*
X89066666Y-123792380D01*
X89352380Y-124363809D02*
X88352380Y-124030476D01*
X89352380Y-123697142D01*
X88352380Y-123506666D02*
X88352380Y-122935238D01*
X89352380Y-123220952D02*
X88352380Y-123220952D01*
X89352380Y-122601904D02*
X88352380Y-122601904D01*
X89066666Y-122268571D01*
X88352380Y-121935238D01*
X89352380Y-121935238D01*
X88828571Y-121459047D02*
X88828571Y-121125714D01*
X89352380Y-120982857D02*
X89352380Y-121459047D01*
X88352380Y-121459047D01*
X88352380Y-120982857D01*
X88400000Y-120030476D02*
X88352380Y-120125714D01*
X88352380Y-120268571D01*
X88400000Y-120411428D01*
X88495238Y-120506666D01*
X88590476Y-120554285D01*
X88780952Y-120601904D01*
X88923809Y-120601904D01*
X89114285Y-120554285D01*
X89209523Y-120506666D01*
X89304761Y-120411428D01*
X89352380Y-120268571D01*
X89352380Y-120173333D01*
X89304761Y-120030476D01*
X89257142Y-119982857D01*
X88923809Y-119982857D01*
X88923809Y-120173333D01*
X89066666Y-119601904D02*
X89066666Y-119125714D01*
X89352380Y-119697142D02*
X88352380Y-119363809D01*
X89352380Y-119030476D01*
X88685714Y-118268571D02*
X89352380Y-118268571D01*
X88304761Y-118506666D02*
X89019047Y-118744761D01*
X89019047Y-118125714D01*
X88780952Y-117601904D02*
X88733333Y-117697142D01*
X88685714Y-117744761D01*
X88590476Y-117792380D01*
X88542857Y-117792380D01*
X88447619Y-117744761D01*
X88400000Y-117697142D01*
X88352380Y-117601904D01*
X88352380Y-117411428D01*
X88400000Y-117316190D01*
X88447619Y-117268571D01*
X88542857Y-117220952D01*
X88590476Y-117220952D01*
X88685714Y-117268571D01*
X88733333Y-117316190D01*
X88780952Y-117411428D01*
X88780952Y-117601904D01*
X88828571Y-117697142D01*
X88876190Y-117744761D01*
X88971428Y-117792380D01*
X89161904Y-117792380D01*
X89257142Y-117744761D01*
X89304761Y-117697142D01*
X89352380Y-117601904D01*
X89352380Y-117411428D01*
X89304761Y-117316190D01*
X89257142Y-117268571D01*
X89161904Y-117220952D01*
X88971428Y-117220952D01*
X88876190Y-117268571D01*
X88828571Y-117316190D01*
X88780952Y-117411428D01*
X88304761Y-116078095D02*
X89590476Y-116935238D01*
X89352380Y-115220952D02*
X89352380Y-115792380D01*
X89352380Y-115506666D02*
X88352380Y-115506666D01*
X88495238Y-115601904D01*
X88590476Y-115697142D01*
X88638095Y-115792380D01*
X88352380Y-114363809D02*
X88352380Y-114554285D01*
X88400000Y-114649523D01*
X88447619Y-114697142D01*
X88590476Y-114792380D01*
X88780952Y-114840000D01*
X89161904Y-114840000D01*
X89257142Y-114792380D01*
X89304761Y-114744761D01*
X89352380Y-114649523D01*
X89352380Y-114459047D01*
X89304761Y-114363809D01*
X89257142Y-114316190D01*
X89161904Y-114268571D01*
X88923809Y-114268571D01*
X88828571Y-114316190D01*
X88780952Y-114363809D01*
X88733333Y-114459047D01*
X88733333Y-114649523D01*
X88780952Y-114744761D01*
X88828571Y-114792380D01*
X88923809Y-114840000D01*
X88780952Y-113697142D02*
X88733333Y-113792380D01*
X88685714Y-113840000D01*
X88590476Y-113887619D01*
X88542857Y-113887619D01*
X88447619Y-113840000D01*
X88400000Y-113792380D01*
X88352380Y-113697142D01*
X88352380Y-113506666D01*
X88400000Y-113411428D01*
X88447619Y-113363809D01*
X88542857Y-113316190D01*
X88590476Y-113316190D01*
X88685714Y-113363809D01*
X88733333Y-113411428D01*
X88780952Y-113506666D01*
X88780952Y-113697142D01*
X88828571Y-113792380D01*
X88876190Y-113840000D01*
X88971428Y-113887619D01*
X89161904Y-113887619D01*
X89257142Y-113840000D01*
X89304761Y-113792380D01*
X89352380Y-113697142D01*
X89352380Y-113506666D01*
X89304761Y-113411428D01*
X89257142Y-113363809D01*
X89161904Y-113316190D01*
X88971428Y-113316190D01*
X88876190Y-113363809D01*
X88828571Y-113411428D01*
X88780952Y-113506666D01*
X88304761Y-112173333D02*
X89590476Y-113030476D01*
X88352380Y-111935238D02*
X88352380Y-111316190D01*
X88733333Y-111649523D01*
X88733333Y-111506666D01*
X88780952Y-111411428D01*
X88828571Y-111363809D01*
X88923809Y-111316190D01*
X89161904Y-111316190D01*
X89257142Y-111363809D01*
X89304761Y-111411428D01*
X89352380Y-111506666D01*
X89352380Y-111792380D01*
X89304761Y-111887619D01*
X89257142Y-111935238D01*
X88447619Y-110935238D02*
X88400000Y-110887619D01*
X88352380Y-110792380D01*
X88352380Y-110554285D01*
X88400000Y-110459047D01*
X88447619Y-110411428D01*
X88542857Y-110363809D01*
X88638095Y-110363809D01*
X88780952Y-110411428D01*
X89352380Y-110982857D01*
X89352380Y-110363809D01*
X88780952Y-109792380D02*
X88733333Y-109887619D01*
X88685714Y-109935238D01*
X88590476Y-109982857D01*
X88542857Y-109982857D01*
X88447619Y-109935238D01*
X88400000Y-109887619D01*
X88352380Y-109792380D01*
X88352380Y-109601904D01*
X88400000Y-109506666D01*
X88447619Y-109459047D01*
X88542857Y-109411428D01*
X88590476Y-109411428D01*
X88685714Y-109459047D01*
X88733333Y-109506666D01*
X88780952Y-109601904D01*
X88780952Y-109792380D01*
X88828571Y-109887619D01*
X88876190Y-109935238D01*
X88971428Y-109982857D01*
X89161904Y-109982857D01*
X89257142Y-109935238D01*
X89304761Y-109887619D01*
X89352380Y-109792380D01*
X89352380Y-109601904D01*
X89304761Y-109506666D01*
X89257142Y-109459047D01*
X89161904Y-109411428D01*
X88971428Y-109411428D01*
X88876190Y-109459047D01*
X88828571Y-109506666D01*
X88780952Y-109601904D01*
%TO.C,SW2*%
X140704666Y-121054761D02*
X140847523Y-121102380D01*
X141085619Y-121102380D01*
X141180857Y-121054761D01*
X141228476Y-121007142D01*
X141276095Y-120911904D01*
X141276095Y-120816666D01*
X141228476Y-120721428D01*
X141180857Y-120673809D01*
X141085619Y-120626190D01*
X140895142Y-120578571D01*
X140799904Y-120530952D01*
X140752285Y-120483333D01*
X140704666Y-120388095D01*
X140704666Y-120292857D01*
X140752285Y-120197619D01*
X140799904Y-120150000D01*
X140895142Y-120102380D01*
X141133238Y-120102380D01*
X141276095Y-120150000D01*
X141609428Y-120102380D02*
X141847523Y-121102380D01*
X142038000Y-120388095D01*
X142228476Y-121102380D01*
X142466571Y-120102380D01*
X142799904Y-120197619D02*
X142847523Y-120150000D01*
X142942761Y-120102380D01*
X143180857Y-120102380D01*
X143276095Y-120150000D01*
X143323714Y-120197619D01*
X143371333Y-120292857D01*
X143371333Y-120388095D01*
X143323714Y-120530952D01*
X142752285Y-121102380D01*
X143371333Y-121102380D01*
D11*
%TO.C,LS1*%
X79944571Y-93071523D02*
X79339809Y-93071523D01*
X79339809Y-91801523D01*
X80307428Y-93011047D02*
X80488857Y-93071523D01*
X80791238Y-93071523D01*
X80912190Y-93011047D01*
X80972666Y-92950571D01*
X81033142Y-92829619D01*
X81033142Y-92708666D01*
X80972666Y-92587714D01*
X80912190Y-92527238D01*
X80791238Y-92466761D01*
X80549333Y-92406285D01*
X80428380Y-92345809D01*
X80367904Y-92285333D01*
X80307428Y-92164380D01*
X80307428Y-92043428D01*
X80367904Y-91922476D01*
X80428380Y-91862000D01*
X80549333Y-91801523D01*
X80851714Y-91801523D01*
X81033142Y-91862000D01*
X82242666Y-93071523D02*
X81516952Y-93071523D01*
X81879809Y-93071523D02*
X81879809Y-91801523D01*
X81758857Y-91982952D01*
X81637904Y-92103904D01*
X81516952Y-92164380D01*
D10*
%TO.C,Y1*%
X70850476Y-117927380D02*
X70279047Y-117927380D01*
X70564761Y-117927380D02*
X70564761Y-116927380D01*
X70469523Y-117070238D01*
X70374285Y-117165476D01*
X70279047Y-117213095D01*
X71707619Y-116927380D02*
X71517142Y-116927380D01*
X71421904Y-116975000D01*
X71374285Y-117022619D01*
X71279047Y-117165476D01*
X71231428Y-117355952D01*
X71231428Y-117736904D01*
X71279047Y-117832142D01*
X71326666Y-117879761D01*
X71421904Y-117927380D01*
X71612380Y-117927380D01*
X71707619Y-117879761D01*
X71755238Y-117832142D01*
X71802857Y-117736904D01*
X71802857Y-117498809D01*
X71755238Y-117403571D01*
X71707619Y-117355952D01*
X71612380Y-117308333D01*
X71421904Y-117308333D01*
X71326666Y-117355952D01*
X71279047Y-117403571D01*
X71231428Y-117498809D01*
X72231428Y-117832142D02*
X72279047Y-117879761D01*
X72231428Y-117927380D01*
X72183809Y-117879761D01*
X72231428Y-117832142D01*
X72231428Y-117927380D01*
X72898095Y-116927380D02*
X72993333Y-116927380D01*
X73088571Y-116975000D01*
X73136190Y-117022619D01*
X73183809Y-117117857D01*
X73231428Y-117308333D01*
X73231428Y-117546428D01*
X73183809Y-117736904D01*
X73136190Y-117832142D01*
X73088571Y-117879761D01*
X72993333Y-117927380D01*
X72898095Y-117927380D01*
X72802857Y-117879761D01*
X72755238Y-117832142D01*
X72707619Y-117736904D01*
X72660000Y-117546428D01*
X72660000Y-117308333D01*
X72707619Y-117117857D01*
X72755238Y-117022619D01*
X72802857Y-116975000D01*
X72898095Y-116927380D01*
X73850476Y-116927380D02*
X73945714Y-116927380D01*
X74040952Y-116975000D01*
X74088571Y-117022619D01*
X74136190Y-117117857D01*
X74183809Y-117308333D01*
X74183809Y-117546428D01*
X74136190Y-117736904D01*
X74088571Y-117832142D01*
X74040952Y-117879761D01*
X73945714Y-117927380D01*
X73850476Y-117927380D01*
X73755238Y-117879761D01*
X73707619Y-117832142D01*
X73660000Y-117736904D01*
X73612380Y-117546428D01*
X73612380Y-117308333D01*
X73660000Y-117117857D01*
X73707619Y-117022619D01*
X73755238Y-116975000D01*
X73850476Y-116927380D01*
X74612380Y-117927380D02*
X74612380Y-116927380D01*
X74945714Y-117641666D01*
X75279047Y-116927380D01*
X75279047Y-117927380D01*
X75755238Y-117927380D02*
X75755238Y-116927380D01*
X76183809Y-117927380D02*
X76183809Y-117403571D01*
X76136190Y-117308333D01*
X76040952Y-117260714D01*
X75898095Y-117260714D01*
X75802857Y-117308333D01*
X75755238Y-117355952D01*
X76564761Y-117260714D02*
X77088571Y-117260714D01*
X76564761Y-117927380D01*
X77088571Y-117927380D01*
%TO.C,R3*%
X115403333Y-118562380D02*
X115070000Y-118086190D01*
X114831904Y-118562380D02*
X114831904Y-117562380D01*
X115212857Y-117562380D01*
X115308095Y-117610000D01*
X115355714Y-117657619D01*
X115403333Y-117752857D01*
X115403333Y-117895714D01*
X115355714Y-117990952D01*
X115308095Y-118038571D01*
X115212857Y-118086190D01*
X114831904Y-118086190D01*
X115736666Y-117562380D02*
X116355714Y-117562380D01*
X116022380Y-117943333D01*
X116165238Y-117943333D01*
X116260476Y-117990952D01*
X116308095Y-118038571D01*
X116355714Y-118133809D01*
X116355714Y-118371904D01*
X116308095Y-118467142D01*
X116260476Y-118514761D01*
X116165238Y-118562380D01*
X115879523Y-118562380D01*
X115784285Y-118514761D01*
X115736666Y-118467142D01*
X113760476Y-120197619D02*
X113808095Y-120150000D01*
X113903333Y-120102380D01*
X114141428Y-120102380D01*
X114236666Y-120150000D01*
X114284285Y-120197619D01*
X114331904Y-120292857D01*
X114331904Y-120388095D01*
X114284285Y-120530952D01*
X113712857Y-121102380D01*
X114331904Y-121102380D01*
X114712857Y-120197619D02*
X114760476Y-120150000D01*
X114855714Y-120102380D01*
X115093809Y-120102380D01*
X115189047Y-120150000D01*
X115236666Y-120197619D01*
X115284285Y-120292857D01*
X115284285Y-120388095D01*
X115236666Y-120530952D01*
X114665238Y-121102380D01*
X115284285Y-121102380D01*
X115903333Y-120102380D02*
X115998571Y-120102380D01*
X116093809Y-120150000D01*
X116141428Y-120197619D01*
X116189047Y-120292857D01*
X116236666Y-120483333D01*
X116236666Y-120721428D01*
X116189047Y-120911904D01*
X116141428Y-121007142D01*
X116093809Y-121054761D01*
X115998571Y-121102380D01*
X115903333Y-121102380D01*
X115808095Y-121054761D01*
X115760476Y-121007142D01*
X115712857Y-120911904D01*
X115665238Y-120721428D01*
X115665238Y-120483333D01*
X115712857Y-120292857D01*
X115760476Y-120197619D01*
X115808095Y-120150000D01*
X115903333Y-120102380D01*
X116617619Y-121102380D02*
X116855714Y-121102380D01*
X116855714Y-120911904D01*
X116760476Y-120864285D01*
X116665238Y-120769047D01*
X116617619Y-120626190D01*
X116617619Y-120388095D01*
X116665238Y-120245238D01*
X116760476Y-120150000D01*
X116903333Y-120102380D01*
X117093809Y-120102380D01*
X117236666Y-120150000D01*
X117331904Y-120245238D01*
X117379523Y-120388095D01*
X117379523Y-120626190D01*
X117331904Y-120769047D01*
X117236666Y-120864285D01*
X117141428Y-120911904D01*
X117141428Y-121102380D01*
X117379523Y-121102380D01*
%TO.C,SW1*%
X140906666Y-110894761D02*
X141049523Y-110942380D01*
X141287619Y-110942380D01*
X141382857Y-110894761D01*
X141430476Y-110847142D01*
X141478095Y-110751904D01*
X141478095Y-110656666D01*
X141430476Y-110561428D01*
X141382857Y-110513809D01*
X141287619Y-110466190D01*
X141097142Y-110418571D01*
X141001904Y-110370952D01*
X140954285Y-110323333D01*
X140906666Y-110228095D01*
X140906666Y-110132857D01*
X140954285Y-110037619D01*
X141001904Y-109990000D01*
X141097142Y-109942380D01*
X141335238Y-109942380D01*
X141478095Y-109990000D01*
X141811428Y-109942380D02*
X142049523Y-110942380D01*
X142240000Y-110228095D01*
X142430476Y-110942380D01*
X142668571Y-109942380D01*
X143573333Y-110942380D02*
X143001904Y-110942380D01*
X143287619Y-110942380D02*
X143287619Y-109942380D01*
X143192380Y-110085238D01*
X143097142Y-110180476D01*
X143001904Y-110228095D01*
%TO.C,JP1*%
X88066666Y-141692380D02*
X88066666Y-142406666D01*
X88019047Y-142549523D01*
X87923809Y-142644761D01*
X87780952Y-142692380D01*
X87685714Y-142692380D01*
X88542857Y-142692380D02*
X88542857Y-141692380D01*
X88923809Y-141692380D01*
X89019047Y-141740000D01*
X89066666Y-141787619D01*
X89114285Y-141882857D01*
X89114285Y-142025714D01*
X89066666Y-142120952D01*
X89019047Y-142168571D01*
X88923809Y-142216190D01*
X88542857Y-142216190D01*
X90066666Y-142692380D02*
X89495238Y-142692380D01*
X89780952Y-142692380D02*
X89780952Y-141692380D01*
X89685714Y-141835238D01*
X89590476Y-141930476D01*
X89495238Y-141978095D01*
%TO.C,R4*%
X115403333Y-108402380D02*
X115070000Y-107926190D01*
X114831904Y-108402380D02*
X114831904Y-107402380D01*
X115212857Y-107402380D01*
X115308095Y-107450000D01*
X115355714Y-107497619D01*
X115403333Y-107592857D01*
X115403333Y-107735714D01*
X115355714Y-107830952D01*
X115308095Y-107878571D01*
X115212857Y-107926190D01*
X114831904Y-107926190D01*
X116260476Y-107735714D02*
X116260476Y-108402380D01*
X116022380Y-107354761D02*
X115784285Y-108069047D01*
X116403333Y-108069047D01*
X113760476Y-110037619D02*
X113808095Y-109990000D01*
X113903333Y-109942380D01*
X114141428Y-109942380D01*
X114236666Y-109990000D01*
X114284285Y-110037619D01*
X114331904Y-110132857D01*
X114331904Y-110228095D01*
X114284285Y-110370952D01*
X113712857Y-110942380D01*
X114331904Y-110942380D01*
X114712857Y-110037619D02*
X114760476Y-109990000D01*
X114855714Y-109942380D01*
X115093809Y-109942380D01*
X115189047Y-109990000D01*
X115236666Y-110037619D01*
X115284285Y-110132857D01*
X115284285Y-110228095D01*
X115236666Y-110370952D01*
X114665238Y-110942380D01*
X115284285Y-110942380D01*
X115903333Y-109942380D02*
X115998571Y-109942380D01*
X116093809Y-109990000D01*
X116141428Y-110037619D01*
X116189047Y-110132857D01*
X116236666Y-110323333D01*
X116236666Y-110561428D01*
X116189047Y-110751904D01*
X116141428Y-110847142D01*
X116093809Y-110894761D01*
X115998571Y-110942380D01*
X115903333Y-110942380D01*
X115808095Y-110894761D01*
X115760476Y-110847142D01*
X115712857Y-110751904D01*
X115665238Y-110561428D01*
X115665238Y-110323333D01*
X115712857Y-110132857D01*
X115760476Y-110037619D01*
X115808095Y-109990000D01*
X115903333Y-109942380D01*
X116617619Y-110942380D02*
X116855714Y-110942380D01*
X116855714Y-110751904D01*
X116760476Y-110704285D01*
X116665238Y-110609047D01*
X116617619Y-110466190D01*
X116617619Y-110228095D01*
X116665238Y-110085238D01*
X116760476Y-109990000D01*
X116903333Y-109942380D01*
X117093809Y-109942380D01*
X117236666Y-109990000D01*
X117331904Y-110085238D01*
X117379523Y-110228095D01*
X117379523Y-110466190D01*
X117331904Y-110609047D01*
X117236666Y-110704285D01*
X117141428Y-110751904D01*
X117141428Y-110942380D01*
X117379523Y-110942380D01*
%TO.C,J1*%
X80176666Y-136810238D02*
X80176666Y-136334047D01*
X80462380Y-136905476D02*
X79462380Y-136572142D01*
X80462380Y-136238809D01*
X79462380Y-136048333D02*
X80462380Y-135715000D01*
X79462380Y-135381666D01*
X80462380Y-134476904D02*
X79986190Y-134810238D01*
X80462380Y-135048333D02*
X79462380Y-135048333D01*
X79462380Y-134667380D01*
X79510000Y-134572142D01*
X79557619Y-134524523D01*
X79652857Y-134476904D01*
X79795714Y-134476904D01*
X79890952Y-134524523D01*
X79938571Y-134572142D01*
X79986190Y-134667380D01*
X79986190Y-135048333D01*
X80081428Y-134048333D02*
X80081428Y-133286428D01*
X80462380Y-132810238D02*
X79462380Y-132810238D01*
X80414761Y-132381666D02*
X80462380Y-132238809D01*
X80462380Y-132000714D01*
X80414761Y-131905476D01*
X80367142Y-131857857D01*
X80271904Y-131810238D01*
X80176666Y-131810238D01*
X80081428Y-131857857D01*
X80033809Y-131905476D01*
X79986190Y-132000714D01*
X79938571Y-132191190D01*
X79890952Y-132286428D01*
X79843333Y-132334047D01*
X79748095Y-132381666D01*
X79652857Y-132381666D01*
X79557619Y-132334047D01*
X79510000Y-132286428D01*
X79462380Y-132191190D01*
X79462380Y-131953095D01*
X79510000Y-131810238D01*
X80462380Y-131381666D02*
X79462380Y-131381666D01*
X79462380Y-131000714D01*
X79510000Y-130905476D01*
X79557619Y-130857857D01*
X79652857Y-130810238D01*
X79795714Y-130810238D01*
X79890952Y-130857857D01*
X79938571Y-130905476D01*
X79986190Y-131000714D01*
X79986190Y-131381666D01*
X80081428Y-130381666D02*
X80081428Y-129619761D01*
X79462380Y-128715000D02*
X79462380Y-128905476D01*
X79510000Y-129000714D01*
X79557619Y-129048333D01*
X79700476Y-129143571D01*
X79890952Y-129191190D01*
X80271904Y-129191190D01*
X80367142Y-129143571D01*
X80414761Y-129095952D01*
X80462380Y-129000714D01*
X80462380Y-128810238D01*
X80414761Y-128715000D01*
X80367142Y-128667380D01*
X80271904Y-128619761D01*
X80033809Y-128619761D01*
X79938571Y-128667380D01*
X79890952Y-128715000D01*
X79843333Y-128810238D01*
X79843333Y-129000714D01*
X79890952Y-129095952D01*
X79938571Y-129143571D01*
X80033809Y-129191190D01*
%TO.C,SW3*%
X140906666Y-131214761D02*
X141049523Y-131262380D01*
X141287619Y-131262380D01*
X141382857Y-131214761D01*
X141430476Y-131167142D01*
X141478095Y-131071904D01*
X141478095Y-130976666D01*
X141430476Y-130881428D01*
X141382857Y-130833809D01*
X141287619Y-130786190D01*
X141097142Y-130738571D01*
X141001904Y-130690952D01*
X140954285Y-130643333D01*
X140906666Y-130548095D01*
X140906666Y-130452857D01*
X140954285Y-130357619D01*
X141001904Y-130310000D01*
X141097142Y-130262380D01*
X141335238Y-130262380D01*
X141478095Y-130310000D01*
X141811428Y-130262380D02*
X142049523Y-131262380D01*
X142240000Y-130548095D01*
X142430476Y-131262380D01*
X142668571Y-130262380D01*
X142954285Y-130262380D02*
X143573333Y-130262380D01*
X143240000Y-130643333D01*
X143382857Y-130643333D01*
X143478095Y-130690952D01*
X143525714Y-130738571D01*
X143573333Y-130833809D01*
X143573333Y-131071904D01*
X143525714Y-131167142D01*
X143478095Y-131214761D01*
X143382857Y-131262380D01*
X143097142Y-131262380D01*
X143001904Y-131214761D01*
X142954285Y-131167142D01*
%TO.C,D2*%
X128801904Y-127302380D02*
X128801904Y-126302380D01*
X129040000Y-126302380D01*
X129182857Y-126350000D01*
X129278095Y-126445238D01*
X129325714Y-126540476D01*
X129373333Y-126730952D01*
X129373333Y-126873809D01*
X129325714Y-127064285D01*
X129278095Y-127159523D01*
X129182857Y-127254761D01*
X129040000Y-127302380D01*
X128801904Y-127302380D01*
X129754285Y-126397619D02*
X129801904Y-126350000D01*
X129897142Y-126302380D01*
X130135238Y-126302380D01*
X130230476Y-126350000D01*
X130278095Y-126397619D01*
X130325714Y-126492857D01*
X130325714Y-126588095D01*
X130278095Y-126730952D01*
X129706666Y-127302380D01*
X130325714Y-127302380D01*
%TO.C,R2*%
X115403333Y-128722380D02*
X115070000Y-128246190D01*
X114831904Y-128722380D02*
X114831904Y-127722380D01*
X115212857Y-127722380D01*
X115308095Y-127770000D01*
X115355714Y-127817619D01*
X115403333Y-127912857D01*
X115403333Y-128055714D01*
X115355714Y-128150952D01*
X115308095Y-128198571D01*
X115212857Y-128246190D01*
X114831904Y-128246190D01*
X115784285Y-127817619D02*
X115831904Y-127770000D01*
X115927142Y-127722380D01*
X116165238Y-127722380D01*
X116260476Y-127770000D01*
X116308095Y-127817619D01*
X116355714Y-127912857D01*
X116355714Y-128008095D01*
X116308095Y-128150952D01*
X115736666Y-128722380D01*
X116355714Y-128722380D01*
X114331904Y-131262380D02*
X113760476Y-131262380D01*
X114046190Y-131262380D02*
X114046190Y-130262380D01*
X113950952Y-130405238D01*
X113855714Y-130500476D01*
X113760476Y-130548095D01*
X114712857Y-130357619D02*
X114760476Y-130310000D01*
X114855714Y-130262380D01*
X115093809Y-130262380D01*
X115189047Y-130310000D01*
X115236666Y-130357619D01*
X115284285Y-130452857D01*
X115284285Y-130548095D01*
X115236666Y-130690952D01*
X114665238Y-131262380D01*
X115284285Y-131262380D01*
X115903333Y-130262380D02*
X115998571Y-130262380D01*
X116093809Y-130310000D01*
X116141428Y-130357619D01*
X116189047Y-130452857D01*
X116236666Y-130643333D01*
X116236666Y-130881428D01*
X116189047Y-131071904D01*
X116141428Y-131167142D01*
X116093809Y-131214761D01*
X115998571Y-131262380D01*
X115903333Y-131262380D01*
X115808095Y-131214761D01*
X115760476Y-131167142D01*
X115712857Y-131071904D01*
X115665238Y-130881428D01*
X115665238Y-130643333D01*
X115712857Y-130452857D01*
X115760476Y-130357619D01*
X115808095Y-130310000D01*
X115903333Y-130262380D01*
X116617619Y-131262380D02*
X116855714Y-131262380D01*
X116855714Y-131071904D01*
X116760476Y-131024285D01*
X116665238Y-130929047D01*
X116617619Y-130786190D01*
X116617619Y-130548095D01*
X116665238Y-130405238D01*
X116760476Y-130310000D01*
X116903333Y-130262380D01*
X117093809Y-130262380D01*
X117236666Y-130310000D01*
X117331904Y-130405238D01*
X117379523Y-130548095D01*
X117379523Y-130786190D01*
X117331904Y-130929047D01*
X117236666Y-131024285D01*
X117141428Y-131071904D01*
X117141428Y-131262380D01*
X117379523Y-131262380D01*
%TO.C,D3*%
X128801904Y-117142380D02*
X128801904Y-116142380D01*
X129040000Y-116142380D01*
X129182857Y-116190000D01*
X129278095Y-116285238D01*
X129325714Y-116380476D01*
X129373333Y-116570952D01*
X129373333Y-116713809D01*
X129325714Y-116904285D01*
X129278095Y-116999523D01*
X129182857Y-117094761D01*
X129040000Y-117142380D01*
X128801904Y-117142380D01*
X129706666Y-116142380D02*
X130325714Y-116142380D01*
X129992380Y-116523333D01*
X130135238Y-116523333D01*
X130230476Y-116570952D01*
X130278095Y-116618571D01*
X130325714Y-116713809D01*
X130325714Y-116951904D01*
X130278095Y-117047142D01*
X130230476Y-117094761D01*
X130135238Y-117142380D01*
X129849523Y-117142380D01*
X129754285Y-117094761D01*
X129706666Y-117047142D01*
%TO.C,D4*%
X128801904Y-106982380D02*
X128801904Y-105982380D01*
X129040000Y-105982380D01*
X129182857Y-106030000D01*
X129278095Y-106125238D01*
X129325714Y-106220476D01*
X129373333Y-106410952D01*
X129373333Y-106553809D01*
X129325714Y-106744285D01*
X129278095Y-106839523D01*
X129182857Y-106934761D01*
X129040000Y-106982380D01*
X128801904Y-106982380D01*
X130230476Y-106315714D02*
X130230476Y-106982380D01*
X129992380Y-105934761D02*
X129754285Y-106649047D01*
X130373333Y-106649047D01*
%TO.C,D5*%
X99591904Y-103957380D02*
X99591904Y-102957380D01*
X99830000Y-102957380D01*
X99972857Y-103005000D01*
X100068095Y-103100238D01*
X100115714Y-103195476D01*
X100163333Y-103385952D01*
X100163333Y-103528809D01*
X100115714Y-103719285D01*
X100068095Y-103814523D01*
X99972857Y-103909761D01*
X99830000Y-103957380D01*
X99591904Y-103957380D01*
X101068095Y-102957380D02*
X100591904Y-102957380D01*
X100544285Y-103433571D01*
X100591904Y-103385952D01*
X100687142Y-103338333D01*
X100925238Y-103338333D01*
X101020476Y-103385952D01*
X101068095Y-103433571D01*
X101115714Y-103528809D01*
X101115714Y-103766904D01*
X101068095Y-103862142D01*
X101020476Y-103909761D01*
X100925238Y-103957380D01*
X100687142Y-103957380D01*
X100591904Y-103909761D01*
X100544285Y-103862142D01*
%TO.C,R1*%
X115403333Y-138882380D02*
X115070000Y-138406190D01*
X114831904Y-138882380D02*
X114831904Y-137882380D01*
X115212857Y-137882380D01*
X115308095Y-137930000D01*
X115355714Y-137977619D01*
X115403333Y-138072857D01*
X115403333Y-138215714D01*
X115355714Y-138310952D01*
X115308095Y-138358571D01*
X115212857Y-138406190D01*
X114831904Y-138406190D01*
X116355714Y-138882380D02*
X115784285Y-138882380D01*
X116070000Y-138882380D02*
X116070000Y-137882380D01*
X115974761Y-138025238D01*
X115879523Y-138120476D01*
X115784285Y-138168095D01*
X114331904Y-141422380D02*
X113760476Y-141422380D01*
X114046190Y-141422380D02*
X114046190Y-140422380D01*
X113950952Y-140565238D01*
X113855714Y-140660476D01*
X113760476Y-140708095D01*
X114712857Y-140517619D02*
X114760476Y-140470000D01*
X114855714Y-140422380D01*
X115093809Y-140422380D01*
X115189047Y-140470000D01*
X115236666Y-140517619D01*
X115284285Y-140612857D01*
X115284285Y-140708095D01*
X115236666Y-140850952D01*
X114665238Y-141422380D01*
X115284285Y-141422380D01*
X115903333Y-140422380D02*
X115998571Y-140422380D01*
X116093809Y-140470000D01*
X116141428Y-140517619D01*
X116189047Y-140612857D01*
X116236666Y-140803333D01*
X116236666Y-141041428D01*
X116189047Y-141231904D01*
X116141428Y-141327142D01*
X116093809Y-141374761D01*
X115998571Y-141422380D01*
X115903333Y-141422380D01*
X115808095Y-141374761D01*
X115760476Y-141327142D01*
X115712857Y-141231904D01*
X115665238Y-141041428D01*
X115665238Y-140803333D01*
X115712857Y-140612857D01*
X115760476Y-140517619D01*
X115808095Y-140470000D01*
X115903333Y-140422380D01*
X116617619Y-141422380D02*
X116855714Y-141422380D01*
X116855714Y-141231904D01*
X116760476Y-141184285D01*
X116665238Y-141089047D01*
X116617619Y-140946190D01*
X116617619Y-140708095D01*
X116665238Y-140565238D01*
X116760476Y-140470000D01*
X116903333Y-140422380D01*
X117093809Y-140422380D01*
X117236666Y-140470000D01*
X117331904Y-140565238D01*
X117379523Y-140708095D01*
X117379523Y-140946190D01*
X117331904Y-141089047D01*
X117236666Y-141184285D01*
X117141428Y-141231904D01*
X117141428Y-141422380D01*
X117379523Y-141422380D01*
%TO.C,C1*%
X72057142Y-107497619D02*
X72104761Y-107450000D01*
X72200000Y-107402380D01*
X72438095Y-107402380D01*
X72533333Y-107450000D01*
X72580952Y-107497619D01*
X72628571Y-107592857D01*
X72628571Y-107688095D01*
X72580952Y-107830952D01*
X72009523Y-108402380D01*
X72628571Y-108402380D01*
X73009523Y-107497619D02*
X73057142Y-107450000D01*
X73152380Y-107402380D01*
X73390476Y-107402380D01*
X73485714Y-107450000D01*
X73533333Y-107497619D01*
X73580952Y-107592857D01*
X73580952Y-107688095D01*
X73533333Y-107830952D01*
X72961904Y-108402380D01*
X73580952Y-108402380D01*
X74009523Y-107735714D02*
X74009523Y-108735714D01*
X74009523Y-107783333D02*
X74104761Y-107735714D01*
X74295238Y-107735714D01*
X74390476Y-107783333D01*
X74438095Y-107830952D01*
X74485714Y-107926190D01*
X74485714Y-108211904D01*
X74438095Y-108307142D01*
X74390476Y-108354761D01*
X74295238Y-108402380D01*
X74104761Y-108402380D01*
X74009523Y-108354761D01*
X75247619Y-107878571D02*
X74914285Y-107878571D01*
X74914285Y-108402380D02*
X74914285Y-107402380D01*
X75390476Y-107402380D01*
X73533333Y-112117142D02*
X73485714Y-112164761D01*
X73342857Y-112212380D01*
X73247619Y-112212380D01*
X73104761Y-112164761D01*
X73009523Y-112069523D01*
X72961904Y-111974285D01*
X72914285Y-111783809D01*
X72914285Y-111640952D01*
X72961904Y-111450476D01*
X73009523Y-111355238D01*
X73104761Y-111260000D01*
X73247619Y-111212380D01*
X73342857Y-111212380D01*
X73485714Y-111260000D01*
X73533333Y-111307619D01*
X74485714Y-112212380D02*
X73914285Y-112212380D01*
X74200000Y-112212380D02*
X74200000Y-111212380D01*
X74104761Y-111355238D01*
X74009523Y-111450476D01*
X73914285Y-111498095D01*
%TO.C,SW4*%
X140906666Y-141374761D02*
X141049523Y-141422380D01*
X141287619Y-141422380D01*
X141382857Y-141374761D01*
X141430476Y-141327142D01*
X141478095Y-141231904D01*
X141478095Y-141136666D01*
X141430476Y-141041428D01*
X141382857Y-140993809D01*
X141287619Y-140946190D01*
X141097142Y-140898571D01*
X141001904Y-140850952D01*
X140954285Y-140803333D01*
X140906666Y-140708095D01*
X140906666Y-140612857D01*
X140954285Y-140517619D01*
X141001904Y-140470000D01*
X141097142Y-140422380D01*
X141335238Y-140422380D01*
X141478095Y-140470000D01*
X141811428Y-140422380D02*
X142049523Y-141422380D01*
X142240000Y-140708095D01*
X142430476Y-141422380D01*
X142668571Y-140422380D01*
X143478095Y-140755714D02*
X143478095Y-141422380D01*
X143240000Y-140374761D02*
X143001904Y-141089047D01*
X143620952Y-141089047D01*
%TO.C,SW5*%
X97726666Y-93114761D02*
X97869523Y-93162380D01*
X98107619Y-93162380D01*
X98202857Y-93114761D01*
X98250476Y-93067142D01*
X98298095Y-92971904D01*
X98298095Y-92876666D01*
X98250476Y-92781428D01*
X98202857Y-92733809D01*
X98107619Y-92686190D01*
X97917142Y-92638571D01*
X97821904Y-92590952D01*
X97774285Y-92543333D01*
X97726666Y-92448095D01*
X97726666Y-92352857D01*
X97774285Y-92257619D01*
X97821904Y-92210000D01*
X97917142Y-92162380D01*
X98155238Y-92162380D01*
X98298095Y-92210000D01*
X98631428Y-92162380D02*
X98869523Y-93162380D01*
X99060000Y-92448095D01*
X99250476Y-93162380D01*
X99488571Y-92162380D01*
X100345714Y-92162380D02*
X99869523Y-92162380D01*
X99821904Y-92638571D01*
X99869523Y-92590952D01*
X99964761Y-92543333D01*
X100202857Y-92543333D01*
X100298095Y-92590952D01*
X100345714Y-92638571D01*
X100393333Y-92733809D01*
X100393333Y-92971904D01*
X100345714Y-93067142D01*
X100298095Y-93114761D01*
X100202857Y-93162380D01*
X99964761Y-93162380D01*
X99869523Y-93114761D01*
X99821904Y-93067142D01*
%TO.C,R5*%
X99682380Y-115736666D02*
X99206190Y-116070000D01*
X99682380Y-116308095D02*
X98682380Y-116308095D01*
X98682380Y-115927142D01*
X98730000Y-115831904D01*
X98777619Y-115784285D01*
X98872857Y-115736666D01*
X99015714Y-115736666D01*
X99110952Y-115784285D01*
X99158571Y-115831904D01*
X99206190Y-115927142D01*
X99206190Y-116308095D01*
X98682380Y-114831904D02*
X98682380Y-115308095D01*
X99158571Y-115355714D01*
X99110952Y-115308095D01*
X99063333Y-115212857D01*
X99063333Y-114974761D01*
X99110952Y-114879523D01*
X99158571Y-114831904D01*
X99253809Y-114784285D01*
X99491904Y-114784285D01*
X99587142Y-114831904D01*
X99634761Y-114879523D01*
X99682380Y-114974761D01*
X99682380Y-115212857D01*
X99634761Y-115308095D01*
X99587142Y-115355714D01*
X101385714Y-116903333D02*
X102052380Y-116903333D01*
X101004761Y-117141428D02*
X101719047Y-117379523D01*
X101719047Y-116760476D01*
X101052380Y-116474761D02*
X101052380Y-115808095D01*
X102052380Y-116236666D01*
X101052380Y-115236666D02*
X101052380Y-115141428D01*
X101100000Y-115046190D01*
X101147619Y-114998571D01*
X101242857Y-114950952D01*
X101433333Y-114903333D01*
X101671428Y-114903333D01*
X101861904Y-114950952D01*
X101957142Y-114998571D01*
X102004761Y-115046190D01*
X102052380Y-115141428D01*
X102052380Y-115236666D01*
X102004761Y-115331904D01*
X101957142Y-115379523D01*
X101861904Y-115427142D01*
X101671428Y-115474761D01*
X101433333Y-115474761D01*
X101242857Y-115427142D01*
X101147619Y-115379523D01*
X101100000Y-115331904D01*
X101052380Y-115236666D01*
X102052380Y-114522380D02*
X102052380Y-114284285D01*
X101861904Y-114284285D01*
X101814285Y-114379523D01*
X101719047Y-114474761D01*
X101576190Y-114522380D01*
X101338095Y-114522380D01*
X101195238Y-114474761D01*
X101100000Y-114379523D01*
X101052380Y-114236666D01*
X101052380Y-114046190D01*
X101100000Y-113903333D01*
X101195238Y-113808095D01*
X101338095Y-113760476D01*
X101576190Y-113760476D01*
X101719047Y-113808095D01*
X101814285Y-113903333D01*
X101861904Y-113998571D01*
X102052380Y-113998571D01*
X102052380Y-113760476D01*
%TO.C,D1*%
X128801904Y-137462380D02*
X128801904Y-136462380D01*
X129040000Y-136462380D01*
X129182857Y-136510000D01*
X129278095Y-136605238D01*
X129325714Y-136700476D01*
X129373333Y-136890952D01*
X129373333Y-137033809D01*
X129325714Y-137224285D01*
X129278095Y-137319523D01*
X129182857Y-137414761D01*
X129040000Y-137462380D01*
X128801904Y-137462380D01*
X130325714Y-137462380D02*
X129754285Y-137462380D01*
X130040000Y-137462380D02*
X130040000Y-136462380D01*
X129944761Y-136605238D01*
X129849523Y-136700476D01*
X129754285Y-136748095D01*
%TO.C,R6*%
X99512380Y-133516666D02*
X99036190Y-133850000D01*
X99512380Y-134088095D02*
X98512380Y-134088095D01*
X98512380Y-133707142D01*
X98560000Y-133611904D01*
X98607619Y-133564285D01*
X98702857Y-133516666D01*
X98845714Y-133516666D01*
X98940952Y-133564285D01*
X98988571Y-133611904D01*
X99036190Y-133707142D01*
X99036190Y-134088095D01*
X98512380Y-132659523D02*
X98512380Y-132850000D01*
X98560000Y-132945238D01*
X98607619Y-132992857D01*
X98750476Y-133088095D01*
X98940952Y-133135714D01*
X99321904Y-133135714D01*
X99417142Y-133088095D01*
X99464761Y-133040476D01*
X99512380Y-132945238D01*
X99512380Y-132754761D01*
X99464761Y-132659523D01*
X99417142Y-132611904D01*
X99321904Y-132564285D01*
X99083809Y-132564285D01*
X98988571Y-132611904D01*
X98940952Y-132659523D01*
X98893333Y-132754761D01*
X98893333Y-132945238D01*
X98940952Y-133040476D01*
X98988571Y-133088095D01*
X99083809Y-133135714D01*
X102052380Y-134516666D02*
X102052380Y-135088095D01*
X102052380Y-134802380D02*
X101052380Y-134802380D01*
X101195238Y-134897619D01*
X101290476Y-134992857D01*
X101338095Y-135088095D01*
X101052380Y-133897619D02*
X101052380Y-133802380D01*
X101100000Y-133707142D01*
X101147619Y-133659523D01*
X101242857Y-133611904D01*
X101433333Y-133564285D01*
X101671428Y-133564285D01*
X101861904Y-133611904D01*
X101957142Y-133659523D01*
X102004761Y-133707142D01*
X102052380Y-133802380D01*
X102052380Y-133897619D01*
X102004761Y-133992857D01*
X101957142Y-134040476D01*
X101861904Y-134088095D01*
X101671428Y-134135714D01*
X101433333Y-134135714D01*
X101242857Y-134088095D01*
X101147619Y-134040476D01*
X101100000Y-133992857D01*
X101052380Y-133897619D01*
X102052380Y-133135714D02*
X101052380Y-133135714D01*
X101671428Y-133040476D02*
X102052380Y-132754761D01*
X101385714Y-132754761D02*
X101766666Y-133135714D01*
X102052380Y-132373809D02*
X102052380Y-132135714D01*
X101861904Y-132135714D01*
X101814285Y-132230952D01*
X101719047Y-132326190D01*
X101576190Y-132373809D01*
X101338095Y-132373809D01*
X101195238Y-132326190D01*
X101100000Y-132230952D01*
X101052380Y-132088095D01*
X101052380Y-131897619D01*
X101100000Y-131754761D01*
X101195238Y-131659523D01*
X101338095Y-131611904D01*
X101576190Y-131611904D01*
X101719047Y-131659523D01*
X101814285Y-131754761D01*
X101861904Y-131850000D01*
X102052380Y-131850000D01*
X102052380Y-131611904D01*
%TO.C,C2*%
X73533333Y-103227142D02*
X73485714Y-103274761D01*
X73342857Y-103322380D01*
X73247619Y-103322380D01*
X73104761Y-103274761D01*
X73009523Y-103179523D01*
X72961904Y-103084285D01*
X72914285Y-102893809D01*
X72914285Y-102750952D01*
X72961904Y-102560476D01*
X73009523Y-102465238D01*
X73104761Y-102370000D01*
X73247619Y-102322380D01*
X73342857Y-102322380D01*
X73485714Y-102370000D01*
X73533333Y-102417619D01*
X73914285Y-102417619D02*
X73961904Y-102370000D01*
X74057142Y-102322380D01*
X74295238Y-102322380D01*
X74390476Y-102370000D01*
X74438095Y-102417619D01*
X74485714Y-102512857D01*
X74485714Y-102608095D01*
X74438095Y-102750952D01*
X73866666Y-103322380D01*
X74485714Y-103322380D01*
X72057142Y-98607619D02*
X72104761Y-98560000D01*
X72200000Y-98512380D01*
X72438095Y-98512380D01*
X72533333Y-98560000D01*
X72580952Y-98607619D01*
X72628571Y-98702857D01*
X72628571Y-98798095D01*
X72580952Y-98940952D01*
X72009523Y-99512380D01*
X72628571Y-99512380D01*
X73009523Y-98607619D02*
X73057142Y-98560000D01*
X73152380Y-98512380D01*
X73390476Y-98512380D01*
X73485714Y-98560000D01*
X73533333Y-98607619D01*
X73580952Y-98702857D01*
X73580952Y-98798095D01*
X73533333Y-98940952D01*
X72961904Y-99512380D01*
X73580952Y-99512380D01*
X74009523Y-98845714D02*
X74009523Y-99845714D01*
X74009523Y-98893333D02*
X74104761Y-98845714D01*
X74295238Y-98845714D01*
X74390476Y-98893333D01*
X74438095Y-98940952D01*
X74485714Y-99036190D01*
X74485714Y-99321904D01*
X74438095Y-99417142D01*
X74390476Y-99464761D01*
X74295238Y-99512380D01*
X74104761Y-99512380D01*
X74009523Y-99464761D01*
X75247619Y-98988571D02*
X74914285Y-98988571D01*
X74914285Y-99512380D02*
X74914285Y-98512380D01*
X75390476Y-98512380D01*
D12*
%TO.C,SW2*%
X139788000Y-123864000D02*
X144288000Y-123864000D01*
X138538000Y-119864000D02*
X138538000Y-121364000D01*
X144288000Y-117364000D02*
X139788000Y-117364000D01*
X145538000Y-121364000D02*
X145538000Y-119864000D01*
D11*
%TO.C,LS1*%
X87366000Y-92456000D02*
G75*
G03*
X87366000Y-92456000I-6300000J0D01*
G01*
D12*
%TO.C,Y1*%
X71310000Y-118800000D02*
X76010000Y-118800000D01*
X71310000Y-122500000D02*
X76010000Y-122500000D01*
X71310000Y-118800000D02*
G75*
G03*
X71310000Y-122500000I0J-1850000D01*
G01*
X76010000Y-122500000D02*
G75*
G03*
X76010000Y-118800000I0J1850000D01*
G01*
%TO.C,R3*%
X112300000Y-122020000D02*
X118840000Y-122020000D01*
X111530000Y-120650000D02*
X112300000Y-120650000D01*
X118840000Y-122020000D02*
X118840000Y-119280000D01*
X112300000Y-119280000D02*
X112300000Y-122020000D01*
X118840000Y-119280000D02*
X112300000Y-119280000D01*
X119610000Y-120650000D02*
X118840000Y-120650000D01*
%TO.C,SW1*%
X144490000Y-107240000D02*
X139990000Y-107240000D01*
X145740000Y-111240000D02*
X145740000Y-109740000D01*
X138740000Y-109740000D02*
X138740000Y-111240000D01*
X139990000Y-113740000D02*
X144490000Y-113740000D01*
%TO.C,JP1*%
X88900000Y-138370000D02*
X86300000Y-138370000D01*
X86300000Y-138370000D02*
X86300000Y-141030000D01*
X90170000Y-138370000D02*
X91500000Y-138370000D01*
X88900000Y-141030000D02*
X86300000Y-141030000D01*
X88900000Y-138370000D02*
X88900000Y-141030000D01*
X91500000Y-138370000D02*
X91500000Y-139700000D01*
%TO.C,R4*%
X111530000Y-110490000D02*
X112300000Y-110490000D01*
X118840000Y-109120000D02*
X112300000Y-109120000D01*
X118840000Y-111860000D02*
X118840000Y-109120000D01*
X112300000Y-109120000D02*
X112300000Y-111860000D01*
X112300000Y-111860000D02*
X118840000Y-111860000D01*
X119610000Y-110490000D02*
X118840000Y-110490000D01*
%TO.C,J1*%
X68710000Y-130810000D02*
X67710000Y-130310000D01*
X70410000Y-135400000D02*
X69100000Y-135400000D01*
X70410000Y-135400000D02*
X70410000Y-135400000D01*
X69100000Y-141100000D02*
X69100000Y-125600000D01*
X78220000Y-125600000D02*
X78220000Y-141100000D01*
X67710000Y-130310000D02*
X67710000Y-131310000D01*
X70410000Y-139800000D02*
X70410000Y-135400000D01*
X76910000Y-139800000D02*
X70410000Y-139800000D01*
X69100000Y-125600000D02*
X78220000Y-125600000D01*
X78220000Y-141100000D02*
X69100000Y-141100000D01*
X70410000Y-126900000D02*
X76910000Y-126900000D01*
X70410000Y-131300000D02*
X70410000Y-126900000D01*
X69100000Y-131300000D02*
X70410000Y-131300000D01*
X67710000Y-131310000D02*
X68710000Y-130810000D01*
X76910000Y-126900000D02*
X76910000Y-139800000D01*
%TO.C,SW3*%
X138740000Y-130060000D02*
X138740000Y-131560000D01*
X145740000Y-131560000D02*
X145740000Y-130060000D01*
X144490000Y-127560000D02*
X139990000Y-127560000D01*
X139990000Y-134060000D02*
X144490000Y-134060000D01*
%TO.C,D2*%
X126980000Y-129265000D02*
X126980000Y-132355000D01*
X132530000Y-130810462D02*
G75*
G03*
X126980000Y-129265170I-2990000J462D01*
G01*
X126980000Y-132354830D02*
G75*
G03*
X132530000Y-130809538I2560000J1544830D01*
G01*
X132040000Y-130810000D02*
G75*
G03*
X132040000Y-130810000I-2500000J0D01*
G01*
%TO.C,R2*%
X118840000Y-132180000D02*
X118840000Y-129440000D01*
X118840000Y-129440000D02*
X112300000Y-129440000D01*
X119610000Y-130810000D02*
X118840000Y-130810000D01*
X112300000Y-129440000D02*
X112300000Y-132180000D01*
X111530000Y-130810000D02*
X112300000Y-130810000D01*
X112300000Y-132180000D02*
X118840000Y-132180000D01*
%TO.C,D3*%
X126980000Y-119105000D02*
X126980000Y-122195000D01*
X132530000Y-120650462D02*
G75*
G03*
X126980000Y-119105170I-2990000J462D01*
G01*
X126980000Y-122194830D02*
G75*
G03*
X132530000Y-120649538I2560000J1544830D01*
G01*
X132040000Y-120650000D02*
G75*
G03*
X132040000Y-120650000I-2500000J0D01*
G01*
%TO.C,U1*%
X91550000Y-100270000D02*
X86250000Y-100270000D01*
X86250000Y-135950000D02*
X87900000Y-135950000D01*
X86250000Y-100270000D02*
X86250000Y-135950000D01*
X91550000Y-135950000D02*
X91550000Y-100270000D01*
X89900000Y-135950000D02*
X91550000Y-135950000D01*
X89900000Y-135950000D02*
G75*
G03*
X87900000Y-135950000I-1000000J0D01*
G01*
%TO.C,D4*%
X126980000Y-108945000D02*
X126980000Y-112035000D01*
X126980000Y-112034830D02*
G75*
G03*
X132530000Y-110489538I2560000J1544830D01*
G01*
X132530000Y-110490462D02*
G75*
G03*
X126980000Y-108945170I-2990000J462D01*
G01*
X132040000Y-110490000D02*
G75*
G03*
X132040000Y-110490000I-2500000J0D01*
G01*
%TO.C,D5*%
X97770000Y-97515000D02*
X97770000Y-100605000D01*
X97770000Y-100604830D02*
G75*
G03*
X103320000Y-99059538I2560000J1544830D01*
G01*
X103320000Y-99060462D02*
G75*
G03*
X97770000Y-97515170I-2990000J462D01*
G01*
X102830000Y-99060000D02*
G75*
G03*
X102830000Y-99060000I-2500000J0D01*
G01*
%TO.C,R1*%
X112300000Y-142340000D02*
X118840000Y-142340000D01*
X118840000Y-139600000D02*
X112300000Y-139600000D01*
X111530000Y-140970000D02*
X112300000Y-140970000D01*
X118840000Y-142340000D02*
X118840000Y-139600000D01*
X119610000Y-140970000D02*
X118840000Y-140970000D01*
X112300000Y-139600000D02*
X112300000Y-142340000D01*
%TO.C,C1*%
X69830000Y-114380000D02*
X77570000Y-114380000D01*
X77570000Y-109140000D02*
X77570000Y-114380000D01*
X69830000Y-109140000D02*
X77570000Y-109140000D01*
X69830000Y-109140000D02*
X69830000Y-114380000D01*
%TO.C,SW4*%
X138740000Y-140220000D02*
X138740000Y-141720000D01*
X145740000Y-141720000D02*
X145740000Y-140220000D01*
X144490000Y-137720000D02*
X139990000Y-137720000D01*
X139990000Y-144220000D02*
X144490000Y-144220000D01*
%TO.C,SW5*%
X94110000Y-86480000D02*
X104010000Y-86480000D01*
X97030000Y-88265000D02*
X97030000Y-89535000D01*
X94110000Y-86480000D02*
X94110000Y-91320000D01*
X97030000Y-88745000D02*
X98383333Y-88745000D01*
X97030000Y-89105000D02*
X98383333Y-89105000D01*
X97030000Y-88865000D02*
X98383333Y-88865000D01*
X97030000Y-89535000D02*
X101090000Y-89535000D01*
X97030000Y-89465000D02*
X98383333Y-89465000D01*
X101090000Y-88265000D02*
X97030000Y-88265000D01*
X97030000Y-89225000D02*
X98383333Y-89225000D01*
X104010000Y-86480000D02*
X104010000Y-91320000D01*
X93870000Y-86240000D02*
X95254000Y-86240000D01*
X97030000Y-88625000D02*
X98383333Y-88625000D01*
X97030000Y-88385000D02*
X98383333Y-88385000D01*
X97030000Y-89345000D02*
X98383333Y-89345000D01*
X97030000Y-88985000D02*
X98383333Y-88985000D01*
X94110000Y-91320000D02*
X104010000Y-91320000D01*
X101090000Y-89535000D02*
X101090000Y-88265000D01*
X98383333Y-88265000D02*
X98383333Y-89535000D01*
X97030000Y-88505000D02*
X98383333Y-88505000D01*
X93870000Y-86240000D02*
X93870000Y-87623000D01*
%TO.C,R5*%
X100230000Y-118840000D02*
X102970000Y-118840000D01*
X102970000Y-118840000D02*
X102970000Y-112300000D01*
X101600000Y-119610000D02*
X101600000Y-118840000D01*
X100230000Y-112300000D02*
X100230000Y-118840000D01*
X102970000Y-112300000D02*
X100230000Y-112300000D01*
X101600000Y-111530000D02*
X101600000Y-112300000D01*
%TO.C,D1*%
X126980000Y-139425000D02*
X126980000Y-142515000D01*
X126980000Y-142514830D02*
G75*
G03*
X132530000Y-140969538I2560000J1544830D01*
G01*
X132530000Y-140970462D02*
G75*
G03*
X126980000Y-139425170I-2990000J462D01*
G01*
X132040000Y-140970000D02*
G75*
G03*
X132040000Y-140970000I-2500000J0D01*
G01*
%TO.C,R6*%
X102970000Y-130080000D02*
X100230000Y-130080000D01*
X101600000Y-129310000D02*
X101600000Y-130080000D01*
X100230000Y-130080000D02*
X100230000Y-136620000D01*
X101600000Y-137390000D02*
X101600000Y-136620000D01*
X100230000Y-136620000D02*
X102970000Y-136620000D01*
X102970000Y-136620000D02*
X102970000Y-130080000D01*
%TO.C,C2*%
X77570000Y-100250000D02*
X77570000Y-105490000D01*
X69830000Y-100250000D02*
X77570000Y-100250000D01*
X69830000Y-105490000D02*
X77570000Y-105490000D01*
X69830000Y-100250000D02*
X69830000Y-105490000D01*
D13*
%TO.C,BT1*%
X119888000Y-103300000D02*
X135128000Y-103300000D01*
X117508000Y-98750000D02*
X119888000Y-103300000D01*
X113258000Y-91750000D02*
X117508000Y-91750000D01*
X135128000Y-103300000D02*
X137508000Y-98750000D01*
X135128000Y-87200000D02*
X137508000Y-91750000D01*
X113258000Y-98750000D02*
X117508000Y-98750000D01*
X137508000Y-91750000D02*
X141758000Y-91750000D01*
X137508000Y-98750000D02*
X141758000Y-98750000D01*
X117508000Y-91750000D02*
X119888000Y-87200000D01*
X119888000Y-87200000D02*
X135128000Y-87200000D01*
%TD*%
M02*
