%TF.GenerationSoftware,KiCad,Pcbnew,(6.0.0)*%
%TF.CreationDate,2022-04-23T15:12:40-04:00*%
%TF.ProjectId,DIY,4449592e-6b69-4636-9164-5f7063625858,rev?*%
%TF.SameCoordinates,Original*%
%TF.FileFunction,Legend,Bot*%
%TF.FilePolarity,Positive*%
%FSLAX46Y46*%
G04 Gerber Fmt 4.6, Leading zero omitted, Abs format (unit mm)*
G04 Created by KiCad (PCBNEW (6.0.0)) date 2022-04-23 15:12:40*
%MOMM*%
%LPD*%
G01*
G04 APERTURE LIST*
%ADD10C,0.250000*%
%ADD11C,0.300000*%
G04 APERTURE END LIST*
D10*
X132215714Y-144188571D02*
X132215714Y-142688571D01*
X131572857Y-144188571D02*
X131572857Y-143402857D01*
X131644285Y-143260000D01*
X131787142Y-143188571D01*
X132001428Y-143188571D01*
X132144285Y-143260000D01*
X132215714Y-143331428D01*
X131072857Y-143188571D02*
X130501428Y-143188571D01*
X130858571Y-142688571D02*
X130858571Y-143974285D01*
X130787142Y-144117142D01*
X130644285Y-144188571D01*
X130501428Y-144188571D01*
X130215714Y-143188571D02*
X129644285Y-143188571D01*
X130001428Y-142688571D02*
X130001428Y-143974285D01*
X129930000Y-144117142D01*
X129787142Y-144188571D01*
X129644285Y-144188571D01*
X129144285Y-143188571D02*
X129144285Y-144688571D01*
X129144285Y-143260000D02*
X129001428Y-143188571D01*
X128715714Y-143188571D01*
X128572857Y-143260000D01*
X128501428Y-143331428D01*
X128430000Y-143474285D01*
X128430000Y-143902857D01*
X128501428Y-144045714D01*
X128572857Y-144117142D01*
X128715714Y-144188571D01*
X129001428Y-144188571D01*
X129144285Y-144117142D01*
X127858571Y-144117142D02*
X127715714Y-144188571D01*
X127430000Y-144188571D01*
X127287142Y-144117142D01*
X127215714Y-143974285D01*
X127215714Y-143902857D01*
X127287142Y-143760000D01*
X127430000Y-143688571D01*
X127644285Y-143688571D01*
X127787142Y-143617142D01*
X127858571Y-143474285D01*
X127858571Y-143402857D01*
X127787142Y-143260000D01*
X127644285Y-143188571D01*
X127430000Y-143188571D01*
X127287142Y-143260000D01*
X126572857Y-144045714D02*
X126501428Y-144117142D01*
X126572857Y-144188571D01*
X126644285Y-144117142D01*
X126572857Y-144045714D01*
X126572857Y-144188571D01*
X126572857Y-143260000D02*
X126501428Y-143331428D01*
X126572857Y-143402857D01*
X126644285Y-143331428D01*
X126572857Y-143260000D01*
X126572857Y-143402857D01*
X124787142Y-142617142D02*
X126072857Y-144545714D01*
X123215714Y-142617142D02*
X124501428Y-144545714D01*
X122072857Y-143188571D02*
X122072857Y-144402857D01*
X122144285Y-144545714D01*
X122215714Y-144617142D01*
X122358571Y-144688571D01*
X122572857Y-144688571D01*
X122715714Y-144617142D01*
X122072857Y-144117142D02*
X122215714Y-144188571D01*
X122501428Y-144188571D01*
X122644285Y-144117142D01*
X122715714Y-144045714D01*
X122787142Y-143902857D01*
X122787142Y-143474285D01*
X122715714Y-143331428D01*
X122644285Y-143260000D01*
X122501428Y-143188571D01*
X122215714Y-143188571D01*
X122072857Y-143260000D01*
X121358571Y-144188571D02*
X121358571Y-143188571D01*
X121358571Y-142688571D02*
X121429999Y-142760000D01*
X121358571Y-142831428D01*
X121287142Y-142760000D01*
X121358571Y-142688571D01*
X121358571Y-142831428D01*
X120858571Y-143188571D02*
X120287142Y-143188571D01*
X120644285Y-142688571D02*
X120644285Y-143974285D01*
X120572857Y-144117142D01*
X120429999Y-144188571D01*
X120287142Y-144188571D01*
X119787142Y-144188571D02*
X119787142Y-142688571D01*
X119144285Y-144188571D02*
X119144285Y-143402857D01*
X119215714Y-143260000D01*
X119358571Y-143188571D01*
X119572857Y-143188571D01*
X119715714Y-143260000D01*
X119787142Y-143331428D01*
X117787142Y-143188571D02*
X117787142Y-144188571D01*
X118429999Y-143188571D02*
X118429999Y-143974285D01*
X118358571Y-144117142D01*
X118215714Y-144188571D01*
X118001428Y-144188571D01*
X117858571Y-144117142D01*
X117787142Y-144045714D01*
X117072857Y-144188571D02*
X117072857Y-142688571D01*
X117072857Y-143260000D02*
X116929999Y-143188571D01*
X116644285Y-143188571D01*
X116501428Y-143260000D01*
X116429999Y-143331428D01*
X116358571Y-143474285D01*
X116358571Y-143902857D01*
X116429999Y-144045714D01*
X116501428Y-144117142D01*
X116644285Y-144188571D01*
X116929999Y-144188571D01*
X117072857Y-144117142D01*
X115715714Y-144045714D02*
X115644285Y-144117142D01*
X115715714Y-144188571D01*
X115787142Y-144117142D01*
X115715714Y-144045714D01*
X115715714Y-144188571D01*
X114358571Y-144117142D02*
X114501428Y-144188571D01*
X114787142Y-144188571D01*
X114929999Y-144117142D01*
X115001428Y-144045714D01*
X115072857Y-143902857D01*
X115072857Y-143474285D01*
X115001428Y-143331428D01*
X114929999Y-143260000D01*
X114787142Y-143188571D01*
X114501428Y-143188571D01*
X114358571Y-143260000D01*
X113501428Y-144188571D02*
X113644285Y-144117142D01*
X113715714Y-144045714D01*
X113787142Y-143902857D01*
X113787142Y-143474285D01*
X113715714Y-143331428D01*
X113644285Y-143260000D01*
X113501428Y-143188571D01*
X113287142Y-143188571D01*
X113144285Y-143260000D01*
X113072857Y-143331428D01*
X113001428Y-143474285D01*
X113001428Y-143902857D01*
X113072857Y-144045714D01*
X113144285Y-144117142D01*
X113287142Y-144188571D01*
X113501428Y-144188571D01*
X112358571Y-144188571D02*
X112358571Y-143188571D01*
X112358571Y-143331428D02*
X112287142Y-143260000D01*
X112144285Y-143188571D01*
X111929999Y-143188571D01*
X111787142Y-143260000D01*
X111715714Y-143402857D01*
X111715714Y-144188571D01*
X111715714Y-143402857D02*
X111644285Y-143260000D01*
X111501428Y-143188571D01*
X111287142Y-143188571D01*
X111144285Y-143260000D01*
X111072857Y-143402857D01*
X111072857Y-144188571D01*
X109287142Y-142617142D02*
X110572857Y-144545714D01*
X108787142Y-144188571D02*
X108787142Y-143188571D01*
X108787142Y-143331428D02*
X108715714Y-143260000D01*
X108572857Y-143188571D01*
X108358571Y-143188571D01*
X108215714Y-143260000D01*
X108144285Y-143402857D01*
X108144285Y-144188571D01*
X108144285Y-143402857D02*
X108072857Y-143260000D01*
X107929999Y-143188571D01*
X107715714Y-143188571D01*
X107572857Y-143260000D01*
X107501428Y-143402857D01*
X107501428Y-144188571D01*
X106787142Y-144188571D02*
X106787142Y-143188571D01*
X106787142Y-142688571D02*
X106858571Y-142760000D01*
X106787142Y-142831428D01*
X106715714Y-142760000D01*
X106787142Y-142688571D01*
X106787142Y-142831428D01*
X106072857Y-144188571D02*
X106072857Y-142688571D01*
X105929999Y-143617142D02*
X105501428Y-144188571D01*
X105501428Y-143188571D02*
X106072857Y-143760000D01*
X104287142Y-144117142D02*
X104429999Y-144188571D01*
X104715714Y-144188571D01*
X104858571Y-144117142D01*
X104929999Y-143974285D01*
X104929999Y-143402857D01*
X104858571Y-143260000D01*
X104715714Y-143188571D01*
X104429999Y-143188571D01*
X104287142Y-143260000D01*
X104215714Y-143402857D01*
X104215714Y-143545714D01*
X104929999Y-143688571D01*
X103715714Y-143188571D02*
X103358571Y-144188571D01*
X103001428Y-143188571D02*
X103358571Y-144188571D01*
X103501428Y-144545714D01*
X103572857Y-144617142D01*
X103715714Y-144688571D01*
X102429999Y-144188571D02*
X102429999Y-143188571D01*
X102429999Y-143331428D02*
X102358571Y-143260000D01*
X102215714Y-143188571D01*
X102001428Y-143188571D01*
X101858571Y-143260000D01*
X101787142Y-143402857D01*
X101787142Y-144188571D01*
X101787142Y-143402857D02*
X101715714Y-143260000D01*
X101572857Y-143188571D01*
X101358571Y-143188571D01*
X101215714Y-143260000D01*
X101144285Y-143402857D01*
X101144285Y-144188571D01*
X99787142Y-144117142D02*
X99929999Y-144188571D01*
X100215714Y-144188571D01*
X100358571Y-144117142D01*
X100429999Y-144045714D01*
X100501428Y-143902857D01*
X100501428Y-143474285D01*
X100429999Y-143331428D01*
X100358571Y-143260000D01*
X100215714Y-143188571D01*
X99929999Y-143188571D01*
X99787142Y-143260000D01*
X99358571Y-143188571D02*
X98787142Y-143188571D01*
X99144285Y-144188571D02*
X99144285Y-142902857D01*
X99072857Y-142760000D01*
X98929999Y-142688571D01*
X98787142Y-142688571D01*
X98287142Y-144188571D02*
X98287142Y-143188571D01*
X98287142Y-142688571D02*
X98358571Y-142760000D01*
X98287142Y-142831428D01*
X98215714Y-142760000D01*
X98287142Y-142688571D01*
X98287142Y-142831428D01*
X97644285Y-144117142D02*
X97501428Y-144188571D01*
X97215714Y-144188571D01*
X97072857Y-144117142D01*
X97001428Y-143974285D01*
X97001428Y-143902857D01*
X97072857Y-143760000D01*
X97215714Y-143688571D01*
X97429999Y-143688571D01*
X97572857Y-143617142D01*
X97644285Y-143474285D01*
X97644285Y-143402857D01*
X97572857Y-143260000D01*
X97429999Y-143188571D01*
X97215714Y-143188571D01*
X97072857Y-143260000D01*
X96358571Y-144188571D02*
X96358571Y-142688571D01*
X95715714Y-144188571D02*
X95715714Y-143402857D01*
X95787142Y-143260000D01*
X95929999Y-143188571D01*
X96144285Y-143188571D01*
X96287142Y-143260000D01*
X96358571Y-143331428D01*
X93929999Y-142617142D02*
X95215714Y-144545714D01*
X93501428Y-144117142D02*
X93287142Y-144188571D01*
X92929999Y-144188571D01*
X92787142Y-144117142D01*
X92715714Y-144045714D01*
X92644285Y-143902857D01*
X92644285Y-143760000D01*
X92715714Y-143617142D01*
X92787142Y-143545714D01*
X92929999Y-143474285D01*
X93215714Y-143402857D01*
X93358571Y-143331428D01*
X93429999Y-143260000D01*
X93501428Y-143117142D01*
X93501428Y-142974285D01*
X93429999Y-142831428D01*
X93358571Y-142760000D01*
X93215714Y-142688571D01*
X92858571Y-142688571D01*
X92644285Y-142760000D01*
X92001428Y-144188571D02*
X92001428Y-143188571D01*
X92001428Y-142688571D02*
X92072857Y-142760000D01*
X92001428Y-142831428D01*
X91929999Y-142760000D01*
X92001428Y-142688571D01*
X92001428Y-142831428D01*
X91287142Y-144188571D02*
X91287142Y-143188571D01*
X91287142Y-143331428D02*
X91215714Y-143260000D01*
X91072857Y-143188571D01*
X90858571Y-143188571D01*
X90715714Y-143260000D01*
X90644285Y-143402857D01*
X90644285Y-144188571D01*
X90644285Y-143402857D02*
X90572857Y-143260000D01*
X90429999Y-143188571D01*
X90215714Y-143188571D01*
X90072857Y-143260000D01*
X90001428Y-143402857D01*
X90001428Y-144188571D01*
X89072857Y-144188571D02*
X89215714Y-144117142D01*
X89287142Y-144045714D01*
X89358571Y-143902857D01*
X89358571Y-143474285D01*
X89287142Y-143331428D01*
X89215714Y-143260000D01*
X89072857Y-143188571D01*
X88858571Y-143188571D01*
X88715714Y-143260000D01*
X88644285Y-143331428D01*
X88572857Y-143474285D01*
X88572857Y-143902857D01*
X88644285Y-144045714D01*
X88715714Y-144117142D01*
X88858571Y-144188571D01*
X89072857Y-144188571D01*
X87929999Y-143188571D02*
X87929999Y-144188571D01*
X87929999Y-143331428D02*
X87858571Y-143260000D01*
X87715714Y-143188571D01*
X87501428Y-143188571D01*
X87358571Y-143260000D01*
X87287142Y-143402857D01*
X87287142Y-144188571D01*
X85787142Y-142760000D02*
X85929999Y-142688571D01*
X86144285Y-142688571D01*
X86358571Y-142760000D01*
X86501428Y-142902857D01*
X86572857Y-143045714D01*
X86644285Y-143331428D01*
X86644285Y-143545714D01*
X86572857Y-143831428D01*
X86501428Y-143974285D01*
X86358571Y-144117142D01*
X86144285Y-144188571D01*
X86001428Y-144188571D01*
X85787142Y-144117142D01*
X85715714Y-144045714D01*
X85715714Y-143545714D01*
X86001428Y-143545714D01*
X84429999Y-144188571D02*
X84429999Y-143402857D01*
X84501428Y-143260000D01*
X84644285Y-143188571D01*
X84929999Y-143188571D01*
X85072857Y-143260000D01*
X84429999Y-144117142D02*
X84572857Y-144188571D01*
X84929999Y-144188571D01*
X85072857Y-144117142D01*
X85144285Y-143974285D01*
X85144285Y-143831428D01*
X85072857Y-143688571D01*
X84929999Y-143617142D01*
X84572857Y-143617142D01*
X84429999Y-143545714D01*
X83715714Y-144188571D02*
X83715714Y-143188571D01*
X83715714Y-143331428D02*
X83644285Y-143260000D01*
X83501428Y-143188571D01*
X83287142Y-143188571D01*
X83144285Y-143260000D01*
X83072857Y-143402857D01*
X83072857Y-144188571D01*
X83072857Y-143402857D02*
X83001428Y-143260000D01*
X82858571Y-143188571D01*
X82644285Y-143188571D01*
X82501428Y-143260000D01*
X82429999Y-143402857D01*
X82429999Y-144188571D01*
X81144285Y-144117142D02*
X81287142Y-144188571D01*
X81572857Y-144188571D01*
X81715714Y-144117142D01*
X81787142Y-143974285D01*
X81787142Y-143402857D01*
X81715714Y-143260000D01*
X81572857Y-143188571D01*
X81287142Y-143188571D01*
X81144285Y-143260000D01*
X81072857Y-143402857D01*
X81072857Y-143545714D01*
X81787142Y-143688571D01*
X120537142Y-133819523D02*
X120251428Y-133914761D01*
X119775238Y-133914761D01*
X119584761Y-133819523D01*
X119489523Y-133724285D01*
X119394285Y-133533809D01*
X119394285Y-133343333D01*
X119489523Y-133152857D01*
X119584761Y-133057619D01*
X119775238Y-132962380D01*
X120156190Y-132867142D01*
X120346666Y-132771904D01*
X120441904Y-132676666D01*
X120537142Y-132486190D01*
X120537142Y-132295714D01*
X120441904Y-132105238D01*
X120346666Y-132010000D01*
X120156190Y-131914761D01*
X119680000Y-131914761D01*
X119394285Y-132010000D01*
X118537142Y-133914761D02*
X118537142Y-132581428D01*
X118537142Y-131914761D02*
X118632380Y-132010000D01*
X118537142Y-132105238D01*
X118441904Y-132010000D01*
X118537142Y-131914761D01*
X118537142Y-132105238D01*
X117584761Y-133914761D02*
X117584761Y-132581428D01*
X117584761Y-132771904D02*
X117489523Y-132676666D01*
X117299047Y-132581428D01*
X117013333Y-132581428D01*
X116822857Y-132676666D01*
X116727619Y-132867142D01*
X116727619Y-133914761D01*
X116727619Y-132867142D02*
X116632380Y-132676666D01*
X116441904Y-132581428D01*
X116156190Y-132581428D01*
X115965714Y-132676666D01*
X115870476Y-132867142D01*
X115870476Y-133914761D01*
X114632380Y-133914761D02*
X114822857Y-133819523D01*
X114918095Y-133724285D01*
X115013333Y-133533809D01*
X115013333Y-132962380D01*
X114918095Y-132771904D01*
X114822857Y-132676666D01*
X114632380Y-132581428D01*
X114346666Y-132581428D01*
X114156190Y-132676666D01*
X114060952Y-132771904D01*
X113965714Y-132962380D01*
X113965714Y-133533809D01*
X114060952Y-133724285D01*
X114156190Y-133819523D01*
X114346666Y-133914761D01*
X114632380Y-133914761D01*
X113108571Y-132581428D02*
X113108571Y-133914761D01*
X113108571Y-132771904D02*
X113013333Y-132676666D01*
X112822857Y-132581428D01*
X112537142Y-132581428D01*
X112346666Y-132676666D01*
X112251428Y-132867142D01*
X112251428Y-133914761D01*
X108727619Y-132010000D02*
X108918095Y-131914761D01*
X109203809Y-131914761D01*
X109489523Y-132010000D01*
X109680000Y-132200476D01*
X109775238Y-132390952D01*
X109870476Y-132771904D01*
X109870476Y-133057619D01*
X109775238Y-133438571D01*
X109680000Y-133629047D01*
X109489523Y-133819523D01*
X109203809Y-133914761D01*
X109013333Y-133914761D01*
X108727619Y-133819523D01*
X108632380Y-133724285D01*
X108632380Y-133057619D01*
X109013333Y-133057619D01*
X106918095Y-133914761D02*
X106918095Y-132867142D01*
X107013333Y-132676666D01*
X107203809Y-132581428D01*
X107584761Y-132581428D01*
X107775238Y-132676666D01*
X106918095Y-133819523D02*
X107108571Y-133914761D01*
X107584761Y-133914761D01*
X107775238Y-133819523D01*
X107870476Y-133629047D01*
X107870476Y-133438571D01*
X107775238Y-133248095D01*
X107584761Y-133152857D01*
X107108571Y-133152857D01*
X106918095Y-133057619D01*
X105965714Y-133914761D02*
X105965714Y-132581428D01*
X105965714Y-132771904D02*
X105870476Y-132676666D01*
X105680000Y-132581428D01*
X105394285Y-132581428D01*
X105203809Y-132676666D01*
X105108571Y-132867142D01*
X105108571Y-133914761D01*
X105108571Y-132867142D02*
X105013333Y-132676666D01*
X104822857Y-132581428D01*
X104537142Y-132581428D01*
X104346666Y-132676666D01*
X104251428Y-132867142D01*
X104251428Y-133914761D01*
X102537142Y-133819523D02*
X102727619Y-133914761D01*
X103108571Y-133914761D01*
X103299047Y-133819523D01*
X103394285Y-133629047D01*
X103394285Y-132867142D01*
X103299047Y-132676666D01*
X103108571Y-132581428D01*
X102727619Y-132581428D01*
X102537142Y-132676666D01*
X102441904Y-132867142D01*
X102441904Y-133057619D01*
X103394285Y-133248095D01*
X100060952Y-133914761D02*
X100060952Y-131914761D01*
X99584761Y-131914761D01*
X99299047Y-132010000D01*
X99108571Y-132200476D01*
X99013333Y-132390952D01*
X98918095Y-132771904D01*
X98918095Y-133057619D01*
X99013333Y-133438571D01*
X99108571Y-133629047D01*
X99299047Y-133819523D01*
X99584761Y-133914761D01*
X100060952Y-133914761D01*
X98060952Y-133724285D02*
X97965714Y-133819523D01*
X98060952Y-133914761D01*
X98156190Y-133819523D01*
X98060952Y-133724285D01*
X98060952Y-133914761D01*
X97108571Y-133914761D02*
X97108571Y-131914761D01*
X96156190Y-133724285D02*
X96060952Y-133819523D01*
X96156190Y-133914761D01*
X96251428Y-133819523D01*
X96156190Y-133724285D01*
X96156190Y-133914761D01*
X94822857Y-132962380D02*
X94822857Y-133914761D01*
X95489523Y-131914761D02*
X94822857Y-132962380D01*
X94156190Y-131914761D01*
X114870476Y-135801428D02*
X114394285Y-137134761D01*
X113918095Y-135801428D01*
X112394285Y-137039523D02*
X112584761Y-137134761D01*
X112965714Y-137134761D01*
X113156190Y-137039523D01*
X113251428Y-136849047D01*
X113251428Y-136087142D01*
X113156190Y-135896666D01*
X112965714Y-135801428D01*
X112584761Y-135801428D01*
X112394285Y-135896666D01*
X112299047Y-136087142D01*
X112299047Y-136277619D01*
X113251428Y-136468095D01*
X111441904Y-137134761D02*
X111441904Y-135801428D01*
X111441904Y-136182380D02*
X111346666Y-135991904D01*
X111251428Y-135896666D01*
X111060952Y-135801428D01*
X110870476Y-135801428D01*
X110299047Y-137039523D02*
X110108571Y-137134761D01*
X109727619Y-137134761D01*
X109537142Y-137039523D01*
X109441904Y-136849047D01*
X109441904Y-136753809D01*
X109537142Y-136563333D01*
X109727619Y-136468095D01*
X110013333Y-136468095D01*
X110203809Y-136372857D01*
X110299047Y-136182380D01*
X110299047Y-136087142D01*
X110203809Y-135896666D01*
X110013333Y-135801428D01*
X109727619Y-135801428D01*
X109537142Y-135896666D01*
X108584761Y-137134761D02*
X108584761Y-135801428D01*
X108584761Y-135134761D02*
X108680000Y-135230000D01*
X108584761Y-135325238D01*
X108489523Y-135230000D01*
X108584761Y-135134761D01*
X108584761Y-135325238D01*
X107346666Y-137134761D02*
X107537142Y-137039523D01*
X107632380Y-136944285D01*
X107727619Y-136753809D01*
X107727619Y-136182380D01*
X107632380Y-135991904D01*
X107537142Y-135896666D01*
X107346666Y-135801428D01*
X107060952Y-135801428D01*
X106870476Y-135896666D01*
X106775238Y-135991904D01*
X106680000Y-136182380D01*
X106680000Y-136753809D01*
X106775238Y-136944285D01*
X106870476Y-137039523D01*
X107060952Y-137134761D01*
X107346666Y-137134761D01*
X105822857Y-135801428D02*
X105822857Y-137134761D01*
X105822857Y-135991904D02*
X105727619Y-135896666D01*
X105537142Y-135801428D01*
X105251428Y-135801428D01*
X105060952Y-135896666D01*
X104965714Y-136087142D01*
X104965714Y-137134761D01*
X101441904Y-137134761D02*
X102584761Y-137134761D01*
X102013333Y-137134761D02*
X102013333Y-135134761D01*
X102203809Y-135420476D01*
X102394285Y-135610952D01*
X102584761Y-135706190D01*
X100584761Y-136944285D02*
X100489523Y-137039523D01*
X100584761Y-137134761D01*
X100680000Y-137039523D01*
X100584761Y-136944285D01*
X100584761Y-137134761D01*
X99251428Y-135134761D02*
X99060952Y-135134761D01*
X98870476Y-135230000D01*
X98775238Y-135325238D01*
X98680000Y-135515714D01*
X98584761Y-135896666D01*
X98584761Y-136372857D01*
X98680000Y-136753809D01*
X98775238Y-136944285D01*
X98870476Y-137039523D01*
X99060952Y-137134761D01*
X99251428Y-137134761D01*
X99441904Y-137039523D01*
X99537142Y-136944285D01*
X99632380Y-136753809D01*
X99727619Y-136372857D01*
X99727619Y-135896666D01*
X99632380Y-135515714D01*
X99537142Y-135325238D01*
X99441904Y-135230000D01*
X99251428Y-135134761D01*
D11*
%TO.C,G\u002A\u002A\u002A*%
X107768571Y-110998000D02*
X107913714Y-110925428D01*
X108131428Y-110925428D01*
X108349142Y-110998000D01*
X108494285Y-111143142D01*
X108566857Y-111288285D01*
X108639428Y-111578571D01*
X108639428Y-111796285D01*
X108566857Y-112086571D01*
X108494285Y-112231714D01*
X108349142Y-112376857D01*
X108131428Y-112449428D01*
X107986285Y-112449428D01*
X107768571Y-112376857D01*
X107696000Y-112304285D01*
X107696000Y-111796285D01*
X107986285Y-111796285D01*
X106825142Y-110925428D02*
X106825142Y-111288285D01*
X107188000Y-111143142D02*
X106825142Y-111288285D01*
X106462285Y-111143142D01*
X107042857Y-111578571D02*
X106825142Y-111288285D01*
X106607428Y-111578571D01*
X105664000Y-110925428D02*
X105664000Y-111288285D01*
X106026857Y-111143142D02*
X105664000Y-111288285D01*
X105301142Y-111143142D01*
X105881714Y-111578571D02*
X105664000Y-111288285D01*
X105446285Y-111578571D01*
X104502857Y-110925428D02*
X104502857Y-111288285D01*
X104865714Y-111143142D02*
X104502857Y-111288285D01*
X104140000Y-111143142D01*
X104720571Y-111578571D02*
X104502857Y-111288285D01*
X104285142Y-111578571D01*
G36*
X112275392Y-102332465D02*
G01*
X112339102Y-102476307D01*
X112350414Y-102503642D01*
X112372464Y-102559485D01*
X112398284Y-102627057D01*
X112426173Y-102701675D01*
X112454435Y-102778656D01*
X112481368Y-102853316D01*
X112505273Y-102920972D01*
X112524453Y-102976941D01*
X112537206Y-103016538D01*
X112541835Y-103035082D01*
X112530243Y-103039095D01*
X112501736Y-103040803D01*
X112462833Y-103050932D01*
X112424768Y-103084619D01*
X112417061Y-103094130D01*
X112402597Y-103116868D01*
X112394954Y-103142178D01*
X112394334Y-103174828D01*
X112400940Y-103219587D01*
X112414973Y-103281222D01*
X112436637Y-103364501D01*
X112450168Y-103419791D01*
X112468203Y-103504486D01*
X112485161Y-103594865D01*
X112498662Y-103678857D01*
X112501094Y-103695657D01*
X112514231Y-103775697D01*
X112528019Y-103833101D01*
X112544831Y-103871973D01*
X112567037Y-103896419D01*
X112597011Y-103910543D01*
X112637124Y-103918450D01*
X112661708Y-103920791D01*
X112700489Y-103916034D01*
X112736649Y-103895536D01*
X112744099Y-103890148D01*
X112769749Y-103873753D01*
X112782080Y-103869497D01*
X112783712Y-103873088D01*
X112791756Y-103898970D01*
X112804859Y-103946134D01*
X112822038Y-104010708D01*
X112842311Y-104088819D01*
X112864693Y-104176593D01*
X112888202Y-104270158D01*
X112911855Y-104365640D01*
X112934667Y-104459167D01*
X112955656Y-104546864D01*
X112973839Y-104624859D01*
X113001406Y-104748032D01*
X113030422Y-104883289D01*
X113058949Y-105021554D01*
X113086506Y-105160106D01*
X113112614Y-105296221D01*
X113136791Y-105427179D01*
X113158555Y-105550255D01*
X113177427Y-105662729D01*
X113192926Y-105761878D01*
X113204570Y-105844980D01*
X113211880Y-105909312D01*
X113214373Y-105952153D01*
X113211569Y-105970779D01*
X113209773Y-105972425D01*
X113202083Y-105974559D01*
X113194542Y-105965496D01*
X113186198Y-105942043D01*
X113176101Y-105901006D01*
X113163301Y-105839194D01*
X113146846Y-105753413D01*
X113140839Y-105721704D01*
X113123762Y-105636454D01*
X113108559Y-105573842D01*
X113093276Y-105530398D01*
X113075958Y-105502649D01*
X113054650Y-105487126D01*
X113027399Y-105480357D01*
X112992251Y-105478872D01*
X112977795Y-105479190D01*
X112925383Y-105486132D01*
X112889099Y-105500428D01*
X112881522Y-105505558D01*
X112868986Y-105510687D01*
X112857433Y-105505767D01*
X112843654Y-105487095D01*
X112824438Y-105450966D01*
X112796574Y-105393676D01*
X112787089Y-105373589D01*
X112723066Y-105207942D01*
X112684194Y-105039952D01*
X112669773Y-104865372D01*
X112679104Y-104679957D01*
X112687680Y-104600402D01*
X112696702Y-104511889D01*
X112702540Y-104444737D01*
X112705262Y-104395475D01*
X112704934Y-104360631D01*
X112701625Y-104336734D01*
X112695401Y-104320314D01*
X112686331Y-104307898D01*
X112661511Y-104291115D01*
X112614758Y-104279506D01*
X112561255Y-104279404D01*
X112511250Y-104290572D01*
X112474994Y-104312773D01*
X112459524Y-104339123D01*
X112442678Y-104392005D01*
X112427816Y-104464188D01*
X112415367Y-104551216D01*
X112405754Y-104648631D01*
X112399406Y-104751978D01*
X112396747Y-104856802D01*
X112398204Y-104958644D01*
X112404203Y-105053051D01*
X112411478Y-105116834D01*
X112412790Y-105128332D01*
X112427854Y-105216443D01*
X112449243Y-105301443D01*
X112478621Y-105387552D01*
X112517649Y-105478989D01*
X112567990Y-105579975D01*
X112631306Y-105694731D01*
X112709260Y-105827475D01*
X112774680Y-105938015D01*
X112829508Y-106034481D01*
X112875373Y-106120512D01*
X112915495Y-106202400D01*
X112953094Y-106286441D01*
X112991389Y-106378926D01*
X113014302Y-106437538D01*
X113071419Y-106611093D01*
X113103611Y-106708909D01*
X113166805Y-106984948D01*
X113204368Y-107268189D01*
X113216781Y-107561166D01*
X113216807Y-107603739D01*
X113217277Y-107670260D01*
X113218886Y-107716310D01*
X113222330Y-107746602D01*
X113228306Y-107765850D01*
X113228315Y-107765862D01*
X113237513Y-107778766D01*
X113250648Y-107790063D01*
X113252621Y-107791652D01*
X113273215Y-107815709D01*
X113287717Y-107852220D01*
X113299216Y-107908733D01*
X113313918Y-108000763D01*
X113272237Y-108035836D01*
X113259102Y-108047785D01*
X113245570Y-108064887D01*
X113236786Y-108086238D01*
X113236047Y-108091707D01*
X113232890Y-108115081D01*
X113234023Y-108154658D01*
X113240325Y-108208212D01*
X113251935Y-108278985D01*
X113268994Y-108370220D01*
X113291641Y-108485158D01*
X113344128Y-108764058D01*
X113411981Y-109181692D01*
X113468921Y-109606534D01*
X113514314Y-110032405D01*
X113547528Y-110453128D01*
X113567932Y-110862524D01*
X113574895Y-111254417D01*
X113574908Y-111296858D01*
X113575176Y-111376599D01*
X113576164Y-111434752D01*
X113578354Y-111475472D01*
X113582224Y-111502914D01*
X113588256Y-111521234D01*
X113596930Y-111534585D01*
X113608725Y-111547123D01*
X113610379Y-111548742D01*
X113642549Y-111571531D01*
X113672925Y-111580933D01*
X113703315Y-111580933D01*
X113694411Y-112059593D01*
X113691383Y-112204156D01*
X113684267Y-112452123D01*
X113674853Y-112680686D01*
X113662783Y-112895088D01*
X113647696Y-113100573D01*
X113629232Y-113302386D01*
X113607031Y-113505768D01*
X113580734Y-113715965D01*
X113572067Y-113779956D01*
X113557330Y-113874967D01*
X113522497Y-114099534D01*
X113463799Y-114411081D01*
X113396686Y-114712184D01*
X113321871Y-115000430D01*
X113256015Y-115220191D01*
X113240068Y-115273405D01*
X113151990Y-115528698D01*
X113058349Y-115763894D01*
X112959858Y-115976581D01*
X112857231Y-116164346D01*
X112755548Y-116327501D01*
X112715709Y-116385815D01*
X112632641Y-116507407D01*
X112568453Y-116592358D01*
X112500570Y-116682199D01*
X112355622Y-116856528D01*
X112194082Y-117035045D01*
X112012237Y-117222400D01*
X111871406Y-117361189D01*
X111734794Y-117490982D01*
X111598749Y-117614777D01*
X111457359Y-117737831D01*
X111304711Y-117865403D01*
X111134893Y-118002754D01*
X111017545Y-118095816D01*
X110765670Y-118290853D01*
X110528565Y-118467300D01*
X110303861Y-118626609D01*
X110089188Y-118770230D01*
X109882176Y-118899614D01*
X109680454Y-119016213D01*
X109481653Y-119121477D01*
X109283403Y-119216858D01*
X109083333Y-119303805D01*
X108879074Y-119383771D01*
X108731768Y-119436746D01*
X108650648Y-119465919D01*
X108314097Y-119576117D01*
X107996394Y-119666379D01*
X107697458Y-119736723D01*
X107417204Y-119787164D01*
X107155551Y-119817720D01*
X106912415Y-119828406D01*
X106687714Y-119819239D01*
X106588762Y-119809284D01*
X106320584Y-119770014D01*
X106051974Y-119712245D01*
X105779985Y-119635079D01*
X105501668Y-119537616D01*
X105214075Y-119418956D01*
X104914259Y-119278202D01*
X104871858Y-119257115D01*
X104796003Y-119219004D01*
X104730936Y-119185807D01*
X104680144Y-119159327D01*
X104647113Y-119141372D01*
X104635328Y-119133746D01*
X104636151Y-119131818D01*
X104650368Y-119116301D01*
X104676651Y-119092756D01*
X104681781Y-119088365D01*
X104705011Y-119063138D01*
X104715514Y-119034024D01*
X104717974Y-118989295D01*
X104716768Y-118960646D01*
X104708582Y-118925480D01*
X104689295Y-118897057D01*
X104667517Y-118881072D01*
X105286563Y-118881072D01*
X105296220Y-118942507D01*
X105297687Y-118946835D01*
X105307600Y-118968871D01*
X105323173Y-118987497D01*
X105349287Y-119006356D01*
X105390821Y-119029096D01*
X105452658Y-119059362D01*
X105467327Y-119066481D01*
X105534689Y-119101314D01*
X105602170Y-119139222D01*
X105665680Y-119177563D01*
X105721131Y-119213698D01*
X105764435Y-119244989D01*
X105791502Y-119268794D01*
X105798244Y-119282476D01*
X105797232Y-119283711D01*
X105776927Y-119291440D01*
X105742728Y-119294599D01*
X105710842Y-119298709D01*
X105666966Y-119322166D01*
X105638076Y-119361292D01*
X105626314Y-119410212D01*
X105633823Y-119463051D01*
X105662745Y-119513932D01*
X105680559Y-119533743D01*
X105698407Y-119546507D01*
X105722593Y-119553239D01*
X105760186Y-119555865D01*
X105818257Y-119556312D01*
X105828862Y-119556389D01*
X105897290Y-119559737D01*
X105964537Y-119567054D01*
X106017433Y-119576974D01*
X106034945Y-119581434D01*
X106094581Y-119593760D01*
X106137317Y-119595480D01*
X106170217Y-119586142D01*
X106200347Y-119565296D01*
X106200789Y-119564915D01*
X106224273Y-119539517D01*
X106235588Y-119509338D01*
X106238995Y-119463117D01*
X106239006Y-119462295D01*
X106236219Y-119437860D01*
X106575240Y-119437860D01*
X106579246Y-119462295D01*
X106584060Y-119491654D01*
X106609730Y-119534678D01*
X106610521Y-119535464D01*
X106626329Y-119548783D01*
X106646158Y-119559393D01*
X106673920Y-119568035D01*
X106713527Y-119575450D01*
X106768892Y-119582382D01*
X106843925Y-119589570D01*
X106942540Y-119597756D01*
X107007161Y-119602610D01*
X107096686Y-119607471D01*
X107172820Y-119608201D01*
X107244217Y-119604522D01*
X107319529Y-119596156D01*
X107407408Y-119582826D01*
X107421684Y-119580324D01*
X107485652Y-119562359D01*
X107526867Y-119534819D01*
X107548945Y-119494137D01*
X107555501Y-119436746D01*
X107554768Y-119415091D01*
X107544954Y-119373991D01*
X107519751Y-119340243D01*
X107503911Y-119325234D01*
X107486180Y-119314155D01*
X107463133Y-119309745D01*
X107427416Y-119310805D01*
X107371676Y-119316139D01*
X107261140Y-119324245D01*
X107118222Y-119327712D01*
X106964318Y-119325131D01*
X106807860Y-119316497D01*
X106749584Y-119312242D01*
X106698690Y-119309475D01*
X106665057Y-119309929D01*
X106643070Y-119314170D01*
X106627114Y-119322765D01*
X106611575Y-119336279D01*
X106607756Y-119340104D01*
X106583171Y-119383831D01*
X106575240Y-119437860D01*
X106236219Y-119437860D01*
X106232079Y-119401569D01*
X106207511Y-119357410D01*
X106162280Y-119326553D01*
X106093367Y-119305734D01*
X106054394Y-119297113D01*
X106030290Y-119288853D01*
X106024915Y-119279710D01*
X106033732Y-119266715D01*
X106037713Y-119261242D01*
X106042372Y-119247840D01*
X107927410Y-119247840D01*
X107928791Y-119269248D01*
X107941280Y-119318677D01*
X107963162Y-119359586D01*
X107990012Y-119382463D01*
X108005595Y-119386920D01*
X108038451Y-119389812D01*
X108083060Y-119386849D01*
X108142324Y-119377538D01*
X108219144Y-119361386D01*
X108316423Y-119337901D01*
X108437063Y-119306590D01*
X108589407Y-119265195D01*
X108761077Y-119215361D01*
X108910668Y-119167441D01*
X109041053Y-119120092D01*
X109155103Y-119071975D01*
X109255693Y-119021751D01*
X109345694Y-118968078D01*
X109427980Y-118909616D01*
X109505422Y-118845026D01*
X109580894Y-118772967D01*
X109590899Y-118762764D01*
X109657429Y-118689771D01*
X109722323Y-118608670D01*
X109787944Y-118515964D01*
X109856653Y-118408153D01*
X109930812Y-118281738D01*
X110012784Y-118133221D01*
X110019804Y-118120187D01*
X110064942Y-118035238D01*
X110098184Y-117969849D01*
X110121173Y-117920225D01*
X110135557Y-117882567D01*
X110142980Y-117853080D01*
X110145089Y-117827965D01*
X110143071Y-117793616D01*
X110131035Y-117761628D01*
X110102709Y-117732428D01*
X110078428Y-117715626D01*
X110023183Y-117697299D01*
X109967707Y-117701277D01*
X109919914Y-117727760D01*
X109919029Y-117728609D01*
X109912729Y-117736905D01*
X109901322Y-117751926D01*
X109873858Y-117795070D01*
X109839222Y-117853675D01*
X109800000Y-117923375D01*
X109758777Y-117999805D01*
X109678931Y-118147143D01*
X109599725Y-118283078D01*
X109524919Y-118398517D01*
X109451991Y-118496282D01*
X109442800Y-118506640D01*
X109378422Y-118579195D01*
X109301691Y-118650077D01*
X109219277Y-118711752D01*
X109128659Y-118767041D01*
X109027317Y-118818767D01*
X109001243Y-118830935D01*
X108931196Y-118861726D01*
X108858898Y-118890327D01*
X108780232Y-118918063D01*
X108691086Y-118946261D01*
X108587345Y-118976247D01*
X108464894Y-119009346D01*
X108319619Y-119046886D01*
X108238241Y-119067760D01*
X108142213Y-119093402D01*
X108068196Y-119115240D01*
X108013353Y-119134730D01*
X107974845Y-119153325D01*
X107949835Y-119172480D01*
X107935485Y-119193648D01*
X107928956Y-119218283D01*
X107927410Y-119247840D01*
X106042372Y-119247840D01*
X106049511Y-119227301D01*
X106054091Y-119181478D01*
X106053656Y-119160856D01*
X106047892Y-119127977D01*
X106031038Y-119100607D01*
X105997623Y-119067722D01*
X105996462Y-119066676D01*
X105935547Y-119017587D01*
X105857159Y-118962656D01*
X105768974Y-118906756D01*
X105678669Y-118854759D01*
X105593923Y-118811535D01*
X105571409Y-118801345D01*
X105485895Y-118770122D01*
X105413795Y-118756387D01*
X105357514Y-118760397D01*
X105319459Y-118782406D01*
X105296120Y-118823021D01*
X105286563Y-118881072D01*
X104667517Y-118881072D01*
X104655030Y-118871907D01*
X104601910Y-118846563D01*
X104526059Y-118817553D01*
X104517258Y-118814390D01*
X104435889Y-118787859D01*
X104373867Y-118774265D01*
X104326714Y-118773478D01*
X104289954Y-118785368D01*
X104259109Y-118809805D01*
X104253380Y-118816064D01*
X104231114Y-118847097D01*
X104222096Y-118871662D01*
X104221160Y-118877666D01*
X104216250Y-118881264D01*
X104205233Y-118879399D01*
X104186023Y-118870822D01*
X104156530Y-118854286D01*
X104114667Y-118828543D01*
X104058345Y-118792344D01*
X103985476Y-118744443D01*
X103893972Y-118683591D01*
X103781745Y-118608542D01*
X103577824Y-118469449D01*
X103305744Y-118274470D01*
X103187486Y-118183823D01*
X103326737Y-118183823D01*
X103327660Y-118201522D01*
X103331778Y-118217854D01*
X103341394Y-118235121D01*
X103358813Y-118255630D01*
X103386337Y-118281684D01*
X103426271Y-118315587D01*
X103480919Y-118359645D01*
X103552584Y-118416161D01*
X103643571Y-118487440D01*
X103692095Y-118525309D01*
X103748310Y-118568261D01*
X103789947Y-118598019D01*
X103821124Y-118616990D01*
X103845962Y-118627581D01*
X103868579Y-118632200D01*
X103893096Y-118633254D01*
X103944253Y-118627978D01*
X103992448Y-118605282D01*
X103997394Y-118601072D01*
X104026268Y-118559317D01*
X104040621Y-118506640D01*
X104036638Y-118455926D01*
X104032997Y-118450076D01*
X104010774Y-118426621D01*
X103971517Y-118390499D01*
X103918467Y-118344551D01*
X103854863Y-118291615D01*
X103783947Y-118234531D01*
X103764457Y-118219094D01*
X103690235Y-118160495D01*
X103633428Y-118116451D01*
X103590625Y-118084882D01*
X103558417Y-118063707D01*
X103533393Y-118050844D01*
X103512143Y-118044213D01*
X103491255Y-118041732D01*
X103467321Y-118041321D01*
X103411224Y-118046922D01*
X103363478Y-118069444D01*
X103335734Y-118110272D01*
X103326759Y-118170539D01*
X103326737Y-118183823D01*
X103187486Y-118183823D01*
X103057453Y-118084151D01*
X102831335Y-117896853D01*
X102625774Y-117710939D01*
X102439156Y-117524771D01*
X102377111Y-117455849D01*
X104110606Y-117455849D01*
X104115361Y-117519813D01*
X104141127Y-117590565D01*
X104145061Y-117598206D01*
X104176898Y-117653083D01*
X104216244Y-117712617D01*
X104257889Y-117769617D01*
X104296619Y-117816893D01*
X104327221Y-117847255D01*
X104334409Y-117852546D01*
X104387341Y-117873709D01*
X104443387Y-117869501D01*
X104496527Y-117840175D01*
X104501136Y-117836242D01*
X104525415Y-117810386D01*
X104536358Y-117781289D01*
X104538907Y-117736905D01*
X104537445Y-117704147D01*
X104529465Y-117669976D01*
X104511057Y-117634124D01*
X104478368Y-117587061D01*
X104445644Y-117539972D01*
X104411905Y-117486408D01*
X104387548Y-117442270D01*
X104372741Y-117414236D01*
X104337811Y-117369317D01*
X104295343Y-117345575D01*
X104239066Y-117338633D01*
X104208083Y-117341536D01*
X104158400Y-117363026D01*
X104125430Y-117402359D01*
X104110606Y-117455849D01*
X102377111Y-117455849D01*
X102269864Y-117336714D01*
X102116283Y-117145128D01*
X101976798Y-116948377D01*
X101950524Y-116906268D01*
X102048041Y-116906268D01*
X102048404Y-116954074D01*
X102050104Y-116979241D01*
X102055305Y-117009532D01*
X102067801Y-117032832D01*
X102092539Y-117056935D01*
X102134469Y-117089636D01*
X102179594Y-117126012D01*
X102228182Y-117169161D01*
X102265326Y-117206320D01*
X102280248Y-117222837D01*
X102321211Y-117267538D01*
X102357730Y-117306648D01*
X102374170Y-117322821D01*
X102409031Y-117345608D01*
X102447264Y-117351320D01*
X102499733Y-117344969D01*
X102553175Y-117320743D01*
X102585721Y-117279067D01*
X102596716Y-117220515D01*
X102595878Y-117200572D01*
X102588134Y-117165984D01*
X102569109Y-117128746D01*
X102534983Y-117080173D01*
X102468310Y-117002613D01*
X102380660Y-116919954D01*
X102284665Y-116845440D01*
X102280269Y-116842500D01*
X102227449Y-116820195D01*
X102169394Y-116813736D01*
X102115437Y-116823013D01*
X102074910Y-116847916D01*
X102073653Y-116849266D01*
X102055573Y-116874875D01*
X102048041Y-116906268D01*
X101950524Y-116906268D01*
X101849793Y-116744824D01*
X101733652Y-116532831D01*
X101726126Y-116518133D01*
X101689641Y-116445773D01*
X101654628Y-116374083D01*
X101620726Y-116301876D01*
X101611602Y-116281533D01*
X103934317Y-116281533D01*
X103936859Y-116326809D01*
X103940269Y-116354635D01*
X103960685Y-116460738D01*
X103992153Y-116574163D01*
X104031454Y-116682798D01*
X104047464Y-116719329D01*
X104082933Y-116790330D01*
X104122906Y-116860878D01*
X104163553Y-116924751D01*
X104201040Y-116975731D01*
X104231538Y-117007596D01*
X104234626Y-117009901D01*
X104279783Y-117028976D01*
X104335216Y-117034811D01*
X104387388Y-117025824D01*
X104421887Y-117005479D01*
X104449887Y-116964548D01*
X104456804Y-116920808D01*
X111025150Y-116920808D01*
X111034399Y-116968172D01*
X111058531Y-117005647D01*
X111085896Y-117024122D01*
X111141990Y-117035596D01*
X111175454Y-117038945D01*
X111184625Y-117047500D01*
X111169322Y-117058460D01*
X111130507Y-117069021D01*
X111114703Y-117072843D01*
X111072554Y-117097246D01*
X111048236Y-117140636D01*
X111040425Y-117205014D01*
X111042380Y-117220515D01*
X111046647Y-117254345D01*
X111072510Y-117306514D01*
X111115598Y-117340357D01*
X111172800Y-117352408D01*
X111224647Y-117352408D01*
X111189295Y-117390287D01*
X111166457Y-117416672D01*
X111118311Y-117486628D01*
X111078932Y-117563811D01*
X111049606Y-117643339D01*
X111031618Y-117720327D01*
X111026252Y-117789890D01*
X111031933Y-117827965D01*
X111034795Y-117847146D01*
X111058531Y-117887208D01*
X111072389Y-117898398D01*
X111107814Y-117912981D01*
X111159438Y-117917158D01*
X111211290Y-117911554D01*
X111252038Y-117890361D01*
X111280599Y-117849657D01*
X111301157Y-117785555D01*
X111301424Y-117784414D01*
X111311294Y-117749432D01*
X111325755Y-117712830D01*
X111347458Y-117669270D01*
X111379057Y-117613412D01*
X111423205Y-117539918D01*
X111429877Y-117526702D01*
X111437758Y-117478617D01*
X111427310Y-117428410D01*
X111402208Y-117383439D01*
X111366122Y-117351061D01*
X111322726Y-117338633D01*
X111313593Y-117338010D01*
X111307080Y-117332569D01*
X111314283Y-117318676D01*
X111337390Y-117292936D01*
X111378592Y-117251951D01*
X111404723Y-117226106D01*
X111595122Y-117226106D01*
X111601821Y-117276839D01*
X111621734Y-117325379D01*
X111650618Y-117359252D01*
X111655847Y-117362444D01*
X111692499Y-117374908D01*
X111736395Y-117379957D01*
X111755994Y-117379168D01*
X111779895Y-117374084D01*
X111803619Y-117361692D01*
X111830515Y-117339052D01*
X111863929Y-117303223D01*
X111907210Y-117251262D01*
X111963705Y-117180228D01*
X111981936Y-117156643D01*
X112027106Y-117095619D01*
X112077478Y-117024823D01*
X112129993Y-116948832D01*
X112181588Y-116872221D01*
X112229204Y-116799570D01*
X112269780Y-116735452D01*
X112300254Y-116684447D01*
X112317565Y-116651130D01*
X112330620Y-116592358D01*
X112320827Y-116534113D01*
X112288524Y-116486044D01*
X112287122Y-116484739D01*
X112261630Y-116466827D01*
X112230198Y-116459364D01*
X112182272Y-116459735D01*
X112108519Y-116463959D01*
X111956712Y-116692125D01*
X111911061Y-116759772D01*
X111853601Y-116842728D01*
X111797171Y-116922115D01*
X111746417Y-116991414D01*
X111705983Y-117044103D01*
X111671321Y-117089026D01*
X111657498Y-117108376D01*
X111635817Y-117138726D01*
X111610021Y-117179133D01*
X111597922Y-117204332D01*
X111595122Y-117226106D01*
X111404723Y-117226106D01*
X111407863Y-117223000D01*
X111439817Y-117188498D01*
X111457778Y-117162126D01*
X111465673Y-117137535D01*
X111467432Y-117108376D01*
X111467039Y-117098967D01*
X111455977Y-117053135D01*
X111433554Y-117010473D01*
X111404977Y-116978998D01*
X111375449Y-116966724D01*
X111368457Y-116965122D01*
X111369699Y-116952371D01*
X111390448Y-116924344D01*
X111410557Y-116895863D01*
X111422859Y-116859357D01*
X111426109Y-116808262D01*
X111425996Y-116793809D01*
X111422574Y-116753296D01*
X111411709Y-116727398D01*
X111389815Y-116706011D01*
X111357328Y-116687892D01*
X111292935Y-116677462D01*
X111252217Y-116680720D01*
X111219526Y-116694845D01*
X111184138Y-116725672D01*
X111167340Y-116741157D01*
X111134979Y-116764638D01*
X111111239Y-116773883D01*
X111104745Y-116774259D01*
X111070583Y-116790281D01*
X111044855Y-116824772D01*
X111029173Y-116870645D01*
X111025894Y-116911531D01*
X111025150Y-116920808D01*
X104456804Y-116920808D01*
X104458271Y-116911531D01*
X104446522Y-116851032D01*
X104414123Y-116787657D01*
X104344321Y-116672134D01*
X104267163Y-116498981D01*
X104214122Y-116313083D01*
X104201199Y-116259315D01*
X104183247Y-116212322D01*
X104159417Y-116184500D01*
X104125317Y-116171209D01*
X104076554Y-116167809D01*
X104055868Y-116168054D01*
X104018436Y-116172322D01*
X103992556Y-116185479D01*
X103966874Y-116212114D01*
X103958919Y-116221815D01*
X103940577Y-116250713D01*
X103934317Y-116281533D01*
X101611602Y-116281533D01*
X101587573Y-116227961D01*
X101554806Y-116151150D01*
X101522063Y-116070253D01*
X101488982Y-115984081D01*
X101455202Y-115891445D01*
X101420360Y-115791154D01*
X101384095Y-115682021D01*
X101374860Y-115653100D01*
X101593617Y-115653100D01*
X101598484Y-115699739D01*
X101609922Y-115762143D01*
X101628150Y-115843920D01*
X101653384Y-115948676D01*
X101676380Y-116040596D01*
X101694989Y-116109928D01*
X101710398Y-116160011D01*
X101723922Y-116194691D01*
X101736876Y-116217817D01*
X101750573Y-116233237D01*
X101756790Y-116238348D01*
X101806018Y-116260478D01*
X101861415Y-116261871D01*
X101913985Y-116243679D01*
X101954732Y-116207056D01*
X101956936Y-116203820D01*
X101967718Y-116183035D01*
X101973586Y-116157863D01*
X101974149Y-116124607D01*
X101969016Y-116079568D01*
X101957794Y-116019050D01*
X101949507Y-115981737D01*
X106774551Y-115981737D01*
X106774807Y-116021088D01*
X106782619Y-116055861D01*
X106810855Y-116104959D01*
X106840940Y-116124607D01*
X106854922Y-116133738D01*
X106912384Y-116141586D01*
X106980808Y-116127894D01*
X107057759Y-116092050D01*
X107059200Y-116091206D01*
X107101110Y-116067312D01*
X107132987Y-116050313D01*
X107148030Y-116043839D01*
X107150299Y-116046321D01*
X107154413Y-116067852D01*
X107156043Y-116104298D01*
X107161125Y-116150948D01*
X107182403Y-116197275D01*
X107186670Y-116202393D01*
X107200349Y-116215096D01*
X107218574Y-116223123D01*
X107247096Y-116227539D01*
X107291663Y-116229408D01*
X107358026Y-116229794D01*
X107368535Y-116229800D01*
X107433248Y-116230530D01*
X107478619Y-116233368D01*
X107511877Y-116239583D01*
X107540253Y-116250448D01*
X107570979Y-116267234D01*
X107590983Y-116280098D01*
X107637609Y-116316784D01*
X107674287Y-116353978D01*
X107697818Y-116383118D01*
X107733157Y-116424853D01*
X107759842Y-116450686D01*
X107783367Y-116464424D01*
X107809227Y-116469875D01*
X107842913Y-116470846D01*
X107854406Y-116470764D01*
X107894372Y-116467009D01*
X107921710Y-116453937D01*
X107948540Y-116426454D01*
X107955090Y-116418567D01*
X107971810Y-116394796D01*
X107979831Y-116370652D01*
X107980969Y-116337140D01*
X107977038Y-116285266D01*
X107968183Y-116188471D01*
X108026767Y-116278004D01*
X108062466Y-116328507D01*
X108110220Y-116389015D01*
X108155235Y-116439853D01*
X108158756Y-116443490D01*
X108196261Y-116480240D01*
X108224324Y-116500958D01*
X108250900Y-116510111D01*
X108283940Y-116512169D01*
X108327316Y-116505830D01*
X108376873Y-116479653D01*
X108410728Y-116437933D01*
X108423212Y-116385815D01*
X108423196Y-116383274D01*
X108416502Y-116322117D01*
X108399702Y-116263838D01*
X108375757Y-116214591D01*
X108347629Y-116180530D01*
X108318280Y-116167809D01*
X108312168Y-116166649D01*
X108286567Y-116146666D01*
X108254219Y-116103738D01*
X108216765Y-116040275D01*
X108175846Y-115958686D01*
X108162774Y-115931486D01*
X108136957Y-115881528D01*
X108114909Y-115843518D01*
X108100339Y-115824071D01*
X108076295Y-115811175D01*
X108029539Y-115800759D01*
X107979526Y-115800143D01*
X107939727Y-115810468D01*
X107923953Y-115816310D01*
X107881748Y-115823421D01*
X107833010Y-115824725D01*
X107773769Y-115828105D01*
X107727946Y-115848032D01*
X107701649Y-115886334D01*
X107693245Y-115944406D01*
X107693222Y-115951470D01*
X107691227Y-115985244D01*
X107684100Y-115998181D01*
X107669140Y-115996069D01*
X107634539Y-115983701D01*
X107501992Y-115954930D01*
X107359216Y-115951662D01*
X107238690Y-115959404D01*
X107238690Y-115893828D01*
X107236953Y-115858241D01*
X107226623Y-115823483D01*
X107203144Y-115794858D01*
X107181160Y-115777720D01*
X107137236Y-115761622D01*
X107084469Y-115764441D01*
X107019555Y-115786596D01*
X106939191Y-115828510D01*
X106933962Y-115831564D01*
X106863857Y-115875271D01*
X106815982Y-115912453D01*
X106787245Y-115946733D01*
X106774551Y-115981737D01*
X101949507Y-115981737D01*
X101940093Y-115939353D01*
X101915520Y-115836780D01*
X101897588Y-115764439D01*
X101875285Y-115680676D01*
X101855556Y-115618497D01*
X101836551Y-115574732D01*
X101816417Y-115546212D01*
X101793303Y-115529765D01*
X101765356Y-115522222D01*
X101730725Y-115520412D01*
X101705288Y-115521394D01*
X101664691Y-115531702D01*
X101629818Y-115557425D01*
X101616276Y-115571723D01*
X101602731Y-115592699D01*
X101595105Y-115618623D01*
X101593617Y-115653100D01*
X101374860Y-115653100D01*
X101346043Y-115562855D01*
X101325080Y-115494862D01*
X112705520Y-115494862D01*
X112713463Y-115541898D01*
X112742789Y-115588227D01*
X112744957Y-115590785D01*
X112771436Y-115616322D01*
X112800584Y-115627889D01*
X112844714Y-115630607D01*
X112860716Y-115630455D01*
X112891496Y-115627314D01*
X112916329Y-115616664D01*
X112943192Y-115594051D01*
X112980061Y-115555022D01*
X113023425Y-115504037D01*
X113070978Y-115442701D01*
X113112300Y-115384433D01*
X113144770Y-115333148D01*
X113164077Y-115294229D01*
X113173177Y-115259512D01*
X113175458Y-115220191D01*
X113175381Y-115208885D01*
X113171749Y-115168443D01*
X113159228Y-115141158D01*
X113133078Y-115115292D01*
X113130146Y-115112884D01*
X113077721Y-115085486D01*
X113022379Y-115081358D01*
X112971768Y-115101171D01*
X112954530Y-115116922D01*
X112925041Y-115151858D01*
X112895160Y-115194148D01*
X112894001Y-115195947D01*
X112861142Y-115243895D01*
X112819651Y-115300515D01*
X112778216Y-115353933D01*
X112756214Y-115382584D01*
X112719568Y-115443098D01*
X112705520Y-115494862D01*
X101325080Y-115494862D01*
X101305844Y-115432468D01*
X101263134Y-115289670D01*
X101217553Y-115133272D01*
X101168737Y-114962084D01*
X101116326Y-114774917D01*
X101059956Y-114570582D01*
X101022936Y-114434743D01*
X103036694Y-114434743D01*
X103044509Y-114530518D01*
X103061889Y-114618236D01*
X103088189Y-114691757D01*
X103122761Y-114744945D01*
X103149000Y-114763263D01*
X103197538Y-114776105D01*
X103249983Y-114773979D01*
X103294748Y-114756131D01*
X103307816Y-114747474D01*
X103323326Y-114743300D01*
X103332249Y-114757257D01*
X103332297Y-114757384D01*
X103338116Y-114786106D01*
X103340534Y-114824707D01*
X103350757Y-114869166D01*
X103382050Y-114908778D01*
X103428085Y-114933293D01*
X103482402Y-114937571D01*
X103487944Y-114936694D01*
X103532913Y-114922060D01*
X103569165Y-114899292D01*
X103584077Y-114883030D01*
X103595831Y-114859407D01*
X103601718Y-114824722D01*
X103603966Y-114770750D01*
X103605684Y-114673286D01*
X103615955Y-114742158D01*
X103623173Y-114781378D01*
X103642882Y-114848141D01*
X103668169Y-114898547D01*
X103696597Y-114927004D01*
X103713521Y-114934129D01*
X103767244Y-114941917D01*
X103823552Y-114934631D01*
X103868991Y-114913339D01*
X103876795Y-114906915D01*
X103894973Y-114885435D01*
X103903294Y-114856569D01*
X103905284Y-114810309D01*
X103903647Y-114782585D01*
X104291846Y-114782585D01*
X104303376Y-114843274D01*
X104339936Y-114911282D01*
X104401859Y-114987917D01*
X104436514Y-115022075D01*
X104492832Y-115069291D01*
X104546850Y-115106950D01*
X104560977Y-115115406D01*
X104590603Y-115131968D01*
X104617638Y-115143390D01*
X104648107Y-115150884D01*
X104688035Y-115155658D01*
X104743447Y-115158924D01*
X104820368Y-115161891D01*
X104886733Y-115164010D01*
X105079218Y-115167353D01*
X105270491Y-115166769D01*
X105454018Y-115162389D01*
X105623271Y-115154346D01*
X105771716Y-115142769D01*
X105849489Y-115135240D01*
X105959273Y-115125210D01*
X106055819Y-115117653D01*
X106143177Y-115112701D01*
X106225402Y-115110487D01*
X106306546Y-115111143D01*
X106390660Y-115114801D01*
X106481798Y-115121592D01*
X106584013Y-115131650D01*
X106701356Y-115145107D01*
X106837880Y-115162094D01*
X106997638Y-115182743D01*
X107103615Y-115195590D01*
X107234507Y-115207781D01*
X107358388Y-115214315D01*
X107486629Y-115215963D01*
X107517397Y-115215750D01*
X107614046Y-115213467D01*
X107702453Y-115208029D01*
X107786295Y-115198468D01*
X107869250Y-115183813D01*
X107954996Y-115163097D01*
X108047211Y-115135351D01*
X108149573Y-115099604D01*
X108265759Y-115054890D01*
X108399447Y-115000238D01*
X108554316Y-114934679D01*
X108811782Y-114828837D01*
X109081043Y-114728760D01*
X109333449Y-114646928D01*
X109570536Y-114582845D01*
X109793842Y-114536019D01*
X109827867Y-114530764D01*
X109898044Y-114522223D01*
X109982931Y-114513796D01*
X110074757Y-114506231D01*
X110165751Y-114500273D01*
X110413690Y-114486452D01*
X110451570Y-114445351D01*
X110481074Y-114397894D01*
X110488677Y-114339435D01*
X110485561Y-114329221D01*
X113135157Y-114329221D01*
X113137750Y-114373936D01*
X113148047Y-114406239D01*
X113166015Y-114429833D01*
X113175294Y-114437347D01*
X113220747Y-114456586D01*
X113274678Y-114461520D01*
X113326379Y-114452209D01*
X113365137Y-114428713D01*
X113367549Y-114425797D01*
X113383170Y-114394159D01*
X113400611Y-114341343D01*
X113418690Y-114272627D01*
X113436222Y-114193289D01*
X113452026Y-114108607D01*
X113464917Y-114023859D01*
X113473713Y-113944323D01*
X113475596Y-113921190D01*
X113477977Y-113874967D01*
X113475468Y-113845411D01*
X113466772Y-113824729D01*
X113450597Y-113805128D01*
X113430055Y-113787075D01*
X113398341Y-113774413D01*
X113351064Y-113771063D01*
X113307855Y-113773648D01*
X113274524Y-113785430D01*
X113246894Y-113808323D01*
X113243270Y-113811326D01*
X113213683Y-113850485D01*
X113202862Y-113897416D01*
X113200338Y-113926526D01*
X113193028Y-113976738D01*
X113182096Y-114039815D01*
X113173325Y-114084847D01*
X113168711Y-114108536D01*
X113153201Y-114187742D01*
X113140297Y-114268391D01*
X113135157Y-114329221D01*
X110485561Y-114329221D01*
X110469986Y-114278172D01*
X110469322Y-114276896D01*
X110458588Y-114251638D01*
X110465176Y-114238054D01*
X110493584Y-114226241D01*
X110510231Y-114219921D01*
X110561884Y-114188539D01*
X110590699Y-114144833D01*
X110599644Y-114084847D01*
X110598163Y-114051020D01*
X110588327Y-114013811D01*
X110565834Y-113983940D01*
X110521272Y-113957424D01*
X110463770Y-113950822D01*
X110397755Y-113962756D01*
X110327344Y-113991538D01*
X110256659Y-114035481D01*
X110189817Y-114092897D01*
X110130937Y-114162099D01*
X110088296Y-114221476D01*
X109929072Y-114238488D01*
X109921513Y-114239307D01*
X109731460Y-114266308D01*
X109527503Y-114306326D01*
X109318337Y-114357252D01*
X109112660Y-114416977D01*
X108919167Y-114483393D01*
X108903546Y-114489353D01*
X108879244Y-114499053D01*
X108844179Y-114513049D01*
X108767569Y-114544699D01*
X108679565Y-114581841D01*
X108586014Y-114622016D01*
X108492764Y-114662764D01*
X108404412Y-114701558D01*
X108289933Y-114750959D01*
X108193335Y-114791232D01*
X108110402Y-114823957D01*
X108036917Y-114850717D01*
X107968665Y-114873093D01*
X107901428Y-114892668D01*
X107830989Y-114911023D01*
X107817695Y-114914259D01*
X107723864Y-114932867D01*
X107625830Y-114944400D01*
X107519878Y-114948784D01*
X107402289Y-114945944D01*
X107269348Y-114935807D01*
X107117337Y-114918298D01*
X106942540Y-114893345D01*
X106886747Y-114884856D01*
X106784656Y-114869858D01*
X106700364Y-114858648D01*
X106627493Y-114850678D01*
X106559667Y-114845404D01*
X106490509Y-114842280D01*
X106413643Y-114840760D01*
X106322692Y-114840299D01*
X106205972Y-114841511D01*
X105971098Y-114851522D01*
X105717161Y-114871914D01*
X105556852Y-114885295D01*
X105297924Y-114896618D01*
X105048551Y-114893593D01*
X104799970Y-114876260D01*
X104764778Y-114872233D01*
X104701692Y-114858918D01*
X104653814Y-114835576D01*
X104612697Y-114797152D01*
X104569894Y-114738592D01*
X104517640Y-114659512D01*
X104440499Y-114655433D01*
X104404817Y-114654186D01*
X104372828Y-114657460D01*
X104350374Y-114669676D01*
X104327162Y-114694370D01*
X104305014Y-114727907D01*
X104291846Y-114782585D01*
X103903647Y-114782585D01*
X103902446Y-114762248D01*
X103886629Y-114692273D01*
X103858926Y-114637612D01*
X103821615Y-114603885D01*
X103810815Y-114598737D01*
X103751429Y-114584053D01*
X103695103Y-114590540D01*
X103649832Y-114617563D01*
X103629006Y-114636661D01*
X103617781Y-114640885D01*
X103623137Y-114623224D01*
X103645082Y-114583753D01*
X103656649Y-114567217D01*
X106894330Y-114567217D01*
X106895013Y-114591034D01*
X106902965Y-114632408D01*
X106921914Y-114659544D01*
X106932882Y-114666248D01*
X106970181Y-114681401D01*
X107027609Y-114700370D01*
X107100942Y-114721796D01*
X107185955Y-114744325D01*
X107203101Y-114748652D01*
X107289530Y-114769883D01*
X107357259Y-114784916D01*
X107412981Y-114794767D01*
X107463391Y-114800451D01*
X107515181Y-114802985D01*
X107575047Y-114803385D01*
X107619754Y-114802619D01*
X107733427Y-114794206D01*
X107829039Y-114776079D01*
X107888838Y-114758062D01*
X107974690Y-114725501D01*
X108057578Y-114687327D01*
X108129507Y-114647315D01*
X108182480Y-114609240D01*
X108191670Y-114601016D01*
X108216933Y-114573045D01*
X108227998Y-114543330D01*
X108230447Y-114499053D01*
X108228809Y-114463074D01*
X108218913Y-114426580D01*
X108196637Y-114397172D01*
X108191044Y-114391837D01*
X108157924Y-114370498D01*
X108118290Y-114363411D01*
X108068214Y-114371081D01*
X108003768Y-114394015D01*
X107921025Y-114432720D01*
X107823779Y-114476666D01*
X107706947Y-114515940D01*
X107600120Y-114536361D01*
X107507291Y-114536924D01*
X107471029Y-114530734D01*
X107413390Y-114517833D01*
X107345097Y-114500470D01*
X107274342Y-114480626D01*
X107184212Y-114456163D01*
X107088874Y-114437389D01*
X107014509Y-114433036D01*
X106959496Y-114443472D01*
X106922210Y-114469068D01*
X106901029Y-114510193D01*
X106894330Y-114567217D01*
X103656649Y-114567217D01*
X103667986Y-114551010D01*
X103702455Y-114513089D01*
X103736454Y-114485229D01*
X103762872Y-114474053D01*
X103766745Y-114473115D01*
X103788159Y-114458255D01*
X103814526Y-114431177D01*
X103816069Y-114429325D01*
X103842525Y-114384099D01*
X103850187Y-114329727D01*
X103849438Y-114311255D01*
X103834139Y-114254122D01*
X103801010Y-114216206D01*
X103752552Y-114198603D01*
X103691266Y-114202410D01*
X103619652Y-114228720D01*
X103568398Y-114261743D01*
X103507947Y-114314786D01*
X103450271Y-114377697D01*
X103402447Y-114442681D01*
X103371552Y-114501946D01*
X103344896Y-114573404D01*
X103322053Y-114516315D01*
X103306136Y-114463497D01*
X103301940Y-114375382D01*
X103324620Y-114283011D01*
X103351623Y-114222521D01*
X103387982Y-114161727D01*
X103435663Y-114099135D01*
X103497051Y-114032148D01*
X103574529Y-113958168D01*
X103670483Y-113874596D01*
X103787295Y-113778834D01*
X103793867Y-113773249D01*
X105640859Y-113773249D01*
X105641284Y-113787779D01*
X105651754Y-113830414D01*
X105681123Y-113868543D01*
X105687226Y-113874488D01*
X105718122Y-113898241D01*
X105750277Y-113909064D01*
X105787726Y-113906083D01*
X105834508Y-113888426D01*
X105894659Y-113855219D01*
X105972216Y-113805590D01*
X105978299Y-113801560D01*
X106068246Y-113744056D01*
X106142567Y-113701866D01*
X106206601Y-113672946D01*
X106265687Y-113655248D01*
X106325164Y-113646728D01*
X106390370Y-113645338D01*
X106397490Y-113645482D01*
X106452105Y-113645431D01*
X106487606Y-113641736D01*
X106511566Y-113632902D01*
X106531557Y-113617431D01*
X106540938Y-113606953D01*
X106561506Y-113561339D01*
X106566132Y-113506780D01*
X106554982Y-113453541D01*
X106528224Y-113411886D01*
X106517416Y-113402421D01*
X106496390Y-113389566D01*
X106468386Y-113381566D01*
X106426547Y-113376826D01*
X106364016Y-113373756D01*
X106350455Y-113373322D01*
X106253751Y-113375483D01*
X106168630Y-113389344D01*
X106084624Y-113417385D01*
X105991268Y-113462085D01*
X105935502Y-113493245D01*
X105871525Y-113531917D01*
X105807780Y-113572910D01*
X105748989Y-113612998D01*
X105699873Y-113648955D01*
X105665152Y-113677556D01*
X105649549Y-113695573D01*
X105648187Y-113699801D01*
X105642971Y-113731882D01*
X105640859Y-113773249D01*
X103793867Y-113773249D01*
X103962460Y-113629980D01*
X104166042Y-113431338D01*
X104343703Y-113225928D01*
X104495085Y-113014171D01*
X104619832Y-112796490D01*
X104620593Y-112794979D01*
X104651627Y-112721415D01*
X104662276Y-112662303D01*
X104652588Y-112613691D01*
X104622613Y-112571630D01*
X104603447Y-112554297D01*
X104568463Y-112536101D01*
X104521937Y-112531367D01*
X104507326Y-112531839D01*
X104466838Y-112537857D01*
X104440482Y-112548585D01*
X104426953Y-112565227D01*
X104403056Y-112601353D01*
X104372794Y-112651041D01*
X104339637Y-112708779D01*
X104321786Y-112740210D01*
X104248933Y-112857975D01*
X104167214Y-112973525D01*
X104074190Y-113089625D01*
X103967423Y-113209040D01*
X103844472Y-113334535D01*
X103702898Y-113468875D01*
X103540263Y-113614823D01*
X103527477Y-113626064D01*
X103457779Y-113688029D01*
X103392068Y-113747527D01*
X103334556Y-113800671D01*
X103289459Y-113843575D01*
X103260991Y-113872352D01*
X103227453Y-113910999D01*
X103158494Y-114005254D01*
X103102516Y-114102869D01*
X103064842Y-114195083D01*
X103052350Y-114243571D01*
X103039093Y-114337047D01*
X103036694Y-114434743D01*
X101022936Y-114434743D01*
X100999266Y-114347890D01*
X100933894Y-114105652D01*
X100863478Y-113842677D01*
X100787655Y-113557777D01*
X100706064Y-113249762D01*
X100618343Y-112917444D01*
X100524129Y-112559632D01*
X100474804Y-112372659D01*
X100445633Y-112262766D01*
X105131206Y-112262766D01*
X105141219Y-112392070D01*
X105176429Y-112530493D01*
X105236055Y-112658462D01*
X105238796Y-112662303D01*
X105319122Y-112774861D01*
X105424653Y-112878577D01*
X105551673Y-112968493D01*
X105699204Y-113043495D01*
X105866272Y-113102468D01*
X105867558Y-113102836D01*
X105963649Y-113126174D01*
X106075616Y-113146934D01*
X106192944Y-113163618D01*
X106305120Y-113174727D01*
X106401628Y-113178763D01*
X106499815Y-113178763D01*
X106686742Y-113301155D01*
X106699116Y-113309238D01*
X106821160Y-113386327D01*
X106927265Y-113447383D01*
X107021938Y-113494194D01*
X107054085Y-113506780D01*
X107109685Y-113528548D01*
X107195012Y-113552232D01*
X107282426Y-113567034D01*
X107376434Y-113574741D01*
X107389049Y-113575307D01*
X107499992Y-113575553D01*
X107593827Y-113565193D01*
X107678638Y-113542807D01*
X107762514Y-113506976D01*
X107801401Y-113485928D01*
X107887492Y-113425974D01*
X107968408Y-113348985D01*
X108046335Y-113252389D01*
X108116061Y-113145008D01*
X109359948Y-113145008D01*
X109361460Y-113174528D01*
X109368262Y-113200102D01*
X109383744Y-113227681D01*
X109411291Y-113263295D01*
X109454292Y-113312976D01*
X109476632Y-113337939D01*
X109526628Y-113391930D01*
X109574511Y-113441488D01*
X109612390Y-113478357D01*
X109628499Y-113492823D01*
X109664686Y-113520455D01*
X109696159Y-113533574D01*
X109732609Y-113536898D01*
X109749628Y-113536356D01*
X109791739Y-113525772D01*
X109829337Y-113496634D01*
X109844143Y-113480865D01*
X109860576Y-113455216D01*
X109867917Y-113423048D01*
X109869601Y-113373889D01*
X109868887Y-113335561D01*
X109863952Y-113301978D01*
X109854846Y-113285268D01*
X109883375Y-113285268D01*
X109886347Y-113329032D01*
X109902408Y-113373889D01*
X109903101Y-113375825D01*
X109938527Y-113408948D01*
X109997022Y-113434161D01*
X110015705Y-113440325D01*
X110148501Y-113489103D01*
X110293568Y-113549757D01*
X110442344Y-113618366D01*
X110586269Y-113691011D01*
X110716783Y-113763770D01*
X110766460Y-113791363D01*
X110830753Y-113818606D01*
X110882181Y-113826795D01*
X110924655Y-113816309D01*
X110962089Y-113787527D01*
X110971497Y-113777076D01*
X110993134Y-113739101D01*
X110999102Y-113690201D01*
X110997085Y-113649593D01*
X110987723Y-113616082D01*
X110966678Y-113587518D01*
X110929617Y-113558169D01*
X110872210Y-113522306D01*
X110832069Y-113498928D01*
X110730768Y-113443418D01*
X110622600Y-113388306D01*
X110511426Y-113335230D01*
X110401106Y-113285826D01*
X110295499Y-113241733D01*
X110198467Y-113204587D01*
X110113870Y-113176028D01*
X110045567Y-113157691D01*
X109997419Y-113151215D01*
X109966561Y-113154770D01*
X109921691Y-113178629D01*
X109893290Y-113222919D01*
X109883375Y-113285268D01*
X109854846Y-113285268D01*
X109851236Y-113278644D01*
X109827221Y-113255747D01*
X109818565Y-113248695D01*
X109789543Y-113228291D01*
X109770960Y-113220087D01*
X109759099Y-113212815D01*
X109731725Y-113189064D01*
X109693804Y-113152727D01*
X109649712Y-113107854D01*
X109542346Y-112995622D01*
X109482161Y-113003695D01*
X109453211Y-113009611D01*
X109401523Y-113036469D01*
X109370373Y-113081673D01*
X109359948Y-113145008D01*
X108116061Y-113145008D01*
X108123457Y-113133617D01*
X108201959Y-112990098D01*
X108236859Y-112924805D01*
X108286337Y-112846453D01*
X108338584Y-112784653D01*
X108398534Y-112735611D01*
X108471122Y-112695529D01*
X108561282Y-112660613D01*
X108673949Y-112627067D01*
X108724619Y-112612392D01*
X108799243Y-112588080D01*
X108867384Y-112563039D01*
X108918888Y-112540843D01*
X109003333Y-112490549D01*
X109099307Y-112406417D01*
X109176647Y-112304385D01*
X109233160Y-112187490D01*
X109266659Y-112058768D01*
X109282940Y-111956439D01*
X109428196Y-112082460D01*
X109432955Y-112086584D01*
X109710326Y-112311203D01*
X110009614Y-112523585D01*
X110036376Y-112541369D01*
X110093004Y-112578410D01*
X110134018Y-112603239D01*
X110164683Y-112618119D01*
X110190264Y-112625312D01*
X110216029Y-112627080D01*
X110247241Y-112625687D01*
X110247506Y-112625670D01*
X110291101Y-112623650D01*
X110313948Y-112626409D01*
X110322741Y-112636695D01*
X110324175Y-112657254D01*
X110324590Y-112667416D01*
X110330160Y-112690826D01*
X110344614Y-112714274D01*
X110370959Y-112740485D01*
X110412205Y-112772179D01*
X110471360Y-112812081D01*
X110551434Y-112862914D01*
X110607220Y-112898108D01*
X110810414Y-113032954D01*
X110989247Y-113163460D01*
X111145634Y-113291382D01*
X111281486Y-113418478D01*
X111398717Y-113546506D01*
X111499240Y-113677223D01*
X111507471Y-113690201D01*
X111584968Y-113812386D01*
X111587469Y-113816733D01*
X111615401Y-113862437D01*
X111640558Y-113899102D01*
X111657763Y-113919138D01*
X111667327Y-113924306D01*
X111702066Y-113932943D01*
X111746179Y-113936356D01*
X111792153Y-113931930D01*
X111841522Y-113909741D01*
X111870928Y-113868632D01*
X111880664Y-113808323D01*
X111878988Y-113781962D01*
X111869494Y-113743961D01*
X111849095Y-113698610D01*
X111814955Y-113638582D01*
X111761030Y-113553428D01*
X111662582Y-113417776D01*
X111550374Y-113286271D01*
X111422284Y-113156964D01*
X111276188Y-113027908D01*
X111109965Y-112897151D01*
X110921492Y-112762746D01*
X110708646Y-112622744D01*
X110644224Y-112582216D01*
X110587725Y-112548208D01*
X110545590Y-112525533D01*
X110513284Y-112512023D01*
X110486272Y-112505507D01*
X110460018Y-112503818D01*
X110443740Y-112504369D01*
X110405184Y-112510201D01*
X110382009Y-112520347D01*
X110375274Y-112525723D01*
X110367579Y-112520669D01*
X110365479Y-112491893D01*
X110361729Y-112453475D01*
X110352356Y-112422388D01*
X110341535Y-112410965D01*
X110310431Y-112385631D01*
X110263520Y-112350714D01*
X110204845Y-112309207D01*
X110138448Y-112264101D01*
X110111830Y-112246190D01*
X110023525Y-112184906D01*
X109929399Y-112117306D01*
X109839142Y-112050420D01*
X109762444Y-111991280D01*
X109737322Y-111970986D01*
X109651736Y-111897871D01*
X109555685Y-111810951D01*
X109453696Y-111714705D01*
X109350299Y-111613612D01*
X109250024Y-111512151D01*
X109157398Y-111414800D01*
X109076952Y-111326039D01*
X109013213Y-111250347D01*
X108979314Y-111208470D01*
X108922193Y-111140082D01*
X108865086Y-111073855D01*
X108816386Y-111019626D01*
X108802583Y-111004772D01*
X108763755Y-110964158D01*
X108735797Y-110939104D01*
X108712735Y-110925856D01*
X108688590Y-110920659D01*
X108657388Y-110919761D01*
X108653144Y-110919773D01*
X108610601Y-110922980D01*
X108582108Y-110935401D01*
X108555370Y-110962141D01*
X108544909Y-110976788D01*
X108533311Y-110993027D01*
X108517658Y-111038104D01*
X108523149Y-111085759D01*
X108550529Y-111139989D01*
X108600543Y-111204796D01*
X108646321Y-111259093D01*
X108713425Y-111346398D01*
X108759571Y-111406435D01*
X108850314Y-111545939D01*
X108918229Y-111676794D01*
X108962994Y-111798187D01*
X108984285Y-111909306D01*
X108981779Y-112009338D01*
X108955155Y-112097473D01*
X108953333Y-112101274D01*
X108912599Y-112167820D01*
X108857984Y-112225076D01*
X108786073Y-112275458D01*
X108693449Y-112321385D01*
X108576695Y-112365274D01*
X108455900Y-112409465D01*
X108336110Y-112464296D01*
X108234053Y-112526588D01*
X108145104Y-112600252D01*
X108064640Y-112689199D01*
X107988036Y-112797341D01*
X107910669Y-112928589D01*
X107906061Y-112936935D01*
X107843469Y-113043318D01*
X107785221Y-113126807D01*
X107727939Y-113190656D01*
X107668242Y-113238117D01*
X107602752Y-113272445D01*
X107528088Y-113296893D01*
X107470615Y-113308711D01*
X107420259Y-113310373D01*
X107360594Y-113302359D01*
X107299050Y-113289474D01*
X107232261Y-113270629D01*
X107164659Y-113245464D01*
X107092760Y-113212207D01*
X107013079Y-113169088D01*
X106922132Y-113114336D01*
X106816434Y-113046181D01*
X106692500Y-112962851D01*
X106678625Y-112953409D01*
X106570330Y-112881429D01*
X106479318Y-112824842D01*
X106401882Y-112781925D01*
X106334309Y-112750953D01*
X106272892Y-112730203D01*
X106213920Y-112717951D01*
X106153682Y-112712473D01*
X106082901Y-112710665D01*
X106030165Y-112713563D01*
X105990566Y-112723010D01*
X105956887Y-112740754D01*
X105921913Y-112768539D01*
X105871876Y-112812472D01*
X105767357Y-112758668D01*
X105760739Y-112755219D01*
X105657126Y-112689077D01*
X105569068Y-112609773D01*
X105498410Y-112520686D01*
X105446995Y-112425194D01*
X105416665Y-112326676D01*
X105409264Y-112228512D01*
X105426635Y-112134079D01*
X105429818Y-112125122D01*
X105468038Y-112053561D01*
X105531683Y-111973493D01*
X105569667Y-111928665D01*
X105603005Y-111876537D01*
X105612475Y-111840827D01*
X106213862Y-111840827D01*
X106219313Y-111966616D01*
X106223493Y-112008378D01*
X106230156Y-112057300D01*
X106238431Y-112089277D01*
X106250261Y-112110827D01*
X106267590Y-112128465D01*
X106312934Y-112152815D01*
X106370331Y-112157067D01*
X106429097Y-112137986D01*
X106446063Y-112127890D01*
X106468424Y-112108096D01*
X106482453Y-112081294D01*
X106489439Y-112042395D01*
X106490675Y-111986308D01*
X106487450Y-111907945D01*
X106485460Y-111839330D01*
X106494260Y-111708755D01*
X106522032Y-111585634D01*
X106570633Y-111459977D01*
X106589799Y-111412532D01*
X106604093Y-111346398D01*
X106596857Y-111292486D01*
X106568054Y-111247657D01*
X106564904Y-111244500D01*
X106520037Y-111216837D01*
X106467089Y-111206619D01*
X106415537Y-111214221D01*
X106374858Y-111240016D01*
X106339143Y-111288076D01*
X106297288Y-111371935D01*
X106262771Y-111474099D01*
X106236653Y-111589609D01*
X106219997Y-111713505D01*
X106213862Y-111840827D01*
X105612475Y-111840827D01*
X105614848Y-111831881D01*
X105606097Y-111790271D01*
X105577650Y-111747282D01*
X105565183Y-111733206D01*
X105541863Y-111714772D01*
X105512450Y-111706692D01*
X105466261Y-111704902D01*
X105443467Y-111705095D01*
X105410524Y-111708203D01*
X105384621Y-111718518D01*
X105357127Y-111740334D01*
X105319411Y-111777944D01*
X105312889Y-111784721D01*
X105231935Y-111887040D01*
X105175323Y-111999140D01*
X105142072Y-112123542D01*
X105131206Y-112262766D01*
X100445633Y-112262766D01*
X100424357Y-112182616D01*
X100377098Y-112005828D01*
X100333438Y-111843785D01*
X100293788Y-111697978D01*
X100258557Y-111569900D01*
X100228157Y-111461041D01*
X100202997Y-111372892D01*
X100183489Y-111306945D01*
X100170042Y-111264690D01*
X100163066Y-111247620D01*
X100139057Y-111233040D01*
X100094863Y-111223394D01*
X100043752Y-111222309D01*
X99996242Y-111229862D01*
X99962853Y-111246131D01*
X99950127Y-111257324D01*
X99941527Y-111261439D01*
X99945823Y-111246655D01*
X99954643Y-111233132D01*
X99981003Y-111215459D01*
X100000145Y-111203756D01*
X100025578Y-111170329D01*
X100042185Y-111127642D01*
X100044546Y-111086676D01*
X100022071Y-110965559D01*
X99997105Y-110839375D01*
X99973442Y-110728475D01*
X99951938Y-110636855D01*
X99933450Y-110568514D01*
X99913781Y-110505549D01*
X99858785Y-110350194D01*
X99794841Y-110198017D01*
X99719998Y-110045448D01*
X99632305Y-109888921D01*
X99529812Y-109724867D01*
X99410566Y-109549717D01*
X99272619Y-109359905D01*
X99266207Y-109351321D01*
X99187609Y-109248581D01*
X99120365Y-109166838D01*
X99061532Y-109103842D01*
X99008169Y-109057345D01*
X98957332Y-109025096D01*
X98906081Y-109004846D01*
X98851472Y-108994345D01*
X98790564Y-108991345D01*
X98746798Y-108992081D01*
X98702821Y-108996647D01*
X98669447Y-109007361D01*
X98636882Y-109026462D01*
X98621058Y-109036715D01*
X98592872Y-109052099D01*
X98578901Y-109055345D01*
X98578404Y-109054575D01*
X98574253Y-109035363D01*
X98569450Y-108997037D01*
X98564938Y-108946908D01*
X98563873Y-108931769D01*
X98562449Y-108873728D01*
X98567716Y-108831362D01*
X98580640Y-108795326D01*
X98610506Y-108751657D01*
X98651068Y-108727536D01*
X98702205Y-108724957D01*
X98764592Y-108744221D01*
X98838902Y-108785630D01*
X98925810Y-108849485D01*
X99025987Y-108936087D01*
X99140109Y-109045738D01*
X99261634Y-109171786D01*
X99462537Y-109404508D01*
X99636163Y-109640383D01*
X99657003Y-109671049D01*
X99692012Y-109719451D01*
X99719900Y-109750280D01*
X99745705Y-109767450D01*
X99774464Y-109774880D01*
X99811216Y-109776486D01*
X99849753Y-109771322D01*
X99896971Y-109744928D01*
X99927447Y-109699010D01*
X99938256Y-109636784D01*
X99937529Y-109615030D01*
X99933076Y-109588323D01*
X99922417Y-109559397D01*
X99903125Y-109523185D01*
X99872771Y-109474622D01*
X99851674Y-109442873D01*
X101549861Y-109442873D01*
X101549908Y-109448369D01*
X101558120Y-109502747D01*
X101582858Y-109541234D01*
X101627588Y-109567180D01*
X101695774Y-109583935D01*
X101732415Y-109589454D01*
X101773598Y-109594374D01*
X101797801Y-109595620D01*
X101837347Y-109591665D01*
X101938210Y-109571478D01*
X102027046Y-109535434D01*
X102110858Y-109480137D01*
X102196647Y-109402190D01*
X102287254Y-109310270D01*
X102349008Y-109357078D01*
X102399167Y-109388192D01*
X102462137Y-109406105D01*
X102520161Y-109397584D01*
X102571944Y-109362596D01*
X102580243Y-109354143D01*
X102601791Y-109326725D01*
X102609179Y-109298465D01*
X102606675Y-109256299D01*
X102604205Y-109237965D01*
X102595210Y-109204619D01*
X102577416Y-109176204D01*
X102545965Y-109146217D01*
X102495997Y-109108154D01*
X102457757Y-109080332D01*
X102537567Y-108996893D01*
X102570938Y-108963876D01*
X102617299Y-108921819D01*
X102666556Y-108880153D01*
X102714071Y-108842527D01*
X102755210Y-108812592D01*
X102785336Y-108793998D01*
X102799815Y-108790394D01*
X102798086Y-108803423D01*
X102784075Y-108828226D01*
X102777524Y-108841006D01*
X102767068Y-108885286D01*
X102762291Y-108944983D01*
X102763236Y-109012132D01*
X102769943Y-109078766D01*
X102782454Y-109136920D01*
X102814458Y-109211597D01*
X102873993Y-109295644D01*
X102952400Y-109370362D01*
X103044983Y-109431402D01*
X103147045Y-109474417D01*
X103269488Y-109502727D01*
X103401636Y-109513228D01*
X103530524Y-109504049D01*
X103652646Y-109476304D01*
X103764497Y-109431109D01*
X103862571Y-109369579D01*
X103943361Y-109292831D01*
X104003362Y-109201979D01*
X104008564Y-109191269D01*
X104020871Y-109161528D01*
X104028817Y-109130463D01*
X104033279Y-109091521D01*
X104035134Y-109038150D01*
X104035261Y-108963796D01*
X104034299Y-108901037D01*
X104030381Y-108827556D01*
X104023038Y-108773219D01*
X104011767Y-108733075D01*
X104005890Y-108716668D01*
X103998829Y-108685950D01*
X104003410Y-108674534D01*
X104025978Y-108679626D01*
X104069667Y-108695220D01*
X104128903Y-108719352D01*
X104198991Y-108750028D01*
X104275239Y-108785254D01*
X104352952Y-108823035D01*
X104375699Y-108834437D01*
X104431395Y-108863136D01*
X104466303Y-108883153D01*
X104483567Y-108896780D01*
X104486329Y-108906309D01*
X104477732Y-108914031D01*
X104468652Y-108919384D01*
X104420577Y-108956963D01*
X104394953Y-109000578D01*
X104387388Y-109057190D01*
X104388703Y-109089443D01*
X104397939Y-109126426D01*
X104419043Y-109154025D01*
X104426587Y-109160836D01*
X104458958Y-109182555D01*
X104495147Y-109191963D01*
X104540262Y-109188872D01*
X104599412Y-109173092D01*
X104677706Y-109144433D01*
X104820698Y-109088301D01*
X104901180Y-109136244D01*
X104973687Y-109170833D01*
X105041341Y-109185728D01*
X105098821Y-109179631D01*
X105142579Y-109152306D01*
X105150846Y-109141936D01*
X105169599Y-109096436D01*
X105174261Y-109042880D01*
X105164888Y-108991877D01*
X105141537Y-108954037D01*
X105127894Y-108943192D01*
X105088626Y-108916282D01*
X105031564Y-108879841D01*
X104960636Y-108836176D01*
X104879770Y-108787593D01*
X104805899Y-108744063D01*
X105350854Y-108744063D01*
X105358085Y-108806021D01*
X105390929Y-108871781D01*
X105420789Y-108920593D01*
X105445595Y-108981673D01*
X105456165Y-109042880D01*
X105457345Y-109049716D01*
X105458533Y-109134412D01*
X105457525Y-109168699D01*
X105457982Y-109210898D01*
X105462873Y-109237578D01*
X105474097Y-109256352D01*
X105493552Y-109274832D01*
X105527168Y-109295138D01*
X105581412Y-109308108D01*
X105636475Y-109304593D01*
X105681336Y-109284051D01*
X105693442Y-109271874D01*
X105718290Y-109224309D01*
X105732780Y-109158924D01*
X105737153Y-109081220D01*
X105731651Y-108996695D01*
X105716513Y-108910847D01*
X105691980Y-108829176D01*
X105658292Y-108757180D01*
X105619619Y-108697423D01*
X105578464Y-108651918D01*
X105536374Y-108627012D01*
X105489341Y-108619436D01*
X105470723Y-108620064D01*
X105429077Y-108630736D01*
X105391860Y-108659700D01*
X105369225Y-108688389D01*
X105350854Y-108744063D01*
X104805899Y-108744063D01*
X104792895Y-108736400D01*
X104703939Y-108684904D01*
X104616831Y-108635411D01*
X104535499Y-108590229D01*
X104463872Y-108551664D01*
X104405878Y-108522023D01*
X104275353Y-108462815D01*
X104129204Y-108406159D01*
X103986808Y-108360354D01*
X103857074Y-108328542D01*
X103808680Y-108321499D01*
X103731457Y-108315107D01*
X103637714Y-108311048D01*
X103533375Y-108309667D01*
X103518383Y-108309690D01*
X103424982Y-108310738D01*
X103350365Y-108313809D01*
X103286870Y-108319566D01*
X103226831Y-108328673D01*
X103162585Y-108341794D01*
X103072434Y-108363683D01*
X102871527Y-108427790D01*
X102690186Y-108509556D01*
X102526153Y-108610492D01*
X102377173Y-108732110D01*
X102240989Y-108875923D01*
X102115343Y-109043441D01*
X102059109Y-109124140D01*
X102001648Y-109197373D01*
X101949398Y-109250521D01*
X101898653Y-109286097D01*
X101845707Y-109306613D01*
X101786854Y-109314582D01*
X101718386Y-109312515D01*
X101701404Y-109311130D01*
X101655832Y-109308735D01*
X101626914Y-109311603D01*
X101606281Y-109321471D01*
X101585563Y-109340074D01*
X101566913Y-109362102D01*
X101553411Y-109395170D01*
X101549861Y-109442873D01*
X99851674Y-109442873D01*
X99828927Y-109408640D01*
X99782202Y-109341594D01*
X99719331Y-109255951D01*
X99654331Y-109171267D01*
X99595613Y-109098713D01*
X99577828Y-109077561D01*
X101714891Y-109077561D01*
X101723179Y-109100334D01*
X101740344Y-109120067D01*
X101764079Y-109133988D01*
X101807608Y-109142236D01*
X101851604Y-109137122D01*
X101883725Y-109118758D01*
X101886982Y-109114767D01*
X101905939Y-109088521D01*
X101935317Y-109045566D01*
X101971759Y-108990859D01*
X102011910Y-108929360D01*
X102082505Y-108822070D01*
X102160250Y-108710406D01*
X102230902Y-108618371D01*
X102297437Y-108543246D01*
X102362830Y-108482318D01*
X102430055Y-108432868D01*
X102502088Y-108392182D01*
X102581903Y-108357543D01*
X102672475Y-108326234D01*
X102822666Y-108285246D01*
X103055384Y-108244591D01*
X103295217Y-108228581D01*
X103539344Y-108237071D01*
X103784948Y-108269917D01*
X104029210Y-108326974D01*
X104269310Y-108408098D01*
X104288796Y-108415680D01*
X104366824Y-108443839D01*
X104425293Y-108459985D01*
X104468248Y-108464652D01*
X104499739Y-108458376D01*
X104523812Y-108441690D01*
X104526618Y-108438733D01*
X104547782Y-108398801D01*
X104551104Y-108353124D01*
X104535463Y-108314001D01*
X104526022Y-108305354D01*
X104488912Y-108283509D01*
X104431600Y-108257409D01*
X104358498Y-108228584D01*
X104274016Y-108198564D01*
X104182565Y-108168881D01*
X104088558Y-108141065D01*
X103996403Y-108116646D01*
X103910513Y-108097156D01*
X103859278Y-108087353D01*
X103668452Y-108060494D01*
X103471123Y-108046558D01*
X103271861Y-108045189D01*
X103075239Y-108056030D01*
X102885828Y-108078726D01*
X102708200Y-108112919D01*
X102546927Y-108158254D01*
X102406580Y-108214374D01*
X102358602Y-108240084D01*
X102270025Y-108301999D01*
X102178832Y-108384569D01*
X102083663Y-108489217D01*
X101983162Y-108617367D01*
X101875971Y-108770440D01*
X101846948Y-108814090D01*
X101793562Y-108896635D01*
X101754815Y-108961284D01*
X101729557Y-109011007D01*
X101716633Y-109048775D01*
X101714891Y-109077561D01*
X99577828Y-109077561D01*
X99471628Y-108951254D01*
X99422499Y-108575285D01*
X99376058Y-108206163D01*
X100613202Y-108206163D01*
X100614310Y-108234445D01*
X100623775Y-108272292D01*
X100646284Y-108301353D01*
X100661290Y-108312763D01*
X100710379Y-108332896D01*
X100765908Y-108339863D01*
X100814238Y-108331239D01*
X100829465Y-108318775D01*
X100857105Y-108286733D01*
X100891280Y-108240961D01*
X100927809Y-108186776D01*
X100932783Y-108179031D01*
X100969188Y-108123676D01*
X100995638Y-108087536D01*
X101015894Y-108066638D01*
X101033714Y-108057012D01*
X101052858Y-108054685D01*
X101054370Y-108054664D01*
X101094310Y-108044402D01*
X101134117Y-108020249D01*
X101146173Y-108010836D01*
X101186786Y-107991323D01*
X101239542Y-107985813D01*
X101282681Y-107982894D01*
X101314096Y-107969917D01*
X101324487Y-107960318D01*
X105599390Y-107960318D01*
X105615241Y-108018174D01*
X105653232Y-108088520D01*
X105681101Y-108133382D01*
X105803562Y-108353124D01*
X105828864Y-108398526D01*
X105959281Y-108680650D01*
X106070344Y-108974539D01*
X106102195Y-109081220D01*
X106160045Y-109274979D01*
X106226375Y-109576757D01*
X106229475Y-109593542D01*
X106244106Y-109658453D01*
X106259429Y-109700837D01*
X106276855Y-109724832D01*
X106311800Y-109741988D01*
X106366601Y-109748937D01*
X106411445Y-109743045D01*
X106462687Y-109716781D01*
X106496455Y-109673030D01*
X106508590Y-109615696D01*
X106506636Y-109585999D01*
X106498266Y-109526097D01*
X106484341Y-109448689D01*
X106465989Y-109358976D01*
X106444339Y-109262159D01*
X106420520Y-109163441D01*
X106395660Y-109068021D01*
X106370888Y-108981101D01*
X106333451Y-108864821D01*
X106285298Y-108731161D01*
X106231414Y-108594643D01*
X106201818Y-108525239D01*
X107395410Y-108525239D01*
X107402619Y-108717273D01*
X107419673Y-108931754D01*
X107446331Y-109170412D01*
X107464570Y-109304279D01*
X107505572Y-109554377D01*
X107517435Y-109615696D01*
X107558460Y-109827757D01*
X107623043Y-110123519D01*
X107699131Y-110440761D01*
X107786533Y-110778580D01*
X107809208Y-110861332D01*
X107833271Y-110942541D01*
X107853477Y-111001648D01*
X107870770Y-111041364D01*
X107886093Y-111064399D01*
X107924575Y-111091003D01*
X107977379Y-111101219D01*
X108031915Y-111090324D01*
X108079988Y-111058565D01*
X108106568Y-111024668D01*
X108120252Y-110976788D01*
X108119898Y-110971491D01*
X108114318Y-110938742D01*
X108102789Y-110885480D01*
X108086389Y-110816301D01*
X108066197Y-110735805D01*
X108043291Y-110648587D01*
X108033640Y-110612536D01*
X107965412Y-110350790D01*
X107906104Y-110109898D01*
X107854704Y-109885626D01*
X107810199Y-109673740D01*
X107796432Y-109602949D01*
X107779409Y-109511309D01*
X107761746Y-109412608D01*
X107744150Y-109311117D01*
X107727326Y-109211103D01*
X107711979Y-109116837D01*
X107698815Y-109032585D01*
X107688538Y-108962618D01*
X107681855Y-108911203D01*
X107679471Y-108882611D01*
X107680324Y-108865429D01*
X107688016Y-108859972D01*
X107710085Y-108873481D01*
X107718960Y-108878488D01*
X107757831Y-108890247D01*
X107804104Y-108894924D01*
X107814450Y-108894713D01*
X107869873Y-108883133D01*
X107906504Y-108853322D01*
X107924653Y-108804527D01*
X107924631Y-108735998D01*
X107906748Y-108646985D01*
X107897326Y-108608209D01*
X107887715Y-108534508D01*
X107892983Y-108463737D01*
X107900325Y-108434807D01*
X107994874Y-108434807D01*
X108004535Y-108497622D01*
X108033357Y-108551189D01*
X108070433Y-108595250D01*
X108257191Y-108588267D01*
X108329100Y-108584525D01*
X108429489Y-108573911D01*
X108512411Y-108556533D01*
X108583915Y-108530965D01*
X108650051Y-108495785D01*
X108694961Y-108468029D01*
X108758027Y-108516184D01*
X108816517Y-108550334D01*
X108876971Y-108565025D01*
X108931310Y-108558687D01*
X108975328Y-108532761D01*
X109004822Y-108488687D01*
X109015588Y-108427907D01*
X109012508Y-108389350D01*
X108998427Y-108356308D01*
X108967490Y-108320644D01*
X108919393Y-108272546D01*
X109025151Y-108156367D01*
X109130910Y-108040188D01*
X109175530Y-108165156D01*
X109203633Y-108237518D01*
X109259682Y-108349032D01*
X109323957Y-108436660D01*
X109398519Y-108502464D01*
X109485430Y-108548510D01*
X109586749Y-108576859D01*
X109650220Y-108585747D01*
X109797034Y-108587192D01*
X109956579Y-108564256D01*
X110128892Y-108516935D01*
X110165517Y-108503933D01*
X110264264Y-108459301D01*
X110343323Y-108408063D01*
X110398795Y-108352594D01*
X110409657Y-108337347D01*
X110433055Y-108295929D01*
X110448701Y-108249612D01*
X110457634Y-108192793D01*
X110460894Y-108119868D01*
X110459519Y-108025234D01*
X110457251Y-107960165D01*
X110456478Y-107904401D01*
X110461033Y-107871808D01*
X110474272Y-107859992D01*
X110499550Y-107866560D01*
X110540222Y-107889117D01*
X110599644Y-107925270D01*
X110659871Y-107961416D01*
X110705977Y-107990261D01*
X110732755Y-108011317D01*
X110742151Y-108028417D01*
X110736113Y-108045392D01*
X110716588Y-108066075D01*
X110685521Y-108094298D01*
X110648213Y-108130207D01*
X110625796Y-108158212D01*
X110615741Y-108184196D01*
X110613419Y-108215973D01*
X110619295Y-108260356D01*
X110645566Y-108310176D01*
X110689144Y-108342584D01*
X110745891Y-108354898D01*
X110811669Y-108344436D01*
X110839863Y-108330185D01*
X110884187Y-108296636D01*
X110930342Y-108251669D01*
X111000489Y-108174918D01*
X111072111Y-108198835D01*
X111083817Y-108202375D01*
X111137411Y-108214098D01*
X111203477Y-108223947D01*
X111270370Y-108230088D01*
X111397006Y-108237425D01*
X111439106Y-108195325D01*
X111459825Y-108172178D01*
X111476882Y-108137777D01*
X111481206Y-108091707D01*
X111477322Y-108041289D01*
X111462440Y-108004499D01*
X111432459Y-107980336D01*
X111383279Y-107965556D01*
X111310802Y-107956918D01*
X111291340Y-107955198D01*
X111234614Y-107947146D01*
X111179288Y-107933521D01*
X111121423Y-107912541D01*
X111057078Y-107882426D01*
X110982315Y-107841394D01*
X110893195Y-107787662D01*
X110785777Y-107719448D01*
X110734354Y-107686978D01*
X110659939Y-107642212D01*
X110590342Y-107602730D01*
X110531569Y-107571908D01*
X110489627Y-107553118D01*
X110482041Y-107550313D01*
X110401582Y-107520474D01*
X110338466Y-107497672D01*
X110287080Y-107480966D01*
X110241816Y-107469415D01*
X110197061Y-107462078D01*
X110147206Y-107458013D01*
X110086638Y-107456279D01*
X110009748Y-107455936D01*
X109910924Y-107456041D01*
X109803307Y-107456524D01*
X109706407Y-107458639D01*
X109627375Y-107463213D01*
X109561144Y-107471072D01*
X109502645Y-107483043D01*
X109446810Y-107499950D01*
X109388572Y-107522621D01*
X109322861Y-107551882D01*
X109297171Y-107563962D01*
X109235096Y-107595714D01*
X109177463Y-107630034D01*
X109120468Y-107669915D01*
X109060304Y-107718345D01*
X108993166Y-107778316D01*
X108915249Y-107852817D01*
X108822746Y-107944839D01*
X108757540Y-108009978D01*
X108678347Y-108086731D01*
X108611778Y-108147313D01*
X108554425Y-108194251D01*
X108502883Y-108230070D01*
X108453745Y-108257298D01*
X108403603Y-108278459D01*
X108349051Y-108296079D01*
X108310518Y-108305104D01*
X108241993Y-108315227D01*
X108177667Y-108318950D01*
X108148902Y-108319526D01*
X108079617Y-108328957D01*
X108030621Y-108349120D01*
X108004838Y-108379001D01*
X107994874Y-108434807D01*
X107900325Y-108434807D01*
X107913458Y-108383055D01*
X107925128Y-108339710D01*
X107936528Y-108280155D01*
X107941007Y-108231309D01*
X107938898Y-108191857D01*
X107928353Y-108162163D01*
X107904891Y-108138332D01*
X107902303Y-108136375D01*
X107858844Y-108116794D01*
X107806285Y-108109446D01*
X107755716Y-108114660D01*
X107718226Y-108132769D01*
X107709391Y-108140600D01*
X107699704Y-108146225D01*
X107700939Y-108134213D01*
X107712345Y-108100437D01*
X107713614Y-108096855D01*
X107758068Y-107990678D01*
X107810026Y-107905392D01*
X107857170Y-107853411D01*
X108561033Y-107853411D01*
X108561422Y-107866303D01*
X108567156Y-107904529D01*
X108577562Y-107927961D01*
X108579616Y-107929728D01*
X108606417Y-107940210D01*
X108644367Y-107944490D01*
X108666932Y-107942591D01*
X108695726Y-107934094D01*
X108729148Y-107916833D01*
X108770214Y-107888709D01*
X108821937Y-107847623D01*
X108887331Y-107791476D01*
X108969410Y-107718170D01*
X108971934Y-107715892D01*
X109074196Y-107627605D01*
X109166670Y-107557572D01*
X109256004Y-107502133D01*
X109348846Y-107457633D01*
X109451844Y-107420412D01*
X109571644Y-107386815D01*
X109662330Y-107365860D01*
X109870602Y-107334013D01*
X110071865Y-107327088D01*
X110269059Y-107344910D01*
X110413029Y-107372481D01*
X110621019Y-107433756D01*
X110818712Y-107519392D01*
X111008217Y-107630357D01*
X111191644Y-107767616D01*
X111198381Y-107773205D01*
X111256864Y-107819168D01*
X111301195Y-107847220D01*
X111335996Y-107859009D01*
X111365889Y-107856186D01*
X111395495Y-107840401D01*
X111400212Y-107836872D01*
X111420299Y-107809292D01*
X111426109Y-107765862D01*
X111425449Y-107748040D01*
X111419901Y-107723835D01*
X111405329Y-107699642D01*
X111377738Y-107669519D01*
X111333131Y-107627521D01*
X111285358Y-107585591D01*
X111127863Y-107468271D01*
X110952676Y-107364925D01*
X110765727Y-107278416D01*
X110572948Y-107211610D01*
X110380270Y-107167370D01*
X110340344Y-107161684D01*
X110247448Y-107153190D01*
X110139625Y-107147881D01*
X110025047Y-107145845D01*
X109911888Y-107147171D01*
X109808322Y-107151947D01*
X109722523Y-107160262D01*
X109672871Y-107167605D01*
X109500950Y-107202405D01*
X109342757Y-107249246D01*
X109202525Y-107306713D01*
X109179519Y-107319709D01*
X109084482Y-107373394D01*
X109044354Y-107402346D01*
X108986642Y-107447681D01*
X108923896Y-107499895D01*
X108864070Y-107552525D01*
X108812081Y-107598748D01*
X108750056Y-107651698D01*
X108692468Y-107698778D01*
X108647123Y-107733476D01*
X108620766Y-107752632D01*
X108587510Y-107779234D01*
X108569635Y-107800488D01*
X108562392Y-107823008D01*
X108561033Y-107853411D01*
X107857170Y-107853411D01*
X107874175Y-107834661D01*
X107955205Y-107772146D01*
X107967002Y-107764176D01*
X108009955Y-107732841D01*
X108041968Y-107705888D01*
X108056833Y-107688432D01*
X108065674Y-107646193D01*
X108058076Y-107585533D01*
X108029494Y-107532315D01*
X108005611Y-107507876D01*
X107975893Y-107493442D01*
X107932524Y-107489935D01*
X107919486Y-107490269D01*
X107859703Y-107501262D01*
X107798793Y-107529490D01*
X107732717Y-107577260D01*
X107657431Y-107646876D01*
X107640719Y-107664096D01*
X107572305Y-107747473D01*
X107515414Y-107841180D01*
X107469807Y-107946947D01*
X107435242Y-108066505D01*
X107411481Y-108201586D01*
X107398284Y-108353920D01*
X107395410Y-108525239D01*
X106201818Y-108525239D01*
X106173535Y-108458913D01*
X106113398Y-108327618D01*
X106052738Y-108204404D01*
X105993293Y-108092918D01*
X105936797Y-107996805D01*
X105884987Y-107919713D01*
X105839600Y-107865287D01*
X105801516Y-107835874D01*
X105746178Y-107818377D01*
X105690723Y-107826646D01*
X105639800Y-107860784D01*
X105633256Y-107867627D01*
X105605466Y-107911340D01*
X105599390Y-107960318D01*
X101324487Y-107960318D01*
X101345348Y-107941047D01*
X101378614Y-107905265D01*
X101435526Y-107846266D01*
X101482553Y-107801869D01*
X101524897Y-107767685D01*
X101567761Y-107739327D01*
X101616346Y-107712405D01*
X101647935Y-107696444D01*
X101745059Y-107653491D01*
X101849878Y-107616782D01*
X101969012Y-107584185D01*
X102109078Y-107553566D01*
X102255451Y-107525299D01*
X102449107Y-107491120D01*
X102627985Y-107464065D01*
X102798842Y-107443347D01*
X102968436Y-107428179D01*
X103143527Y-107417774D01*
X103330873Y-107411347D01*
X103672459Y-107403141D01*
X103702781Y-107365826D01*
X103733104Y-107328512D01*
X103836412Y-107380038D01*
X103854949Y-107389098D01*
X104014306Y-107454026D01*
X104185129Y-107503121D01*
X104358258Y-107534189D01*
X104524536Y-107545032D01*
X104555755Y-107544895D01*
X104604466Y-107543170D01*
X104635843Y-107538286D01*
X104656800Y-107528771D01*
X104674250Y-107513152D01*
X104695148Y-107483194D01*
X104704200Y-107454247D01*
X104707148Y-107438455D01*
X104722192Y-107431040D01*
X104756804Y-107432239D01*
X104778341Y-107433257D01*
X104816132Y-107425310D01*
X104854372Y-107399420D01*
X104872540Y-107383367D01*
X104889933Y-107360908D01*
X104895987Y-107333184D01*
X104894746Y-107289149D01*
X104893229Y-107256032D01*
X104895452Y-107234901D01*
X104904334Y-107230786D01*
X104922545Y-107244786D01*
X104952751Y-107278001D01*
X104997622Y-107331529D01*
X105023655Y-107362225D01*
X105064814Y-107405328D01*
X105099791Y-107431412D01*
X105134515Y-107444378D01*
X105174916Y-107448124D01*
X105214018Y-107443497D01*
X105264346Y-107418483D01*
X105298005Y-107375728D01*
X105310273Y-107319709D01*
X105310081Y-107308740D01*
X105306871Y-107283953D01*
X105297292Y-107259415D01*
X105278256Y-107230011D01*
X105246674Y-107190625D01*
X105199460Y-107136143D01*
X105195552Y-107131715D01*
X105115341Y-107045731D01*
X105027079Y-106959024D01*
X104936971Y-106877237D01*
X104851223Y-106806017D01*
X104776041Y-106751007D01*
X104754650Y-106737381D01*
X104718200Y-106718876D01*
X107996282Y-106718876D01*
X108002402Y-106761994D01*
X108031943Y-106813932D01*
X108040251Y-106823500D01*
X108064692Y-106844727D01*
X108093822Y-106854165D01*
X108138999Y-106856312D01*
X108183487Y-106853823D01*
X108221676Y-106842001D01*
X108259225Y-106816063D01*
X108272292Y-106805759D01*
X108305513Y-106786712D01*
X108327792Y-106788303D01*
X108331084Y-106790056D01*
X108360846Y-106797764D01*
X108400753Y-106801004D01*
X108417323Y-106800465D01*
X108442456Y-106795065D01*
X108468157Y-106780752D01*
X108500456Y-106753741D01*
X108545384Y-106710248D01*
X108561623Y-106694428D01*
X108611053Y-106649578D01*
X108658336Y-106610805D01*
X108695108Y-106585102D01*
X108753424Y-106550922D01*
X108789943Y-106579647D01*
X108803806Y-106589712D01*
X108839931Y-106606488D01*
X108878895Y-106608347D01*
X108924944Y-106594237D01*
X108982325Y-106563104D01*
X109055286Y-106513897D01*
X109060460Y-106510216D01*
X109128581Y-106463315D01*
X109192104Y-106422253D01*
X109246640Y-106389664D01*
X109287798Y-106368180D01*
X109311189Y-106360434D01*
X109312679Y-106361515D01*
X109316920Y-106379848D01*
X109318625Y-106413674D01*
X109323942Y-106454385D01*
X109347173Y-106503207D01*
X109367782Y-106524415D01*
X109396083Y-106536420D01*
X109440151Y-106539352D01*
X109459389Y-106538583D01*
X109517787Y-106531096D01*
X109573451Y-106518250D01*
X109582421Y-106515572D01*
X109715580Y-106485277D01*
X109867250Y-106465980D01*
X110031008Y-106458011D01*
X110200433Y-106461700D01*
X110369101Y-106477377D01*
X110378435Y-106478637D01*
X110444696Y-106488813D01*
X110529700Y-106503368D01*
X110626510Y-106521043D01*
X110728190Y-106540576D01*
X110827805Y-106560709D01*
X110849713Y-106565213D01*
X110947938Y-106584305D01*
X111044889Y-106601543D01*
X111134163Y-106615885D01*
X111209359Y-106626289D01*
X111264075Y-106631713D01*
X111289512Y-106633285D01*
X111342675Y-106637267D01*
X111376654Y-106642361D01*
X111397538Y-106650567D01*
X111411419Y-106663882D01*
X111424384Y-106684303D01*
X111452691Y-106718247D01*
X111496885Y-106737274D01*
X111556820Y-106746609D01*
X111651944Y-106757247D01*
X111759112Y-106765703D01*
X111869605Y-106771316D01*
X111974701Y-106773427D01*
X112144497Y-106773666D01*
X112227505Y-106690658D01*
X112268644Y-106725275D01*
X112288487Y-106739778D01*
X112342733Y-106759636D01*
X112396672Y-106752878D01*
X112446474Y-106719628D01*
X112471221Y-106690267D01*
X112483659Y-106657791D01*
X112486738Y-106611093D01*
X112486588Y-106595791D01*
X112484087Y-106568010D01*
X112475972Y-106543133D01*
X112459034Y-106515319D01*
X112430063Y-106478729D01*
X112385850Y-106427523D01*
X112325513Y-106361738D01*
X112180228Y-106226142D01*
X112019353Y-106105870D01*
X111841236Y-106000108D01*
X111644228Y-105908041D01*
X111426677Y-105828855D01*
X111186932Y-105761736D01*
X110923343Y-105705868D01*
X110835372Y-105690082D01*
X110650104Y-105659424D01*
X110481377Y-105635781D01*
X110322354Y-105618472D01*
X110166201Y-105606820D01*
X110006083Y-105600144D01*
X109835165Y-105597767D01*
X109776950Y-105597740D01*
X109646532Y-105598970D01*
X109536768Y-105602473D01*
X109442743Y-105608766D01*
X109359546Y-105618363D01*
X109282262Y-105631778D01*
X109205979Y-105649528D01*
X109125783Y-105672126D01*
X109110541Y-105676875D01*
X109022301Y-105711428D01*
X108947180Y-105752915D01*
X108888721Y-105798648D01*
X108850463Y-105845940D01*
X108835947Y-105892104D01*
X108835880Y-105892889D01*
X108825645Y-105913828D01*
X108801485Y-105947234D01*
X108768325Y-105986252D01*
X108745547Y-106011091D01*
X108718744Y-106037966D01*
X108700716Y-106049233D01*
X108685408Y-106047921D01*
X108666767Y-106037059D01*
X108632861Y-106022929D01*
X108572759Y-106018670D01*
X108569403Y-106018916D01*
X108550398Y-106021035D01*
X108533307Y-106026019D01*
X108515371Y-106036510D01*
X108493831Y-106055149D01*
X108465926Y-106084577D01*
X108428896Y-106127436D01*
X108379982Y-106186368D01*
X108316425Y-106264013D01*
X108311660Y-106269845D01*
X108229245Y-106370867D01*
X108162579Y-106453105D01*
X108109996Y-106518927D01*
X108069830Y-106570700D01*
X108040415Y-106610791D01*
X108020084Y-106641568D01*
X108007171Y-106665397D01*
X108000011Y-106684647D01*
X107996937Y-106701684D01*
X107996282Y-106718876D01*
X104718200Y-106718876D01*
X104669538Y-106694171D01*
X104588587Y-106669880D01*
X104516071Y-106665433D01*
X104456260Y-106681756D01*
X104441365Y-106688512D01*
X104421315Y-106690391D01*
X104397342Y-106679618D01*
X104360856Y-106653664D01*
X104321819Y-106629119D01*
X104263610Y-106600771D01*
X104204543Y-106578732D01*
X104203655Y-106578462D01*
X104164541Y-106567503D01*
X104127953Y-106560043D01*
X104087884Y-106555671D01*
X104038326Y-106553974D01*
X103973273Y-106554541D01*
X103886716Y-106556961D01*
X103785032Y-106562015D01*
X103615184Y-106576340D01*
X103428426Y-106597929D01*
X103230248Y-106625812D01*
X103026136Y-106659021D01*
X102821579Y-106696586D01*
X102622065Y-106737538D01*
X102433082Y-106780907D01*
X102260118Y-106825723D01*
X102108660Y-106871019D01*
X102049290Y-106891607D01*
X101920374Y-106943188D01*
X101785429Y-107005005D01*
X101652674Y-107072962D01*
X101530331Y-107142962D01*
X101426620Y-107210909D01*
X101405300Y-107226326D01*
X101260686Y-107340923D01*
X101124958Y-107467542D01*
X100994631Y-107609948D01*
X100866223Y-107771906D01*
X100736252Y-107957181D01*
X100729369Y-107967532D01*
X100684511Y-108035849D01*
X100652848Y-108086687D01*
X100632132Y-108124590D01*
X100620117Y-108154106D01*
X100614556Y-108179782D01*
X100613202Y-108206163D01*
X99376058Y-108206163D01*
X99375187Y-108199238D01*
X99332639Y-107828599D01*
X99295439Y-107465771D01*
X99262614Y-107101231D01*
X99233188Y-106725455D01*
X99232301Y-106712910D01*
X99226422Y-106606025D01*
X99221794Y-106478345D01*
X99218399Y-106334264D01*
X99216217Y-106178174D01*
X99215805Y-106109672D01*
X99259236Y-106109672D01*
X99295083Y-106145519D01*
X99298507Y-106148885D01*
X99325460Y-106169292D01*
X99357732Y-106178938D01*
X99406316Y-106181367D01*
X99423071Y-106181219D01*
X99463229Y-106177735D01*
X99488828Y-106167047D01*
X99509701Y-106145770D01*
X99510370Y-106144915D01*
X99519863Y-106130802D01*
X99526879Y-106113648D01*
X99531798Y-106089366D01*
X99534995Y-106053874D01*
X99536850Y-106003087D01*
X99537739Y-105932920D01*
X99538041Y-105839290D01*
X99538683Y-105759256D01*
X99540729Y-105661045D01*
X99543910Y-105567255D01*
X99547957Y-105485596D01*
X99552599Y-105423774D01*
X99557305Y-105375817D01*
X99566444Y-105281073D01*
X99572948Y-105208689D01*
X99576897Y-105155124D01*
X99578372Y-105116834D01*
X99577451Y-105090276D01*
X99574214Y-105071908D01*
X99568742Y-105058187D01*
X99561114Y-105045569D01*
X99551851Y-105032835D01*
X99533513Y-105018460D01*
X99505230Y-105012024D01*
X99458235Y-105010542D01*
X99439112Y-105010725D01*
X99397130Y-105014337D01*
X99369178Y-105024964D01*
X99345263Y-105045716D01*
X99344966Y-105046035D01*
X99329250Y-105070607D01*
X99315723Y-105109163D01*
X99304170Y-105163640D01*
X99294379Y-105235975D01*
X99286137Y-105328104D01*
X99279230Y-105441963D01*
X99273446Y-105579489D01*
X99268571Y-105742618D01*
X99259236Y-106109672D01*
X99215805Y-106109672D01*
X99215232Y-106014469D01*
X99215424Y-105847542D01*
X99216775Y-105681785D01*
X99219267Y-105521592D01*
X99222882Y-105371356D01*
X99227601Y-105235469D01*
X99233406Y-105118325D01*
X99240279Y-105024317D01*
X99255767Y-104866596D01*
X99300546Y-104503164D01*
X99356498Y-104160388D01*
X99424407Y-103834743D01*
X99505059Y-103522704D01*
X99599239Y-103220744D01*
X99707732Y-102925338D01*
X99739852Y-102846375D01*
X99838420Y-102625689D01*
X99950355Y-102401738D01*
X100071508Y-102182178D01*
X100197730Y-101974664D01*
X100324869Y-101786853D01*
X100334785Y-101773065D01*
X100378719Y-101711819D01*
X100418738Y-101655795D01*
X100436080Y-101631382D01*
X111494981Y-101631382D01*
X111496642Y-101643399D01*
X111507821Y-101682368D01*
X111527803Y-101738874D01*
X111554553Y-101808167D01*
X111586040Y-101885496D01*
X111620232Y-101966112D01*
X111655095Y-102045263D01*
X111688598Y-102118200D01*
X111718707Y-102180171D01*
X111743391Y-102226428D01*
X111760616Y-102252218D01*
X111766175Y-102257883D01*
X111799510Y-102277506D01*
X111847861Y-102283210D01*
X111872156Y-102281766D01*
X111928477Y-102262983D01*
X111967066Y-102223532D01*
X111986357Y-102164751D01*
X111987726Y-102145755D01*
X111985684Y-102121813D01*
X111978585Y-102091712D01*
X111965146Y-102051676D01*
X111944082Y-101997928D01*
X111914107Y-101926691D01*
X111873939Y-101834187D01*
X111861310Y-101805410D01*
X111825574Y-101724790D01*
X111793087Y-101652642D01*
X111765771Y-101593170D01*
X111745549Y-101550575D01*
X111734343Y-101529062D01*
X111731392Y-101524618D01*
X111713910Y-101507943D01*
X111686534Y-101500056D01*
X111640519Y-101498069D01*
X111618183Y-101498345D01*
X111580770Y-101502564D01*
X111555225Y-101515197D01*
X111530641Y-101540449D01*
X111508545Y-101573966D01*
X111494981Y-101631382D01*
X100436080Y-101631382D01*
X100450773Y-101610699D01*
X100470756Y-101582237D01*
X100480612Y-101566482D01*
X100501672Y-101504949D01*
X100497220Y-101444070D01*
X100467346Y-101388931D01*
X100464912Y-101386063D01*
X100438529Y-101360716D01*
X100409390Y-101349243D01*
X100365224Y-101346551D01*
X100338107Y-101347028D01*
X100312087Y-101351407D01*
X100290147Y-101364158D01*
X100265300Y-101389747D01*
X100230559Y-101432641D01*
X100216828Y-101450074D01*
X100043539Y-101688042D01*
X99878018Y-101948475D01*
X99722489Y-102227147D01*
X99579173Y-102519832D01*
X99450291Y-102822303D01*
X99338066Y-103130336D01*
X99275031Y-103327880D01*
X99198737Y-103596959D01*
X99133745Y-103867057D01*
X99079507Y-104141819D01*
X99035477Y-104424884D01*
X99001108Y-104719897D01*
X98975855Y-105030499D01*
X98959170Y-105360331D01*
X98950508Y-105713037D01*
X98948902Y-105906787D01*
X98949972Y-106158065D01*
X98954925Y-106405543D01*
X98964007Y-106653061D01*
X98977463Y-106904459D01*
X98995536Y-107163577D01*
X99018473Y-107434256D01*
X99046518Y-107720336D01*
X99079915Y-108025657D01*
X99118911Y-108354060D01*
X99121362Y-108374053D01*
X99131453Y-108456841D01*
X99140177Y-108529148D01*
X99147030Y-108586760D01*
X99151510Y-108625461D01*
X99153115Y-108641037D01*
X99149944Y-108641372D01*
X99131284Y-108630507D01*
X99101461Y-108608445D01*
X99005418Y-108541375D01*
X98897873Y-108484957D01*
X98790943Y-108446813D01*
X98688492Y-108427970D01*
X98594385Y-108429452D01*
X98512487Y-108452283D01*
X98501506Y-108457658D01*
X98437176Y-108504617D01*
X98377972Y-108573667D01*
X98328044Y-108660131D01*
X98320255Y-108677136D01*
X98307560Y-108709467D01*
X98299471Y-108741939D01*
X98295029Y-108781403D01*
X98293276Y-108834706D01*
X98293252Y-108908698D01*
X98293962Y-108962374D01*
X98297332Y-109035211D01*
X98304767Y-109099446D01*
X98317792Y-109166667D01*
X98337931Y-109248459D01*
X98360136Y-109330635D01*
X98397865Y-109457401D01*
X98440292Y-109584318D01*
X98488666Y-109714280D01*
X98544237Y-109850180D01*
X98608257Y-109994913D01*
X98681974Y-110151371D01*
X98766640Y-110322448D01*
X98863504Y-110511037D01*
X98973818Y-110720032D01*
X99048708Y-110866815D01*
X99122843Y-111032161D01*
X99181216Y-111191017D01*
X99226025Y-111350320D01*
X99259467Y-111517006D01*
X99283742Y-111698015D01*
X99294658Y-111775739D01*
X99319987Y-111895601D01*
X99353562Y-112010901D01*
X99392365Y-112110190D01*
X99397317Y-112120798D01*
X99423128Y-112172340D01*
X99452548Y-112224070D01*
X99488369Y-112280195D01*
X99533381Y-112344922D01*
X99590374Y-112422459D01*
X99662138Y-112517015D01*
X99692361Y-112557210D01*
X99779580Y-112685133D01*
X99844425Y-112802091D01*
X99888094Y-112910163D01*
X99892680Y-112926308D01*
X99904068Y-112975332D01*
X99917470Y-113041616D01*
X99931581Y-113118526D01*
X99945092Y-113199425D01*
X99951122Y-113236415D01*
X99965934Y-113320262D01*
X99981322Y-113399324D01*
X99995785Y-113466106D01*
X100007827Y-113513113D01*
X100050211Y-113634326D01*
X100115240Y-113775737D01*
X100193106Y-113909380D01*
X100280915Y-114031307D01*
X100375778Y-114137573D01*
X100474802Y-114224231D01*
X100575096Y-114287334D01*
X100585305Y-114292392D01*
X100632379Y-114314454D01*
X100669661Y-114329958D01*
X100689834Y-114335813D01*
X100693592Y-114336255D01*
X100699671Y-114340036D01*
X100706247Y-114349863D01*
X100714102Y-114368318D01*
X100724019Y-114397984D01*
X100736778Y-114441444D01*
X100753163Y-114501281D01*
X100773957Y-114580077D01*
X100799940Y-114680416D01*
X100831896Y-114804879D01*
X100848115Y-114867959D01*
X100870536Y-114954412D01*
X100890389Y-115030093D01*
X100906619Y-115091020D01*
X100918172Y-115133210D01*
X100923993Y-115152683D01*
X100926891Y-115165979D01*
X100919429Y-115174131D01*
X100896595Y-115172881D01*
X100854995Y-115161927D01*
X100791238Y-115140972D01*
X100686807Y-115106867D01*
X100463624Y-115044698D01*
X100238294Y-114995624D01*
X100014925Y-114960112D01*
X99797626Y-114938628D01*
X99590505Y-114931638D01*
X99397670Y-114939608D01*
X99223228Y-114963006D01*
X99125985Y-114984388D01*
X98987852Y-115027920D01*
X98864559Y-115086088D01*
X98749216Y-115162371D01*
X98634934Y-115260251D01*
X98615295Y-115278435D01*
X98547978Y-115335389D01*
X98469688Y-115393734D01*
X98377545Y-115455334D01*
X98268666Y-115522056D01*
X98140171Y-115595765D01*
X97989178Y-115678325D01*
X97877513Y-115739128D01*
X97736740Y-115819155D01*
X97615876Y-115892709D01*
X97511596Y-115962035D01*
X97420570Y-116029379D01*
X97339473Y-116096986D01*
X97264975Y-116167103D01*
X97259283Y-116172794D01*
X97200957Y-116233225D01*
X97149914Y-116291250D01*
X97103001Y-116351432D01*
X97057069Y-116418335D01*
X97008966Y-116496523D01*
X96955543Y-116590560D01*
X96893648Y-116705011D01*
X96871672Y-116746144D01*
X96822349Y-116836827D01*
X96781083Y-116909407D01*
X96744890Y-116968639D01*
X96710784Y-117019272D01*
X96675782Y-117066058D01*
X96636898Y-117113750D01*
X96613331Y-117140676D01*
X96576174Y-117178203D01*
X96533699Y-117214400D01*
X96482049Y-117252010D01*
X96417366Y-117293778D01*
X96335794Y-117342449D01*
X96233475Y-117400767D01*
X96184776Y-117428368D01*
X96032079Y-117518813D01*
X95900852Y-117603816D01*
X95787594Y-117686248D01*
X95688802Y-117768978D01*
X95600974Y-117854878D01*
X95520607Y-117946818D01*
X95444198Y-118047670D01*
X95391910Y-118126782D01*
X95312780Y-118277204D01*
X95256923Y-118430621D01*
X95224798Y-118584381D01*
X95216863Y-118735835D01*
X95233579Y-118882334D01*
X95275405Y-119021229D01*
X95292797Y-119059884D01*
X95341094Y-119147377D01*
X95404905Y-119245141D01*
X95480731Y-119347987D01*
X95565070Y-119450723D01*
X95604889Y-119497348D01*
X95637791Y-119537166D01*
X95659246Y-119564661D01*
X95665881Y-119575652D01*
X95661409Y-119577503D01*
X95636908Y-119585279D01*
X95599319Y-119596098D01*
X95567712Y-119606764D01*
X95487554Y-119648346D01*
X95410946Y-119706622D01*
X95347093Y-119775062D01*
X95305570Y-119837592D01*
X95266860Y-119924199D01*
X95242552Y-120023910D01*
X95230689Y-120142910D01*
X95229478Y-120181824D01*
X95239179Y-120343860D01*
X95273307Y-120505321D01*
X95332573Y-120668842D01*
X95417685Y-120837057D01*
X95484641Y-120953864D01*
X95373455Y-120985964D01*
X95182046Y-121052496D01*
X94984006Y-121148352D01*
X94945507Y-121169177D01*
X94880598Y-121202471D01*
X94807695Y-121238405D01*
X94736486Y-121272133D01*
X94652460Y-121311851D01*
X94444795Y-121416671D01*
X94227194Y-121534874D01*
X94006556Y-121662404D01*
X93789781Y-121795206D01*
X93583767Y-121929225D01*
X93395414Y-122060406D01*
X93362937Y-122083690D01*
X93304990Y-122123945D01*
X93256032Y-122156310D01*
X93220434Y-122177936D01*
X93202573Y-122185976D01*
X93202175Y-122185941D01*
X93187999Y-122174025D01*
X93159898Y-122142558D01*
X93119894Y-122094186D01*
X93070006Y-122031551D01*
X93012257Y-121957299D01*
X92948668Y-121874071D01*
X92881259Y-121784514D01*
X92812053Y-121691270D01*
X92743069Y-121596983D01*
X92676329Y-121504297D01*
X92613854Y-121415857D01*
X92534292Y-121300928D01*
X92160971Y-120732715D01*
X91811858Y-120151734D01*
X91487182Y-119558709D01*
X91187169Y-118954364D01*
X90912048Y-118339426D01*
X90662048Y-117714618D01*
X90437395Y-117080667D01*
X90238319Y-116438297D01*
X90065046Y-115788234D01*
X89917805Y-115131201D01*
X89796824Y-114467925D01*
X89702331Y-113799131D01*
X89634553Y-113125543D01*
X89593720Y-112447887D01*
X89580058Y-111766887D01*
X89586543Y-111297243D01*
X89618852Y-110619437D01*
X89678013Y-109946079D01*
X89763736Y-109277868D01*
X89875729Y-108615507D01*
X90013704Y-107959695D01*
X90177370Y-107311135D01*
X90366436Y-106670526D01*
X90580613Y-106038570D01*
X90819610Y-105415968D01*
X91083137Y-104803420D01*
X91370903Y-104201628D01*
X91682619Y-103611293D01*
X92017994Y-103033115D01*
X92376738Y-102467795D01*
X92758561Y-101916035D01*
X93163172Y-101378536D01*
X93590282Y-100855998D01*
X94039599Y-100349122D01*
X94510835Y-99858609D01*
X94847312Y-99531309D01*
X95349184Y-99075158D01*
X95866936Y-98641124D01*
X96399866Y-98229498D01*
X96947275Y-97840571D01*
X97508461Y-97474632D01*
X98082722Y-97131973D01*
X98669359Y-96812882D01*
X99267670Y-96517651D01*
X99876954Y-96246569D01*
X100496511Y-95999927D01*
X101125638Y-95778016D01*
X101763636Y-95581124D01*
X102409804Y-95409543D01*
X103063440Y-95263563D01*
X103723843Y-95143474D01*
X104390313Y-95049566D01*
X105062149Y-94982130D01*
X105738649Y-94941455D01*
X106419113Y-94927832D01*
X106888757Y-94934318D01*
X107566563Y-94966627D01*
X108239921Y-95025788D01*
X108908132Y-95111510D01*
X109570493Y-95223504D01*
X110226305Y-95361479D01*
X110874865Y-95525144D01*
X111515474Y-95714211D01*
X112147430Y-95928387D01*
X112770032Y-96167384D01*
X113382580Y-96430911D01*
X113984372Y-96718677D01*
X114574707Y-97030393D01*
X115152885Y-97365768D01*
X115718205Y-97724513D01*
X116269965Y-98106335D01*
X116807464Y-98510947D01*
X117330002Y-98938056D01*
X117836878Y-99387374D01*
X118327391Y-99858609D01*
X118425094Y-99957114D01*
X118892427Y-100451635D01*
X119338086Y-100962882D01*
X119761727Y-101490196D01*
X120163007Y-102032917D01*
X120541582Y-102590387D01*
X120897109Y-103161946D01*
X121229245Y-103746935D01*
X121537645Y-104344695D01*
X121821967Y-104954567D01*
X122081868Y-105575893D01*
X122317003Y-106208012D01*
X122527029Y-106850266D01*
X122711604Y-107501996D01*
X122870382Y-108162543D01*
X123003022Y-108831248D01*
X123100610Y-109448048D01*
X123179761Y-110116394D01*
X123231904Y-110786809D01*
X123257159Y-111458325D01*
X123255644Y-112129970D01*
X123227479Y-112800777D01*
X123172783Y-113469775D01*
X123091677Y-114135995D01*
X122984279Y-114798467D01*
X122850710Y-115456223D01*
X122691087Y-116108292D01*
X122505532Y-116753705D01*
X122294163Y-117391493D01*
X122057099Y-118020686D01*
X121794461Y-118640314D01*
X121746658Y-118746073D01*
X121695697Y-118857031D01*
X121645112Y-118965532D01*
X121596276Y-119068747D01*
X121550563Y-119163845D01*
X121509345Y-119247996D01*
X121473996Y-119318370D01*
X121445889Y-119372137D01*
X121426397Y-119406467D01*
X121416892Y-119418529D01*
X121407647Y-119416441D01*
X121374854Y-119407458D01*
X121322160Y-119392380D01*
X121253295Y-119372288D01*
X121171987Y-119348266D01*
X121081965Y-119321393D01*
X120641395Y-119192809D01*
X119822322Y-118971978D01*
X118989301Y-118770405D01*
X118147046Y-118589204D01*
X117300275Y-118429486D01*
X116930573Y-118364657D01*
X116913963Y-118275208D01*
X116869345Y-118102504D01*
X116800222Y-117939669D01*
X116707051Y-117790157D01*
X116589551Y-117653431D01*
X116569084Y-117633035D01*
X116512804Y-117580131D01*
X116463688Y-117540737D01*
X116413846Y-117508976D01*
X116355386Y-117478967D01*
X116329476Y-117466945D01*
X116266954Y-117440916D01*
X116202821Y-117419322D01*
X116131901Y-117400926D01*
X116049016Y-117384489D01*
X115948992Y-117368773D01*
X115826651Y-117352542D01*
X115754473Y-117343024D01*
X115624217Y-117322284D01*
X115515400Y-117298914D01*
X115423914Y-117271576D01*
X115345649Y-117238930D01*
X115276498Y-117199637D01*
X115212352Y-117152360D01*
X115148650Y-117100078D01*
X115139239Y-116967973D01*
X115138108Y-116952756D01*
X115125011Y-116834074D01*
X115104069Y-116730857D01*
X115072640Y-116632665D01*
X115028080Y-116529063D01*
X114984879Y-116444106D01*
X114909427Y-116316950D01*
X114817704Y-116183951D01*
X114708000Y-116042822D01*
X114578604Y-115891276D01*
X114427803Y-115727028D01*
X114350820Y-115647132D01*
X114183351Y-115484634D01*
X114022282Y-115344843D01*
X113865149Y-115225696D01*
X113709488Y-115125126D01*
X113707769Y-115124110D01*
X113654696Y-115091564D01*
X113622349Y-115067059D01*
X113607257Y-115045761D01*
X113605951Y-115022839D01*
X113614961Y-114993458D01*
X113616089Y-114990155D01*
X113624030Y-114961259D01*
X113636473Y-114911136D01*
X113652326Y-114844366D01*
X113670499Y-114765525D01*
X113689898Y-114679193D01*
X113716029Y-114558132D01*
X113769308Y-114285782D01*
X113815403Y-114009869D01*
X113854937Y-113725658D01*
X113888533Y-113428412D01*
X113916816Y-113113392D01*
X113940408Y-112775862D01*
X113942385Y-112744229D01*
X113946476Y-112689440D01*
X113951030Y-112655227D01*
X113957355Y-112636765D01*
X113966758Y-112629227D01*
X113980549Y-112627787D01*
X114008614Y-112623192D01*
X114057514Y-112596747D01*
X114103916Y-112550824D01*
X114142392Y-112490043D01*
X114159196Y-112448110D01*
X114178979Y-112385584D01*
X114198750Y-112311897D01*
X114216144Y-112235217D01*
X114217207Y-112230003D01*
X114227841Y-112175141D01*
X114236404Y-112123694D01*
X114243253Y-112071238D01*
X114248746Y-112013350D01*
X114253239Y-111945609D01*
X114257090Y-111863590D01*
X114260656Y-111762872D01*
X114264295Y-111639031D01*
X114265784Y-111585190D01*
X114269059Y-111470137D01*
X114272155Y-111376094D01*
X114275542Y-111298422D01*
X114279691Y-111232480D01*
X114285070Y-111173629D01*
X114292150Y-111117228D01*
X114301400Y-111058639D01*
X114313291Y-110993221D01*
X114328290Y-110916335D01*
X114346869Y-110823340D01*
X114371236Y-110695243D01*
X114399499Y-110519724D01*
X114417176Y-110366640D01*
X114424451Y-110234258D01*
X114421508Y-110120846D01*
X114420306Y-110107503D01*
X114413346Y-110051159D01*
X114402159Y-109975695D01*
X114387697Y-109887036D01*
X114370916Y-109791109D01*
X114352768Y-109693839D01*
X114340479Y-109629843D01*
X114317069Y-109505244D01*
X114298567Y-109401336D01*
X114284414Y-109313802D01*
X114274055Y-109238326D01*
X114266932Y-109170593D01*
X114262486Y-109106285D01*
X114260163Y-109041087D01*
X114259403Y-108970683D01*
X114259479Y-108936038D01*
X114260617Y-108878433D01*
X114263521Y-108823042D01*
X114268758Y-108766234D01*
X114276893Y-108704382D01*
X114288494Y-108633856D01*
X114304127Y-108551026D01*
X114324359Y-108452265D01*
X114349755Y-108333942D01*
X114380883Y-108192429D01*
X114391192Y-108145717D01*
X114420968Y-108007892D01*
X114444961Y-107890682D01*
X114463880Y-107789407D01*
X114478433Y-107699384D01*
X114489330Y-107615933D01*
X114497279Y-107534373D01*
X114502988Y-107450022D01*
X114507167Y-107358199D01*
X114507471Y-107349997D01*
X114510111Y-107258508D01*
X114510214Y-107187523D01*
X114507488Y-107130589D01*
X114501640Y-107081254D01*
X114492374Y-107033067D01*
X114467991Y-106949965D01*
X114421057Y-106852238D01*
X114359845Y-106771965D01*
X114286837Y-106712224D01*
X114204515Y-106676093D01*
X114133294Y-106665343D01*
X114044498Y-106667264D01*
X113955451Y-106682230D01*
X113877952Y-106709051D01*
X113840795Y-106728880D01*
X113756405Y-106787629D01*
X113678606Y-106859048D01*
X113617643Y-106934273D01*
X113574915Y-106998779D01*
X113574915Y-106887306D01*
X113574198Y-106836261D01*
X113569452Y-106725379D01*
X113560645Y-106593880D01*
X113548219Y-106445962D01*
X113532619Y-106285818D01*
X113514290Y-106117643D01*
X113493676Y-105945633D01*
X113471220Y-105773982D01*
X113447367Y-105606886D01*
X113422562Y-105448539D01*
X113366032Y-105129824D01*
X113273403Y-104679056D01*
X113162759Y-104208873D01*
X113034261Y-103719955D01*
X112888074Y-103212983D01*
X112882401Y-103194141D01*
X112801556Y-102934389D01*
X112722848Y-102699179D01*
X112645036Y-102485900D01*
X112566884Y-102291945D01*
X112487150Y-102114703D01*
X112404597Y-101951566D01*
X112317985Y-101799924D01*
X112226075Y-101657167D01*
X112127628Y-101520687D01*
X112021405Y-101387874D01*
X111983767Y-101344127D01*
X111886473Y-101238331D01*
X111768587Y-101118324D01*
X111631390Y-100985290D01*
X111476162Y-100840414D01*
X111304186Y-100684882D01*
X111116742Y-100519879D01*
X110915111Y-100346590D01*
X110700576Y-100166199D01*
X110496561Y-100001193D01*
X110144500Y-99738824D01*
X109790929Y-99503639D01*
X109435427Y-99295417D01*
X109077576Y-99113935D01*
X108716956Y-98958972D01*
X108353149Y-98830304D01*
X107985735Y-98727711D01*
X107942611Y-98717405D01*
X107543197Y-98636230D01*
X107130898Y-98577239D01*
X106708980Y-98540548D01*
X106280711Y-98526277D01*
X105849359Y-98534544D01*
X105418189Y-98565467D01*
X104990469Y-98619165D01*
X104840831Y-98643692D01*
X104416069Y-98730551D01*
X103995055Y-98841825D01*
X103580332Y-98976477D01*
X103174443Y-99133471D01*
X102779932Y-99311771D01*
X102399342Y-99510339D01*
X102035218Y-99728139D01*
X101690103Y-99964134D01*
X101645886Y-99996687D01*
X101586700Y-100042005D01*
X101545277Y-100077710D01*
X101518494Y-100107568D01*
X101503229Y-100135345D01*
X101496360Y-100164806D01*
X101494764Y-100199716D01*
X101498549Y-100245063D01*
X101519124Y-100298119D01*
X101557302Y-100330231D01*
X101612764Y-100341019D01*
X101634687Y-100338896D01*
X101662774Y-100329636D01*
X101698186Y-100310636D01*
X101745595Y-100279337D01*
X101809675Y-100233178D01*
X101956630Y-100127846D01*
X102328634Y-99884912D01*
X102714603Y-99665429D01*
X102728062Y-99658831D01*
X108785802Y-99658831D01*
X108788510Y-99719200D01*
X108814973Y-99767677D01*
X108866790Y-99807361D01*
X109090675Y-99935136D01*
X109315366Y-100070344D01*
X109521883Y-100203108D01*
X109714466Y-100336491D01*
X109897354Y-100473557D01*
X110074785Y-100617370D01*
X110250998Y-100770995D01*
X110430232Y-100937495D01*
X110476107Y-100980962D01*
X110525088Y-101025735D01*
X110561202Y-101055693D01*
X110588210Y-101073604D01*
X110609876Y-101082234D01*
X110629960Y-101084349D01*
X110681534Y-101076495D01*
X110732898Y-101047099D01*
X110766083Y-100998475D01*
X110778439Y-100933319D01*
X110777872Y-100919433D01*
X110773307Y-100901151D01*
X110761966Y-100880342D01*
X110741211Y-100853715D01*
X110708402Y-100817983D01*
X110660899Y-100769854D01*
X110596063Y-100706041D01*
X110418729Y-100539646D01*
X110132163Y-100296127D01*
X109827029Y-100064834D01*
X109508324Y-99849483D01*
X109181045Y-99653789D01*
X109149865Y-99636428D01*
X109077934Y-99597506D01*
X109023629Y-99570475D01*
X108982657Y-99553472D01*
X108950726Y-99544636D01*
X108923543Y-99542104D01*
X108905661Y-99542987D01*
X108848599Y-99560454D01*
X108807670Y-99597928D01*
X108786732Y-99652299D01*
X108785802Y-99658831D01*
X102728062Y-99658831D01*
X103113312Y-99469971D01*
X103523534Y-99299111D01*
X103944044Y-99153424D01*
X104373614Y-99033482D01*
X104390540Y-99029331D01*
X104832061Y-98934641D01*
X105275734Y-98865363D01*
X105719638Y-98821578D01*
X106161847Y-98803368D01*
X106600440Y-98810815D01*
X107033492Y-98843999D01*
X107459080Y-98903001D01*
X107721191Y-98953013D01*
X108014992Y-99022793D01*
X108300378Y-99106347D01*
X108579433Y-99204757D01*
X108854237Y-99319105D01*
X109126875Y-99450474D01*
X109399428Y-99599945D01*
X109673979Y-99768601D01*
X109952611Y-99957524D01*
X110237404Y-100167795D01*
X110530443Y-100400498D01*
X110833809Y-100656714D01*
X110907907Y-100721221D01*
X111101303Y-100892024D01*
X111146785Y-100933319D01*
X111274661Y-101049422D01*
X111429660Y-101195444D01*
X111567978Y-101332119D01*
X111691293Y-101461476D01*
X111801283Y-101585543D01*
X111899627Y-101706349D01*
X111988003Y-101825922D01*
X112068090Y-101946292D01*
X112141564Y-102069486D01*
X112182389Y-102145755D01*
X112210106Y-102197535D01*
X112275392Y-102332465D01*
G37*
G36*
X114114398Y-107022219D02*
G01*
X114133360Y-107028018D01*
X114181845Y-107053579D01*
X114213553Y-107092899D01*
X114230847Y-107149988D01*
X114236087Y-107228854D01*
X114236087Y-107310341D01*
X114174104Y-107301845D01*
X114159981Y-107300338D01*
X114082016Y-107307963D01*
X114006675Y-107342731D01*
X113934214Y-107404377D01*
X113864892Y-107492640D01*
X113798965Y-107607258D01*
X113736690Y-107747967D01*
X113729433Y-107766270D01*
X113708502Y-107815259D01*
X113692126Y-107844301D01*
X113677064Y-107858208D01*
X113660077Y-107861794D01*
X113659030Y-107861792D01*
X113636540Y-107856417D01*
X113635499Y-107837739D01*
X113639162Y-107821135D01*
X113646227Y-107781095D01*
X113655033Y-107725853D01*
X113664471Y-107662115D01*
X113680094Y-107564898D01*
X113709182Y-107426381D01*
X113743456Y-107304482D01*
X113781985Y-107201924D01*
X113823841Y-107121429D01*
X113868093Y-107065721D01*
X113883031Y-107054478D01*
X113932216Y-107033129D01*
X113993927Y-107019444D01*
X114058032Y-107015211D01*
X114114398Y-107022219D01*
G37*
G36*
X103062048Y-108922562D02*
G01*
X103091779Y-108928708D01*
X103096245Y-108945375D01*
X103075917Y-108973773D01*
X103055834Y-108993533D01*
X103043925Y-108996681D01*
X103035436Y-108981682D01*
X103026005Y-108949744D01*
X103031322Y-108928664D01*
X103055863Y-108922473D01*
X103062048Y-108922562D01*
G37*
G36*
X111426948Y-123735844D02*
G01*
X111460914Y-123752955D01*
X111468942Y-123766471D01*
X111474639Y-123791236D01*
X111477381Y-123828819D01*
X111477062Y-123881288D01*
X111473577Y-123950712D01*
X111466819Y-124039160D01*
X111456683Y-124148701D01*
X111443064Y-124281404D01*
X111425856Y-124439338D01*
X111402651Y-124661747D01*
X111383220Y-124884765D01*
X111369764Y-125091720D01*
X111361994Y-125288206D01*
X111359623Y-125479817D01*
X111362363Y-125672147D01*
X111362442Y-125675116D01*
X111379591Y-126051403D01*
X111410992Y-126420891D01*
X111457521Y-126790545D01*
X111520053Y-127167331D01*
X111599464Y-127558215D01*
X111609195Y-127603218D01*
X111623007Y-127670532D01*
X111633275Y-127725109D01*
X111639134Y-127762244D01*
X111639717Y-127777230D01*
X111628712Y-127781935D01*
X111595073Y-127793788D01*
X111543202Y-127811098D01*
X111477467Y-127832412D01*
X111402231Y-127856276D01*
X111338960Y-127875908D01*
X111268503Y-127897181D01*
X111209958Y-127914204D01*
X111168102Y-127925593D01*
X111147708Y-127929967D01*
X111145993Y-127930026D01*
X111136787Y-127928523D01*
X111128564Y-127921614D01*
X111120418Y-127906209D01*
X111111444Y-127879221D01*
X111100738Y-127837563D01*
X111087394Y-127778144D01*
X111070509Y-127697878D01*
X111049177Y-127593677D01*
X110992358Y-127293830D01*
X110909691Y-126743530D01*
X110854180Y-126189967D01*
X110825869Y-125634286D01*
X110824806Y-125077629D01*
X110851035Y-124521141D01*
X110904603Y-123965966D01*
X110920260Y-123836953D01*
X110993006Y-123804782D01*
X111057479Y-123779781D01*
X111140335Y-123755684D01*
X111224006Y-123738655D01*
X111303197Y-123729280D01*
X111372610Y-123728148D01*
X111426948Y-123735844D01*
G37*
G36*
X99965805Y-111518948D02*
G01*
X99958918Y-111525835D01*
X99952030Y-111518948D01*
X99958918Y-111512061D01*
X99965805Y-111518948D01*
G37*
G36*
X116412443Y-119494327D02*
G01*
X116405555Y-119501215D01*
X116398668Y-119494327D01*
X116405555Y-119487440D01*
X116412443Y-119494327D01*
G37*
G36*
X102624265Y-107028492D02*
G01*
X102617378Y-107035380D01*
X102610490Y-107028492D01*
X102617378Y-107021605D01*
X102624265Y-107028492D01*
G37*
G36*
X101602215Y-117667422D02*
G01*
X101604959Y-117705951D01*
X101604552Y-117720023D01*
X101597752Y-117744985D01*
X101579823Y-117751865D01*
X101564912Y-117753373D01*
X101519557Y-117764649D01*
X101458485Y-117785096D01*
X101387592Y-117812503D01*
X101312777Y-117844657D01*
X101239937Y-117879347D01*
X101170381Y-117916101D01*
X101064560Y-117978285D01*
X100950342Y-118052783D01*
X100824068Y-118142014D01*
X100682074Y-118248403D01*
X100608873Y-118305697D01*
X100480296Y-118414081D01*
X100375680Y-118514459D01*
X100293898Y-118608195D01*
X100233822Y-118696657D01*
X100194325Y-118781208D01*
X100174278Y-118863214D01*
X100165534Y-118929577D01*
X100161469Y-118844869D01*
X100165232Y-118750240D01*
X100189485Y-118630615D01*
X100232655Y-118510883D01*
X100291999Y-118398392D01*
X100364772Y-118300490D01*
X100373655Y-118290668D01*
X100432789Y-118232115D01*
X100500610Y-118176857D01*
X100580108Y-118123163D01*
X100674272Y-118069304D01*
X100786090Y-118013547D01*
X100918551Y-117954162D01*
X101074644Y-117889419D01*
X101144491Y-117861090D01*
X101256578Y-117814374D01*
X101348268Y-117774120D01*
X101423215Y-117738636D01*
X101485077Y-117706229D01*
X101537508Y-117675209D01*
X101566435Y-117658427D01*
X101590910Y-117652281D01*
X101602215Y-117667422D01*
G37*
G36*
X116398668Y-119521876D02*
G01*
X116391781Y-119528763D01*
X116384894Y-119521876D01*
X116391781Y-119514989D01*
X116398668Y-119521876D01*
G37*
G36*
X102509478Y-107053745D02*
G01*
X102511633Y-107057888D01*
X102500295Y-107062928D01*
X102493003Y-107061934D01*
X102491112Y-107053745D01*
X102493131Y-107052097D01*
X102509478Y-107053745D01*
G37*
G36*
X101601650Y-121833160D02*
G01*
X101616601Y-121854897D01*
X101637521Y-121889119D01*
X101647448Y-121905311D01*
X101677468Y-121950816D01*
X101715489Y-122005563D01*
X101755648Y-122061020D01*
X101838595Y-122172890D01*
X101764141Y-122136375D01*
X101730071Y-122118747D01*
X101701537Y-122098319D01*
X101685364Y-122073766D01*
X101674040Y-122036790D01*
X101667056Y-122011997D01*
X101647687Y-121955568D01*
X101625550Y-121901404D01*
X101611655Y-121869729D01*
X101600085Y-121840404D01*
X101597525Y-121829089D01*
X101601650Y-121833160D01*
G37*
G36*
X104709435Y-124670567D02*
G01*
X104730408Y-124674735D01*
X104816891Y-124705280D01*
X104907414Y-124755549D01*
X104996076Y-124821312D01*
X105076977Y-124898336D01*
X105144217Y-124982391D01*
X105149966Y-124990919D01*
X105204959Y-125078869D01*
X105254270Y-125171013D01*
X105298476Y-125269685D01*
X105338154Y-125377222D01*
X105373881Y-125495959D01*
X105406235Y-125628232D01*
X105435792Y-125776375D01*
X105463129Y-125942725D01*
X105488824Y-126129618D01*
X105513454Y-126339388D01*
X105537595Y-126574371D01*
X105540561Y-126604746D01*
X105570844Y-126895054D01*
X105603892Y-127178745D01*
X105639208Y-127452331D01*
X105676298Y-127712324D01*
X105714667Y-127955235D01*
X105753819Y-128177575D01*
X105793260Y-128375855D01*
X105798187Y-128399106D01*
X105812149Y-128466345D01*
X105823422Y-128522661D01*
X105830956Y-128562721D01*
X105833701Y-128581191D01*
X105821324Y-128586301D01*
X105786821Y-128589427D01*
X105735608Y-128590657D01*
X105673105Y-128590199D01*
X105604733Y-128588255D01*
X105535913Y-128585033D01*
X105472064Y-128580735D01*
X105418607Y-128575568D01*
X105380963Y-128569737D01*
X105364552Y-128563446D01*
X105357546Y-128543457D01*
X105346355Y-128499710D01*
X105331936Y-128436287D01*
X105315058Y-128356989D01*
X105296494Y-128265617D01*
X105277015Y-128165971D01*
X105257393Y-128061851D01*
X105238399Y-127957057D01*
X105220804Y-127855390D01*
X105213400Y-127811040D01*
X105183717Y-127623918D01*
X105158106Y-127444497D01*
X105135928Y-127266902D01*
X105116546Y-127085259D01*
X105099319Y-126893692D01*
X105083609Y-126686327D01*
X105068777Y-126457288D01*
X105059476Y-126314034D01*
X105040756Y-126079182D01*
X105018732Y-125867283D01*
X104992810Y-125675463D01*
X104962391Y-125500845D01*
X104926881Y-125340554D01*
X104885682Y-125191716D01*
X104838198Y-125051453D01*
X104783833Y-124916892D01*
X104721990Y-124785155D01*
X104660604Y-124662643D01*
X104709435Y-124670567D01*
G37*
G36*
X116453766Y-119411681D02*
G01*
X116446879Y-119418568D01*
X116439991Y-119411681D01*
X116446879Y-119404794D01*
X116453766Y-119411681D01*
G37*
G36*
X116481315Y-119342809D02*
G01*
X116474427Y-119349696D01*
X116467540Y-119342809D01*
X116474427Y-119335922D01*
X116481315Y-119342809D01*
G37*
G36*
X100413368Y-115327601D02*
G01*
X100439092Y-115338111D01*
X100439168Y-115340656D01*
X100423361Y-115353101D01*
X100389552Y-115372502D01*
X100342672Y-115395905D01*
X100296266Y-115418228D01*
X100161169Y-115487078D01*
X100012609Y-115567541D01*
X99856795Y-115656042D01*
X99699939Y-115749005D01*
X99548251Y-115842855D01*
X99407942Y-115934017D01*
X99272132Y-116027185D01*
X99041417Y-116196754D01*
X98822514Y-116372096D01*
X98617855Y-116550942D01*
X98429874Y-116731023D01*
X98261003Y-116910070D01*
X98113676Y-117085814D01*
X97990326Y-117255987D01*
X97947570Y-117322781D01*
X97854880Y-117485374D01*
X97774250Y-117652384D01*
X97708930Y-117816727D01*
X97662169Y-117971321D01*
X97649857Y-118033875D01*
X97638005Y-118139082D01*
X97632759Y-118255603D01*
X97634193Y-118374376D01*
X97642376Y-118486340D01*
X97657379Y-118582432D01*
X97689048Y-118707127D01*
X97761270Y-118914970D01*
X97858825Y-119128893D01*
X97981104Y-119347617D01*
X98127500Y-119569864D01*
X98164649Y-119623398D01*
X98188218Y-119660120D01*
X98194906Y-119675309D01*
X98184800Y-119669023D01*
X98157987Y-119641317D01*
X98114551Y-119592250D01*
X98054580Y-119521876D01*
X97982527Y-119433541D01*
X97829423Y-119223673D01*
X97699701Y-119011922D01*
X97593927Y-118799676D01*
X97512669Y-118588321D01*
X97456493Y-118379247D01*
X97425968Y-118173841D01*
X97421660Y-117973490D01*
X97424336Y-117926615D01*
X97440715Y-117779341D01*
X97470098Y-117635915D01*
X97514151Y-117490555D01*
X97574541Y-117337474D01*
X97652935Y-117170890D01*
X97655632Y-117165521D01*
X97686891Y-117104481D01*
X97717272Y-117048011D01*
X97749184Y-116992252D01*
X97785034Y-116933345D01*
X97827230Y-116867432D01*
X97878180Y-116790653D01*
X97940292Y-116699149D01*
X98015973Y-116589062D01*
X98195794Y-116328482D01*
X98203691Y-116386516D01*
X98208847Y-116413291D01*
X98232648Y-116463260D01*
X98274690Y-116494256D01*
X98337735Y-116508798D01*
X98406215Y-116515378D01*
X98523668Y-116410879D01*
X98623816Y-116323566D01*
X98804490Y-116175713D01*
X98987389Y-116039293D01*
X99177487Y-115911025D01*
X99379760Y-115787629D01*
X99599181Y-115665824D01*
X99840724Y-115542331D01*
X99951183Y-115488304D01*
X100064387Y-115434461D01*
X100157830Y-115392290D01*
X100233931Y-115360966D01*
X100295115Y-115339661D01*
X100343801Y-115327550D01*
X100382411Y-115323805D01*
X100413368Y-115327601D01*
G37*
G36*
X101815016Y-117214918D02*
G01*
X101837751Y-117241656D01*
X101867282Y-117279727D01*
X102064003Y-117524223D01*
X102291553Y-117771973D01*
X102545295Y-118017085D01*
X102824562Y-118258982D01*
X103128690Y-118497090D01*
X103457012Y-118730832D01*
X103808863Y-118959632D01*
X103948366Y-119045374D01*
X104286674Y-119243799D01*
X104611201Y-119419977D01*
X104923068Y-119574354D01*
X105223399Y-119707379D01*
X105513316Y-119819497D01*
X105793941Y-119911157D01*
X106066397Y-119982805D01*
X106331807Y-120034888D01*
X106591293Y-120067854D01*
X106620060Y-120070509D01*
X106679626Y-120076535D01*
X106727890Y-120083176D01*
X106770961Y-120092124D01*
X106814950Y-120105072D01*
X106865966Y-120123712D01*
X106930119Y-120149738D01*
X107013518Y-120184843D01*
X107022257Y-120188537D01*
X107276499Y-120294083D01*
X107510405Y-120387314D01*
X107723255Y-120467965D01*
X107914329Y-120535771D01*
X108082907Y-120590467D01*
X108228270Y-120631789D01*
X108260470Y-120639834D01*
X108325477Y-120653983D01*
X108393677Y-120665535D01*
X108471156Y-120675317D01*
X108564001Y-120684153D01*
X108678298Y-120692870D01*
X108694965Y-120694056D01*
X108854698Y-120707246D01*
X108991476Y-120722535D01*
X109109470Y-120740803D01*
X109212852Y-120762928D01*
X109305792Y-120789791D01*
X109392461Y-120822269D01*
X109477030Y-120861244D01*
X109565476Y-120910208D01*
X109714296Y-121016373D01*
X109847232Y-121143308D01*
X109962280Y-121288670D01*
X110057436Y-121450115D01*
X110130692Y-121625299D01*
X110163463Y-121736143D01*
X110189301Y-121874279D01*
X110197457Y-122013659D01*
X110187632Y-122157991D01*
X110159528Y-122310981D01*
X110112843Y-122476335D01*
X110047280Y-122657759D01*
X110011116Y-122743565D01*
X109969899Y-122831321D01*
X109926782Y-122915034D01*
X109884692Y-122989280D01*
X109846555Y-123048633D01*
X109815300Y-123087667D01*
X109811060Y-123091176D01*
X109781087Y-123105537D01*
X109727341Y-123122719D01*
X109648654Y-123143064D01*
X109543856Y-123166914D01*
X109340088Y-123209874D01*
X108975498Y-123280366D01*
X108607727Y-123343713D01*
X108242433Y-123399081D01*
X107885278Y-123445638D01*
X107541923Y-123482551D01*
X107218028Y-123508989D01*
X107176127Y-123511821D01*
X107098400Y-123517202D01*
X107029388Y-123522138D01*
X106975349Y-123526178D01*
X106942540Y-123528868D01*
X106941754Y-123528938D01*
X106912383Y-123530144D01*
X106859854Y-123530998D01*
X106788347Y-123531481D01*
X106702042Y-123531580D01*
X106605120Y-123531277D01*
X106501759Y-123530557D01*
X106401306Y-123529516D01*
X106301427Y-123527893D01*
X106220018Y-123525557D01*
X106152117Y-123522177D01*
X106092761Y-123517423D01*
X106036989Y-123510967D01*
X105979838Y-123502476D01*
X105916347Y-123491622D01*
X105688077Y-123444048D01*
X105455088Y-123378256D01*
X105230490Y-123295220D01*
X105005675Y-123192109D01*
X104816084Y-123092616D01*
X104477132Y-122891590D01*
X104145250Y-122664677D01*
X103821068Y-122412510D01*
X103505215Y-122135722D01*
X103198321Y-121834944D01*
X102901015Y-121510808D01*
X102613926Y-121163946D01*
X102337684Y-120794991D01*
X102072918Y-120404575D01*
X101820258Y-119993328D01*
X101818102Y-119989638D01*
X101736619Y-119847465D01*
X101669359Y-119723368D01*
X101614605Y-119613087D01*
X101570640Y-119512360D01*
X101535747Y-119416927D01*
X101508210Y-119322527D01*
X101486313Y-119224898D01*
X101468338Y-119119780D01*
X101456466Y-119003751D01*
X101460069Y-118852825D01*
X101487066Y-118715258D01*
X101537359Y-118591802D01*
X101537383Y-118591758D01*
X101565807Y-118545578D01*
X101600098Y-118500334D01*
X101636524Y-118459544D01*
X101671352Y-118426724D01*
X101700851Y-118405393D01*
X101721287Y-118399067D01*
X101728929Y-118411265D01*
X101728949Y-118411853D01*
X101730947Y-118431390D01*
X101735831Y-118473384D01*
X101743074Y-118533443D01*
X101752147Y-118607178D01*
X101762520Y-118690196D01*
X101771036Y-118759901D01*
X101783233Y-118865975D01*
X101794724Y-118972515D01*
X101804519Y-119070264D01*
X101811630Y-119149967D01*
X101817079Y-119214867D01*
X101823108Y-119273882D01*
X101829416Y-119314568D01*
X101837100Y-119341984D01*
X101847262Y-119361190D01*
X101860998Y-119377245D01*
X101863160Y-119379366D01*
X101906649Y-119404127D01*
X101961299Y-119413431D01*
X102016063Y-119406893D01*
X102059893Y-119384132D01*
X102063864Y-119380529D01*
X102074812Y-119368512D01*
X102081946Y-119353347D01*
X102085760Y-119330162D01*
X102086748Y-119294081D01*
X102085402Y-119240233D01*
X102082217Y-119163742D01*
X102072815Y-119011683D01*
X102056717Y-118836644D01*
X102033901Y-118640377D01*
X102004224Y-118421824D01*
X101967542Y-118179924D01*
X101923710Y-117913617D01*
X101872584Y-117621844D01*
X101865020Y-117579621D01*
X101847411Y-117479998D01*
X101831974Y-117390787D01*
X101819265Y-117315323D01*
X101809840Y-117256946D01*
X101804256Y-117218994D01*
X101803069Y-117204803D01*
X101803499Y-117204669D01*
X101815016Y-117214918D01*
G37*
G36*
X116495089Y-119315260D02*
G01*
X116488202Y-119322147D01*
X116481315Y-119315260D01*
X116488202Y-119308373D01*
X116495089Y-119315260D01*
G37*
G36*
X98903240Y-109395710D02*
G01*
X98908903Y-109400616D01*
X98985938Y-109476037D01*
X99069984Y-109572521D01*
X99158066Y-109685875D01*
X99247209Y-109811907D01*
X99334437Y-109946425D01*
X99416775Y-110085238D01*
X99491248Y-110224154D01*
X99506416Y-110254672D01*
X99578297Y-110414385D01*
X99640934Y-110578871D01*
X99691326Y-110739660D01*
X99726473Y-110888280D01*
X99736449Y-110942514D01*
X99742498Y-110983807D01*
X99743045Y-111009756D01*
X99738145Y-111026531D01*
X99727855Y-111040303D01*
X99708826Y-111065978D01*
X99682797Y-111126651D01*
X99666978Y-111207256D01*
X99661333Y-111308940D01*
X99665824Y-111432847D01*
X99680416Y-111580122D01*
X99705072Y-111751911D01*
X99722850Y-111869379D01*
X99734537Y-111963754D01*
X99739676Y-112032362D01*
X99738315Y-112075694D01*
X99736209Y-112089401D01*
X99730891Y-112113765D01*
X99723622Y-112121070D01*
X99711804Y-112109424D01*
X99692835Y-112076936D01*
X99664117Y-112021714D01*
X99654115Y-112001729D01*
X99619819Y-111922976D01*
X99592530Y-111839688D01*
X99570853Y-111746121D01*
X99553396Y-111636531D01*
X99538764Y-111505173D01*
X99529312Y-111413530D01*
X99516653Y-111316321D01*
X99501092Y-111227887D01*
X99481214Y-111144184D01*
X99455601Y-111061167D01*
X99422838Y-110974790D01*
X99381507Y-110881007D01*
X99330192Y-110775774D01*
X99267476Y-110655045D01*
X99191942Y-110514774D01*
X99186799Y-110505320D01*
X99071536Y-110289622D01*
X98971222Y-110093844D01*
X98884758Y-109915645D01*
X98811044Y-109752684D01*
X98748978Y-109602622D01*
X98697461Y-109463118D01*
X98672495Y-109390803D01*
X98704964Y-109390803D01*
X98705597Y-109390796D01*
X98738125Y-109379338D01*
X98770974Y-109350943D01*
X98804513Y-109311083D01*
X98903240Y-109395710D01*
G37*
G36*
X114091867Y-107896280D02*
G01*
X114090768Y-107927562D01*
X114089402Y-107999435D01*
X114089899Y-108059112D01*
X114092162Y-108101490D01*
X114096095Y-108121467D01*
X114099699Y-108143159D01*
X114095293Y-108188289D01*
X114082629Y-108252324D01*
X114056271Y-108369807D01*
X114030397Y-108496595D01*
X114011127Y-108609518D01*
X113997614Y-108715458D01*
X113989009Y-108821299D01*
X113984466Y-108933924D01*
X113983135Y-109060217D01*
X113983121Y-109105963D01*
X113983262Y-109180572D01*
X113984142Y-109243021D01*
X113986373Y-109297641D01*
X113990568Y-109348765D01*
X113997341Y-109400726D01*
X114007304Y-109457855D01*
X114021071Y-109524484D01*
X114039255Y-109604946D01*
X114062468Y-109703573D01*
X114091325Y-109824696D01*
X114091590Y-109825810D01*
X114123218Y-109973711D01*
X114142739Y-110104027D01*
X114150609Y-110223645D01*
X114147283Y-110339447D01*
X114133216Y-110458319D01*
X114124610Y-110511114D01*
X114115095Y-110564916D01*
X114107396Y-110603494D01*
X114102646Y-110620837D01*
X114100415Y-110623372D01*
X114083895Y-110620601D01*
X114059307Y-110597045D01*
X114030153Y-110555843D01*
X114026264Y-110549437D01*
X114005136Y-110508800D01*
X113988760Y-110463788D01*
X113976611Y-110410547D01*
X113968167Y-110345222D01*
X113962904Y-110263959D01*
X113960298Y-110162903D01*
X113959825Y-110038199D01*
X113959916Y-109996363D01*
X113959590Y-109900069D01*
X113958022Y-109819555D01*
X113954683Y-109747660D01*
X113949048Y-109677221D01*
X113940590Y-109601075D01*
X113928780Y-109512060D01*
X113913094Y-109403013D01*
X113900475Y-109316645D01*
X113882641Y-109192827D01*
X113868366Y-109090196D01*
X113857260Y-109004980D01*
X113848937Y-108933407D01*
X113843009Y-108871706D01*
X113839087Y-108816105D01*
X113836784Y-108762831D01*
X113835712Y-108708115D01*
X113835484Y-108648182D01*
X113835484Y-108647421D01*
X113842191Y-108472635D01*
X113863070Y-108311679D01*
X113899965Y-108156802D01*
X113954719Y-108000257D01*
X114029177Y-107834295D01*
X114100073Y-107689664D01*
X114091867Y-107896280D01*
G37*
G36*
X116522638Y-119239501D02*
G01*
X116521644Y-119246793D01*
X116513455Y-119248684D01*
X116511806Y-119246665D01*
X116513455Y-119230318D01*
X116517598Y-119228163D01*
X116522638Y-119239501D01*
G37*
G36*
X116467540Y-119370358D02*
G01*
X116460653Y-119377245D01*
X116453766Y-119370358D01*
X116460653Y-119363471D01*
X116467540Y-119370358D01*
G37*
G36*
X94931975Y-121504194D02*
G01*
X94944746Y-121527380D01*
X94965784Y-121566429D01*
X94991977Y-121615586D01*
X95000184Y-121630933D01*
X95120952Y-121834371D01*
X95266986Y-122043976D01*
X95437145Y-122258459D01*
X95630290Y-122476527D01*
X95845282Y-122696889D01*
X96080981Y-122918254D01*
X96336250Y-123139331D01*
X96502250Y-123275464D01*
X96692480Y-123425031D01*
X96868934Y-123555716D01*
X97033761Y-123668765D01*
X97189106Y-123765425D01*
X97337118Y-123846941D01*
X97479941Y-123914561D01*
X97619724Y-123969531D01*
X97758612Y-124013097D01*
X97898754Y-124046505D01*
X97925688Y-124051804D01*
X97995499Y-124063876D01*
X98070520Y-124074285D01*
X98153941Y-124083271D01*
X98248955Y-124091077D01*
X98358751Y-124097942D01*
X98486523Y-124104109D01*
X98635460Y-124109818D01*
X98808755Y-124115312D01*
X98913108Y-124118574D01*
X99056598Y-124124067D01*
X99179649Y-124130433D01*
X99286598Y-124138129D01*
X99381782Y-124147613D01*
X99469541Y-124159342D01*
X99554212Y-124173772D01*
X99640132Y-124191361D01*
X99731640Y-124212567D01*
X99807291Y-124231316D01*
X99890526Y-124253112D01*
X99975465Y-124276746D01*
X100064288Y-124302957D01*
X100159175Y-124332483D01*
X100262308Y-124366060D01*
X100375865Y-124404428D01*
X100502028Y-124448324D01*
X100642976Y-124498485D01*
X100800890Y-124555650D01*
X100977951Y-124620557D01*
X101176339Y-124693942D01*
X101398233Y-124776545D01*
X101568880Y-124840038D01*
X101750816Y-124907181D01*
X101912636Y-124966165D01*
X102057344Y-125018028D01*
X102187944Y-125063804D01*
X102307440Y-125104532D01*
X102418836Y-125141248D01*
X102525135Y-125174988D01*
X102629342Y-125206789D01*
X102734460Y-125237688D01*
X103033654Y-125318714D01*
X103378397Y-125397341D01*
X103705607Y-125455093D01*
X104015479Y-125492008D01*
X104038792Y-125494147D01*
X104099581Y-125500197D01*
X104173201Y-125507973D01*
X104255181Y-125516954D01*
X104341053Y-125526624D01*
X104426348Y-125536463D01*
X104506598Y-125545952D01*
X104577332Y-125554572D01*
X104634081Y-125561806D01*
X104672378Y-125567134D01*
X104687753Y-125570037D01*
X104690439Y-125578341D01*
X104697262Y-125608903D01*
X104706734Y-125656500D01*
X104717674Y-125715390D01*
X104726284Y-125766833D01*
X104743151Y-125889057D01*
X104759813Y-126038439D01*
X104776245Y-126214718D01*
X104792422Y-126417634D01*
X104808319Y-126646929D01*
X104811099Y-126689038D01*
X104818482Y-126795600D01*
X104826235Y-126901169D01*
X104833850Y-126999118D01*
X104840817Y-127082821D01*
X104846629Y-127145652D01*
X104863221Y-127310103D01*
X104794041Y-127317015D01*
X104756388Y-127320630D01*
X104697018Y-127326118D01*
X104626327Y-127332512D01*
X104552681Y-127339047D01*
X104273158Y-127370970D01*
X103955149Y-127423305D01*
X103632956Y-127491973D01*
X103314124Y-127575171D01*
X103006198Y-127671093D01*
X102716723Y-127777938D01*
X102656645Y-127803300D01*
X102567027Y-127844989D01*
X102478969Y-127889971D01*
X102397272Y-127935530D01*
X102326735Y-127978952D01*
X102272156Y-128017523D01*
X102238337Y-128048527D01*
X102236216Y-128051041D01*
X102225409Y-128061132D01*
X102211286Y-128066216D01*
X102189203Y-128065816D01*
X102154515Y-128059453D01*
X102102580Y-128046649D01*
X102028752Y-128026923D01*
X101397090Y-127842879D01*
X100752659Y-127627156D01*
X100118945Y-127386284D01*
X99496582Y-127120631D01*
X98886204Y-126830564D01*
X98288445Y-126516450D01*
X97703939Y-126178655D01*
X97133321Y-125817548D01*
X96577225Y-125433495D01*
X96036285Y-125026863D01*
X95511135Y-124598019D01*
X95002409Y-124147331D01*
X94510742Y-123675165D01*
X94447406Y-123611550D01*
X94339667Y-123501973D01*
X94236513Y-123395398D01*
X94139608Y-123293648D01*
X94050613Y-123198547D01*
X93971192Y-123111917D01*
X93903007Y-123035581D01*
X93847723Y-122971362D01*
X93807000Y-122921082D01*
X93782503Y-122886566D01*
X93775895Y-122869634D01*
X93776601Y-122866742D01*
X93776201Y-122839707D01*
X93770659Y-122795611D01*
X93760914Y-122742432D01*
X93752039Y-122695129D01*
X93737377Y-122580054D01*
X93730626Y-122462117D01*
X93732154Y-122350950D01*
X93742329Y-122256185D01*
X93760436Y-122152966D01*
X93939503Y-122038863D01*
X93942888Y-122036708D01*
X94026869Y-121984227D01*
X94122851Y-121925720D01*
X94219261Y-121868169D01*
X94304525Y-121818561D01*
X94314250Y-121813028D01*
X94379413Y-121776775D01*
X94453649Y-121736604D01*
X94533255Y-121694400D01*
X94614526Y-121652048D01*
X94693758Y-121611433D01*
X94767248Y-121574441D01*
X94831291Y-121542956D01*
X94882184Y-121518863D01*
X94916221Y-121504048D01*
X94929699Y-121500396D01*
X94931975Y-121504194D01*
G37*
G36*
X110558385Y-125421970D02*
G01*
X110559415Y-125587669D01*
X110571974Y-126010667D01*
X110599449Y-126421129D01*
X110642652Y-126827247D01*
X110702390Y-127237215D01*
X110779475Y-127659226D01*
X110794914Y-127736718D01*
X110811945Y-127822689D01*
X110826451Y-127896450D01*
X110837709Y-127954301D01*
X110844994Y-127992542D01*
X110847584Y-128007473D01*
X110840395Y-128014781D01*
X110816591Y-128026338D01*
X110795652Y-128031122D01*
X110775629Y-128020876D01*
X110773400Y-128018600D01*
X110759012Y-128013775D01*
X110730127Y-128010443D01*
X110684138Y-128008529D01*
X110618440Y-128007958D01*
X110530428Y-128008654D01*
X110417495Y-128010543D01*
X110309974Y-128012116D01*
X110156203Y-128012269D01*
X110006049Y-128009566D01*
X109857183Y-128003696D01*
X109707274Y-127994350D01*
X109553991Y-127981219D01*
X109395005Y-127963994D01*
X109227985Y-127942366D01*
X109050601Y-127916025D01*
X108860522Y-127884662D01*
X108655418Y-127847968D01*
X108432959Y-127805633D01*
X108190815Y-127757349D01*
X107926654Y-127702806D01*
X107638148Y-127641694D01*
X107480731Y-127608246D01*
X107235232Y-127557205D01*
X107011956Y-127512375D01*
X106808128Y-127473259D01*
X106620973Y-127439364D01*
X106447718Y-127410192D01*
X106285588Y-127385247D01*
X106131808Y-127364036D01*
X105983604Y-127346061D01*
X105906229Y-127337325D01*
X105897615Y-127265772D01*
X105897571Y-127265405D01*
X105894238Y-127236877D01*
X105888159Y-127184057D01*
X105879678Y-127109953D01*
X105869138Y-127017575D01*
X105856881Y-126909931D01*
X105843251Y-126790029D01*
X105828591Y-126660879D01*
X105813242Y-126525489D01*
X105812713Y-126520820D01*
X105797329Y-126385915D01*
X105782515Y-126257616D01*
X105768628Y-126138892D01*
X105756023Y-126032709D01*
X105745055Y-125942035D01*
X105736078Y-125869837D01*
X105729450Y-125819083D01*
X105725524Y-125792741D01*
X105724861Y-125789171D01*
X105719910Y-125753370D01*
X105724201Y-125731108D01*
X105742308Y-125719163D01*
X105778806Y-125714314D01*
X105838271Y-125713338D01*
X105906205Y-125711523D01*
X106028845Y-125702449D01*
X106170212Y-125686410D01*
X106325726Y-125664141D01*
X106490807Y-125636375D01*
X106660872Y-125603847D01*
X106831343Y-125567292D01*
X106997638Y-125527443D01*
X107009142Y-125524517D01*
X107109749Y-125498240D01*
X107213495Y-125470052D01*
X107316657Y-125441068D01*
X107415511Y-125412401D01*
X107506336Y-125385166D01*
X107585409Y-125360476D01*
X107649005Y-125339446D01*
X107693404Y-125323189D01*
X107714881Y-125312820D01*
X107719559Y-125311518D01*
X107748277Y-125309564D01*
X107799800Y-125308757D01*
X107870903Y-125309071D01*
X107958359Y-125310480D01*
X108058945Y-125312958D01*
X108169436Y-125316480D01*
X108348310Y-125321464D01*
X108718391Y-125322607D01*
X109065691Y-125310608D01*
X109389955Y-125285496D01*
X109690929Y-125247300D01*
X109968358Y-125196050D01*
X110221990Y-125131774D01*
X110451570Y-125054503D01*
X110558321Y-125013386D01*
X110558385Y-125421970D01*
G37*
G36*
X101563185Y-121766118D02*
G01*
X101577410Y-121787766D01*
X101585173Y-121805191D01*
X101585267Y-121815314D01*
X101577861Y-121809413D01*
X101563636Y-121787766D01*
X101555873Y-121770340D01*
X101555779Y-121760217D01*
X101563185Y-121766118D01*
G37*
G36*
X98116615Y-115934818D02*
G01*
X98099588Y-115961027D01*
X98069912Y-116005365D01*
X98029420Y-116065132D01*
X97979942Y-116137628D01*
X97923311Y-116220154D01*
X97861359Y-116310010D01*
X97828400Y-116357765D01*
X97764130Y-116451222D01*
X97703531Y-116539761D01*
X97649010Y-116619838D01*
X97602977Y-116687912D01*
X97567838Y-116740441D01*
X97546003Y-116773883D01*
X97480381Y-116881495D01*
X97358975Y-117107927D01*
X97263009Y-117329593D01*
X97193051Y-117545249D01*
X97183261Y-117582257D01*
X97171577Y-117629682D01*
X97163054Y-117672153D01*
X97157176Y-117715088D01*
X97153429Y-117763904D01*
X97151295Y-117824017D01*
X97150262Y-117900845D01*
X97149812Y-117999805D01*
X97149803Y-118071425D01*
X97150841Y-118168472D01*
X97153428Y-118246124D01*
X97157853Y-118309414D01*
X97164402Y-118363374D01*
X97173362Y-118413037D01*
X97207063Y-118552248D01*
X97284250Y-118786872D01*
X97386224Y-119021302D01*
X97511490Y-119252600D01*
X97658552Y-119477831D01*
X97825913Y-119694056D01*
X97985705Y-119875497D01*
X98193892Y-120091397D01*
X98422717Y-120309357D01*
X98669011Y-120526489D01*
X98929604Y-120739907D01*
X99201325Y-120946723D01*
X99230024Y-120967653D01*
X99416056Y-121098735D01*
X99623456Y-121237842D01*
X99848709Y-121382859D01*
X100088299Y-121531665D01*
X100338712Y-121682144D01*
X100596430Y-121832176D01*
X100857940Y-121979644D01*
X101119724Y-122122429D01*
X101378269Y-122258414D01*
X101420583Y-122280209D01*
X101553635Y-122348381D01*
X101682013Y-122413519D01*
X101807857Y-122476627D01*
X101933304Y-122538707D01*
X102060492Y-122600761D01*
X102191558Y-122663794D01*
X102328640Y-122728806D01*
X102473875Y-122796802D01*
X102629403Y-122868783D01*
X102797359Y-122945753D01*
X102979882Y-123028715D01*
X103179110Y-123118670D01*
X103397180Y-123216622D01*
X103636230Y-123323573D01*
X103898397Y-123440526D01*
X104076010Y-123519718D01*
X104308871Y-123623733D01*
X104520279Y-123718443D01*
X104712454Y-123804875D01*
X104887615Y-123884059D01*
X105047983Y-123957024D01*
X105195777Y-124024799D01*
X105333216Y-124088413D01*
X105462521Y-124148894D01*
X105585912Y-124207271D01*
X105705607Y-124264575D01*
X105823828Y-124321832D01*
X105942793Y-124380073D01*
X106064722Y-124440327D01*
X106191835Y-124503622D01*
X106200057Y-124507731D01*
X106327927Y-124572127D01*
X106459427Y-124639199D01*
X106591731Y-124707440D01*
X106722015Y-124775348D01*
X106847454Y-124841419D01*
X106965225Y-124904148D01*
X107072500Y-124962031D01*
X107166457Y-125013566D01*
X107244271Y-125057246D01*
X107303116Y-125091570D01*
X107340168Y-125115032D01*
X107347257Y-125120741D01*
X107349758Y-125129429D01*
X107336995Y-125138771D01*
X107305207Y-125151008D01*
X107250634Y-125168379D01*
X107173430Y-125191129D01*
X107061828Y-125221799D01*
X106937950Y-125254003D01*
X106809521Y-125285834D01*
X106684269Y-125315384D01*
X106569923Y-125340747D01*
X106474211Y-125360015D01*
X106448248Y-125364775D01*
X106375659Y-125376935D01*
X106325637Y-125382956D01*
X106294935Y-125383134D01*
X106280305Y-125377766D01*
X106280096Y-125377546D01*
X106266101Y-125361855D01*
X106237310Y-125328973D01*
X106196800Y-125282431D01*
X106147643Y-125225761D01*
X106092914Y-125162494D01*
X106046997Y-125109817D01*
X105924091Y-124974632D01*
X105810457Y-124860093D01*
X105702570Y-124763932D01*
X105596904Y-124683883D01*
X105489934Y-124617679D01*
X105378134Y-124563054D01*
X105257978Y-124517741D01*
X105125941Y-124479473D01*
X104978497Y-124445983D01*
X104944735Y-124438988D01*
X104874454Y-124423819D01*
X104809920Y-124409177D01*
X104761777Y-124397446D01*
X104756392Y-124396104D01*
X104700537Y-124386566D01*
X104631122Y-124380282D01*
X104554965Y-124377250D01*
X104478888Y-124377468D01*
X104409709Y-124380934D01*
X104354248Y-124387644D01*
X104319326Y-124397597D01*
X104318350Y-124398111D01*
X104283235Y-124430539D01*
X104258795Y-124479404D01*
X104250249Y-124534371D01*
X104254471Y-124567485D01*
X104274904Y-124624347D01*
X104313630Y-124692484D01*
X104372193Y-124774945D01*
X104419333Y-124841089D01*
X104478810Y-124940817D01*
X104532842Y-125053771D01*
X104585111Y-125187079D01*
X104621049Y-125286709D01*
X104569647Y-125279386D01*
X104403300Y-125255333D01*
X104227160Y-125228782D01*
X104069910Y-125203591D01*
X103926938Y-125178884D01*
X103793630Y-125153787D01*
X103665373Y-125127426D01*
X103537554Y-125098925D01*
X103405559Y-125067412D01*
X103264774Y-125032009D01*
X103032421Y-124970121D01*
X102771935Y-124894379D01*
X102521911Y-124813983D01*
X102277786Y-124727133D01*
X102034997Y-124632029D01*
X101788981Y-124526872D01*
X101535176Y-124409861D01*
X101269020Y-124279197D01*
X100985949Y-124133080D01*
X100950201Y-124114268D01*
X100839596Y-124056376D01*
X100727958Y-123998364D01*
X100620359Y-123942844D01*
X100521872Y-123892425D01*
X100437566Y-123849719D01*
X100372513Y-123817334D01*
X100166261Y-123716182D01*
X100262318Y-123716318D01*
X100269883Y-123716365D01*
X100324264Y-123717754D01*
X100396067Y-123720777D01*
X100476834Y-123725037D01*
X100558104Y-123730140D01*
X100716782Y-123742285D01*
X100964697Y-123767351D01*
X101190901Y-123798745D01*
X101398736Y-123837120D01*
X101591544Y-123883127D01*
X101772669Y-123937417D01*
X101945451Y-124000642D01*
X101993541Y-124019283D01*
X102068307Y-124044191D01*
X102125607Y-124055752D01*
X102169683Y-124054135D01*
X102204778Y-124039505D01*
X102235138Y-124012029D01*
X102256994Y-123974986D01*
X102267301Y-123921985D01*
X102259671Y-123869868D01*
X102234159Y-123828693D01*
X102224189Y-123820442D01*
X102177831Y-123792774D01*
X102109617Y-123761546D01*
X102023426Y-123728045D01*
X101923140Y-123693557D01*
X101812640Y-123659370D01*
X101695806Y-123626771D01*
X101576520Y-123597047D01*
X101458662Y-123571486D01*
X101406739Y-123561461D01*
X101323262Y-123546731D01*
X101236812Y-123533363D01*
X101144935Y-123521148D01*
X101045172Y-123509874D01*
X100935068Y-123499331D01*
X100812164Y-123489309D01*
X100674006Y-123479597D01*
X100518136Y-123469985D01*
X100342097Y-123460262D01*
X100143433Y-123450218D01*
X99919686Y-123439643D01*
X99577418Y-123423892D01*
X99448290Y-123362723D01*
X99432484Y-123355318D01*
X99331581Y-123312514D01*
X99232443Y-123279381D01*
X99130272Y-123255193D01*
X99020268Y-123239221D01*
X98897629Y-123230737D01*
X98757557Y-123229013D01*
X98595252Y-123233321D01*
X98552506Y-123234949D01*
X98496783Y-123235786D01*
X98453648Y-123232927D01*
X98413722Y-123224878D01*
X98367628Y-123210146D01*
X98305989Y-123187236D01*
X98299136Y-123184627D01*
X98176753Y-123134473D01*
X98049624Y-123076440D01*
X97925548Y-123014418D01*
X97812328Y-122952296D01*
X97717764Y-122893964D01*
X97706585Y-122886405D01*
X97649383Y-122845015D01*
X97584048Y-122793406D01*
X97509236Y-122730351D01*
X97423600Y-122654620D01*
X97325797Y-122564985D01*
X97214480Y-122460217D01*
X97088304Y-122339087D01*
X96945925Y-122200366D01*
X96785996Y-122042826D01*
X96660878Y-121918289D01*
X96544105Y-121800037D01*
X96441175Y-121693056D01*
X96348737Y-121593578D01*
X96263436Y-121497834D01*
X96181920Y-121402054D01*
X96100835Y-121302471D01*
X96016829Y-121195314D01*
X95926547Y-121076816D01*
X95897306Y-121037621D01*
X95819318Y-120929109D01*
X95747584Y-120823608D01*
X95685006Y-120725611D01*
X95634487Y-120639605D01*
X95598930Y-120570081D01*
X95592338Y-120555053D01*
X95570773Y-120500198D01*
X95549480Y-120438895D01*
X95530384Y-120377576D01*
X95515408Y-120322674D01*
X95506477Y-120280620D01*
X95505515Y-120257844D01*
X95515500Y-120257853D01*
X95543197Y-120274117D01*
X95585924Y-120305499D01*
X95641179Y-120349840D01*
X95706461Y-120404982D01*
X95779267Y-120468767D01*
X95857097Y-120539035D01*
X95937450Y-120613628D01*
X96017823Y-120690388D01*
X96095716Y-120767156D01*
X96138738Y-120810736D01*
X96218719Y-120893723D01*
X96297933Y-120978162D01*
X96371631Y-121058892D01*
X96435064Y-121130751D01*
X96483483Y-121188579D01*
X96487026Y-121193004D01*
X96529838Y-121247003D01*
X96570718Y-121299791D01*
X96612153Y-121354796D01*
X96656630Y-121415448D01*
X96706636Y-121485174D01*
X96764658Y-121567404D01*
X96833184Y-121665567D01*
X96914699Y-121783092D01*
X96946209Y-121827174D01*
X97010832Y-121910099D01*
X97076770Y-121986106D01*
X97140106Y-122051046D01*
X97196923Y-122100770D01*
X97243303Y-122131130D01*
X97255171Y-122136679D01*
X97293845Y-122150175D01*
X97334562Y-122154277D01*
X97389736Y-122150641D01*
X97437388Y-122144021D01*
X97485971Y-122128860D01*
X97513877Y-122103187D01*
X97525066Y-122062621D01*
X97523500Y-122002786D01*
X97507559Y-121907048D01*
X97474833Y-121791372D01*
X97428228Y-121668909D01*
X97370117Y-121546714D01*
X97363084Y-121533584D01*
X97327801Y-121471146D01*
X97279952Y-121390188D01*
X97221718Y-121294157D01*
X97155278Y-121186503D01*
X97082811Y-121070672D01*
X97006495Y-120950112D01*
X96928512Y-120828272D01*
X96851038Y-120708600D01*
X96776255Y-120594543D01*
X96706342Y-120489549D01*
X96643477Y-120397066D01*
X96579508Y-120304685D01*
X96503046Y-120195867D01*
X96429471Y-120093350D01*
X96355365Y-119992555D01*
X96277312Y-119888901D01*
X96191894Y-119777809D01*
X96095692Y-119654698D01*
X95985290Y-119514989D01*
X95939164Y-119456801D01*
X95848024Y-119341281D01*
X95772002Y-119243673D01*
X95709569Y-119161559D01*
X95659196Y-119092521D01*
X95619356Y-119034139D01*
X95588520Y-118983995D01*
X95565159Y-118939670D01*
X95547744Y-118898746D01*
X95534749Y-118858804D01*
X95524643Y-118817424D01*
X95515899Y-118772189D01*
X95511388Y-118740121D01*
X95512321Y-118627155D01*
X95536912Y-118506630D01*
X95584099Y-118381565D01*
X95652820Y-118254979D01*
X95742013Y-118129887D01*
X95784452Y-118078945D01*
X95849745Y-118008723D01*
X95919634Y-117944461D01*
X95998331Y-117882955D01*
X96090044Y-117821002D01*
X96198985Y-117755397D01*
X96329362Y-117682937D01*
X96340640Y-117676837D01*
X96481341Y-117598427D01*
X96600152Y-117526532D01*
X96700541Y-117457769D01*
X96785979Y-117388756D01*
X96859933Y-117316111D01*
X96925872Y-117236452D01*
X96987266Y-117146398D01*
X97047583Y-117042566D01*
X97110291Y-116921574D01*
X97135800Y-116870787D01*
X97210394Y-116728899D01*
X97280331Y-116608196D01*
X97348709Y-116504945D01*
X97418628Y-116415412D01*
X97493185Y-116335863D01*
X97575479Y-116262563D01*
X97668610Y-116191780D01*
X97775675Y-116119779D01*
X97809141Y-116098804D01*
X97863383Y-116066178D01*
X97922193Y-116031978D01*
X97980865Y-115998814D01*
X98034692Y-115969298D01*
X98078967Y-115946041D01*
X98108983Y-115931654D01*
X98120035Y-115928747D01*
X98116615Y-115934818D01*
G37*
G36*
X110386151Y-105907152D02*
G01*
X110430572Y-105912664D01*
X110492801Y-105921859D01*
X110568335Y-105933935D01*
X110652674Y-105948093D01*
X110741315Y-105963531D01*
X110829759Y-105979448D01*
X110913502Y-105995044D01*
X110988044Y-106009517D01*
X111048883Y-106022067D01*
X111091518Y-106031893D01*
X111111448Y-106038194D01*
X111115359Y-106046587D01*
X111113285Y-106071185D01*
X111112413Y-106074538D01*
X111108220Y-106086771D01*
X111100204Y-106094124D01*
X111083674Y-106096798D01*
X111053940Y-106094991D01*
X111006312Y-106088905D01*
X110936100Y-106078739D01*
X110885174Y-106071750D01*
X110800879Y-106061325D01*
X110710733Y-106051179D01*
X110627193Y-106042762D01*
X110563521Y-106035971D01*
X110504462Y-106027457D01*
X110465151Y-106018932D01*
X110449470Y-106011090D01*
X110445724Y-106004455D01*
X110426094Y-105980538D01*
X110396835Y-105950645D01*
X110381421Y-105934880D01*
X110366083Y-105914055D01*
X110367942Y-105905914D01*
X110386151Y-105907152D01*
G37*
G36*
X109780067Y-105880534D02*
G01*
X109697421Y-105905352D01*
X109694757Y-105906152D01*
X109643975Y-105921265D01*
X109613976Y-105928766D01*
X109599303Y-105928684D01*
X109594501Y-105921045D01*
X109594113Y-105905878D01*
X109594118Y-105904909D01*
X109597065Y-105890651D01*
X109609547Y-105882789D01*
X109637556Y-105879618D01*
X109687090Y-105879432D01*
X109780067Y-105880534D01*
G37*
G36*
X116508863Y-119273937D02*
G01*
X116501976Y-119280824D01*
X116495089Y-119273937D01*
X116501976Y-119267050D01*
X116508863Y-119273937D01*
G37*
G36*
X101536087Y-121712006D02*
G01*
X101529200Y-121718894D01*
X101522312Y-121712006D01*
X101529200Y-121705119D01*
X101536087Y-121712006D01*
G37*
G36*
X104534315Y-107274136D02*
G01*
X104536470Y-107278279D01*
X104525132Y-107283319D01*
X104517840Y-107282325D01*
X104515949Y-107274136D01*
X104517968Y-107272487D01*
X104534315Y-107274136D01*
G37*
G36*
X116381879Y-119544438D02*
G01*
X116372690Y-119565509D01*
X116352762Y-119605222D01*
X116323776Y-119660496D01*
X116287416Y-119728251D01*
X116245363Y-119805406D01*
X116199298Y-119888881D01*
X116150905Y-119975595D01*
X116101866Y-120062469D01*
X116053861Y-120146421D01*
X116008575Y-120224371D01*
X115998827Y-120240943D01*
X115901022Y-120403165D01*
X115796055Y-120570809D01*
X115690330Y-120733809D01*
X115590247Y-120882099D01*
X115582560Y-120893192D01*
X115544938Y-120946790D01*
X115513605Y-120990300D01*
X115491644Y-121019502D01*
X115482135Y-121030173D01*
X115482100Y-121030171D01*
X115487131Y-121019118D01*
X115504640Y-120989634D01*
X115531901Y-120946162D01*
X115566188Y-120893147D01*
X115574381Y-120880505D01*
X115608168Y-120826826D01*
X115652330Y-120755028D01*
X115704251Y-120669437D01*
X115761318Y-120574379D01*
X115820916Y-120474179D01*
X115880431Y-120373163D01*
X115903602Y-120333674D01*
X115969366Y-120222031D01*
X116035313Y-120110661D01*
X116099873Y-120002172D01*
X116161472Y-119899173D01*
X116218540Y-119804272D01*
X116269505Y-119720078D01*
X116312795Y-119649199D01*
X116346839Y-119594244D01*
X116370065Y-119557820D01*
X116380901Y-119542538D01*
X116381879Y-119544438D01*
G37*
G36*
X102445197Y-107069816D02*
G01*
X102438310Y-107076703D01*
X102431423Y-107069816D01*
X102438310Y-107062928D01*
X102445197Y-107069816D01*
G37*
G36*
X115111202Y-117441305D02*
G01*
X115142278Y-117454857D01*
X115184449Y-117475332D01*
X115232704Y-117497833D01*
X115300918Y-117523646D01*
X115379010Y-117546383D01*
X115471389Y-117567135D01*
X115582467Y-117586992D01*
X115716654Y-117607048D01*
X115763191Y-117613844D01*
X115857110Y-117629333D01*
X115944215Y-117645913D01*
X116017647Y-117662229D01*
X116070550Y-117676928D01*
X116164299Y-117714074D01*
X116292898Y-117788358D01*
X116403971Y-117883335D01*
X116496882Y-117998163D01*
X116570990Y-118132001D01*
X116625656Y-118284007D01*
X116660242Y-118453341D01*
X116660964Y-118458755D01*
X116667774Y-118593751D01*
X116655102Y-118744912D01*
X116622813Y-118913207D01*
X116570773Y-119099603D01*
X116563093Y-119123430D01*
X116547426Y-119169144D01*
X116535560Y-119199796D01*
X116529607Y-119209738D01*
X116529181Y-119207647D01*
X116531823Y-119185852D01*
X116539536Y-119146040D01*
X116551086Y-119094810D01*
X116551578Y-119092740D01*
X116577261Y-118959276D01*
X116594620Y-118815347D01*
X116603123Y-118669943D01*
X116602242Y-118532053D01*
X116591445Y-118410666D01*
X116582079Y-118355965D01*
X116557580Y-118264325D01*
X116521931Y-118184173D01*
X116472815Y-118113423D01*
X116407913Y-118049987D01*
X116324910Y-117991778D01*
X116221487Y-117936710D01*
X116095327Y-117882693D01*
X115944113Y-117827643D01*
X115845633Y-117795266D01*
X115734771Y-117761600D01*
X115626738Y-117731446D01*
X115526151Y-117705967D01*
X115437629Y-117686327D01*
X115365791Y-117673690D01*
X115315255Y-117669219D01*
X115299474Y-117669364D01*
X115260298Y-117673245D01*
X115233741Y-117685817D01*
X115208407Y-117711599D01*
X115193173Y-117733287D01*
X115181098Y-117761797D01*
X115174278Y-117797690D01*
X115172928Y-117843725D01*
X115177260Y-117902664D01*
X115187488Y-117977269D01*
X115203826Y-118070299D01*
X115226488Y-118184516D01*
X115255687Y-118322681D01*
X115259823Y-118341930D01*
X115280594Y-118440114D01*
X115298888Y-118529091D01*
X115314017Y-118605321D01*
X115325291Y-118665265D01*
X115332020Y-118705384D01*
X115333514Y-118722139D01*
X115332839Y-118723152D01*
X115323304Y-118714888D01*
X115305434Y-118686369D01*
X115281337Y-118641890D01*
X115253121Y-118585745D01*
X115222894Y-118522228D01*
X115192762Y-118455634D01*
X115164836Y-118390256D01*
X115141222Y-118330390D01*
X115117553Y-118263197D01*
X115071781Y-118094070D01*
X115048934Y-117929430D01*
X115048361Y-117762517D01*
X115069410Y-117586573D01*
X115077712Y-117539432D01*
X115087155Y-117487986D01*
X115094210Y-117452108D01*
X115097771Y-117437596D01*
X115097817Y-117437547D01*
X115111202Y-117441305D01*
G37*
G36*
X102564576Y-107039971D02*
G01*
X102566731Y-107044114D01*
X102555393Y-107049154D01*
X102548101Y-107048160D01*
X102546210Y-107039971D01*
X102548229Y-107038322D01*
X102564576Y-107039971D01*
G37*
G36*
X103387847Y-108770613D02*
G01*
X103406965Y-108780155D01*
X103420544Y-108799220D01*
X103418602Y-108830046D01*
X103401920Y-108878628D01*
X103394430Y-108896924D01*
X103381143Y-108919955D01*
X103364141Y-108924962D01*
X103334178Y-108917213D01*
X103311761Y-108909108D01*
X103296516Y-108896565D01*
X103300340Y-108879038D01*
X103301095Y-108877542D01*
X103309517Y-108846477D01*
X103312985Y-108806296D01*
X103313992Y-108785411D01*
X103323235Y-108762299D01*
X103346216Y-108758147D01*
X103387847Y-108770613D01*
G37*
G36*
X120164876Y-121499737D02*
G01*
X120069967Y-121632201D01*
X119658452Y-122177467D01*
X119226669Y-122704172D01*
X118774998Y-123211947D01*
X118303820Y-123700425D01*
X117813515Y-124169240D01*
X117304463Y-124618025D01*
X116777043Y-125046412D01*
X116231637Y-125454035D01*
X115668625Y-125840526D01*
X115133826Y-126178364D01*
X114579828Y-126499884D01*
X114015520Y-126798796D01*
X113438020Y-127076554D01*
X112844445Y-127334612D01*
X112231911Y-127574426D01*
X112190601Y-127589729D01*
X112110411Y-127619275D01*
X112040828Y-127644702D01*
X111985652Y-127664631D01*
X111948686Y-127677686D01*
X111933729Y-127682488D01*
X111930807Y-127679583D01*
X111925278Y-127654092D01*
X111920524Y-127603943D01*
X111916586Y-127531080D01*
X111913509Y-127437451D01*
X111911336Y-127325000D01*
X111910109Y-127195672D01*
X111909872Y-127051414D01*
X111910668Y-126894171D01*
X111912539Y-126725889D01*
X111914098Y-126622513D01*
X111917269Y-126454259D01*
X111921221Y-126298868D01*
X111926209Y-126152320D01*
X111932489Y-126010593D01*
X111940318Y-125869666D01*
X111949952Y-125725519D01*
X111961646Y-125574132D01*
X111975657Y-125411482D01*
X111992240Y-125233549D01*
X112011652Y-125036313D01*
X112034148Y-124815751D01*
X112064983Y-124517219D01*
X112120898Y-124486259D01*
X112123351Y-124484887D01*
X112154861Y-124466417D01*
X112204514Y-124436462D01*
X112267706Y-124397837D01*
X112339830Y-124353354D01*
X112416283Y-124305825D01*
X112655752Y-124156352D01*
X112701685Y-124210015D01*
X112704259Y-124212959D01*
X112762730Y-124257805D01*
X112841919Y-124284547D01*
X112941783Y-124293185D01*
X113062277Y-124283720D01*
X113203357Y-124256151D01*
X113364977Y-124210479D01*
X113403294Y-124197715D01*
X113479291Y-124170681D01*
X113572888Y-124135965D01*
X113679406Y-124095404D01*
X113794167Y-124050836D01*
X113912494Y-124004099D01*
X114029708Y-123957031D01*
X114141133Y-123911468D01*
X114242090Y-123869249D01*
X114327900Y-123832211D01*
X114354388Y-123820464D01*
X114502327Y-123752759D01*
X114658726Y-123677645D01*
X114825401Y-123594152D01*
X115004169Y-123501310D01*
X115196847Y-123398147D01*
X115405253Y-123283695D01*
X115631203Y-123156983D01*
X115876513Y-123017039D01*
X116143002Y-122862895D01*
X116230829Y-122811843D01*
X116411771Y-122707065D01*
X116573465Y-122614107D01*
X116718919Y-122531314D01*
X116851142Y-122457033D01*
X116973140Y-122389609D01*
X117087922Y-122327388D01*
X117198497Y-122268717D01*
X117307872Y-122211940D01*
X117419056Y-122155406D01*
X117535056Y-122097458D01*
X117692087Y-122020958D01*
X118027043Y-121867627D01*
X118348054Y-121734980D01*
X118657276Y-121622381D01*
X118956867Y-121529189D01*
X119248985Y-121454766D01*
X119535788Y-121398474D01*
X119819434Y-121359674D01*
X120102080Y-121337727D01*
X120286132Y-121328792D01*
X120164876Y-121499737D01*
G37*
G36*
X115453167Y-121072181D02*
G01*
X115442843Y-121087991D01*
X115425907Y-121112820D01*
X115390874Y-121162385D01*
X115335775Y-121237312D01*
X115270321Y-121324015D01*
X115198478Y-121417355D01*
X115124207Y-121512189D01*
X115051474Y-121603375D01*
X114984240Y-121685771D01*
X114962442Y-121711991D01*
X114918897Y-121763673D01*
X114883124Y-121805190D01*
X114858349Y-121832826D01*
X114847802Y-121842863D01*
X114847633Y-121842814D01*
X114853740Y-121831209D01*
X114874308Y-121801437D01*
X114906877Y-121756725D01*
X114948988Y-121700300D01*
X114998181Y-121635390D01*
X115051996Y-121565220D01*
X115107974Y-121493017D01*
X115163654Y-121422008D01*
X115216579Y-121355421D01*
X115264287Y-121296481D01*
X115294550Y-121259553D01*
X115354540Y-121186434D01*
X115399162Y-121132282D01*
X115429877Y-121095439D01*
X115448143Y-121074246D01*
X115455420Y-121067046D01*
X115453167Y-121072181D01*
G37*
G36*
X100434135Y-119700944D02*
G01*
X100427247Y-119707831D01*
X100420360Y-119700944D01*
X100427247Y-119694056D01*
X100434135Y-119700944D01*
G37*
G36*
X114822814Y-121882058D02*
G01*
X114818562Y-121888177D01*
X114806912Y-121897961D01*
X114804986Y-121897827D01*
X114801953Y-121889853D01*
X114816740Y-121875984D01*
X114824438Y-121872632D01*
X114822814Y-121882058D01*
G37*
G36*
X115351814Y-118750510D02*
G01*
X115344926Y-118757397D01*
X115338039Y-118750510D01*
X115344926Y-118743622D01*
X115351814Y-118750510D01*
G37*
G36*
X109770670Y-107751895D02*
G01*
X109795937Y-107762923D01*
X109813156Y-107795027D01*
X109814155Y-107797929D01*
X109827997Y-107860543D01*
X109820784Y-107907300D01*
X109792197Y-107940403D01*
X109761001Y-107964184D01*
X109725456Y-107995856D01*
X109694795Y-108026561D01*
X109662715Y-107992413D01*
X109653862Y-107983691D01*
X109619744Y-107963825D01*
X109572407Y-107958265D01*
X109538358Y-107960466D01*
X109506253Y-107973382D01*
X109474944Y-108003770D01*
X109435707Y-108049276D01*
X109419537Y-108007214D01*
X109408174Y-107975923D01*
X109406213Y-107954008D01*
X109422238Y-107945757D01*
X109460623Y-107944490D01*
X109494404Y-107942730D01*
X109531405Y-107931410D01*
X109561674Y-107904934D01*
X109593388Y-107857972D01*
X109611375Y-107833427D01*
X109657865Y-107792235D01*
X109712282Y-107762855D01*
X109764397Y-107751648D01*
X109770670Y-107751895D01*
G37*
G36*
X103127849Y-106925518D02*
G01*
X103107099Y-106947749D01*
X103076701Y-106979170D01*
X103059005Y-106996334D01*
X103011643Y-107030942D01*
X102963062Y-107047325D01*
X102927161Y-107051510D01*
X102902388Y-107045827D01*
X102882232Y-107026469D01*
X102857291Y-107005501D01*
X102820247Y-106991467D01*
X102817303Y-106990850D01*
X102821991Y-106985620D01*
X102849372Y-106976608D01*
X102895966Y-106964827D01*
X102958294Y-106951288D01*
X102971493Y-106948604D01*
X103035048Y-106935905D01*
X103086639Y-106925964D01*
X103121264Y-106919726D01*
X103133918Y-106918136D01*
X103127849Y-106925518D01*
G37*
G36*
X113131343Y-116376339D02*
G01*
X113126064Y-116412512D01*
X113111583Y-116469389D01*
X113088832Y-116544287D01*
X113058745Y-116634521D01*
X113022254Y-116737407D01*
X112980294Y-116850260D01*
X112933796Y-116970395D01*
X112883694Y-117095129D01*
X112830921Y-117221776D01*
X112804347Y-117284589D01*
X112737899Y-117444151D01*
X112677532Y-117593639D01*
X112622295Y-117736148D01*
X112571237Y-117874767D01*
X112523405Y-118012588D01*
X112477849Y-118152704D01*
X112433615Y-118298205D01*
X112389753Y-118452183D01*
X112345311Y-118617730D01*
X112299337Y-118797937D01*
X112250879Y-118995896D01*
X112198986Y-119214698D01*
X112142706Y-119457435D01*
X112106796Y-119613000D01*
X112055589Y-119832049D01*
X112008758Y-120028439D01*
X111965606Y-120204798D01*
X111925438Y-120363751D01*
X111887560Y-120507926D01*
X111851275Y-120639948D01*
X111815889Y-120762445D01*
X111780706Y-120878042D01*
X111745031Y-120989367D01*
X111708169Y-121099045D01*
X111672425Y-121200997D01*
X111589632Y-121420361D01*
X111502866Y-121625606D01*
X111409326Y-121822101D01*
X111306215Y-122015218D01*
X111190734Y-122210328D01*
X111060085Y-122412799D01*
X110911469Y-122628004D01*
X110896145Y-122649712D01*
X110812083Y-122774252D01*
X110747017Y-122881583D01*
X110700138Y-122973260D01*
X110670637Y-123050838D01*
X110657706Y-123115873D01*
X110655491Y-123149900D01*
X110657871Y-123182820D01*
X110669936Y-123207557D01*
X110695214Y-123235346D01*
X110738999Y-123279131D01*
X110859302Y-123272271D01*
X110890951Y-123269613D01*
X111001585Y-123250177D01*
X111130982Y-123214256D01*
X111277174Y-123162525D01*
X111438191Y-123095659D01*
X111612063Y-123014333D01*
X111710344Y-122965067D01*
X111858288Y-122886165D01*
X111995923Y-122805694D01*
X112133213Y-122717719D01*
X112280122Y-122616304D01*
X112309386Y-122595402D01*
X112414687Y-122518056D01*
X112518079Y-122438397D01*
X112621810Y-122354395D01*
X112728130Y-122264024D01*
X112839287Y-122165254D01*
X112957530Y-122056059D01*
X113085108Y-121934410D01*
X113224270Y-121798279D01*
X113377264Y-121645638D01*
X113546340Y-121474460D01*
X113561432Y-121459099D01*
X113657086Y-121362050D01*
X113747808Y-121270527D01*
X113831553Y-121186558D01*
X113906279Y-121112170D01*
X113969941Y-121049389D01*
X114020495Y-121000245D01*
X114055898Y-120966763D01*
X114074104Y-120950971D01*
X114120242Y-120926557D01*
X114163274Y-120922264D01*
X114195591Y-120941637D01*
X114198811Y-120946919D01*
X114201982Y-120975973D01*
X114193299Y-121023379D01*
X114172422Y-121090041D01*
X114139008Y-121176866D01*
X114092718Y-121284760D01*
X114033210Y-121414628D01*
X113960144Y-121567375D01*
X113898319Y-121696315D01*
X113833516Y-121837309D01*
X113780787Y-121960643D01*
X113739067Y-122069675D01*
X113707290Y-122167763D01*
X113684389Y-122258263D01*
X113669298Y-122344532D01*
X113660951Y-122429929D01*
X113658282Y-122517809D01*
X113658835Y-122550194D01*
X113663795Y-122623430D01*
X113672953Y-122696090D01*
X113685153Y-122761431D01*
X113699239Y-122812712D01*
X113714055Y-122843189D01*
X113717551Y-122846578D01*
X113745381Y-122860889D01*
X113784330Y-122871102D01*
X113838649Y-122879787D01*
X113766464Y-122943294D01*
X113592856Y-123092322D01*
X113373664Y-123271898D01*
X113145078Y-123450904D01*
X112915506Y-123622780D01*
X112693354Y-123780963D01*
X112679483Y-123790529D01*
X112607404Y-123839538D01*
X112528385Y-123892300D01*
X112446153Y-123946426D01*
X112364431Y-123999523D01*
X112286944Y-124049200D01*
X112217416Y-124093066D01*
X112159573Y-124128730D01*
X112117139Y-124153799D01*
X112093839Y-124165882D01*
X112087913Y-124167246D01*
X112079034Y-124160388D01*
X112074669Y-124135966D01*
X112073506Y-124089022D01*
X112070662Y-123997555D01*
X112061465Y-123889508D01*
X112046925Y-123780251D01*
X112028093Y-123675536D01*
X112006015Y-123581115D01*
X111981741Y-123502740D01*
X111956319Y-123446162D01*
X111918825Y-123393933D01*
X111854179Y-123328437D01*
X111779525Y-123271747D01*
X111704374Y-123231948D01*
X111661801Y-123218536D01*
X111576638Y-123203770D01*
X111479186Y-123197718D01*
X111378019Y-123200381D01*
X111281710Y-123211761D01*
X111198831Y-123231860D01*
X111187436Y-123235711D01*
X111042315Y-123294594D01*
X110918972Y-123364089D01*
X110818639Y-123443235D01*
X110742547Y-123531075D01*
X110691926Y-123626648D01*
X110684535Y-123648425D01*
X110666169Y-123722217D01*
X110648279Y-123822359D01*
X110630977Y-123947994D01*
X110614372Y-124098263D01*
X110598575Y-124272310D01*
X110583695Y-124469277D01*
X110567347Y-124705831D01*
X110404151Y-124769267D01*
X110393990Y-124773199D01*
X110159877Y-124854459D01*
X109915607Y-124921293D01*
X109657440Y-124974475D01*
X109381637Y-125014783D01*
X109084460Y-125042991D01*
X109064709Y-125044042D01*
X109011399Y-125045567D01*
X108937741Y-125046716D01*
X108848090Y-125047502D01*
X108746799Y-125047937D01*
X108638222Y-125048031D01*
X108526714Y-125047798D01*
X108416628Y-125047248D01*
X108312319Y-125046394D01*
X108218142Y-125045247D01*
X108138449Y-125043819D01*
X108077597Y-125042122D01*
X108039937Y-125040168D01*
X107938961Y-125031638D01*
X108287371Y-124763037D01*
X108386476Y-124686372D01*
X108497310Y-124600156D01*
X108610669Y-124511559D01*
X108720453Y-124425361D01*
X108820560Y-124346342D01*
X108904887Y-124279281D01*
X109146418Y-124083088D01*
X109468689Y-123810149D01*
X109766482Y-123543547D01*
X110040806Y-123281986D01*
X110292665Y-123024168D01*
X110523066Y-122768796D01*
X110733015Y-122514574D01*
X110923520Y-122260205D01*
X111095585Y-122004391D01*
X111250218Y-121745836D01*
X111388425Y-121483243D01*
X111511212Y-121215315D01*
X111619586Y-120940754D01*
X111714553Y-120658265D01*
X111729145Y-120611833D01*
X111757363Y-120525734D01*
X111785641Y-120443517D01*
X111811366Y-120372698D01*
X111831924Y-120320792D01*
X111832512Y-120319419D01*
X111864195Y-120241738D01*
X111893564Y-120161446D01*
X111921802Y-120074459D01*
X111950094Y-119976688D01*
X111979622Y-119864047D01*
X112011571Y-119732450D01*
X112047125Y-119577810D01*
X112051967Y-119556372D01*
X112088420Y-119397792D01*
X112127546Y-119232016D01*
X112168606Y-119061883D01*
X112210863Y-118890228D01*
X112253580Y-118719890D01*
X112296020Y-118553704D01*
X112337445Y-118394507D01*
X112377119Y-118245138D01*
X112414304Y-118108431D01*
X112448262Y-117987225D01*
X112478258Y-117884357D01*
X112503553Y-117802662D01*
X112523411Y-117744978D01*
X112538169Y-117706885D01*
X112568726Y-117630987D01*
X112607217Y-117537791D01*
X112651624Y-117432031D01*
X112699930Y-117318441D01*
X112750117Y-117201756D01*
X112800168Y-117086710D01*
X112848066Y-116978037D01*
X112891793Y-116880473D01*
X112923315Y-116809922D01*
X112952557Y-116742454D01*
X112975696Y-116686862D01*
X112990914Y-116647524D01*
X112996391Y-116628815D01*
X113000087Y-116613978D01*
X113013291Y-116580783D01*
X113033229Y-116536797D01*
X113056901Y-116488009D01*
X113081305Y-116440405D01*
X113103437Y-116399974D01*
X113120295Y-116372702D01*
X113128879Y-116364578D01*
X113131343Y-116376339D01*
G37*
G36*
X116426217Y-119466779D02*
G01*
X116419330Y-119473666D01*
X116412443Y-119466779D01*
X116419330Y-119459891D01*
X116426217Y-119466779D01*
G37*
G36*
X116439991Y-119439230D02*
G01*
X116433104Y-119446117D01*
X116426217Y-119439230D01*
X116433104Y-119432343D01*
X116439991Y-119439230D01*
G37*
G36*
X101549861Y-121739555D02*
G01*
X101542974Y-121746442D01*
X101536087Y-121739555D01*
X101542974Y-121732668D01*
X101549861Y-121739555D01*
G37*
G36*
X99971666Y-111580596D02*
G01*
X99980677Y-111612349D01*
X99995691Y-111666627D01*
X100016095Y-111741138D01*
X100041271Y-111833587D01*
X100070602Y-111941680D01*
X100103473Y-112063124D01*
X100139268Y-112195625D01*
X100177369Y-112336889D01*
X100217161Y-112484621D01*
X100258028Y-112636529D01*
X100299352Y-112790319D01*
X100340518Y-112943696D01*
X100380910Y-113094366D01*
X100419911Y-113240037D01*
X100456905Y-113378413D01*
X100491276Y-113507201D01*
X100522406Y-113624108D01*
X100549681Y-113726839D01*
X100572483Y-113813101D01*
X100590197Y-113880599D01*
X100602206Y-113927040D01*
X100607893Y-113950130D01*
X100608424Y-113952741D01*
X100607756Y-113964316D01*
X100597007Y-113960761D01*
X100573442Y-113940250D01*
X100534330Y-113900956D01*
X100496574Y-113858783D01*
X100415791Y-113742779D01*
X100345053Y-113601832D01*
X100284279Y-113435733D01*
X100233385Y-113244274D01*
X100192292Y-113027245D01*
X100177271Y-112944195D01*
X100151073Y-112840603D01*
X100115926Y-112743590D01*
X100069036Y-112646809D01*
X100007610Y-112543910D01*
X99928856Y-112428545D01*
X99840670Y-112305062D01*
X99899145Y-112290801D01*
X99903204Y-112289777D01*
X99945966Y-112272580D01*
X99976822Y-112244119D01*
X99997748Y-112200394D01*
X100010723Y-112137407D01*
X100017727Y-112051161D01*
X100018086Y-112043025D01*
X100018327Y-111951868D01*
X100010849Y-111857051D01*
X99994812Y-111747456D01*
X99993477Y-111739609D01*
X99982943Y-111675654D01*
X99974871Y-111623051D01*
X99970034Y-111587062D01*
X99969202Y-111572944D01*
X99971666Y-111580596D01*
G37*
G36*
X114055094Y-110841865D02*
G01*
X114049363Y-110877349D01*
X114040742Y-110929104D01*
X114030155Y-110991516D01*
X114020485Y-111056372D01*
X114008180Y-111164455D01*
X113997171Y-111290477D01*
X113987817Y-111428904D01*
X113980478Y-111574207D01*
X113975517Y-111720852D01*
X113973294Y-111863308D01*
X113973002Y-111902183D01*
X113972076Y-111966783D01*
X113970769Y-112016875D01*
X113969208Y-112048113D01*
X113967525Y-112056150D01*
X113966849Y-112049088D01*
X113965582Y-112017146D01*
X113964142Y-111962344D01*
X113962583Y-111887574D01*
X113960959Y-111795727D01*
X113959323Y-111689693D01*
X113957728Y-111572365D01*
X113956229Y-111446632D01*
X113955906Y-111417504D01*
X113954411Y-111278882D01*
X113953344Y-111164933D01*
X113952787Y-111073240D01*
X113952824Y-111001387D01*
X113953538Y-110946957D01*
X113955011Y-110907532D01*
X113957326Y-110880695D01*
X113960567Y-110864029D01*
X113964815Y-110855118D01*
X113970155Y-110851544D01*
X113976669Y-110850889D01*
X113995600Y-110848602D01*
X114030376Y-110836630D01*
X114046903Y-110829088D01*
X114057020Y-110828374D01*
X114055094Y-110841865D01*
G37*
%TD*%
M02*
