M48
; DRILL file {KiCad (6.0.0)} date Sat Apr 23 15:12:42 2022
; FORMAT={-:-/ absolute / inch / decimal}
; #@! TF.CreationDate,2022-04-23T15:12:42-04:00
; #@! TF.GenerationSoftware,Kicad,Pcbnew,(6.0.0)
; #@! TF.FileFunction,Plated,1,2,PTH
FMAT,2
INCH
; #@! TA.AperFunction,Plated,PTH,ViaDrill
T1C0.0157
; #@! TA.AperFunction,Plated,PTH,ComponentDrill
T2C0.0276
; #@! TA.AperFunction,Plated,PTH,ComponentDrill
T3C0.0315
; #@! TA.AperFunction,Plated,PTH,ComponentDrill
T4C0.0354
; #@! TA.AperFunction,Plated,PTH,ComponentDrill
T5C0.0394
; #@! TA.AperFunction,Plated,PTH,ComponentDrill
T6C0.0433
%
G90
G05
T1
X3.55Y-4.95
X3.8Y-5.0
X4.2Y-3.95
T2
X3.0931Y-3.64
X3.29Y-3.64
T3
X2.8252Y-4.75
X2.9748Y-4.75
X3.35Y-4.0
X3.35Y-4.1
X3.35Y-4.2
X3.35Y-4.3
X3.35Y-4.4
X3.35Y-4.5
X3.35Y-4.6
X3.35Y-4.7
X3.35Y-4.8
X3.35Y-4.9
X3.35Y-5.0
X3.35Y-5.1
X3.35Y-5.2
X3.35Y-5.3
X3.65Y-4.0
X3.65Y-4.1
X3.65Y-4.2
X3.65Y-4.3
X3.65Y-4.4
X3.65Y-4.5
X3.65Y-4.6
X3.65Y-4.7
X3.65Y-4.8
X3.65Y-4.9
X3.65Y-5.0
X3.65Y-5.1
X3.65Y-5.2
X3.65Y-5.3
X3.75Y-3.5
X4.0Y-4.35
X4.0Y-4.75
X4.0Y-5.05
X4.0Y-5.45
X4.05Y-3.5
X4.35Y-4.35
X4.35Y-4.75
X4.35Y-5.15
X4.35Y-5.55
X4.75Y-4.35
X4.75Y-4.75
X4.75Y-5.15
X4.75Y-5.55
T4
X3.9Y-3.9
X4.0Y-3.9
X5.05Y-4.35
X5.05Y-4.75
X5.05Y-5.15
X5.05Y-5.55
X5.15Y-4.35
X5.15Y-4.75
X5.15Y-5.15
X5.15Y-5.55
T5
X2.8031Y-4.05
X2.8031Y-4.4
X2.85Y-5.15
X2.85Y-5.25
X2.85Y-5.35
X2.95Y-5.15
X2.95Y-5.25
X2.95Y-5.35
X3.0Y-4.05
X3.0Y-4.4
X3.45Y-5.5
X3.55Y-5.5
T6
X5.4641Y-4.66
X5.4641Y-4.8372
X5.472Y-4.2614
X5.472Y-4.4386
X5.472Y-5.0614
X5.472Y-5.2386
X5.472Y-5.4614
X5.472Y-5.6386
X5.72Y-4.66
X5.72Y-4.8372
X5.728Y-4.2614
X5.728Y-4.4386
X5.728Y-5.0614
X5.728Y-5.2386
X5.728Y-5.4614
X5.728Y-5.6386
T0
M30
