%TF.GenerationSoftware,KiCad,Pcbnew,(6.0.0)*%
%TF.CreationDate,2022-04-23T15:12:40-04:00*%
%TF.ProjectId,DIY,4449592e-6b69-4636-9164-5f7063625858,rev?*%
%TF.SameCoordinates,Original*%
%TF.FileFunction,Copper,L2,Bot*%
%TF.FilePolarity,Positive*%
%FSLAX46Y46*%
G04 Gerber Fmt 4.6, Leading zero omitted, Abs format (unit mm)*
G04 Created by KiCad (PCBNEW (6.0.0)) date 2022-04-23 15:12:40*
%MOMM*%
%LPD*%
G01*
G04 APERTURE LIST*
G04 Aperture macros list*
%AMRoundRect*
0 Rectangle with rounded corners*
0 $1 Rounding radius*
0 $2 $3 $4 $5 $6 $7 $8 $9 X,Y pos of 4 corners*
0 Add a 4 corners polygon primitive as box body*
4,1,4,$2,$3,$4,$5,$6,$7,$8,$9,$2,$3,0*
0 Add four circle primitives for the rounded corners*
1,1,$1+$1,$2,$3*
1,1,$1+$1,$4,$5*
1,1,$1+$1,$6,$7*
1,1,$1+$1,$8,$9*
0 Add four rect primitives between the rounded corners*
20,1,$1+$1,$2,$3,$4,$5,0*
20,1,$1+$1,$4,$5,$6,$7,0*
20,1,$1+$1,$6,$7,$8,$9,0*
20,1,$1+$1,$8,$9,$2,$3,0*%
G04 Aperture macros list end*
%TA.AperFunction,ComponentPad*%
%ADD10C,2.000000*%
%TD*%
%TA.AperFunction,ComponentPad*%
%ADD11C,1.200000*%
%TD*%
%TA.AperFunction,ComponentPad*%
%ADD12C,1.500000*%
%TD*%
%TA.AperFunction,ComponentPad*%
%ADD13C,1.600000*%
%TD*%
%TA.AperFunction,ComponentPad*%
%ADD14O,1.600000X1.600000*%
%TD*%
%TA.AperFunction,ComponentPad*%
%ADD15R,1.700000X1.700000*%
%TD*%
%TA.AperFunction,ComponentPad*%
%ADD16O,1.700000X1.700000*%
%TD*%
%TA.AperFunction,ComponentPad*%
%ADD17RoundRect,0.250000X-0.600000X-0.600000X0.600000X-0.600000X0.600000X0.600000X-0.600000X0.600000X0*%
%TD*%
%TA.AperFunction,ComponentPad*%
%ADD18C,1.700000*%
%TD*%
%TA.AperFunction,ComponentPad*%
%ADD19R,1.800000X1.800000*%
%TD*%
%TA.AperFunction,ComponentPad*%
%ADD20C,1.800000*%
%TD*%
%TA.AperFunction,ComponentPad*%
%ADD21R,1.600000X1.600000*%
%TD*%
%TA.AperFunction,ViaPad*%
%ADD22C,0.800000*%
%TD*%
%TA.AperFunction,Conductor*%
%ADD23C,0.150000*%
%TD*%
G04 APERTURE END LIST*
D10*
%TO.P,SW2,2*%
%TO.N,N/C*%
X138788000Y-122864000D03*
%TO.P,SW2,1,1*%
%TO.N,Net-(SW2-Pad1)*%
X138788000Y-118364000D03*
%TO.P,SW2,4,2*%
%TO.N,GND*%
X145288000Y-122864000D03*
%TO.P,SW2,2*%
%TO.N,N/C*%
X145288000Y-118364000D03*
%TD*%
D11*
%TO.P,LS1,1,1*%
%TO.N,/MISO*%
X78566000Y-92456000D03*
%TO.P,LS1,2,2*%
%TO.N,GND*%
X83566000Y-92456000D03*
%TD*%
D12*
%TO.P,Y1,1,1*%
%TO.N,xtalO*%
X71760000Y-120650000D03*
%TO.P,Y1,2,2*%
%TO.N,xtalI*%
X75560000Y-120650000D03*
%TD*%
D13*
%TO.P,R3,1*%
%TO.N,Net-(D3-Pad1)*%
X120650000Y-120650000D03*
D14*
%TO.P,R3,2*%
%TO.N,GND*%
X110490000Y-120650000D03*
%TD*%
D10*
%TO.P,SW1,4,2*%
%TO.N,GND*%
X145490000Y-112740000D03*
%TO.P,SW1,2*%
%TO.N,N/C*%
X138990000Y-112740000D03*
X145490000Y-108240000D03*
%TO.P,SW1,1,1*%
%TO.N,Net-(SW1-Pad1)*%
X138990000Y-108240000D03*
%TD*%
D15*
%TO.P,JP1,1,A*%
%TO.N,Net-(JP1-Pad1)*%
X90170000Y-139700000D03*
D16*
%TO.P,JP1,2,B*%
%TO.N,GND*%
X87630000Y-139700000D03*
%TD*%
D13*
%TO.P,R4,1*%
%TO.N,Net-(D4-Pad1)*%
X120650000Y-110490000D03*
D14*
%TO.P,R4,2*%
%TO.N,GND*%
X110490000Y-110490000D03*
%TD*%
D17*
%TO.P,J1,1,MISO*%
%TO.N,/MISO*%
X72390000Y-130810000D03*
D18*
%TO.P,J1,2,VCC*%
%TO.N,VCC*%
X74930000Y-130810000D03*
%TO.P,J1,3,SCK*%
%TO.N,/SCLK*%
X72390000Y-133350000D03*
%TO.P,J1,4,MOSI*%
%TO.N,/MOSI*%
X74930000Y-133350000D03*
%TO.P,J1,5,~{RST}*%
%TO.N,/RESET*%
X72390000Y-135890000D03*
%TO.P,J1,6,GND*%
%TO.N,GND*%
X74930000Y-135890000D03*
%TD*%
D10*
%TO.P,SW3,1,1*%
%TO.N,Net-(SW3-Pad1)*%
X138990000Y-128560000D03*
%TO.P,SW3,2*%
%TO.N,N/C*%
X138990000Y-133060000D03*
X145490000Y-128560000D03*
%TO.P,SW3,4,2*%
%TO.N,GND*%
X145490000Y-133060000D03*
%TD*%
D19*
%TO.P,D2,1,K*%
%TO.N,Net-(D2-Pad1)*%
X128270000Y-130810000D03*
D20*
%TO.P,D2,2,A*%
%TO.N,Net-(D2-Pad2)*%
X130810000Y-130810000D03*
%TD*%
D13*
%TO.P,R2,1*%
%TO.N,Net-(D2-Pad1)*%
X120650000Y-130810000D03*
D14*
%TO.P,R2,2*%
%TO.N,GND*%
X110490000Y-130810000D03*
%TD*%
D19*
%TO.P,D3,1,K*%
%TO.N,Net-(D3-Pad1)*%
X128270000Y-120650000D03*
D20*
%TO.P,D3,2,A*%
%TO.N,Net-(D3-Pad2)*%
X130810000Y-120650000D03*
%TD*%
D21*
%TO.P,U1,1,~{RESET}/PC6*%
%TO.N,/RESET*%
X92710000Y-134620000D03*
D14*
%TO.P,U1,2,PD0*%
%TO.N,unconnected-(U1-Pad2)*%
X92710000Y-132080000D03*
%TO.P,U1,3,PD1*%
%TO.N,unconnected-(U1-Pad3)*%
X92710000Y-129540000D03*
%TO.P,U1,4,PD2*%
%TO.N,Net-(D1-Pad2)*%
X92710000Y-127000000D03*
%TO.P,U1,5,PD3*%
%TO.N,Net-(D2-Pad2)*%
X92710000Y-124460000D03*
%TO.P,U1,6,PD4*%
%TO.N,Net-(D3-Pad2)*%
X92710000Y-121920000D03*
%TO.P,U1,7,VCC*%
%TO.N,VCC*%
X92710000Y-119380000D03*
%TO.P,U1,8,GND*%
%TO.N,GND*%
X92710000Y-116840000D03*
%TO.P,U1,9,XTAL1/PB6*%
%TO.N,xtalI*%
X92710000Y-114300000D03*
%TO.P,U1,10,XTAL2/PB7*%
%TO.N,xtalO*%
X92710000Y-111760000D03*
%TO.P,U1,11,PD5*%
%TO.N,Net-(D4-Pad2)*%
X92710000Y-109220000D03*
%TO.P,U1,12,PD6*%
%TO.N,unconnected-(U1-Pad12)*%
X92710000Y-106680000D03*
%TO.P,U1,13,PD7*%
%TO.N,unconnected-(U1-Pad13)*%
X92710000Y-104140000D03*
%TO.P,U1,14,PB0*%
%TO.N,Net-(SW1-Pad1)*%
X92710000Y-101600000D03*
%TO.P,U1,15,PB1*%
%TO.N,Net-(SW2-Pad1)*%
X85090000Y-101600000D03*
%TO.P,U1,16,PB2*%
%TO.N,Net-(SW3-Pad1)*%
X85090000Y-104140000D03*
%TO.P,U1,17,PB3*%
%TO.N,/MOSI*%
X85090000Y-106680000D03*
%TO.P,U1,18,PB4*%
%TO.N,/MISO*%
X85090000Y-109220000D03*
%TO.P,U1,19,PB5*%
%TO.N,/SCLK*%
X85090000Y-111760000D03*
%TO.P,U1,20,AVCC*%
%TO.N,unconnected-(U1-Pad20)*%
X85090000Y-114300000D03*
%TO.P,U1,21,AREF*%
%TO.N,unconnected-(U1-Pad21)*%
X85090000Y-116840000D03*
%TO.P,U1,22,GND*%
%TO.N,GND*%
X85090000Y-119380000D03*
%TO.P,U1,23,PC0*%
%TO.N,unconnected-(U1-Pad23)*%
X85090000Y-121920000D03*
%TO.P,U1,24,PC1*%
%TO.N,Net-(JP1-Pad1)*%
X85090000Y-124460000D03*
%TO.P,U1,25,PC2*%
%TO.N,unconnected-(U1-Pad25)*%
X85090000Y-127000000D03*
%TO.P,U1,26,PC3*%
%TO.N,unconnected-(U1-Pad26)*%
X85090000Y-129540000D03*
%TO.P,U1,27,PC4*%
%TO.N,unconnected-(U1-Pad27)*%
X85090000Y-132080000D03*
%TO.P,U1,28,PC5*%
%TO.N,unconnected-(U1-Pad28)*%
X85090000Y-134620000D03*
%TD*%
D19*
%TO.P,D4,1,K*%
%TO.N,Net-(D4-Pad1)*%
X128270000Y-110490000D03*
D20*
%TO.P,D4,2,A*%
%TO.N,Net-(D4-Pad2)*%
X130810000Y-110490000D03*
%TD*%
D19*
%TO.P,D5,1,K*%
%TO.N,Net-(D5-Pad1)*%
X99060000Y-99060000D03*
D20*
%TO.P,D5,2,A*%
%TO.N,GND*%
X101600000Y-99060000D03*
%TD*%
D13*
%TO.P,R1,1*%
%TO.N,GND*%
X110490000Y-140970000D03*
D14*
%TO.P,R1,2*%
%TO.N,Net-(D1-Pad1)*%
X120650000Y-140970000D03*
%TD*%
D10*
%TO.P,C1,1*%
%TO.N,xtalO*%
X71200000Y-111760000D03*
%TO.P,C1,2*%
%TO.N,GND*%
X76200000Y-111760000D03*
%TD*%
%TO.P,SW4,1,1*%
%TO.N,/MOSI*%
X138990000Y-138720000D03*
%TO.P,SW4,2*%
%TO.N,N/C*%
X145490000Y-138720000D03*
X138990000Y-143220000D03*
%TO.P,SW4,4,2*%
%TO.N,GND*%
X145490000Y-143220000D03*
%TD*%
D21*
%TO.P,SW5,1,A*%
%TO.N,GND*%
X95250000Y-88900000D03*
D14*
%TO.P,SW5,2,B*%
%TO.N,Net-(BT1-Pad2)*%
X102870000Y-88900000D03*
%TD*%
D13*
%TO.P,R5,1*%
%TO.N,VCC*%
X101600000Y-120650000D03*
D14*
%TO.P,R5,2*%
%TO.N,Net-(D5-Pad1)*%
X101600000Y-110490000D03*
%TD*%
D19*
%TO.P,D1,1,K*%
%TO.N,Net-(D1-Pad1)*%
X128270000Y-140970000D03*
D20*
%TO.P,D1,2,A*%
%TO.N,Net-(D1-Pad2)*%
X130810000Y-140970000D03*
%TD*%
D13*
%TO.P,R6,1*%
%TO.N,VCC*%
X101600000Y-128270000D03*
D14*
%TO.P,R6,2*%
%TO.N,/RESET*%
X101600000Y-138430000D03*
%TD*%
D10*
%TO.P,C2,1*%
%TO.N,xtalI*%
X71200000Y-102870000D03*
%TO.P,C2,2*%
%TO.N,GND*%
X76200000Y-102870000D03*
%TD*%
D22*
%TO.N,Net-(D2-Pad2)*%
X96520000Y-127000000D03*
%TO.N,VCC*%
X106680000Y-100330000D03*
%TO.N,Net-(SW3-Pad1)*%
X90170000Y-125730000D03*
%TD*%
D23*
%TO.N,xtalI*%
X71200000Y-102870000D02*
X69975489Y-104094511D01*
X69975489Y-115065489D02*
X75560000Y-120650000D01*
X69975489Y-104094511D02*
X69975489Y-115065489D01*
%TO.N,Net-(D2-Pad2)*%
X93980000Y-124460000D02*
X92710000Y-124460000D01*
X96520000Y-127000000D02*
X93980000Y-124460000D01*
%TO.N,VCC*%
X106680000Y-115570000D02*
X101600000Y-120650000D01*
X106680000Y-100330000D02*
X106680000Y-115570000D01*
X101600000Y-128270000D02*
X101600000Y-120650000D01*
%TO.N,Net-(SW3-Pad1)*%
X90170000Y-125730000D02*
X90170000Y-109220000D01*
X90170000Y-109220000D02*
X85090000Y-104140000D01*
%TO.N,Net-(JP1-Pad1)*%
X90170000Y-129540000D02*
X85090000Y-124460000D01*
X90170000Y-139700000D02*
X90170000Y-129540000D01*
%TO.N,Net-(D5-Pad1)*%
X99060000Y-107950000D02*
X101600000Y-110490000D01*
X99060000Y-99060000D02*
X99060000Y-107950000D01*
%TO.N,Net-(D1-Pad2)*%
X129685489Y-139845489D02*
X105555489Y-139845489D01*
X130810000Y-140970000D02*
X129685489Y-139845489D01*
X105555489Y-139845489D02*
X92710000Y-127000000D01*
%TO.N,/MOSI*%
X80010000Y-111760000D02*
X80010000Y-130810000D01*
X77470000Y-133350000D02*
X74930000Y-133350000D01*
X80010000Y-130810000D02*
X77470000Y-133350000D01*
X85090000Y-106680000D02*
X80010000Y-111760000D01*
%TO.N,/MISO*%
X73660000Y-132080000D02*
X72390000Y-130810000D01*
X74680411Y-134620000D02*
X73660000Y-133599589D01*
X85090000Y-109220000D02*
X80309520Y-114000480D01*
X80309520Y-114000480D02*
X80309520Y-131780480D01*
X77470000Y-134620000D02*
X74680411Y-134620000D01*
X80309520Y-131780480D02*
X77470000Y-134620000D01*
X73660000Y-133599589D02*
X73660000Y-132080000D01*
%TO.N,/SCLK*%
X80609040Y-131904546D02*
X75353586Y-137160000D01*
X74484922Y-137160000D02*
X73464511Y-136139589D01*
X73464511Y-134424511D02*
X72390000Y-133350000D01*
X73464511Y-136139589D02*
X73464511Y-134424511D01*
X75353586Y-137160000D02*
X74484922Y-137160000D01*
X85090000Y-111760000D02*
X80609040Y-116240960D01*
X80609040Y-116240960D02*
X80609040Y-131904546D01*
%TD*%
%TA.AperFunction,Conductor*%
%TO.N,GND*%
G36*
X147262121Y-85110002D02*
G01*
X147308614Y-85163658D01*
X147320000Y-85216000D01*
X147320000Y-144654000D01*
X147299998Y-144722121D01*
X147246342Y-144768614D01*
X147194000Y-144780000D01*
X146277206Y-144780000D01*
X146209085Y-144759998D01*
X146162592Y-144706342D01*
X146152488Y-144636068D01*
X146181982Y-144571488D01*
X146211371Y-144546568D01*
X146348445Y-144462568D01*
X146357907Y-144452110D01*
X146354124Y-144443334D01*
X145502812Y-143592022D01*
X145488868Y-143584408D01*
X145487035Y-143584539D01*
X145480420Y-143588790D01*
X144628920Y-144440290D01*
X144622160Y-144452670D01*
X144627887Y-144460320D01*
X144768629Y-144546568D01*
X144816261Y-144599215D01*
X144827867Y-144669257D01*
X144799763Y-144734454D01*
X144740873Y-144774108D01*
X144702794Y-144780000D01*
X68706000Y-144780000D01*
X68637879Y-144759998D01*
X68591386Y-144706342D01*
X68580000Y-144654000D01*
X68580000Y-143188440D01*
X137784770Y-143188440D01*
X137799200Y-143408604D01*
X137800621Y-143414200D01*
X137800622Y-143414205D01*
X137843849Y-143584408D01*
X137853511Y-143622452D01*
X137855928Y-143627694D01*
X137855928Y-143627695D01*
X137894046Y-143710379D01*
X137945883Y-143822821D01*
X138073222Y-144003002D01*
X138231264Y-144156961D01*
X138236060Y-144160166D01*
X138236063Y-144160168D01*
X138320261Y-144216427D01*
X138414717Y-144279540D01*
X138420020Y-144281818D01*
X138420023Y-144281820D01*
X138612129Y-144364355D01*
X138617436Y-144366635D01*
X138697088Y-144384658D01*
X138826995Y-144414054D01*
X138827001Y-144414055D01*
X138832632Y-144415329D01*
X138838403Y-144415556D01*
X138838405Y-144415556D01*
X138906211Y-144418220D01*
X139053098Y-144423991D01*
X139162275Y-144408161D01*
X139265738Y-144393160D01*
X139265743Y-144393159D01*
X139271452Y-144392331D01*
X139276916Y-144390476D01*
X139276921Y-144390475D01*
X139474907Y-144323268D01*
X139474912Y-144323266D01*
X139480379Y-144321410D01*
X139672884Y-144213602D01*
X139842518Y-144072518D01*
X139983602Y-143902884D01*
X140091410Y-143710379D01*
X140093266Y-143704912D01*
X140093268Y-143704907D01*
X140160475Y-143506921D01*
X140160476Y-143506916D01*
X140162331Y-143501452D01*
X140163159Y-143495743D01*
X140163160Y-143495738D01*
X140193458Y-143286772D01*
X140193991Y-143283098D01*
X140195514Y-143224930D01*
X143977725Y-143224930D01*
X143995572Y-143451699D01*
X143997115Y-143461446D01*
X144050217Y-143682627D01*
X144053266Y-143692012D01*
X144140313Y-143902163D01*
X144144795Y-143910958D01*
X144247432Y-144078445D01*
X144257890Y-144087907D01*
X144266666Y-144084124D01*
X145117978Y-143232812D01*
X145124356Y-143221132D01*
X145854408Y-143221132D01*
X145854539Y-143222965D01*
X145858790Y-143229580D01*
X146710290Y-144081080D01*
X146722670Y-144087840D01*
X146730320Y-144082113D01*
X146835205Y-143910958D01*
X146839687Y-143902163D01*
X146926734Y-143692012D01*
X146929783Y-143682627D01*
X146982885Y-143461446D01*
X146984428Y-143451699D01*
X147002275Y-143224930D01*
X147002275Y-143215070D01*
X146984428Y-142988301D01*
X146982885Y-142978554D01*
X146929783Y-142757373D01*
X146926734Y-142747988D01*
X146839687Y-142537837D01*
X146835205Y-142529042D01*
X146732568Y-142361555D01*
X146722110Y-142352093D01*
X146713334Y-142355876D01*
X145862022Y-143207188D01*
X145854408Y-143221132D01*
X145124356Y-143221132D01*
X145125592Y-143218868D01*
X145125461Y-143217035D01*
X145121210Y-143210420D01*
X144269710Y-142358920D01*
X144257330Y-142352160D01*
X144249680Y-142357887D01*
X144144795Y-142529042D01*
X144140313Y-142537837D01*
X144053266Y-142747988D01*
X144050217Y-142757373D01*
X143997115Y-142978554D01*
X143995572Y-142988301D01*
X143977725Y-143215070D01*
X143977725Y-143224930D01*
X140195514Y-143224930D01*
X140195643Y-143220000D01*
X140175454Y-143000289D01*
X140115565Y-142787936D01*
X140017980Y-142590053D01*
X139885967Y-142413267D01*
X139723949Y-142263499D01*
X139537350Y-142145764D01*
X139332421Y-142064006D01*
X139326761Y-142062880D01*
X139326757Y-142062879D01*
X139121691Y-142022089D01*
X139121688Y-142022089D01*
X139116024Y-142020962D01*
X139110249Y-142020886D01*
X139110245Y-142020886D01*
X138999504Y-142019437D01*
X138895406Y-142018074D01*
X138889709Y-142019053D01*
X138889708Y-142019053D01*
X138683654Y-142054459D01*
X138683653Y-142054459D01*
X138677957Y-142055438D01*
X138470957Y-142131804D01*
X138281341Y-142244614D01*
X138115457Y-142390090D01*
X137978863Y-142563360D01*
X137876131Y-142758620D01*
X137810703Y-142969333D01*
X137784770Y-143188440D01*
X68580000Y-143188440D01*
X68580000Y-142056062D01*
X109768493Y-142056062D01*
X109777789Y-142068077D01*
X109828994Y-142103931D01*
X109838489Y-142109414D01*
X110035947Y-142201490D01*
X110046239Y-142205236D01*
X110256688Y-142261625D01*
X110267481Y-142263528D01*
X110484525Y-142282517D01*
X110495475Y-142282517D01*
X110712519Y-142263528D01*
X110723312Y-142261625D01*
X110933761Y-142205236D01*
X110944053Y-142201490D01*
X111141511Y-142109414D01*
X111151006Y-142103931D01*
X111203048Y-142067491D01*
X111211424Y-142057012D01*
X111204356Y-142043566D01*
X110502812Y-141342022D01*
X110488868Y-141334408D01*
X110487035Y-141334539D01*
X110480420Y-141338790D01*
X109774923Y-142044287D01*
X109768493Y-142056062D01*
X68580000Y-142056062D01*
X68580000Y-139967966D01*
X86298257Y-139967966D01*
X86328565Y-140102446D01*
X86331645Y-140112275D01*
X86411770Y-140309603D01*
X86416413Y-140318794D01*
X86527694Y-140500388D01*
X86533777Y-140508699D01*
X86673213Y-140669667D01*
X86680580Y-140676883D01*
X86844434Y-140812916D01*
X86852881Y-140818831D01*
X87036756Y-140926279D01*
X87046042Y-140930729D01*
X87245001Y-141006703D01*
X87254899Y-141009579D01*
X87358250Y-141030606D01*
X87372299Y-141029410D01*
X87376000Y-141019065D01*
X87376000Y-139972115D01*
X87371525Y-139956876D01*
X87370135Y-139955671D01*
X87362452Y-139954000D01*
X86313225Y-139954000D01*
X86299694Y-139957973D01*
X86298257Y-139967966D01*
X68580000Y-139967966D01*
X68580000Y-139434183D01*
X86294389Y-139434183D01*
X86295912Y-139442607D01*
X86308292Y-139446000D01*
X87357885Y-139446000D01*
X87373124Y-139441525D01*
X87374329Y-139440135D01*
X87376000Y-139432452D01*
X87376000Y-138383102D01*
X87372082Y-138369758D01*
X87357806Y-138367771D01*
X87319324Y-138373660D01*
X87309288Y-138376051D01*
X87106868Y-138442212D01*
X87097359Y-138446209D01*
X86908463Y-138544542D01*
X86899738Y-138550036D01*
X86729433Y-138677905D01*
X86721726Y-138684748D01*
X86574590Y-138838717D01*
X86568104Y-138846727D01*
X86448098Y-139022649D01*
X86443000Y-139031623D01*
X86353338Y-139224783D01*
X86349775Y-139234470D01*
X86294389Y-139434183D01*
X68580000Y-139434183D01*
X68580000Y-135875262D01*
X71334520Y-135875262D01*
X71351759Y-136080553D01*
X71408544Y-136278586D01*
X71502712Y-136461818D01*
X71630677Y-136623270D01*
X71787564Y-136756791D01*
X71967398Y-136857297D01*
X72051120Y-136884500D01*
X72157471Y-136919056D01*
X72157475Y-136919057D01*
X72163329Y-136920959D01*
X72367894Y-136945351D01*
X72374029Y-136944879D01*
X72374031Y-136944879D01*
X72430039Y-136940569D01*
X72573300Y-136929546D01*
X72579230Y-136927890D01*
X72579232Y-136927890D01*
X72765797Y-136875800D01*
X72765796Y-136875800D01*
X72771725Y-136874145D01*
X72777214Y-136871372D01*
X72777220Y-136871370D01*
X72950116Y-136784033D01*
X72955610Y-136781258D01*
X73117951Y-136654424D01*
X73141394Y-136627265D01*
X73247919Y-136503854D01*
X73307572Y-136465357D01*
X73378569Y-136465221D01*
X73432396Y-136497090D01*
X74262150Y-137326844D01*
X74277820Y-137345936D01*
X74286298Y-137358624D01*
X74296611Y-137365515D01*
X74309299Y-137373993D01*
X74307710Y-137376370D01*
X74307712Y-137376371D01*
X74309300Y-137373994D01*
X74335454Y-137391469D01*
X74335456Y-137391472D01*
X74335457Y-137391471D01*
X74377427Y-137419515D01*
X74389596Y-137421936D01*
X74389597Y-137421936D01*
X74457789Y-137435500D01*
X74472750Y-137438476D01*
X74472751Y-137438476D01*
X74484922Y-137440897D01*
X74499883Y-137437921D01*
X74524465Y-137435500D01*
X75314043Y-137435500D01*
X75338625Y-137437921D01*
X75353586Y-137440897D01*
X75380718Y-137435500D01*
X75380719Y-137435500D01*
X75461081Y-137419515D01*
X75503051Y-137391471D01*
X75503051Y-137391472D01*
X75503054Y-137391469D01*
X75529208Y-137373994D01*
X75531775Y-137377835D01*
X75531776Y-137377834D01*
X75529209Y-137373993D01*
X75541897Y-137365515D01*
X75552210Y-137358624D01*
X75560688Y-137345936D01*
X75576358Y-137326844D01*
X78297239Y-134605963D01*
X84084757Y-134605963D01*
X84101175Y-134801483D01*
X84155258Y-134990091D01*
X84158076Y-134995574D01*
X84242123Y-135159113D01*
X84242126Y-135159117D01*
X84244944Y-135164601D01*
X84366818Y-135318369D01*
X84371511Y-135322363D01*
X84371512Y-135322364D01*
X84502169Y-135433561D01*
X84516238Y-135445535D01*
X84521616Y-135448541D01*
X84521618Y-135448542D01*
X84557803Y-135468765D01*
X84687513Y-135541257D01*
X84874118Y-135601889D01*
X85068946Y-135625121D01*
X85075081Y-135624649D01*
X85075083Y-135624649D01*
X85258434Y-135610541D01*
X85258438Y-135610540D01*
X85264576Y-135610068D01*
X85453556Y-135557303D01*
X85628689Y-135468837D01*
X85657761Y-135446124D01*
X85778453Y-135351829D01*
X85783303Y-135348040D01*
X85813084Y-135313539D01*
X85907485Y-135204173D01*
X85907485Y-135204172D01*
X85911509Y-135199511D01*
X86008425Y-135028909D01*
X86070358Y-134842732D01*
X86094949Y-134648071D01*
X86095341Y-134620000D01*
X86076194Y-134424728D01*
X86074413Y-134418829D01*
X86074412Y-134418824D01*
X86021265Y-134242793D01*
X86019484Y-134236894D01*
X85927370Y-134063653D01*
X85803361Y-133911602D01*
X85652180Y-133786535D01*
X85479585Y-133693213D01*
X85364460Y-133657576D01*
X85298039Y-133637015D01*
X85298036Y-133637014D01*
X85292152Y-133635193D01*
X85286027Y-133634549D01*
X85286026Y-133634549D01*
X85103147Y-133615327D01*
X85103146Y-133615327D01*
X85097019Y-133614683D01*
X84978161Y-133625500D01*
X84907759Y-133631907D01*
X84907758Y-133631907D01*
X84901618Y-133632466D01*
X84895704Y-133634207D01*
X84895702Y-133634207D01*
X84782458Y-133667537D01*
X84713393Y-133687864D01*
X84707928Y-133690721D01*
X84544972Y-133775912D01*
X84544968Y-133775915D01*
X84539512Y-133778767D01*
X84534712Y-133782627D01*
X84534711Y-133782627D01*
X84520337Y-133794184D01*
X84386600Y-133901711D01*
X84260480Y-134052016D01*
X84257516Y-134057408D01*
X84257513Y-134057412D01*
X84178813Y-134200567D01*
X84165956Y-134223954D01*
X84164095Y-134229821D01*
X84164094Y-134229823D01*
X84153657Y-134262726D01*
X84106628Y-134410978D01*
X84084757Y-134605963D01*
X78297239Y-134605963D01*
X80775884Y-132127318D01*
X80794976Y-132111648D01*
X80797347Y-132110064D01*
X80797348Y-132110063D01*
X80807664Y-132103170D01*
X80832526Y-132065963D01*
X84084757Y-132065963D01*
X84101175Y-132261483D01*
X84155258Y-132450091D01*
X84158076Y-132455574D01*
X84242123Y-132619113D01*
X84242126Y-132619117D01*
X84244944Y-132624601D01*
X84366818Y-132778369D01*
X84516238Y-132905535D01*
X84521616Y-132908541D01*
X84521618Y-132908542D01*
X84557803Y-132928765D01*
X84687513Y-133001257D01*
X84874118Y-133061889D01*
X85068946Y-133085121D01*
X85075081Y-133084649D01*
X85075083Y-133084649D01*
X85258434Y-133070541D01*
X85258438Y-133070540D01*
X85264576Y-133070068D01*
X85453556Y-133017303D01*
X85628689Y-132928837D01*
X85658515Y-132905535D01*
X85742026Y-132840289D01*
X85783303Y-132808040D01*
X85813084Y-132773539D01*
X85907485Y-132664173D01*
X85907485Y-132664172D01*
X85911509Y-132659511D01*
X85925064Y-132635651D01*
X85959765Y-132574566D01*
X86008425Y-132488909D01*
X86070358Y-132302732D01*
X86094949Y-132108071D01*
X86095341Y-132080000D01*
X86076194Y-131884728D01*
X86074413Y-131878829D01*
X86074412Y-131878824D01*
X86021265Y-131702793D01*
X86019484Y-131696894D01*
X85927370Y-131523653D01*
X85803361Y-131371602D01*
X85652180Y-131246535D01*
X85479585Y-131153213D01*
X85385869Y-131124203D01*
X85298039Y-131097015D01*
X85298036Y-131097014D01*
X85292152Y-131095193D01*
X85286027Y-131094549D01*
X85286026Y-131094549D01*
X85103147Y-131075327D01*
X85103146Y-131075327D01*
X85097019Y-131074683D01*
X85015356Y-131082115D01*
X84907759Y-131091907D01*
X84907758Y-131091907D01*
X84901618Y-131092466D01*
X84895704Y-131094207D01*
X84895702Y-131094207D01*
X84766734Y-131132165D01*
X84713393Y-131147864D01*
X84707928Y-131150721D01*
X84544972Y-131235912D01*
X84544968Y-131235915D01*
X84539512Y-131238767D01*
X84534712Y-131242627D01*
X84534711Y-131242627D01*
X84520863Y-131253761D01*
X84386600Y-131361711D01*
X84260480Y-131512016D01*
X84257516Y-131517408D01*
X84257513Y-131517412D01*
X84184915Y-131649467D01*
X84165956Y-131683954D01*
X84164095Y-131689821D01*
X84164094Y-131689823D01*
X84155427Y-131717146D01*
X84106628Y-131870978D01*
X84084757Y-132065963D01*
X80832526Y-132065963D01*
X80835590Y-132061377D01*
X80868555Y-132012041D01*
X80874208Y-131983624D01*
X80887516Y-131916717D01*
X80889937Y-131904546D01*
X80886961Y-131889585D01*
X80884540Y-131865003D01*
X80884540Y-129525963D01*
X84084757Y-129525963D01*
X84101175Y-129721483D01*
X84155258Y-129910091D01*
X84158076Y-129915574D01*
X84242123Y-130079113D01*
X84242126Y-130079117D01*
X84244944Y-130084601D01*
X84366818Y-130238369D01*
X84371511Y-130242363D01*
X84371512Y-130242364D01*
X84391182Y-130259104D01*
X84516238Y-130365535D01*
X84521616Y-130368541D01*
X84521618Y-130368542D01*
X84554740Y-130387053D01*
X84687513Y-130461257D01*
X84874118Y-130521889D01*
X85068946Y-130545121D01*
X85075081Y-130544649D01*
X85075083Y-130544649D01*
X85258434Y-130530541D01*
X85258438Y-130530540D01*
X85264576Y-130530068D01*
X85453556Y-130477303D01*
X85628689Y-130388837D01*
X85658515Y-130365535D01*
X85778453Y-130271829D01*
X85783303Y-130268040D01*
X85791017Y-130259104D01*
X85907485Y-130124173D01*
X85907485Y-130124172D01*
X85911509Y-130119511D01*
X85939082Y-130070975D01*
X85953606Y-130045408D01*
X86008425Y-129948909D01*
X86070358Y-129762732D01*
X86094949Y-129568071D01*
X86095341Y-129540000D01*
X86076194Y-129344728D01*
X86074413Y-129338829D01*
X86074412Y-129338824D01*
X86021265Y-129162793D01*
X86019484Y-129156894D01*
X85927370Y-128983653D01*
X85803361Y-128831602D01*
X85652180Y-128706535D01*
X85479585Y-128613213D01*
X85319647Y-128563704D01*
X85298039Y-128557015D01*
X85298036Y-128557014D01*
X85292152Y-128555193D01*
X85286027Y-128554549D01*
X85286026Y-128554549D01*
X85103147Y-128535327D01*
X85103146Y-128535327D01*
X85097019Y-128534683D01*
X84974383Y-128545844D01*
X84907759Y-128551907D01*
X84907758Y-128551907D01*
X84901618Y-128552466D01*
X84895704Y-128554207D01*
X84895702Y-128554207D01*
X84766734Y-128592165D01*
X84713393Y-128607864D01*
X84707928Y-128610721D01*
X84544972Y-128695912D01*
X84544968Y-128695915D01*
X84539512Y-128698767D01*
X84534712Y-128702627D01*
X84534711Y-128702627D01*
X84500326Y-128730273D01*
X84386600Y-128821711D01*
X84260480Y-128972016D01*
X84257516Y-128977408D01*
X84257513Y-128977412D01*
X84181847Y-129115048D01*
X84165956Y-129143954D01*
X84106628Y-129330978D01*
X84084757Y-129525963D01*
X80884540Y-129525963D01*
X80884540Y-126985963D01*
X84084757Y-126985963D01*
X84101175Y-127181483D01*
X84155258Y-127370091D01*
X84158076Y-127375574D01*
X84242123Y-127539113D01*
X84242126Y-127539117D01*
X84244944Y-127544601D01*
X84366818Y-127698369D01*
X84371511Y-127702363D01*
X84371512Y-127702364D01*
X84391182Y-127719104D01*
X84516238Y-127825535D01*
X84521616Y-127828541D01*
X84521618Y-127828542D01*
X84557932Y-127848837D01*
X84687513Y-127921257D01*
X84874118Y-127981889D01*
X85068946Y-128005121D01*
X85075081Y-128004649D01*
X85075083Y-128004649D01*
X85258434Y-127990541D01*
X85258438Y-127990540D01*
X85264576Y-127990068D01*
X85453556Y-127937303D01*
X85628689Y-127848837D01*
X85658515Y-127825535D01*
X85756026Y-127749351D01*
X85783303Y-127728040D01*
X85791017Y-127719104D01*
X85907485Y-127584173D01*
X85907485Y-127584172D01*
X85911509Y-127579511D01*
X86008425Y-127408909D01*
X86070358Y-127222732D01*
X86094949Y-127028071D01*
X86095341Y-127000000D01*
X86076194Y-126804728D01*
X86074413Y-126798829D01*
X86074412Y-126798824D01*
X86021265Y-126622793D01*
X86019484Y-126616894D01*
X85927370Y-126443653D01*
X85803361Y-126291602D01*
X85652180Y-126166535D01*
X85479585Y-126073213D01*
X85349164Y-126032841D01*
X85298039Y-126017015D01*
X85298036Y-126017014D01*
X85292152Y-126015193D01*
X85286027Y-126014549D01*
X85286026Y-126014549D01*
X85103147Y-125995327D01*
X85103146Y-125995327D01*
X85097019Y-125994683D01*
X84974383Y-126005844D01*
X84907759Y-126011907D01*
X84907758Y-126011907D01*
X84901618Y-126012466D01*
X84895704Y-126014207D01*
X84895702Y-126014207D01*
X84858314Y-126025211D01*
X84713393Y-126067864D01*
X84707928Y-126070721D01*
X84544972Y-126155912D01*
X84544968Y-126155915D01*
X84539512Y-126158767D01*
X84534712Y-126162627D01*
X84534711Y-126162627D01*
X84500326Y-126190273D01*
X84386600Y-126281711D01*
X84260480Y-126432016D01*
X84257516Y-126437408D01*
X84257513Y-126437412D01*
X84186439Y-126566695D01*
X84165956Y-126603954D01*
X84164095Y-126609821D01*
X84164094Y-126609823D01*
X84136389Y-126697159D01*
X84106628Y-126790978D01*
X84084757Y-126985963D01*
X80884540Y-126985963D01*
X80884540Y-124445963D01*
X84084757Y-124445963D01*
X84101175Y-124641483D01*
X84155258Y-124830091D01*
X84158076Y-124835574D01*
X84242123Y-124999113D01*
X84242126Y-124999117D01*
X84244944Y-125004601D01*
X84366818Y-125158369D01*
X84371511Y-125162363D01*
X84371512Y-125162364D01*
X84422155Y-125205464D01*
X84516238Y-125285535D01*
X84521616Y-125288541D01*
X84521618Y-125288542D01*
X84556907Y-125308264D01*
X84687513Y-125381257D01*
X84874118Y-125441889D01*
X85068946Y-125465121D01*
X85075081Y-125464649D01*
X85075083Y-125464649D01*
X85258434Y-125450541D01*
X85258438Y-125450540D01*
X85264576Y-125450068D01*
X85453556Y-125397303D01*
X85459056Y-125394525D01*
X85459058Y-125394524D01*
X85494481Y-125376631D01*
X85564303Y-125363771D01*
X85629994Y-125390701D01*
X85640386Y-125400002D01*
X89857595Y-129617211D01*
X89891621Y-129679523D01*
X89894500Y-129706306D01*
X89894500Y-138523500D01*
X89874498Y-138591621D01*
X89820842Y-138638114D01*
X89768500Y-138649500D01*
X89300252Y-138649500D01*
X89294184Y-138650707D01*
X89253939Y-138658712D01*
X89253938Y-138658712D01*
X89241769Y-138661133D01*
X89175448Y-138705448D01*
X89131133Y-138771769D01*
X89128712Y-138783938D01*
X89128712Y-138783939D01*
X89126677Y-138794169D01*
X89119500Y-138830252D01*
X89119500Y-139114016D01*
X89099498Y-139182137D01*
X89045842Y-139228630D01*
X88975568Y-139238734D01*
X88910988Y-139209240D01*
X88877950Y-139164258D01*
X88832972Y-139060814D01*
X88828105Y-139051739D01*
X88712426Y-138872926D01*
X88706136Y-138864757D01*
X88562806Y-138707240D01*
X88555273Y-138700215D01*
X88388139Y-138568222D01*
X88379552Y-138562517D01*
X88193117Y-138459599D01*
X88183705Y-138455369D01*
X87982959Y-138384280D01*
X87972988Y-138381646D01*
X87901837Y-138368972D01*
X87888540Y-138370432D01*
X87884000Y-138384989D01*
X87884000Y-141018517D01*
X87888064Y-141032359D01*
X87901478Y-141034393D01*
X87908184Y-141033534D01*
X87918262Y-141031392D01*
X88122255Y-140970191D01*
X88131842Y-140966433D01*
X88323095Y-140872739D01*
X88331945Y-140867464D01*
X88505328Y-140743792D01*
X88513200Y-140737139D01*
X88664052Y-140586812D01*
X88670730Y-140578965D01*
X88795003Y-140406020D01*
X88800313Y-140397183D01*
X88880543Y-140234851D01*
X88928657Y-140182644D01*
X88997358Y-140164737D01*
X89064834Y-140186816D01*
X89109663Y-140241870D01*
X89119500Y-140290678D01*
X89119500Y-140569748D01*
X89120707Y-140575816D01*
X89122911Y-140586894D01*
X89131133Y-140628231D01*
X89175448Y-140694552D01*
X89241769Y-140738867D01*
X89253938Y-140741288D01*
X89253939Y-140741288D01*
X89285074Y-140747481D01*
X89300252Y-140750500D01*
X91039748Y-140750500D01*
X91054926Y-140747481D01*
X91086061Y-140741288D01*
X91086062Y-140741288D01*
X91098231Y-140738867D01*
X91164552Y-140694552D01*
X91208867Y-140628231D01*
X91217090Y-140586894D01*
X91219293Y-140575816D01*
X91220500Y-140569748D01*
X91220500Y-138830252D01*
X91213323Y-138794169D01*
X91211288Y-138783939D01*
X91211288Y-138783938D01*
X91208867Y-138771769D01*
X91164552Y-138705448D01*
X91098231Y-138661133D01*
X91086062Y-138658712D01*
X91086061Y-138658712D01*
X91045816Y-138650707D01*
X91039748Y-138649500D01*
X90571500Y-138649500D01*
X90503379Y-138629498D01*
X90456886Y-138575842D01*
X90445500Y-138523500D01*
X90445500Y-138415963D01*
X100594757Y-138415963D01*
X100611175Y-138611483D01*
X100665258Y-138800091D01*
X100668076Y-138805574D01*
X100752123Y-138969113D01*
X100752126Y-138969117D01*
X100754944Y-138974601D01*
X100876818Y-139128369D01*
X100881511Y-139132363D01*
X100881512Y-139132364D01*
X101001487Y-139234470D01*
X101026238Y-139255535D01*
X101031616Y-139258541D01*
X101031618Y-139258542D01*
X101067932Y-139278837D01*
X101197513Y-139351257D01*
X101384118Y-139411889D01*
X101578946Y-139435121D01*
X101585081Y-139434649D01*
X101585083Y-139434649D01*
X101768434Y-139420541D01*
X101768438Y-139420540D01*
X101774576Y-139420068D01*
X101963556Y-139367303D01*
X102138689Y-139278837D01*
X102168515Y-139255535D01*
X102288453Y-139161829D01*
X102293303Y-139158040D01*
X102323084Y-139123539D01*
X102417485Y-139014173D01*
X102417485Y-139014172D01*
X102421509Y-139009511D01*
X102518425Y-138838909D01*
X102580358Y-138652732D01*
X102604949Y-138458071D01*
X102605341Y-138430000D01*
X102586194Y-138234728D01*
X102584413Y-138228829D01*
X102584412Y-138228824D01*
X102531265Y-138052793D01*
X102529484Y-138046894D01*
X102437370Y-137873653D01*
X102313361Y-137721602D01*
X102162180Y-137596535D01*
X101989585Y-137503213D01*
X101895869Y-137474203D01*
X101808039Y-137447015D01*
X101808036Y-137447014D01*
X101802152Y-137445193D01*
X101796027Y-137444549D01*
X101796026Y-137444549D01*
X101613147Y-137425327D01*
X101613146Y-137425327D01*
X101607019Y-137424683D01*
X101488161Y-137435500D01*
X101417759Y-137441907D01*
X101417758Y-137441907D01*
X101411618Y-137442466D01*
X101405704Y-137444207D01*
X101405702Y-137444207D01*
X101276734Y-137482165D01*
X101223393Y-137497864D01*
X101217928Y-137500721D01*
X101054972Y-137585912D01*
X101054968Y-137585915D01*
X101049512Y-137588767D01*
X101044712Y-137592627D01*
X101044711Y-137592627D01*
X101010326Y-137620273D01*
X100896600Y-137711711D01*
X100770480Y-137862016D01*
X100767516Y-137867408D01*
X100767513Y-137867412D01*
X100755046Y-137890090D01*
X100675956Y-138033954D01*
X100616628Y-138220978D01*
X100594757Y-138415963D01*
X90445500Y-138415963D01*
X90445500Y-135439748D01*
X91709500Y-135439748D01*
X91710707Y-135445816D01*
X91717514Y-135480035D01*
X91721133Y-135498231D01*
X91765448Y-135564552D01*
X91831769Y-135608867D01*
X91843938Y-135611288D01*
X91843939Y-135611288D01*
X91884184Y-135619293D01*
X91890252Y-135620500D01*
X93529748Y-135620500D01*
X93535816Y-135619293D01*
X93576061Y-135611288D01*
X93576062Y-135611288D01*
X93588231Y-135608867D01*
X93654552Y-135564552D01*
X93698867Y-135498231D01*
X93702487Y-135480035D01*
X93709293Y-135445816D01*
X93710500Y-135439748D01*
X93710500Y-133800252D01*
X93706226Y-133778767D01*
X93701288Y-133753939D01*
X93701288Y-133753938D01*
X93698867Y-133741769D01*
X93654552Y-133675448D01*
X93588231Y-133631133D01*
X93576062Y-133628712D01*
X93576061Y-133628712D01*
X93535816Y-133620707D01*
X93529748Y-133619500D01*
X91890252Y-133619500D01*
X91884184Y-133620707D01*
X91843939Y-133628712D01*
X91843938Y-133628712D01*
X91831769Y-133631133D01*
X91765448Y-133675448D01*
X91721133Y-133741769D01*
X91718712Y-133753938D01*
X91718712Y-133753939D01*
X91713774Y-133778767D01*
X91709500Y-133800252D01*
X91709500Y-135439748D01*
X90445500Y-135439748D01*
X90445500Y-132065963D01*
X91704757Y-132065963D01*
X91721175Y-132261483D01*
X91775258Y-132450091D01*
X91778076Y-132455574D01*
X91862123Y-132619113D01*
X91862126Y-132619117D01*
X91864944Y-132624601D01*
X91986818Y-132778369D01*
X92136238Y-132905535D01*
X92141616Y-132908541D01*
X92141618Y-132908542D01*
X92177803Y-132928765D01*
X92307513Y-133001257D01*
X92494118Y-133061889D01*
X92688946Y-133085121D01*
X92695081Y-133084649D01*
X92695083Y-133084649D01*
X92878434Y-133070541D01*
X92878438Y-133070540D01*
X92884576Y-133070068D01*
X93073556Y-133017303D01*
X93248689Y-132928837D01*
X93278515Y-132905535D01*
X93362026Y-132840289D01*
X93403303Y-132808040D01*
X93433084Y-132773539D01*
X93527485Y-132664173D01*
X93527485Y-132664172D01*
X93531509Y-132659511D01*
X93545064Y-132635651D01*
X93579765Y-132574566D01*
X93628425Y-132488909D01*
X93690358Y-132302732D01*
X93714949Y-132108071D01*
X93715341Y-132080000D01*
X93696194Y-131884728D01*
X93694413Y-131878829D01*
X93694412Y-131878824D01*
X93641265Y-131702793D01*
X93639484Y-131696894D01*
X93547370Y-131523653D01*
X93423361Y-131371602D01*
X93272180Y-131246535D01*
X93099585Y-131153213D01*
X93005869Y-131124203D01*
X92918039Y-131097015D01*
X92918036Y-131097014D01*
X92912152Y-131095193D01*
X92906027Y-131094549D01*
X92906026Y-131094549D01*
X92723147Y-131075327D01*
X92723146Y-131075327D01*
X92717019Y-131074683D01*
X92635356Y-131082115D01*
X92527759Y-131091907D01*
X92527758Y-131091907D01*
X92521618Y-131092466D01*
X92515704Y-131094207D01*
X92515702Y-131094207D01*
X92386734Y-131132165D01*
X92333393Y-131147864D01*
X92327928Y-131150721D01*
X92164972Y-131235912D01*
X92164968Y-131235915D01*
X92159512Y-131238767D01*
X92154712Y-131242627D01*
X92154711Y-131242627D01*
X92140863Y-131253761D01*
X92006600Y-131361711D01*
X91880480Y-131512016D01*
X91877516Y-131517408D01*
X91877513Y-131517412D01*
X91804915Y-131649467D01*
X91785956Y-131683954D01*
X91784095Y-131689821D01*
X91784094Y-131689823D01*
X91775427Y-131717146D01*
X91726628Y-131870978D01*
X91704757Y-132065963D01*
X90445500Y-132065963D01*
X90445500Y-129579543D01*
X90447921Y-129554961D01*
X90448476Y-129552171D01*
X90450897Y-129540000D01*
X90448105Y-129525963D01*
X91704757Y-129525963D01*
X91721175Y-129721483D01*
X91775258Y-129910091D01*
X91778076Y-129915574D01*
X91862123Y-130079113D01*
X91862126Y-130079117D01*
X91864944Y-130084601D01*
X91986818Y-130238369D01*
X91991511Y-130242363D01*
X91991512Y-130242364D01*
X92011182Y-130259104D01*
X92136238Y-130365535D01*
X92141616Y-130368541D01*
X92141618Y-130368542D01*
X92174740Y-130387053D01*
X92307513Y-130461257D01*
X92494118Y-130521889D01*
X92688946Y-130545121D01*
X92695081Y-130544649D01*
X92695083Y-130544649D01*
X92878434Y-130530541D01*
X92878438Y-130530540D01*
X92884576Y-130530068D01*
X93073556Y-130477303D01*
X93248689Y-130388837D01*
X93278515Y-130365535D01*
X93398453Y-130271829D01*
X93403303Y-130268040D01*
X93411017Y-130259104D01*
X93527485Y-130124173D01*
X93527485Y-130124172D01*
X93531509Y-130119511D01*
X93559082Y-130070975D01*
X93573606Y-130045408D01*
X93628425Y-129948909D01*
X93690358Y-129762732D01*
X93714949Y-129568071D01*
X93715341Y-129540000D01*
X93696194Y-129344728D01*
X93694413Y-129338829D01*
X93694412Y-129338824D01*
X93641265Y-129162793D01*
X93639484Y-129156894D01*
X93547370Y-128983653D01*
X93423361Y-128831602D01*
X93272180Y-128706535D01*
X93099585Y-128613213D01*
X92939647Y-128563704D01*
X92918039Y-128557015D01*
X92918036Y-128557014D01*
X92912152Y-128555193D01*
X92906027Y-128554549D01*
X92906026Y-128554549D01*
X92723147Y-128535327D01*
X92723146Y-128535327D01*
X92717019Y-128534683D01*
X92594383Y-128545844D01*
X92527759Y-128551907D01*
X92527758Y-128551907D01*
X92521618Y-128552466D01*
X92515704Y-128554207D01*
X92515702Y-128554207D01*
X92386734Y-128592165D01*
X92333393Y-128607864D01*
X92327928Y-128610721D01*
X92164972Y-128695912D01*
X92164968Y-128695915D01*
X92159512Y-128698767D01*
X92154712Y-128702627D01*
X92154711Y-128702627D01*
X92120326Y-128730273D01*
X92006600Y-128821711D01*
X91880480Y-128972016D01*
X91877516Y-128977408D01*
X91877513Y-128977412D01*
X91801847Y-129115048D01*
X91785956Y-129143954D01*
X91726628Y-129330978D01*
X91704757Y-129525963D01*
X90448105Y-129525963D01*
X90429515Y-129432506D01*
X90429515Y-129432505D01*
X90368624Y-129341376D01*
X90355936Y-129332898D01*
X90336844Y-129317228D01*
X88005579Y-126985963D01*
X91704757Y-126985963D01*
X91721175Y-127181483D01*
X91775258Y-127370091D01*
X91778076Y-127375574D01*
X91862123Y-127539113D01*
X91862126Y-127539117D01*
X91864944Y-127544601D01*
X91986818Y-127698369D01*
X91991511Y-127702363D01*
X91991512Y-127702364D01*
X92011182Y-127719104D01*
X92136238Y-127825535D01*
X92141616Y-127828541D01*
X92141618Y-127828542D01*
X92177932Y-127848837D01*
X92307513Y-127921257D01*
X92494118Y-127981889D01*
X92688946Y-128005121D01*
X92695081Y-128004649D01*
X92695083Y-128004649D01*
X92878434Y-127990541D01*
X92878438Y-127990540D01*
X92884576Y-127990068D01*
X93073556Y-127937303D01*
X93079056Y-127934525D01*
X93079058Y-127934524D01*
X93114481Y-127916631D01*
X93184303Y-127903771D01*
X93249994Y-127930701D01*
X93260386Y-127940002D01*
X105332718Y-140012334D01*
X105348385Y-140031423D01*
X105356865Y-140044113D01*
X105379866Y-140059482D01*
X105379867Y-140059483D01*
X105404380Y-140075862D01*
X105447994Y-140105004D01*
X105528356Y-140120989D01*
X105543317Y-140123965D01*
X105543318Y-140123965D01*
X105555489Y-140126386D01*
X105567660Y-140123965D01*
X105567662Y-140123965D01*
X105570452Y-140123410D01*
X105595032Y-140120989D01*
X109246375Y-140120989D01*
X109314496Y-140140991D01*
X109360989Y-140194647D01*
X109371093Y-140264921D01*
X109355492Y-140309993D01*
X109350587Y-140318488D01*
X109258510Y-140515947D01*
X109254764Y-140526239D01*
X109198375Y-140736688D01*
X109196472Y-140747481D01*
X109177483Y-140964525D01*
X109177483Y-140975475D01*
X109196472Y-141192519D01*
X109198375Y-141203312D01*
X109254764Y-141413761D01*
X109258510Y-141424053D01*
X109350586Y-141621511D01*
X109356069Y-141631006D01*
X109392509Y-141683048D01*
X109402988Y-141691424D01*
X109416434Y-141684356D01*
X110400905Y-140699885D01*
X110463217Y-140665859D01*
X110534032Y-140670924D01*
X110579095Y-140699885D01*
X111564287Y-141685077D01*
X111576062Y-141691507D01*
X111588077Y-141682211D01*
X111623931Y-141631006D01*
X111629414Y-141621511D01*
X111721490Y-141424053D01*
X111725236Y-141413761D01*
X111781625Y-141203312D01*
X111783528Y-141192519D01*
X111802517Y-140975475D01*
X111802517Y-140964525D01*
X111783528Y-140747481D01*
X111781625Y-140736688D01*
X111725236Y-140526239D01*
X111721490Y-140515947D01*
X111629413Y-140318488D01*
X111624508Y-140309993D01*
X111607768Y-140240998D01*
X111630986Y-140173905D01*
X111686792Y-140130016D01*
X111733625Y-140120989D01*
X119786081Y-140120989D01*
X119854202Y-140140991D01*
X119900695Y-140194647D01*
X119910799Y-140264921D01*
X119882603Y-140327980D01*
X119820480Y-140402016D01*
X119817516Y-140407408D01*
X119817513Y-140407412D01*
X119766399Y-140500388D01*
X119725956Y-140573954D01*
X119666628Y-140760978D01*
X119644757Y-140955963D01*
X119661175Y-141151483D01*
X119715258Y-141340091D01*
X119718076Y-141345574D01*
X119802123Y-141509113D01*
X119802126Y-141509117D01*
X119804944Y-141514601D01*
X119926818Y-141668369D01*
X119931511Y-141672363D01*
X119931512Y-141672364D01*
X119995845Y-141727115D01*
X120076238Y-141795535D01*
X120081616Y-141798541D01*
X120081618Y-141798542D01*
X120117932Y-141818837D01*
X120247513Y-141891257D01*
X120434118Y-141951889D01*
X120628946Y-141975121D01*
X120635081Y-141974649D01*
X120635083Y-141974649D01*
X120818434Y-141960541D01*
X120818438Y-141960540D01*
X120824576Y-141960068D01*
X121013556Y-141907303D01*
X121188689Y-141818837D01*
X121218515Y-141795535D01*
X121270153Y-141755191D01*
X121343303Y-141698040D01*
X121348677Y-141691815D01*
X121467485Y-141554173D01*
X121467485Y-141554172D01*
X121471509Y-141549511D01*
X121568425Y-141378909D01*
X121630358Y-141192732D01*
X121654949Y-140998071D01*
X121655341Y-140970000D01*
X121636194Y-140774728D01*
X121634413Y-140768829D01*
X121634412Y-140768824D01*
X121581265Y-140592793D01*
X121579484Y-140586894D01*
X121487370Y-140413653D01*
X121416390Y-140326622D01*
X121388837Y-140261193D01*
X121401033Y-140191252D01*
X121449105Y-140139006D01*
X121514034Y-140120989D01*
X127043500Y-140120989D01*
X127111621Y-140140991D01*
X127158114Y-140194647D01*
X127169500Y-140246989D01*
X127169500Y-141889748D01*
X127170707Y-141895816D01*
X127173322Y-141908960D01*
X127181133Y-141948231D01*
X127188026Y-141958547D01*
X127198785Y-141974649D01*
X127225448Y-142014552D01*
X127291769Y-142058867D01*
X127303938Y-142061288D01*
X127303939Y-142061288D01*
X127338071Y-142068077D01*
X127350252Y-142070500D01*
X129189748Y-142070500D01*
X129201929Y-142068077D01*
X129236061Y-142061288D01*
X129236062Y-142061288D01*
X129248231Y-142058867D01*
X129314552Y-142014552D01*
X129341215Y-141974649D01*
X129351974Y-141958547D01*
X129358867Y-141948231D01*
X129366679Y-141908960D01*
X129369293Y-141895816D01*
X129370500Y-141889748D01*
X129370500Y-140246989D01*
X129390502Y-140178868D01*
X129444158Y-140132375D01*
X129496500Y-140120989D01*
X129519183Y-140120989D01*
X129587304Y-140140991D01*
X129608278Y-140157894D01*
X129795175Y-140344791D01*
X129829201Y-140407103D01*
X129824136Y-140477918D01*
X129817593Y-140492544D01*
X129788914Y-140547053D01*
X129728937Y-140740213D01*
X129705164Y-140941069D01*
X129718392Y-141142894D01*
X129768178Y-141338928D01*
X129852856Y-141522607D01*
X129969588Y-141687780D01*
X130114466Y-141828913D01*
X130282637Y-141941282D01*
X130287940Y-141943560D01*
X130287943Y-141943562D01*
X130461552Y-142018150D01*
X130468470Y-142021122D01*
X130570844Y-142044287D01*
X130635278Y-142058867D01*
X130665740Y-142065760D01*
X130671509Y-142065987D01*
X130671512Y-142065987D01*
X130747683Y-142068979D01*
X130867842Y-142073700D01*
X130954131Y-142061189D01*
X131062286Y-142045508D01*
X131062291Y-142045507D01*
X131068007Y-142044678D01*
X131073479Y-142042820D01*
X131073481Y-142042820D01*
X131235299Y-141987890D01*
X144622093Y-141987890D01*
X144625876Y-141996666D01*
X145477188Y-142847978D01*
X145491132Y-142855592D01*
X145492965Y-142855461D01*
X145499580Y-142851210D01*
X146351080Y-141999710D01*
X146357840Y-141987330D01*
X146352113Y-141979680D01*
X146180958Y-141874795D01*
X146172163Y-141870313D01*
X145962012Y-141783266D01*
X145952627Y-141780217D01*
X145731446Y-141727115D01*
X145721699Y-141725572D01*
X145494930Y-141707725D01*
X145485070Y-141707725D01*
X145258301Y-141725572D01*
X145248554Y-141727115D01*
X145027373Y-141780217D01*
X145017988Y-141783266D01*
X144807837Y-141870313D01*
X144799042Y-141874795D01*
X144631555Y-141977432D01*
X144622093Y-141987890D01*
X131235299Y-141987890D01*
X131254067Y-141981519D01*
X131254069Y-141981518D01*
X131259531Y-141979664D01*
X131436001Y-141880837D01*
X131498433Y-141828913D01*
X131508625Y-141820436D01*
X131591505Y-141751505D01*
X131664666Y-141663539D01*
X131717146Y-141600439D01*
X131720837Y-141596001D01*
X131819664Y-141419531D01*
X131833454Y-141378909D01*
X131882820Y-141233481D01*
X131882820Y-141233479D01*
X131884678Y-141228007D01*
X131885507Y-141222291D01*
X131885508Y-141222286D01*
X131912750Y-141034393D01*
X131913700Y-141027842D01*
X131915215Y-140970000D01*
X131896708Y-140768591D01*
X131891266Y-140749293D01*
X131860032Y-140638547D01*
X131841807Y-140573926D01*
X131752351Y-140392527D01*
X131704152Y-140327980D01*
X131634788Y-140235091D01*
X131634787Y-140235090D01*
X131631335Y-140230467D01*
X131592585Y-140194647D01*
X131487053Y-140097094D01*
X131487051Y-140097092D01*
X131482812Y-140093174D01*
X131311757Y-139985246D01*
X131123898Y-139910298D01*
X130925526Y-139870839D01*
X130919752Y-139870763D01*
X130919748Y-139870763D01*
X130817257Y-139869422D01*
X130723286Y-139868192D01*
X130717589Y-139869171D01*
X130717588Y-139869171D01*
X130529646Y-139901465D01*
X130529645Y-139901465D01*
X130523949Y-139902444D01*
X130488408Y-139915556D01*
X130339619Y-139970447D01*
X130339617Y-139970448D01*
X130334193Y-139972449D01*
X130329219Y-139975408D01*
X130325509Y-139977178D01*
X130255413Y-139988454D01*
X130190349Y-139960043D01*
X130182165Y-139952549D01*
X129908261Y-139678645D01*
X129892591Y-139659553D01*
X129891004Y-139657178D01*
X129884113Y-139646865D01*
X129861112Y-139631496D01*
X129862701Y-139629119D01*
X129862699Y-139629118D01*
X129861111Y-139631495D01*
X129834957Y-139614020D01*
X129834955Y-139614017D01*
X129834954Y-139614018D01*
X129803300Y-139592867D01*
X129792984Y-139585974D01*
X129780815Y-139583553D01*
X129780814Y-139583553D01*
X129712622Y-139569989D01*
X129697661Y-139567013D01*
X129697660Y-139567013D01*
X129685489Y-139564592D01*
X129673318Y-139567013D01*
X129670528Y-139567568D01*
X129645946Y-139569989D01*
X105721795Y-139569989D01*
X105653674Y-139549987D01*
X105632700Y-139533084D01*
X104788056Y-138688440D01*
X137784770Y-138688440D01*
X137799200Y-138908604D01*
X137800621Y-138914200D01*
X137800622Y-138914205D01*
X137852090Y-139116857D01*
X137853511Y-139122452D01*
X137855928Y-139127694D01*
X137855928Y-139127695D01*
X137916250Y-139258542D01*
X137945883Y-139322821D01*
X138073222Y-139503002D01*
X138231264Y-139656961D01*
X138236060Y-139660166D01*
X138236063Y-139660168D01*
X138320261Y-139716427D01*
X138414717Y-139779540D01*
X138420020Y-139781818D01*
X138420023Y-139781820D01*
X138612129Y-139864355D01*
X138617436Y-139866635D01*
X138697088Y-139884658D01*
X138826995Y-139914054D01*
X138827001Y-139914055D01*
X138832632Y-139915329D01*
X138838403Y-139915556D01*
X138838405Y-139915556D01*
X138906211Y-139918220D01*
X139053098Y-139923991D01*
X139162275Y-139908161D01*
X139265738Y-139893160D01*
X139265743Y-139893159D01*
X139271452Y-139892331D01*
X139276916Y-139890476D01*
X139276921Y-139890475D01*
X139474907Y-139823268D01*
X139474912Y-139823266D01*
X139480379Y-139821410D01*
X139672884Y-139713602D01*
X139725471Y-139669866D01*
X139838086Y-139576204D01*
X139842518Y-139572518D01*
X139950565Y-139442607D01*
X139979908Y-139407326D01*
X139979910Y-139407323D01*
X139983602Y-139402884D01*
X140055194Y-139275048D01*
X140088586Y-139215422D01*
X140088587Y-139215420D01*
X140091410Y-139210379D01*
X140093266Y-139204912D01*
X140093268Y-139204907D01*
X140160475Y-139006921D01*
X140160476Y-139006916D01*
X140162331Y-139001452D01*
X140163159Y-138995743D01*
X140163160Y-138995738D01*
X140185899Y-138838909D01*
X140193991Y-138783098D01*
X140195643Y-138720000D01*
X140192743Y-138688440D01*
X144284770Y-138688440D01*
X144299200Y-138908604D01*
X144300621Y-138914200D01*
X144300622Y-138914205D01*
X144352090Y-139116857D01*
X144353511Y-139122452D01*
X144355928Y-139127694D01*
X144355928Y-139127695D01*
X144416250Y-139258542D01*
X144445883Y-139322821D01*
X144573222Y-139503002D01*
X144731264Y-139656961D01*
X144736060Y-139660166D01*
X144736063Y-139660168D01*
X144820261Y-139716427D01*
X144914717Y-139779540D01*
X144920020Y-139781818D01*
X144920023Y-139781820D01*
X145112129Y-139864355D01*
X145117436Y-139866635D01*
X145197088Y-139884658D01*
X145326995Y-139914054D01*
X145327001Y-139914055D01*
X145332632Y-139915329D01*
X145338403Y-139915556D01*
X145338405Y-139915556D01*
X145406211Y-139918220D01*
X145553098Y-139923991D01*
X145662275Y-139908161D01*
X145765738Y-139893160D01*
X145765743Y-139893159D01*
X145771452Y-139892331D01*
X145776916Y-139890476D01*
X145776921Y-139890475D01*
X145974907Y-139823268D01*
X145974912Y-139823266D01*
X145980379Y-139821410D01*
X146172884Y-139713602D01*
X146225471Y-139669866D01*
X146338086Y-139576204D01*
X146342518Y-139572518D01*
X146450565Y-139442607D01*
X146479908Y-139407326D01*
X146479910Y-139407323D01*
X146483602Y-139402884D01*
X146555194Y-139275048D01*
X146588586Y-139215422D01*
X146588587Y-139215420D01*
X146591410Y-139210379D01*
X146593266Y-139204912D01*
X146593268Y-139204907D01*
X146660475Y-139006921D01*
X146660476Y-139006916D01*
X146662331Y-139001452D01*
X146663159Y-138995743D01*
X146663160Y-138995738D01*
X146685899Y-138838909D01*
X146693991Y-138783098D01*
X146695643Y-138720000D01*
X146675454Y-138500289D01*
X146663548Y-138458071D01*
X146638419Y-138368972D01*
X146615565Y-138287936D01*
X146517980Y-138090053D01*
X146485752Y-138046894D01*
X146389420Y-137917891D01*
X146389420Y-137917890D01*
X146385967Y-137913267D01*
X146223949Y-137763499D01*
X146037350Y-137645764D01*
X145832421Y-137564006D01*
X145826761Y-137562880D01*
X145826757Y-137562879D01*
X145621691Y-137522089D01*
X145621688Y-137522089D01*
X145616024Y-137520962D01*
X145610249Y-137520886D01*
X145610245Y-137520886D01*
X145499504Y-137519437D01*
X145395406Y-137518074D01*
X145389709Y-137519053D01*
X145389708Y-137519053D01*
X145183654Y-137554459D01*
X145183653Y-137554459D01*
X145177957Y-137555438D01*
X144970957Y-137631804D01*
X144965996Y-137634756D01*
X144965995Y-137634756D01*
X144820021Y-137721602D01*
X144781341Y-137744614D01*
X144615457Y-137890090D01*
X144478863Y-138063360D01*
X144376131Y-138258620D01*
X144310703Y-138469333D01*
X144284770Y-138688440D01*
X140192743Y-138688440D01*
X140175454Y-138500289D01*
X140163548Y-138458071D01*
X140138419Y-138368972D01*
X140115565Y-138287936D01*
X140017980Y-138090053D01*
X139985752Y-138046894D01*
X139889420Y-137917891D01*
X139889420Y-137917890D01*
X139885967Y-137913267D01*
X139723949Y-137763499D01*
X139537350Y-137645764D01*
X139332421Y-137564006D01*
X139326761Y-137562880D01*
X139326757Y-137562879D01*
X139121691Y-137522089D01*
X139121688Y-137522089D01*
X139116024Y-137520962D01*
X139110249Y-137520886D01*
X139110245Y-137520886D01*
X138999504Y-137519437D01*
X138895406Y-137518074D01*
X138889709Y-137519053D01*
X138889708Y-137519053D01*
X138683654Y-137554459D01*
X138683653Y-137554459D01*
X138677957Y-137555438D01*
X138470957Y-137631804D01*
X138465996Y-137634756D01*
X138465995Y-137634756D01*
X138320021Y-137721602D01*
X138281341Y-137744614D01*
X138115457Y-137890090D01*
X137978863Y-138063360D01*
X137876131Y-138258620D01*
X137810703Y-138469333D01*
X137784770Y-138688440D01*
X104788056Y-138688440D01*
X100392286Y-134292670D01*
X144622160Y-134292670D01*
X144627887Y-134300320D01*
X144799042Y-134405205D01*
X144807837Y-134409687D01*
X145017988Y-134496734D01*
X145027373Y-134499783D01*
X145248554Y-134552885D01*
X145258301Y-134554428D01*
X145485070Y-134572275D01*
X145494930Y-134572275D01*
X145721699Y-134554428D01*
X145731446Y-134552885D01*
X145952627Y-134499783D01*
X145962012Y-134496734D01*
X146172163Y-134409687D01*
X146180958Y-134405205D01*
X146348445Y-134302568D01*
X146357907Y-134292110D01*
X146354124Y-134283334D01*
X145502812Y-133432022D01*
X145488868Y-133424408D01*
X145487035Y-133424539D01*
X145480420Y-133428790D01*
X144628920Y-134280290D01*
X144622160Y-134292670D01*
X100392286Y-134292670D01*
X99128056Y-133028440D01*
X137784770Y-133028440D01*
X137799200Y-133248604D01*
X137800621Y-133254200D01*
X137800622Y-133254205D01*
X137843849Y-133424408D01*
X137853511Y-133462452D01*
X137855928Y-133467694D01*
X137855928Y-133467695D01*
X137892248Y-133546478D01*
X137945883Y-133662821D01*
X138073222Y-133843002D01*
X138231264Y-133996961D01*
X138236060Y-134000166D01*
X138236063Y-134000168D01*
X138323916Y-134058869D01*
X138414717Y-134119540D01*
X138420020Y-134121818D01*
X138420023Y-134121820D01*
X138612129Y-134204355D01*
X138617436Y-134206635D01*
X138675608Y-134219798D01*
X138826995Y-134254054D01*
X138827001Y-134254055D01*
X138832632Y-134255329D01*
X138838403Y-134255556D01*
X138838405Y-134255556D01*
X138906211Y-134258220D01*
X139053098Y-134263991D01*
X139186035Y-134244716D01*
X139265738Y-134233160D01*
X139265743Y-134233159D01*
X139271452Y-134232331D01*
X139276916Y-134230476D01*
X139276921Y-134230475D01*
X139474907Y-134163268D01*
X139474912Y-134163266D01*
X139480379Y-134161410D01*
X139672884Y-134053602D01*
X139842518Y-133912518D01*
X139948818Y-133784707D01*
X139979908Y-133747326D01*
X139979910Y-133747323D01*
X139983602Y-133742884D01*
X140091410Y-133550379D01*
X140093266Y-133544912D01*
X140093268Y-133544907D01*
X140160475Y-133346921D01*
X140160476Y-133346916D01*
X140162331Y-133341452D01*
X140163159Y-133335743D01*
X140163160Y-133335738D01*
X140182346Y-133203413D01*
X140193991Y-133123098D01*
X140195514Y-133064930D01*
X143977725Y-133064930D01*
X143995572Y-133291699D01*
X143997115Y-133301446D01*
X144050217Y-133522627D01*
X144053266Y-133532012D01*
X144140313Y-133742163D01*
X144144795Y-133750958D01*
X144247432Y-133918445D01*
X144257890Y-133927907D01*
X144266666Y-133924124D01*
X145117978Y-133072812D01*
X145124356Y-133061132D01*
X145854408Y-133061132D01*
X145854539Y-133062965D01*
X145858790Y-133069580D01*
X146710290Y-133921080D01*
X146722670Y-133927840D01*
X146730320Y-133922113D01*
X146835205Y-133750958D01*
X146839687Y-133742163D01*
X146926734Y-133532012D01*
X146929783Y-133522627D01*
X146982885Y-133301446D01*
X146984428Y-133291699D01*
X147002275Y-133064930D01*
X147002275Y-133055070D01*
X146984428Y-132828301D01*
X146982885Y-132818554D01*
X146929783Y-132597373D01*
X146926734Y-132587988D01*
X146839687Y-132377837D01*
X146835205Y-132369042D01*
X146732568Y-132201555D01*
X146722110Y-132192093D01*
X146713334Y-132195876D01*
X145862022Y-133047188D01*
X145854408Y-133061132D01*
X145124356Y-133061132D01*
X145125592Y-133058868D01*
X145125461Y-133057035D01*
X145121210Y-133050420D01*
X144269710Y-132198920D01*
X144257330Y-132192160D01*
X144249680Y-132197887D01*
X144144795Y-132369042D01*
X144140313Y-132377837D01*
X144053266Y-132587988D01*
X144050217Y-132597373D01*
X143997115Y-132818554D01*
X143995572Y-132828301D01*
X143977725Y-133055070D01*
X143977725Y-133064930D01*
X140195514Y-133064930D01*
X140195643Y-133060000D01*
X140175454Y-132840289D01*
X140115565Y-132627936D01*
X140017980Y-132430053D01*
X139922905Y-132302732D01*
X139889420Y-132257891D01*
X139889420Y-132257890D01*
X139885967Y-132253267D01*
X139782054Y-132157211D01*
X139728189Y-132107418D01*
X139728186Y-132107416D01*
X139723949Y-132103499D01*
X139537350Y-131985764D01*
X139332421Y-131904006D01*
X139326761Y-131902880D01*
X139326757Y-131902879D01*
X139121691Y-131862089D01*
X139121688Y-131862089D01*
X139116024Y-131860962D01*
X139110249Y-131860886D01*
X139110245Y-131860886D01*
X138999504Y-131859437D01*
X138895406Y-131858074D01*
X138889709Y-131859053D01*
X138889708Y-131859053D01*
X138683654Y-131894459D01*
X138683653Y-131894459D01*
X138677957Y-131895438D01*
X138470957Y-131971804D01*
X138465996Y-131974756D01*
X138465995Y-131974756D01*
X138292514Y-132077967D01*
X138281341Y-132084614D01*
X138115457Y-132230090D01*
X137978863Y-132403360D01*
X137876131Y-132598620D01*
X137810703Y-132809333D01*
X137784770Y-133028440D01*
X99128056Y-133028440D01*
X97176138Y-131076522D01*
X109207273Y-131076522D01*
X109254764Y-131253761D01*
X109258510Y-131264053D01*
X109350586Y-131461511D01*
X109356069Y-131471007D01*
X109481028Y-131649467D01*
X109488084Y-131657875D01*
X109642125Y-131811916D01*
X109650533Y-131818972D01*
X109828993Y-131943931D01*
X109838489Y-131949414D01*
X110035947Y-132041490D01*
X110046239Y-132045236D01*
X110218503Y-132091394D01*
X110232599Y-132091058D01*
X110236000Y-132083116D01*
X110236000Y-132077967D01*
X110744000Y-132077967D01*
X110747973Y-132091498D01*
X110756522Y-132092727D01*
X110933761Y-132045236D01*
X110944053Y-132041490D01*
X111141511Y-131949414D01*
X111151007Y-131943931D01*
X111329467Y-131818972D01*
X111337875Y-131811916D01*
X111491916Y-131657875D01*
X111498972Y-131649467D01*
X111623931Y-131471007D01*
X111629414Y-131461511D01*
X111721490Y-131264053D01*
X111725236Y-131253761D01*
X111771394Y-131081497D01*
X111771058Y-131067401D01*
X111763116Y-131064000D01*
X110762115Y-131064000D01*
X110746876Y-131068475D01*
X110745671Y-131069865D01*
X110744000Y-131077548D01*
X110744000Y-132077967D01*
X110236000Y-132077967D01*
X110236000Y-131082115D01*
X110231525Y-131066876D01*
X110230135Y-131065671D01*
X110222452Y-131064000D01*
X109222033Y-131064000D01*
X109208502Y-131067973D01*
X109207273Y-131076522D01*
X97176138Y-131076522D01*
X96895579Y-130795963D01*
X119644757Y-130795963D01*
X119661175Y-130991483D01*
X119715258Y-131180091D01*
X119732200Y-131213056D01*
X119802123Y-131349113D01*
X119802126Y-131349117D01*
X119804944Y-131354601D01*
X119926818Y-131508369D01*
X119931511Y-131512363D01*
X119931512Y-131512364D01*
X120061726Y-131623184D01*
X120076238Y-131635535D01*
X120081616Y-131638541D01*
X120081618Y-131638542D01*
X120150057Y-131676791D01*
X120247513Y-131731257D01*
X120434118Y-131791889D01*
X120628946Y-131815121D01*
X120635081Y-131814649D01*
X120635083Y-131814649D01*
X120818434Y-131800541D01*
X120818438Y-131800540D01*
X120824576Y-131800068D01*
X121013556Y-131747303D01*
X121048309Y-131729748D01*
X127169500Y-131729748D01*
X127170707Y-131735816D01*
X127173322Y-131748960D01*
X127181133Y-131788231D01*
X127188026Y-131798547D01*
X127198785Y-131814649D01*
X127225448Y-131854552D01*
X127235761Y-131861443D01*
X127281027Y-131891689D01*
X127291769Y-131898867D01*
X127303938Y-131901288D01*
X127303939Y-131901288D01*
X127328363Y-131906146D01*
X127350252Y-131910500D01*
X129189748Y-131910500D01*
X129211637Y-131906146D01*
X129236061Y-131901288D01*
X129236062Y-131901288D01*
X129248231Y-131898867D01*
X129258974Y-131891689D01*
X129304239Y-131861443D01*
X129314552Y-131854552D01*
X129341215Y-131814649D01*
X129351974Y-131798547D01*
X129358867Y-131788231D01*
X129366679Y-131748960D01*
X129369293Y-131735816D01*
X129370500Y-131729748D01*
X129370500Y-130781069D01*
X129705164Y-130781069D01*
X129718392Y-130982894D01*
X129733876Y-131043863D01*
X129761185Y-131151391D01*
X129768178Y-131178928D01*
X129852856Y-131362607D01*
X129856189Y-131367323D01*
X129962261Y-131517412D01*
X129969588Y-131527780D01*
X130114466Y-131668913D01*
X130282637Y-131781282D01*
X130287940Y-131783560D01*
X130287943Y-131783562D01*
X130463163Y-131858842D01*
X130468470Y-131861122D01*
X130599901Y-131890862D01*
X130635278Y-131898867D01*
X130665740Y-131905760D01*
X130671509Y-131905987D01*
X130671512Y-131905987D01*
X130747683Y-131908979D01*
X130867842Y-131913700D01*
X130954132Y-131901189D01*
X131062286Y-131885508D01*
X131062291Y-131885507D01*
X131068007Y-131884678D01*
X131073479Y-131882820D01*
X131073481Y-131882820D01*
X131235299Y-131827890D01*
X144622093Y-131827890D01*
X144625876Y-131836666D01*
X145477188Y-132687978D01*
X145491132Y-132695592D01*
X145492965Y-132695461D01*
X145499580Y-132691210D01*
X146351080Y-131839710D01*
X146357840Y-131827330D01*
X146352113Y-131819680D01*
X146180958Y-131714795D01*
X146172163Y-131710313D01*
X145962012Y-131623266D01*
X145952627Y-131620217D01*
X145731446Y-131567115D01*
X145721699Y-131565572D01*
X145494930Y-131547725D01*
X145485070Y-131547725D01*
X145258301Y-131565572D01*
X145248554Y-131567115D01*
X145027373Y-131620217D01*
X145017988Y-131623266D01*
X144807837Y-131710313D01*
X144799042Y-131714795D01*
X144631555Y-131817432D01*
X144622093Y-131827890D01*
X131235299Y-131827890D01*
X131254067Y-131821519D01*
X131254069Y-131821518D01*
X131259531Y-131819664D01*
X131436001Y-131720837D01*
X131482343Y-131682295D01*
X131508625Y-131660436D01*
X131591505Y-131591505D01*
X131691897Y-131470797D01*
X131717146Y-131440439D01*
X131720837Y-131436001D01*
X131819664Y-131259531D01*
X131826713Y-131238767D01*
X131882820Y-131073481D01*
X131882820Y-131073479D01*
X131884678Y-131068007D01*
X131885507Y-131062291D01*
X131885508Y-131062286D01*
X131913167Y-130871516D01*
X131913700Y-130867842D01*
X131915215Y-130810000D01*
X131896708Y-130608591D01*
X131841807Y-130413926D01*
X131752351Y-130232527D01*
X131734079Y-130208057D01*
X131634788Y-130075091D01*
X131634787Y-130075090D01*
X131631335Y-130070467D01*
X131622469Y-130062271D01*
X131487053Y-129937094D01*
X131487051Y-129937092D01*
X131482812Y-129933174D01*
X131454918Y-129915574D01*
X131316637Y-129828325D01*
X131311757Y-129825246D01*
X131123898Y-129750298D01*
X130925526Y-129710839D01*
X130919752Y-129710763D01*
X130919748Y-129710763D01*
X130817257Y-129709422D01*
X130723286Y-129708192D01*
X130717589Y-129709171D01*
X130717588Y-129709171D01*
X130529646Y-129741465D01*
X130529645Y-129741465D01*
X130523949Y-129742444D01*
X130334193Y-129812449D01*
X130329232Y-129815401D01*
X130329231Y-129815401D01*
X130203418Y-129890252D01*
X130160371Y-129915862D01*
X130008305Y-130049220D01*
X129883089Y-130208057D01*
X129788914Y-130387053D01*
X129728937Y-130580213D01*
X129705164Y-130781069D01*
X129370500Y-130781069D01*
X129370500Y-129890252D01*
X129358867Y-129831769D01*
X129314552Y-129765448D01*
X129280125Y-129742444D01*
X129258547Y-129728026D01*
X129248231Y-129721133D01*
X129236062Y-129718712D01*
X129236061Y-129718712D01*
X129195816Y-129710707D01*
X129189748Y-129709500D01*
X127350252Y-129709500D01*
X127344184Y-129710707D01*
X127303939Y-129718712D01*
X127303938Y-129718712D01*
X127291769Y-129721133D01*
X127281453Y-129728026D01*
X127259875Y-129742444D01*
X127225448Y-129765448D01*
X127181133Y-129831769D01*
X127169500Y-129890252D01*
X127169500Y-131729748D01*
X121048309Y-131729748D01*
X121188689Y-131658837D01*
X121218515Y-131635535D01*
X121270153Y-131595191D01*
X121343303Y-131538040D01*
X121348677Y-131531815D01*
X121467485Y-131394173D01*
X121467485Y-131394172D01*
X121471509Y-131389511D01*
X121568425Y-131218909D01*
X121630358Y-131032732D01*
X121654949Y-130838071D01*
X121655341Y-130810000D01*
X121636194Y-130614728D01*
X121634413Y-130608829D01*
X121634412Y-130608824D01*
X121581265Y-130432793D01*
X121579484Y-130426894D01*
X121487370Y-130253653D01*
X121363361Y-130101602D01*
X121212180Y-129976535D01*
X121039585Y-129883213D01*
X120912711Y-129843939D01*
X120858039Y-129827015D01*
X120858036Y-129827014D01*
X120852152Y-129825193D01*
X120846027Y-129824549D01*
X120846026Y-129824549D01*
X120663147Y-129805327D01*
X120663146Y-129805327D01*
X120657019Y-129804683D01*
X120571686Y-129812449D01*
X120467759Y-129821907D01*
X120467758Y-129821907D01*
X120461618Y-129822466D01*
X120455704Y-129824207D01*
X120455702Y-129824207D01*
X120388659Y-129843939D01*
X120273393Y-129877864D01*
X120267928Y-129880721D01*
X120104972Y-129965912D01*
X120104968Y-129965915D01*
X120099512Y-129968767D01*
X120094712Y-129972627D01*
X120094711Y-129972627D01*
X120074045Y-129989243D01*
X119946600Y-130091711D01*
X119820480Y-130242016D01*
X119817516Y-130247408D01*
X119817513Y-130247412D01*
X119743558Y-130381937D01*
X119725956Y-130413954D01*
X119666628Y-130600978D01*
X119644757Y-130795963D01*
X96895579Y-130795963D01*
X96638119Y-130538503D01*
X109208606Y-130538503D01*
X109208942Y-130552599D01*
X109216884Y-130556000D01*
X110217885Y-130556000D01*
X110233124Y-130551525D01*
X110234329Y-130550135D01*
X110236000Y-130542452D01*
X110236000Y-130537885D01*
X110744000Y-130537885D01*
X110748475Y-130553124D01*
X110749865Y-130554329D01*
X110757548Y-130556000D01*
X111757967Y-130556000D01*
X111771498Y-130552027D01*
X111772727Y-130543478D01*
X111725236Y-130366239D01*
X111721490Y-130355947D01*
X111629414Y-130158489D01*
X111623931Y-130148993D01*
X111498972Y-129970533D01*
X111491916Y-129962125D01*
X111337875Y-129808084D01*
X111329467Y-129801028D01*
X111151007Y-129676069D01*
X111141511Y-129670586D01*
X110944053Y-129578510D01*
X110933761Y-129574764D01*
X110761497Y-129528606D01*
X110747401Y-129528942D01*
X110744000Y-129536884D01*
X110744000Y-130537885D01*
X110236000Y-130537885D01*
X110236000Y-129542033D01*
X110232027Y-129528502D01*
X110223478Y-129527273D01*
X110046239Y-129574764D01*
X110035947Y-129578510D01*
X109838489Y-129670586D01*
X109828993Y-129676069D01*
X109650533Y-129801028D01*
X109642125Y-129808084D01*
X109488084Y-129962125D01*
X109481028Y-129970533D01*
X109356069Y-130148993D01*
X109350586Y-130158489D01*
X109258510Y-130355947D01*
X109254764Y-130366239D01*
X109208606Y-130538503D01*
X96638119Y-130538503D01*
X94355579Y-128255963D01*
X100594757Y-128255963D01*
X100611175Y-128451483D01*
X100665258Y-128640091D01*
X100668076Y-128645574D01*
X100752123Y-128809113D01*
X100752126Y-128809117D01*
X100754944Y-128814601D01*
X100876818Y-128968369D01*
X100881511Y-128972363D01*
X100881512Y-128972364D01*
X100901182Y-128989104D01*
X101026238Y-129095535D01*
X101031616Y-129098541D01*
X101031618Y-129098542D01*
X101067932Y-129118837D01*
X101197513Y-129191257D01*
X101384118Y-129251889D01*
X101578946Y-129275121D01*
X101585081Y-129274649D01*
X101585083Y-129274649D01*
X101768434Y-129260541D01*
X101768438Y-129260540D01*
X101774576Y-129260068D01*
X101963556Y-129207303D01*
X102138689Y-129118837D01*
X102168515Y-129095535D01*
X102288453Y-129001829D01*
X102293303Y-128998040D01*
X102301017Y-128989104D01*
X102417485Y-128854173D01*
X102417485Y-128854172D01*
X102421509Y-128849511D01*
X102518425Y-128678909D01*
X102568479Y-128528440D01*
X137784770Y-128528440D01*
X137799200Y-128748604D01*
X137800621Y-128754200D01*
X137800622Y-128754205D01*
X137824827Y-128849511D01*
X137853511Y-128962452D01*
X137855928Y-128967694D01*
X137855928Y-128967695D01*
X137916250Y-129098542D01*
X137945883Y-129162821D01*
X138073222Y-129343002D01*
X138231264Y-129496961D01*
X138236060Y-129500166D01*
X138236063Y-129500168D01*
X138337688Y-129568071D01*
X138414717Y-129619540D01*
X138420020Y-129621818D01*
X138420023Y-129621820D01*
X138554331Y-129679523D01*
X138617436Y-129706635D01*
X138670809Y-129718712D01*
X138826995Y-129754054D01*
X138827001Y-129754055D01*
X138832632Y-129755329D01*
X138838403Y-129755556D01*
X138838405Y-129755556D01*
X138906211Y-129758220D01*
X139053098Y-129763991D01*
X139162275Y-129748161D01*
X139265738Y-129733160D01*
X139265743Y-129733159D01*
X139271452Y-129732331D01*
X139276916Y-129730476D01*
X139276921Y-129730475D01*
X139474907Y-129663268D01*
X139474912Y-129663266D01*
X139480379Y-129661410D01*
X139493404Y-129654116D01*
X139626563Y-129579543D01*
X139672884Y-129553602D01*
X139686795Y-129542033D01*
X139838086Y-129416204D01*
X139842518Y-129412518D01*
X139904256Y-129338287D01*
X139979908Y-129247326D01*
X139979910Y-129247323D01*
X139983602Y-129242884D01*
X140055194Y-129115048D01*
X140088586Y-129055422D01*
X140088587Y-129055420D01*
X140091410Y-129050379D01*
X140093266Y-129044912D01*
X140093268Y-129044907D01*
X140160475Y-128846921D01*
X140160476Y-128846916D01*
X140162331Y-128841452D01*
X140163159Y-128835743D01*
X140163160Y-128835738D01*
X140193458Y-128626772D01*
X140193991Y-128623098D01*
X140195643Y-128560000D01*
X140192743Y-128528440D01*
X144284770Y-128528440D01*
X144299200Y-128748604D01*
X144300621Y-128754200D01*
X144300622Y-128754205D01*
X144324827Y-128849511D01*
X144353511Y-128962452D01*
X144355928Y-128967694D01*
X144355928Y-128967695D01*
X144416250Y-129098542D01*
X144445883Y-129162821D01*
X144573222Y-129343002D01*
X144731264Y-129496961D01*
X144736060Y-129500166D01*
X144736063Y-129500168D01*
X144837688Y-129568071D01*
X144914717Y-129619540D01*
X144920020Y-129621818D01*
X144920023Y-129621820D01*
X145054331Y-129679523D01*
X145117436Y-129706635D01*
X145170809Y-129718712D01*
X145326995Y-129754054D01*
X145327001Y-129754055D01*
X145332632Y-129755329D01*
X145338403Y-129755556D01*
X145338405Y-129755556D01*
X145406211Y-129758220D01*
X145553098Y-129763991D01*
X145662275Y-129748161D01*
X145765738Y-129733160D01*
X145765743Y-129733159D01*
X145771452Y-129732331D01*
X145776916Y-129730476D01*
X145776921Y-129730475D01*
X145974907Y-129663268D01*
X145974912Y-129663266D01*
X145980379Y-129661410D01*
X145993404Y-129654116D01*
X146126563Y-129579543D01*
X146172884Y-129553602D01*
X146186795Y-129542033D01*
X146338086Y-129416204D01*
X146342518Y-129412518D01*
X146404256Y-129338287D01*
X146479908Y-129247326D01*
X146479910Y-129247323D01*
X146483602Y-129242884D01*
X146555194Y-129115048D01*
X146588586Y-129055422D01*
X146588587Y-129055420D01*
X146591410Y-129050379D01*
X146593266Y-129044912D01*
X146593268Y-129044907D01*
X146660475Y-128846921D01*
X146660476Y-128846916D01*
X146662331Y-128841452D01*
X146663159Y-128835743D01*
X146663160Y-128835738D01*
X146693458Y-128626772D01*
X146693991Y-128623098D01*
X146695643Y-128560000D01*
X146675454Y-128340289D01*
X146663548Y-128298071D01*
X146617134Y-128133500D01*
X146615565Y-128127936D01*
X146517980Y-127930053D01*
X146512834Y-127923161D01*
X146389420Y-127757891D01*
X146389420Y-127757890D01*
X146385967Y-127753267D01*
X146223949Y-127603499D01*
X146037350Y-127485764D01*
X145832421Y-127404006D01*
X145826761Y-127402880D01*
X145826757Y-127402879D01*
X145621691Y-127362089D01*
X145621688Y-127362089D01*
X145616024Y-127360962D01*
X145610249Y-127360886D01*
X145610245Y-127360886D01*
X145499504Y-127359437D01*
X145395406Y-127358074D01*
X145389709Y-127359053D01*
X145389708Y-127359053D01*
X145183654Y-127394459D01*
X145183653Y-127394459D01*
X145177957Y-127395438D01*
X144970957Y-127471804D01*
X144965996Y-127474756D01*
X144965995Y-127474756D01*
X144820021Y-127561602D01*
X144781341Y-127584614D01*
X144615457Y-127730090D01*
X144478863Y-127903360D01*
X144376131Y-128098620D01*
X144310703Y-128309333D01*
X144284770Y-128528440D01*
X140192743Y-128528440D01*
X140175454Y-128340289D01*
X140163548Y-128298071D01*
X140117134Y-128133500D01*
X140115565Y-128127936D01*
X140017980Y-127930053D01*
X140012834Y-127923161D01*
X139889420Y-127757891D01*
X139889420Y-127757890D01*
X139885967Y-127753267D01*
X139723949Y-127603499D01*
X139537350Y-127485764D01*
X139332421Y-127404006D01*
X139326761Y-127402880D01*
X139326757Y-127402879D01*
X139121691Y-127362089D01*
X139121688Y-127362089D01*
X139116024Y-127360962D01*
X139110249Y-127360886D01*
X139110245Y-127360886D01*
X138999504Y-127359437D01*
X138895406Y-127358074D01*
X138889709Y-127359053D01*
X138889708Y-127359053D01*
X138683654Y-127394459D01*
X138683653Y-127394459D01*
X138677957Y-127395438D01*
X138470957Y-127471804D01*
X138465996Y-127474756D01*
X138465995Y-127474756D01*
X138320021Y-127561602D01*
X138281341Y-127584614D01*
X138115457Y-127730090D01*
X137978863Y-127903360D01*
X137876131Y-128098620D01*
X137810703Y-128309333D01*
X137784770Y-128528440D01*
X102568479Y-128528440D01*
X102580358Y-128492732D01*
X102604949Y-128298071D01*
X102605341Y-128270000D01*
X102586194Y-128074728D01*
X102584413Y-128068829D01*
X102584412Y-128068824D01*
X102531265Y-127892793D01*
X102529484Y-127886894D01*
X102437370Y-127713653D01*
X102313361Y-127561602D01*
X102162180Y-127436535D01*
X101989585Y-127343213D01*
X101983696Y-127341390D01*
X101964242Y-127335368D01*
X101905082Y-127296118D01*
X101876534Y-127231114D01*
X101875500Y-127215003D01*
X101875500Y-124096670D01*
X144420160Y-124096670D01*
X144425887Y-124104320D01*
X144597042Y-124209205D01*
X144605837Y-124213687D01*
X144815988Y-124300734D01*
X144825373Y-124303783D01*
X145046554Y-124356885D01*
X145056301Y-124358428D01*
X145283070Y-124376275D01*
X145292930Y-124376275D01*
X145519699Y-124358428D01*
X145529446Y-124356885D01*
X145750627Y-124303783D01*
X145760012Y-124300734D01*
X145970163Y-124213687D01*
X145978958Y-124209205D01*
X146146445Y-124106568D01*
X146155907Y-124096110D01*
X146152124Y-124087334D01*
X145300812Y-123236022D01*
X145286868Y-123228408D01*
X145285035Y-123228539D01*
X145278420Y-123232790D01*
X144426920Y-124084290D01*
X144420160Y-124096670D01*
X101875500Y-124096670D01*
X101875500Y-122832440D01*
X137582770Y-122832440D01*
X137597200Y-123052604D01*
X137598621Y-123058200D01*
X137598622Y-123058205D01*
X137641849Y-123228408D01*
X137651511Y-123266452D01*
X137653928Y-123271694D01*
X137653928Y-123271695D01*
X137692046Y-123354379D01*
X137743883Y-123466821D01*
X137871222Y-123647002D01*
X138029264Y-123800961D01*
X138034060Y-123804166D01*
X138034063Y-123804168D01*
X138118261Y-123860427D01*
X138212717Y-123923540D01*
X138218020Y-123925818D01*
X138218023Y-123925820D01*
X138410129Y-124008355D01*
X138415436Y-124010635D01*
X138495088Y-124028658D01*
X138624995Y-124058054D01*
X138625001Y-124058055D01*
X138630632Y-124059329D01*
X138636403Y-124059556D01*
X138636405Y-124059556D01*
X138704211Y-124062220D01*
X138851098Y-124067991D01*
X138960275Y-124052161D01*
X139063738Y-124037160D01*
X139063743Y-124037159D01*
X139069452Y-124036331D01*
X139074916Y-124034476D01*
X139074921Y-124034475D01*
X139272907Y-123967268D01*
X139272912Y-123967266D01*
X139278379Y-123965410D01*
X139470884Y-123857602D01*
X139640518Y-123716518D01*
X139781602Y-123546884D01*
X139889410Y-123354379D01*
X139891266Y-123348912D01*
X139891268Y-123348907D01*
X139958475Y-123150921D01*
X139958476Y-123150916D01*
X139960331Y-123145452D01*
X139961159Y-123139743D01*
X139961160Y-123139738D01*
X139991458Y-122930772D01*
X139991991Y-122927098D01*
X139993514Y-122868930D01*
X143775725Y-122868930D01*
X143793572Y-123095699D01*
X143795115Y-123105446D01*
X143848217Y-123326627D01*
X143851266Y-123336012D01*
X143938313Y-123546163D01*
X143942795Y-123554958D01*
X144045432Y-123722445D01*
X144055890Y-123731907D01*
X144064666Y-123728124D01*
X144915978Y-122876812D01*
X144922356Y-122865132D01*
X145652408Y-122865132D01*
X145652539Y-122866965D01*
X145656790Y-122873580D01*
X146508290Y-123725080D01*
X146520670Y-123731840D01*
X146528320Y-123726113D01*
X146633205Y-123554958D01*
X146637687Y-123546163D01*
X146724734Y-123336012D01*
X146727783Y-123326627D01*
X146780885Y-123105446D01*
X146782428Y-123095699D01*
X146800275Y-122868930D01*
X146800275Y-122859070D01*
X146782428Y-122632301D01*
X146780885Y-122622554D01*
X146727783Y-122401373D01*
X146724734Y-122391988D01*
X146637687Y-122181837D01*
X146633205Y-122173042D01*
X146530568Y-122005555D01*
X146520110Y-121996093D01*
X146511334Y-121999876D01*
X145660022Y-122851188D01*
X145652408Y-122865132D01*
X144922356Y-122865132D01*
X144923592Y-122862868D01*
X144923461Y-122861035D01*
X144919210Y-122854420D01*
X144067710Y-122002920D01*
X144055330Y-121996160D01*
X144047680Y-122001887D01*
X143942795Y-122173042D01*
X143938313Y-122181837D01*
X143851266Y-122391988D01*
X143848217Y-122401373D01*
X143795115Y-122622554D01*
X143793572Y-122632301D01*
X143775725Y-122859070D01*
X143775725Y-122868930D01*
X139993514Y-122868930D01*
X139993643Y-122864000D01*
X139973454Y-122644289D01*
X139913565Y-122431936D01*
X139815980Y-122234053D01*
X139683967Y-122057267D01*
X139562026Y-121944546D01*
X139526189Y-121911418D01*
X139526186Y-121911416D01*
X139521949Y-121907499D01*
X139335350Y-121789764D01*
X139130421Y-121708006D01*
X139124761Y-121706880D01*
X139124757Y-121706879D01*
X138919691Y-121666089D01*
X138919688Y-121666089D01*
X138914024Y-121664962D01*
X138908249Y-121664886D01*
X138908245Y-121664886D01*
X138797504Y-121663437D01*
X138693406Y-121662074D01*
X138687709Y-121663053D01*
X138687708Y-121663053D01*
X138481654Y-121698459D01*
X138481653Y-121698459D01*
X138475957Y-121699438D01*
X138268957Y-121775804D01*
X138079341Y-121888614D01*
X137913457Y-122034090D01*
X137776863Y-122207360D01*
X137674131Y-122402620D01*
X137608703Y-122613333D01*
X137582770Y-122832440D01*
X101875500Y-122832440D01*
X101875500Y-121707086D01*
X101895502Y-121638965D01*
X101949158Y-121592472D01*
X101955941Y-121589611D01*
X101957615Y-121588962D01*
X101963556Y-121587303D01*
X101969642Y-121584229D01*
X102099646Y-121518559D01*
X102138689Y-121498837D01*
X102168515Y-121475535D01*
X102221320Y-121434279D01*
X102293303Y-121378040D01*
X102298677Y-121371815D01*
X102417485Y-121234173D01*
X102417485Y-121234172D01*
X102421509Y-121229511D01*
X102518425Y-121058909D01*
X102565791Y-120916522D01*
X109207273Y-120916522D01*
X109254764Y-121093761D01*
X109258510Y-121104053D01*
X109350586Y-121301511D01*
X109356069Y-121311007D01*
X109481028Y-121489467D01*
X109488084Y-121497875D01*
X109642125Y-121651916D01*
X109650533Y-121658972D01*
X109828993Y-121783931D01*
X109838489Y-121789414D01*
X110035947Y-121881490D01*
X110046239Y-121885236D01*
X110218503Y-121931394D01*
X110232599Y-121931058D01*
X110236000Y-121923116D01*
X110236000Y-121917967D01*
X110744000Y-121917967D01*
X110747973Y-121931498D01*
X110756522Y-121932727D01*
X110933761Y-121885236D01*
X110944053Y-121881490D01*
X111141511Y-121789414D01*
X111151007Y-121783931D01*
X111329467Y-121658972D01*
X111337875Y-121651916D01*
X111491916Y-121497875D01*
X111498972Y-121489467D01*
X111623931Y-121311007D01*
X111629414Y-121301511D01*
X111721490Y-121104053D01*
X111725236Y-121093761D01*
X111771394Y-120921497D01*
X111771058Y-120907401D01*
X111763116Y-120904000D01*
X110762115Y-120904000D01*
X110746876Y-120908475D01*
X110745671Y-120909865D01*
X110744000Y-120917548D01*
X110744000Y-121917967D01*
X110236000Y-121917967D01*
X110236000Y-120922115D01*
X110231525Y-120906876D01*
X110230135Y-120905671D01*
X110222452Y-120904000D01*
X109222033Y-120904000D01*
X109208502Y-120907973D01*
X109207273Y-120916522D01*
X102565791Y-120916522D01*
X102580358Y-120872732D01*
X102604949Y-120678071D01*
X102605341Y-120650000D01*
X102603965Y-120635963D01*
X119644757Y-120635963D01*
X119661175Y-120831483D01*
X119715258Y-121020091D01*
X119718076Y-121025574D01*
X119802123Y-121189113D01*
X119802126Y-121189117D01*
X119804944Y-121194601D01*
X119926818Y-121348369D01*
X119931511Y-121352363D01*
X119931512Y-121352364D01*
X120057039Y-121459195D01*
X120076238Y-121475535D01*
X120081616Y-121478541D01*
X120081618Y-121478542D01*
X120116211Y-121497875D01*
X120247513Y-121571257D01*
X120434118Y-121631889D01*
X120628946Y-121655121D01*
X120635081Y-121654649D01*
X120635083Y-121654649D01*
X120818434Y-121640541D01*
X120818438Y-121640540D01*
X120824576Y-121640068D01*
X121013556Y-121587303D01*
X121048309Y-121569748D01*
X127169500Y-121569748D01*
X127170707Y-121575816D01*
X127173646Y-121590589D01*
X127181133Y-121628231D01*
X127188026Y-121638547D01*
X127198785Y-121654649D01*
X127225448Y-121694552D01*
X127291769Y-121738867D01*
X127303938Y-121741288D01*
X127303939Y-121741288D01*
X127344184Y-121749293D01*
X127350252Y-121750500D01*
X129189748Y-121750500D01*
X129195816Y-121749293D01*
X129236061Y-121741288D01*
X129236062Y-121741288D01*
X129248231Y-121738867D01*
X129314552Y-121694552D01*
X129341215Y-121654649D01*
X129351974Y-121638547D01*
X129358867Y-121628231D01*
X129366355Y-121590589D01*
X129369293Y-121575816D01*
X129370500Y-121569748D01*
X129370500Y-120621069D01*
X129705164Y-120621069D01*
X129718392Y-120822894D01*
X129736689Y-120894940D01*
X129761185Y-120991391D01*
X129768178Y-121018928D01*
X129852856Y-121202607D01*
X129856189Y-121207323D01*
X129962261Y-121357412D01*
X129969588Y-121367780D01*
X130114466Y-121508913D01*
X130119270Y-121512123D01*
X130141716Y-121527121D01*
X130282637Y-121621282D01*
X130287940Y-121623560D01*
X130287943Y-121623562D01*
X130441882Y-121689699D01*
X130468470Y-121701122D01*
X130564361Y-121722820D01*
X130635278Y-121738867D01*
X130665740Y-121745760D01*
X130671509Y-121745987D01*
X130671512Y-121745987D01*
X130747683Y-121748979D01*
X130867842Y-121753700D01*
X130954132Y-121741189D01*
X131062286Y-121725508D01*
X131062291Y-121725507D01*
X131068007Y-121724678D01*
X131073479Y-121722820D01*
X131073481Y-121722820D01*
X131254067Y-121661519D01*
X131254069Y-121661518D01*
X131259531Y-121659664D01*
X131309126Y-121631890D01*
X144420093Y-121631890D01*
X144423876Y-121640666D01*
X145275188Y-122491978D01*
X145289132Y-122499592D01*
X145290965Y-122499461D01*
X145297580Y-122495210D01*
X146149080Y-121643710D01*
X146155840Y-121631330D01*
X146150113Y-121623680D01*
X145978958Y-121518795D01*
X145970163Y-121514313D01*
X145760012Y-121427266D01*
X145750627Y-121424217D01*
X145529446Y-121371115D01*
X145519699Y-121369572D01*
X145292930Y-121351725D01*
X145283070Y-121351725D01*
X145056301Y-121369572D01*
X145046554Y-121371115D01*
X144825373Y-121424217D01*
X144815988Y-121427266D01*
X144605837Y-121514313D01*
X144597042Y-121518795D01*
X144429555Y-121621432D01*
X144420093Y-121631890D01*
X131309126Y-121631890D01*
X131436001Y-121560837D01*
X131486835Y-121518559D01*
X131508625Y-121500436D01*
X131591505Y-121431505D01*
X131720837Y-121276001D01*
X131819664Y-121099531D01*
X131826713Y-121078767D01*
X131882820Y-120913481D01*
X131882820Y-120913479D01*
X131884678Y-120908007D01*
X131885507Y-120902291D01*
X131885508Y-120902286D01*
X131913167Y-120711516D01*
X131913700Y-120707842D01*
X131915215Y-120650000D01*
X131896708Y-120448591D01*
X131841807Y-120253926D01*
X131752351Y-120072527D01*
X131734079Y-120048057D01*
X131634788Y-119915091D01*
X131634787Y-119915090D01*
X131631335Y-119910467D01*
X131608350Y-119889220D01*
X131487053Y-119777094D01*
X131487051Y-119777092D01*
X131482812Y-119773174D01*
X131454918Y-119755574D01*
X131316637Y-119668325D01*
X131311757Y-119665246D01*
X131123898Y-119590298D01*
X130925526Y-119550839D01*
X130919752Y-119550763D01*
X130919748Y-119550763D01*
X130817257Y-119549422D01*
X130723286Y-119548192D01*
X130717589Y-119549171D01*
X130717588Y-119549171D01*
X130529646Y-119581465D01*
X130529645Y-119581465D01*
X130523949Y-119582444D01*
X130334193Y-119652449D01*
X130329232Y-119655401D01*
X130329231Y-119655401D01*
X130191136Y-119737559D01*
X130160371Y-119755862D01*
X130008305Y-119889220D01*
X129883089Y-120048057D01*
X129788914Y-120227053D01*
X129728937Y-120420213D01*
X129705164Y-120621069D01*
X129370500Y-120621069D01*
X129370500Y-119730252D01*
X129358867Y-119671769D01*
X129314552Y-119605448D01*
X129280125Y-119582444D01*
X129258547Y-119568026D01*
X129248231Y-119561133D01*
X129236062Y-119558712D01*
X129236061Y-119558712D01*
X129195816Y-119550707D01*
X129189748Y-119549500D01*
X127350252Y-119549500D01*
X127344184Y-119550707D01*
X127303939Y-119558712D01*
X127303938Y-119558712D01*
X127291769Y-119561133D01*
X127281453Y-119568026D01*
X127259875Y-119582444D01*
X127225448Y-119605448D01*
X127181133Y-119671769D01*
X127169500Y-119730252D01*
X127169500Y-121569748D01*
X121048309Y-121569748D01*
X121188689Y-121498837D01*
X121218515Y-121475535D01*
X121271320Y-121434279D01*
X121343303Y-121378040D01*
X121348677Y-121371815D01*
X121467485Y-121234173D01*
X121467485Y-121234172D01*
X121471509Y-121229511D01*
X121568425Y-121058909D01*
X121630358Y-120872732D01*
X121654949Y-120678071D01*
X121655341Y-120650000D01*
X121636194Y-120454728D01*
X121634413Y-120448829D01*
X121634412Y-120448824D01*
X121581265Y-120272793D01*
X121579484Y-120266894D01*
X121487370Y-120093653D01*
X121363361Y-119941602D01*
X121212180Y-119816535D01*
X121039585Y-119723213D01*
X120912711Y-119683939D01*
X120858039Y-119667015D01*
X120858036Y-119667014D01*
X120852152Y-119665193D01*
X120846027Y-119664549D01*
X120846026Y-119664549D01*
X120663147Y-119645327D01*
X120663146Y-119645327D01*
X120657019Y-119644683D01*
X120571686Y-119652449D01*
X120467759Y-119661907D01*
X120467758Y-119661907D01*
X120461618Y-119662466D01*
X120455704Y-119664207D01*
X120455702Y-119664207D01*
X120349148Y-119695568D01*
X120273393Y-119717864D01*
X120267928Y-119720721D01*
X120104972Y-119805912D01*
X120104968Y-119805915D01*
X120099512Y-119808767D01*
X120094712Y-119812627D01*
X120094711Y-119812627D01*
X120080863Y-119823761D01*
X119946600Y-119931711D01*
X119820480Y-120082016D01*
X119817516Y-120087408D01*
X119817513Y-120087412D01*
X119744915Y-120219467D01*
X119725956Y-120253954D01*
X119724095Y-120259821D01*
X119724094Y-120259823D01*
X119713906Y-120291939D01*
X119666628Y-120440978D01*
X119644757Y-120635963D01*
X102603965Y-120635963D01*
X102586194Y-120454728D01*
X102584413Y-120448829D01*
X102584412Y-120448824D01*
X102563181Y-120378503D01*
X109208606Y-120378503D01*
X109208942Y-120392599D01*
X109216884Y-120396000D01*
X110217885Y-120396000D01*
X110233124Y-120391525D01*
X110234329Y-120390135D01*
X110236000Y-120382452D01*
X110236000Y-120377885D01*
X110744000Y-120377885D01*
X110748475Y-120393124D01*
X110749865Y-120394329D01*
X110757548Y-120396000D01*
X111757967Y-120396000D01*
X111771498Y-120392027D01*
X111772727Y-120383478D01*
X111725236Y-120206239D01*
X111721490Y-120195947D01*
X111629414Y-119998489D01*
X111623931Y-119988993D01*
X111498972Y-119810533D01*
X111491916Y-119802125D01*
X111337875Y-119648084D01*
X111329467Y-119641028D01*
X111151007Y-119516069D01*
X111141511Y-119510586D01*
X110944053Y-119418510D01*
X110933761Y-119414764D01*
X110761497Y-119368606D01*
X110747401Y-119368942D01*
X110744000Y-119376884D01*
X110744000Y-120377885D01*
X110236000Y-120377885D01*
X110236000Y-119382033D01*
X110232027Y-119368502D01*
X110223478Y-119367273D01*
X110046239Y-119414764D01*
X110035947Y-119418510D01*
X109838489Y-119510586D01*
X109828993Y-119516069D01*
X109650533Y-119641028D01*
X109642125Y-119648084D01*
X109488084Y-119802125D01*
X109481028Y-119810533D01*
X109356069Y-119988993D01*
X109350586Y-119998489D01*
X109258510Y-120195947D01*
X109254764Y-120206239D01*
X109208606Y-120378503D01*
X102563181Y-120378503D01*
X102551033Y-120338267D01*
X102529484Y-120266894D01*
X102519833Y-120248743D01*
X102518837Y-120246869D01*
X102504518Y-120177331D01*
X102530067Y-120111091D01*
X102540994Y-120098622D01*
X104307176Y-118332440D01*
X137582770Y-118332440D01*
X137597200Y-118552604D01*
X137598621Y-118558200D01*
X137598622Y-118558205D01*
X137650090Y-118760857D01*
X137651511Y-118766452D01*
X137653928Y-118771694D01*
X137653928Y-118771695D01*
X137692046Y-118854379D01*
X137743883Y-118966821D01*
X137871222Y-119147002D01*
X138029264Y-119300961D01*
X138034060Y-119304166D01*
X138034063Y-119304168D01*
X138150597Y-119382033D01*
X138212717Y-119423540D01*
X138218020Y-119425818D01*
X138218023Y-119425820D01*
X138410129Y-119508355D01*
X138415436Y-119510635D01*
X138495088Y-119528658D01*
X138624995Y-119558054D01*
X138625001Y-119558055D01*
X138630632Y-119559329D01*
X138636403Y-119559556D01*
X138636405Y-119559556D01*
X138704211Y-119562220D01*
X138851098Y-119567991D01*
X138970303Y-119550707D01*
X139063738Y-119537160D01*
X139063743Y-119537159D01*
X139069452Y-119536331D01*
X139074916Y-119534476D01*
X139074921Y-119534475D01*
X139272907Y-119467268D01*
X139272912Y-119467266D01*
X139278379Y-119465410D01*
X139470884Y-119357602D01*
X139640518Y-119216518D01*
X139673304Y-119177097D01*
X139777908Y-119051326D01*
X139777910Y-119051323D01*
X139781602Y-119046884D01*
X139889410Y-118854379D01*
X139891266Y-118848912D01*
X139891268Y-118848907D01*
X139958475Y-118650921D01*
X139958476Y-118650916D01*
X139960331Y-118645452D01*
X139961159Y-118639743D01*
X139961160Y-118639738D01*
X139980346Y-118507413D01*
X139991991Y-118427098D01*
X139993643Y-118364000D01*
X139990743Y-118332440D01*
X144082770Y-118332440D01*
X144097200Y-118552604D01*
X144098621Y-118558200D01*
X144098622Y-118558205D01*
X144150090Y-118760857D01*
X144151511Y-118766452D01*
X144153928Y-118771694D01*
X144153928Y-118771695D01*
X144192046Y-118854379D01*
X144243883Y-118966821D01*
X144371222Y-119147002D01*
X144529264Y-119300961D01*
X144534060Y-119304166D01*
X144534063Y-119304168D01*
X144650597Y-119382033D01*
X144712717Y-119423540D01*
X144718020Y-119425818D01*
X144718023Y-119425820D01*
X144910129Y-119508355D01*
X144915436Y-119510635D01*
X144995088Y-119528658D01*
X145124995Y-119558054D01*
X145125001Y-119558055D01*
X145130632Y-119559329D01*
X145136403Y-119559556D01*
X145136405Y-119559556D01*
X145204211Y-119562220D01*
X145351098Y-119567991D01*
X145470303Y-119550707D01*
X145563738Y-119537160D01*
X145563743Y-119537159D01*
X145569452Y-119536331D01*
X145574916Y-119534476D01*
X145574921Y-119534475D01*
X145772907Y-119467268D01*
X145772912Y-119467266D01*
X145778379Y-119465410D01*
X145970884Y-119357602D01*
X146140518Y-119216518D01*
X146173304Y-119177097D01*
X146277908Y-119051326D01*
X146277910Y-119051323D01*
X146281602Y-119046884D01*
X146389410Y-118854379D01*
X146391266Y-118848912D01*
X146391268Y-118848907D01*
X146458475Y-118650921D01*
X146458476Y-118650916D01*
X146460331Y-118645452D01*
X146461159Y-118639743D01*
X146461160Y-118639738D01*
X146480346Y-118507413D01*
X146491991Y-118427098D01*
X146493643Y-118364000D01*
X146473454Y-118144289D01*
X146469883Y-118131625D01*
X146415134Y-117937500D01*
X146413565Y-117931936D01*
X146315980Y-117734053D01*
X146282216Y-117688837D01*
X146187420Y-117561891D01*
X146187420Y-117561890D01*
X146183967Y-117557267D01*
X146039987Y-117424173D01*
X146026189Y-117411418D01*
X146026186Y-117411416D01*
X146021949Y-117407499D01*
X145835350Y-117289764D01*
X145630421Y-117208006D01*
X145624761Y-117206880D01*
X145624757Y-117206879D01*
X145419691Y-117166089D01*
X145419688Y-117166089D01*
X145414024Y-117164962D01*
X145408249Y-117164886D01*
X145408245Y-117164886D01*
X145297504Y-117163437D01*
X145193406Y-117162074D01*
X145187709Y-117163053D01*
X145187708Y-117163053D01*
X144981654Y-117198459D01*
X144981653Y-117198459D01*
X144975957Y-117199438D01*
X144768957Y-117275804D01*
X144763996Y-117278756D01*
X144763995Y-117278756D01*
X144595311Y-117379113D01*
X144579341Y-117388614D01*
X144413457Y-117534090D01*
X144276863Y-117707360D01*
X144174131Y-117902620D01*
X144108703Y-118113333D01*
X144082770Y-118332440D01*
X139990743Y-118332440D01*
X139973454Y-118144289D01*
X139969883Y-118131625D01*
X139915134Y-117937500D01*
X139913565Y-117931936D01*
X139815980Y-117734053D01*
X139782216Y-117688837D01*
X139687420Y-117561891D01*
X139687420Y-117561890D01*
X139683967Y-117557267D01*
X139539987Y-117424173D01*
X139526189Y-117411418D01*
X139526186Y-117411416D01*
X139521949Y-117407499D01*
X139335350Y-117289764D01*
X139130421Y-117208006D01*
X139124761Y-117206880D01*
X139124757Y-117206879D01*
X138919691Y-117166089D01*
X138919688Y-117166089D01*
X138914024Y-117164962D01*
X138908249Y-117164886D01*
X138908245Y-117164886D01*
X138797504Y-117163437D01*
X138693406Y-117162074D01*
X138687709Y-117163053D01*
X138687708Y-117163053D01*
X138481654Y-117198459D01*
X138481653Y-117198459D01*
X138475957Y-117199438D01*
X138268957Y-117275804D01*
X138263996Y-117278756D01*
X138263995Y-117278756D01*
X138095311Y-117379113D01*
X138079341Y-117388614D01*
X137913457Y-117534090D01*
X137776863Y-117707360D01*
X137674131Y-117902620D01*
X137608703Y-118113333D01*
X137582770Y-118332440D01*
X104307176Y-118332440D01*
X106846844Y-115792772D01*
X106865936Y-115777102D01*
X106868307Y-115775518D01*
X106868308Y-115775517D01*
X106878624Y-115768624D01*
X106939515Y-115677495D01*
X106955500Y-115597133D01*
X106955500Y-115597132D01*
X106960897Y-115570000D01*
X106957921Y-115555039D01*
X106955500Y-115530457D01*
X106955500Y-113972670D01*
X144622160Y-113972670D01*
X144627887Y-113980320D01*
X144799042Y-114085205D01*
X144807837Y-114089687D01*
X145017988Y-114176734D01*
X145027373Y-114179783D01*
X145248554Y-114232885D01*
X145258301Y-114234428D01*
X145485070Y-114252275D01*
X145494930Y-114252275D01*
X145721699Y-114234428D01*
X145731446Y-114232885D01*
X145952627Y-114179783D01*
X145962012Y-114176734D01*
X146172163Y-114089687D01*
X146180958Y-114085205D01*
X146348445Y-113982568D01*
X146357907Y-113972110D01*
X146354124Y-113963334D01*
X145502812Y-113112022D01*
X145488868Y-113104408D01*
X145487035Y-113104539D01*
X145480420Y-113108790D01*
X144628920Y-113960290D01*
X144622160Y-113972670D01*
X106955500Y-113972670D01*
X106955500Y-112708440D01*
X137784770Y-112708440D01*
X137799200Y-112928604D01*
X137800621Y-112934200D01*
X137800622Y-112934205D01*
X137843849Y-113104408D01*
X137853511Y-113142452D01*
X137855928Y-113147694D01*
X137855928Y-113147695D01*
X137894046Y-113230379D01*
X137945883Y-113342821D01*
X138073222Y-113523002D01*
X138231264Y-113676961D01*
X138236060Y-113680166D01*
X138236063Y-113680168D01*
X138323916Y-113738869D01*
X138414717Y-113799540D01*
X138420020Y-113801818D01*
X138420023Y-113801820D01*
X138612129Y-113884355D01*
X138617436Y-113886635D01*
X138693975Y-113903954D01*
X138826995Y-113934054D01*
X138827001Y-113934055D01*
X138832632Y-113935329D01*
X138838403Y-113935556D01*
X138838405Y-113935556D01*
X138906211Y-113938220D01*
X139053098Y-113943991D01*
X139162275Y-113928161D01*
X139265738Y-113913160D01*
X139265743Y-113913159D01*
X139271452Y-113912331D01*
X139276916Y-113910476D01*
X139276921Y-113910475D01*
X139474907Y-113843268D01*
X139474912Y-113843266D01*
X139480379Y-113841410D01*
X139672884Y-113733602D01*
X139842518Y-113592518D01*
X139947298Y-113466535D01*
X139979908Y-113427326D01*
X139979910Y-113427323D01*
X139983602Y-113422884D01*
X140091410Y-113230379D01*
X140093266Y-113224912D01*
X140093268Y-113224907D01*
X140160475Y-113026921D01*
X140160476Y-113026916D01*
X140162331Y-113021452D01*
X140163159Y-113015743D01*
X140163160Y-113015738D01*
X140185536Y-112861410D01*
X140193991Y-112803098D01*
X140195514Y-112744930D01*
X143977725Y-112744930D01*
X143995572Y-112971699D01*
X143997115Y-112981446D01*
X144050217Y-113202627D01*
X144053266Y-113212012D01*
X144140313Y-113422163D01*
X144144795Y-113430958D01*
X144247432Y-113598445D01*
X144257890Y-113607907D01*
X144266666Y-113604124D01*
X145117978Y-112752812D01*
X145124356Y-112741132D01*
X145854408Y-112741132D01*
X145854539Y-112742965D01*
X145858790Y-112749580D01*
X146710290Y-113601080D01*
X146722670Y-113607840D01*
X146730320Y-113602113D01*
X146835205Y-113430958D01*
X146839687Y-113422163D01*
X146926734Y-113212012D01*
X146929783Y-113202627D01*
X146982885Y-112981446D01*
X146984428Y-112971699D01*
X147002275Y-112744930D01*
X147002275Y-112735070D01*
X146984428Y-112508301D01*
X146982885Y-112498554D01*
X146929783Y-112277373D01*
X146926734Y-112267988D01*
X146839687Y-112057837D01*
X146835205Y-112049042D01*
X146732568Y-111881555D01*
X146722110Y-111872093D01*
X146713334Y-111875876D01*
X145862022Y-112727188D01*
X145854408Y-112741132D01*
X145124356Y-112741132D01*
X145125592Y-112738868D01*
X145125461Y-112737035D01*
X145121210Y-112730420D01*
X144269710Y-111878920D01*
X144257330Y-111872160D01*
X144249680Y-111877887D01*
X144144795Y-112049042D01*
X144140313Y-112057837D01*
X144053266Y-112267988D01*
X144050217Y-112277373D01*
X143997115Y-112498554D01*
X143995572Y-112508301D01*
X143977725Y-112735070D01*
X143977725Y-112744930D01*
X140195514Y-112744930D01*
X140195643Y-112740000D01*
X140175454Y-112520289D01*
X140153421Y-112442163D01*
X140117134Y-112313500D01*
X140115565Y-112307936D01*
X140017980Y-112110053D01*
X139929601Y-111991699D01*
X139889420Y-111937891D01*
X139889420Y-111937890D01*
X139885967Y-111933267D01*
X139782054Y-111837211D01*
X139728189Y-111787418D01*
X139728186Y-111787416D01*
X139723949Y-111783499D01*
X139537350Y-111665764D01*
X139332421Y-111584006D01*
X139326761Y-111582880D01*
X139326757Y-111582879D01*
X139121691Y-111542089D01*
X139121688Y-111542089D01*
X139116024Y-111540962D01*
X139110249Y-111540886D01*
X139110245Y-111540886D01*
X138999504Y-111539437D01*
X138895406Y-111538074D01*
X138889709Y-111539053D01*
X138889708Y-111539053D01*
X138683654Y-111574459D01*
X138683653Y-111574459D01*
X138677957Y-111575438D01*
X138470957Y-111651804D01*
X138465996Y-111654756D01*
X138465995Y-111654756D01*
X138287194Y-111761132D01*
X138281341Y-111764614D01*
X138115457Y-111910090D01*
X137978863Y-112083360D01*
X137876131Y-112278620D01*
X137810703Y-112489333D01*
X137784770Y-112708440D01*
X106955500Y-112708440D01*
X106955500Y-110756522D01*
X109207273Y-110756522D01*
X109254764Y-110933761D01*
X109258510Y-110944053D01*
X109350586Y-111141511D01*
X109356069Y-111151007D01*
X109481028Y-111329467D01*
X109488084Y-111337875D01*
X109642125Y-111491916D01*
X109650533Y-111498972D01*
X109828993Y-111623931D01*
X109838489Y-111629414D01*
X110035947Y-111721490D01*
X110046239Y-111725236D01*
X110218503Y-111771394D01*
X110232599Y-111771058D01*
X110236000Y-111763116D01*
X110236000Y-111757967D01*
X110744000Y-111757967D01*
X110747973Y-111771498D01*
X110756522Y-111772727D01*
X110933761Y-111725236D01*
X110944053Y-111721490D01*
X111141511Y-111629414D01*
X111151007Y-111623931D01*
X111329467Y-111498972D01*
X111337875Y-111491916D01*
X111491916Y-111337875D01*
X111498972Y-111329467D01*
X111623931Y-111151007D01*
X111629414Y-111141511D01*
X111721490Y-110944053D01*
X111725236Y-110933761D01*
X111771394Y-110761497D01*
X111771058Y-110747401D01*
X111763116Y-110744000D01*
X110762115Y-110744000D01*
X110746876Y-110748475D01*
X110745671Y-110749865D01*
X110744000Y-110757548D01*
X110744000Y-111757967D01*
X110236000Y-111757967D01*
X110236000Y-110762115D01*
X110231525Y-110746876D01*
X110230135Y-110745671D01*
X110222452Y-110744000D01*
X109222033Y-110744000D01*
X109208502Y-110747973D01*
X109207273Y-110756522D01*
X106955500Y-110756522D01*
X106955500Y-110475963D01*
X119644757Y-110475963D01*
X119661175Y-110671483D01*
X119715258Y-110860091D01*
X119718076Y-110865574D01*
X119802123Y-111029113D01*
X119802126Y-111029117D01*
X119804944Y-111034601D01*
X119926818Y-111188369D01*
X119931511Y-111192363D01*
X119931512Y-111192364D01*
X120054898Y-111297373D01*
X120076238Y-111315535D01*
X120081616Y-111318541D01*
X120081618Y-111318542D01*
X120116211Y-111337875D01*
X120247513Y-111411257D01*
X120434118Y-111471889D01*
X120628946Y-111495121D01*
X120635081Y-111494649D01*
X120635083Y-111494649D01*
X120818434Y-111480541D01*
X120818438Y-111480540D01*
X120824576Y-111480068D01*
X121013556Y-111427303D01*
X121048309Y-111409748D01*
X127169500Y-111409748D01*
X127170707Y-111415816D01*
X127173322Y-111428960D01*
X127181133Y-111468231D01*
X127188026Y-111478547D01*
X127198785Y-111494649D01*
X127225448Y-111534552D01*
X127235761Y-111541443D01*
X127281027Y-111571689D01*
X127291769Y-111578867D01*
X127303938Y-111581288D01*
X127303939Y-111581288D01*
X127328363Y-111586146D01*
X127350252Y-111590500D01*
X129189748Y-111590500D01*
X129211637Y-111586146D01*
X129236061Y-111581288D01*
X129236062Y-111581288D01*
X129248231Y-111578867D01*
X129258974Y-111571689D01*
X129304239Y-111541443D01*
X129314552Y-111534552D01*
X129341215Y-111494649D01*
X129351974Y-111478547D01*
X129358867Y-111468231D01*
X129366679Y-111428960D01*
X129369293Y-111415816D01*
X129370500Y-111409748D01*
X129370500Y-110461069D01*
X129705164Y-110461069D01*
X129718392Y-110662894D01*
X129738555Y-110742286D01*
X129761185Y-110831391D01*
X129768178Y-110858928D01*
X129852856Y-111042607D01*
X129856189Y-111047323D01*
X129962261Y-111197412D01*
X129969588Y-111207780D01*
X130114466Y-111348913D01*
X130282637Y-111461282D01*
X130287940Y-111463560D01*
X130287943Y-111463562D01*
X130461552Y-111538150D01*
X130468470Y-111541122D01*
X130564361Y-111562820D01*
X130652615Y-111582790D01*
X130665740Y-111585760D01*
X130671509Y-111585987D01*
X130671512Y-111585987D01*
X130747683Y-111588979D01*
X130867842Y-111593700D01*
X130954132Y-111581189D01*
X131062286Y-111565508D01*
X131062291Y-111565507D01*
X131068007Y-111564678D01*
X131073479Y-111562820D01*
X131073481Y-111562820D01*
X131235299Y-111507890D01*
X144622093Y-111507890D01*
X144625876Y-111516666D01*
X145477188Y-112367978D01*
X145491132Y-112375592D01*
X145492965Y-112375461D01*
X145499580Y-112371210D01*
X146351080Y-111519710D01*
X146357840Y-111507330D01*
X146352113Y-111499680D01*
X146180958Y-111394795D01*
X146172163Y-111390313D01*
X145962012Y-111303266D01*
X145952627Y-111300217D01*
X145731446Y-111247115D01*
X145721699Y-111245572D01*
X145494930Y-111227725D01*
X145485070Y-111227725D01*
X145258301Y-111245572D01*
X145248554Y-111247115D01*
X145027373Y-111300217D01*
X145017988Y-111303266D01*
X144807837Y-111390313D01*
X144799042Y-111394795D01*
X144631555Y-111497432D01*
X144622093Y-111507890D01*
X131235299Y-111507890D01*
X131254067Y-111501519D01*
X131254069Y-111501518D01*
X131259531Y-111499664D01*
X131436001Y-111400837D01*
X131486835Y-111358559D01*
X131508625Y-111340436D01*
X131591505Y-111271505D01*
X131720837Y-111116001D01*
X131819664Y-110939531D01*
X131826713Y-110918767D01*
X131882820Y-110753481D01*
X131882820Y-110753479D01*
X131884678Y-110748007D01*
X131885507Y-110742291D01*
X131885508Y-110742286D01*
X131911634Y-110562089D01*
X131913700Y-110547842D01*
X131915215Y-110490000D01*
X131896708Y-110288591D01*
X131841807Y-110093926D01*
X131752351Y-109912527D01*
X131734079Y-109888057D01*
X131634788Y-109755091D01*
X131634787Y-109755090D01*
X131631335Y-109750467D01*
X131608350Y-109729220D01*
X131487053Y-109617094D01*
X131487051Y-109617092D01*
X131482812Y-109613174D01*
X131454910Y-109595569D01*
X131316637Y-109508325D01*
X131311757Y-109505246D01*
X131123898Y-109430298D01*
X130925526Y-109390839D01*
X130919752Y-109390763D01*
X130919748Y-109390763D01*
X130817257Y-109389422D01*
X130723286Y-109388192D01*
X130717589Y-109389171D01*
X130717588Y-109389171D01*
X130529646Y-109421465D01*
X130529645Y-109421465D01*
X130523949Y-109422444D01*
X130334193Y-109492449D01*
X130329232Y-109495401D01*
X130329231Y-109495401D01*
X130177321Y-109585778D01*
X130160371Y-109595862D01*
X130008305Y-109729220D01*
X129883089Y-109888057D01*
X129788914Y-110067053D01*
X129728937Y-110260213D01*
X129705164Y-110461069D01*
X129370500Y-110461069D01*
X129370500Y-109570252D01*
X129358867Y-109511769D01*
X129314552Y-109445448D01*
X129280125Y-109422444D01*
X129258547Y-109408026D01*
X129248231Y-109401133D01*
X129236062Y-109398712D01*
X129236061Y-109398712D01*
X129195816Y-109390707D01*
X129189748Y-109389500D01*
X127350252Y-109389500D01*
X127344184Y-109390707D01*
X127303939Y-109398712D01*
X127303938Y-109398712D01*
X127291769Y-109401133D01*
X127281453Y-109408026D01*
X127259875Y-109422444D01*
X127225448Y-109445448D01*
X127181133Y-109511769D01*
X127169500Y-109570252D01*
X127169500Y-111409748D01*
X121048309Y-111409748D01*
X121188689Y-111338837D01*
X121218515Y-111315535D01*
X121270153Y-111275191D01*
X121343303Y-111218040D01*
X121348677Y-111211815D01*
X121467485Y-111074173D01*
X121467485Y-111074172D01*
X121471509Y-111069511D01*
X121568425Y-110898909D01*
X121630358Y-110712732D01*
X121654949Y-110518071D01*
X121655341Y-110490000D01*
X121636194Y-110294728D01*
X121634413Y-110288829D01*
X121634412Y-110288824D01*
X121581265Y-110112793D01*
X121579484Y-110106894D01*
X121487370Y-109933653D01*
X121363361Y-109781602D01*
X121212180Y-109656535D01*
X121039585Y-109563213D01*
X120912711Y-109523939D01*
X120858039Y-109507015D01*
X120858036Y-109507014D01*
X120852152Y-109505193D01*
X120846027Y-109504549D01*
X120846026Y-109504549D01*
X120663147Y-109485327D01*
X120663146Y-109485327D01*
X120657019Y-109484683D01*
X120571686Y-109492449D01*
X120467759Y-109501907D01*
X120467758Y-109501907D01*
X120461618Y-109502466D01*
X120455704Y-109504207D01*
X120455702Y-109504207D01*
X120430009Y-109511769D01*
X120273393Y-109557864D01*
X120267928Y-109560721D01*
X120104972Y-109645912D01*
X120104968Y-109645915D01*
X120099512Y-109648767D01*
X120094712Y-109652627D01*
X120094711Y-109652627D01*
X120060326Y-109680273D01*
X119946600Y-109771711D01*
X119820480Y-109922016D01*
X119817516Y-109927408D01*
X119817513Y-109927412D01*
X119743558Y-110061937D01*
X119725956Y-110093954D01*
X119666628Y-110280978D01*
X119644757Y-110475963D01*
X106955500Y-110475963D01*
X106955500Y-110218503D01*
X109208606Y-110218503D01*
X109208942Y-110232599D01*
X109216884Y-110236000D01*
X110217885Y-110236000D01*
X110233124Y-110231525D01*
X110234329Y-110230135D01*
X110236000Y-110222452D01*
X110236000Y-110217885D01*
X110744000Y-110217885D01*
X110748475Y-110233124D01*
X110749865Y-110234329D01*
X110757548Y-110236000D01*
X111757967Y-110236000D01*
X111771498Y-110232027D01*
X111772727Y-110223478D01*
X111725236Y-110046239D01*
X111721490Y-110035947D01*
X111629414Y-109838489D01*
X111623931Y-109828993D01*
X111498972Y-109650533D01*
X111491916Y-109642125D01*
X111337875Y-109488084D01*
X111329467Y-109481028D01*
X111151007Y-109356069D01*
X111141511Y-109350586D01*
X110944053Y-109258510D01*
X110933761Y-109254764D01*
X110761497Y-109208606D01*
X110747401Y-109208942D01*
X110744000Y-109216884D01*
X110744000Y-110217885D01*
X110236000Y-110217885D01*
X110236000Y-109222033D01*
X110232027Y-109208502D01*
X110223478Y-109207273D01*
X110046239Y-109254764D01*
X110035947Y-109258510D01*
X109838489Y-109350586D01*
X109828993Y-109356069D01*
X109650533Y-109481028D01*
X109642125Y-109488084D01*
X109488084Y-109642125D01*
X109481028Y-109650533D01*
X109356069Y-109828993D01*
X109350586Y-109838489D01*
X109258510Y-110035947D01*
X109254764Y-110046239D01*
X109208606Y-110218503D01*
X106955500Y-110218503D01*
X106955500Y-108208440D01*
X137784770Y-108208440D01*
X137799200Y-108428604D01*
X137800621Y-108434200D01*
X137800622Y-108434205D01*
X137852090Y-108636857D01*
X137853511Y-108642452D01*
X137855928Y-108647694D01*
X137855928Y-108647695D01*
X137894046Y-108730379D01*
X137945883Y-108842821D01*
X138073222Y-109023002D01*
X138231264Y-109176961D01*
X138236060Y-109180166D01*
X138236063Y-109180168D01*
X138337688Y-109248071D01*
X138414717Y-109299540D01*
X138420020Y-109301818D01*
X138420023Y-109301820D01*
X138554331Y-109359523D01*
X138617436Y-109386635D01*
X138670809Y-109398712D01*
X138826995Y-109434054D01*
X138827001Y-109434055D01*
X138832632Y-109435329D01*
X138838403Y-109435556D01*
X138838405Y-109435556D01*
X138906211Y-109438220D01*
X139053098Y-109443991D01*
X139162275Y-109428161D01*
X139265738Y-109413160D01*
X139265743Y-109413159D01*
X139271452Y-109412331D01*
X139276916Y-109410476D01*
X139276921Y-109410475D01*
X139474907Y-109343268D01*
X139474912Y-109343266D01*
X139480379Y-109341410D01*
X139493404Y-109334116D01*
X139626563Y-109259543D01*
X139672884Y-109233602D01*
X139686795Y-109222033D01*
X139838086Y-109096204D01*
X139842518Y-109092518D01*
X139904256Y-109018287D01*
X139979908Y-108927326D01*
X139979910Y-108927323D01*
X139983602Y-108922884D01*
X140091410Y-108730379D01*
X140093266Y-108724912D01*
X140093268Y-108724907D01*
X140160475Y-108526921D01*
X140160476Y-108526916D01*
X140162331Y-108521452D01*
X140163159Y-108515743D01*
X140163160Y-108515738D01*
X140193458Y-108306772D01*
X140193991Y-108303098D01*
X140195643Y-108240000D01*
X140192743Y-108208440D01*
X144284770Y-108208440D01*
X144299200Y-108428604D01*
X144300621Y-108434200D01*
X144300622Y-108434205D01*
X144352090Y-108636857D01*
X144353511Y-108642452D01*
X144355928Y-108647694D01*
X144355928Y-108647695D01*
X144394046Y-108730379D01*
X144445883Y-108842821D01*
X144573222Y-109023002D01*
X144731264Y-109176961D01*
X144736060Y-109180166D01*
X144736063Y-109180168D01*
X144837688Y-109248071D01*
X144914717Y-109299540D01*
X144920020Y-109301818D01*
X144920023Y-109301820D01*
X145054331Y-109359523D01*
X145117436Y-109386635D01*
X145170809Y-109398712D01*
X145326995Y-109434054D01*
X145327001Y-109434055D01*
X145332632Y-109435329D01*
X145338403Y-109435556D01*
X145338405Y-109435556D01*
X145406211Y-109438220D01*
X145553098Y-109443991D01*
X145662275Y-109428161D01*
X145765738Y-109413160D01*
X145765743Y-109413159D01*
X145771452Y-109412331D01*
X145776916Y-109410476D01*
X145776921Y-109410475D01*
X145974907Y-109343268D01*
X145974912Y-109343266D01*
X145980379Y-109341410D01*
X145993404Y-109334116D01*
X146126563Y-109259543D01*
X146172884Y-109233602D01*
X146186795Y-109222033D01*
X146338086Y-109096204D01*
X146342518Y-109092518D01*
X146404256Y-109018287D01*
X146479908Y-108927326D01*
X146479910Y-108927323D01*
X146483602Y-108922884D01*
X146591410Y-108730379D01*
X146593266Y-108724912D01*
X146593268Y-108724907D01*
X146660475Y-108526921D01*
X146660476Y-108526916D01*
X146662331Y-108521452D01*
X146663159Y-108515743D01*
X146663160Y-108515738D01*
X146693458Y-108306772D01*
X146693991Y-108303098D01*
X146695643Y-108240000D01*
X146675454Y-108020289D01*
X146615565Y-107807936D01*
X146542604Y-107659985D01*
X146520535Y-107615234D01*
X146517980Y-107610053D01*
X146512834Y-107603161D01*
X146389420Y-107437891D01*
X146389420Y-107437890D01*
X146385967Y-107433267D01*
X146223949Y-107283499D01*
X146037350Y-107165764D01*
X145832421Y-107084006D01*
X145826761Y-107082880D01*
X145826757Y-107082879D01*
X145621691Y-107042089D01*
X145621688Y-107042089D01*
X145616024Y-107040962D01*
X145610249Y-107040886D01*
X145610245Y-107040886D01*
X145499504Y-107039437D01*
X145395406Y-107038074D01*
X145389709Y-107039053D01*
X145389708Y-107039053D01*
X145183654Y-107074459D01*
X145183653Y-107074459D01*
X145177957Y-107075438D01*
X144970957Y-107151804D01*
X144965996Y-107154756D01*
X144965995Y-107154756D01*
X144848597Y-107224601D01*
X144781341Y-107264614D01*
X144615457Y-107410090D01*
X144478863Y-107583360D01*
X144376131Y-107778620D01*
X144358350Y-107835884D01*
X144314492Y-107977132D01*
X144310703Y-107989333D01*
X144284770Y-108208440D01*
X140192743Y-108208440D01*
X140175454Y-108020289D01*
X140115565Y-107807936D01*
X140042604Y-107659985D01*
X140020535Y-107615234D01*
X140017980Y-107610053D01*
X140012834Y-107603161D01*
X139889420Y-107437891D01*
X139889420Y-107437890D01*
X139885967Y-107433267D01*
X139723949Y-107283499D01*
X139537350Y-107165764D01*
X139332421Y-107084006D01*
X139326761Y-107082880D01*
X139326757Y-107082879D01*
X139121691Y-107042089D01*
X139121688Y-107042089D01*
X139116024Y-107040962D01*
X139110249Y-107040886D01*
X139110245Y-107040886D01*
X138999504Y-107039437D01*
X138895406Y-107038074D01*
X138889709Y-107039053D01*
X138889708Y-107039053D01*
X138683654Y-107074459D01*
X138683653Y-107074459D01*
X138677957Y-107075438D01*
X138470957Y-107151804D01*
X138465996Y-107154756D01*
X138465995Y-107154756D01*
X138348597Y-107224601D01*
X138281341Y-107264614D01*
X138115457Y-107410090D01*
X137978863Y-107583360D01*
X137876131Y-107778620D01*
X137858350Y-107835884D01*
X137814492Y-107977132D01*
X137810703Y-107989333D01*
X137784770Y-108208440D01*
X106955500Y-108208440D01*
X106955500Y-100937652D01*
X106975502Y-100869531D01*
X107004796Y-100837689D01*
X107101736Y-100763305D01*
X107108282Y-100758282D01*
X107204536Y-100632841D01*
X107265044Y-100486762D01*
X107285682Y-100330000D01*
X107265044Y-100173238D01*
X107204536Y-100027159D01*
X107108282Y-99901718D01*
X106982841Y-99805464D01*
X106836762Y-99744956D01*
X106680000Y-99724318D01*
X106523238Y-99744956D01*
X106377159Y-99805464D01*
X106251718Y-99901718D01*
X106155464Y-100027159D01*
X106094956Y-100173238D01*
X106074318Y-100330000D01*
X106094956Y-100486762D01*
X106155464Y-100632841D01*
X106251718Y-100758282D01*
X106258264Y-100763305D01*
X106355204Y-100837689D01*
X106397071Y-100895027D01*
X106404500Y-100937652D01*
X106404500Y-115403694D01*
X106384498Y-115471815D01*
X106367595Y-115492789D01*
X102151786Y-119708598D01*
X102089474Y-119742624D01*
X102018659Y-119737559D01*
X102002763Y-119730338D01*
X101999236Y-119728431D01*
X101995005Y-119726143D01*
X101995000Y-119726141D01*
X101989585Y-119723213D01*
X101950968Y-119711259D01*
X101808039Y-119667015D01*
X101808036Y-119667014D01*
X101802152Y-119665193D01*
X101796027Y-119664549D01*
X101796026Y-119664549D01*
X101613147Y-119645327D01*
X101613146Y-119645327D01*
X101607019Y-119644683D01*
X101521686Y-119652449D01*
X101417759Y-119661907D01*
X101417758Y-119661907D01*
X101411618Y-119662466D01*
X101405704Y-119664207D01*
X101405702Y-119664207D01*
X101299148Y-119695568D01*
X101223393Y-119717864D01*
X101217928Y-119720721D01*
X101054972Y-119805912D01*
X101054968Y-119805915D01*
X101049512Y-119808767D01*
X101044712Y-119812627D01*
X101044711Y-119812627D01*
X101030863Y-119823761D01*
X100896600Y-119931711D01*
X100770480Y-120082016D01*
X100767516Y-120087408D01*
X100767513Y-120087412D01*
X100694915Y-120219467D01*
X100675956Y-120253954D01*
X100674095Y-120259821D01*
X100674094Y-120259823D01*
X100663906Y-120291939D01*
X100616628Y-120440978D01*
X100594757Y-120635963D01*
X100611175Y-120831483D01*
X100665258Y-121020091D01*
X100668076Y-121025574D01*
X100752123Y-121189113D01*
X100752126Y-121189117D01*
X100754944Y-121194601D01*
X100876818Y-121348369D01*
X100881511Y-121352363D01*
X100881512Y-121352364D01*
X101007039Y-121459195D01*
X101026238Y-121475535D01*
X101031616Y-121478541D01*
X101031618Y-121478542D01*
X101066211Y-121497875D01*
X101197513Y-121571257D01*
X101203371Y-121573160D01*
X101203377Y-121573163D01*
X101237436Y-121584229D01*
X101296042Y-121624302D01*
X101323679Y-121689699D01*
X101324500Y-121704062D01*
X101324500Y-127213847D01*
X101304498Y-127281968D01*
X101250842Y-127328461D01*
X101234078Y-127334719D01*
X101223393Y-127337864D01*
X101161749Y-127370091D01*
X101054972Y-127425912D01*
X101054968Y-127425915D01*
X101049512Y-127428767D01*
X101044712Y-127432627D01*
X101044711Y-127432627D01*
X101010326Y-127460273D01*
X100896600Y-127551711D01*
X100770480Y-127702016D01*
X100767516Y-127707408D01*
X100767513Y-127707412D01*
X100691847Y-127845048D01*
X100675956Y-127873954D01*
X100616628Y-128060978D01*
X100594757Y-128255963D01*
X94355579Y-128255963D01*
X93652266Y-127552650D01*
X93618240Y-127490338D01*
X93623305Y-127419523D01*
X93625635Y-127413820D01*
X93628425Y-127408909D01*
X93690358Y-127222732D01*
X93714949Y-127028071D01*
X93715341Y-127000000D01*
X93696194Y-126804728D01*
X93694413Y-126798829D01*
X93694412Y-126798824D01*
X93641265Y-126622793D01*
X93639484Y-126616894D01*
X93547370Y-126443653D01*
X93423361Y-126291602D01*
X93272180Y-126166535D01*
X93099585Y-126073213D01*
X92969164Y-126032841D01*
X92918039Y-126017015D01*
X92918036Y-126017014D01*
X92912152Y-126015193D01*
X92906027Y-126014549D01*
X92906026Y-126014549D01*
X92723147Y-125995327D01*
X92723146Y-125995327D01*
X92717019Y-125994683D01*
X92594383Y-126005844D01*
X92527759Y-126011907D01*
X92527758Y-126011907D01*
X92521618Y-126012466D01*
X92515704Y-126014207D01*
X92515702Y-126014207D01*
X92478314Y-126025211D01*
X92333393Y-126067864D01*
X92327928Y-126070721D01*
X92164972Y-126155912D01*
X92164968Y-126155915D01*
X92159512Y-126158767D01*
X92154712Y-126162627D01*
X92154711Y-126162627D01*
X92120326Y-126190273D01*
X92006600Y-126281711D01*
X91880480Y-126432016D01*
X91877516Y-126437408D01*
X91877513Y-126437412D01*
X91806439Y-126566695D01*
X91785956Y-126603954D01*
X91784095Y-126609821D01*
X91784094Y-126609823D01*
X91756389Y-126697159D01*
X91726628Y-126790978D01*
X91704757Y-126985963D01*
X88005579Y-126985963D01*
X86032266Y-125012650D01*
X85998240Y-124950338D01*
X86003305Y-124879523D01*
X86005635Y-124873820D01*
X86008425Y-124868909D01*
X86070358Y-124682732D01*
X86094949Y-124488071D01*
X86095341Y-124460000D01*
X86076194Y-124264728D01*
X86074413Y-124258829D01*
X86074412Y-124258824D01*
X86021265Y-124082793D01*
X86021264Y-124082791D01*
X86019484Y-124076894D01*
X85927370Y-123903653D01*
X85803361Y-123751602D01*
X85652180Y-123626535D01*
X85479585Y-123533213D01*
X85385868Y-123504203D01*
X85298039Y-123477015D01*
X85298036Y-123477014D01*
X85292152Y-123475193D01*
X85286027Y-123474549D01*
X85286026Y-123474549D01*
X85103147Y-123455327D01*
X85103146Y-123455327D01*
X85097019Y-123454683D01*
X84974383Y-123465844D01*
X84907759Y-123471907D01*
X84907758Y-123471907D01*
X84901618Y-123472466D01*
X84895704Y-123474207D01*
X84895702Y-123474207D01*
X84766734Y-123512165D01*
X84713393Y-123527864D01*
X84707928Y-123530721D01*
X84544972Y-123615912D01*
X84544968Y-123615915D01*
X84539512Y-123618767D01*
X84534712Y-123622627D01*
X84534711Y-123622627D01*
X84510259Y-123642287D01*
X84386600Y-123741711D01*
X84260480Y-123892016D01*
X84257516Y-123897408D01*
X84257513Y-123897412D01*
X84182162Y-124034475D01*
X84165956Y-124063954D01*
X84164095Y-124069821D01*
X84164094Y-124069823D01*
X84159980Y-124082793D01*
X84106628Y-124250978D01*
X84084757Y-124445963D01*
X80884540Y-124445963D01*
X80884540Y-119646522D01*
X83807273Y-119646522D01*
X83854764Y-119823761D01*
X83858510Y-119834053D01*
X83950586Y-120031511D01*
X83956069Y-120041007D01*
X84081028Y-120219467D01*
X84088084Y-120227875D01*
X84242125Y-120381916D01*
X84250533Y-120388972D01*
X84428993Y-120513931D01*
X84438489Y-120519414D01*
X84635947Y-120611490D01*
X84646239Y-120615236D01*
X84856688Y-120671625D01*
X84867480Y-120673528D01*
X84929121Y-120678921D01*
X84995240Y-120704784D01*
X85036879Y-120762288D01*
X85040820Y-120833175D01*
X85005811Y-120894940D01*
X84942967Y-120927972D01*
X84929560Y-120929923D01*
X84907759Y-120931907D01*
X84907758Y-120931907D01*
X84901618Y-120932466D01*
X84895704Y-120934207D01*
X84895702Y-120934207D01*
X84766734Y-120972165D01*
X84713393Y-120987864D01*
X84707928Y-120990721D01*
X84544972Y-121075912D01*
X84544968Y-121075915D01*
X84539512Y-121078767D01*
X84534712Y-121082627D01*
X84534711Y-121082627D01*
X84520863Y-121093761D01*
X84386600Y-121201711D01*
X84260480Y-121352016D01*
X84257516Y-121357408D01*
X84257513Y-121357412D01*
X84184915Y-121489467D01*
X84165956Y-121523954D01*
X84164095Y-121529821D01*
X84164094Y-121529823D01*
X84146835Y-121584229D01*
X84106628Y-121710978D01*
X84084757Y-121905963D01*
X84101175Y-122101483D01*
X84155258Y-122290091D01*
X84158076Y-122295574D01*
X84242123Y-122459113D01*
X84242126Y-122459117D01*
X84244944Y-122464601D01*
X84366818Y-122618369D01*
X84516238Y-122745535D01*
X84521616Y-122748541D01*
X84521618Y-122748542D01*
X84557932Y-122768837D01*
X84687513Y-122841257D01*
X84874118Y-122901889D01*
X85068946Y-122925121D01*
X85075081Y-122924649D01*
X85075083Y-122924649D01*
X85258434Y-122910541D01*
X85258438Y-122910540D01*
X85264576Y-122910068D01*
X85453556Y-122857303D01*
X85628689Y-122768837D01*
X85658515Y-122745535D01*
X85778453Y-122651829D01*
X85783303Y-122648040D01*
X85791344Y-122638725D01*
X85907485Y-122504173D01*
X85907485Y-122504172D01*
X85911509Y-122499511D01*
X85915789Y-122491978D01*
X86005378Y-122334272D01*
X86008425Y-122328909D01*
X86070358Y-122142732D01*
X86094949Y-121948071D01*
X86095341Y-121920000D01*
X86076194Y-121724728D01*
X86074413Y-121718829D01*
X86074412Y-121718824D01*
X86021265Y-121542793D01*
X86019484Y-121536894D01*
X85927370Y-121363653D01*
X85803361Y-121211602D01*
X85652180Y-121086535D01*
X85479585Y-120993213D01*
X85385869Y-120964203D01*
X85298039Y-120937015D01*
X85298036Y-120937014D01*
X85292152Y-120935193D01*
X85244158Y-120930148D01*
X85178502Y-120903136D01*
X85137872Y-120844915D01*
X85135169Y-120773970D01*
X85171250Y-120712826D01*
X85234661Y-120680895D01*
X85246347Y-120679319D01*
X85312509Y-120673530D01*
X85323312Y-120671625D01*
X85533761Y-120615236D01*
X85544053Y-120611490D01*
X85741511Y-120519414D01*
X85751007Y-120513931D01*
X85929467Y-120388972D01*
X85937875Y-120381916D01*
X86091916Y-120227875D01*
X86098972Y-120219467D01*
X86223931Y-120041007D01*
X86229414Y-120031511D01*
X86321490Y-119834053D01*
X86325236Y-119823761D01*
X86371394Y-119651497D01*
X86371058Y-119637401D01*
X86363116Y-119634000D01*
X83822033Y-119634000D01*
X83808502Y-119637973D01*
X83807273Y-119646522D01*
X80884540Y-119646522D01*
X80884540Y-119108503D01*
X83808606Y-119108503D01*
X83808942Y-119122599D01*
X83816884Y-119126000D01*
X86357967Y-119126000D01*
X86371498Y-119122027D01*
X86372727Y-119113478D01*
X86325236Y-118936239D01*
X86321490Y-118925947D01*
X86229414Y-118728489D01*
X86223931Y-118718993D01*
X86098972Y-118540533D01*
X86091916Y-118532125D01*
X85937875Y-118378084D01*
X85929467Y-118371028D01*
X85751007Y-118246069D01*
X85741511Y-118240586D01*
X85544053Y-118148510D01*
X85533761Y-118144764D01*
X85323312Y-118088375D01*
X85312520Y-118086472D01*
X85257520Y-118081660D01*
X85191402Y-118055797D01*
X85149762Y-117998293D01*
X85145821Y-117927406D01*
X85180830Y-117865642D01*
X85243674Y-117832609D01*
X85257766Y-117830658D01*
X85258430Y-117830541D01*
X85264576Y-117830068D01*
X85453556Y-117777303D01*
X85628689Y-117688837D01*
X85658515Y-117665535D01*
X85778453Y-117571829D01*
X85783303Y-117568040D01*
X85813084Y-117533539D01*
X85907485Y-117424173D01*
X85907485Y-117424172D01*
X85911509Y-117419511D01*
X85916107Y-117411418D01*
X85982779Y-117294053D01*
X86008425Y-117248909D01*
X86070358Y-117062732D01*
X86094949Y-116868071D01*
X86095341Y-116840000D01*
X86076194Y-116644728D01*
X86074413Y-116638829D01*
X86074412Y-116638824D01*
X86021265Y-116462793D01*
X86019484Y-116456894D01*
X85927370Y-116283653D01*
X85803361Y-116131602D01*
X85652180Y-116006535D01*
X85479585Y-115913213D01*
X85385869Y-115884203D01*
X85298039Y-115857015D01*
X85298036Y-115857014D01*
X85292152Y-115855193D01*
X85286027Y-115854549D01*
X85286026Y-115854549D01*
X85103147Y-115835327D01*
X85103146Y-115835327D01*
X85097019Y-115834683D01*
X84974383Y-115845844D01*
X84907759Y-115851907D01*
X84907758Y-115851907D01*
X84901618Y-115852466D01*
X84895704Y-115854207D01*
X84895702Y-115854207D01*
X84823818Y-115875364D01*
X84713393Y-115907864D01*
X84707928Y-115910721D01*
X84544972Y-115995912D01*
X84544968Y-115995915D01*
X84539512Y-115998767D01*
X84534712Y-116002627D01*
X84534711Y-116002627D01*
X84500326Y-116030273D01*
X84386600Y-116121711D01*
X84260480Y-116272016D01*
X84257516Y-116277408D01*
X84257513Y-116277412D01*
X84235106Y-116318171D01*
X84165956Y-116443954D01*
X84106628Y-116630978D01*
X84084757Y-116825963D01*
X84101175Y-117021483D01*
X84155258Y-117210091D01*
X84158076Y-117215574D01*
X84242123Y-117379113D01*
X84242126Y-117379117D01*
X84244944Y-117384601D01*
X84366818Y-117538369D01*
X84516238Y-117665535D01*
X84521616Y-117668541D01*
X84521618Y-117668542D01*
X84556211Y-117687875D01*
X84687513Y-117761257D01*
X84874118Y-117821889D01*
X84911162Y-117826306D01*
X84940443Y-117829798D01*
X85005716Y-117857726D01*
X85045529Y-117916509D01*
X85047241Y-117987485D01*
X85010308Y-118048119D01*
X84946458Y-118079161D01*
X84936505Y-118080433D01*
X84867480Y-118086472D01*
X84856688Y-118088375D01*
X84646239Y-118144764D01*
X84635947Y-118148510D01*
X84438489Y-118240586D01*
X84428993Y-118246069D01*
X84250533Y-118371028D01*
X84242125Y-118378084D01*
X84088084Y-118532125D01*
X84081028Y-118540533D01*
X83956069Y-118718993D01*
X83950586Y-118728489D01*
X83858510Y-118925947D01*
X83854764Y-118936239D01*
X83808606Y-119108503D01*
X80884540Y-119108503D01*
X80884540Y-116407266D01*
X80904542Y-116339145D01*
X80921445Y-116318171D01*
X82953653Y-114285963D01*
X84084757Y-114285963D01*
X84101175Y-114481483D01*
X84155258Y-114670091D01*
X84158076Y-114675574D01*
X84242123Y-114839113D01*
X84242126Y-114839117D01*
X84244944Y-114844601D01*
X84366818Y-114998369D01*
X84516238Y-115125535D01*
X84521616Y-115128541D01*
X84521618Y-115128542D01*
X84557932Y-115148837D01*
X84687513Y-115221257D01*
X84874118Y-115281889D01*
X85068946Y-115305121D01*
X85075081Y-115304649D01*
X85075083Y-115304649D01*
X85258434Y-115290541D01*
X85258438Y-115290540D01*
X85264576Y-115290068D01*
X85453556Y-115237303D01*
X85628689Y-115148837D01*
X85658515Y-115125535D01*
X85750948Y-115053318D01*
X85783303Y-115028040D01*
X85813084Y-114993539D01*
X85907485Y-114884173D01*
X85907485Y-114884172D01*
X85911509Y-114879511D01*
X86008425Y-114708909D01*
X86070358Y-114522732D01*
X86094949Y-114328071D01*
X86095341Y-114300000D01*
X86076194Y-114104728D01*
X86074413Y-114098829D01*
X86074412Y-114098824D01*
X86021265Y-113922793D01*
X86019484Y-113916894D01*
X85927370Y-113743653D01*
X85803361Y-113591602D01*
X85652180Y-113466535D01*
X85479585Y-113373213D01*
X85342228Y-113330694D01*
X85298039Y-113317015D01*
X85298036Y-113317014D01*
X85292152Y-113315193D01*
X85286027Y-113314549D01*
X85286026Y-113314549D01*
X85103147Y-113295327D01*
X85103146Y-113295327D01*
X85097019Y-113294683D01*
X84974383Y-113305844D01*
X84907759Y-113311907D01*
X84907758Y-113311907D01*
X84901618Y-113312466D01*
X84895704Y-113314207D01*
X84895702Y-113314207D01*
X84839685Y-113330694D01*
X84713393Y-113367864D01*
X84707928Y-113370721D01*
X84544972Y-113455912D01*
X84544968Y-113455915D01*
X84539512Y-113458767D01*
X84534712Y-113462627D01*
X84534711Y-113462627D01*
X84500326Y-113490273D01*
X84386600Y-113581711D01*
X84260480Y-113732016D01*
X84257516Y-113737408D01*
X84257513Y-113737412D01*
X84178813Y-113880567D01*
X84165956Y-113903954D01*
X84164095Y-113909821D01*
X84164094Y-113909823D01*
X84156003Y-113935329D01*
X84106628Y-114090978D01*
X84084757Y-114285963D01*
X82953653Y-114285963D01*
X84537308Y-112702308D01*
X84599620Y-112668282D01*
X84676844Y-112675940D01*
X84682134Y-112678251D01*
X84687513Y-112681257D01*
X84874118Y-112741889D01*
X85068946Y-112765121D01*
X85075081Y-112764649D01*
X85075083Y-112764649D01*
X85258434Y-112750541D01*
X85258438Y-112750540D01*
X85264576Y-112750068D01*
X85453556Y-112697303D01*
X85628689Y-112608837D01*
X85658515Y-112585535D01*
X85742026Y-112520289D01*
X85783303Y-112488040D01*
X85813084Y-112453539D01*
X85907485Y-112344173D01*
X85907485Y-112344172D01*
X85911509Y-112339511D01*
X85926286Y-112313500D01*
X85965252Y-112244907D01*
X86008425Y-112168909D01*
X86070358Y-111982732D01*
X86094949Y-111788071D01*
X86095341Y-111760000D01*
X86076194Y-111564728D01*
X86074413Y-111558829D01*
X86074412Y-111558824D01*
X86021265Y-111382793D01*
X86019484Y-111376894D01*
X85927370Y-111203653D01*
X85803361Y-111051602D01*
X85652180Y-110926535D01*
X85479585Y-110833213D01*
X85334895Y-110788424D01*
X85298039Y-110777015D01*
X85298036Y-110777014D01*
X85292152Y-110775193D01*
X85286027Y-110774549D01*
X85286026Y-110774549D01*
X85103147Y-110755327D01*
X85103146Y-110755327D01*
X85097019Y-110754683D01*
X85015356Y-110762115D01*
X84907759Y-110771907D01*
X84907758Y-110771907D01*
X84901618Y-110772466D01*
X84895704Y-110774207D01*
X84895702Y-110774207D01*
X84782862Y-110807418D01*
X84713393Y-110827864D01*
X84707928Y-110830721D01*
X84544972Y-110915912D01*
X84544968Y-110915915D01*
X84539512Y-110918767D01*
X84534712Y-110922627D01*
X84534711Y-110922627D01*
X84520863Y-110933761D01*
X84386600Y-111041711D01*
X84260480Y-111192016D01*
X84257516Y-111197408D01*
X84257513Y-111197412D01*
X84185757Y-111327936D01*
X84165956Y-111363954D01*
X84164095Y-111369821D01*
X84164094Y-111369823D01*
X84155961Y-111395461D01*
X84106628Y-111550978D01*
X84084757Y-111745963D01*
X84101175Y-111941483D01*
X84155258Y-112130091D01*
X84172200Y-112163056D01*
X84172679Y-112163988D01*
X84186026Y-112233719D01*
X84159555Y-112299596D01*
X84149707Y-112310677D01*
X80800115Y-115660269D01*
X80737803Y-115694295D01*
X80666988Y-115689230D01*
X80610152Y-115646683D01*
X80585341Y-115580163D01*
X80585020Y-115571174D01*
X80585020Y-114166786D01*
X80605022Y-114098665D01*
X80621925Y-114077691D01*
X84537308Y-110162308D01*
X84599620Y-110128282D01*
X84676844Y-110135940D01*
X84682134Y-110138251D01*
X84687513Y-110141257D01*
X84874118Y-110201889D01*
X85068946Y-110225121D01*
X85075081Y-110224649D01*
X85075083Y-110224649D01*
X85258434Y-110210541D01*
X85258438Y-110210540D01*
X85264576Y-110210068D01*
X85453556Y-110157303D01*
X85628689Y-110068837D01*
X85658515Y-110045535D01*
X85778453Y-109951829D01*
X85783303Y-109948040D01*
X85791017Y-109939104D01*
X85907485Y-109804173D01*
X85907485Y-109804172D01*
X85911509Y-109799511D01*
X86008425Y-109628909D01*
X86070358Y-109442732D01*
X86094949Y-109248071D01*
X86095341Y-109220000D01*
X86076194Y-109024728D01*
X86074413Y-109018829D01*
X86074412Y-109018824D01*
X86021265Y-108842793D01*
X86019484Y-108836894D01*
X85927370Y-108663653D01*
X85803361Y-108511602D01*
X85652180Y-108386535D01*
X85479585Y-108293213D01*
X85319647Y-108243704D01*
X85298039Y-108237015D01*
X85298036Y-108237014D01*
X85292152Y-108235193D01*
X85286027Y-108234549D01*
X85286026Y-108234549D01*
X85103147Y-108215327D01*
X85103146Y-108215327D01*
X85097019Y-108214683D01*
X84974383Y-108225844D01*
X84907759Y-108231907D01*
X84907758Y-108231907D01*
X84901618Y-108232466D01*
X84895704Y-108234207D01*
X84895702Y-108234207D01*
X84766734Y-108272165D01*
X84713393Y-108287864D01*
X84707928Y-108290721D01*
X84544972Y-108375912D01*
X84544968Y-108375915D01*
X84539512Y-108378767D01*
X84534712Y-108382627D01*
X84534711Y-108382627D01*
X84500326Y-108410273D01*
X84386600Y-108501711D01*
X84260480Y-108652016D01*
X84257516Y-108657408D01*
X84257513Y-108657412D01*
X84217399Y-108730379D01*
X84165956Y-108823954D01*
X84106628Y-109010978D01*
X84084757Y-109205963D01*
X84101175Y-109401483D01*
X84155258Y-109590091D01*
X84167969Y-109614824D01*
X84172679Y-109623988D01*
X84186026Y-109693719D01*
X84159555Y-109759596D01*
X84149707Y-109770677D01*
X80500595Y-113419789D01*
X80438283Y-113453815D01*
X80367468Y-113448750D01*
X80310632Y-113406203D01*
X80285821Y-113339683D01*
X80285500Y-113330694D01*
X80285500Y-111926306D01*
X80305502Y-111858185D01*
X80322405Y-111837211D01*
X84537308Y-107622308D01*
X84599620Y-107588282D01*
X84676844Y-107595940D01*
X84682134Y-107598251D01*
X84687513Y-107601257D01*
X84874118Y-107661889D01*
X85068946Y-107685121D01*
X85075081Y-107684649D01*
X85075083Y-107684649D01*
X85258434Y-107670541D01*
X85258438Y-107670540D01*
X85264576Y-107670068D01*
X85453556Y-107617303D01*
X85628689Y-107528837D01*
X85658515Y-107505535D01*
X85756026Y-107429351D01*
X85783303Y-107408040D01*
X85813084Y-107373539D01*
X85907485Y-107264173D01*
X85907485Y-107264172D01*
X85911509Y-107259511D01*
X86008425Y-107088909D01*
X86070358Y-106902732D01*
X86094949Y-106708071D01*
X86095341Y-106680000D01*
X86076194Y-106484728D01*
X86074413Y-106478829D01*
X86074412Y-106478824D01*
X86021265Y-106302793D01*
X86019484Y-106296894D01*
X85927370Y-106123653D01*
X85803361Y-105971602D01*
X85652180Y-105846535D01*
X85479585Y-105753213D01*
X85385868Y-105724203D01*
X85298039Y-105697015D01*
X85298036Y-105697014D01*
X85292152Y-105695193D01*
X85286027Y-105694549D01*
X85286026Y-105694549D01*
X85103147Y-105675327D01*
X85103146Y-105675327D01*
X85097019Y-105674683D01*
X84974383Y-105685844D01*
X84907759Y-105691907D01*
X84907758Y-105691907D01*
X84901618Y-105692466D01*
X84895704Y-105694207D01*
X84895702Y-105694207D01*
X84766734Y-105732165D01*
X84713393Y-105747864D01*
X84707928Y-105750721D01*
X84544972Y-105835912D01*
X84544968Y-105835915D01*
X84539512Y-105838767D01*
X84534712Y-105842627D01*
X84534711Y-105842627D01*
X84500326Y-105870273D01*
X84386600Y-105961711D01*
X84260480Y-106112016D01*
X84257516Y-106117408D01*
X84257513Y-106117412D01*
X84178813Y-106260567D01*
X84165956Y-106283954D01*
X84106628Y-106470978D01*
X84084757Y-106665963D01*
X84101175Y-106861483D01*
X84155258Y-107050091D01*
X84167782Y-107074459D01*
X84172679Y-107083988D01*
X84186026Y-107153719D01*
X84159555Y-107219596D01*
X84149707Y-107230677D01*
X79843156Y-111537228D01*
X79824064Y-111552898D01*
X79811376Y-111561376D01*
X79796007Y-111584377D01*
X79793630Y-111582788D01*
X79793629Y-111582790D01*
X79796006Y-111584378D01*
X79778531Y-111610532D01*
X79778528Y-111610534D01*
X79778529Y-111610535D01*
X79750485Y-111652505D01*
X79744545Y-111682369D01*
X79729103Y-111760000D01*
X79731524Y-111772171D01*
X79732079Y-111774961D01*
X79734500Y-111799543D01*
X79734500Y-130643694D01*
X79714498Y-130711815D01*
X79697595Y-130732789D01*
X77392789Y-133037595D01*
X77330477Y-133071621D01*
X77303694Y-133074500D01*
X76037779Y-133074500D01*
X75969658Y-133054498D01*
X75923165Y-133000842D01*
X75917160Y-132984928D01*
X75905935Y-132947749D01*
X75809218Y-132765849D01*
X75703031Y-132635651D01*
X75682906Y-132610975D01*
X75682903Y-132610972D01*
X75679011Y-132606200D01*
X75672168Y-132600539D01*
X75525025Y-132478811D01*
X75525021Y-132478809D01*
X75520275Y-132474882D01*
X75339055Y-132376897D01*
X75142254Y-132315977D01*
X75136129Y-132315333D01*
X75136128Y-132315333D01*
X74943498Y-132295087D01*
X74943496Y-132295087D01*
X74937369Y-132294443D01*
X74850529Y-132302346D01*
X74738342Y-132312555D01*
X74738339Y-132312556D01*
X74732203Y-132313114D01*
X74534572Y-132371280D01*
X74352002Y-132466726D01*
X74347201Y-132470586D01*
X74347198Y-132470588D01*
X74201182Y-132587988D01*
X74191447Y-132595815D01*
X74158021Y-132635651D01*
X74098911Y-132674977D01*
X74027923Y-132676103D01*
X73967596Y-132638671D01*
X73937083Y-132574566D01*
X73935500Y-132554659D01*
X73935500Y-132119543D01*
X73937921Y-132094961D01*
X73938476Y-132092171D01*
X73940897Y-132080000D01*
X73919515Y-131972505D01*
X73873994Y-131904378D01*
X73873993Y-131904377D01*
X73858624Y-131881376D01*
X73845936Y-131872898D01*
X73826844Y-131857228D01*
X73477405Y-131507789D01*
X73443379Y-131445477D01*
X73440500Y-131418694D01*
X73440500Y-130795262D01*
X73874520Y-130795262D01*
X73875036Y-130801406D01*
X73890747Y-130988496D01*
X73891759Y-131000553D01*
X73893458Y-131006478D01*
X73944412Y-131184175D01*
X73948544Y-131198586D01*
X73951359Y-131204063D01*
X73951360Y-131204066D01*
X74039897Y-131376341D01*
X74042712Y-131381818D01*
X74170677Y-131543270D01*
X74175370Y-131547264D01*
X74175371Y-131547265D01*
X74313569Y-131664880D01*
X74327564Y-131676791D01*
X74332942Y-131679797D01*
X74332944Y-131679798D01*
X74363534Y-131696894D01*
X74507398Y-131777297D01*
X74598940Y-131807041D01*
X74697471Y-131839056D01*
X74697475Y-131839057D01*
X74703329Y-131840959D01*
X74907894Y-131865351D01*
X74914029Y-131864879D01*
X74914031Y-131864879D01*
X74974565Y-131860221D01*
X75113300Y-131849546D01*
X75119230Y-131847890D01*
X75119232Y-131847890D01*
X75248076Y-131811916D01*
X75311725Y-131794145D01*
X75317214Y-131791372D01*
X75317220Y-131791370D01*
X75490116Y-131704033D01*
X75495610Y-131701258D01*
X75554757Y-131655048D01*
X75653101Y-131578213D01*
X75657951Y-131574424D01*
X75705905Y-131518869D01*
X75788540Y-131423134D01*
X75788540Y-131423133D01*
X75792564Y-131418472D01*
X75813387Y-131381818D01*
X75891276Y-131244707D01*
X75894323Y-131239344D01*
X75959351Y-131043863D01*
X75985171Y-130839474D01*
X75985583Y-130810000D01*
X75965480Y-130604970D01*
X75905935Y-130407749D01*
X75809218Y-130225849D01*
X75711778Y-130106376D01*
X75682906Y-130070975D01*
X75682903Y-130070972D01*
X75679011Y-130066200D01*
X75605878Y-130005699D01*
X75525025Y-129938811D01*
X75525021Y-129938809D01*
X75520275Y-129934882D01*
X75339055Y-129836897D01*
X75142254Y-129775977D01*
X75136129Y-129775333D01*
X75136128Y-129775333D01*
X74943498Y-129755087D01*
X74943496Y-129755087D01*
X74937369Y-129754443D01*
X74856988Y-129761758D01*
X74738342Y-129772555D01*
X74738339Y-129772556D01*
X74732203Y-129773114D01*
X74534572Y-129831280D01*
X74352002Y-129926726D01*
X74347201Y-129930586D01*
X74347198Y-129930588D01*
X74196254Y-130051950D01*
X74191447Y-130055815D01*
X74059024Y-130213630D01*
X74056056Y-130219028D01*
X74056053Y-130219033D01*
X73980785Y-130355947D01*
X73959776Y-130394162D01*
X73897484Y-130590532D01*
X73896798Y-130596649D01*
X73896797Y-130596653D01*
X73894770Y-130614728D01*
X73874520Y-130795262D01*
X73440500Y-130795262D01*
X73440500Y-130156166D01*
X73437519Y-130124631D01*
X73392634Y-129996816D01*
X73387042Y-129989246D01*
X73387041Y-129989243D01*
X73317742Y-129895421D01*
X73312150Y-129887850D01*
X73252700Y-129843939D01*
X73210757Y-129812959D01*
X73210754Y-129812958D01*
X73203184Y-129807366D01*
X73075369Y-129762481D01*
X73067723Y-129761758D01*
X73067722Y-129761758D01*
X73061752Y-129761194D01*
X73043834Y-129759500D01*
X71736166Y-129759500D01*
X71718248Y-129761194D01*
X71712278Y-129761758D01*
X71712277Y-129761758D01*
X71704631Y-129762481D01*
X71576816Y-129807366D01*
X71569246Y-129812958D01*
X71569243Y-129812959D01*
X71527300Y-129843939D01*
X71467850Y-129887850D01*
X71462258Y-129895421D01*
X71392959Y-129989243D01*
X71392958Y-129989246D01*
X71387366Y-129996816D01*
X71342481Y-130124631D01*
X71339500Y-130156166D01*
X71339500Y-131463834D01*
X71342481Y-131495369D01*
X71387366Y-131623184D01*
X71392958Y-131630754D01*
X71392959Y-131630757D01*
X71437790Y-131691452D01*
X71467850Y-131732150D01*
X71475421Y-131737742D01*
X71569243Y-131807041D01*
X71569246Y-131807042D01*
X71576816Y-131812634D01*
X71704631Y-131857519D01*
X71712277Y-131858242D01*
X71712278Y-131858242D01*
X71718248Y-131858806D01*
X71736166Y-131860500D01*
X72998694Y-131860500D01*
X73066815Y-131880502D01*
X73087789Y-131897405D01*
X73347595Y-132157211D01*
X73381621Y-132219523D01*
X73384500Y-132246306D01*
X73384500Y-132553350D01*
X73364498Y-132621471D01*
X73310842Y-132667964D01*
X73240568Y-132678068D01*
X73175988Y-132648574D01*
X73160857Y-132632985D01*
X73142910Y-132610980D01*
X73142905Y-132610975D01*
X73139011Y-132606200D01*
X73132168Y-132600539D01*
X72985025Y-132478811D01*
X72985021Y-132478809D01*
X72980275Y-132474882D01*
X72799055Y-132376897D01*
X72602254Y-132315977D01*
X72596129Y-132315333D01*
X72596128Y-132315333D01*
X72403498Y-132295087D01*
X72403496Y-132295087D01*
X72397369Y-132294443D01*
X72310529Y-132302346D01*
X72198342Y-132312555D01*
X72198339Y-132312556D01*
X72192203Y-132313114D01*
X71994572Y-132371280D01*
X71812002Y-132466726D01*
X71807201Y-132470586D01*
X71807198Y-132470588D01*
X71661182Y-132587988D01*
X71651447Y-132595815D01*
X71519024Y-132753630D01*
X71516056Y-132759028D01*
X71516053Y-132759033D01*
X71471383Y-132840289D01*
X71419776Y-132934162D01*
X71357484Y-133130532D01*
X71334520Y-133335262D01*
X71335036Y-133341406D01*
X71350254Y-133522627D01*
X71351759Y-133540553D01*
X71353458Y-133546478D01*
X71406499Y-133731453D01*
X71408544Y-133738586D01*
X71411359Y-133744063D01*
X71411360Y-133744066D01*
X71497932Y-133912518D01*
X71502712Y-133921818D01*
X71630677Y-134083270D01*
X71635370Y-134087264D01*
X71635371Y-134087265D01*
X71775631Y-134206635D01*
X71787564Y-134216791D01*
X71792942Y-134219797D01*
X71792944Y-134219798D01*
X71856926Y-134255556D01*
X71967398Y-134317297D01*
X72051120Y-134344500D01*
X72157471Y-134379056D01*
X72157475Y-134379057D01*
X72163329Y-134380959D01*
X72367894Y-134405351D01*
X72374029Y-134404879D01*
X72374031Y-134404879D01*
X72430039Y-134400569D01*
X72573300Y-134389546D01*
X72579230Y-134387890D01*
X72579232Y-134387890D01*
X72765797Y-134335800D01*
X72765796Y-134335800D01*
X72771725Y-134334145D01*
X72777218Y-134331371D01*
X72777224Y-134331368D01*
X72831700Y-134303850D01*
X72901522Y-134290990D01*
X72967213Y-134317919D01*
X72977605Y-134327221D01*
X73152106Y-134501722D01*
X73186132Y-134564034D01*
X73189011Y-134590817D01*
X73189011Y-134919800D01*
X73169009Y-134987921D01*
X73115353Y-135034414D01*
X73045079Y-135044518D01*
X72991210Y-135020655D01*
X72990130Y-135022255D01*
X72985025Y-135018812D01*
X72980275Y-135014882D01*
X72799055Y-134916897D01*
X72602254Y-134855977D01*
X72596129Y-134855333D01*
X72596128Y-134855333D01*
X72403498Y-134835087D01*
X72403496Y-134835087D01*
X72397369Y-134834443D01*
X72310529Y-134842346D01*
X72198342Y-134852555D01*
X72198339Y-134852556D01*
X72192203Y-134853114D01*
X71994572Y-134911280D01*
X71812002Y-135006726D01*
X71807201Y-135010586D01*
X71807198Y-135010588D01*
X71764998Y-135044518D01*
X71651447Y-135135815D01*
X71519024Y-135293630D01*
X71516056Y-135299028D01*
X71516053Y-135299033D01*
X71438695Y-135439748D01*
X71419776Y-135474162D01*
X71357484Y-135670532D01*
X71334520Y-135875262D01*
X68580000Y-135875262D01*
X68580000Y-120636665D01*
X70804994Y-120636665D01*
X70805821Y-120646513D01*
X70811390Y-120712826D01*
X70820592Y-120822414D01*
X70823678Y-120833175D01*
X70869568Y-120993213D01*
X70871971Y-121001595D01*
X70957176Y-121167385D01*
X71072959Y-121313468D01*
X71214912Y-121434279D01*
X71220290Y-121437285D01*
X71220292Y-121437286D01*
X71288731Y-121475535D01*
X71377627Y-121525217D01*
X71554907Y-121582819D01*
X71739998Y-121604890D01*
X71746133Y-121604418D01*
X71746135Y-121604418D01*
X71919710Y-121591062D01*
X71919715Y-121591061D01*
X71925851Y-121590589D01*
X71931781Y-121588933D01*
X71931783Y-121588933D01*
X72099459Y-121542117D01*
X72099458Y-121542117D01*
X72105387Y-121540462D01*
X72271768Y-121456417D01*
X72296255Y-121437286D01*
X72413794Y-121345454D01*
X72413795Y-121345453D01*
X72418655Y-121341656D01*
X72540454Y-121200550D01*
X72632526Y-121038474D01*
X72691364Y-120861601D01*
X72702435Y-120773970D01*
X72714285Y-120680170D01*
X72714286Y-120680163D01*
X72714727Y-120676668D01*
X72715099Y-120650000D01*
X72696909Y-120464487D01*
X72695128Y-120458588D01*
X72695127Y-120458583D01*
X72644814Y-120291939D01*
X72643033Y-120286040D01*
X72578436Y-120164550D01*
X72558416Y-120126898D01*
X72558414Y-120126895D01*
X72555522Y-120121456D01*
X72551632Y-120116686D01*
X72551629Y-120116682D01*
X72441605Y-119981780D01*
X72441602Y-119981777D01*
X72437710Y-119977005D01*
X72432056Y-119972327D01*
X72365898Y-119917596D01*
X72294085Y-119858187D01*
X72130116Y-119769529D01*
X72003502Y-119730336D01*
X71957936Y-119716231D01*
X71957933Y-119716230D01*
X71952049Y-119714409D01*
X71945924Y-119713765D01*
X71945923Y-119713765D01*
X71772796Y-119695568D01*
X71772795Y-119695568D01*
X71766668Y-119694924D01*
X71688549Y-119702033D01*
X71587171Y-119711259D01*
X71587168Y-119711260D01*
X71581032Y-119711818D01*
X71575122Y-119713557D01*
X71575119Y-119713558D01*
X71431386Y-119755862D01*
X71402214Y-119764448D01*
X71237023Y-119850807D01*
X71091752Y-119967608D01*
X70971935Y-120110401D01*
X70968971Y-120115793D01*
X70968968Y-120115797D01*
X70919634Y-120205535D01*
X70882135Y-120273746D01*
X70880274Y-120279613D01*
X70880273Y-120279615D01*
X70837423Y-120414696D01*
X70825772Y-120451424D01*
X70804994Y-120636665D01*
X68580000Y-120636665D01*
X68580000Y-115065489D01*
X69694592Y-115065489D01*
X69699989Y-115092621D01*
X69699989Y-115092622D01*
X69715974Y-115172984D01*
X69776865Y-115264113D01*
X69787181Y-115271006D01*
X69787182Y-115271007D01*
X69789553Y-115272591D01*
X69808645Y-115288261D01*
X74655871Y-120135487D01*
X74689897Y-120197799D01*
X74682735Y-120272654D01*
X74682135Y-120273746D01*
X74625772Y-120451424D01*
X74604994Y-120636665D01*
X74605821Y-120646513D01*
X74611390Y-120712826D01*
X74620592Y-120822414D01*
X74623678Y-120833175D01*
X74669568Y-120993213D01*
X74671971Y-121001595D01*
X74757176Y-121167385D01*
X74872959Y-121313468D01*
X75014912Y-121434279D01*
X75020290Y-121437285D01*
X75020292Y-121437286D01*
X75088731Y-121475535D01*
X75177627Y-121525217D01*
X75354907Y-121582819D01*
X75539998Y-121604890D01*
X75546133Y-121604418D01*
X75546135Y-121604418D01*
X75719710Y-121591062D01*
X75719715Y-121591061D01*
X75725851Y-121590589D01*
X75731781Y-121588933D01*
X75731783Y-121588933D01*
X75899459Y-121542117D01*
X75899458Y-121542117D01*
X75905387Y-121540462D01*
X76071768Y-121456417D01*
X76096255Y-121437286D01*
X76213794Y-121345454D01*
X76213795Y-121345453D01*
X76218655Y-121341656D01*
X76340454Y-121200550D01*
X76432526Y-121038474D01*
X76491364Y-120861601D01*
X76502435Y-120773970D01*
X76514285Y-120680170D01*
X76514286Y-120680163D01*
X76514727Y-120676668D01*
X76515099Y-120650000D01*
X76496909Y-120464487D01*
X76495128Y-120458588D01*
X76495127Y-120458583D01*
X76444814Y-120291939D01*
X76443033Y-120286040D01*
X76378436Y-120164550D01*
X76358416Y-120126898D01*
X76358414Y-120126895D01*
X76355522Y-120121456D01*
X76351632Y-120116686D01*
X76351629Y-120116682D01*
X76241605Y-119981780D01*
X76241602Y-119981777D01*
X76237710Y-119977005D01*
X76232056Y-119972327D01*
X76165898Y-119917596D01*
X76094085Y-119858187D01*
X75930116Y-119769529D01*
X75803502Y-119730336D01*
X75757936Y-119716231D01*
X75757933Y-119716230D01*
X75752049Y-119714409D01*
X75745924Y-119713765D01*
X75745923Y-119713765D01*
X75572796Y-119695568D01*
X75572795Y-119695568D01*
X75566668Y-119694924D01*
X75488549Y-119702033D01*
X75387171Y-119711259D01*
X75387168Y-119711260D01*
X75381032Y-119711818D01*
X75375122Y-119713557D01*
X75375119Y-119713558D01*
X75231386Y-119755862D01*
X75202214Y-119764448D01*
X75196754Y-119767302D01*
X75196750Y-119767304D01*
X75193518Y-119768994D01*
X75191648Y-119769366D01*
X75191038Y-119769612D01*
X75190991Y-119769496D01*
X75123883Y-119782830D01*
X75057821Y-119756822D01*
X75046045Y-119746429D01*
X70287894Y-114988278D01*
X70253868Y-114925966D01*
X70250989Y-114899183D01*
X70250989Y-112992670D01*
X75332160Y-112992670D01*
X75337887Y-113000320D01*
X75509042Y-113105205D01*
X75517837Y-113109687D01*
X75727988Y-113196734D01*
X75737373Y-113199783D01*
X75958554Y-113252885D01*
X75968301Y-113254428D01*
X76195070Y-113272275D01*
X76204930Y-113272275D01*
X76431699Y-113254428D01*
X76441446Y-113252885D01*
X76662627Y-113199783D01*
X76672012Y-113196734D01*
X76882163Y-113109687D01*
X76890958Y-113105205D01*
X77058445Y-113002568D01*
X77067907Y-112992110D01*
X77064124Y-112983334D01*
X76212812Y-112132022D01*
X76198868Y-112124408D01*
X76197035Y-112124539D01*
X76190420Y-112128790D01*
X75338920Y-112980290D01*
X75332160Y-112992670D01*
X70250989Y-112992670D01*
X70250989Y-112805553D01*
X70270991Y-112737432D01*
X70324647Y-112690939D01*
X70394921Y-112680835D01*
X70446991Y-112700788D01*
X70543273Y-112765121D01*
X70624717Y-112819540D01*
X70630020Y-112821818D01*
X70630023Y-112821820D01*
X70822129Y-112904355D01*
X70827436Y-112906635D01*
X70907088Y-112924658D01*
X71036995Y-112954054D01*
X71037001Y-112954055D01*
X71042632Y-112955329D01*
X71048403Y-112955556D01*
X71048405Y-112955556D01*
X71116211Y-112958220D01*
X71263098Y-112963991D01*
X71372275Y-112948161D01*
X71475738Y-112933160D01*
X71475743Y-112933159D01*
X71481452Y-112932331D01*
X71486916Y-112930476D01*
X71486921Y-112930475D01*
X71684907Y-112863268D01*
X71684912Y-112863266D01*
X71690379Y-112861410D01*
X71882884Y-112753602D01*
X71896968Y-112741889D01*
X72048086Y-112616204D01*
X72052518Y-112612518D01*
X72110334Y-112543002D01*
X72189908Y-112447326D01*
X72189910Y-112447323D01*
X72193602Y-112442884D01*
X72266061Y-112313500D01*
X72298586Y-112255422D01*
X72298587Y-112255420D01*
X72301410Y-112250379D01*
X72303266Y-112244912D01*
X72303268Y-112244907D01*
X72370475Y-112046921D01*
X72370476Y-112046916D01*
X72372331Y-112041452D01*
X72373159Y-112035743D01*
X72373160Y-112035738D01*
X72396047Y-111877887D01*
X72403991Y-111823098D01*
X72405514Y-111764930D01*
X74687725Y-111764930D01*
X74705572Y-111991699D01*
X74707115Y-112001446D01*
X74760217Y-112222627D01*
X74763266Y-112232012D01*
X74850313Y-112442163D01*
X74854795Y-112450958D01*
X74957432Y-112618445D01*
X74967890Y-112627907D01*
X74976666Y-112624124D01*
X75827978Y-111772812D01*
X75834356Y-111761132D01*
X76564408Y-111761132D01*
X76564539Y-111762965D01*
X76568790Y-111769580D01*
X77420290Y-112621080D01*
X77432670Y-112627840D01*
X77440320Y-112622113D01*
X77545205Y-112450958D01*
X77549687Y-112442163D01*
X77636734Y-112232012D01*
X77639783Y-112222627D01*
X77692885Y-112001446D01*
X77694428Y-111991699D01*
X77712275Y-111764930D01*
X77712275Y-111755070D01*
X77694428Y-111528301D01*
X77692885Y-111518554D01*
X77639783Y-111297373D01*
X77636734Y-111287988D01*
X77549687Y-111077837D01*
X77545205Y-111069042D01*
X77442568Y-110901555D01*
X77432110Y-110892093D01*
X77423334Y-110895876D01*
X76572022Y-111747188D01*
X76564408Y-111761132D01*
X75834356Y-111761132D01*
X75835592Y-111758868D01*
X75835461Y-111757035D01*
X75831210Y-111750420D01*
X74979710Y-110898920D01*
X74967330Y-110892160D01*
X74959680Y-110897887D01*
X74854795Y-111069042D01*
X74850313Y-111077837D01*
X74763266Y-111287988D01*
X74760217Y-111297373D01*
X74707115Y-111518554D01*
X74705572Y-111528301D01*
X74687725Y-111755070D01*
X74687725Y-111764930D01*
X72405514Y-111764930D01*
X72405643Y-111760000D01*
X72385454Y-111540289D01*
X72380928Y-111524239D01*
X72348216Y-111408250D01*
X72325565Y-111327936D01*
X72227980Y-111130053D01*
X72213726Y-111110964D01*
X72099420Y-110957891D01*
X72099420Y-110957890D01*
X72095967Y-110953267D01*
X71993912Y-110858928D01*
X71938189Y-110807418D01*
X71938186Y-110807416D01*
X71933949Y-110803499D01*
X71747350Y-110685764D01*
X71542421Y-110604006D01*
X71536761Y-110602880D01*
X71536757Y-110602879D01*
X71331691Y-110562089D01*
X71331688Y-110562089D01*
X71326024Y-110560962D01*
X71320249Y-110560886D01*
X71320245Y-110560886D01*
X71209504Y-110559437D01*
X71105406Y-110558074D01*
X71099709Y-110559053D01*
X71099708Y-110559053D01*
X70893654Y-110594459D01*
X70893653Y-110594459D01*
X70887957Y-110595438D01*
X70680957Y-110671804D01*
X70675996Y-110674756D01*
X70675995Y-110674756D01*
X70508259Y-110774549D01*
X70491341Y-110784614D01*
X70486997Y-110788424D01*
X70460066Y-110812041D01*
X70395661Y-110841918D01*
X70325329Y-110832232D01*
X70271398Y-110786058D01*
X70250989Y-110717309D01*
X70250989Y-110527890D01*
X75332093Y-110527890D01*
X75335876Y-110536666D01*
X76187188Y-111387978D01*
X76201132Y-111395592D01*
X76202965Y-111395461D01*
X76209580Y-111391210D01*
X77061080Y-110539710D01*
X77067840Y-110527330D01*
X77062113Y-110519680D01*
X76890958Y-110414795D01*
X76882163Y-110410313D01*
X76672012Y-110323266D01*
X76662627Y-110320217D01*
X76441446Y-110267115D01*
X76431699Y-110265572D01*
X76204930Y-110247725D01*
X76195070Y-110247725D01*
X75968301Y-110265572D01*
X75958554Y-110267115D01*
X75737373Y-110320217D01*
X75727988Y-110323266D01*
X75517837Y-110410313D01*
X75509042Y-110414795D01*
X75341555Y-110517432D01*
X75332093Y-110527890D01*
X70250989Y-110527890D01*
X70250989Y-104260817D01*
X70270991Y-104192696D01*
X70287894Y-104171722D01*
X70356946Y-104102670D01*
X75332160Y-104102670D01*
X75337887Y-104110320D01*
X75509042Y-104215205D01*
X75517837Y-104219687D01*
X75727988Y-104306734D01*
X75737373Y-104309783D01*
X75958554Y-104362885D01*
X75968301Y-104364428D01*
X76195070Y-104382275D01*
X76204930Y-104382275D01*
X76431699Y-104364428D01*
X76441446Y-104362885D01*
X76662627Y-104309783D01*
X76672012Y-104306734D01*
X76882163Y-104219687D01*
X76890958Y-104215205D01*
X77036587Y-104125963D01*
X84084757Y-104125963D01*
X84101175Y-104321483D01*
X84155258Y-104510091D01*
X84158076Y-104515574D01*
X84242123Y-104679113D01*
X84242126Y-104679117D01*
X84244944Y-104684601D01*
X84366818Y-104838369D01*
X84516238Y-104965535D01*
X84521616Y-104968541D01*
X84521618Y-104968542D01*
X84557932Y-104988837D01*
X84687513Y-105061257D01*
X84874118Y-105121889D01*
X85068946Y-105145121D01*
X85075081Y-105144649D01*
X85075083Y-105144649D01*
X85258434Y-105130541D01*
X85258438Y-105130540D01*
X85264576Y-105130068D01*
X85453556Y-105077303D01*
X85459056Y-105074525D01*
X85459058Y-105074524D01*
X85494481Y-105056631D01*
X85564303Y-105043771D01*
X85629994Y-105070701D01*
X85640386Y-105080002D01*
X89857595Y-109297211D01*
X89891621Y-109359523D01*
X89894500Y-109386306D01*
X89894500Y-125122348D01*
X89874498Y-125190469D01*
X89845205Y-125222310D01*
X89741718Y-125301718D01*
X89645464Y-125427159D01*
X89584956Y-125573238D01*
X89564318Y-125730000D01*
X89584956Y-125886762D01*
X89645464Y-126032841D01*
X89741718Y-126158282D01*
X89748264Y-126163305D01*
X89757595Y-126170465D01*
X89867159Y-126254536D01*
X90013238Y-126315044D01*
X90170000Y-126335682D01*
X90178188Y-126334604D01*
X90318574Y-126316122D01*
X90326762Y-126315044D01*
X90472841Y-126254536D01*
X90582405Y-126170465D01*
X90591736Y-126163305D01*
X90598282Y-126158282D01*
X90694536Y-126032841D01*
X90755044Y-125886762D01*
X90775682Y-125730000D01*
X90755044Y-125573238D01*
X90694536Y-125427159D01*
X90598282Y-125301718D01*
X90494795Y-125222310D01*
X90452929Y-125164973D01*
X90445500Y-125122348D01*
X90445500Y-124445963D01*
X91704757Y-124445963D01*
X91721175Y-124641483D01*
X91775258Y-124830091D01*
X91778076Y-124835574D01*
X91862123Y-124999113D01*
X91862126Y-124999117D01*
X91864944Y-125004601D01*
X91986818Y-125158369D01*
X91991511Y-125162363D01*
X91991512Y-125162364D01*
X92042155Y-125205464D01*
X92136238Y-125285535D01*
X92141616Y-125288541D01*
X92141618Y-125288542D01*
X92176907Y-125308264D01*
X92307513Y-125381257D01*
X92494118Y-125441889D01*
X92688946Y-125465121D01*
X92695081Y-125464649D01*
X92695083Y-125464649D01*
X92878434Y-125450541D01*
X92878438Y-125450540D01*
X92884576Y-125450068D01*
X93073556Y-125397303D01*
X93248689Y-125308837D01*
X93278515Y-125285535D01*
X93381001Y-125205464D01*
X93403303Y-125188040D01*
X93433084Y-125153539D01*
X93527485Y-125044173D01*
X93527485Y-125044172D01*
X93531509Y-125039511D01*
X93628425Y-124868909D01*
X93644120Y-124821728D01*
X93684601Y-124763404D01*
X93750189Y-124736224D01*
X93763678Y-124735500D01*
X93813694Y-124735500D01*
X93881815Y-124755502D01*
X93902789Y-124772405D01*
X95895517Y-126765133D01*
X95929543Y-126827445D01*
X95931344Y-126870674D01*
X95914318Y-127000000D01*
X95934956Y-127156762D01*
X95995464Y-127302841D01*
X96091718Y-127428282D01*
X96098264Y-127433305D01*
X96107595Y-127440465D01*
X96217159Y-127524536D01*
X96363238Y-127585044D01*
X96520000Y-127605682D01*
X96528188Y-127604604D01*
X96536582Y-127603499D01*
X96676762Y-127585044D01*
X96822841Y-127524536D01*
X96932405Y-127440465D01*
X96941736Y-127433305D01*
X96948282Y-127428282D01*
X97044536Y-127302841D01*
X97105044Y-127156762D01*
X97125682Y-127000000D01*
X97105044Y-126843238D01*
X97044536Y-126697159D01*
X96948282Y-126571718D01*
X96822841Y-126475464D01*
X96676762Y-126414956D01*
X96520000Y-126394318D01*
X96390674Y-126411344D01*
X96320525Y-126400405D01*
X96285133Y-126375517D01*
X94202772Y-124293156D01*
X94187102Y-124274064D01*
X94185515Y-124271689D01*
X94178624Y-124261376D01*
X94155623Y-124246007D01*
X94157212Y-124243630D01*
X94157210Y-124243629D01*
X94155622Y-124246006D01*
X94129468Y-124228531D01*
X94129466Y-124228528D01*
X94129465Y-124228529D01*
X94097811Y-124207378D01*
X94087495Y-124200485D01*
X94075326Y-124198064D01*
X94075325Y-124198064D01*
X94007133Y-124184500D01*
X93992172Y-124181524D01*
X93992171Y-124181524D01*
X93980000Y-124179103D01*
X93967829Y-124181524D01*
X93965039Y-124182079D01*
X93940457Y-124184500D01*
X93765548Y-124184500D01*
X93697427Y-124164498D01*
X93650934Y-124110842D01*
X93644926Y-124094919D01*
X93641264Y-124082791D01*
X93639484Y-124076894D01*
X93547370Y-123903653D01*
X93423361Y-123751602D01*
X93272180Y-123626535D01*
X93099585Y-123533213D01*
X93005868Y-123504203D01*
X92918039Y-123477015D01*
X92918036Y-123477014D01*
X92912152Y-123475193D01*
X92906027Y-123474549D01*
X92906026Y-123474549D01*
X92723147Y-123455327D01*
X92723146Y-123455327D01*
X92717019Y-123454683D01*
X92594383Y-123465844D01*
X92527759Y-123471907D01*
X92527758Y-123471907D01*
X92521618Y-123472466D01*
X92515704Y-123474207D01*
X92515702Y-123474207D01*
X92386734Y-123512165D01*
X92333393Y-123527864D01*
X92327928Y-123530721D01*
X92164972Y-123615912D01*
X92164968Y-123615915D01*
X92159512Y-123618767D01*
X92154712Y-123622627D01*
X92154711Y-123622627D01*
X92130259Y-123642287D01*
X92006600Y-123741711D01*
X91880480Y-123892016D01*
X91877516Y-123897408D01*
X91877513Y-123897412D01*
X91802162Y-124034475D01*
X91785956Y-124063954D01*
X91784095Y-124069821D01*
X91784094Y-124069823D01*
X91779980Y-124082793D01*
X91726628Y-124250978D01*
X91704757Y-124445963D01*
X90445500Y-124445963D01*
X90445500Y-121905963D01*
X91704757Y-121905963D01*
X91721175Y-122101483D01*
X91775258Y-122290091D01*
X91778076Y-122295574D01*
X91862123Y-122459113D01*
X91862126Y-122459117D01*
X91864944Y-122464601D01*
X91986818Y-122618369D01*
X92136238Y-122745535D01*
X92141616Y-122748541D01*
X92141618Y-122748542D01*
X92177932Y-122768837D01*
X92307513Y-122841257D01*
X92494118Y-122901889D01*
X92688946Y-122925121D01*
X92695081Y-122924649D01*
X92695083Y-122924649D01*
X92878434Y-122910541D01*
X92878438Y-122910540D01*
X92884576Y-122910068D01*
X93073556Y-122857303D01*
X93248689Y-122768837D01*
X93278515Y-122745535D01*
X93398453Y-122651829D01*
X93403303Y-122648040D01*
X93411344Y-122638725D01*
X93527485Y-122504173D01*
X93527485Y-122504172D01*
X93531509Y-122499511D01*
X93535789Y-122491978D01*
X93625378Y-122334272D01*
X93628425Y-122328909D01*
X93690358Y-122142732D01*
X93714949Y-121948071D01*
X93715341Y-121920000D01*
X93696194Y-121724728D01*
X93694413Y-121718829D01*
X93694412Y-121718824D01*
X93641265Y-121542793D01*
X93639484Y-121536894D01*
X93547370Y-121363653D01*
X93423361Y-121211602D01*
X93272180Y-121086535D01*
X93099585Y-120993213D01*
X93005869Y-120964203D01*
X92918039Y-120937015D01*
X92918036Y-120937014D01*
X92912152Y-120935193D01*
X92906027Y-120934549D01*
X92906026Y-120934549D01*
X92723147Y-120915327D01*
X92723146Y-120915327D01*
X92717019Y-120914683D01*
X92635356Y-120922115D01*
X92527759Y-120931907D01*
X92527758Y-120931907D01*
X92521618Y-120932466D01*
X92515704Y-120934207D01*
X92515702Y-120934207D01*
X92386734Y-120972165D01*
X92333393Y-120987864D01*
X92327928Y-120990721D01*
X92164972Y-121075912D01*
X92164968Y-121075915D01*
X92159512Y-121078767D01*
X92154712Y-121082627D01*
X92154711Y-121082627D01*
X92140863Y-121093761D01*
X92006600Y-121201711D01*
X91880480Y-121352016D01*
X91877516Y-121357408D01*
X91877513Y-121357412D01*
X91804915Y-121489467D01*
X91785956Y-121523954D01*
X91784095Y-121529821D01*
X91784094Y-121529823D01*
X91766835Y-121584229D01*
X91726628Y-121710978D01*
X91704757Y-121905963D01*
X90445500Y-121905963D01*
X90445500Y-117106522D01*
X91427273Y-117106522D01*
X91474764Y-117283761D01*
X91478510Y-117294053D01*
X91570586Y-117491511D01*
X91576069Y-117501007D01*
X91701028Y-117679467D01*
X91708084Y-117687875D01*
X91862125Y-117841916D01*
X91870533Y-117848972D01*
X92048993Y-117973931D01*
X92058489Y-117979414D01*
X92255947Y-118071490D01*
X92266239Y-118075236D01*
X92476688Y-118131625D01*
X92487480Y-118133528D01*
X92549121Y-118138921D01*
X92615240Y-118164784D01*
X92656879Y-118222288D01*
X92660820Y-118293175D01*
X92625811Y-118354940D01*
X92562967Y-118387972D01*
X92549560Y-118389923D01*
X92527759Y-118391907D01*
X92527758Y-118391907D01*
X92521618Y-118392466D01*
X92515704Y-118394207D01*
X92515702Y-118394207D01*
X92416551Y-118423389D01*
X92333393Y-118447864D01*
X92327928Y-118450721D01*
X92164972Y-118535912D01*
X92164968Y-118535915D01*
X92159512Y-118538767D01*
X92154712Y-118542627D01*
X92154711Y-118542627D01*
X92142302Y-118552604D01*
X92006600Y-118661711D01*
X91880480Y-118812016D01*
X91877516Y-118817408D01*
X91877513Y-118817412D01*
X91854418Y-118859422D01*
X91785956Y-118983954D01*
X91726628Y-119170978D01*
X91704757Y-119365963D01*
X91721175Y-119561483D01*
X91775258Y-119750091D01*
X91784104Y-119767304D01*
X91862123Y-119919113D01*
X91862126Y-119919117D01*
X91864944Y-119924601D01*
X91986818Y-120078369D01*
X91991511Y-120082363D01*
X91991512Y-120082364D01*
X92088081Y-120164550D01*
X92136238Y-120205535D01*
X92141616Y-120208541D01*
X92141618Y-120208542D01*
X92174740Y-120227053D01*
X92307513Y-120301257D01*
X92494118Y-120361889D01*
X92688946Y-120385121D01*
X92695081Y-120384649D01*
X92695083Y-120384649D01*
X92878434Y-120370541D01*
X92878438Y-120370540D01*
X92884576Y-120370068D01*
X93073556Y-120317303D01*
X93248689Y-120228837D01*
X93278515Y-120205535D01*
X93386131Y-120121456D01*
X93403303Y-120108040D01*
X93411017Y-120099104D01*
X93527485Y-119964173D01*
X93527485Y-119964172D01*
X93531509Y-119959511D01*
X93628425Y-119788909D01*
X93690358Y-119602732D01*
X93714949Y-119408071D01*
X93715341Y-119380000D01*
X93696194Y-119184728D01*
X93694413Y-119178829D01*
X93694412Y-119178824D01*
X93641265Y-119002793D01*
X93639484Y-118996894D01*
X93547370Y-118823653D01*
X93423361Y-118671602D01*
X93272180Y-118546535D01*
X93099585Y-118453213D01*
X93003239Y-118423389D01*
X92918039Y-118397015D01*
X92918036Y-118397014D01*
X92912152Y-118395193D01*
X92864158Y-118390148D01*
X92798502Y-118363136D01*
X92757872Y-118304915D01*
X92755169Y-118233970D01*
X92791250Y-118172826D01*
X92854661Y-118140895D01*
X92866347Y-118139319D01*
X92932509Y-118133530D01*
X92943312Y-118131625D01*
X93153761Y-118075236D01*
X93164053Y-118071490D01*
X93361511Y-117979414D01*
X93371007Y-117973931D01*
X93549467Y-117848972D01*
X93557875Y-117841916D01*
X93711916Y-117687875D01*
X93718972Y-117679467D01*
X93843931Y-117501007D01*
X93849414Y-117491511D01*
X93941490Y-117294053D01*
X93945236Y-117283761D01*
X93991394Y-117111497D01*
X93991058Y-117097401D01*
X93983116Y-117094000D01*
X91442033Y-117094000D01*
X91428502Y-117097973D01*
X91427273Y-117106522D01*
X90445500Y-117106522D01*
X90445500Y-116568503D01*
X91428606Y-116568503D01*
X91428942Y-116582599D01*
X91436884Y-116586000D01*
X93977967Y-116586000D01*
X93991498Y-116582027D01*
X93992727Y-116573478D01*
X93945236Y-116396239D01*
X93941490Y-116385947D01*
X93849414Y-116188489D01*
X93843931Y-116178993D01*
X93718972Y-116000533D01*
X93711916Y-115992125D01*
X93557875Y-115838084D01*
X93549467Y-115831028D01*
X93371007Y-115706069D01*
X93361511Y-115700586D01*
X93164053Y-115608510D01*
X93153761Y-115604764D01*
X92943312Y-115548375D01*
X92932520Y-115546472D01*
X92877520Y-115541660D01*
X92811402Y-115515797D01*
X92769762Y-115458293D01*
X92765821Y-115387406D01*
X92800830Y-115325642D01*
X92863674Y-115292609D01*
X92877766Y-115290658D01*
X92878430Y-115290541D01*
X92884576Y-115290068D01*
X93073556Y-115237303D01*
X93248689Y-115148837D01*
X93278515Y-115125535D01*
X93370948Y-115053318D01*
X93403303Y-115028040D01*
X93433084Y-114993539D01*
X93527485Y-114884173D01*
X93527485Y-114884172D01*
X93531509Y-114879511D01*
X93628425Y-114708909D01*
X93690358Y-114522732D01*
X93714949Y-114328071D01*
X93715341Y-114300000D01*
X93696194Y-114104728D01*
X93694413Y-114098829D01*
X93694412Y-114098824D01*
X93641265Y-113922793D01*
X93639484Y-113916894D01*
X93547370Y-113743653D01*
X93423361Y-113591602D01*
X93272180Y-113466535D01*
X93099585Y-113373213D01*
X92962228Y-113330694D01*
X92918039Y-113317015D01*
X92918036Y-113317014D01*
X92912152Y-113315193D01*
X92906027Y-113314549D01*
X92906026Y-113314549D01*
X92723147Y-113295327D01*
X92723146Y-113295327D01*
X92717019Y-113294683D01*
X92594383Y-113305844D01*
X92527759Y-113311907D01*
X92527758Y-113311907D01*
X92521618Y-113312466D01*
X92515704Y-113314207D01*
X92515702Y-113314207D01*
X92459685Y-113330694D01*
X92333393Y-113367864D01*
X92327928Y-113370721D01*
X92164972Y-113455912D01*
X92164968Y-113455915D01*
X92159512Y-113458767D01*
X92154712Y-113462627D01*
X92154711Y-113462627D01*
X92120326Y-113490273D01*
X92006600Y-113581711D01*
X91880480Y-113732016D01*
X91877516Y-113737408D01*
X91877513Y-113737412D01*
X91798813Y-113880567D01*
X91785956Y-113903954D01*
X91784095Y-113909821D01*
X91784094Y-113909823D01*
X91776003Y-113935329D01*
X91726628Y-114090978D01*
X91704757Y-114285963D01*
X91721175Y-114481483D01*
X91775258Y-114670091D01*
X91778076Y-114675574D01*
X91862123Y-114839113D01*
X91862126Y-114839117D01*
X91864944Y-114844601D01*
X91986818Y-114998369D01*
X92136238Y-115125535D01*
X92141616Y-115128541D01*
X92141618Y-115128542D01*
X92177932Y-115148837D01*
X92307513Y-115221257D01*
X92494118Y-115281889D01*
X92531162Y-115286306D01*
X92560443Y-115289798D01*
X92625716Y-115317726D01*
X92665529Y-115376509D01*
X92667241Y-115447485D01*
X92630308Y-115508119D01*
X92566458Y-115539161D01*
X92556505Y-115540433D01*
X92487480Y-115546472D01*
X92476688Y-115548375D01*
X92266239Y-115604764D01*
X92255947Y-115608510D01*
X92058489Y-115700586D01*
X92048993Y-115706069D01*
X91870533Y-115831028D01*
X91862125Y-115838084D01*
X91708084Y-115992125D01*
X91701028Y-116000533D01*
X91576069Y-116178993D01*
X91570586Y-116188489D01*
X91478510Y-116385947D01*
X91474764Y-116396239D01*
X91428606Y-116568503D01*
X90445500Y-116568503D01*
X90445500Y-111745963D01*
X91704757Y-111745963D01*
X91721175Y-111941483D01*
X91775258Y-112130091D01*
X91778076Y-112135574D01*
X91862123Y-112299113D01*
X91862126Y-112299117D01*
X91864944Y-112304601D01*
X91986818Y-112458369D01*
X92136238Y-112585535D01*
X92141616Y-112588541D01*
X92141618Y-112588542D01*
X92201687Y-112622113D01*
X92307513Y-112681257D01*
X92494118Y-112741889D01*
X92688946Y-112765121D01*
X92695081Y-112764649D01*
X92695083Y-112764649D01*
X92878434Y-112750541D01*
X92878438Y-112750540D01*
X92884576Y-112750068D01*
X93073556Y-112697303D01*
X93248689Y-112608837D01*
X93278515Y-112585535D01*
X93362026Y-112520289D01*
X93403303Y-112488040D01*
X93433084Y-112453539D01*
X93527485Y-112344173D01*
X93527485Y-112344172D01*
X93531509Y-112339511D01*
X93546286Y-112313500D01*
X93585252Y-112244907D01*
X93628425Y-112168909D01*
X93690358Y-111982732D01*
X93714949Y-111788071D01*
X93715341Y-111760000D01*
X93696194Y-111564728D01*
X93694413Y-111558829D01*
X93694412Y-111558824D01*
X93641265Y-111382793D01*
X93639484Y-111376894D01*
X93547370Y-111203653D01*
X93423361Y-111051602D01*
X93272180Y-110926535D01*
X93099585Y-110833213D01*
X92954895Y-110788424D01*
X92918039Y-110777015D01*
X92918036Y-110777014D01*
X92912152Y-110775193D01*
X92906027Y-110774549D01*
X92906026Y-110774549D01*
X92723147Y-110755327D01*
X92723146Y-110755327D01*
X92717019Y-110754683D01*
X92635356Y-110762115D01*
X92527759Y-110771907D01*
X92527758Y-110771907D01*
X92521618Y-110772466D01*
X92515704Y-110774207D01*
X92515702Y-110774207D01*
X92402862Y-110807418D01*
X92333393Y-110827864D01*
X92327928Y-110830721D01*
X92164972Y-110915912D01*
X92164968Y-110915915D01*
X92159512Y-110918767D01*
X92154712Y-110922627D01*
X92154711Y-110922627D01*
X92140863Y-110933761D01*
X92006600Y-111041711D01*
X91880480Y-111192016D01*
X91877516Y-111197408D01*
X91877513Y-111197412D01*
X91805757Y-111327936D01*
X91785956Y-111363954D01*
X91784095Y-111369821D01*
X91784094Y-111369823D01*
X91775961Y-111395461D01*
X91726628Y-111550978D01*
X91704757Y-111745963D01*
X90445500Y-111745963D01*
X90445500Y-109259543D01*
X90447921Y-109234961D01*
X90448476Y-109232171D01*
X90450897Y-109220000D01*
X90448105Y-109205963D01*
X91704757Y-109205963D01*
X91721175Y-109401483D01*
X91775258Y-109590091D01*
X91778076Y-109595574D01*
X91862123Y-109759113D01*
X91862126Y-109759117D01*
X91864944Y-109764601D01*
X91986818Y-109918369D01*
X91991511Y-109922363D01*
X91991512Y-109922364D01*
X92011182Y-109939104D01*
X92136238Y-110045535D01*
X92141616Y-110048541D01*
X92141618Y-110048542D01*
X92174740Y-110067053D01*
X92307513Y-110141257D01*
X92494118Y-110201889D01*
X92688946Y-110225121D01*
X92695081Y-110224649D01*
X92695083Y-110224649D01*
X92878434Y-110210541D01*
X92878438Y-110210540D01*
X92884576Y-110210068D01*
X93073556Y-110157303D01*
X93248689Y-110068837D01*
X93278515Y-110045535D01*
X93398453Y-109951829D01*
X93403303Y-109948040D01*
X93411017Y-109939104D01*
X93527485Y-109804173D01*
X93527485Y-109804172D01*
X93531509Y-109799511D01*
X93628425Y-109628909D01*
X93690358Y-109442732D01*
X93714949Y-109248071D01*
X93715341Y-109220000D01*
X93696194Y-109024728D01*
X93694413Y-109018829D01*
X93694412Y-109018824D01*
X93641265Y-108842793D01*
X93639484Y-108836894D01*
X93547370Y-108663653D01*
X93423361Y-108511602D01*
X93272180Y-108386535D01*
X93099585Y-108293213D01*
X92939647Y-108243704D01*
X92918039Y-108237015D01*
X92918036Y-108237014D01*
X92912152Y-108235193D01*
X92906027Y-108234549D01*
X92906026Y-108234549D01*
X92723147Y-108215327D01*
X92723146Y-108215327D01*
X92717019Y-108214683D01*
X92594383Y-108225844D01*
X92527759Y-108231907D01*
X92527758Y-108231907D01*
X92521618Y-108232466D01*
X92515704Y-108234207D01*
X92515702Y-108234207D01*
X92386734Y-108272165D01*
X92333393Y-108287864D01*
X92327928Y-108290721D01*
X92164972Y-108375912D01*
X92164968Y-108375915D01*
X92159512Y-108378767D01*
X92154712Y-108382627D01*
X92154711Y-108382627D01*
X92120326Y-108410273D01*
X92006600Y-108501711D01*
X91880480Y-108652016D01*
X91877516Y-108657408D01*
X91877513Y-108657412D01*
X91837399Y-108730379D01*
X91785956Y-108823954D01*
X91726628Y-109010978D01*
X91704757Y-109205963D01*
X90448105Y-109205963D01*
X90429515Y-109112506D01*
X90429515Y-109112505D01*
X90368624Y-109021376D01*
X90355936Y-109012898D01*
X90336844Y-108997228D01*
X88005579Y-106665963D01*
X91704757Y-106665963D01*
X91721175Y-106861483D01*
X91775258Y-107050091D01*
X91778076Y-107055574D01*
X91862123Y-107219113D01*
X91862126Y-107219117D01*
X91864944Y-107224601D01*
X91986818Y-107378369D01*
X92136238Y-107505535D01*
X92141616Y-107508541D01*
X92141618Y-107508542D01*
X92177932Y-107528837D01*
X92307513Y-107601257D01*
X92494118Y-107661889D01*
X92688946Y-107685121D01*
X92695081Y-107684649D01*
X92695083Y-107684649D01*
X92878434Y-107670541D01*
X92878438Y-107670540D01*
X92884576Y-107670068D01*
X93073556Y-107617303D01*
X93248689Y-107528837D01*
X93278515Y-107505535D01*
X93376026Y-107429351D01*
X93403303Y-107408040D01*
X93433084Y-107373539D01*
X93527485Y-107264173D01*
X93527485Y-107264172D01*
X93531509Y-107259511D01*
X93628425Y-107088909D01*
X93690358Y-106902732D01*
X93714949Y-106708071D01*
X93715341Y-106680000D01*
X93696194Y-106484728D01*
X93694413Y-106478829D01*
X93694412Y-106478824D01*
X93641265Y-106302793D01*
X93639484Y-106296894D01*
X93547370Y-106123653D01*
X93423361Y-105971602D01*
X93272180Y-105846535D01*
X93099585Y-105753213D01*
X93005868Y-105724203D01*
X92918039Y-105697015D01*
X92918036Y-105697014D01*
X92912152Y-105695193D01*
X92906027Y-105694549D01*
X92906026Y-105694549D01*
X92723147Y-105675327D01*
X92723146Y-105675327D01*
X92717019Y-105674683D01*
X92594383Y-105685844D01*
X92527759Y-105691907D01*
X92527758Y-105691907D01*
X92521618Y-105692466D01*
X92515704Y-105694207D01*
X92515702Y-105694207D01*
X92386734Y-105732165D01*
X92333393Y-105747864D01*
X92327928Y-105750721D01*
X92164972Y-105835912D01*
X92164968Y-105835915D01*
X92159512Y-105838767D01*
X92154712Y-105842627D01*
X92154711Y-105842627D01*
X92120326Y-105870273D01*
X92006600Y-105961711D01*
X91880480Y-106112016D01*
X91877516Y-106117408D01*
X91877513Y-106117412D01*
X91798813Y-106260567D01*
X91785956Y-106283954D01*
X91726628Y-106470978D01*
X91704757Y-106665963D01*
X88005579Y-106665963D01*
X86032266Y-104692650D01*
X85998240Y-104630338D01*
X86003305Y-104559523D01*
X86005635Y-104553820D01*
X86008425Y-104548909D01*
X86070358Y-104362732D01*
X86094949Y-104168071D01*
X86095341Y-104140000D01*
X86093965Y-104125963D01*
X91704757Y-104125963D01*
X91721175Y-104321483D01*
X91775258Y-104510091D01*
X91778076Y-104515574D01*
X91862123Y-104679113D01*
X91862126Y-104679117D01*
X91864944Y-104684601D01*
X91986818Y-104838369D01*
X92136238Y-104965535D01*
X92141616Y-104968541D01*
X92141618Y-104968542D01*
X92177932Y-104988837D01*
X92307513Y-105061257D01*
X92494118Y-105121889D01*
X92688946Y-105145121D01*
X92695081Y-105144649D01*
X92695083Y-105144649D01*
X92878434Y-105130541D01*
X92878438Y-105130540D01*
X92884576Y-105130068D01*
X93073556Y-105077303D01*
X93248689Y-104988837D01*
X93278515Y-104965535D01*
X93398453Y-104871829D01*
X93403303Y-104868040D01*
X93433084Y-104833539D01*
X93527485Y-104724173D01*
X93527485Y-104724172D01*
X93531509Y-104719511D01*
X93628425Y-104548909D01*
X93690358Y-104362732D01*
X93714949Y-104168071D01*
X93715341Y-104140000D01*
X93696194Y-103944728D01*
X93694413Y-103938829D01*
X93694412Y-103938824D01*
X93641265Y-103762793D01*
X93639484Y-103756894D01*
X93547370Y-103583653D01*
X93423361Y-103431602D01*
X93272180Y-103306535D01*
X93099585Y-103213213D01*
X93005869Y-103184203D01*
X92918039Y-103157015D01*
X92918036Y-103157014D01*
X92912152Y-103155193D01*
X92906027Y-103154549D01*
X92906026Y-103154549D01*
X92723147Y-103135327D01*
X92723146Y-103135327D01*
X92717019Y-103134683D01*
X92595546Y-103145738D01*
X92527759Y-103151907D01*
X92527758Y-103151907D01*
X92521618Y-103152466D01*
X92515704Y-103154207D01*
X92515702Y-103154207D01*
X92386734Y-103192165D01*
X92333393Y-103207864D01*
X92327928Y-103210721D01*
X92164972Y-103295912D01*
X92164968Y-103295915D01*
X92159512Y-103298767D01*
X92154712Y-103302627D01*
X92154711Y-103302627D01*
X92120326Y-103330273D01*
X92006600Y-103421711D01*
X91880480Y-103572016D01*
X91877516Y-103577408D01*
X91877513Y-103577412D01*
X91800177Y-103718086D01*
X91785956Y-103743954D01*
X91726628Y-103930978D01*
X91704757Y-104125963D01*
X86093965Y-104125963D01*
X86076194Y-103944728D01*
X86074413Y-103938829D01*
X86074412Y-103938824D01*
X86021265Y-103762793D01*
X86019484Y-103756894D01*
X85927370Y-103583653D01*
X85803361Y-103431602D01*
X85652180Y-103306535D01*
X85479585Y-103213213D01*
X85385869Y-103184203D01*
X85298039Y-103157015D01*
X85298036Y-103157014D01*
X85292152Y-103155193D01*
X85286027Y-103154549D01*
X85286026Y-103154549D01*
X85103147Y-103135327D01*
X85103146Y-103135327D01*
X85097019Y-103134683D01*
X84975546Y-103145738D01*
X84907759Y-103151907D01*
X84907758Y-103151907D01*
X84901618Y-103152466D01*
X84895704Y-103154207D01*
X84895702Y-103154207D01*
X84766734Y-103192165D01*
X84713393Y-103207864D01*
X84707928Y-103210721D01*
X84544972Y-103295912D01*
X84544968Y-103295915D01*
X84539512Y-103298767D01*
X84534712Y-103302627D01*
X84534711Y-103302627D01*
X84500326Y-103330273D01*
X84386600Y-103421711D01*
X84260480Y-103572016D01*
X84257516Y-103577408D01*
X84257513Y-103577412D01*
X84180177Y-103718086D01*
X84165956Y-103743954D01*
X84106628Y-103930978D01*
X84084757Y-104125963D01*
X77036587Y-104125963D01*
X77058445Y-104112568D01*
X77067907Y-104102110D01*
X77064124Y-104093334D01*
X76212812Y-103242022D01*
X76198868Y-103234408D01*
X76197035Y-103234539D01*
X76190420Y-103238790D01*
X75338920Y-104090290D01*
X75332160Y-104102670D01*
X70356946Y-104102670D01*
X70498138Y-103961478D01*
X70560450Y-103927452D01*
X70636971Y-103934805D01*
X70822129Y-104014355D01*
X70827436Y-104016635D01*
X70907088Y-104034658D01*
X71036995Y-104064054D01*
X71037001Y-104064055D01*
X71042632Y-104065329D01*
X71048403Y-104065556D01*
X71048405Y-104065556D01*
X71116211Y-104068220D01*
X71263098Y-104073991D01*
X71372275Y-104058161D01*
X71475738Y-104043160D01*
X71475743Y-104043159D01*
X71481452Y-104042331D01*
X71486916Y-104040476D01*
X71486921Y-104040475D01*
X71684907Y-103973268D01*
X71684912Y-103973266D01*
X71690379Y-103971410D01*
X71748566Y-103938824D01*
X71825235Y-103895887D01*
X71882884Y-103863602D01*
X72052518Y-103722518D01*
X72168012Y-103583653D01*
X72189908Y-103557326D01*
X72189910Y-103557323D01*
X72193602Y-103552884D01*
X72301410Y-103360379D01*
X72303266Y-103354912D01*
X72303268Y-103354907D01*
X72370475Y-103156921D01*
X72370476Y-103156916D01*
X72372331Y-103151452D01*
X72373159Y-103145743D01*
X72373160Y-103145738D01*
X72403458Y-102936772D01*
X72403991Y-102933098D01*
X72405514Y-102874930D01*
X74687725Y-102874930D01*
X74705572Y-103101699D01*
X74707115Y-103111446D01*
X74760217Y-103332627D01*
X74763266Y-103342012D01*
X74850313Y-103552163D01*
X74854795Y-103560958D01*
X74957432Y-103728445D01*
X74967890Y-103737907D01*
X74976666Y-103734124D01*
X75827978Y-102882812D01*
X75834356Y-102871132D01*
X76564408Y-102871132D01*
X76564539Y-102872965D01*
X76568790Y-102879580D01*
X77420290Y-103731080D01*
X77432670Y-103737840D01*
X77440320Y-103732113D01*
X77545205Y-103560958D01*
X77549687Y-103552163D01*
X77636734Y-103342012D01*
X77639783Y-103332627D01*
X77692885Y-103111446D01*
X77694428Y-103101699D01*
X77712275Y-102874930D01*
X77712275Y-102865070D01*
X77694428Y-102638301D01*
X77692885Y-102628554D01*
X77639783Y-102407373D01*
X77636734Y-102397988D01*
X77549687Y-102187837D01*
X77545205Y-102179042D01*
X77442568Y-102011555D01*
X77432110Y-102002093D01*
X77423334Y-102005876D01*
X76572022Y-102857188D01*
X76564408Y-102871132D01*
X75834356Y-102871132D01*
X75835592Y-102868868D01*
X75835461Y-102867035D01*
X75831210Y-102860420D01*
X74979710Y-102008920D01*
X74967330Y-102002160D01*
X74959680Y-102007887D01*
X74854795Y-102179042D01*
X74850313Y-102187837D01*
X74763266Y-102397988D01*
X74760217Y-102407373D01*
X74707115Y-102628554D01*
X74705572Y-102638301D01*
X74687725Y-102865070D01*
X74687725Y-102874930D01*
X72405514Y-102874930D01*
X72405643Y-102870000D01*
X72385454Y-102650289D01*
X72372716Y-102605121D01*
X72327134Y-102443500D01*
X72325565Y-102437936D01*
X72227980Y-102240053D01*
X72095967Y-102063267D01*
X71995170Y-101970091D01*
X71938189Y-101917418D01*
X71938186Y-101917416D01*
X71933949Y-101913499D01*
X71747350Y-101795764D01*
X71542421Y-101714006D01*
X71536761Y-101712880D01*
X71536757Y-101712879D01*
X71331691Y-101672089D01*
X71331688Y-101672089D01*
X71326024Y-101670962D01*
X71320249Y-101670886D01*
X71320245Y-101670886D01*
X71209504Y-101669437D01*
X71105406Y-101668074D01*
X71099709Y-101669053D01*
X71099708Y-101669053D01*
X70893654Y-101704459D01*
X70893653Y-101704459D01*
X70887957Y-101705438D01*
X70680957Y-101781804D01*
X70675996Y-101784756D01*
X70675995Y-101784756D01*
X70622449Y-101816613D01*
X70491341Y-101894614D01*
X70325457Y-102040090D01*
X70188863Y-102213360D01*
X70086131Y-102408620D01*
X70020703Y-102619333D01*
X69994770Y-102838440D01*
X70009200Y-103058604D01*
X70010621Y-103064200D01*
X70010622Y-103064205D01*
X70047833Y-103210721D01*
X70063511Y-103272452D01*
X70135425Y-103428445D01*
X70145780Y-103498681D01*
X70116518Y-103563367D01*
X70110094Y-103570290D01*
X69808645Y-103871739D01*
X69789553Y-103887409D01*
X69776865Y-103895887D01*
X69761496Y-103918888D01*
X69759012Y-103917228D01*
X69759010Y-103917232D01*
X69761493Y-103918891D01*
X69753419Y-103930975D01*
X69753418Y-103930978D01*
X69715974Y-103987016D01*
X69704971Y-104042331D01*
X69694592Y-104094511D01*
X69697013Y-104106682D01*
X69697568Y-104109472D01*
X69699989Y-104134054D01*
X69699989Y-115025946D01*
X69697568Y-115050528D01*
X69694592Y-115065489D01*
X68580000Y-115065489D01*
X68580000Y-101637890D01*
X75332093Y-101637890D01*
X75335876Y-101646666D01*
X76187188Y-102497978D01*
X76201132Y-102505592D01*
X76202965Y-102505461D01*
X76209580Y-102501210D01*
X77061080Y-101649710D01*
X77067840Y-101637330D01*
X77062113Y-101629680D01*
X76990774Y-101585963D01*
X84084757Y-101585963D01*
X84101175Y-101781483D01*
X84155258Y-101970091D01*
X84158076Y-101975574D01*
X84242123Y-102139113D01*
X84242126Y-102139117D01*
X84244944Y-102144601D01*
X84366818Y-102298369D01*
X84371511Y-102302363D01*
X84371512Y-102302364D01*
X84502847Y-102414138D01*
X84516238Y-102425535D01*
X84521616Y-102428541D01*
X84521618Y-102428542D01*
X84557932Y-102448837D01*
X84687513Y-102521257D01*
X84874118Y-102581889D01*
X85068946Y-102605121D01*
X85075081Y-102604649D01*
X85075083Y-102604649D01*
X85258434Y-102590541D01*
X85258438Y-102590540D01*
X85264576Y-102590068D01*
X85453556Y-102537303D01*
X85628689Y-102448837D01*
X85658515Y-102425535D01*
X85778453Y-102331829D01*
X85783303Y-102328040D01*
X85813084Y-102293539D01*
X85907485Y-102184173D01*
X85907485Y-102184172D01*
X85911509Y-102179511D01*
X86008425Y-102008909D01*
X86070358Y-101822732D01*
X86094949Y-101628071D01*
X86095341Y-101600000D01*
X86093965Y-101585963D01*
X91704757Y-101585963D01*
X91721175Y-101781483D01*
X91775258Y-101970091D01*
X91778076Y-101975574D01*
X91862123Y-102139113D01*
X91862126Y-102139117D01*
X91864944Y-102144601D01*
X91986818Y-102298369D01*
X91991511Y-102302363D01*
X91991512Y-102302364D01*
X92122847Y-102414138D01*
X92136238Y-102425535D01*
X92141616Y-102428541D01*
X92141618Y-102428542D01*
X92177932Y-102448837D01*
X92307513Y-102521257D01*
X92494118Y-102581889D01*
X92688946Y-102605121D01*
X92695081Y-102604649D01*
X92695083Y-102604649D01*
X92878434Y-102590541D01*
X92878438Y-102590540D01*
X92884576Y-102590068D01*
X93073556Y-102537303D01*
X93248689Y-102448837D01*
X93278515Y-102425535D01*
X93398453Y-102331829D01*
X93403303Y-102328040D01*
X93433084Y-102293539D01*
X93527485Y-102184173D01*
X93527485Y-102184172D01*
X93531509Y-102179511D01*
X93628425Y-102008909D01*
X93690358Y-101822732D01*
X93714949Y-101628071D01*
X93715341Y-101600000D01*
X93696194Y-101404728D01*
X93694413Y-101398829D01*
X93694412Y-101398824D01*
X93641265Y-101222793D01*
X93639484Y-101216894D01*
X93547370Y-101043653D01*
X93423361Y-100891602D01*
X93272180Y-100766535D01*
X93099585Y-100673213D01*
X92969164Y-100632841D01*
X92918039Y-100617015D01*
X92918036Y-100617014D01*
X92912152Y-100615193D01*
X92906027Y-100614549D01*
X92906026Y-100614549D01*
X92723147Y-100595327D01*
X92723146Y-100595327D01*
X92717019Y-100594683D01*
X92594383Y-100605844D01*
X92527759Y-100611907D01*
X92527758Y-100611907D01*
X92521618Y-100612466D01*
X92515704Y-100614207D01*
X92515702Y-100614207D01*
X92478314Y-100625211D01*
X92333393Y-100667864D01*
X92327928Y-100670721D01*
X92164972Y-100755912D01*
X92164968Y-100755915D01*
X92159512Y-100758767D01*
X92154712Y-100762627D01*
X92154711Y-100762627D01*
X92120326Y-100790273D01*
X92006600Y-100881711D01*
X91880480Y-101032016D01*
X91877516Y-101037408D01*
X91877513Y-101037412D01*
X91798813Y-101180567D01*
X91785956Y-101203954D01*
X91726628Y-101390978D01*
X91704757Y-101585963D01*
X86093965Y-101585963D01*
X86076194Y-101404728D01*
X86074413Y-101398829D01*
X86074412Y-101398824D01*
X86021265Y-101222793D01*
X86019484Y-101216894D01*
X85927370Y-101043653D01*
X85803361Y-100891602D01*
X85652180Y-100766535D01*
X85479585Y-100673213D01*
X85349164Y-100632841D01*
X85298039Y-100617015D01*
X85298036Y-100617014D01*
X85292152Y-100615193D01*
X85286027Y-100614549D01*
X85286026Y-100614549D01*
X85103147Y-100595327D01*
X85103146Y-100595327D01*
X85097019Y-100594683D01*
X84974383Y-100605844D01*
X84907759Y-100611907D01*
X84907758Y-100611907D01*
X84901618Y-100612466D01*
X84895704Y-100614207D01*
X84895702Y-100614207D01*
X84858314Y-100625211D01*
X84713393Y-100667864D01*
X84707928Y-100670721D01*
X84544972Y-100755912D01*
X84544968Y-100755915D01*
X84539512Y-100758767D01*
X84534712Y-100762627D01*
X84534711Y-100762627D01*
X84500326Y-100790273D01*
X84386600Y-100881711D01*
X84260480Y-101032016D01*
X84257516Y-101037408D01*
X84257513Y-101037412D01*
X84178813Y-101180567D01*
X84165956Y-101203954D01*
X84106628Y-101390978D01*
X84084757Y-101585963D01*
X76990774Y-101585963D01*
X76890958Y-101524795D01*
X76882163Y-101520313D01*
X76672012Y-101433266D01*
X76662627Y-101430217D01*
X76441446Y-101377115D01*
X76431699Y-101375572D01*
X76204930Y-101357725D01*
X76195070Y-101357725D01*
X75968301Y-101375572D01*
X75958554Y-101377115D01*
X75737373Y-101430217D01*
X75727988Y-101433266D01*
X75517837Y-101520313D01*
X75509042Y-101524795D01*
X75341555Y-101627432D01*
X75332093Y-101637890D01*
X68580000Y-101637890D01*
X68580000Y-99979748D01*
X97959500Y-99979748D01*
X97960707Y-99985816D01*
X97967628Y-100020608D01*
X97971133Y-100038231D01*
X98015448Y-100104552D01*
X98081769Y-100148867D01*
X98093938Y-100151288D01*
X98093939Y-100151288D01*
X98134184Y-100159293D01*
X98140252Y-100160500D01*
X98658500Y-100160500D01*
X98726621Y-100180502D01*
X98773114Y-100234158D01*
X98784500Y-100286500D01*
X98784500Y-107910457D01*
X98782079Y-107935039D01*
X98779103Y-107950000D01*
X98784500Y-107977132D01*
X98784500Y-107977133D01*
X98800485Y-108057495D01*
X98861376Y-108148624D01*
X98871692Y-108155517D01*
X98871693Y-108155518D01*
X98874064Y-108157102D01*
X98893156Y-108172772D01*
X100658150Y-109937766D01*
X100692176Y-110000078D01*
X100687111Y-110070893D01*
X100679470Y-110087562D01*
X100675956Y-110093954D01*
X100616628Y-110280978D01*
X100594757Y-110475963D01*
X100611175Y-110671483D01*
X100665258Y-110860091D01*
X100668076Y-110865574D01*
X100752123Y-111029113D01*
X100752126Y-111029117D01*
X100754944Y-111034601D01*
X100876818Y-111188369D01*
X100881511Y-111192363D01*
X100881512Y-111192364D01*
X101004898Y-111297373D01*
X101026238Y-111315535D01*
X101031616Y-111318541D01*
X101031618Y-111318542D01*
X101066211Y-111337875D01*
X101197513Y-111411257D01*
X101384118Y-111471889D01*
X101578946Y-111495121D01*
X101585081Y-111494649D01*
X101585083Y-111494649D01*
X101768434Y-111480541D01*
X101768438Y-111480540D01*
X101774576Y-111480068D01*
X101963556Y-111427303D01*
X102138689Y-111338837D01*
X102168515Y-111315535D01*
X102220153Y-111275191D01*
X102293303Y-111218040D01*
X102298677Y-111211815D01*
X102417485Y-111074173D01*
X102417485Y-111074172D01*
X102421509Y-111069511D01*
X102518425Y-110898909D01*
X102580358Y-110712732D01*
X102604949Y-110518071D01*
X102605341Y-110490000D01*
X102586194Y-110294728D01*
X102584413Y-110288829D01*
X102584412Y-110288824D01*
X102531265Y-110112793D01*
X102529484Y-110106894D01*
X102437370Y-109933653D01*
X102313361Y-109781602D01*
X102162180Y-109656535D01*
X101989585Y-109563213D01*
X101862711Y-109523939D01*
X101808039Y-109507015D01*
X101808036Y-109507014D01*
X101802152Y-109505193D01*
X101796027Y-109504549D01*
X101796026Y-109504549D01*
X101613147Y-109485327D01*
X101613146Y-109485327D01*
X101607019Y-109484683D01*
X101521686Y-109492449D01*
X101417759Y-109501907D01*
X101417758Y-109501907D01*
X101411618Y-109502466D01*
X101405704Y-109504207D01*
X101405702Y-109504207D01*
X101380009Y-109511769D01*
X101223393Y-109557864D01*
X101196464Y-109571942D01*
X101126831Y-109585778D01*
X101060769Y-109559770D01*
X101048993Y-109549377D01*
X99372405Y-107872789D01*
X99338379Y-107810477D01*
X99335500Y-107783694D01*
X99335500Y-100286500D01*
X99354613Y-100221406D01*
X100803423Y-100221406D01*
X100808704Y-100228461D01*
X100985080Y-100331527D01*
X100994363Y-100335974D01*
X101201003Y-100414883D01*
X101210901Y-100417759D01*
X101427653Y-100461857D01*
X101437883Y-100463076D01*
X101658914Y-100471182D01*
X101669223Y-100470714D01*
X101888623Y-100442608D01*
X101898688Y-100440468D01*
X102110557Y-100376905D01*
X102120152Y-100373144D01*
X102318778Y-100275838D01*
X102327636Y-100270559D01*
X102385097Y-100229572D01*
X102393497Y-100218874D01*
X102386510Y-100205721D01*
X101612811Y-99432021D01*
X101598868Y-99424408D01*
X101597034Y-99424539D01*
X101590420Y-99428790D01*
X100810180Y-100209031D01*
X100803423Y-100221406D01*
X99354613Y-100221406D01*
X99355502Y-100218379D01*
X99409158Y-100171886D01*
X99461500Y-100160500D01*
X99979748Y-100160500D01*
X99985816Y-100159293D01*
X100026061Y-100151288D01*
X100026062Y-100151288D01*
X100038231Y-100148867D01*
X100104552Y-100104552D01*
X100148867Y-100038231D01*
X100152373Y-100020608D01*
X100159293Y-99985816D01*
X100160500Y-99979748D01*
X100160500Y-99852600D01*
X100180502Y-99784479D01*
X100234158Y-99737986D01*
X100304432Y-99727882D01*
X100369012Y-99757376D01*
X100393933Y-99786766D01*
X100430097Y-99845781D01*
X100440553Y-99855242D01*
X100449331Y-99851458D01*
X101227979Y-99072811D01*
X101234356Y-99061132D01*
X101964408Y-99061132D01*
X101964539Y-99062966D01*
X101968790Y-99069580D01*
X102746307Y-99847096D01*
X102758313Y-99853652D01*
X102770052Y-99844684D01*
X102808010Y-99791859D01*
X102813321Y-99783020D01*
X102911318Y-99584737D01*
X102915117Y-99575142D01*
X102979415Y-99363517D01*
X102981594Y-99353436D01*
X103010702Y-99132338D01*
X103011221Y-99125663D01*
X103012744Y-99063364D01*
X103012550Y-99056646D01*
X102994279Y-98834400D01*
X102992596Y-98824238D01*
X102938710Y-98609708D01*
X102935389Y-98599953D01*
X102847193Y-98397118D01*
X102842315Y-98388020D01*
X102769224Y-98275038D01*
X102758538Y-98265835D01*
X102748973Y-98270238D01*
X101972021Y-99047189D01*
X101964408Y-99061132D01*
X101234356Y-99061132D01*
X101235592Y-99058868D01*
X101235461Y-99057034D01*
X101231210Y-99050420D01*
X100453862Y-98273073D01*
X100442330Y-98266776D01*
X100430048Y-98276399D01*
X100390588Y-98334245D01*
X100335677Y-98379247D01*
X100265152Y-98387418D01*
X100201405Y-98356164D01*
X100164675Y-98295407D01*
X100160500Y-98263240D01*
X100160500Y-98140252D01*
X100148867Y-98081769D01*
X100104552Y-98015448D01*
X100038231Y-97971133D01*
X100026062Y-97968712D01*
X100026061Y-97968712D01*
X99985816Y-97960707D01*
X99979748Y-97959500D01*
X98140252Y-97959500D01*
X98134184Y-97960707D01*
X98093939Y-97968712D01*
X98093938Y-97968712D01*
X98081769Y-97971133D01*
X98015448Y-98015448D01*
X97971133Y-98081769D01*
X97959500Y-98140252D01*
X97959500Y-99979748D01*
X68580000Y-99979748D01*
X68580000Y-97900711D01*
X100805508Y-97900711D01*
X100812251Y-97913040D01*
X101587189Y-98687979D01*
X101601132Y-98695592D01*
X101602966Y-98695461D01*
X101609580Y-98691210D01*
X102388994Y-97911795D01*
X102396011Y-97898944D01*
X102388237Y-97888274D01*
X102385902Y-97886430D01*
X102377320Y-97880729D01*
X102183678Y-97773833D01*
X102174272Y-97769606D01*
X101965772Y-97695772D01*
X101955809Y-97693140D01*
X101738047Y-97654350D01*
X101727796Y-97653381D01*
X101506616Y-97650679D01*
X101496332Y-97651399D01*
X101277693Y-97684855D01*
X101267666Y-97687244D01*
X101057426Y-97755961D01*
X101047916Y-97759958D01*
X100851725Y-97862089D01*
X100843007Y-97867578D01*
X100813961Y-97889386D01*
X100805508Y-97900711D01*
X68580000Y-97900711D01*
X68580000Y-93397294D01*
X82989066Y-93397294D01*
X82998948Y-93409783D01*
X83030239Y-93430691D01*
X83040349Y-93436181D01*
X83216835Y-93512005D01*
X83227778Y-93515560D01*
X83415120Y-93557952D01*
X83426530Y-93559454D01*
X83618469Y-93566995D01*
X83629951Y-93566393D01*
X83820045Y-93538832D01*
X83831240Y-93536144D01*
X84013131Y-93474400D01*
X84023628Y-93469726D01*
X84134032Y-93407898D01*
X84143895Y-93397821D01*
X84140940Y-93390151D01*
X83578811Y-92828021D01*
X83564868Y-92820408D01*
X83563034Y-92820539D01*
X83556420Y-92824790D01*
X82995259Y-93385952D01*
X82989066Y-93397294D01*
X68580000Y-93397294D01*
X68580000Y-92444753D01*
X77760514Y-92444753D01*
X77761201Y-92451760D01*
X77761201Y-92451763D01*
X77761980Y-92459704D01*
X77778039Y-92623486D01*
X77780262Y-92630168D01*
X77780262Y-92630169D01*
X77788967Y-92656336D01*
X77834726Y-92793896D01*
X77838373Y-92799918D01*
X77850862Y-92820539D01*
X77927759Y-92947512D01*
X78052514Y-93076699D01*
X78202789Y-93175036D01*
X78371116Y-93237636D01*
X78378097Y-93238567D01*
X78378099Y-93238568D01*
X78542149Y-93260457D01*
X78542153Y-93260457D01*
X78549130Y-93261388D01*
X78556142Y-93260750D01*
X78556146Y-93260750D01*
X78720960Y-93245751D01*
X78720961Y-93245751D01*
X78727981Y-93245112D01*
X78898782Y-93189615D01*
X78929714Y-93171176D01*
X79046992Y-93101265D01*
X79046994Y-93101264D01*
X79053044Y-93097657D01*
X79183099Y-92973807D01*
X79200570Y-92947512D01*
X79278582Y-92830093D01*
X79282483Y-92824222D01*
X79297168Y-92785564D01*
X79343757Y-92662919D01*
X79343758Y-92662914D01*
X79346257Y-92656336D01*
X79351859Y-92616476D01*
X79370700Y-92482416D01*
X79370700Y-92482411D01*
X79371251Y-92478493D01*
X79371565Y-92456000D01*
X79368945Y-92432638D01*
X82454012Y-92432638D01*
X82466575Y-92624304D01*
X82468376Y-92635674D01*
X82515657Y-92821843D01*
X82519498Y-92832690D01*
X82599916Y-93007130D01*
X82605664Y-93017086D01*
X82611788Y-93025751D01*
X82622377Y-93034140D01*
X82635676Y-93027113D01*
X83193979Y-92468811D01*
X83200356Y-92457132D01*
X83930408Y-92457132D01*
X83930539Y-92458966D01*
X83934790Y-92465580D01*
X84496239Y-93027028D01*
X84508614Y-93033785D01*
X84515194Y-93028859D01*
X84579726Y-92913628D01*
X84584400Y-92903131D01*
X84646144Y-92721240D01*
X84648832Y-92710045D01*
X84676689Y-92517911D01*
X84677319Y-92510528D01*
X84678650Y-92459704D01*
X84678407Y-92452305D01*
X84660643Y-92258975D01*
X84658545Y-92247654D01*
X84606408Y-92062791D01*
X84602283Y-92052044D01*
X84518163Y-91881465D01*
X84510869Y-91875990D01*
X84498449Y-91882762D01*
X83938021Y-92443189D01*
X83930408Y-92457132D01*
X83200356Y-92457132D01*
X83201592Y-92454868D01*
X83201461Y-92453034D01*
X83197210Y-92446420D01*
X82634538Y-91883749D01*
X82622163Y-91876992D01*
X82616197Y-91881458D01*
X82540645Y-92025058D01*
X82536242Y-92035691D01*
X82479281Y-92219132D01*
X82476891Y-92230376D01*
X82454313Y-92421137D01*
X82454012Y-92432638D01*
X79368945Y-92432638D01*
X79351546Y-92277528D01*
X79345427Y-92259955D01*
X79294803Y-92114584D01*
X79292485Y-92107927D01*
X79257566Y-92052044D01*
X79201049Y-91961599D01*
X79197316Y-91955625D01*
X79118235Y-91875990D01*
X79075733Y-91833190D01*
X79075729Y-91833187D01*
X79070770Y-91828193D01*
X79059761Y-91821206D01*
X79012860Y-91791442D01*
X78919136Y-91731963D01*
X78889352Y-91721357D01*
X78756586Y-91674081D01*
X78756581Y-91674080D01*
X78749951Y-91671719D01*
X78742965Y-91670886D01*
X78742961Y-91670885D01*
X78615177Y-91655648D01*
X78571624Y-91650455D01*
X78564621Y-91651191D01*
X78564620Y-91651191D01*
X78400025Y-91668490D01*
X78400021Y-91668491D01*
X78393017Y-91669227D01*
X78386346Y-91671498D01*
X78229677Y-91724832D01*
X78229674Y-91724833D01*
X78223007Y-91727103D01*
X78217009Y-91730793D01*
X78217007Y-91730794D01*
X78146526Y-91774154D01*
X78070045Y-91821206D01*
X78065014Y-91826132D01*
X78065011Y-91826135D01*
X78008510Y-91881465D01*
X77941732Y-91946859D01*
X77937913Y-91952784D01*
X77937912Y-91952786D01*
X77873945Y-92052044D01*
X77844446Y-92097817D01*
X77783022Y-92266578D01*
X77760514Y-92444753D01*
X68580000Y-92444753D01*
X68580000Y-91514675D01*
X82988788Y-91514675D01*
X82992275Y-91523064D01*
X83553189Y-92083979D01*
X83567132Y-92091592D01*
X83568966Y-92091461D01*
X83575580Y-92087210D01*
X84136285Y-91526504D01*
X84143042Y-91514129D01*
X84137012Y-91506073D01*
X84076061Y-91467616D01*
X84065813Y-91462395D01*
X83887401Y-91391216D01*
X83876373Y-91387949D01*
X83687982Y-91350476D01*
X83676535Y-91349273D01*
X83484477Y-91346759D01*
X83472997Y-91347662D01*
X83283697Y-91380190D01*
X83272577Y-91383170D01*
X83092365Y-91449653D01*
X83081991Y-91454601D01*
X82998385Y-91504342D01*
X82988788Y-91514675D01*
X68580000Y-91514675D01*
X68580000Y-89744669D01*
X93942001Y-89744669D01*
X93942371Y-89751490D01*
X93947895Y-89802352D01*
X93951521Y-89817604D01*
X93996676Y-89938054D01*
X94005214Y-89953649D01*
X94081715Y-90055724D01*
X94094276Y-90068285D01*
X94196351Y-90144786D01*
X94211946Y-90153324D01*
X94332394Y-90198478D01*
X94347649Y-90202105D01*
X94398514Y-90207631D01*
X94405328Y-90208000D01*
X94977885Y-90208000D01*
X94993124Y-90203525D01*
X94994329Y-90202135D01*
X94996000Y-90194452D01*
X94996000Y-90189884D01*
X95504000Y-90189884D01*
X95508475Y-90205123D01*
X95509865Y-90206328D01*
X95517548Y-90207999D01*
X96094669Y-90207999D01*
X96101490Y-90207629D01*
X96152352Y-90202105D01*
X96167604Y-90198479D01*
X96288054Y-90153324D01*
X96303649Y-90144786D01*
X96405724Y-90068285D01*
X96418285Y-90055724D01*
X96494786Y-89953649D01*
X96503324Y-89938054D01*
X96548478Y-89817606D01*
X96552105Y-89802351D01*
X96557631Y-89751486D01*
X96558000Y-89744672D01*
X96558000Y-89172115D01*
X96553525Y-89156876D01*
X96552135Y-89155671D01*
X96544452Y-89154000D01*
X95522115Y-89154000D01*
X95506876Y-89158475D01*
X95505671Y-89159865D01*
X95504000Y-89167548D01*
X95504000Y-90189884D01*
X94996000Y-90189884D01*
X94996000Y-89172115D01*
X94991525Y-89156876D01*
X94990135Y-89155671D01*
X94982452Y-89154000D01*
X93960116Y-89154000D01*
X93944877Y-89158475D01*
X93943672Y-89159865D01*
X93942001Y-89167548D01*
X93942001Y-89744669D01*
X68580000Y-89744669D01*
X68580000Y-88885963D01*
X101864757Y-88885963D01*
X101881175Y-89081483D01*
X101935258Y-89270091D01*
X101938076Y-89275574D01*
X102022123Y-89439113D01*
X102022126Y-89439117D01*
X102024944Y-89444601D01*
X102146818Y-89598369D01*
X102296238Y-89725535D01*
X102301616Y-89728541D01*
X102301618Y-89728542D01*
X102337932Y-89748837D01*
X102467513Y-89821257D01*
X102654118Y-89881889D01*
X102848946Y-89905121D01*
X102855081Y-89904649D01*
X102855083Y-89904649D01*
X103038434Y-89890541D01*
X103038438Y-89890540D01*
X103044576Y-89890068D01*
X103233556Y-89837303D01*
X103408689Y-89748837D01*
X103438515Y-89725535D01*
X103558453Y-89631829D01*
X103563303Y-89628040D01*
X103593084Y-89593539D01*
X103687485Y-89484173D01*
X103687485Y-89484172D01*
X103691509Y-89479511D01*
X103788425Y-89308909D01*
X103850358Y-89122732D01*
X103874949Y-88928071D01*
X103875341Y-88900000D01*
X103856194Y-88704728D01*
X103854413Y-88698829D01*
X103854412Y-88698824D01*
X103801265Y-88522793D01*
X103799484Y-88516894D01*
X103707370Y-88343653D01*
X103583361Y-88191602D01*
X103432180Y-88066535D01*
X103259585Y-87973213D01*
X103165868Y-87944203D01*
X103078039Y-87917015D01*
X103078036Y-87917014D01*
X103072152Y-87915193D01*
X103066027Y-87914549D01*
X103066026Y-87914549D01*
X102883147Y-87895327D01*
X102883146Y-87895327D01*
X102877019Y-87894683D01*
X102754383Y-87905844D01*
X102687759Y-87911907D01*
X102687758Y-87911907D01*
X102681618Y-87912466D01*
X102675704Y-87914207D01*
X102675702Y-87914207D01*
X102546734Y-87952165D01*
X102493393Y-87967864D01*
X102487928Y-87970721D01*
X102324972Y-88055912D01*
X102324968Y-88055915D01*
X102319512Y-88058767D01*
X102314712Y-88062627D01*
X102314711Y-88062627D01*
X102280326Y-88090273D01*
X102166600Y-88181711D01*
X102040480Y-88332016D01*
X102037516Y-88337408D01*
X102037513Y-88337412D01*
X101958813Y-88480567D01*
X101945956Y-88503954D01*
X101886628Y-88690978D01*
X101864757Y-88885963D01*
X68580000Y-88885963D01*
X68580000Y-88627885D01*
X93942000Y-88627885D01*
X93946475Y-88643124D01*
X93947865Y-88644329D01*
X93955548Y-88646000D01*
X94977885Y-88646000D01*
X94993124Y-88641525D01*
X94994329Y-88640135D01*
X94996000Y-88632452D01*
X94996000Y-88627885D01*
X95504000Y-88627885D01*
X95508475Y-88643124D01*
X95509865Y-88644329D01*
X95517548Y-88646000D01*
X96539884Y-88646000D01*
X96555123Y-88641525D01*
X96556328Y-88640135D01*
X96557999Y-88632452D01*
X96557999Y-88055331D01*
X96557629Y-88048510D01*
X96552105Y-87997648D01*
X96548479Y-87982396D01*
X96503324Y-87861946D01*
X96494786Y-87846351D01*
X96418285Y-87744276D01*
X96405724Y-87731715D01*
X96303649Y-87655214D01*
X96288054Y-87646676D01*
X96167606Y-87601522D01*
X96152351Y-87597895D01*
X96101486Y-87592369D01*
X96094672Y-87592000D01*
X95522115Y-87592000D01*
X95506876Y-87596475D01*
X95505671Y-87597865D01*
X95504000Y-87605548D01*
X95504000Y-88627885D01*
X94996000Y-88627885D01*
X94996000Y-87610116D01*
X94991525Y-87594877D01*
X94990135Y-87593672D01*
X94982452Y-87592001D01*
X94405331Y-87592001D01*
X94398510Y-87592371D01*
X94347648Y-87597895D01*
X94332396Y-87601521D01*
X94211946Y-87646676D01*
X94196351Y-87655214D01*
X94094276Y-87731715D01*
X94081715Y-87744276D01*
X94005214Y-87846351D01*
X93996676Y-87861946D01*
X93951522Y-87982394D01*
X93947895Y-87997649D01*
X93942369Y-88048514D01*
X93942000Y-88055328D01*
X93942000Y-88627885D01*
X68580000Y-88627885D01*
X68580000Y-85216000D01*
X68600002Y-85147879D01*
X68653658Y-85101386D01*
X68706000Y-85090000D01*
X147194000Y-85090000D01*
X147262121Y-85110002D01*
G37*
%TD.AperFunction*%
%TA.AperFunction,Conductor*%
G36*
X73925490Y-134261043D02*
G01*
X73952235Y-134281440D01*
X74217657Y-134546862D01*
X74251683Y-134609174D01*
X74246618Y-134679989D01*
X74204071Y-134736825D01*
X74203415Y-134737276D01*
X74179677Y-134755099D01*
X74171223Y-134766427D01*
X74177968Y-134778758D01*
X75200115Y-135800905D01*
X75234141Y-135863217D01*
X75229076Y-135934032D01*
X75200115Y-135979095D01*
X75019095Y-136160115D01*
X74956783Y-136194141D01*
X74885968Y-136189076D01*
X74840905Y-136160115D01*
X73819846Y-135139056D01*
X73805624Y-135131290D01*
X73755422Y-135081087D01*
X73740011Y-135020704D01*
X73740011Y-134464054D01*
X73742432Y-134439472D01*
X73742987Y-134436682D01*
X73745408Y-134424511D01*
X73739561Y-134395116D01*
X73745889Y-134324402D01*
X73789444Y-134268335D01*
X73856396Y-134244716D01*
X73925490Y-134261043D01*
G37*
%TD.AperFunction*%
%TD*%
M02*
