%TF.GenerationSoftware,KiCad,Pcbnew,(6.0.0)*%
%TF.CreationDate,2022-05-08T17:08:30-04:00*%
%TF.ProjectId,QR_ATTINY3217,51525f41-5454-4494-9e59-333231372e6b,rev?*%
%TF.SameCoordinates,Original*%
%TF.FileFunction,Legend,Top*%
%TF.FilePolarity,Positive*%
%FSLAX46Y46*%
G04 Gerber Fmt 4.6, Leading zero omitted, Abs format (unit mm)*
G04 Created by KiCad (PCBNEW (6.0.0)) date 2022-05-08 17:08:30*
%MOMM*%
%LPD*%
G01*
G04 APERTURE LIST*
%ADD10C,0.254605*%
%ADD11C,0.150000*%
%ADD12C,0.100000*%
%ADD13C,0.200000*%
%ADD14C,0.350000*%
%ADD15C,0.300000*%
%ADD16C,0.120000*%
%ADD17C,0.254000*%
G04 APERTURE END LIST*
D10*
X132842302Y-74930000D02*
G75*
G03*
X132842302Y-74930000I-127302J0D01*
G01*
X153924302Y-74930000D02*
G75*
G03*
X153924302Y-74930000I-127302J0D01*
G01*
X143002302Y-74930000D02*
G75*
G03*
X143002302Y-74930000I-127302J0D01*
G01*
D11*
X117348095Y-93636714D02*
X117348095Y-94303380D01*
X117110000Y-93255761D02*
X116871904Y-93970047D01*
X117490952Y-93970047D01*
X118062380Y-93303380D02*
X118157619Y-93303380D01*
X118252857Y-93351000D01*
X118300476Y-93398619D01*
X118348095Y-93493857D01*
X118395714Y-93684333D01*
X118395714Y-93922428D01*
X118348095Y-94112904D01*
X118300476Y-94208142D01*
X118252857Y-94255761D01*
X118157619Y-94303380D01*
X118062380Y-94303380D01*
X117967142Y-94255761D01*
X117919523Y-94208142D01*
X117871904Y-94112904D01*
X117824285Y-93922428D01*
X117824285Y-93684333D01*
X117871904Y-93493857D01*
X117919523Y-93398619D01*
X117967142Y-93351000D01*
X118062380Y-93303380D01*
X119252857Y-93636714D02*
X119252857Y-94303380D01*
X119014761Y-93255761D02*
X118776666Y-93970047D01*
X119395714Y-93970047D01*
X115562380Y-95246714D02*
X115943333Y-95246714D01*
X115705238Y-95913380D02*
X115705238Y-95056238D01*
X115752857Y-94961000D01*
X115848095Y-94913380D01*
X115943333Y-94913380D01*
X116657619Y-95865761D02*
X116562380Y-95913380D01*
X116371904Y-95913380D01*
X116276666Y-95865761D01*
X116229047Y-95770523D01*
X116229047Y-95389571D01*
X116276666Y-95294333D01*
X116371904Y-95246714D01*
X116562380Y-95246714D01*
X116657619Y-95294333D01*
X116705238Y-95389571D01*
X116705238Y-95484809D01*
X116229047Y-95580047D01*
X117562380Y-95913380D02*
X117562380Y-95389571D01*
X117514761Y-95294333D01*
X117419523Y-95246714D01*
X117229047Y-95246714D01*
X117133809Y-95294333D01*
X117562380Y-95865761D02*
X117467142Y-95913380D01*
X117229047Y-95913380D01*
X117133809Y-95865761D01*
X117086190Y-95770523D01*
X117086190Y-95675285D01*
X117133809Y-95580047D01*
X117229047Y-95532428D01*
X117467142Y-95532428D01*
X117562380Y-95484809D01*
X117895714Y-95246714D02*
X118276666Y-95246714D01*
X118038571Y-94913380D02*
X118038571Y-95770523D01*
X118086190Y-95865761D01*
X118181428Y-95913380D01*
X118276666Y-95913380D01*
X119038571Y-95246714D02*
X119038571Y-95913380D01*
X118610000Y-95246714D02*
X118610000Y-95770523D01*
X118657619Y-95865761D01*
X118752857Y-95913380D01*
X118895714Y-95913380D01*
X118990952Y-95865761D01*
X119038571Y-95818142D01*
X119514761Y-95913380D02*
X119514761Y-95246714D01*
X119514761Y-95437190D02*
X119562380Y-95341952D01*
X119610000Y-95294333D01*
X119705238Y-95246714D01*
X119800476Y-95246714D01*
X120514761Y-95865761D02*
X120419523Y-95913380D01*
X120229047Y-95913380D01*
X120133809Y-95865761D01*
X120086190Y-95770523D01*
X120086190Y-95389571D01*
X120133809Y-95294333D01*
X120229047Y-95246714D01*
X120419523Y-95246714D01*
X120514761Y-95294333D01*
X120562380Y-95389571D01*
X120562380Y-95484809D01*
X120086190Y-95580047D01*
X117157619Y-96856714D02*
X117157619Y-97523380D01*
X117157619Y-96951952D02*
X117205238Y-96904333D01*
X117300476Y-96856714D01*
X117443333Y-96856714D01*
X117538571Y-96904333D01*
X117586190Y-96999571D01*
X117586190Y-97523380D01*
X118205238Y-97523380D02*
X118110000Y-97475761D01*
X118062380Y-97428142D01*
X118014761Y-97332904D01*
X118014761Y-97047190D01*
X118062380Y-96951952D01*
X118110000Y-96904333D01*
X118205238Y-96856714D01*
X118348095Y-96856714D01*
X118443333Y-96904333D01*
X118490952Y-96951952D01*
X118538571Y-97047190D01*
X118538571Y-97332904D01*
X118490952Y-97428142D01*
X118443333Y-97475761D01*
X118348095Y-97523380D01*
X118205238Y-97523380D01*
X118824285Y-96856714D02*
X119205238Y-96856714D01*
X118967142Y-96523380D02*
X118967142Y-97380523D01*
X119014761Y-97475761D01*
X119110000Y-97523380D01*
X119205238Y-97523380D01*
X116110000Y-98466714D02*
X116490952Y-98466714D01*
X116252857Y-99133380D02*
X116252857Y-98276238D01*
X116300476Y-98181000D01*
X116395714Y-98133380D01*
X116490952Y-98133380D01*
X116967142Y-99133380D02*
X116871904Y-99085761D01*
X116824285Y-99038142D01*
X116776666Y-98942904D01*
X116776666Y-98657190D01*
X116824285Y-98561952D01*
X116871904Y-98514333D01*
X116967142Y-98466714D01*
X117110000Y-98466714D01*
X117205238Y-98514333D01*
X117252857Y-98561952D01*
X117300476Y-98657190D01*
X117300476Y-98942904D01*
X117252857Y-99038142D01*
X117205238Y-99085761D01*
X117110000Y-99133380D01*
X116967142Y-99133380D01*
X118157619Y-98466714D02*
X118157619Y-99133380D01*
X117729047Y-98466714D02*
X117729047Y-98990523D01*
X117776666Y-99085761D01*
X117871904Y-99133380D01*
X118014761Y-99133380D01*
X118110000Y-99085761D01*
X118157619Y-99038142D01*
X118633809Y-98466714D02*
X118633809Y-99133380D01*
X118633809Y-98561952D02*
X118681428Y-98514333D01*
X118776666Y-98466714D01*
X118919523Y-98466714D01*
X119014761Y-98514333D01*
X119062380Y-98609571D01*
X119062380Y-99133380D01*
X119967142Y-99133380D02*
X119967142Y-98133380D01*
X119967142Y-99085761D02*
X119871904Y-99133380D01*
X119681428Y-99133380D01*
X119586190Y-99085761D01*
X119538571Y-99038142D01*
X119490952Y-98942904D01*
X119490952Y-98657190D01*
X119538571Y-98561952D01*
X119586190Y-98514333D01*
X119681428Y-98466714D01*
X119871904Y-98466714D01*
X119967142Y-98514333D01*
X149098095Y-118020714D02*
X149098095Y-118687380D01*
X148860000Y-117639761D02*
X148621904Y-118354047D01*
X149240952Y-118354047D01*
X149812380Y-117687380D02*
X149907619Y-117687380D01*
X150002857Y-117735000D01*
X150050476Y-117782619D01*
X150098095Y-117877857D01*
X150145714Y-118068333D01*
X150145714Y-118306428D01*
X150098095Y-118496904D01*
X150050476Y-118592142D01*
X150002857Y-118639761D01*
X149907619Y-118687380D01*
X149812380Y-118687380D01*
X149717142Y-118639761D01*
X149669523Y-118592142D01*
X149621904Y-118496904D01*
X149574285Y-118306428D01*
X149574285Y-118068333D01*
X149621904Y-117877857D01*
X149669523Y-117782619D01*
X149717142Y-117735000D01*
X149812380Y-117687380D01*
X151002857Y-118020714D02*
X151002857Y-118687380D01*
X150764761Y-117639761D02*
X150526666Y-118354047D01*
X151145714Y-118354047D01*
X147312380Y-119630714D02*
X147693333Y-119630714D01*
X147455238Y-120297380D02*
X147455238Y-119440238D01*
X147502857Y-119345000D01*
X147598095Y-119297380D01*
X147693333Y-119297380D01*
X148407619Y-120249761D02*
X148312380Y-120297380D01*
X148121904Y-120297380D01*
X148026666Y-120249761D01*
X147979047Y-120154523D01*
X147979047Y-119773571D01*
X148026666Y-119678333D01*
X148121904Y-119630714D01*
X148312380Y-119630714D01*
X148407619Y-119678333D01*
X148455238Y-119773571D01*
X148455238Y-119868809D01*
X147979047Y-119964047D01*
X149312380Y-120297380D02*
X149312380Y-119773571D01*
X149264761Y-119678333D01*
X149169523Y-119630714D01*
X148979047Y-119630714D01*
X148883809Y-119678333D01*
X149312380Y-120249761D02*
X149217142Y-120297380D01*
X148979047Y-120297380D01*
X148883809Y-120249761D01*
X148836190Y-120154523D01*
X148836190Y-120059285D01*
X148883809Y-119964047D01*
X148979047Y-119916428D01*
X149217142Y-119916428D01*
X149312380Y-119868809D01*
X149645714Y-119630714D02*
X150026666Y-119630714D01*
X149788571Y-119297380D02*
X149788571Y-120154523D01*
X149836190Y-120249761D01*
X149931428Y-120297380D01*
X150026666Y-120297380D01*
X150788571Y-119630714D02*
X150788571Y-120297380D01*
X150360000Y-119630714D02*
X150360000Y-120154523D01*
X150407619Y-120249761D01*
X150502857Y-120297380D01*
X150645714Y-120297380D01*
X150740952Y-120249761D01*
X150788571Y-120202142D01*
X151264761Y-120297380D02*
X151264761Y-119630714D01*
X151264761Y-119821190D02*
X151312380Y-119725952D01*
X151360000Y-119678333D01*
X151455238Y-119630714D01*
X151550476Y-119630714D01*
X152264761Y-120249761D02*
X152169523Y-120297380D01*
X151979047Y-120297380D01*
X151883809Y-120249761D01*
X151836190Y-120154523D01*
X151836190Y-119773571D01*
X151883809Y-119678333D01*
X151979047Y-119630714D01*
X152169523Y-119630714D01*
X152264761Y-119678333D01*
X152312380Y-119773571D01*
X152312380Y-119868809D01*
X151836190Y-119964047D01*
X148907619Y-121240714D02*
X148907619Y-121907380D01*
X148907619Y-121335952D02*
X148955238Y-121288333D01*
X149050476Y-121240714D01*
X149193333Y-121240714D01*
X149288571Y-121288333D01*
X149336190Y-121383571D01*
X149336190Y-121907380D01*
X149955238Y-121907380D02*
X149860000Y-121859761D01*
X149812380Y-121812142D01*
X149764761Y-121716904D01*
X149764761Y-121431190D01*
X149812380Y-121335952D01*
X149860000Y-121288333D01*
X149955238Y-121240714D01*
X150098095Y-121240714D01*
X150193333Y-121288333D01*
X150240952Y-121335952D01*
X150288571Y-121431190D01*
X150288571Y-121716904D01*
X150240952Y-121812142D01*
X150193333Y-121859761D01*
X150098095Y-121907380D01*
X149955238Y-121907380D01*
X150574285Y-121240714D02*
X150955238Y-121240714D01*
X150717142Y-120907380D02*
X150717142Y-121764523D01*
X150764761Y-121859761D01*
X150860000Y-121907380D01*
X150955238Y-121907380D01*
X147860000Y-122850714D02*
X148240952Y-122850714D01*
X148002857Y-123517380D02*
X148002857Y-122660238D01*
X148050476Y-122565000D01*
X148145714Y-122517380D01*
X148240952Y-122517380D01*
X148717142Y-123517380D02*
X148621904Y-123469761D01*
X148574285Y-123422142D01*
X148526666Y-123326904D01*
X148526666Y-123041190D01*
X148574285Y-122945952D01*
X148621904Y-122898333D01*
X148717142Y-122850714D01*
X148860000Y-122850714D01*
X148955238Y-122898333D01*
X149002857Y-122945952D01*
X149050476Y-123041190D01*
X149050476Y-123326904D01*
X149002857Y-123422142D01*
X148955238Y-123469761D01*
X148860000Y-123517380D01*
X148717142Y-123517380D01*
X149907619Y-122850714D02*
X149907619Y-123517380D01*
X149479047Y-122850714D02*
X149479047Y-123374523D01*
X149526666Y-123469761D01*
X149621904Y-123517380D01*
X149764761Y-123517380D01*
X149860000Y-123469761D01*
X149907619Y-123422142D01*
X150383809Y-122850714D02*
X150383809Y-123517380D01*
X150383809Y-122945952D02*
X150431428Y-122898333D01*
X150526666Y-122850714D01*
X150669523Y-122850714D01*
X150764761Y-122898333D01*
X150812380Y-122993571D01*
X150812380Y-123517380D01*
X151717142Y-123517380D02*
X151717142Y-122517380D01*
X151717142Y-123469761D02*
X151621904Y-123517380D01*
X151431428Y-123517380D01*
X151336190Y-123469761D01*
X151288571Y-123422142D01*
X151240952Y-123326904D01*
X151240952Y-123041190D01*
X151288571Y-122945952D01*
X151336190Y-122898333D01*
X151431428Y-122850714D01*
X151621904Y-122850714D01*
X151717142Y-122898333D01*
X141478095Y-118020714D02*
X141478095Y-118687380D01*
X141240000Y-117639761D02*
X141001904Y-118354047D01*
X141620952Y-118354047D01*
X142192380Y-117687380D02*
X142287619Y-117687380D01*
X142382857Y-117735000D01*
X142430476Y-117782619D01*
X142478095Y-117877857D01*
X142525714Y-118068333D01*
X142525714Y-118306428D01*
X142478095Y-118496904D01*
X142430476Y-118592142D01*
X142382857Y-118639761D01*
X142287619Y-118687380D01*
X142192380Y-118687380D01*
X142097142Y-118639761D01*
X142049523Y-118592142D01*
X142001904Y-118496904D01*
X141954285Y-118306428D01*
X141954285Y-118068333D01*
X142001904Y-117877857D01*
X142049523Y-117782619D01*
X142097142Y-117735000D01*
X142192380Y-117687380D01*
X143382857Y-118020714D02*
X143382857Y-118687380D01*
X143144761Y-117639761D02*
X142906666Y-118354047D01*
X143525714Y-118354047D01*
X139692380Y-119630714D02*
X140073333Y-119630714D01*
X139835238Y-120297380D02*
X139835238Y-119440238D01*
X139882857Y-119345000D01*
X139978095Y-119297380D01*
X140073333Y-119297380D01*
X140787619Y-120249761D02*
X140692380Y-120297380D01*
X140501904Y-120297380D01*
X140406666Y-120249761D01*
X140359047Y-120154523D01*
X140359047Y-119773571D01*
X140406666Y-119678333D01*
X140501904Y-119630714D01*
X140692380Y-119630714D01*
X140787619Y-119678333D01*
X140835238Y-119773571D01*
X140835238Y-119868809D01*
X140359047Y-119964047D01*
X141692380Y-120297380D02*
X141692380Y-119773571D01*
X141644761Y-119678333D01*
X141549523Y-119630714D01*
X141359047Y-119630714D01*
X141263809Y-119678333D01*
X141692380Y-120249761D02*
X141597142Y-120297380D01*
X141359047Y-120297380D01*
X141263809Y-120249761D01*
X141216190Y-120154523D01*
X141216190Y-120059285D01*
X141263809Y-119964047D01*
X141359047Y-119916428D01*
X141597142Y-119916428D01*
X141692380Y-119868809D01*
X142025714Y-119630714D02*
X142406666Y-119630714D01*
X142168571Y-119297380D02*
X142168571Y-120154523D01*
X142216190Y-120249761D01*
X142311428Y-120297380D01*
X142406666Y-120297380D01*
X143168571Y-119630714D02*
X143168571Y-120297380D01*
X142740000Y-119630714D02*
X142740000Y-120154523D01*
X142787619Y-120249761D01*
X142882857Y-120297380D01*
X143025714Y-120297380D01*
X143120952Y-120249761D01*
X143168571Y-120202142D01*
X143644761Y-120297380D02*
X143644761Y-119630714D01*
X143644761Y-119821190D02*
X143692380Y-119725952D01*
X143740000Y-119678333D01*
X143835238Y-119630714D01*
X143930476Y-119630714D01*
X144644761Y-120249761D02*
X144549523Y-120297380D01*
X144359047Y-120297380D01*
X144263809Y-120249761D01*
X144216190Y-120154523D01*
X144216190Y-119773571D01*
X144263809Y-119678333D01*
X144359047Y-119630714D01*
X144549523Y-119630714D01*
X144644761Y-119678333D01*
X144692380Y-119773571D01*
X144692380Y-119868809D01*
X144216190Y-119964047D01*
X141287619Y-121240714D02*
X141287619Y-121907380D01*
X141287619Y-121335952D02*
X141335238Y-121288333D01*
X141430476Y-121240714D01*
X141573333Y-121240714D01*
X141668571Y-121288333D01*
X141716190Y-121383571D01*
X141716190Y-121907380D01*
X142335238Y-121907380D02*
X142240000Y-121859761D01*
X142192380Y-121812142D01*
X142144761Y-121716904D01*
X142144761Y-121431190D01*
X142192380Y-121335952D01*
X142240000Y-121288333D01*
X142335238Y-121240714D01*
X142478095Y-121240714D01*
X142573333Y-121288333D01*
X142620952Y-121335952D01*
X142668571Y-121431190D01*
X142668571Y-121716904D01*
X142620952Y-121812142D01*
X142573333Y-121859761D01*
X142478095Y-121907380D01*
X142335238Y-121907380D01*
X142954285Y-121240714D02*
X143335238Y-121240714D01*
X143097142Y-120907380D02*
X143097142Y-121764523D01*
X143144761Y-121859761D01*
X143240000Y-121907380D01*
X143335238Y-121907380D01*
X140240000Y-122850714D02*
X140620952Y-122850714D01*
X140382857Y-123517380D02*
X140382857Y-122660238D01*
X140430476Y-122565000D01*
X140525714Y-122517380D01*
X140620952Y-122517380D01*
X141097142Y-123517380D02*
X141001904Y-123469761D01*
X140954285Y-123422142D01*
X140906666Y-123326904D01*
X140906666Y-123041190D01*
X140954285Y-122945952D01*
X141001904Y-122898333D01*
X141097142Y-122850714D01*
X141240000Y-122850714D01*
X141335238Y-122898333D01*
X141382857Y-122945952D01*
X141430476Y-123041190D01*
X141430476Y-123326904D01*
X141382857Y-123422142D01*
X141335238Y-123469761D01*
X141240000Y-123517380D01*
X141097142Y-123517380D01*
X142287619Y-122850714D02*
X142287619Y-123517380D01*
X141859047Y-122850714D02*
X141859047Y-123374523D01*
X141906666Y-123469761D01*
X142001904Y-123517380D01*
X142144761Y-123517380D01*
X142240000Y-123469761D01*
X142287619Y-123422142D01*
X142763809Y-122850714D02*
X142763809Y-123517380D01*
X142763809Y-122945952D02*
X142811428Y-122898333D01*
X142906666Y-122850714D01*
X143049523Y-122850714D01*
X143144761Y-122898333D01*
X143192380Y-122993571D01*
X143192380Y-123517380D01*
X144097142Y-123517380D02*
X144097142Y-122517380D01*
X144097142Y-123469761D02*
X144001904Y-123517380D01*
X143811428Y-123517380D01*
X143716190Y-123469761D01*
X143668571Y-123422142D01*
X143620952Y-123326904D01*
X143620952Y-123041190D01*
X143668571Y-122945952D01*
X143716190Y-122898333D01*
X143811428Y-122850714D01*
X144001904Y-122850714D01*
X144097142Y-122898333D01*
X138176000Y-124714000D02*
X137541000Y-125349000D01*
X137541000Y-125349000D02*
X137541000Y-124079000D01*
X137541000Y-124079000D02*
X138176000Y-124714000D01*
G36*
X138176000Y-124714000D02*
G01*
X137541000Y-125349000D01*
X137541000Y-124079000D01*
X138176000Y-124714000D01*
G37*
X138176000Y-124714000D02*
X137541000Y-125349000D01*
X137541000Y-124079000D01*
X138176000Y-124714000D01*
X138176000Y-115316000D02*
X137541000Y-115951000D01*
X137541000Y-115951000D02*
X137541000Y-114681000D01*
X137541000Y-114681000D02*
X138176000Y-115316000D01*
G36*
X138176000Y-115316000D02*
G01*
X137541000Y-115951000D01*
X137541000Y-114681000D01*
X138176000Y-115316000D01*
G37*
X138176000Y-115316000D02*
X137541000Y-115951000D01*
X137541000Y-114681000D01*
X138176000Y-115316000D01*
D12*
X138156904Y-123519761D02*
X137356904Y-123519761D01*
X137737857Y-123519761D02*
X137737857Y-123062619D01*
X138156904Y-123062619D02*
X137356904Y-123062619D01*
X138156904Y-122681666D02*
X137356904Y-122681666D01*
X137395000Y-121881666D02*
X137356904Y-121957857D01*
X137356904Y-122072142D01*
X137395000Y-122186428D01*
X137471190Y-122262619D01*
X137547380Y-122300714D01*
X137699761Y-122338809D01*
X137814047Y-122338809D01*
X137966428Y-122300714D01*
X138042619Y-122262619D01*
X138118809Y-122186428D01*
X138156904Y-122072142D01*
X138156904Y-121995952D01*
X138118809Y-121881666D01*
X138080714Y-121843571D01*
X137814047Y-121843571D01*
X137814047Y-121995952D01*
X138156904Y-121500714D02*
X137356904Y-121500714D01*
X137737857Y-121500714D02*
X137737857Y-121043571D01*
X138156904Y-121043571D02*
X137356904Y-121043571D01*
X138118809Y-120091190D02*
X138156904Y-119976904D01*
X138156904Y-119786428D01*
X138118809Y-119710238D01*
X138080714Y-119672142D01*
X138004523Y-119634047D01*
X137928333Y-119634047D01*
X137852142Y-119672142D01*
X137814047Y-119710238D01*
X137775952Y-119786428D01*
X137737857Y-119938809D01*
X137699761Y-120015000D01*
X137661666Y-120053095D01*
X137585476Y-120091190D01*
X137509285Y-120091190D01*
X137433095Y-120053095D01*
X137395000Y-120015000D01*
X137356904Y-119938809D01*
X137356904Y-119748333D01*
X137395000Y-119634047D01*
X138080714Y-118834047D02*
X138118809Y-118872142D01*
X138156904Y-118986428D01*
X138156904Y-119062619D01*
X138118809Y-119176904D01*
X138042619Y-119253095D01*
X137966428Y-119291190D01*
X137814047Y-119329285D01*
X137699761Y-119329285D01*
X137547380Y-119291190D01*
X137471190Y-119253095D01*
X137395000Y-119176904D01*
X137356904Y-119062619D01*
X137356904Y-118986428D01*
X137395000Y-118872142D01*
X137433095Y-118834047D01*
X137356904Y-118338809D02*
X137356904Y-118186428D01*
X137395000Y-118110238D01*
X137471190Y-118034047D01*
X137623571Y-117995952D01*
X137890238Y-117995952D01*
X138042619Y-118034047D01*
X138118809Y-118110238D01*
X138156904Y-118186428D01*
X138156904Y-118338809D01*
X138118809Y-118415000D01*
X138042619Y-118491190D01*
X137890238Y-118529285D01*
X137623571Y-118529285D01*
X137471190Y-118491190D01*
X137395000Y-118415000D01*
X137356904Y-118338809D01*
X138156904Y-117195952D02*
X137775952Y-117462619D01*
X138156904Y-117653095D02*
X137356904Y-117653095D01*
X137356904Y-117348333D01*
X137395000Y-117272142D01*
X137433095Y-117234047D01*
X137509285Y-117195952D01*
X137623571Y-117195952D01*
X137699761Y-117234047D01*
X137737857Y-117272142D01*
X137775952Y-117348333D01*
X137775952Y-117653095D01*
X137737857Y-116853095D02*
X137737857Y-116586428D01*
X138156904Y-116472142D02*
X138156904Y-116853095D01*
X137356904Y-116853095D01*
X137356904Y-116472142D01*
X156984761Y-122751904D02*
X157137142Y-122751904D01*
X157213333Y-122790000D01*
X157289523Y-122866190D01*
X157327619Y-123018571D01*
X157327619Y-123285238D01*
X157289523Y-123437619D01*
X157213333Y-123513809D01*
X157137142Y-123551904D01*
X156984761Y-123551904D01*
X156908571Y-123513809D01*
X156832380Y-123437619D01*
X156794285Y-123285238D01*
X156794285Y-123018571D01*
X156832380Y-122866190D01*
X156908571Y-122790000D01*
X156984761Y-122751904D01*
X157670476Y-123551904D02*
X157670476Y-122751904D01*
X158127619Y-123551904D01*
X158127619Y-122751904D01*
X166878095Y-122751904D02*
X167030476Y-122751904D01*
X167106666Y-122790000D01*
X167182857Y-122866190D01*
X167220952Y-123018571D01*
X167220952Y-123285238D01*
X167182857Y-123437619D01*
X167106666Y-123513809D01*
X167030476Y-123551904D01*
X166878095Y-123551904D01*
X166801904Y-123513809D01*
X166725714Y-123437619D01*
X166687619Y-123285238D01*
X166687619Y-123018571D01*
X166725714Y-122866190D01*
X166801904Y-122790000D01*
X166878095Y-122751904D01*
X167830476Y-123132857D02*
X167563809Y-123132857D01*
X167563809Y-123551904D02*
X167563809Y-122751904D01*
X167944761Y-122751904D01*
X168516190Y-123132857D02*
X168249523Y-123132857D01*
X168249523Y-123551904D02*
X168249523Y-122751904D01*
X168630476Y-122751904D01*
D11*
X172085001Y-104140000D02*
G75*
G03*
X172085001Y-104140000I-1J0D01*
G01*
X128651001Y-121285000D02*
G75*
G03*
X128651001Y-121285000I-1J0D01*
G01*
X128524001Y-115062000D02*
G75*
G03*
X128524001Y-115062000I-1J0D01*
G01*
D13*
X131992952Y-112737809D02*
X131992952Y-111671142D01*
X131992952Y-111823523D02*
X132069142Y-111747333D01*
X132221523Y-111671142D01*
X132450095Y-111671142D01*
X132602476Y-111747333D01*
X132678666Y-111899714D01*
X132678666Y-112737809D01*
X132678666Y-111899714D02*
X132754857Y-111747333D01*
X132907238Y-111671142D01*
X133135809Y-111671142D01*
X133288190Y-111747333D01*
X133364380Y-111899714D01*
X133364380Y-112737809D01*
X134126285Y-112737809D02*
X134126285Y-111671142D01*
X134126285Y-111137809D02*
X134050095Y-111214000D01*
X134126285Y-111290190D01*
X134202476Y-111214000D01*
X134126285Y-111137809D01*
X134126285Y-111290190D01*
X134888190Y-112737809D02*
X134888190Y-111137809D01*
X135040571Y-112128285D02*
X135497714Y-112737809D01*
X135497714Y-111671142D02*
X134888190Y-112280666D01*
X136792952Y-112661619D02*
X136640571Y-112737809D01*
X136335809Y-112737809D01*
X136183428Y-112661619D01*
X136107238Y-112509238D01*
X136107238Y-111899714D01*
X136183428Y-111747333D01*
X136335809Y-111671142D01*
X136640571Y-111671142D01*
X136792952Y-111747333D01*
X136869142Y-111899714D01*
X136869142Y-112052095D01*
X136107238Y-112204476D01*
X137326285Y-111671142D02*
X137935809Y-111671142D01*
X137554857Y-112737809D02*
X137554857Y-111366380D01*
X137631047Y-111214000D01*
X137783428Y-111137809D01*
X137935809Y-111137809D01*
X138469142Y-112737809D02*
X138469142Y-111671142D01*
X138469142Y-111137809D02*
X138392952Y-111214000D01*
X138469142Y-111290190D01*
X138545333Y-111214000D01*
X138469142Y-111137809D01*
X138469142Y-111290190D01*
X139154857Y-112661619D02*
X139307238Y-112737809D01*
X139612000Y-112737809D01*
X139764380Y-112661619D01*
X139840571Y-112509238D01*
X139840571Y-112433047D01*
X139764380Y-112280666D01*
X139612000Y-112204476D01*
X139383428Y-112204476D01*
X139231047Y-112128285D01*
X139154857Y-111975904D01*
X139154857Y-111899714D01*
X139231047Y-111747333D01*
X139383428Y-111671142D01*
X139612000Y-111671142D01*
X139764380Y-111747333D01*
X141212000Y-112661619D02*
X141059619Y-112737809D01*
X140754857Y-112737809D01*
X140602476Y-112661619D01*
X140526285Y-112585428D01*
X140450095Y-112433047D01*
X140450095Y-111975904D01*
X140526285Y-111823523D01*
X140602476Y-111747333D01*
X140754857Y-111671142D01*
X141059619Y-111671142D01*
X141212000Y-111747333D01*
X141897714Y-112737809D02*
X141897714Y-111137809D01*
X142583428Y-112737809D02*
X142583428Y-111899714D01*
X142507238Y-111747333D01*
X142354857Y-111671142D01*
X142126285Y-111671142D01*
X141973904Y-111747333D01*
X141897714Y-111823523D01*
X143116761Y-111671142D02*
X143726285Y-111671142D01*
X143345333Y-111137809D02*
X143345333Y-112509238D01*
X143421523Y-112661619D01*
X143573904Y-112737809D01*
X143726285Y-112737809D01*
X144259619Y-112737809D02*
X144259619Y-111137809D01*
X144945333Y-112737809D02*
X144945333Y-111899714D01*
X144869142Y-111747333D01*
X144716761Y-111671142D01*
X144488190Y-111671142D01*
X144335809Y-111747333D01*
X144259619Y-111823523D01*
X146392952Y-112737809D02*
X146392952Y-111899714D01*
X146316761Y-111747333D01*
X146164380Y-111671142D01*
X145859619Y-111671142D01*
X145707238Y-111747333D01*
X146392952Y-112661619D02*
X146240571Y-112737809D01*
X145859619Y-112737809D01*
X145707238Y-112661619D01*
X145631047Y-112509238D01*
X145631047Y-112356857D01*
X145707238Y-112204476D01*
X145859619Y-112128285D01*
X146240571Y-112128285D01*
X146392952Y-112052095D01*
X147383428Y-112737809D02*
X147231047Y-112661619D01*
X147154857Y-112509238D01*
X147154857Y-111137809D01*
X148983428Y-111975904D02*
X148907238Y-111899714D01*
X148754857Y-111823523D01*
X148602476Y-111823523D01*
X148450095Y-111899714D01*
X148373904Y-111975904D01*
X148297714Y-112128285D01*
X148297714Y-112280666D01*
X148373904Y-112433047D01*
X148450095Y-112509238D01*
X148602476Y-112585428D01*
X148754857Y-112585428D01*
X148907238Y-112509238D01*
X148983428Y-112433047D01*
X148983428Y-111823523D02*
X148983428Y-112433047D01*
X149059619Y-112509238D01*
X149135809Y-112509238D01*
X149288190Y-112433047D01*
X149364380Y-112280666D01*
X149364380Y-111899714D01*
X149212000Y-111671142D01*
X148983428Y-111518761D01*
X148678666Y-111442571D01*
X148373904Y-111518761D01*
X148145333Y-111671142D01*
X147992952Y-111899714D01*
X147916761Y-112204476D01*
X147992952Y-112509238D01*
X148145333Y-112737809D01*
X148373904Y-112890190D01*
X148678666Y-112966380D01*
X148983428Y-112890190D01*
X149212000Y-112737809D01*
X150735809Y-111671142D02*
X150735809Y-112966380D01*
X150659619Y-113118761D01*
X150583428Y-113194952D01*
X150431047Y-113271142D01*
X150202476Y-113271142D01*
X150050095Y-113194952D01*
X150735809Y-112661619D02*
X150583428Y-112737809D01*
X150278666Y-112737809D01*
X150126285Y-112661619D01*
X150050095Y-112585428D01*
X149973904Y-112433047D01*
X149973904Y-111975904D01*
X150050095Y-111823523D01*
X150126285Y-111747333D01*
X150278666Y-111671142D01*
X150583428Y-111671142D01*
X150735809Y-111747333D01*
X151497714Y-112737809D02*
X151497714Y-111671142D01*
X151497714Y-111823523D02*
X151573904Y-111747333D01*
X151726285Y-111671142D01*
X151954857Y-111671142D01*
X152107238Y-111747333D01*
X152183428Y-111899714D01*
X152183428Y-112737809D01*
X152183428Y-111899714D02*
X152259619Y-111747333D01*
X152412000Y-111671142D01*
X152640571Y-111671142D01*
X152792952Y-111747333D01*
X152869142Y-111899714D01*
X152869142Y-112737809D01*
X154316761Y-112737809D02*
X154316761Y-111899714D01*
X154240571Y-111747333D01*
X154088190Y-111671142D01*
X153783428Y-111671142D01*
X153631047Y-111747333D01*
X154316761Y-112661619D02*
X154164380Y-112737809D01*
X153783428Y-112737809D01*
X153631047Y-112661619D01*
X153554857Y-112509238D01*
X153554857Y-112356857D01*
X153631047Y-112204476D01*
X153783428Y-112128285D01*
X154164380Y-112128285D01*
X154316761Y-112052095D01*
X155078666Y-112737809D02*
X155078666Y-111671142D01*
X155078666Y-111137809D02*
X155002476Y-111214000D01*
X155078666Y-111290190D01*
X155154857Y-111214000D01*
X155078666Y-111137809D01*
X155078666Y-111290190D01*
X156069142Y-112737809D02*
X155916761Y-112661619D01*
X155840571Y-112509238D01*
X155840571Y-111137809D01*
X156678666Y-112585428D02*
X156754857Y-112661619D01*
X156678666Y-112737809D01*
X156602476Y-112661619D01*
X156678666Y-112585428D01*
X156678666Y-112737809D01*
X158126285Y-112661619D02*
X157973904Y-112737809D01*
X157669142Y-112737809D01*
X157516761Y-112661619D01*
X157440571Y-112585428D01*
X157364380Y-112433047D01*
X157364380Y-111975904D01*
X157440571Y-111823523D01*
X157516761Y-111747333D01*
X157669142Y-111671142D01*
X157973904Y-111671142D01*
X158126285Y-111747333D01*
X159040571Y-112737809D02*
X158888190Y-112661619D01*
X158812000Y-112585428D01*
X158735809Y-112433047D01*
X158735809Y-111975904D01*
X158812000Y-111823523D01*
X158888190Y-111747333D01*
X159040571Y-111671142D01*
X159269142Y-111671142D01*
X159421523Y-111747333D01*
X159497714Y-111823523D01*
X159573904Y-111975904D01*
X159573904Y-112433047D01*
X159497714Y-112585428D01*
X159421523Y-112661619D01*
X159269142Y-112737809D01*
X159040571Y-112737809D01*
X160259619Y-112737809D02*
X160259619Y-111671142D01*
X160259619Y-111823523D02*
X160335809Y-111747333D01*
X160488190Y-111671142D01*
X160716761Y-111671142D01*
X160869142Y-111747333D01*
X160945333Y-111899714D01*
X160945333Y-112737809D01*
X160945333Y-111899714D02*
X161021523Y-111747333D01*
X161173904Y-111671142D01*
X161402476Y-111671142D01*
X161554857Y-111747333D01*
X161631047Y-111899714D01*
X161631047Y-112737809D01*
D11*
X126378666Y-75563333D02*
X126378666Y-74163333D01*
X126845333Y-75163333D01*
X127311999Y-74163333D01*
X127311999Y-75563333D01*
X128578666Y-75563333D02*
X128578666Y-74830000D01*
X128511999Y-74696666D01*
X128378666Y-74630000D01*
X128111999Y-74630000D01*
X127978666Y-74696666D01*
X128578666Y-75496666D02*
X128445333Y-75563333D01*
X128111999Y-75563333D01*
X127978666Y-75496666D01*
X127911999Y-75363333D01*
X127911999Y-75230000D01*
X127978666Y-75096666D01*
X128111999Y-75030000D01*
X128445333Y-75030000D01*
X128578666Y-74963333D01*
X129245333Y-75563333D02*
X129245333Y-74163333D01*
X129378666Y-75030000D02*
X129778666Y-75563333D01*
X129778666Y-74630000D02*
X129245333Y-75163333D01*
X130911999Y-75496666D02*
X130778666Y-75563333D01*
X130511999Y-75563333D01*
X130378666Y-75496666D01*
X130311999Y-75363333D01*
X130311999Y-74830000D01*
X130378666Y-74696666D01*
X130511999Y-74630000D01*
X130778666Y-74630000D01*
X130911999Y-74696666D01*
X130978666Y-74830000D01*
X130978666Y-74963333D01*
X130311999Y-75096666D01*
X131578666Y-75563333D02*
X131578666Y-74630000D01*
X131578666Y-74896666D02*
X131645333Y-74763333D01*
X131711999Y-74696666D01*
X131845333Y-74630000D01*
X131978666Y-74630000D01*
X133511999Y-74830000D02*
X133978666Y-74830000D01*
X134178666Y-75563333D02*
X133511999Y-75563333D01*
X133511999Y-74163333D01*
X134178666Y-74163333D01*
X135378666Y-75563333D02*
X135378666Y-74163333D01*
X135378666Y-75496666D02*
X135245333Y-75563333D01*
X134978666Y-75563333D01*
X134845333Y-75496666D01*
X134778666Y-75430000D01*
X134711999Y-75296666D01*
X134711999Y-74896666D01*
X134778666Y-74763333D01*
X134845333Y-74696666D01*
X134978666Y-74630000D01*
X135245333Y-74630000D01*
X135378666Y-74696666D01*
X136645333Y-74630000D02*
X136645333Y-75563333D01*
X136045333Y-74630000D02*
X136045333Y-75363333D01*
X136111999Y-75496666D01*
X136245333Y-75563333D01*
X136445333Y-75563333D01*
X136578666Y-75496666D01*
X136645333Y-75430000D01*
X137911999Y-75496666D02*
X137778666Y-75563333D01*
X137511999Y-75563333D01*
X137378666Y-75496666D01*
X137311999Y-75430000D01*
X137245333Y-75296666D01*
X137245333Y-74896666D01*
X137311999Y-74763333D01*
X137378666Y-74696666D01*
X137511999Y-74630000D01*
X137778666Y-74630000D01*
X137911999Y-74696666D01*
X139111999Y-75563333D02*
X139111999Y-74830000D01*
X139045333Y-74696666D01*
X138911999Y-74630000D01*
X138645333Y-74630000D01*
X138511999Y-74696666D01*
X139111999Y-75496666D02*
X138978666Y-75563333D01*
X138645333Y-75563333D01*
X138511999Y-75496666D01*
X138445333Y-75363333D01*
X138445333Y-75230000D01*
X138511999Y-75096666D01*
X138645333Y-75030000D01*
X138978666Y-75030000D01*
X139111999Y-74963333D01*
X139578666Y-74630000D02*
X140111999Y-74630000D01*
X139778666Y-74163333D02*
X139778666Y-75363333D01*
X139845333Y-75496666D01*
X139978666Y-75563333D01*
X140111999Y-75563333D01*
X140778666Y-75563333D02*
X140645333Y-75496666D01*
X140578666Y-75430000D01*
X140511999Y-75296666D01*
X140511999Y-74896666D01*
X140578666Y-74763333D01*
X140645333Y-74696666D01*
X140778666Y-74630000D01*
X140978666Y-74630000D01*
X141111999Y-74696666D01*
X141178666Y-74763333D01*
X141245333Y-74896666D01*
X141245333Y-75296666D01*
X141178666Y-75430000D01*
X141111999Y-75496666D01*
X140978666Y-75563333D01*
X140778666Y-75563333D01*
X141845333Y-75563333D02*
X141845333Y-74630000D01*
X141845333Y-74896666D02*
X141911999Y-74763333D01*
X141978666Y-74696666D01*
X142111999Y-74630000D01*
X142245333Y-74630000D01*
X143778666Y-75563333D02*
X143778666Y-74163333D01*
X144445333Y-74630000D02*
X144445333Y-75563333D01*
X144445333Y-74763333D02*
X144511999Y-74696666D01*
X144645333Y-74630000D01*
X144845333Y-74630000D01*
X144978666Y-74696666D01*
X145045333Y-74830000D01*
X145045333Y-75563333D01*
X145711999Y-74630000D02*
X145711999Y-75563333D01*
X145711999Y-74763333D02*
X145778666Y-74696666D01*
X145911999Y-74630000D01*
X146111999Y-74630000D01*
X146245333Y-74696666D01*
X146311999Y-74830000D01*
X146311999Y-75563333D01*
X147178666Y-75563333D02*
X147045333Y-75496666D01*
X146978666Y-75430000D01*
X146911999Y-75296666D01*
X146911999Y-74896666D01*
X146978666Y-74763333D01*
X147045333Y-74696666D01*
X147178666Y-74630000D01*
X147378666Y-74630000D01*
X147511999Y-74696666D01*
X147578666Y-74763333D01*
X147645333Y-74896666D01*
X147645333Y-75296666D01*
X147578666Y-75430000D01*
X147511999Y-75496666D01*
X147378666Y-75563333D01*
X147178666Y-75563333D01*
X148111999Y-74630000D02*
X148445333Y-75563333D01*
X148778666Y-74630000D01*
X149911999Y-75563333D02*
X149911999Y-74830000D01*
X149845333Y-74696666D01*
X149711999Y-74630000D01*
X149445333Y-74630000D01*
X149311999Y-74696666D01*
X149911999Y-75496666D02*
X149778666Y-75563333D01*
X149445333Y-75563333D01*
X149311999Y-75496666D01*
X149245333Y-75363333D01*
X149245333Y-75230000D01*
X149311999Y-75096666D01*
X149445333Y-75030000D01*
X149778666Y-75030000D01*
X149911999Y-74963333D01*
X150378666Y-74630000D02*
X150912000Y-74630000D01*
X150578666Y-74163333D02*
X150578666Y-75363333D01*
X150645333Y-75496666D01*
X150778666Y-75563333D01*
X150912000Y-75563333D01*
X151578666Y-75563333D02*
X151445333Y-75496666D01*
X151378666Y-75430000D01*
X151312000Y-75296666D01*
X151312000Y-74896666D01*
X151378666Y-74763333D01*
X151445333Y-74696666D01*
X151578666Y-74630000D01*
X151778666Y-74630000D01*
X151912000Y-74696666D01*
X151978666Y-74763333D01*
X152045333Y-74896666D01*
X152045333Y-75296666D01*
X151978666Y-75430000D01*
X151912000Y-75496666D01*
X151778666Y-75563333D01*
X151578666Y-75563333D01*
X152645333Y-75563333D02*
X152645333Y-74630000D01*
X152645333Y-74896666D02*
X152712000Y-74763333D01*
X152778666Y-74696666D01*
X152912000Y-74630000D01*
X153045333Y-74630000D01*
X154578666Y-74830000D02*
X155045333Y-74830000D01*
X155245333Y-75563333D02*
X154578666Y-75563333D01*
X154578666Y-74163333D01*
X155245333Y-74163333D01*
X155845333Y-74630000D02*
X155845333Y-75563333D01*
X155845333Y-74763333D02*
X155912000Y-74696666D01*
X156045333Y-74630000D01*
X156245333Y-74630000D01*
X156378666Y-74696666D01*
X156445333Y-74830000D01*
X156445333Y-75563333D01*
X156912000Y-74630000D02*
X157445333Y-74630000D01*
X157112000Y-74163333D02*
X157112000Y-75363333D01*
X157178666Y-75496666D01*
X157312000Y-75563333D01*
X157445333Y-75563333D01*
X157912000Y-75563333D02*
X157912000Y-74630000D01*
X157912000Y-74896666D02*
X157978666Y-74763333D01*
X158045333Y-74696666D01*
X158178666Y-74630000D01*
X158312000Y-74630000D01*
X159312000Y-75496666D02*
X159178666Y-75563333D01*
X158912000Y-75563333D01*
X158778666Y-75496666D01*
X158712000Y-75363333D01*
X158712000Y-74830000D01*
X158778666Y-74696666D01*
X158912000Y-74630000D01*
X159178666Y-74630000D01*
X159312000Y-74696666D01*
X159378666Y-74830000D01*
X159378666Y-74963333D01*
X158712000Y-75096666D01*
X159978666Y-74630000D02*
X159978666Y-76030000D01*
X159978666Y-74696666D02*
X160112000Y-74630000D01*
X160378666Y-74630000D01*
X160512000Y-74696666D01*
X160578666Y-74763333D01*
X160645333Y-74896666D01*
X160645333Y-75296666D01*
X160578666Y-75430000D01*
X160512000Y-75496666D01*
X160378666Y-75563333D01*
X160112000Y-75563333D01*
X159978666Y-75496666D01*
X161245333Y-75563333D02*
X161245333Y-74630000D01*
X161245333Y-74896666D02*
X161312000Y-74763333D01*
X161378666Y-74696666D01*
X161512000Y-74630000D01*
X161645333Y-74630000D01*
X162645333Y-75496666D02*
X162512000Y-75563333D01*
X162245333Y-75563333D01*
X162112000Y-75496666D01*
X162045333Y-75363333D01*
X162045333Y-74830000D01*
X162112000Y-74696666D01*
X162245333Y-74630000D01*
X162512000Y-74630000D01*
X162645333Y-74696666D01*
X162712000Y-74830000D01*
X162712000Y-74963333D01*
X162045333Y-75096666D01*
X163312000Y-74630000D02*
X163312000Y-75563333D01*
X163312000Y-74763333D02*
X163378666Y-74696666D01*
X163512000Y-74630000D01*
X163712000Y-74630000D01*
X163845333Y-74696666D01*
X163912000Y-74830000D01*
X163912000Y-75563333D01*
X165112000Y-75496666D02*
X164978666Y-75563333D01*
X164712000Y-75563333D01*
X164578666Y-75496666D01*
X164512000Y-75363333D01*
X164512000Y-74830000D01*
X164578666Y-74696666D01*
X164712000Y-74630000D01*
X164978666Y-74630000D01*
X165112000Y-74696666D01*
X165178666Y-74830000D01*
X165178666Y-74963333D01*
X164512000Y-75096666D01*
X166378666Y-74630000D02*
X166378666Y-75563333D01*
X165778666Y-74630000D02*
X165778666Y-75363333D01*
X165845333Y-75496666D01*
X165978666Y-75563333D01*
X166178666Y-75563333D01*
X166312000Y-75496666D01*
X166378666Y-75430000D01*
X167045333Y-75563333D02*
X167045333Y-74630000D01*
X167045333Y-74896666D02*
X167112000Y-74763333D01*
X167178666Y-74696666D01*
X167312000Y-74630000D01*
X167445333Y-74630000D01*
D14*
X132797714Y-72976428D02*
X132797714Y-70276428D01*
X133697714Y-72205000D01*
X134597714Y-70276428D01*
X134597714Y-72976428D01*
X135883428Y-72976428D02*
X135883428Y-71176428D01*
X135883428Y-70276428D02*
X135754857Y-70405000D01*
X135883428Y-70533571D01*
X136012000Y-70405000D01*
X135883428Y-70276428D01*
X135883428Y-70533571D01*
X137169142Y-72976428D02*
X137169142Y-70276428D01*
X137426285Y-71947857D02*
X138197714Y-72976428D01*
X138197714Y-71176428D02*
X137169142Y-72205000D01*
X140383428Y-72847857D02*
X140126285Y-72976428D01*
X139612000Y-72976428D01*
X139354857Y-72847857D01*
X139226285Y-72590714D01*
X139226285Y-71562142D01*
X139354857Y-71305000D01*
X139612000Y-71176428D01*
X140126285Y-71176428D01*
X140383428Y-71305000D01*
X140512000Y-71562142D01*
X140512000Y-71819285D01*
X139226285Y-72076428D01*
X144626285Y-71562142D02*
X143726285Y-71562142D01*
X143726285Y-72976428D02*
X143726285Y-70276428D01*
X145012000Y-70276428D01*
X146040571Y-72976428D02*
X146040571Y-71176428D01*
X146040571Y-70276428D02*
X145912000Y-70405000D01*
X146040571Y-70533571D01*
X146169142Y-70405000D01*
X146040571Y-70276428D01*
X146040571Y-70533571D01*
X147197714Y-72847857D02*
X147454857Y-72976428D01*
X147969142Y-72976428D01*
X148226285Y-72847857D01*
X148354857Y-72590714D01*
X148354857Y-72462142D01*
X148226285Y-72205000D01*
X147969142Y-72076428D01*
X147583428Y-72076428D01*
X147326285Y-71947857D01*
X147197714Y-71690714D01*
X147197714Y-71562142D01*
X147326285Y-71305000D01*
X147583428Y-71176428D01*
X147969142Y-71176428D01*
X148226285Y-71305000D01*
X150669142Y-72847857D02*
X150412000Y-72976428D01*
X149897714Y-72976428D01*
X149640571Y-72847857D01*
X149512000Y-72719285D01*
X149383428Y-72462142D01*
X149383428Y-71690714D01*
X149512000Y-71433571D01*
X149640571Y-71305000D01*
X149897714Y-71176428D01*
X150412000Y-71176428D01*
X150669142Y-71305000D01*
X151826285Y-72976428D02*
X151826285Y-70276428D01*
X152983428Y-72976428D02*
X152983428Y-71562142D01*
X152854857Y-71305000D01*
X152597714Y-71176428D01*
X152212000Y-71176428D01*
X151954857Y-71305000D01*
X151826285Y-71433571D01*
X153883428Y-71176428D02*
X154912000Y-71176428D01*
X154269142Y-70276428D02*
X154269142Y-72590714D01*
X154397714Y-72847857D01*
X154654857Y-72976428D01*
X154912000Y-72976428D01*
X155812000Y-72976428D02*
X155812000Y-70276428D01*
X156969142Y-72976428D02*
X156969142Y-71562142D01*
X156840571Y-71305000D01*
X156583428Y-71176428D01*
X156197714Y-71176428D01*
X155940571Y-71305000D01*
X155812000Y-71433571D01*
X159412000Y-72976428D02*
X159412000Y-71562142D01*
X159283428Y-71305000D01*
X159026285Y-71176428D01*
X158512000Y-71176428D01*
X158254857Y-71305000D01*
X159412000Y-72847857D02*
X159154857Y-72976428D01*
X158512000Y-72976428D01*
X158254857Y-72847857D01*
X158126285Y-72590714D01*
X158126285Y-72333571D01*
X158254857Y-72076428D01*
X158512000Y-71947857D01*
X159154857Y-71947857D01*
X159412000Y-71819285D01*
X161083428Y-72976428D02*
X160826285Y-72847857D01*
X160697714Y-72590714D01*
X160697714Y-70276428D01*
D15*
%TO.C,G\u002A\u002A\u002A*%
X145462037Y-93218000D02*
X145316894Y-93145428D01*
X145099180Y-93145428D01*
X144881466Y-93218000D01*
X144736323Y-93363142D01*
X144663751Y-93508285D01*
X144591180Y-93798571D01*
X144591180Y-94016285D01*
X144663751Y-94306571D01*
X144736323Y-94451714D01*
X144881466Y-94596857D01*
X145099180Y-94669428D01*
X145244323Y-94669428D01*
X145462037Y-94596857D01*
X145534609Y-94524285D01*
X145534609Y-94016285D01*
X145244323Y-94016285D01*
X146405466Y-93145428D02*
X146405466Y-93508285D01*
X146042609Y-93363142D02*
X146405466Y-93508285D01*
X146768323Y-93363142D01*
X146187751Y-93798571D02*
X146405466Y-93508285D01*
X146623180Y-93798571D01*
X147566609Y-93145428D02*
X147566609Y-93508285D01*
X147203751Y-93363142D02*
X147566609Y-93508285D01*
X147929466Y-93363142D01*
X147348894Y-93798571D02*
X147566609Y-93508285D01*
X147784323Y-93798571D01*
X148727751Y-93145428D02*
X148727751Y-93508285D01*
X148364894Y-93363142D02*
X148727751Y-93508285D01*
X149090609Y-93363142D01*
X148510037Y-93798571D02*
X148727751Y-93508285D01*
X148945466Y-93798571D01*
G36*
X144147276Y-101523805D02*
G01*
X143947206Y-101436858D01*
X143748956Y-101341477D01*
X143550155Y-101236213D01*
X143348433Y-101119614D01*
X143141421Y-100990230D01*
X142926748Y-100846609D01*
X142702044Y-100687300D01*
X142464939Y-100510853D01*
X142213064Y-100315816D01*
X142095716Y-100222754D01*
X141925898Y-100085403D01*
X141773250Y-99957831D01*
X141631860Y-99834777D01*
X141495815Y-99710982D01*
X141359203Y-99581189D01*
X141218372Y-99442400D01*
X141036527Y-99255045D01*
X140874987Y-99076528D01*
X140730039Y-98902199D01*
X140662156Y-98812358D01*
X140899989Y-98812358D01*
X140913044Y-98871130D01*
X140930355Y-98904447D01*
X140960829Y-98955452D01*
X141001405Y-99019570D01*
X141049021Y-99092221D01*
X141100616Y-99168832D01*
X141153131Y-99244823D01*
X141203503Y-99315619D01*
X141248673Y-99376643D01*
X141266904Y-99400228D01*
X141323399Y-99471262D01*
X141366680Y-99523223D01*
X141400094Y-99559052D01*
X141426990Y-99581692D01*
X141450714Y-99594084D01*
X141474615Y-99599168D01*
X141494214Y-99599957D01*
X141538110Y-99594908D01*
X141574762Y-99582444D01*
X141579991Y-99579252D01*
X141608875Y-99545379D01*
X141628788Y-99496839D01*
X141635487Y-99446106D01*
X141632687Y-99424332D01*
X141620588Y-99399133D01*
X141594792Y-99358726D01*
X141573111Y-99328376D01*
X141763177Y-99328376D01*
X141764936Y-99357535D01*
X141772831Y-99382126D01*
X141790792Y-99408498D01*
X141822746Y-99443000D01*
X141852017Y-99471951D01*
X141893219Y-99512936D01*
X141916326Y-99538676D01*
X141923529Y-99552569D01*
X141917016Y-99558010D01*
X141907883Y-99558633D01*
X141864487Y-99571061D01*
X141828401Y-99603439D01*
X141803299Y-99648410D01*
X141792851Y-99698617D01*
X141800732Y-99746702D01*
X141807404Y-99759918D01*
X141851552Y-99833412D01*
X141883151Y-99889270D01*
X141904854Y-99932830D01*
X141919315Y-99969432D01*
X141929185Y-100004414D01*
X141929452Y-100005555D01*
X141950010Y-100069657D01*
X141978571Y-100110361D01*
X142019319Y-100131554D01*
X142071171Y-100137158D01*
X142122795Y-100132981D01*
X142158220Y-100118398D01*
X142172078Y-100107208D01*
X142195814Y-100067146D01*
X142198676Y-100047965D01*
X143085520Y-100047965D01*
X143087629Y-100073080D01*
X143095052Y-100102567D01*
X143109436Y-100140225D01*
X143132425Y-100189849D01*
X143165667Y-100255238D01*
X143210805Y-100340187D01*
X143217825Y-100353221D01*
X143299797Y-100501738D01*
X143373956Y-100628153D01*
X143442665Y-100735964D01*
X143508286Y-100828670D01*
X143573180Y-100909771D01*
X143639710Y-100982764D01*
X143649715Y-100992967D01*
X143725187Y-101065026D01*
X143802629Y-101129616D01*
X143884915Y-101188078D01*
X143974916Y-101241751D01*
X144075506Y-101291975D01*
X144189556Y-101340092D01*
X144319941Y-101387441D01*
X144469532Y-101435361D01*
X144641202Y-101485195D01*
X144793546Y-101526590D01*
X144914186Y-101557901D01*
X145011465Y-101581386D01*
X145088285Y-101597538D01*
X145147549Y-101606849D01*
X145192158Y-101609812D01*
X145225014Y-101606920D01*
X145240597Y-101602463D01*
X145267447Y-101579586D01*
X145289329Y-101538677D01*
X145301818Y-101489248D01*
X145303199Y-101467840D01*
X145301653Y-101438283D01*
X145295124Y-101413648D01*
X145280774Y-101392480D01*
X145255764Y-101373325D01*
X145217256Y-101354730D01*
X145162413Y-101335240D01*
X145088396Y-101313402D01*
X144992368Y-101287760D01*
X144910990Y-101266886D01*
X144765715Y-101229346D01*
X144643264Y-101196247D01*
X144539523Y-101166261D01*
X144450377Y-101138063D01*
X144371711Y-101110327D01*
X144299413Y-101081726D01*
X144229366Y-101050935D01*
X144203292Y-101038767D01*
X144101950Y-100987041D01*
X144011332Y-100931752D01*
X143928918Y-100870077D01*
X143852187Y-100799195D01*
X143787809Y-100726640D01*
X149189988Y-100726640D01*
X149204341Y-100779317D01*
X149233215Y-100821072D01*
X149238161Y-100825282D01*
X149286356Y-100847978D01*
X149337513Y-100853254D01*
X149362030Y-100852200D01*
X149384647Y-100847581D01*
X149409485Y-100836990D01*
X149440662Y-100818019D01*
X149482299Y-100788261D01*
X149538514Y-100745309D01*
X149587038Y-100707440D01*
X149678025Y-100636161D01*
X149749690Y-100579645D01*
X149804338Y-100535587D01*
X149844272Y-100501684D01*
X149871796Y-100475630D01*
X149889215Y-100455121D01*
X149898831Y-100437854D01*
X149902949Y-100421522D01*
X149903872Y-100403823D01*
X149903850Y-100390539D01*
X149894875Y-100330272D01*
X149867131Y-100289444D01*
X149819385Y-100266922D01*
X149763288Y-100261321D01*
X149739354Y-100261732D01*
X149718466Y-100264213D01*
X149697216Y-100270844D01*
X149672192Y-100283707D01*
X149639984Y-100304882D01*
X149597181Y-100336451D01*
X149540374Y-100380495D01*
X149466152Y-100439094D01*
X149446662Y-100454531D01*
X149375746Y-100511615D01*
X149312142Y-100564551D01*
X149259092Y-100610499D01*
X149219835Y-100646621D01*
X149197612Y-100670076D01*
X149193971Y-100675926D01*
X149189988Y-100726640D01*
X143787809Y-100726640D01*
X143778618Y-100716282D01*
X143705690Y-100618517D01*
X143630884Y-100503078D01*
X143551678Y-100367143D01*
X143471832Y-100219805D01*
X143430609Y-100143375D01*
X143391387Y-100073675D01*
X143356751Y-100015070D01*
X143329287Y-99971926D01*
X143317880Y-99956905D01*
X148691702Y-99956905D01*
X148694251Y-100001289D01*
X148705194Y-100030386D01*
X148729473Y-100056242D01*
X148734082Y-100060175D01*
X148787222Y-100089501D01*
X148843268Y-100093709D01*
X148896200Y-100072546D01*
X148903388Y-100067255D01*
X148933990Y-100036893D01*
X148972720Y-99989617D01*
X149014365Y-99932617D01*
X149053711Y-99873083D01*
X149085548Y-99818206D01*
X149089482Y-99810565D01*
X149115248Y-99739813D01*
X149120003Y-99675849D01*
X149105179Y-99622359D01*
X149072209Y-99583026D01*
X149022526Y-99561536D01*
X148991543Y-99558633D01*
X148935266Y-99565575D01*
X148892798Y-99589317D01*
X148857868Y-99634236D01*
X148843061Y-99662270D01*
X148818704Y-99706408D01*
X148784965Y-99759972D01*
X148752241Y-99807061D01*
X148719552Y-99854124D01*
X148701144Y-99889976D01*
X148693164Y-99924147D01*
X148691702Y-99956905D01*
X143317880Y-99956905D01*
X143311580Y-99948609D01*
X143310695Y-99947760D01*
X143262902Y-99921277D01*
X143207426Y-99917299D01*
X143152181Y-99935626D01*
X143127900Y-99952428D01*
X143099574Y-99981628D01*
X143087538Y-100013616D01*
X143085520Y-100047965D01*
X142198676Y-100047965D01*
X142204357Y-100009890D01*
X142198991Y-99940327D01*
X142181003Y-99863339D01*
X142151677Y-99783811D01*
X142112298Y-99706628D01*
X142064152Y-99636672D01*
X142041314Y-99610287D01*
X142005962Y-99572408D01*
X142057809Y-99572408D01*
X142115011Y-99560357D01*
X142158099Y-99526514D01*
X142183962Y-99474345D01*
X142188229Y-99440515D01*
X150633893Y-99440515D01*
X150644888Y-99499067D01*
X150677434Y-99540743D01*
X150730876Y-99564969D01*
X150783345Y-99571320D01*
X150821578Y-99565608D01*
X150856439Y-99542821D01*
X150872879Y-99526648D01*
X150909398Y-99487538D01*
X150950361Y-99442837D01*
X150965283Y-99426320D01*
X151002427Y-99389161D01*
X151051015Y-99346012D01*
X151096140Y-99309636D01*
X151138070Y-99276935D01*
X151162808Y-99252832D01*
X151175304Y-99229532D01*
X151180505Y-99199241D01*
X151182205Y-99174074D01*
X151182568Y-99126268D01*
X151175036Y-99094875D01*
X151156956Y-99069266D01*
X151155699Y-99067916D01*
X151115172Y-99043013D01*
X151061215Y-99033736D01*
X151003160Y-99040195D01*
X150950340Y-99062500D01*
X150945944Y-99065440D01*
X150849949Y-99139954D01*
X150762299Y-99222613D01*
X150695626Y-99300173D01*
X150661500Y-99348746D01*
X150642475Y-99385984D01*
X150634731Y-99420572D01*
X150633893Y-99440515D01*
X142188229Y-99440515D01*
X142190184Y-99425014D01*
X142182373Y-99360636D01*
X142158055Y-99317246D01*
X142115906Y-99292843D01*
X142100102Y-99289021D01*
X142061287Y-99278460D01*
X142045984Y-99267500D01*
X142055155Y-99258945D01*
X142088619Y-99255596D01*
X142144713Y-99244122D01*
X142172078Y-99225647D01*
X142196210Y-99188172D01*
X142205459Y-99140808D01*
X142204715Y-99131531D01*
X148772338Y-99131531D01*
X148780722Y-99184548D01*
X148808722Y-99225479D01*
X148843221Y-99245824D01*
X148895393Y-99254811D01*
X148950826Y-99248976D01*
X148995983Y-99229901D01*
X148999071Y-99227596D01*
X149029569Y-99195731D01*
X149067056Y-99144751D01*
X149107703Y-99080878D01*
X149147676Y-99010330D01*
X149183145Y-98939329D01*
X149199155Y-98902798D01*
X149238456Y-98794163D01*
X149269924Y-98680738D01*
X149290340Y-98574635D01*
X149293750Y-98546809D01*
X149296292Y-98501533D01*
X149290032Y-98470713D01*
X149271690Y-98441815D01*
X149263735Y-98432114D01*
X149238053Y-98405479D01*
X149212173Y-98392322D01*
X149174741Y-98388054D01*
X149154055Y-98387809D01*
X149105292Y-98391209D01*
X149071192Y-98404500D01*
X149047362Y-98432322D01*
X149029410Y-98479315D01*
X149016487Y-98533083D01*
X148963446Y-98718981D01*
X148886288Y-98892134D01*
X148816486Y-99007657D01*
X148784087Y-99071032D01*
X148772338Y-99131531D01*
X142204715Y-99131531D01*
X142201436Y-99090645D01*
X142185754Y-99044772D01*
X142160026Y-99010281D01*
X142125864Y-98994259D01*
X142119370Y-98993883D01*
X142095630Y-98984638D01*
X142063269Y-98961157D01*
X142046471Y-98945672D01*
X142011083Y-98914845D01*
X141978392Y-98900720D01*
X141937674Y-98897462D01*
X141873281Y-98907892D01*
X141840794Y-98926011D01*
X141818900Y-98947398D01*
X141808035Y-98973296D01*
X141804613Y-99013809D01*
X141804500Y-99028262D01*
X141807750Y-99079357D01*
X141820052Y-99115863D01*
X141840161Y-99144344D01*
X141860910Y-99172371D01*
X141862152Y-99185122D01*
X141855160Y-99186724D01*
X141825632Y-99198998D01*
X141797055Y-99230473D01*
X141774632Y-99273135D01*
X141763570Y-99318967D01*
X141763177Y-99328376D01*
X141573111Y-99328376D01*
X141559288Y-99309026D01*
X141524626Y-99264103D01*
X141484192Y-99211414D01*
X141433438Y-99142115D01*
X141377008Y-99062728D01*
X141319548Y-98979772D01*
X141273897Y-98912125D01*
X141122090Y-98683959D01*
X141048337Y-98679735D01*
X141000411Y-98679364D01*
X140968979Y-98686827D01*
X140943487Y-98704739D01*
X140942085Y-98706044D01*
X140909782Y-98754113D01*
X140899989Y-98812358D01*
X140662156Y-98812358D01*
X140597968Y-98727407D01*
X140514900Y-98605815D01*
X144807397Y-98605815D01*
X144819881Y-98657933D01*
X144853736Y-98699653D01*
X144903293Y-98725830D01*
X144946669Y-98732169D01*
X144979709Y-98730111D01*
X145006285Y-98720958D01*
X145034348Y-98700240D01*
X145071853Y-98663490D01*
X145075374Y-98659853D01*
X145120389Y-98609015D01*
X145168143Y-98548507D01*
X145203842Y-98498004D01*
X145262426Y-98408471D01*
X145253571Y-98505266D01*
X145249640Y-98557140D01*
X145250778Y-98590652D01*
X145258799Y-98614796D01*
X145275519Y-98638567D01*
X145282069Y-98646454D01*
X145308899Y-98673937D01*
X145336237Y-98687009D01*
X145376203Y-98690764D01*
X145387696Y-98690846D01*
X145421382Y-98689875D01*
X145447242Y-98684424D01*
X145470767Y-98670686D01*
X145497452Y-98644853D01*
X145532791Y-98603118D01*
X145556322Y-98573978D01*
X145593000Y-98536784D01*
X145639626Y-98500098D01*
X145659630Y-98487234D01*
X145690356Y-98470448D01*
X145718732Y-98459583D01*
X145751990Y-98453368D01*
X145797361Y-98450530D01*
X145862074Y-98449800D01*
X145872583Y-98449794D01*
X145938946Y-98449408D01*
X145983513Y-98447539D01*
X146012035Y-98443123D01*
X146030260Y-98435096D01*
X146043939Y-98422393D01*
X146048206Y-98417275D01*
X146069484Y-98370948D01*
X146074566Y-98324298D01*
X146076196Y-98287852D01*
X146080310Y-98266321D01*
X146082579Y-98263839D01*
X146097622Y-98270313D01*
X146129499Y-98287312D01*
X146171409Y-98311206D01*
X146172850Y-98312050D01*
X146249801Y-98347894D01*
X146318225Y-98361586D01*
X146375687Y-98353738D01*
X146389669Y-98344607D01*
X151256460Y-98344607D01*
X151257023Y-98377863D01*
X151262891Y-98403035D01*
X151273673Y-98423820D01*
X151275877Y-98427056D01*
X151316624Y-98463679D01*
X151369194Y-98481871D01*
X151424591Y-98480478D01*
X151473819Y-98458348D01*
X151480036Y-98453237D01*
X151493733Y-98437817D01*
X151506687Y-98414691D01*
X151520211Y-98380011D01*
X151535620Y-98329928D01*
X151554229Y-98260596D01*
X151577225Y-98168676D01*
X151602459Y-98063920D01*
X151620687Y-97982143D01*
X151632125Y-97919739D01*
X151636992Y-97873100D01*
X151635504Y-97838623D01*
X151627878Y-97812699D01*
X151614333Y-97791723D01*
X151600791Y-97777425D01*
X151565918Y-97751702D01*
X151525321Y-97741394D01*
X151499884Y-97740412D01*
X151465253Y-97742222D01*
X151437306Y-97749765D01*
X151414192Y-97766212D01*
X151394058Y-97794732D01*
X151375053Y-97838497D01*
X151355324Y-97900676D01*
X151333021Y-97984439D01*
X151315089Y-98056780D01*
X151290516Y-98159353D01*
X151272815Y-98239050D01*
X151261593Y-98299568D01*
X151256460Y-98344607D01*
X146389669Y-98344607D01*
X146419754Y-98324959D01*
X146447990Y-98275861D01*
X146455802Y-98241088D01*
X146456058Y-98201737D01*
X146443364Y-98166733D01*
X146414627Y-98132453D01*
X146366752Y-98095271D01*
X146296647Y-98051564D01*
X146291418Y-98048510D01*
X146211054Y-98006596D01*
X146146140Y-97984441D01*
X146093373Y-97981622D01*
X146049449Y-97997720D01*
X146027465Y-98014858D01*
X146003986Y-98043483D01*
X145993656Y-98078241D01*
X145991919Y-98113828D01*
X145991919Y-98179404D01*
X145871393Y-98171662D01*
X145728617Y-98174930D01*
X145596070Y-98203701D01*
X145561469Y-98216069D01*
X145546509Y-98218181D01*
X145539382Y-98205244D01*
X145537387Y-98171470D01*
X145537364Y-98164406D01*
X145528960Y-98106334D01*
X145502663Y-98068032D01*
X145456840Y-98048105D01*
X145397599Y-98044725D01*
X145348861Y-98043421D01*
X145306656Y-98036310D01*
X145290882Y-98030468D01*
X145251083Y-98020143D01*
X145201070Y-98020759D01*
X145154314Y-98031175D01*
X145130270Y-98044071D01*
X145115700Y-98063518D01*
X145093652Y-98101528D01*
X145067835Y-98151486D01*
X145054763Y-98178686D01*
X145013844Y-98260275D01*
X144976390Y-98323738D01*
X144944042Y-98366666D01*
X144918441Y-98386649D01*
X144912329Y-98387809D01*
X144882980Y-98400530D01*
X144854852Y-98434591D01*
X144830907Y-98483838D01*
X144814107Y-98542117D01*
X144807413Y-98603274D01*
X144807397Y-98605815D01*
X140514900Y-98605815D01*
X140475061Y-98547501D01*
X140373378Y-98384346D01*
X140270751Y-98196581D01*
X140172260Y-97983894D01*
X140078619Y-97748698D01*
X139990541Y-97493405D01*
X139974594Y-97440191D01*
X140055151Y-97440191D01*
X140057432Y-97479512D01*
X140066532Y-97514229D01*
X140085839Y-97553148D01*
X140118309Y-97604433D01*
X140159631Y-97662701D01*
X140207184Y-97724037D01*
X140250548Y-97775022D01*
X140287417Y-97814051D01*
X140314280Y-97836664D01*
X140339113Y-97847314D01*
X140369893Y-97850455D01*
X140385895Y-97850607D01*
X140430025Y-97847889D01*
X140459173Y-97836322D01*
X140485652Y-97810785D01*
X140487820Y-97808227D01*
X140517146Y-97761898D01*
X140525089Y-97714862D01*
X140511041Y-97663098D01*
X140474395Y-97602584D01*
X140452393Y-97573933D01*
X140410958Y-97520515D01*
X140369467Y-97463895D01*
X140336608Y-97415947D01*
X140335449Y-97414148D01*
X140305568Y-97371858D01*
X140276079Y-97336922D01*
X140258841Y-97321171D01*
X140208230Y-97301358D01*
X140152888Y-97305486D01*
X140100463Y-97332884D01*
X140097531Y-97335292D01*
X140071381Y-97361158D01*
X140058860Y-97388443D01*
X140055228Y-97428885D01*
X140055151Y-97440191D01*
X139974594Y-97440191D01*
X139908738Y-97220430D01*
X139833923Y-96932184D01*
X139766810Y-96631081D01*
X139708112Y-96319534D01*
X139673279Y-96094967D01*
X139752632Y-96094967D01*
X139755013Y-96141190D01*
X139756896Y-96164323D01*
X139765692Y-96243859D01*
X139778583Y-96328607D01*
X139794387Y-96413289D01*
X139811919Y-96492627D01*
X139829998Y-96561343D01*
X139847439Y-96614159D01*
X139863060Y-96645797D01*
X139865472Y-96648713D01*
X139904230Y-96672209D01*
X139955931Y-96681520D01*
X140009862Y-96676586D01*
X140055315Y-96657347D01*
X140064594Y-96649833D01*
X140082562Y-96626239D01*
X140092859Y-96593936D01*
X140095452Y-96549221D01*
X140090312Y-96488391D01*
X140077408Y-96407742D01*
X140061898Y-96328536D01*
X140057284Y-96304847D01*
X142630965Y-96304847D01*
X142639910Y-96364833D01*
X142668725Y-96408539D01*
X142720378Y-96439921D01*
X142737025Y-96446241D01*
X142765433Y-96458054D01*
X142772021Y-96471638D01*
X142761287Y-96496896D01*
X142760623Y-96498172D01*
X142741932Y-96559435D01*
X142749535Y-96617894D01*
X142779039Y-96665351D01*
X142816919Y-96706452D01*
X143064858Y-96720273D01*
X143155852Y-96726231D01*
X143247678Y-96733796D01*
X143332565Y-96742223D01*
X143402742Y-96750764D01*
X143436767Y-96756019D01*
X143660073Y-96802845D01*
X143897160Y-96866928D01*
X144149566Y-96948760D01*
X144418827Y-97048837D01*
X144676293Y-97154679D01*
X144831162Y-97220238D01*
X144964850Y-97274890D01*
X145081036Y-97319604D01*
X145183398Y-97355351D01*
X145275613Y-97383097D01*
X145361359Y-97403813D01*
X145444314Y-97418468D01*
X145528156Y-97428029D01*
X145616563Y-97433467D01*
X145713212Y-97435750D01*
X145743980Y-97435963D01*
X145872221Y-97434315D01*
X145996102Y-97427781D01*
X146126994Y-97415590D01*
X146232971Y-97402743D01*
X146392729Y-97382094D01*
X146529253Y-97365107D01*
X146646596Y-97351650D01*
X146748811Y-97341592D01*
X146839949Y-97334801D01*
X146924063Y-97331143D01*
X147005207Y-97330487D01*
X147087432Y-97332701D01*
X147174790Y-97337653D01*
X147271336Y-97345210D01*
X147381120Y-97355240D01*
X147458893Y-97362769D01*
X147607338Y-97374346D01*
X147776591Y-97382389D01*
X147960118Y-97386769D01*
X148151391Y-97387353D01*
X148343876Y-97384010D01*
X148410241Y-97381891D01*
X148487162Y-97378924D01*
X148542574Y-97375658D01*
X148582502Y-97370884D01*
X148612971Y-97363390D01*
X148640006Y-97351968D01*
X148669632Y-97335406D01*
X148683759Y-97326950D01*
X148737777Y-97289291D01*
X148794095Y-97242075D01*
X148828750Y-97207917D01*
X148890673Y-97131282D01*
X148927233Y-97063274D01*
X148938763Y-97002585D01*
X148925595Y-96947907D01*
X148903447Y-96914370D01*
X148880235Y-96889676D01*
X148857781Y-96877460D01*
X148825792Y-96874186D01*
X148790110Y-96875433D01*
X148712969Y-96879512D01*
X148660715Y-96958592D01*
X148617912Y-97017152D01*
X148576795Y-97055576D01*
X148528917Y-97078918D01*
X148465831Y-97092233D01*
X148430639Y-97096260D01*
X148182058Y-97113593D01*
X147932685Y-97116618D01*
X147673757Y-97105295D01*
X147513448Y-97091914D01*
X147259511Y-97071522D01*
X147024637Y-97061511D01*
X146907917Y-97060299D01*
X146816966Y-97060760D01*
X146740100Y-97062280D01*
X146670942Y-97065404D01*
X146603116Y-97070678D01*
X146530245Y-97078648D01*
X146445953Y-97089858D01*
X146343862Y-97104856D01*
X146288069Y-97113345D01*
X146113272Y-97138298D01*
X145961261Y-97155807D01*
X145828320Y-97165944D01*
X145710731Y-97168784D01*
X145604779Y-97164400D01*
X145506745Y-97152867D01*
X145412914Y-97134259D01*
X145399620Y-97131023D01*
X145329181Y-97112668D01*
X145261944Y-97093093D01*
X145193692Y-97070717D01*
X145120207Y-97043957D01*
X145037274Y-97011232D01*
X144940676Y-96970959D01*
X144826197Y-96921558D01*
X144737845Y-96882764D01*
X144644595Y-96842016D01*
X144551044Y-96801841D01*
X144463040Y-96764699D01*
X144386430Y-96733049D01*
X144351365Y-96719053D01*
X145000162Y-96719053D01*
X145002611Y-96763330D01*
X145013676Y-96793045D01*
X145038939Y-96821016D01*
X145048129Y-96829240D01*
X145101102Y-96867315D01*
X145173031Y-96907327D01*
X145255919Y-96945501D01*
X145341771Y-96978062D01*
X145401570Y-96996079D01*
X145497182Y-97014206D01*
X145610855Y-97022619D01*
X145655562Y-97023385D01*
X145715428Y-97022985D01*
X145767218Y-97020451D01*
X145817628Y-97014767D01*
X145873350Y-97004916D01*
X145941079Y-96989883D01*
X146027508Y-96968652D01*
X146044654Y-96964325D01*
X146129667Y-96941796D01*
X146203000Y-96920370D01*
X146260428Y-96901401D01*
X146297727Y-96886248D01*
X146308695Y-96879544D01*
X146327644Y-96852408D01*
X146335596Y-96811034D01*
X146336279Y-96787217D01*
X146329580Y-96730193D01*
X146308399Y-96689068D01*
X146271113Y-96663472D01*
X146216100Y-96653036D01*
X146141735Y-96657389D01*
X146046397Y-96676163D01*
X145956267Y-96700626D01*
X145885512Y-96720470D01*
X145817219Y-96737833D01*
X145759580Y-96750734D01*
X145723318Y-96756924D01*
X145630489Y-96756361D01*
X145523662Y-96735940D01*
X145406830Y-96696666D01*
X145309584Y-96652720D01*
X145226841Y-96614015D01*
X145162395Y-96591081D01*
X145112319Y-96583411D01*
X145072685Y-96590498D01*
X145039565Y-96611837D01*
X145033972Y-96617172D01*
X145011696Y-96646580D01*
X145001800Y-96683074D01*
X145000162Y-96719053D01*
X144351365Y-96719053D01*
X144327063Y-96709353D01*
X144311442Y-96703393D01*
X144117949Y-96636977D01*
X143912272Y-96577252D01*
X143703106Y-96526326D01*
X143499149Y-96486308D01*
X143309096Y-96459307D01*
X143301537Y-96458488D01*
X143142313Y-96441476D01*
X143099672Y-96382099D01*
X143040792Y-96312897D01*
X142973950Y-96255481D01*
X142903265Y-96211538D01*
X142832854Y-96182756D01*
X142766839Y-96170822D01*
X142709337Y-96177424D01*
X142664775Y-96203940D01*
X142642282Y-96233811D01*
X142632446Y-96271020D01*
X142630965Y-96304847D01*
X140057284Y-96304847D01*
X140048513Y-96259815D01*
X140037581Y-96196738D01*
X140030271Y-96146526D01*
X140027747Y-96117416D01*
X140016926Y-96070485D01*
X139987339Y-96031326D01*
X139983715Y-96028323D01*
X141349945Y-96028323D01*
X141359681Y-96088632D01*
X141389087Y-96129741D01*
X141438456Y-96151930D01*
X141484430Y-96156356D01*
X141528543Y-96152943D01*
X141563282Y-96144306D01*
X141572846Y-96139138D01*
X141590051Y-96119102D01*
X141615208Y-96082437D01*
X141643140Y-96036733D01*
X141645641Y-96032386D01*
X141723138Y-95910201D01*
X142231507Y-95910201D01*
X142237475Y-95959101D01*
X142259112Y-95997076D01*
X142268520Y-96007527D01*
X142305954Y-96036309D01*
X142348428Y-96046795D01*
X142399856Y-96038606D01*
X142464149Y-96011363D01*
X142513826Y-95983770D01*
X142644340Y-95911011D01*
X142788265Y-95838366D01*
X142937041Y-95769757D01*
X143082108Y-95709103D01*
X143214904Y-95660325D01*
X143233587Y-95654161D01*
X143292082Y-95628948D01*
X143327508Y-95595825D01*
X143328201Y-95593889D01*
X143361008Y-95593889D01*
X143362692Y-95643048D01*
X143370033Y-95675216D01*
X143386466Y-95700865D01*
X143401272Y-95716634D01*
X143438870Y-95745772D01*
X143480981Y-95756356D01*
X143498000Y-95756898D01*
X143534450Y-95753574D01*
X143565923Y-95740455D01*
X143602110Y-95712823D01*
X143618219Y-95698357D01*
X143656098Y-95661488D01*
X143703981Y-95611930D01*
X143753977Y-95557939D01*
X143776317Y-95532976D01*
X143819318Y-95483295D01*
X143846865Y-95447681D01*
X143862347Y-95420102D01*
X143869149Y-95394528D01*
X143870661Y-95365008D01*
X143860236Y-95301673D01*
X143829086Y-95256469D01*
X143777398Y-95229611D01*
X143748448Y-95223695D01*
X143688263Y-95215622D01*
X143580897Y-95327854D01*
X143536805Y-95372727D01*
X143498884Y-95409064D01*
X143471510Y-95432815D01*
X143459649Y-95440087D01*
X143441066Y-95448291D01*
X143412044Y-95468695D01*
X143403388Y-95475747D01*
X143379373Y-95498644D01*
X143366657Y-95521978D01*
X143361722Y-95555561D01*
X143361008Y-95593889D01*
X143328201Y-95593889D01*
X143344262Y-95549032D01*
X143347234Y-95505268D01*
X143337319Y-95442919D01*
X143308918Y-95398629D01*
X143264048Y-95374770D01*
X143233190Y-95371215D01*
X143185042Y-95377691D01*
X143116739Y-95396028D01*
X143032142Y-95424587D01*
X142935110Y-95461733D01*
X142829503Y-95505826D01*
X142719183Y-95555230D01*
X142608009Y-95608306D01*
X142499841Y-95663418D01*
X142398540Y-95718928D01*
X142358399Y-95742306D01*
X142300992Y-95778169D01*
X142263931Y-95807518D01*
X142242886Y-95836082D01*
X142233524Y-95869593D01*
X142231507Y-95910201D01*
X141723138Y-95910201D01*
X141731369Y-95897223D01*
X141831892Y-95766506D01*
X141949123Y-95638478D01*
X142084975Y-95511382D01*
X142241362Y-95383460D01*
X142420195Y-95252954D01*
X142623389Y-95118108D01*
X142679175Y-95082914D01*
X142759249Y-95032081D01*
X142818404Y-94992179D01*
X142859650Y-94960485D01*
X142885995Y-94934274D01*
X142900449Y-94910826D01*
X142906019Y-94887416D01*
X142906434Y-94877254D01*
X142907868Y-94856695D01*
X142916661Y-94846409D01*
X142939508Y-94843650D01*
X142983103Y-94845670D01*
X142983368Y-94845687D01*
X143014580Y-94847080D01*
X143040345Y-94845312D01*
X143065926Y-94838119D01*
X143096591Y-94823239D01*
X143137605Y-94798410D01*
X143194233Y-94761369D01*
X143220995Y-94743585D01*
X143520283Y-94531203D01*
X143797654Y-94306584D01*
X143802413Y-94302460D01*
X143947669Y-94176439D01*
X143963950Y-94278768D01*
X143997449Y-94407490D01*
X144053962Y-94524385D01*
X144131302Y-94626417D01*
X144227276Y-94710549D01*
X144311721Y-94760843D01*
X144363225Y-94783039D01*
X144431366Y-94808080D01*
X144505990Y-94832392D01*
X144556660Y-94847067D01*
X144669327Y-94880613D01*
X144759487Y-94915529D01*
X144832075Y-94955611D01*
X144892025Y-95004653D01*
X144944272Y-95066453D01*
X144993750Y-95144805D01*
X145028650Y-95210098D01*
X145107152Y-95353617D01*
X145184274Y-95472389D01*
X145262201Y-95568985D01*
X145343117Y-95645974D01*
X145429208Y-95705928D01*
X145468095Y-95726976D01*
X145551971Y-95762807D01*
X145636782Y-95785193D01*
X145730617Y-95795553D01*
X145841560Y-95795307D01*
X145854175Y-95794741D01*
X145948183Y-95787034D01*
X146035597Y-95772232D01*
X146120924Y-95748548D01*
X146176524Y-95726780D01*
X146664477Y-95726780D01*
X146669103Y-95781339D01*
X146689671Y-95826953D01*
X146699052Y-95837431D01*
X146719043Y-95852902D01*
X146743003Y-95861736D01*
X146778504Y-95865431D01*
X146833119Y-95865482D01*
X146840239Y-95865338D01*
X146905445Y-95866728D01*
X146964922Y-95875248D01*
X147024008Y-95892946D01*
X147088042Y-95921866D01*
X147162363Y-95964056D01*
X147252310Y-96021560D01*
X147258393Y-96025590D01*
X147335950Y-96075219D01*
X147396101Y-96108426D01*
X147442883Y-96126083D01*
X147480332Y-96129064D01*
X147512487Y-96118241D01*
X147543383Y-96094488D01*
X147549486Y-96088543D01*
X147578855Y-96050414D01*
X147589325Y-96007779D01*
X147589750Y-95993249D01*
X147587638Y-95951882D01*
X147582422Y-95919801D01*
X147581060Y-95915573D01*
X147565457Y-95897556D01*
X147530736Y-95868955D01*
X147481620Y-95832998D01*
X147422829Y-95792910D01*
X147359084Y-95751917D01*
X147295107Y-95713245D01*
X147239341Y-95682085D01*
X147145985Y-95637385D01*
X147061979Y-95609344D01*
X146976858Y-95595483D01*
X146880154Y-95593322D01*
X146866593Y-95593756D01*
X146804062Y-95596826D01*
X146762223Y-95601566D01*
X146734219Y-95609566D01*
X146713193Y-95622421D01*
X146702385Y-95631886D01*
X146675627Y-95673541D01*
X146664477Y-95726780D01*
X146176524Y-95726780D01*
X146208671Y-95714194D01*
X146303344Y-95667383D01*
X146409449Y-95606327D01*
X146531493Y-95529238D01*
X146543867Y-95521155D01*
X146730794Y-95398763D01*
X146828981Y-95398763D01*
X146925489Y-95394727D01*
X147037665Y-95383618D01*
X147154993Y-95366934D01*
X147266960Y-95346174D01*
X147363051Y-95322836D01*
X147364337Y-95322468D01*
X147531405Y-95263495D01*
X147678936Y-95188493D01*
X147805956Y-95098577D01*
X147911487Y-94994861D01*
X147991813Y-94882303D01*
X148568333Y-94882303D01*
X148578982Y-94941415D01*
X148610016Y-95014979D01*
X148610777Y-95016490D01*
X148735524Y-95234171D01*
X148886906Y-95445928D01*
X149064567Y-95651338D01*
X149268149Y-95849980D01*
X149443314Y-95998834D01*
X149560126Y-96094596D01*
X149656080Y-96178168D01*
X149733558Y-96252148D01*
X149794946Y-96319135D01*
X149842627Y-96381727D01*
X149878986Y-96442521D01*
X149905989Y-96503011D01*
X149928669Y-96595382D01*
X149924473Y-96683497D01*
X149908556Y-96736315D01*
X149885713Y-96793404D01*
X149859057Y-96721946D01*
X149828162Y-96662681D01*
X149780338Y-96597697D01*
X149722662Y-96534786D01*
X149662211Y-96481743D01*
X149610957Y-96448720D01*
X149539343Y-96422410D01*
X149478057Y-96418603D01*
X149429599Y-96436206D01*
X149396470Y-96474122D01*
X149381171Y-96531255D01*
X149380422Y-96549727D01*
X149388084Y-96604099D01*
X149414540Y-96649325D01*
X149416083Y-96651177D01*
X149442450Y-96678255D01*
X149463864Y-96693115D01*
X149467737Y-96694053D01*
X149494155Y-96705229D01*
X149528154Y-96733089D01*
X149562623Y-96771010D01*
X149585527Y-96803753D01*
X149607472Y-96843224D01*
X149612828Y-96860885D01*
X149601603Y-96856661D01*
X149580777Y-96837563D01*
X149535506Y-96810540D01*
X149479180Y-96804053D01*
X149419794Y-96818737D01*
X149408994Y-96823885D01*
X149371683Y-96857612D01*
X149343980Y-96912273D01*
X149328163Y-96982248D01*
X149325325Y-97030309D01*
X149327315Y-97076569D01*
X149335636Y-97105435D01*
X149353814Y-97126915D01*
X149361618Y-97133339D01*
X149407057Y-97154631D01*
X149463365Y-97161917D01*
X149517088Y-97154129D01*
X149534012Y-97147004D01*
X149562440Y-97118547D01*
X149587727Y-97068141D01*
X149607436Y-97001378D01*
X149614654Y-96962158D01*
X149624925Y-96893286D01*
X149626643Y-96990750D01*
X149628891Y-97044722D01*
X149634778Y-97079407D01*
X149646532Y-97103030D01*
X149661444Y-97119292D01*
X149697696Y-97142060D01*
X149742665Y-97156694D01*
X149748207Y-97157571D01*
X149802524Y-97153293D01*
X149848559Y-97128778D01*
X149879852Y-97089166D01*
X149890075Y-97044707D01*
X149892493Y-97006106D01*
X149898312Y-96977384D01*
X149898360Y-96977257D01*
X149907283Y-96963300D01*
X149922793Y-96967474D01*
X149935861Y-96976131D01*
X149980626Y-96993979D01*
X150033071Y-96996105D01*
X150081609Y-96983263D01*
X150107848Y-96964945D01*
X150142420Y-96911757D01*
X150168720Y-96838236D01*
X150186100Y-96750518D01*
X150193915Y-96654743D01*
X150191516Y-96557047D01*
X150178259Y-96463571D01*
X150165767Y-96415083D01*
X150128093Y-96322869D01*
X150072115Y-96225254D01*
X150003156Y-96130999D01*
X149969618Y-96092352D01*
X149941150Y-96063575D01*
X149896053Y-96020671D01*
X149838541Y-95967527D01*
X149772830Y-95908029D01*
X149703132Y-95846064D01*
X149690346Y-95834823D01*
X149527711Y-95688875D01*
X149386137Y-95554535D01*
X149263186Y-95429040D01*
X149156419Y-95309625D01*
X149063395Y-95193525D01*
X148981676Y-95077975D01*
X148908823Y-94960210D01*
X148890972Y-94928779D01*
X148857815Y-94871041D01*
X148827553Y-94821353D01*
X148803656Y-94785227D01*
X148790127Y-94768585D01*
X148763771Y-94757857D01*
X148723283Y-94751839D01*
X148708672Y-94751367D01*
X148662146Y-94756101D01*
X148627162Y-94774297D01*
X148607996Y-94791630D01*
X148578021Y-94833691D01*
X148568333Y-94882303D01*
X147991813Y-94882303D01*
X147994554Y-94878462D01*
X148054180Y-94750493D01*
X148089390Y-94612070D01*
X148099403Y-94482766D01*
X148088537Y-94343542D01*
X148055286Y-94219140D01*
X147998674Y-94107040D01*
X147917720Y-94004721D01*
X147911198Y-93997944D01*
X147873482Y-93960334D01*
X147845988Y-93938518D01*
X147820085Y-93928203D01*
X147787142Y-93925095D01*
X147764348Y-93924902D01*
X147718159Y-93926692D01*
X147688746Y-93934772D01*
X147665426Y-93953206D01*
X147652959Y-93967282D01*
X147624512Y-94010271D01*
X147615761Y-94051881D01*
X147627604Y-94096537D01*
X147660942Y-94148665D01*
X147698926Y-94193493D01*
X147762571Y-94273561D01*
X147800791Y-94345122D01*
X147803974Y-94354079D01*
X147821345Y-94448512D01*
X147813944Y-94546676D01*
X147783614Y-94645194D01*
X147732199Y-94740686D01*
X147661541Y-94829773D01*
X147573483Y-94909077D01*
X147469870Y-94975219D01*
X147463252Y-94978668D01*
X147358733Y-95032472D01*
X147308696Y-94988539D01*
X147273722Y-94960754D01*
X147240043Y-94943010D01*
X147200444Y-94933563D01*
X147147708Y-94930665D01*
X147076927Y-94932473D01*
X147016689Y-94937951D01*
X146957717Y-94950203D01*
X146896300Y-94970953D01*
X146828727Y-95001925D01*
X146751291Y-95044842D01*
X146660279Y-95101429D01*
X146551984Y-95173409D01*
X146538109Y-95182851D01*
X146414175Y-95266181D01*
X146308477Y-95334336D01*
X146217530Y-95389088D01*
X146137849Y-95432207D01*
X146065950Y-95465464D01*
X145998348Y-95490629D01*
X145931559Y-95509474D01*
X145870015Y-95522359D01*
X145810350Y-95530373D01*
X145759994Y-95528711D01*
X145702521Y-95516893D01*
X145627857Y-95492445D01*
X145562367Y-95458117D01*
X145502670Y-95410656D01*
X145445388Y-95346807D01*
X145387140Y-95263318D01*
X145324548Y-95156935D01*
X145319940Y-95148589D01*
X145242573Y-95017341D01*
X145165969Y-94909199D01*
X145085505Y-94820252D01*
X144996556Y-94746588D01*
X144894499Y-94684296D01*
X144774709Y-94629465D01*
X144653914Y-94585274D01*
X144537160Y-94541385D01*
X144444536Y-94495458D01*
X144372625Y-94445076D01*
X144318010Y-94387820D01*
X144277276Y-94321274D01*
X144275454Y-94317473D01*
X144248830Y-94229338D01*
X144246324Y-94129306D01*
X144267615Y-94018187D01*
X144312380Y-93896794D01*
X144380295Y-93765939D01*
X144471038Y-93626435D01*
X144517184Y-93566398D01*
X146626516Y-93566398D01*
X146640810Y-93632532D01*
X146659976Y-93679977D01*
X146708577Y-93805634D01*
X146736349Y-93928755D01*
X146745149Y-94059330D01*
X146743159Y-94127945D01*
X146739934Y-94206308D01*
X146741170Y-94262395D01*
X146748156Y-94301294D01*
X146762185Y-94328096D01*
X146784546Y-94347890D01*
X146801512Y-94357986D01*
X146860278Y-94377067D01*
X146917675Y-94372815D01*
X146963019Y-94348465D01*
X146980348Y-94330827D01*
X146992178Y-94309277D01*
X147000453Y-94277300D01*
X147007116Y-94228378D01*
X147011296Y-94186616D01*
X147016747Y-94060827D01*
X147010612Y-93933505D01*
X146993956Y-93809609D01*
X146967838Y-93694099D01*
X146933321Y-93591935D01*
X146891466Y-93508076D01*
X146855751Y-93460016D01*
X146815072Y-93434221D01*
X146763520Y-93426619D01*
X146710572Y-93436837D01*
X146665705Y-93464500D01*
X146662555Y-93467657D01*
X146633752Y-93512486D01*
X146626516Y-93566398D01*
X144517184Y-93566398D01*
X144584288Y-93479093D01*
X144630066Y-93424796D01*
X144680080Y-93359989D01*
X144707460Y-93305759D01*
X144712951Y-93258104D01*
X144697298Y-93213027D01*
X144685700Y-93196788D01*
X145110357Y-93196788D01*
X145124041Y-93244668D01*
X145150621Y-93278565D01*
X145198694Y-93310324D01*
X145253230Y-93321219D01*
X145306034Y-93311003D01*
X145344516Y-93284399D01*
X145359839Y-93261364D01*
X145377132Y-93221648D01*
X145397338Y-93162541D01*
X145421401Y-93081332D01*
X145444076Y-92998580D01*
X145531478Y-92660761D01*
X145607566Y-92343519D01*
X145672149Y-92047757D01*
X145713174Y-91835696D01*
X146722019Y-91835696D01*
X146734154Y-91893030D01*
X146767922Y-91936781D01*
X146819164Y-91963045D01*
X146864008Y-91968937D01*
X146918809Y-91961988D01*
X146953754Y-91944832D01*
X146971180Y-91920837D01*
X146986503Y-91878453D01*
X147001134Y-91813542D01*
X147004234Y-91796757D01*
X147070564Y-91494979D01*
X147128414Y-91301220D01*
X147493456Y-91301220D01*
X147497829Y-91378924D01*
X147512319Y-91444309D01*
X147537167Y-91491874D01*
X147549273Y-91504051D01*
X147594134Y-91524593D01*
X147649197Y-91528108D01*
X147703441Y-91515138D01*
X147737057Y-91494832D01*
X147756512Y-91476352D01*
X147767736Y-91457578D01*
X147772627Y-91430898D01*
X147773084Y-91388699D01*
X147772076Y-91354412D01*
X147773264Y-91269716D01*
X147774444Y-91262880D01*
X148056348Y-91262880D01*
X148061010Y-91316436D01*
X148079763Y-91361936D01*
X148088030Y-91372306D01*
X148131788Y-91399631D01*
X148189268Y-91405728D01*
X148256922Y-91390833D01*
X148329429Y-91356244D01*
X148409911Y-91308301D01*
X148552903Y-91364433D01*
X148631197Y-91393092D01*
X148690347Y-91408872D01*
X148735462Y-91411963D01*
X148771651Y-91402555D01*
X148804022Y-91380836D01*
X148811566Y-91374025D01*
X148832670Y-91346426D01*
X148841906Y-91309443D01*
X148843221Y-91277190D01*
X148835656Y-91220578D01*
X148810032Y-91176963D01*
X148761957Y-91139384D01*
X148752877Y-91134031D01*
X148744280Y-91126309D01*
X148747042Y-91116780D01*
X148764306Y-91103153D01*
X148799214Y-91083136D01*
X148854910Y-91054437D01*
X148877657Y-91043035D01*
X148955370Y-91005254D01*
X149031618Y-90970028D01*
X149101706Y-90939352D01*
X149160942Y-90915220D01*
X149204631Y-90899626D01*
X149227199Y-90894534D01*
X149231780Y-90905950D01*
X149224719Y-90936668D01*
X149218842Y-90953075D01*
X149207571Y-90993219D01*
X149200228Y-91047556D01*
X149196310Y-91121037D01*
X149195348Y-91183796D01*
X149195475Y-91258150D01*
X149197330Y-91311521D01*
X149201792Y-91350463D01*
X149209738Y-91381528D01*
X149222045Y-91411269D01*
X149227247Y-91421979D01*
X149287248Y-91512831D01*
X149368038Y-91589579D01*
X149466112Y-91651109D01*
X149577963Y-91696304D01*
X149700085Y-91724049D01*
X149828973Y-91733228D01*
X149961121Y-91722727D01*
X150083564Y-91694417D01*
X150185626Y-91651402D01*
X150278209Y-91590362D01*
X150356616Y-91515644D01*
X150416151Y-91431597D01*
X150448155Y-91356920D01*
X150460666Y-91298766D01*
X150467373Y-91232132D01*
X150468318Y-91164983D01*
X150463541Y-91105286D01*
X150453085Y-91061006D01*
X150446534Y-91048226D01*
X150432523Y-91023423D01*
X150430794Y-91010394D01*
X150445273Y-91013998D01*
X150475399Y-91032592D01*
X150516538Y-91062527D01*
X150564053Y-91100153D01*
X150613310Y-91141819D01*
X150659671Y-91183876D01*
X150693042Y-91216893D01*
X150772852Y-91300332D01*
X150734612Y-91328154D01*
X150684644Y-91366217D01*
X150653193Y-91396204D01*
X150635399Y-91424619D01*
X150626404Y-91457965D01*
X150623934Y-91476299D01*
X150621430Y-91518465D01*
X150628818Y-91546725D01*
X150650366Y-91574143D01*
X150658665Y-91582596D01*
X150710448Y-91617584D01*
X150768472Y-91626105D01*
X150831442Y-91608192D01*
X150881601Y-91577078D01*
X150943355Y-91530270D01*
X151033962Y-91622190D01*
X151119751Y-91700137D01*
X151203563Y-91755434D01*
X151292399Y-91791478D01*
X151393262Y-91811665D01*
X151432808Y-91815620D01*
X151457011Y-91814374D01*
X151498194Y-91809454D01*
X151534835Y-91803935D01*
X151603021Y-91787180D01*
X151647751Y-91761234D01*
X151672489Y-91722747D01*
X151680701Y-91668369D01*
X151680748Y-91662873D01*
X151677198Y-91615170D01*
X151663696Y-91582102D01*
X151645046Y-91560074D01*
X151624328Y-91541471D01*
X151603695Y-91531603D01*
X151574777Y-91528735D01*
X151529205Y-91531130D01*
X151512223Y-91532515D01*
X151443755Y-91534582D01*
X151384902Y-91526613D01*
X151331956Y-91506097D01*
X151281211Y-91470521D01*
X151228961Y-91417373D01*
X151171500Y-91344140D01*
X151115266Y-91263441D01*
X150989620Y-91095923D01*
X150853436Y-90952110D01*
X150704456Y-90830492D01*
X150540423Y-90729556D01*
X150359082Y-90647790D01*
X150158175Y-90583683D01*
X150068024Y-90561794D01*
X150003778Y-90548673D01*
X149943739Y-90539566D01*
X149880244Y-90533809D01*
X149805627Y-90530738D01*
X149712226Y-90529690D01*
X149697234Y-90529667D01*
X149592895Y-90531048D01*
X149499152Y-90535107D01*
X149421929Y-90541499D01*
X149373535Y-90548542D01*
X149243801Y-90580354D01*
X149101405Y-90626159D01*
X148955256Y-90682815D01*
X148824731Y-90742023D01*
X148766737Y-90771664D01*
X148695110Y-90810229D01*
X148613778Y-90855411D01*
X148526670Y-90904904D01*
X148437714Y-90956400D01*
X148350839Y-91007593D01*
X148269973Y-91056176D01*
X148199045Y-91099841D01*
X148141983Y-91136282D01*
X148102715Y-91163192D01*
X148089072Y-91174037D01*
X148065721Y-91211877D01*
X148056348Y-91262880D01*
X147774444Y-91262880D01*
X147785014Y-91201673D01*
X147809820Y-91140593D01*
X147839680Y-91091781D01*
X147872524Y-91026021D01*
X147879755Y-90964063D01*
X147861384Y-90908389D01*
X147838749Y-90879700D01*
X147801532Y-90850736D01*
X147759886Y-90840064D01*
X147741268Y-90839436D01*
X147694235Y-90847012D01*
X147652145Y-90871918D01*
X147610990Y-90917423D01*
X147572317Y-90977180D01*
X147538629Y-91049176D01*
X147514096Y-91130847D01*
X147498958Y-91216695D01*
X147493456Y-91301220D01*
X147128414Y-91301220D01*
X147160265Y-91194539D01*
X147271328Y-90900650D01*
X147401745Y-90618526D01*
X147427047Y-90573124D01*
X148679505Y-90573124D01*
X148682827Y-90618801D01*
X148703991Y-90658733D01*
X148706797Y-90661690D01*
X148730870Y-90678376D01*
X148762361Y-90684652D01*
X148805316Y-90679985D01*
X148863785Y-90663839D01*
X148941813Y-90635680D01*
X148961299Y-90628098D01*
X149201399Y-90546974D01*
X149445661Y-90489917D01*
X149691265Y-90457071D01*
X149935392Y-90448581D01*
X150175225Y-90464591D01*
X150407943Y-90505246D01*
X150558134Y-90546234D01*
X150648706Y-90577543D01*
X150728521Y-90612182D01*
X150800554Y-90652868D01*
X150867779Y-90702318D01*
X150933172Y-90763246D01*
X150999707Y-90838371D01*
X151070359Y-90930406D01*
X151148104Y-91042070D01*
X151218699Y-91149360D01*
X151258850Y-91210859D01*
X151295292Y-91265566D01*
X151324670Y-91308521D01*
X151343627Y-91334767D01*
X151346884Y-91338758D01*
X151379005Y-91357122D01*
X151423001Y-91362236D01*
X151466530Y-91353988D01*
X151490265Y-91340067D01*
X151507430Y-91320334D01*
X151515718Y-91297561D01*
X151513976Y-91268775D01*
X151501052Y-91231007D01*
X151475794Y-91181284D01*
X151437047Y-91116635D01*
X151383661Y-91034090D01*
X151354638Y-90990440D01*
X151247447Y-90837367D01*
X151146946Y-90709217D01*
X151051777Y-90604569D01*
X150960584Y-90521999D01*
X150872007Y-90460084D01*
X150824029Y-90434374D01*
X150683682Y-90378254D01*
X150522409Y-90332919D01*
X150344781Y-90298726D01*
X150155370Y-90276030D01*
X149958748Y-90265189D01*
X149759486Y-90266558D01*
X149562157Y-90280494D01*
X149371331Y-90307353D01*
X149320096Y-90317156D01*
X149234206Y-90336646D01*
X149142051Y-90361065D01*
X149048044Y-90388881D01*
X148956593Y-90418564D01*
X148872111Y-90448584D01*
X148799009Y-90477409D01*
X148741697Y-90503509D01*
X148704587Y-90525354D01*
X148695146Y-90534001D01*
X148679505Y-90573124D01*
X147427047Y-90573124D01*
X147549508Y-90353382D01*
X147577377Y-90308520D01*
X147615368Y-90238174D01*
X147631219Y-90180318D01*
X147625143Y-90131340D01*
X147597353Y-90087627D01*
X147590809Y-90080784D01*
X147539886Y-90046646D01*
X147484431Y-90038377D01*
X147429093Y-90055874D01*
X147391009Y-90085287D01*
X147345622Y-90139713D01*
X147293812Y-90216805D01*
X147237316Y-90312918D01*
X147177871Y-90424404D01*
X147117211Y-90547618D01*
X147057074Y-90678913D01*
X146999195Y-90814643D01*
X146945311Y-90951161D01*
X146897158Y-91084821D01*
X146859721Y-91201101D01*
X146834949Y-91288021D01*
X146810089Y-91383441D01*
X146786270Y-91482159D01*
X146764620Y-91578976D01*
X146746268Y-91668689D01*
X146732343Y-91746097D01*
X146723973Y-91805999D01*
X146722019Y-91835696D01*
X145713174Y-91835696D01*
X145725037Y-91774377D01*
X145766039Y-91524279D01*
X145784278Y-91390412D01*
X145810936Y-91151754D01*
X145827990Y-90937273D01*
X145835199Y-90745239D01*
X145832325Y-90573920D01*
X145819128Y-90421586D01*
X145795367Y-90286505D01*
X145760802Y-90166947D01*
X145715195Y-90061180D01*
X145658304Y-89967473D01*
X145589890Y-89884096D01*
X145573178Y-89866876D01*
X145497892Y-89797260D01*
X145431816Y-89749490D01*
X145370906Y-89721262D01*
X145311123Y-89710269D01*
X145298085Y-89709935D01*
X145254716Y-89713442D01*
X145224998Y-89727876D01*
X145201115Y-89752315D01*
X145172533Y-89805533D01*
X145164935Y-89866193D01*
X145173776Y-89908432D01*
X145188641Y-89925888D01*
X145220654Y-89952841D01*
X145263607Y-89984176D01*
X145275404Y-89992146D01*
X145356434Y-90054661D01*
X145420583Y-90125392D01*
X145472541Y-90210678D01*
X145516995Y-90316855D01*
X145518264Y-90320437D01*
X145529670Y-90354213D01*
X145530905Y-90366225D01*
X145521218Y-90360600D01*
X145512383Y-90352769D01*
X145474893Y-90334660D01*
X145424324Y-90329446D01*
X145371765Y-90336794D01*
X145328306Y-90356375D01*
X145325718Y-90358332D01*
X145302256Y-90382163D01*
X145291711Y-90411857D01*
X145289602Y-90451309D01*
X145294081Y-90500155D01*
X145305481Y-90559710D01*
X145317151Y-90603055D01*
X145337626Y-90683737D01*
X145342894Y-90754508D01*
X145333283Y-90828209D01*
X145323861Y-90866985D01*
X145305978Y-90955998D01*
X145305956Y-91024527D01*
X145324105Y-91073322D01*
X145360736Y-91103133D01*
X145416159Y-91114713D01*
X145426505Y-91114924D01*
X145472778Y-91110247D01*
X145511649Y-91098488D01*
X145520524Y-91093481D01*
X145542593Y-91079972D01*
X145550285Y-91085429D01*
X145551138Y-91102611D01*
X145548754Y-91131203D01*
X145542071Y-91182618D01*
X145531794Y-91252585D01*
X145518630Y-91336837D01*
X145503283Y-91431103D01*
X145486459Y-91531117D01*
X145468863Y-91632608D01*
X145451200Y-91731309D01*
X145434177Y-91822949D01*
X145420410Y-91893740D01*
X145375905Y-92105626D01*
X145324505Y-92329898D01*
X145265197Y-92570790D01*
X145196969Y-92832536D01*
X145187318Y-92868587D01*
X145164412Y-92955805D01*
X145144220Y-93036301D01*
X145127820Y-93105480D01*
X145116291Y-93158742D01*
X145110711Y-93191491D01*
X145110357Y-93196788D01*
X144685700Y-93196788D01*
X144675239Y-93182141D01*
X144648501Y-93155401D01*
X144620008Y-93142980D01*
X144577465Y-93139773D01*
X144573221Y-93139761D01*
X144542019Y-93140659D01*
X144517874Y-93145856D01*
X144494812Y-93159104D01*
X144466854Y-93184158D01*
X144428026Y-93224772D01*
X144414223Y-93239626D01*
X144365523Y-93293855D01*
X144308416Y-93360082D01*
X144251295Y-93428470D01*
X144217396Y-93470347D01*
X144153657Y-93546039D01*
X144073211Y-93634800D01*
X143980585Y-93732151D01*
X143880310Y-93833612D01*
X143776913Y-93934705D01*
X143674924Y-94030951D01*
X143578873Y-94117871D01*
X143493287Y-94190986D01*
X143468165Y-94211280D01*
X143391467Y-94270420D01*
X143301210Y-94337306D01*
X143207084Y-94404906D01*
X143118779Y-94466190D01*
X143092161Y-94484101D01*
X143025764Y-94529207D01*
X142967089Y-94570714D01*
X142920178Y-94605631D01*
X142889074Y-94630965D01*
X142878253Y-94642388D01*
X142868880Y-94673475D01*
X142865130Y-94711893D01*
X142863030Y-94740669D01*
X142855335Y-94745723D01*
X142848600Y-94740347D01*
X142825425Y-94730201D01*
X142786869Y-94724369D01*
X142770591Y-94723818D01*
X142744337Y-94725507D01*
X142717325Y-94732023D01*
X142685019Y-94745533D01*
X142642884Y-94768208D01*
X142586385Y-94802216D01*
X142521963Y-94842744D01*
X142309117Y-94982746D01*
X142120644Y-95117151D01*
X141954421Y-95247908D01*
X141808325Y-95376964D01*
X141680235Y-95506271D01*
X141568027Y-95637776D01*
X141469579Y-95773428D01*
X141415654Y-95858582D01*
X141381514Y-95918610D01*
X141361115Y-95963961D01*
X141351621Y-96001962D01*
X141349945Y-96028323D01*
X139983715Y-96028323D01*
X139956085Y-96005430D01*
X139922754Y-95993648D01*
X139879545Y-95991063D01*
X139832268Y-95994413D01*
X139800554Y-96007075D01*
X139780012Y-96025128D01*
X139763837Y-96044729D01*
X139755141Y-96065411D01*
X139752632Y-96094967D01*
X139673279Y-96094967D01*
X139658542Y-95999956D01*
X139649875Y-95935965D01*
X139623578Y-95725768D01*
X139601377Y-95522386D01*
X139582913Y-95320573D01*
X139567826Y-95115088D01*
X139555756Y-94900686D01*
X139546342Y-94672123D01*
X139539226Y-94424156D01*
X139536198Y-94279593D01*
X139527294Y-93800933D01*
X139557684Y-93800933D01*
X139588060Y-93791531D01*
X139620230Y-93768742D01*
X139621884Y-93767123D01*
X139633679Y-93754585D01*
X139642353Y-93741234D01*
X139648385Y-93722914D01*
X139652255Y-93695472D01*
X139654445Y-93654752D01*
X139655433Y-93596599D01*
X139655701Y-93516858D01*
X139655714Y-93474417D01*
X139662677Y-93082524D01*
X139683081Y-92673128D01*
X139716295Y-92252405D01*
X139761688Y-91826534D01*
X139818628Y-91401692D01*
X139886481Y-90984058D01*
X139938968Y-90705158D01*
X139961615Y-90590220D01*
X139978674Y-90498985D01*
X139990284Y-90428212D01*
X139996586Y-90374658D01*
X139997719Y-90335081D01*
X139994562Y-90311707D01*
X141749403Y-90311707D01*
X141753727Y-90357777D01*
X141770784Y-90392178D01*
X141791503Y-90415325D01*
X141833603Y-90457425D01*
X141960239Y-90450088D01*
X142027132Y-90443947D01*
X142093198Y-90434098D01*
X142146792Y-90422375D01*
X142158498Y-90418835D01*
X142230120Y-90394918D01*
X142300267Y-90471669D01*
X142346422Y-90516636D01*
X142390746Y-90550185D01*
X142418940Y-90564436D01*
X142484718Y-90574898D01*
X142541465Y-90562584D01*
X142585043Y-90530176D01*
X142611314Y-90480356D01*
X142617190Y-90435973D01*
X142614868Y-90404196D01*
X142604813Y-90378212D01*
X142582396Y-90350207D01*
X142545088Y-90314298D01*
X142514021Y-90286075D01*
X142494496Y-90265392D01*
X142488458Y-90248417D01*
X142497854Y-90231317D01*
X142524632Y-90210261D01*
X142570738Y-90181416D01*
X142630965Y-90145270D01*
X142690387Y-90109117D01*
X142731059Y-90086560D01*
X142756337Y-90079992D01*
X142769576Y-90091808D01*
X142774131Y-90124401D01*
X142773358Y-90180165D01*
X142771090Y-90245234D01*
X142769715Y-90339868D01*
X142772975Y-90412793D01*
X142781908Y-90469612D01*
X142797554Y-90515929D01*
X142820952Y-90557347D01*
X142831814Y-90572594D01*
X142887286Y-90628063D01*
X142966345Y-90679301D01*
X143065092Y-90723933D01*
X143101717Y-90736935D01*
X143274030Y-90784256D01*
X143433575Y-90807192D01*
X143580389Y-90805747D01*
X143643860Y-90796859D01*
X143745179Y-90768510D01*
X143832090Y-90722464D01*
X143906652Y-90656660D01*
X143970927Y-90569032D01*
X144026976Y-90457518D01*
X144055079Y-90385156D01*
X144099699Y-90260188D01*
X144205458Y-90376367D01*
X144311216Y-90492546D01*
X144263119Y-90540644D01*
X144232182Y-90576308D01*
X144218101Y-90609350D01*
X144215021Y-90647907D01*
X144225787Y-90708687D01*
X144255281Y-90752761D01*
X144299299Y-90778687D01*
X144353638Y-90785025D01*
X144414092Y-90770334D01*
X144472582Y-90736184D01*
X144535648Y-90688029D01*
X144580558Y-90715785D01*
X144646694Y-90750965D01*
X144718198Y-90776533D01*
X144801120Y-90793911D01*
X144901509Y-90804525D01*
X144973418Y-90808267D01*
X145160176Y-90815250D01*
X145197252Y-90771189D01*
X145226074Y-90717622D01*
X145235735Y-90654807D01*
X145225771Y-90599001D01*
X145199988Y-90569120D01*
X145150992Y-90548957D01*
X145081707Y-90539526D01*
X145052942Y-90538950D01*
X144988616Y-90535227D01*
X144920091Y-90525104D01*
X144881558Y-90516079D01*
X144827006Y-90498459D01*
X144776864Y-90477298D01*
X144727726Y-90450070D01*
X144676184Y-90414251D01*
X144618831Y-90367313D01*
X144552262Y-90306731D01*
X144473069Y-90229978D01*
X144407863Y-90164839D01*
X144315360Y-90072817D01*
X144237443Y-89998316D01*
X144170305Y-89938345D01*
X144110141Y-89889915D01*
X144053146Y-89850034D01*
X143995513Y-89815714D01*
X143933438Y-89783962D01*
X143907748Y-89771882D01*
X143842037Y-89742621D01*
X143783799Y-89719950D01*
X143727964Y-89703043D01*
X143669465Y-89691072D01*
X143603234Y-89683213D01*
X143524202Y-89678639D01*
X143427302Y-89676524D01*
X143319685Y-89676041D01*
X143220861Y-89675936D01*
X143143971Y-89676279D01*
X143083403Y-89678013D01*
X143033548Y-89682078D01*
X142988793Y-89689415D01*
X142943529Y-89700966D01*
X142892143Y-89717672D01*
X142829027Y-89740474D01*
X142748568Y-89770313D01*
X142740982Y-89773118D01*
X142699040Y-89791908D01*
X142640267Y-89822730D01*
X142570670Y-89862212D01*
X142496255Y-89906978D01*
X142444832Y-89939448D01*
X142337414Y-90007662D01*
X142248294Y-90061394D01*
X142173531Y-90102426D01*
X142109186Y-90132541D01*
X142051321Y-90153521D01*
X141995995Y-90167146D01*
X141939269Y-90175198D01*
X141919807Y-90176918D01*
X141847330Y-90185556D01*
X141798150Y-90200336D01*
X141768169Y-90224499D01*
X141753287Y-90261289D01*
X141749403Y-90311707D01*
X139994562Y-90311707D01*
X139993823Y-90306238D01*
X139985039Y-90284887D01*
X139971507Y-90267785D01*
X139958372Y-90255836D01*
X139916691Y-90220763D01*
X139931393Y-90128733D01*
X139942892Y-90072220D01*
X139957394Y-90035709D01*
X139977988Y-90011652D01*
X139979961Y-90010063D01*
X139993096Y-89998766D01*
X140002294Y-89985862D01*
X141804500Y-89985862D01*
X141810310Y-90029292D01*
X141830397Y-90056872D01*
X141835114Y-90060401D01*
X141864720Y-90076186D01*
X141894613Y-90079009D01*
X141929414Y-90067220D01*
X141973745Y-90039168D01*
X142032228Y-89993205D01*
X142038965Y-89987616D01*
X142222392Y-89850357D01*
X142411897Y-89739392D01*
X142609590Y-89653756D01*
X142817580Y-89592481D01*
X142961550Y-89564910D01*
X143158744Y-89547088D01*
X143360007Y-89554013D01*
X143568279Y-89585860D01*
X143658965Y-89606815D01*
X143778765Y-89640412D01*
X143881763Y-89677633D01*
X143974605Y-89722133D01*
X144063939Y-89777572D01*
X144156413Y-89847605D01*
X144258675Y-89935892D01*
X144261199Y-89938170D01*
X144343278Y-90011476D01*
X144408672Y-90067623D01*
X144460395Y-90108709D01*
X144501461Y-90136833D01*
X144534883Y-90154094D01*
X144563677Y-90162591D01*
X144586242Y-90164490D01*
X144624192Y-90160210D01*
X144650993Y-90149728D01*
X144653047Y-90147961D01*
X144663453Y-90124529D01*
X144669187Y-90086303D01*
X144669576Y-90073411D01*
X144668217Y-90043008D01*
X144660974Y-90020488D01*
X144643099Y-89999234D01*
X144609843Y-89972632D01*
X144583486Y-89953476D01*
X144538141Y-89918778D01*
X144480553Y-89871698D01*
X144418528Y-89818748D01*
X144366539Y-89772525D01*
X144306713Y-89719895D01*
X144243967Y-89667681D01*
X144186255Y-89622346D01*
X144146127Y-89593394D01*
X144051090Y-89539709D01*
X147920336Y-89539709D01*
X147932604Y-89595728D01*
X147966263Y-89638483D01*
X148016591Y-89663497D01*
X148055693Y-89668124D01*
X148096094Y-89664378D01*
X148130818Y-89651412D01*
X148165795Y-89625328D01*
X148206954Y-89582225D01*
X148232987Y-89551529D01*
X148277858Y-89498001D01*
X148308064Y-89464786D01*
X148326275Y-89450786D01*
X148335157Y-89454901D01*
X148337380Y-89476032D01*
X148335863Y-89509149D01*
X148334622Y-89553184D01*
X148340676Y-89580908D01*
X148358069Y-89603367D01*
X148376237Y-89619420D01*
X148414477Y-89645310D01*
X148452268Y-89653257D01*
X148473805Y-89652239D01*
X148508417Y-89651040D01*
X148523461Y-89658455D01*
X148526409Y-89674247D01*
X148535461Y-89703194D01*
X148556359Y-89733152D01*
X148573809Y-89748771D01*
X148594766Y-89758286D01*
X148626143Y-89763170D01*
X148674854Y-89764895D01*
X148706073Y-89765032D01*
X148872351Y-89754189D01*
X149045480Y-89723121D01*
X149216303Y-89674026D01*
X149375660Y-89609098D01*
X149394197Y-89600038D01*
X149497505Y-89548512D01*
X149527828Y-89585826D01*
X149558150Y-89623141D01*
X149899736Y-89631347D01*
X150087082Y-89637774D01*
X150262173Y-89648179D01*
X150431767Y-89663347D01*
X150602624Y-89684065D01*
X150781502Y-89711120D01*
X150975158Y-89745299D01*
X151121531Y-89773566D01*
X151261597Y-89804185D01*
X151380731Y-89836782D01*
X151485550Y-89873491D01*
X151582674Y-89916444D01*
X151614263Y-89932405D01*
X151662848Y-89959327D01*
X151705712Y-89987685D01*
X151748056Y-90021869D01*
X151795083Y-90066266D01*
X151851995Y-90125265D01*
X151885261Y-90161047D01*
X151916513Y-90189917D01*
X151947928Y-90202894D01*
X151991067Y-90205813D01*
X152043823Y-90211323D01*
X152084436Y-90230836D01*
X152096492Y-90240249D01*
X152136299Y-90264402D01*
X152176239Y-90274664D01*
X152177751Y-90274685D01*
X152196895Y-90277012D01*
X152214715Y-90286638D01*
X152234971Y-90307536D01*
X152261421Y-90343676D01*
X152297826Y-90399031D01*
X152302800Y-90406776D01*
X152339329Y-90460961D01*
X152373504Y-90506733D01*
X152401144Y-90538775D01*
X152416371Y-90551239D01*
X152464701Y-90559863D01*
X152520230Y-90552896D01*
X152569319Y-90532763D01*
X152584325Y-90521353D01*
X152606834Y-90492292D01*
X152616299Y-90454445D01*
X152617407Y-90426163D01*
X152616053Y-90399782D01*
X152610492Y-90374106D01*
X152598477Y-90344590D01*
X152577761Y-90306687D01*
X152546098Y-90255849D01*
X152501240Y-90187532D01*
X152494357Y-90177181D01*
X152364386Y-89991906D01*
X152235978Y-89829948D01*
X152105651Y-89687542D01*
X151969923Y-89560923D01*
X151825309Y-89446326D01*
X151803989Y-89430909D01*
X151700278Y-89362962D01*
X151577935Y-89292962D01*
X151445180Y-89225005D01*
X151310235Y-89163188D01*
X151181319Y-89111607D01*
X151121949Y-89091019D01*
X150970491Y-89045723D01*
X150797527Y-89000907D01*
X150608544Y-88957538D01*
X150409030Y-88916586D01*
X150204473Y-88879021D01*
X150000361Y-88845812D01*
X149802183Y-88817929D01*
X149615425Y-88796340D01*
X149445577Y-88782015D01*
X149343893Y-88776961D01*
X149257336Y-88774541D01*
X149192283Y-88773974D01*
X149142725Y-88775671D01*
X149102656Y-88780043D01*
X149066068Y-88787503D01*
X149026954Y-88798462D01*
X149026066Y-88798732D01*
X148966999Y-88820771D01*
X148908790Y-88849119D01*
X148869753Y-88873664D01*
X148833267Y-88899618D01*
X148809294Y-88910391D01*
X148789244Y-88908512D01*
X148774349Y-88901756D01*
X148714538Y-88885433D01*
X148642022Y-88889880D01*
X148561071Y-88914171D01*
X148475959Y-88957381D01*
X148454568Y-88971007D01*
X148379386Y-89026017D01*
X148293638Y-89097237D01*
X148203530Y-89179024D01*
X148115268Y-89265731D01*
X148035057Y-89351715D01*
X148031149Y-89356143D01*
X147983935Y-89410625D01*
X147952353Y-89450011D01*
X147933317Y-89479415D01*
X147923738Y-89503953D01*
X147920528Y-89528740D01*
X147920336Y-89539709D01*
X144051090Y-89539709D01*
X144028084Y-89526713D01*
X143887852Y-89469246D01*
X143729659Y-89422405D01*
X143557738Y-89387605D01*
X143508086Y-89380262D01*
X143422287Y-89371947D01*
X143318721Y-89367171D01*
X143205562Y-89365845D01*
X143090984Y-89367881D01*
X142983161Y-89373190D01*
X142890265Y-89381684D01*
X142850339Y-89387370D01*
X142657661Y-89431610D01*
X142464882Y-89498416D01*
X142277933Y-89584925D01*
X142102746Y-89688271D01*
X141945251Y-89805591D01*
X141897478Y-89847521D01*
X141852871Y-89889519D01*
X141825280Y-89919642D01*
X141810708Y-89943835D01*
X141805160Y-89968040D01*
X141804500Y-89985862D01*
X140002294Y-89985862D01*
X140002303Y-89985850D01*
X140008279Y-89966602D01*
X140011723Y-89936310D01*
X140013332Y-89890260D01*
X140013802Y-89823739D01*
X140013828Y-89781166D01*
X140026241Y-89488189D01*
X140063804Y-89204948D01*
X140126998Y-88928909D01*
X140159190Y-88831093D01*
X140743871Y-88831093D01*
X140746950Y-88877791D01*
X140759388Y-88910267D01*
X140784135Y-88939628D01*
X140833937Y-88972878D01*
X140887876Y-88979636D01*
X140942122Y-88959778D01*
X140961965Y-88945275D01*
X141003104Y-88910658D01*
X141086112Y-88993666D01*
X141255908Y-88993427D01*
X141361004Y-88991316D01*
X141471497Y-88985703D01*
X141578665Y-88977247D01*
X141673789Y-88966609D01*
X141733724Y-88957274D01*
X141777918Y-88938247D01*
X141806225Y-88904303D01*
X141819190Y-88883882D01*
X141833071Y-88870567D01*
X141853955Y-88862361D01*
X141887934Y-88857267D01*
X141941097Y-88853285D01*
X141966534Y-88851713D01*
X142021250Y-88846289D01*
X142096446Y-88835885D01*
X142185720Y-88821543D01*
X142282671Y-88804305D01*
X142380896Y-88785213D01*
X142402804Y-88780709D01*
X142502419Y-88760576D01*
X142604099Y-88741043D01*
X142700909Y-88723368D01*
X142785913Y-88708813D01*
X142852174Y-88698637D01*
X142861508Y-88697377D01*
X143030176Y-88681700D01*
X143199601Y-88678011D01*
X143363359Y-88685980D01*
X143515029Y-88705277D01*
X143648188Y-88735572D01*
X143657158Y-88738250D01*
X143712822Y-88751096D01*
X143771220Y-88758583D01*
X143790458Y-88759352D01*
X143834526Y-88756420D01*
X143862827Y-88744415D01*
X143883436Y-88723207D01*
X143906667Y-88674385D01*
X143911984Y-88633674D01*
X143913689Y-88599848D01*
X143917930Y-88581515D01*
X143919420Y-88580434D01*
X143942811Y-88588180D01*
X143983969Y-88609664D01*
X144038505Y-88642253D01*
X144102028Y-88683315D01*
X144170149Y-88730216D01*
X144175323Y-88733897D01*
X144248284Y-88783104D01*
X144305665Y-88814237D01*
X144351714Y-88828347D01*
X144390678Y-88826488D01*
X144426803Y-88809712D01*
X144440666Y-88799647D01*
X144477185Y-88770922D01*
X144535501Y-88805102D01*
X144572273Y-88830805D01*
X144619556Y-88869578D01*
X144668986Y-88914428D01*
X144685225Y-88930248D01*
X144730153Y-88973741D01*
X144762452Y-89000752D01*
X144788153Y-89015065D01*
X144813286Y-89020465D01*
X144829856Y-89021004D01*
X144869763Y-89017764D01*
X144899525Y-89010056D01*
X144902817Y-89008303D01*
X144925096Y-89006712D01*
X144958317Y-89025759D01*
X144971384Y-89036063D01*
X145008933Y-89062001D01*
X145047122Y-89073823D01*
X145091610Y-89076312D01*
X145136787Y-89074165D01*
X145165917Y-89064727D01*
X145190358Y-89043500D01*
X145198666Y-89033932D01*
X145228207Y-88981994D01*
X145234327Y-88938876D01*
X145233672Y-88921684D01*
X145230598Y-88904647D01*
X145223438Y-88885397D01*
X145210525Y-88861568D01*
X145190194Y-88830791D01*
X145160779Y-88790700D01*
X145120613Y-88738927D01*
X145068030Y-88673105D01*
X145001364Y-88590867D01*
X144918949Y-88489845D01*
X144914184Y-88484013D01*
X144850627Y-88406368D01*
X144801713Y-88347436D01*
X144764683Y-88304577D01*
X144736778Y-88275149D01*
X144715238Y-88256510D01*
X144697302Y-88246019D01*
X144680211Y-88241035D01*
X144661206Y-88238916D01*
X144657850Y-88238670D01*
X144597748Y-88242929D01*
X144563842Y-88257059D01*
X144545201Y-88267921D01*
X144529893Y-88269233D01*
X144511865Y-88257966D01*
X144485062Y-88231091D01*
X144462284Y-88206252D01*
X144429124Y-88167234D01*
X144404964Y-88133828D01*
X144394729Y-88112889D01*
X144394662Y-88112104D01*
X144380146Y-88065940D01*
X144341888Y-88018648D01*
X144283429Y-87972915D01*
X144208308Y-87931428D01*
X144120068Y-87896875D01*
X144104826Y-87892126D01*
X144024630Y-87869528D01*
X143948347Y-87851778D01*
X143871063Y-87838363D01*
X143787866Y-87828766D01*
X143693841Y-87822473D01*
X143584077Y-87818970D01*
X143453659Y-87817740D01*
X143395444Y-87817767D01*
X143224526Y-87820144D01*
X143064408Y-87826820D01*
X142908255Y-87838472D01*
X142749232Y-87855781D01*
X142580505Y-87879424D01*
X142395237Y-87910082D01*
X142307266Y-87925868D01*
X142043677Y-87981736D01*
X141803932Y-88048855D01*
X141586381Y-88128041D01*
X141389373Y-88220108D01*
X141211256Y-88325870D01*
X141050381Y-88446142D01*
X140905096Y-88581738D01*
X140844759Y-88647523D01*
X140800546Y-88698729D01*
X140771575Y-88735319D01*
X140754637Y-88763133D01*
X140746522Y-88788010D01*
X140744021Y-88815791D01*
X140743871Y-88831093D01*
X140159190Y-88831093D01*
X140216307Y-88657538D01*
X140239220Y-88598926D01*
X140277515Y-88506441D01*
X140315114Y-88422400D01*
X140355236Y-88340512D01*
X140401101Y-88254481D01*
X140455929Y-88158015D01*
X140521349Y-88047475D01*
X140599303Y-87914731D01*
X140662619Y-87799975D01*
X140712960Y-87698989D01*
X140751988Y-87607552D01*
X140781366Y-87521443D01*
X140802755Y-87436443D01*
X140817819Y-87348332D01*
X140819131Y-87336834D01*
X153652237Y-87336834D01*
X153653712Y-87375124D01*
X153657661Y-87428689D01*
X153664165Y-87501073D01*
X153673304Y-87595817D01*
X153678010Y-87643774D01*
X153682652Y-87705596D01*
X153686699Y-87787255D01*
X153689880Y-87881045D01*
X153691926Y-87979256D01*
X153692568Y-88059290D01*
X153692870Y-88152920D01*
X153693759Y-88223087D01*
X153695614Y-88273874D01*
X153698811Y-88309366D01*
X153703730Y-88333648D01*
X153710746Y-88350802D01*
X153720239Y-88364915D01*
X153720908Y-88365770D01*
X153741781Y-88387047D01*
X153767380Y-88397735D01*
X153807538Y-88401219D01*
X153824293Y-88401367D01*
X153872877Y-88398938D01*
X153905149Y-88389292D01*
X153932102Y-88368885D01*
X153935526Y-88365519D01*
X153971373Y-88329672D01*
X153962038Y-87962618D01*
X153957163Y-87799489D01*
X153951379Y-87661963D01*
X153944472Y-87548104D01*
X153936230Y-87455975D01*
X153926439Y-87383640D01*
X153914886Y-87329163D01*
X153901359Y-87290607D01*
X153885643Y-87266035D01*
X153885346Y-87265716D01*
X153861431Y-87244964D01*
X153833479Y-87234337D01*
X153791497Y-87230725D01*
X153772374Y-87230542D01*
X153725379Y-87232024D01*
X153697096Y-87238460D01*
X153678758Y-87252835D01*
X153669495Y-87265569D01*
X153661867Y-87278187D01*
X153656395Y-87291908D01*
X153653158Y-87310276D01*
X153652237Y-87336834D01*
X140819131Y-87336834D01*
X140826406Y-87273051D01*
X140832405Y-87178644D01*
X140833862Y-87076802D01*
X140831203Y-86971978D01*
X140824855Y-86868631D01*
X140815242Y-86771216D01*
X140802793Y-86684188D01*
X140787931Y-86612005D01*
X140771085Y-86559123D01*
X140755615Y-86532773D01*
X140719359Y-86510572D01*
X140669354Y-86499404D01*
X140615851Y-86499506D01*
X140569098Y-86511115D01*
X140544278Y-86527898D01*
X140535208Y-86540314D01*
X140528984Y-86556734D01*
X140525675Y-86580631D01*
X140525347Y-86615475D01*
X140528069Y-86664737D01*
X140533907Y-86731889D01*
X140542929Y-86820402D01*
X140551505Y-86899957D01*
X140560836Y-87085372D01*
X140546415Y-87259952D01*
X140507543Y-87427942D01*
X140443520Y-87593589D01*
X140434035Y-87613676D01*
X140406171Y-87670966D01*
X140386955Y-87707095D01*
X140373176Y-87725767D01*
X140361623Y-87730687D01*
X140349087Y-87725558D01*
X140341510Y-87720428D01*
X140305226Y-87706132D01*
X140252814Y-87699190D01*
X140238358Y-87698872D01*
X140203210Y-87700357D01*
X140175959Y-87707126D01*
X140154651Y-87722649D01*
X140137333Y-87750398D01*
X140122050Y-87793842D01*
X140106847Y-87856454D01*
X140089770Y-87941704D01*
X140083763Y-87973413D01*
X140067308Y-88059194D01*
X140054508Y-88121006D01*
X140044411Y-88162043D01*
X140036067Y-88185496D01*
X140028526Y-88194559D01*
X140020836Y-88192425D01*
X140019040Y-88190779D01*
X140016236Y-88172153D01*
X140018729Y-88129312D01*
X140026039Y-88064980D01*
X140037683Y-87981878D01*
X140053182Y-87882729D01*
X140072054Y-87770255D01*
X140093818Y-87647179D01*
X140117995Y-87516221D01*
X140144103Y-87380106D01*
X140171660Y-87241554D01*
X140200187Y-87103289D01*
X140229203Y-86968032D01*
X140256770Y-86844859D01*
X140274953Y-86766864D01*
X140295942Y-86679167D01*
X140318754Y-86585640D01*
X140342407Y-86490158D01*
X140365916Y-86396593D01*
X140388298Y-86308819D01*
X140408571Y-86230708D01*
X140425750Y-86166134D01*
X140438853Y-86118970D01*
X140446897Y-86093088D01*
X140448529Y-86089497D01*
X140460860Y-86093753D01*
X140486510Y-86110148D01*
X140493960Y-86115536D01*
X140530120Y-86136034D01*
X140568901Y-86140791D01*
X140593485Y-86138450D01*
X140633598Y-86130543D01*
X140663572Y-86116419D01*
X140685778Y-86091973D01*
X140702590Y-86053101D01*
X140716378Y-85995697D01*
X140729515Y-85915657D01*
X140731947Y-85898857D01*
X140745448Y-85814865D01*
X140762406Y-85724486D01*
X140780441Y-85639791D01*
X140793972Y-85584501D01*
X140815636Y-85501222D01*
X140829669Y-85439587D01*
X140836275Y-85394828D01*
X140835655Y-85362178D01*
X140828012Y-85336868D01*
X140813548Y-85314130D01*
X140805841Y-85304619D01*
X140767776Y-85270932D01*
X140728873Y-85260803D01*
X140700366Y-85259095D01*
X140688774Y-85255082D01*
X140693403Y-85236538D01*
X140706156Y-85196941D01*
X140725336Y-85140972D01*
X140749241Y-85073316D01*
X140776174Y-84998656D01*
X140804436Y-84921675D01*
X140832325Y-84847057D01*
X140858145Y-84779485D01*
X140880195Y-84723642D01*
X140891507Y-84696307D01*
X140955217Y-84552465D01*
X141020503Y-84417535D01*
X141048220Y-84365755D01*
X141242883Y-84365755D01*
X141244252Y-84384751D01*
X141263543Y-84443532D01*
X141302132Y-84482983D01*
X141358453Y-84501766D01*
X141382748Y-84503210D01*
X141431099Y-84497506D01*
X141464434Y-84477883D01*
X141469993Y-84472218D01*
X141487218Y-84446428D01*
X141511902Y-84400171D01*
X141542011Y-84338200D01*
X141575514Y-84265263D01*
X141610377Y-84186112D01*
X141644569Y-84105496D01*
X141676056Y-84028167D01*
X141702806Y-83958874D01*
X141722788Y-83902368D01*
X141733967Y-83863399D01*
X141735628Y-83851382D01*
X141722064Y-83793966D01*
X141699968Y-83760449D01*
X141675384Y-83735197D01*
X141649839Y-83722564D01*
X141612426Y-83718345D01*
X141590090Y-83718069D01*
X141544075Y-83720056D01*
X141516699Y-83727943D01*
X141499217Y-83744618D01*
X141496266Y-83749062D01*
X141485060Y-83770575D01*
X141464838Y-83813170D01*
X141437522Y-83872642D01*
X141405035Y-83944790D01*
X141369299Y-84025410D01*
X141356670Y-84054187D01*
X141316502Y-84146691D01*
X141286527Y-84217928D01*
X141265463Y-84271676D01*
X141252024Y-84311712D01*
X141244925Y-84341813D01*
X141242883Y-84365755D01*
X141048220Y-84365755D01*
X141089045Y-84289486D01*
X141162519Y-84166292D01*
X141242606Y-84045922D01*
X141330982Y-83926349D01*
X141429326Y-83805543D01*
X141539316Y-83681476D01*
X141662631Y-83552119D01*
X141800949Y-83415444D01*
X141955948Y-83269422D01*
X142083824Y-83153319D01*
X142452170Y-83153319D01*
X142464526Y-83218475D01*
X142497711Y-83267099D01*
X142549075Y-83296495D01*
X142600649Y-83304349D01*
X142620733Y-83302234D01*
X142642399Y-83293604D01*
X142669407Y-83275693D01*
X142705521Y-83245735D01*
X142754502Y-83200962D01*
X142800377Y-83157495D01*
X142979611Y-82990995D01*
X143155824Y-82837370D01*
X143333255Y-82693557D01*
X143516143Y-82556491D01*
X143708726Y-82423108D01*
X143915243Y-82290344D01*
X144139934Y-82155136D01*
X144363819Y-82027361D01*
X144415636Y-81987677D01*
X144442099Y-81939200D01*
X144444807Y-81878831D01*
X144443877Y-81872299D01*
X144422939Y-81817928D01*
X144382010Y-81780454D01*
X144324948Y-81762987D01*
X144307066Y-81762104D01*
X144279883Y-81764636D01*
X144247952Y-81773472D01*
X144206980Y-81790475D01*
X144152675Y-81817506D01*
X144080744Y-81856428D01*
X144049564Y-81873789D01*
X143722285Y-82069483D01*
X143403580Y-82284834D01*
X143098446Y-82516127D01*
X142811880Y-82759646D01*
X142634546Y-82926041D01*
X142569710Y-82989854D01*
X142522207Y-83037983D01*
X142489398Y-83073715D01*
X142468643Y-83100342D01*
X142457302Y-83121151D01*
X142452737Y-83139433D01*
X142452170Y-83153319D01*
X142083824Y-83153319D01*
X142129306Y-83112024D01*
X142322702Y-82941221D01*
X142396800Y-82876714D01*
X142700166Y-82620498D01*
X142993205Y-82387795D01*
X143277998Y-82177524D01*
X143556630Y-81988601D01*
X143831181Y-81819945D01*
X144103734Y-81670474D01*
X144376372Y-81539105D01*
X144651176Y-81424757D01*
X144930231Y-81326347D01*
X145215617Y-81242793D01*
X145509418Y-81173013D01*
X145771529Y-81123001D01*
X146197117Y-81063999D01*
X146630169Y-81030815D01*
X147068762Y-81023368D01*
X147510971Y-81041578D01*
X147954875Y-81085363D01*
X148398548Y-81154641D01*
X148840069Y-81249331D01*
X148856995Y-81253482D01*
X149286565Y-81373424D01*
X149707075Y-81519111D01*
X150117297Y-81689971D01*
X150516006Y-81885429D01*
X150901975Y-82104912D01*
X151273979Y-82347846D01*
X151420934Y-82453178D01*
X151485014Y-82499337D01*
X151532423Y-82530636D01*
X151567835Y-82549636D01*
X151595922Y-82558896D01*
X151617845Y-82561019D01*
X151673307Y-82550231D01*
X151711485Y-82518119D01*
X151732060Y-82465063D01*
X151735845Y-82419716D01*
X151734249Y-82384806D01*
X151727380Y-82355345D01*
X151712115Y-82327568D01*
X151685332Y-82297710D01*
X151643909Y-82262005D01*
X151584723Y-82216687D01*
X151540506Y-82184134D01*
X151195391Y-81948139D01*
X150831267Y-81730339D01*
X150450677Y-81531771D01*
X150056166Y-81353471D01*
X149650277Y-81196477D01*
X149235554Y-81061825D01*
X148814540Y-80950551D01*
X148389778Y-80863692D01*
X148240140Y-80839165D01*
X147812420Y-80785467D01*
X147381250Y-80754544D01*
X146949898Y-80746277D01*
X146521629Y-80760548D01*
X146099711Y-80797239D01*
X145687412Y-80856230D01*
X145287998Y-80937405D01*
X145244874Y-80947711D01*
X144877460Y-81050304D01*
X144513653Y-81178972D01*
X144153033Y-81333935D01*
X143795182Y-81515417D01*
X143439680Y-81723639D01*
X143086109Y-81958824D01*
X142734048Y-82221193D01*
X142530033Y-82386199D01*
X142315498Y-82566590D01*
X142113867Y-82739879D01*
X141926423Y-82904882D01*
X141754447Y-83060414D01*
X141599219Y-83205290D01*
X141462022Y-83338324D01*
X141344136Y-83458331D01*
X141246842Y-83564127D01*
X141209204Y-83607874D01*
X141102981Y-83740687D01*
X141004534Y-83877167D01*
X140912624Y-84019924D01*
X140826012Y-84171566D01*
X140743459Y-84334703D01*
X140663725Y-84511945D01*
X140585573Y-84705900D01*
X140507761Y-84919179D01*
X140429053Y-85154389D01*
X140348208Y-85414141D01*
X140342535Y-85432983D01*
X140196348Y-85939955D01*
X140067850Y-86428873D01*
X139957206Y-86899056D01*
X139864577Y-87349824D01*
X139808047Y-87668539D01*
X139783242Y-87826886D01*
X139759389Y-87993982D01*
X139736933Y-88165633D01*
X139716319Y-88337643D01*
X139697990Y-88505818D01*
X139682390Y-88665962D01*
X139669964Y-88813880D01*
X139661157Y-88945379D01*
X139656411Y-89056261D01*
X139655694Y-89107306D01*
X139655694Y-89218779D01*
X139612966Y-89154273D01*
X139552003Y-89079048D01*
X139474204Y-89007629D01*
X139389814Y-88948880D01*
X139352657Y-88929051D01*
X139275158Y-88902230D01*
X139186111Y-88887264D01*
X139097315Y-88885343D01*
X139026094Y-88896093D01*
X138943772Y-88932224D01*
X138870764Y-88991965D01*
X138809552Y-89072238D01*
X138762618Y-89169965D01*
X138738235Y-89253067D01*
X138728969Y-89301254D01*
X138723121Y-89350589D01*
X138720395Y-89407523D01*
X138720498Y-89478508D01*
X138723138Y-89569997D01*
X138723442Y-89578199D01*
X138727621Y-89670022D01*
X138733330Y-89754373D01*
X138741279Y-89835933D01*
X138752176Y-89919384D01*
X138766729Y-90009407D01*
X138785648Y-90110682D01*
X138809641Y-90227892D01*
X138839417Y-90365717D01*
X138849726Y-90412429D01*
X138880854Y-90553942D01*
X138906250Y-90672265D01*
X138926482Y-90771026D01*
X138942115Y-90853856D01*
X138953716Y-90924382D01*
X138961851Y-90986234D01*
X138967088Y-91043042D01*
X138969992Y-91098433D01*
X138971130Y-91156038D01*
X138971206Y-91190683D01*
X138970446Y-91261087D01*
X138968123Y-91326285D01*
X138963677Y-91390593D01*
X138956554Y-91458326D01*
X138946195Y-91533802D01*
X138932042Y-91621336D01*
X138913540Y-91725244D01*
X138890130Y-91849843D01*
X138877841Y-91913839D01*
X138859693Y-92011109D01*
X138842912Y-92107036D01*
X138828450Y-92195695D01*
X138817263Y-92271159D01*
X138810303Y-92327503D01*
X138809101Y-92340846D01*
X138806158Y-92454258D01*
X138813433Y-92586640D01*
X138831110Y-92739724D01*
X138859373Y-92915243D01*
X138883740Y-93043340D01*
X138902319Y-93136335D01*
X138917318Y-93213221D01*
X138929209Y-93278639D01*
X138938459Y-93337228D01*
X138945539Y-93393629D01*
X138950918Y-93452480D01*
X138955067Y-93518422D01*
X138958454Y-93596094D01*
X138961550Y-93690137D01*
X138964825Y-93805190D01*
X138966314Y-93859031D01*
X138969953Y-93982872D01*
X138973519Y-94083590D01*
X138977370Y-94165609D01*
X138981863Y-94233350D01*
X138987356Y-94291238D01*
X138994205Y-94343694D01*
X139002768Y-94395141D01*
X139013402Y-94450003D01*
X139014465Y-94455217D01*
X139031859Y-94531897D01*
X139051630Y-94605584D01*
X139071413Y-94668110D01*
X139088217Y-94710043D01*
X139126693Y-94770824D01*
X139173095Y-94816747D01*
X139221995Y-94843192D01*
X139250060Y-94847787D01*
X139263851Y-94849227D01*
X139273254Y-94856765D01*
X139279579Y-94875227D01*
X139284133Y-94909440D01*
X139288224Y-94964229D01*
X139290201Y-94995862D01*
X139313793Y-95333392D01*
X139342076Y-95648412D01*
X139375672Y-95945658D01*
X139415206Y-96229869D01*
X139461301Y-96505782D01*
X139514580Y-96778132D01*
X139540711Y-96899193D01*
X139560110Y-96985525D01*
X139578283Y-97064366D01*
X139594136Y-97131136D01*
X139606579Y-97181259D01*
X139614520Y-97210155D01*
X139615648Y-97213458D01*
X139624658Y-97242839D01*
X139623352Y-97265761D01*
X139608260Y-97287059D01*
X139575913Y-97311564D01*
X139522840Y-97344110D01*
X139521121Y-97345126D01*
X139365460Y-97445696D01*
X139208327Y-97564843D01*
X139047258Y-97704634D01*
X138879789Y-97867132D01*
X138802806Y-97947028D01*
X138652005Y-98111276D01*
X138522609Y-98262822D01*
X138412905Y-98403951D01*
X138321182Y-98536950D01*
X138245730Y-98664106D01*
X138202529Y-98749063D01*
X138157969Y-98852665D01*
X138126540Y-98950857D01*
X138105598Y-99054074D01*
X138092501Y-99172756D01*
X138091370Y-99187973D01*
X138081959Y-99320078D01*
X138018257Y-99372360D01*
X137954111Y-99419637D01*
X137884960Y-99458930D01*
X137806695Y-99491576D01*
X137715209Y-99518914D01*
X137606392Y-99542284D01*
X137476136Y-99563024D01*
X137403958Y-99572542D01*
X137281617Y-99588773D01*
X137181593Y-99604489D01*
X137098708Y-99620926D01*
X137027788Y-99639322D01*
X136963655Y-99660916D01*
X136901133Y-99686945D01*
X136875223Y-99698967D01*
X136816763Y-99728976D01*
X136766921Y-99760737D01*
X136717805Y-99800131D01*
X136661525Y-99853035D01*
X136641058Y-99873431D01*
X136523558Y-100010157D01*
X136430387Y-100159669D01*
X136361264Y-100322504D01*
X136316646Y-100495208D01*
X136300036Y-100584657D01*
X135930334Y-100649486D01*
X135083563Y-100809204D01*
X134241308Y-100990405D01*
X133408287Y-101191978D01*
X132589214Y-101412809D01*
X132148644Y-101541393D01*
X132058622Y-101568266D01*
X131977314Y-101592288D01*
X131908449Y-101612380D01*
X131855755Y-101627458D01*
X131822962Y-101636441D01*
X131813717Y-101638529D01*
X131804212Y-101626467D01*
X131784720Y-101592137D01*
X131756613Y-101538370D01*
X131721264Y-101467996D01*
X131680046Y-101383845D01*
X131634333Y-101288747D01*
X131585497Y-101185532D01*
X131534912Y-101077031D01*
X131483951Y-100966073D01*
X131436148Y-100860314D01*
X131173510Y-100240686D01*
X130936446Y-99611493D01*
X130725077Y-98973705D01*
X130539522Y-98328292D01*
X130379899Y-97676223D01*
X130246330Y-97018467D01*
X130138932Y-96355995D01*
X130057826Y-95689775D01*
X130003130Y-95020777D01*
X129974965Y-94349970D01*
X129973450Y-93678325D01*
X129998705Y-93006809D01*
X130050848Y-92336394D01*
X130129999Y-91668048D01*
X130227587Y-91051248D01*
X130360227Y-90382543D01*
X130519005Y-89721996D01*
X130703580Y-89070266D01*
X130913606Y-88428012D01*
X131148741Y-87795893D01*
X131408642Y-87174567D01*
X131692964Y-86564695D01*
X132001364Y-85966935D01*
X132333500Y-85381946D01*
X132689027Y-84810387D01*
X133067602Y-84252917D01*
X133468882Y-83710196D01*
X133892523Y-83182882D01*
X134338182Y-82671635D01*
X134805515Y-82177114D01*
X134903218Y-82078609D01*
X135393731Y-81607374D01*
X135900607Y-81158056D01*
X136423145Y-80730947D01*
X136960644Y-80326335D01*
X137512404Y-79944513D01*
X138077724Y-79585768D01*
X138655902Y-79250393D01*
X139246237Y-78938677D01*
X139848029Y-78650911D01*
X140460577Y-78387384D01*
X141083179Y-78148387D01*
X141715135Y-77934211D01*
X142355744Y-77745144D01*
X143004304Y-77581479D01*
X143660116Y-77443504D01*
X144322477Y-77331510D01*
X144990688Y-77245788D01*
X145664046Y-77186627D01*
X146341852Y-77154318D01*
X146811496Y-77147832D01*
X147491960Y-77161455D01*
X148168460Y-77202130D01*
X148840296Y-77269566D01*
X149506766Y-77363474D01*
X150167169Y-77483563D01*
X150820805Y-77629543D01*
X151466973Y-77801124D01*
X152104971Y-77998016D01*
X152734098Y-78219927D01*
X153353655Y-78466569D01*
X153962939Y-78737651D01*
X154561250Y-79032882D01*
X155147887Y-79351973D01*
X155722148Y-79694632D01*
X156283334Y-80060571D01*
X156830743Y-80449498D01*
X157363673Y-80861124D01*
X157881425Y-81295158D01*
X158383297Y-81751309D01*
X158719774Y-82078609D01*
X159191010Y-82569122D01*
X159640327Y-83075998D01*
X160067437Y-83598536D01*
X160472048Y-84136035D01*
X160853871Y-84687795D01*
X161212615Y-85253115D01*
X161547990Y-85831293D01*
X161859706Y-86421628D01*
X162147472Y-87023420D01*
X162410999Y-87635968D01*
X162649996Y-88258570D01*
X162864173Y-88890526D01*
X163053239Y-89531135D01*
X163216905Y-90179695D01*
X163354880Y-90835507D01*
X163466873Y-91497868D01*
X163552596Y-92166079D01*
X163611757Y-92839437D01*
X163644066Y-93517243D01*
X163650551Y-93986887D01*
X163636889Y-94667887D01*
X163596056Y-95345543D01*
X163528278Y-96019131D01*
X163433785Y-96687925D01*
X163312804Y-97351201D01*
X163165563Y-98008234D01*
X162992290Y-98658297D01*
X162793214Y-99300667D01*
X162568561Y-99934618D01*
X162318561Y-100559426D01*
X162043440Y-101174364D01*
X161743427Y-101778709D01*
X161418751Y-102371734D01*
X161069638Y-102952715D01*
X160696317Y-103520928D01*
X160616755Y-103635857D01*
X160554280Y-103724297D01*
X160487540Y-103816983D01*
X160418556Y-103911270D01*
X160349350Y-104004514D01*
X160281941Y-104094071D01*
X160218352Y-104177299D01*
X160160603Y-104251551D01*
X160110715Y-104314186D01*
X160070711Y-104362558D01*
X160042610Y-104394025D01*
X160028434Y-104405941D01*
X160028036Y-104405976D01*
X160010175Y-104397936D01*
X159974577Y-104376310D01*
X159925619Y-104343945D01*
X159867672Y-104303690D01*
X159835195Y-104280406D01*
X159646842Y-104149225D01*
X159440828Y-104015206D01*
X159224053Y-103882404D01*
X159003415Y-103754874D01*
X158785814Y-103636671D01*
X158578149Y-103531851D01*
X158494123Y-103492133D01*
X158422914Y-103458405D01*
X158350011Y-103422471D01*
X158285102Y-103389177D01*
X158246603Y-103368352D01*
X158048563Y-103272496D01*
X157857154Y-103205964D01*
X157745968Y-103173864D01*
X157812924Y-103057057D01*
X157898036Y-102888842D01*
X157957302Y-102725321D01*
X157991430Y-102563860D01*
X158001131Y-102401824D01*
X157999920Y-102362910D01*
X157988057Y-102243910D01*
X157963749Y-102144199D01*
X157925039Y-102057592D01*
X157883516Y-101995062D01*
X157819663Y-101926622D01*
X157743055Y-101868346D01*
X157662897Y-101826764D01*
X157631290Y-101816098D01*
X157593701Y-101805279D01*
X157569200Y-101797503D01*
X157564728Y-101795652D01*
X157571363Y-101784661D01*
X157592818Y-101757166D01*
X157625720Y-101717348D01*
X157665539Y-101670723D01*
X157749878Y-101567987D01*
X157825704Y-101465141D01*
X157889515Y-101367377D01*
X157937812Y-101279884D01*
X157955204Y-101241229D01*
X157997030Y-101102334D01*
X158013746Y-100955835D01*
X158005811Y-100804381D01*
X157973686Y-100650621D01*
X157917829Y-100497204D01*
X157838699Y-100346782D01*
X157786411Y-100267670D01*
X157710002Y-100166818D01*
X157629635Y-100074878D01*
X157541807Y-99988978D01*
X157443015Y-99906248D01*
X157329757Y-99823816D01*
X157198530Y-99738813D01*
X157045833Y-99648368D01*
X156997134Y-99620767D01*
X156894815Y-99562449D01*
X156813243Y-99513778D01*
X156748560Y-99472010D01*
X156696910Y-99434400D01*
X156654435Y-99398203D01*
X156617278Y-99360676D01*
X156593711Y-99333750D01*
X156554827Y-99286058D01*
X156519825Y-99239272D01*
X156485719Y-99188639D01*
X156449526Y-99129407D01*
X156408260Y-99056827D01*
X156358937Y-98966144D01*
X156336961Y-98925011D01*
X156275066Y-98810560D01*
X156221643Y-98716523D01*
X156173540Y-98638335D01*
X156127608Y-98571432D01*
X156080695Y-98511250D01*
X156029652Y-98453225D01*
X155971326Y-98392794D01*
X155965634Y-98387103D01*
X155891136Y-98316986D01*
X155810039Y-98249379D01*
X155719013Y-98182035D01*
X155614733Y-98112709D01*
X155493869Y-98039155D01*
X155353096Y-97959128D01*
X155241431Y-97898325D01*
X155090438Y-97815765D01*
X154961943Y-97742056D01*
X154853064Y-97675334D01*
X154760921Y-97613734D01*
X154682631Y-97555389D01*
X154615314Y-97498435D01*
X154595675Y-97480251D01*
X154481393Y-97382371D01*
X154366050Y-97306088D01*
X154242757Y-97247920D01*
X154104624Y-97204388D01*
X154007381Y-97183006D01*
X153832939Y-97159608D01*
X153640104Y-97151638D01*
X153432983Y-97158628D01*
X153215684Y-97180112D01*
X152992315Y-97215624D01*
X152766985Y-97264698D01*
X152543802Y-97326867D01*
X152439371Y-97360972D01*
X152375614Y-97381927D01*
X152334014Y-97392881D01*
X152311180Y-97394131D01*
X152303718Y-97385979D01*
X152306616Y-97372683D01*
X152312437Y-97353210D01*
X152323990Y-97311020D01*
X152340220Y-97250093D01*
X152360073Y-97174412D01*
X152382494Y-97087959D01*
X152398713Y-97024879D01*
X152430669Y-96900416D01*
X152456652Y-96800077D01*
X152477446Y-96721281D01*
X152493831Y-96661444D01*
X152506590Y-96617984D01*
X152516507Y-96588318D01*
X152524362Y-96569863D01*
X152530938Y-96560036D01*
X152537017Y-96556255D01*
X152540775Y-96555813D01*
X152560948Y-96549958D01*
X152598230Y-96534454D01*
X152645304Y-96512392D01*
X152655513Y-96507334D01*
X152755807Y-96444231D01*
X152854831Y-96357573D01*
X152949694Y-96251307D01*
X153037503Y-96129380D01*
X153115369Y-95995737D01*
X153180398Y-95854326D01*
X153222782Y-95733113D01*
X153234824Y-95686106D01*
X153249287Y-95619324D01*
X153264675Y-95540262D01*
X153279487Y-95456415D01*
X153285517Y-95419425D01*
X153299028Y-95338526D01*
X153313139Y-95261616D01*
X153326541Y-95195332D01*
X153337929Y-95146308D01*
X153342515Y-95130163D01*
X153386184Y-95022091D01*
X153451029Y-94905133D01*
X153538248Y-94777210D01*
X153568471Y-94737015D01*
X153640235Y-94642459D01*
X153697228Y-94564922D01*
X153742240Y-94500195D01*
X153778061Y-94444070D01*
X153807481Y-94392340D01*
X153833292Y-94340798D01*
X153838244Y-94330190D01*
X153877047Y-94230901D01*
X153910622Y-94115601D01*
X153935951Y-93995739D01*
X153946867Y-93918015D01*
X153971142Y-93737006D01*
X154004584Y-93570320D01*
X154049393Y-93411017D01*
X154107766Y-93252161D01*
X154181901Y-93086815D01*
X154256791Y-92940032D01*
X154367105Y-92731037D01*
X154463969Y-92542448D01*
X154548635Y-92371371D01*
X154622352Y-92214913D01*
X154686372Y-92070180D01*
X154741943Y-91934280D01*
X154790317Y-91804318D01*
X154832744Y-91677401D01*
X154870473Y-91550635D01*
X154892678Y-91468459D01*
X154912817Y-91386667D01*
X154925842Y-91319446D01*
X154933277Y-91255211D01*
X154936647Y-91182374D01*
X154937357Y-91128698D01*
X154937333Y-91054706D01*
X154935580Y-91001403D01*
X154931138Y-90961939D01*
X154923049Y-90929467D01*
X154910354Y-90897136D01*
X154902565Y-90880131D01*
X154852637Y-90793667D01*
X154793433Y-90724617D01*
X154729103Y-90677658D01*
X154718122Y-90672283D01*
X154636224Y-90649452D01*
X154542117Y-90647970D01*
X154439666Y-90666813D01*
X154332736Y-90704957D01*
X154225191Y-90761375D01*
X154129148Y-90828445D01*
X154099325Y-90850507D01*
X154080665Y-90861372D01*
X154077494Y-90861037D01*
X154079099Y-90845461D01*
X154083579Y-90806760D01*
X154090432Y-90749148D01*
X154099156Y-90676841D01*
X154109247Y-90594053D01*
X154111698Y-90574060D01*
X154150694Y-90245657D01*
X154184091Y-89940336D01*
X154212136Y-89654256D01*
X154235073Y-89383577D01*
X154253146Y-89124459D01*
X154266602Y-88873061D01*
X154275684Y-88625543D01*
X154280637Y-88378065D01*
X154281707Y-88126787D01*
X154280101Y-87933037D01*
X154271439Y-87580331D01*
X154254754Y-87250499D01*
X154229501Y-86939897D01*
X154195132Y-86644884D01*
X154151102Y-86361819D01*
X154096864Y-86087057D01*
X154031872Y-85816959D01*
X153955578Y-85547880D01*
X153892543Y-85350336D01*
X153780318Y-85042303D01*
X153651436Y-84739832D01*
X153508120Y-84447147D01*
X153352591Y-84168475D01*
X153187070Y-83908042D01*
X153013781Y-83670074D01*
X153000050Y-83652641D01*
X152965309Y-83609747D01*
X152940462Y-83584158D01*
X152918522Y-83571407D01*
X152892502Y-83567028D01*
X152865385Y-83566551D01*
X152821219Y-83569243D01*
X152792080Y-83580716D01*
X152765697Y-83606063D01*
X152763263Y-83608931D01*
X152733389Y-83664070D01*
X152728937Y-83724949D01*
X152749997Y-83786482D01*
X152759853Y-83802237D01*
X152779836Y-83830699D01*
X152811871Y-83875795D01*
X152851890Y-83931819D01*
X152895824Y-83993065D01*
X152905740Y-84006853D01*
X153032879Y-84194664D01*
X153159101Y-84402178D01*
X153280254Y-84621738D01*
X153392189Y-84845689D01*
X153490757Y-85066375D01*
X153522877Y-85145338D01*
X153631370Y-85440744D01*
X153725550Y-85742704D01*
X153806202Y-86054743D01*
X153874111Y-86380388D01*
X153930063Y-86723164D01*
X153974842Y-87086596D01*
X153990330Y-87244317D01*
X153997203Y-87338325D01*
X154003008Y-87455469D01*
X154007727Y-87591356D01*
X154011342Y-87741592D01*
X154013834Y-87901785D01*
X154015185Y-88067542D01*
X154015377Y-88234469D01*
X154014392Y-88398174D01*
X154012210Y-88554264D01*
X154008815Y-88698345D01*
X154004187Y-88826025D01*
X153998308Y-88932910D01*
X153997421Y-88945455D01*
X153967995Y-89321231D01*
X153935170Y-89685771D01*
X153897970Y-90048599D01*
X153855422Y-90419238D01*
X153808110Y-90795285D01*
X153758981Y-91171254D01*
X153634996Y-91318713D01*
X153576278Y-91391267D01*
X153511278Y-91475951D01*
X153448407Y-91561594D01*
X153401682Y-91628640D01*
X153357838Y-91694622D01*
X153327484Y-91743185D01*
X153308192Y-91779397D01*
X153297533Y-91808323D01*
X153293080Y-91835030D01*
X153292353Y-91856784D01*
X153303162Y-91919010D01*
X153333638Y-91964928D01*
X153380856Y-91991322D01*
X153419393Y-91996486D01*
X153456145Y-91994880D01*
X153484904Y-91987450D01*
X153510709Y-91970280D01*
X153538597Y-91939451D01*
X153573606Y-91891049D01*
X153594446Y-91860383D01*
X153768072Y-91624508D01*
X153968975Y-91391786D01*
X154090500Y-91265738D01*
X154204622Y-91156087D01*
X154304799Y-91069485D01*
X154391707Y-91005630D01*
X154466017Y-90964221D01*
X154528404Y-90944957D01*
X154579541Y-90947536D01*
X154620103Y-90971657D01*
X154649969Y-91015326D01*
X154662893Y-91051362D01*
X154668160Y-91093728D01*
X154666736Y-91151769D01*
X154665671Y-91166908D01*
X154661159Y-91217037D01*
X154656356Y-91255363D01*
X154652205Y-91274575D01*
X154651708Y-91275345D01*
X154637737Y-91272099D01*
X154609551Y-91256715D01*
X154593727Y-91246462D01*
X154561162Y-91227361D01*
X154527788Y-91216647D01*
X154483811Y-91212081D01*
X154440045Y-91211345D01*
X154379137Y-91214345D01*
X154324528Y-91224846D01*
X154273277Y-91245096D01*
X154222440Y-91277345D01*
X154169077Y-91323842D01*
X154110244Y-91386838D01*
X154043000Y-91468581D01*
X153964402Y-91571321D01*
X153957990Y-91579905D01*
X153820043Y-91769717D01*
X153700797Y-91944867D01*
X153598304Y-92108921D01*
X153510611Y-92265448D01*
X153435768Y-92418017D01*
X153371824Y-92570194D01*
X153316828Y-92725549D01*
X153297159Y-92788514D01*
X153278671Y-92856855D01*
X153257167Y-92948475D01*
X153233504Y-93059375D01*
X153208538Y-93185559D01*
X153186063Y-93306676D01*
X153188424Y-93347642D01*
X153205031Y-93390329D01*
X153230464Y-93423756D01*
X153249606Y-93435459D01*
X153275966Y-93453132D01*
X153284786Y-93466655D01*
X153289082Y-93481439D01*
X153280482Y-93477324D01*
X153267756Y-93466131D01*
X153234367Y-93449862D01*
X153186857Y-93442309D01*
X153135746Y-93443394D01*
X153091552Y-93453040D01*
X153067543Y-93467620D01*
X153060567Y-93484690D01*
X153047120Y-93526945D01*
X153027612Y-93592892D01*
X153002452Y-93681041D01*
X152972052Y-93789900D01*
X152936821Y-93917978D01*
X152897171Y-94063785D01*
X152853511Y-94225828D01*
X152806252Y-94402616D01*
X152755805Y-94592659D01*
X152706480Y-94779632D01*
X152612266Y-95137444D01*
X152524545Y-95469762D01*
X152442954Y-95777777D01*
X152367131Y-96062677D01*
X152296715Y-96325652D01*
X152231343Y-96567890D01*
X152170653Y-96790582D01*
X152114283Y-96994917D01*
X152061872Y-97182084D01*
X152013056Y-97353272D01*
X151967475Y-97509670D01*
X151924765Y-97652468D01*
X151884566Y-97782855D01*
X151846514Y-97902021D01*
X151810249Y-98011154D01*
X151775407Y-98111445D01*
X151741627Y-98204081D01*
X151708546Y-98290253D01*
X151675803Y-98371150D01*
X151643036Y-98447961D01*
X151609883Y-98521876D01*
X151575981Y-98594083D01*
X151540968Y-98665773D01*
X151504483Y-98738133D01*
X151496957Y-98752831D01*
X151380816Y-98964824D01*
X151253811Y-99168377D01*
X151114326Y-99365128D01*
X150960745Y-99556714D01*
X150791453Y-99744771D01*
X150604835Y-99930939D01*
X150399274Y-100116853D01*
X150173156Y-100304151D01*
X149924865Y-100494470D01*
X149652785Y-100689449D01*
X149448864Y-100828542D01*
X149336637Y-100903591D01*
X149245133Y-100964443D01*
X149172264Y-101012344D01*
X149115942Y-101048543D01*
X149074079Y-101074286D01*
X149044586Y-101090822D01*
X149025376Y-101099399D01*
X149014359Y-101101264D01*
X149009449Y-101097666D01*
X149008513Y-101091662D01*
X148999495Y-101067097D01*
X148977229Y-101036064D01*
X148971500Y-101029805D01*
X148940655Y-101005368D01*
X148903895Y-100993478D01*
X148856742Y-100994265D01*
X148794720Y-101007859D01*
X148713351Y-101034390D01*
X148704550Y-101037553D01*
X148628699Y-101066563D01*
X148575579Y-101091907D01*
X148541314Y-101117057D01*
X148522027Y-101145480D01*
X148513841Y-101180646D01*
X148512635Y-101209295D01*
X148515095Y-101254024D01*
X148525598Y-101283138D01*
X148548828Y-101308365D01*
X148553958Y-101312756D01*
X148580241Y-101336301D01*
X148594458Y-101351818D01*
X148595281Y-101353746D01*
X148583496Y-101361372D01*
X148550465Y-101379327D01*
X148499673Y-101405807D01*
X148434606Y-101439004D01*
X148358751Y-101477115D01*
X148316350Y-101498202D01*
X148016534Y-101638956D01*
X147728941Y-101757616D01*
X147450624Y-101855079D01*
X147178635Y-101932245D01*
X146910025Y-101990014D01*
X146641847Y-102029284D01*
X146542895Y-102039239D01*
X146318194Y-102048406D01*
X146075058Y-102037720D01*
X145813405Y-102007164D01*
X145533151Y-101956723D01*
X145234215Y-101886379D01*
X144916512Y-101796117D01*
X144579961Y-101685919D01*
X144498841Y-101656746D01*
X145675108Y-101656746D01*
X145681664Y-101714137D01*
X145703742Y-101754819D01*
X145744957Y-101782359D01*
X145808925Y-101800324D01*
X145823201Y-101802826D01*
X145911080Y-101816156D01*
X145986392Y-101824522D01*
X146057789Y-101828201D01*
X146133923Y-101827471D01*
X146223448Y-101822610D01*
X146288069Y-101817756D01*
X146386684Y-101809570D01*
X146461717Y-101802382D01*
X146517082Y-101795450D01*
X146556689Y-101788035D01*
X146584451Y-101779393D01*
X146604280Y-101768783D01*
X146620088Y-101755464D01*
X146620879Y-101754678D01*
X146646549Y-101711654D01*
X146651363Y-101682295D01*
X146991603Y-101682295D01*
X146991614Y-101683117D01*
X146995021Y-101729338D01*
X147006336Y-101759517D01*
X147029820Y-101784915D01*
X147030262Y-101785296D01*
X147060392Y-101806142D01*
X147093292Y-101815480D01*
X147136028Y-101813760D01*
X147195664Y-101801434D01*
X147213176Y-101796974D01*
X147266072Y-101787054D01*
X147333319Y-101779737D01*
X147401747Y-101776389D01*
X147412352Y-101776312D01*
X147470423Y-101775865D01*
X147508016Y-101773239D01*
X147532202Y-101766507D01*
X147550050Y-101753743D01*
X147567864Y-101733932D01*
X147596786Y-101683051D01*
X147604295Y-101630212D01*
X147592533Y-101581292D01*
X147563643Y-101542166D01*
X147519767Y-101518709D01*
X147487881Y-101514599D01*
X147453682Y-101511440D01*
X147433377Y-101503711D01*
X147432365Y-101502476D01*
X147439107Y-101488794D01*
X147466174Y-101464989D01*
X147509478Y-101433698D01*
X147564929Y-101397563D01*
X147628439Y-101359222D01*
X147695920Y-101321314D01*
X147763282Y-101286481D01*
X147777951Y-101279362D01*
X147839788Y-101249096D01*
X147881322Y-101226356D01*
X147907436Y-101207497D01*
X147923009Y-101188871D01*
X147932922Y-101166835D01*
X147934389Y-101162507D01*
X147944046Y-101101072D01*
X147934489Y-101043021D01*
X147911150Y-101002406D01*
X147873095Y-100980397D01*
X147816814Y-100976387D01*
X147744714Y-100990122D01*
X147659200Y-101021345D01*
X147636686Y-101031535D01*
X147551940Y-101074759D01*
X147461635Y-101126756D01*
X147373450Y-101182656D01*
X147295062Y-101237587D01*
X147234147Y-101286676D01*
X147232986Y-101287722D01*
X147199571Y-101320607D01*
X147182717Y-101347977D01*
X147176953Y-101380856D01*
X147176518Y-101401478D01*
X147181098Y-101447301D01*
X147192896Y-101481242D01*
X147196877Y-101486715D01*
X147205694Y-101499710D01*
X147200319Y-101508853D01*
X147176215Y-101517113D01*
X147137242Y-101525734D01*
X147068329Y-101546553D01*
X147023098Y-101577410D01*
X146998530Y-101621569D01*
X146991603Y-101682295D01*
X146651363Y-101682295D01*
X146655369Y-101657860D01*
X146647438Y-101603831D01*
X146622853Y-101560104D01*
X146619034Y-101556279D01*
X146603495Y-101542765D01*
X146587539Y-101534170D01*
X146565552Y-101529929D01*
X146531919Y-101529475D01*
X146481025Y-101532242D01*
X146422749Y-101536497D01*
X146266291Y-101545131D01*
X146112387Y-101547712D01*
X145969469Y-101544245D01*
X145858933Y-101536139D01*
X145803193Y-101530805D01*
X145767476Y-101529745D01*
X145744429Y-101534155D01*
X145726698Y-101545234D01*
X145710858Y-101560243D01*
X145685655Y-101593991D01*
X145675841Y-101635091D01*
X145675108Y-101656746D01*
X144498841Y-101656746D01*
X144351535Y-101603771D01*
X144147276Y-101523805D01*
G37*
G36*
X139236682Y-89239444D02*
G01*
X139298393Y-89253129D01*
X139347578Y-89274478D01*
X139362516Y-89285721D01*
X139406768Y-89341429D01*
X139448624Y-89421924D01*
X139487153Y-89524482D01*
X139521427Y-89646381D01*
X139550515Y-89784898D01*
X139566138Y-89882115D01*
X139575576Y-89945853D01*
X139584382Y-90001095D01*
X139591447Y-90041135D01*
X139595110Y-90057739D01*
X139594069Y-90076417D01*
X139571579Y-90081792D01*
X139570532Y-90081794D01*
X139553545Y-90078208D01*
X139538483Y-90064301D01*
X139522107Y-90035259D01*
X139501176Y-89986270D01*
X139493919Y-89967967D01*
X139431644Y-89827258D01*
X139365717Y-89712640D01*
X139296395Y-89624377D01*
X139223934Y-89562731D01*
X139148593Y-89527963D01*
X139070628Y-89520338D01*
X139056505Y-89521845D01*
X138994522Y-89530341D01*
X138994522Y-89448854D01*
X138999762Y-89369988D01*
X139017056Y-89312899D01*
X139048764Y-89273579D01*
X139097249Y-89248018D01*
X139116211Y-89242219D01*
X139172577Y-89235211D01*
X139236682Y-89239444D01*
G37*
G36*
X150199287Y-91148664D02*
G01*
X150204604Y-91169744D01*
X150195173Y-91201682D01*
X150186684Y-91216681D01*
X150174775Y-91213533D01*
X150154692Y-91193773D01*
X150134364Y-91165375D01*
X150138830Y-91148708D01*
X150168561Y-91142562D01*
X150174746Y-91142473D01*
X150199287Y-91148664D01*
G37*
G36*
X141927412Y-105949280D02*
G01*
X142006603Y-105958655D01*
X142090274Y-105975684D01*
X142173130Y-105999781D01*
X142237603Y-106024782D01*
X142310349Y-106056953D01*
X142326006Y-106185966D01*
X142379574Y-106741141D01*
X142405803Y-107297629D01*
X142404740Y-107854286D01*
X142376429Y-108409967D01*
X142320918Y-108963530D01*
X142238251Y-109513830D01*
X142181432Y-109813677D01*
X142160100Y-109917878D01*
X142143215Y-109998144D01*
X142129871Y-110057563D01*
X142119165Y-110099221D01*
X142110191Y-110126209D01*
X142102045Y-110141614D01*
X142093822Y-110148523D01*
X142084616Y-110150026D01*
X142082901Y-110149967D01*
X142062507Y-110145593D01*
X142020651Y-110134204D01*
X141962106Y-110117181D01*
X141891649Y-110095908D01*
X141828378Y-110076276D01*
X141753142Y-110052412D01*
X141687407Y-110031098D01*
X141635536Y-110013788D01*
X141601897Y-110001935D01*
X141590892Y-109997230D01*
X141591475Y-109982244D01*
X141597334Y-109945109D01*
X141607602Y-109890532D01*
X141621414Y-109823218D01*
X141631145Y-109778215D01*
X141710556Y-109387331D01*
X141773088Y-109010545D01*
X141819617Y-108640891D01*
X141851018Y-108271403D01*
X141868167Y-107895116D01*
X141868246Y-107892147D01*
X141870986Y-107699817D01*
X141868615Y-107508206D01*
X141860845Y-107311720D01*
X141847389Y-107104765D01*
X141827958Y-106881747D01*
X141804753Y-106659338D01*
X141787545Y-106501404D01*
X141773926Y-106368701D01*
X141763790Y-106259160D01*
X141757032Y-106170712D01*
X141753547Y-106101288D01*
X141753228Y-106048819D01*
X141755970Y-106011236D01*
X141761667Y-105986471D01*
X141769695Y-105972955D01*
X141803661Y-105955844D01*
X141857999Y-105948148D01*
X141927412Y-105949280D01*
G37*
G36*
X153278579Y-93738948D02*
G01*
X153271691Y-93745835D01*
X153264804Y-93738948D01*
X153271691Y-93732061D01*
X153278579Y-93738948D01*
G37*
G36*
X136831941Y-101714327D02*
G01*
X136825054Y-101721215D01*
X136818166Y-101714327D01*
X136825054Y-101707440D01*
X136831941Y-101714327D01*
G37*
G36*
X150620119Y-89248492D02*
G01*
X150613231Y-89255380D01*
X150606344Y-89248492D01*
X150613231Y-89241605D01*
X150620119Y-89248492D01*
G37*
G36*
X151664174Y-99878427D02*
G01*
X151693101Y-99895209D01*
X151745532Y-99926229D01*
X151807394Y-99958636D01*
X151882341Y-99994120D01*
X151974031Y-100034374D01*
X152086118Y-100081090D01*
X152155965Y-100109419D01*
X152312058Y-100174162D01*
X152444519Y-100233547D01*
X152556337Y-100289304D01*
X152650501Y-100343163D01*
X152729999Y-100396857D01*
X152797820Y-100452115D01*
X152856954Y-100510668D01*
X152865837Y-100520490D01*
X152938610Y-100618392D01*
X152997954Y-100730883D01*
X153041124Y-100850615D01*
X153065377Y-100970240D01*
X153069140Y-101064869D01*
X153065075Y-101149577D01*
X153056331Y-101083214D01*
X153036284Y-101001208D01*
X152996787Y-100916657D01*
X152936711Y-100828195D01*
X152854929Y-100734459D01*
X152750313Y-100634081D01*
X152621736Y-100525697D01*
X152548535Y-100468403D01*
X152406541Y-100362014D01*
X152280267Y-100272783D01*
X152166049Y-100198285D01*
X152060228Y-100136101D01*
X151990672Y-100099347D01*
X151917832Y-100064657D01*
X151843017Y-100032503D01*
X151772124Y-100005096D01*
X151711052Y-99984649D01*
X151665697Y-99973373D01*
X151650786Y-99971865D01*
X151632857Y-99964985D01*
X151626057Y-99940023D01*
X151625650Y-99925951D01*
X151628394Y-99887422D01*
X151639699Y-99872281D01*
X151664174Y-99878427D01*
G37*
G36*
X136845715Y-101741876D02*
G01*
X136838828Y-101748763D01*
X136831941Y-101741876D01*
X136838828Y-101734989D01*
X136845715Y-101741876D01*
G37*
G36*
X150739497Y-89273745D02*
G01*
X150737606Y-89281934D01*
X150730314Y-89282928D01*
X150718976Y-89277888D01*
X150721131Y-89273745D01*
X150737478Y-89272097D01*
X150739497Y-89273745D01*
G37*
G36*
X151630524Y-104060404D02*
G01*
X151618954Y-104089729D01*
X151605059Y-104121404D01*
X151582922Y-104175568D01*
X151563553Y-104231997D01*
X151556569Y-104256790D01*
X151545245Y-104293766D01*
X151529072Y-104318319D01*
X151500538Y-104338747D01*
X151466468Y-104356375D01*
X151392014Y-104392890D01*
X151474961Y-104281020D01*
X151515120Y-104225563D01*
X151553141Y-104170816D01*
X151583161Y-104125311D01*
X151593088Y-104109119D01*
X151614008Y-104074897D01*
X151628959Y-104053160D01*
X151633084Y-104049089D01*
X151630524Y-104060404D01*
G37*
G36*
X148508619Y-107005155D02*
G01*
X148446776Y-107136892D01*
X148392411Y-107271453D01*
X148344927Y-107411716D01*
X148303728Y-107560554D01*
X148268218Y-107720845D01*
X148237799Y-107895463D01*
X148211877Y-108087283D01*
X148189853Y-108299182D01*
X148171133Y-108534034D01*
X148161832Y-108677288D01*
X148147000Y-108906327D01*
X148131290Y-109113692D01*
X148114063Y-109305259D01*
X148094681Y-109486902D01*
X148072503Y-109664497D01*
X148046892Y-109843918D01*
X148017209Y-110031040D01*
X148009805Y-110075390D01*
X147992210Y-110177057D01*
X147973216Y-110281851D01*
X147953594Y-110385971D01*
X147934115Y-110485617D01*
X147915551Y-110576989D01*
X147898673Y-110656287D01*
X147884254Y-110719710D01*
X147873063Y-110763457D01*
X147866057Y-110783446D01*
X147849646Y-110789737D01*
X147812002Y-110795568D01*
X147758545Y-110800735D01*
X147694696Y-110805033D01*
X147625876Y-110808255D01*
X147557504Y-110810199D01*
X147495001Y-110810657D01*
X147443788Y-110809427D01*
X147409285Y-110806301D01*
X147396908Y-110801191D01*
X147399653Y-110782721D01*
X147407187Y-110742661D01*
X147418460Y-110686345D01*
X147432422Y-110619106D01*
X147437349Y-110595855D01*
X147476790Y-110397575D01*
X147515942Y-110175235D01*
X147554311Y-109932324D01*
X147591401Y-109672331D01*
X147626717Y-109398745D01*
X147659765Y-109115054D01*
X147690048Y-108824746D01*
X147693014Y-108794371D01*
X147717155Y-108559388D01*
X147741785Y-108349618D01*
X147767480Y-108162725D01*
X147794817Y-107996375D01*
X147824374Y-107848232D01*
X147856728Y-107715959D01*
X147892455Y-107597222D01*
X147932133Y-107489685D01*
X147976339Y-107391013D01*
X148025650Y-107298869D01*
X148080643Y-107210919D01*
X148086392Y-107202391D01*
X148153632Y-107118336D01*
X148234533Y-107041312D01*
X148323195Y-106975549D01*
X148413718Y-106925280D01*
X148500201Y-106894735D01*
X148521174Y-106890567D01*
X148570005Y-106882643D01*
X148508619Y-107005155D01*
G37*
G36*
X136790618Y-101631681D02*
G01*
X136783730Y-101638568D01*
X136776843Y-101631681D01*
X136783730Y-101624794D01*
X136790618Y-101631681D01*
G37*
G36*
X136763069Y-101562809D02*
G01*
X136756182Y-101569696D01*
X136749294Y-101562809D01*
X136756182Y-101555922D01*
X136763069Y-101562809D01*
G37*
G36*
X152886808Y-97547550D02*
G01*
X152935494Y-97559661D01*
X152996678Y-97580966D01*
X153072779Y-97612290D01*
X153166222Y-97654461D01*
X153279426Y-97708304D01*
X153389885Y-97762331D01*
X153631428Y-97885824D01*
X153850849Y-98007629D01*
X154053122Y-98131025D01*
X154243220Y-98259293D01*
X154426119Y-98395713D01*
X154606793Y-98543566D01*
X154706941Y-98630879D01*
X154824394Y-98735378D01*
X154892874Y-98728798D01*
X154955919Y-98714256D01*
X154997961Y-98683260D01*
X155021762Y-98633291D01*
X155026918Y-98606516D01*
X155034815Y-98548482D01*
X155214636Y-98809062D01*
X155290317Y-98919149D01*
X155352429Y-99010653D01*
X155403379Y-99087432D01*
X155445575Y-99153345D01*
X155481425Y-99212252D01*
X155513337Y-99268011D01*
X155543718Y-99324481D01*
X155574977Y-99385521D01*
X155577674Y-99390890D01*
X155656068Y-99557474D01*
X155716458Y-99710555D01*
X155760511Y-99855915D01*
X155789894Y-99999341D01*
X155806273Y-100146615D01*
X155808949Y-100193490D01*
X155804641Y-100393841D01*
X155774116Y-100599247D01*
X155717940Y-100808321D01*
X155636682Y-101019676D01*
X155530908Y-101231922D01*
X155401186Y-101443673D01*
X155248082Y-101653541D01*
X155176029Y-101741876D01*
X155116058Y-101812250D01*
X155072622Y-101861317D01*
X155045809Y-101889023D01*
X155035703Y-101895309D01*
X155042391Y-101880120D01*
X155065960Y-101843398D01*
X155103109Y-101789864D01*
X155249505Y-101567617D01*
X155371784Y-101348893D01*
X155469339Y-101134970D01*
X155541561Y-100927127D01*
X155573230Y-100802432D01*
X155588233Y-100706340D01*
X155596416Y-100594376D01*
X155597850Y-100475603D01*
X155592604Y-100359082D01*
X155580752Y-100253875D01*
X155568440Y-100191321D01*
X155521679Y-100036727D01*
X155456359Y-99872384D01*
X155375729Y-99705374D01*
X155283039Y-99542781D01*
X155240283Y-99475987D01*
X155116933Y-99305814D01*
X154969606Y-99130070D01*
X154800735Y-98951023D01*
X154612754Y-98770942D01*
X154408095Y-98592096D01*
X154189192Y-98416754D01*
X153958477Y-98247185D01*
X153822667Y-98154017D01*
X153682358Y-98062855D01*
X153530670Y-97969005D01*
X153373814Y-97876042D01*
X153218000Y-97787541D01*
X153069440Y-97707078D01*
X152934343Y-97638228D01*
X152887937Y-97615905D01*
X152841057Y-97592502D01*
X152807248Y-97573101D01*
X152791441Y-97560656D01*
X152791517Y-97558111D01*
X152817241Y-97547601D01*
X152848198Y-97543805D01*
X152886808Y-97547550D01*
G37*
G36*
X151427540Y-99424803D02*
G01*
X151426353Y-99438994D01*
X151420769Y-99476946D01*
X151411344Y-99535323D01*
X151398635Y-99610787D01*
X151383198Y-99699998D01*
X151365589Y-99799621D01*
X151358025Y-99841844D01*
X151306899Y-100133617D01*
X151263067Y-100399924D01*
X151226385Y-100641824D01*
X151196708Y-100860377D01*
X151173892Y-101056644D01*
X151157794Y-101231683D01*
X151148392Y-101383742D01*
X151145207Y-101460233D01*
X151143861Y-101514081D01*
X151144849Y-101550162D01*
X151148663Y-101573347D01*
X151155797Y-101588512D01*
X151166745Y-101600529D01*
X151170716Y-101604132D01*
X151214546Y-101626893D01*
X151269310Y-101633431D01*
X151323960Y-101624127D01*
X151367449Y-101599366D01*
X151369611Y-101597245D01*
X151383347Y-101581190D01*
X151393509Y-101561984D01*
X151401193Y-101534568D01*
X151407501Y-101493882D01*
X151413530Y-101434867D01*
X151418979Y-101369967D01*
X151426090Y-101290264D01*
X151435885Y-101192515D01*
X151447376Y-101085975D01*
X151459573Y-100979901D01*
X151468089Y-100910196D01*
X151478462Y-100827178D01*
X151487535Y-100753443D01*
X151494778Y-100693384D01*
X151499662Y-100651390D01*
X151501660Y-100631853D01*
X151501680Y-100631265D01*
X151509322Y-100619067D01*
X151529758Y-100625393D01*
X151559257Y-100646724D01*
X151594085Y-100679544D01*
X151630511Y-100720334D01*
X151664802Y-100765578D01*
X151693226Y-100811758D01*
X151693250Y-100811802D01*
X151743543Y-100935258D01*
X151770540Y-101072825D01*
X151774143Y-101223751D01*
X151762271Y-101339780D01*
X151744296Y-101444898D01*
X151722399Y-101542527D01*
X151694862Y-101636927D01*
X151659969Y-101732360D01*
X151616004Y-101833087D01*
X151561250Y-101943368D01*
X151493990Y-102067465D01*
X151412507Y-102209638D01*
X151410351Y-102213328D01*
X151157691Y-102624575D01*
X150892925Y-103014991D01*
X150616683Y-103383946D01*
X150329594Y-103730808D01*
X150032288Y-104054944D01*
X149725394Y-104355722D01*
X149409541Y-104632510D01*
X149085359Y-104884677D01*
X148753477Y-105111590D01*
X148414525Y-105312616D01*
X148224934Y-105412109D01*
X148000119Y-105515220D01*
X147775521Y-105598256D01*
X147542532Y-105664048D01*
X147314262Y-105711622D01*
X147250771Y-105722476D01*
X147193620Y-105730967D01*
X147137848Y-105737423D01*
X147078492Y-105742177D01*
X147010591Y-105745557D01*
X146929182Y-105747893D01*
X146829303Y-105749516D01*
X146728850Y-105750557D01*
X146625489Y-105751277D01*
X146528567Y-105751580D01*
X146442262Y-105751481D01*
X146370755Y-105750998D01*
X146318226Y-105750144D01*
X146288855Y-105748938D01*
X146288069Y-105748868D01*
X146255260Y-105746178D01*
X146201221Y-105742138D01*
X146132209Y-105737202D01*
X146054482Y-105731821D01*
X146012581Y-105728989D01*
X145688686Y-105702551D01*
X145345331Y-105665638D01*
X144988176Y-105619081D01*
X144622882Y-105563713D01*
X144255111Y-105500366D01*
X143890521Y-105429874D01*
X143686753Y-105386914D01*
X143581955Y-105363064D01*
X143503268Y-105342719D01*
X143449522Y-105325537D01*
X143419549Y-105311176D01*
X143415309Y-105307667D01*
X143384054Y-105268633D01*
X143345917Y-105209280D01*
X143303827Y-105135034D01*
X143260710Y-105051321D01*
X143219493Y-104963565D01*
X143183329Y-104877759D01*
X143117766Y-104696335D01*
X143071081Y-104530981D01*
X143042977Y-104377991D01*
X143033152Y-104233659D01*
X143041308Y-104094279D01*
X143067146Y-103956143D01*
X143099917Y-103845299D01*
X143173173Y-103670115D01*
X143268329Y-103508670D01*
X143383377Y-103363308D01*
X143516313Y-103236373D01*
X143665133Y-103130208D01*
X143753579Y-103081244D01*
X143838148Y-103042269D01*
X143924817Y-103009791D01*
X144017757Y-102982928D01*
X144121139Y-102960803D01*
X144239133Y-102942535D01*
X144375911Y-102927246D01*
X144535644Y-102914056D01*
X144552311Y-102912870D01*
X144666608Y-102904153D01*
X144759453Y-102895317D01*
X144836932Y-102885535D01*
X144905132Y-102873983D01*
X144970139Y-102859834D01*
X145002339Y-102851789D01*
X145147702Y-102810467D01*
X145316280Y-102755771D01*
X145507354Y-102687965D01*
X145720204Y-102607314D01*
X145954110Y-102514083D01*
X146208352Y-102408537D01*
X146217091Y-102404843D01*
X146300490Y-102369738D01*
X146364643Y-102343712D01*
X146415659Y-102325072D01*
X146459648Y-102312124D01*
X146502719Y-102303176D01*
X146550983Y-102296535D01*
X146610549Y-102290509D01*
X146639316Y-102287854D01*
X146898802Y-102254888D01*
X147164212Y-102202805D01*
X147436668Y-102131157D01*
X147717293Y-102039497D01*
X148007210Y-101927379D01*
X148307541Y-101794354D01*
X148619408Y-101639977D01*
X148943935Y-101463799D01*
X149282243Y-101265374D01*
X149421746Y-101179632D01*
X149773597Y-100950832D01*
X150101919Y-100717090D01*
X150406047Y-100478982D01*
X150685314Y-100237085D01*
X150939056Y-99991973D01*
X151166606Y-99744223D01*
X151363327Y-99499727D01*
X151392858Y-99461656D01*
X151415593Y-99434918D01*
X151427110Y-99424669D01*
X151427540Y-99424803D01*
G37*
G36*
X136749294Y-101535260D02*
G01*
X136742407Y-101542147D01*
X136735520Y-101535260D01*
X136742407Y-101528373D01*
X136749294Y-101535260D01*
G37*
G36*
X154459635Y-91570943D02*
G01*
X154492484Y-91599338D01*
X154525012Y-91610796D01*
X154525645Y-91610803D01*
X154558114Y-91610803D01*
X154533148Y-91683118D01*
X154481631Y-91822622D01*
X154419565Y-91972684D01*
X154345851Y-92135645D01*
X154259387Y-92313844D01*
X154159073Y-92509622D01*
X154043810Y-92725320D01*
X154038667Y-92734774D01*
X153963133Y-92875045D01*
X153900417Y-92995774D01*
X153849102Y-93101007D01*
X153807771Y-93194790D01*
X153775008Y-93281167D01*
X153749395Y-93364184D01*
X153729517Y-93447887D01*
X153713956Y-93536321D01*
X153701297Y-93633530D01*
X153691845Y-93725173D01*
X153677213Y-93856531D01*
X153659756Y-93966121D01*
X153638079Y-94059688D01*
X153610790Y-94142976D01*
X153576494Y-94221729D01*
X153566492Y-94241714D01*
X153537774Y-94296936D01*
X153518805Y-94329424D01*
X153506987Y-94341070D01*
X153499718Y-94333765D01*
X153494400Y-94309401D01*
X153492294Y-94295694D01*
X153490933Y-94252362D01*
X153496072Y-94183754D01*
X153507759Y-94089379D01*
X153525537Y-93971911D01*
X153550193Y-93800122D01*
X153564785Y-93652847D01*
X153569276Y-93528940D01*
X153563631Y-93427256D01*
X153547812Y-93346651D01*
X153521783Y-93285978D01*
X153502754Y-93260303D01*
X153492464Y-93246531D01*
X153487564Y-93229756D01*
X153488111Y-93203807D01*
X153494160Y-93162514D01*
X153504136Y-93108280D01*
X153539283Y-92959660D01*
X153589675Y-92798871D01*
X153652312Y-92634385D01*
X153724193Y-92474672D01*
X153739361Y-92444154D01*
X153813834Y-92305238D01*
X153896172Y-92166425D01*
X153983400Y-92031907D01*
X154072543Y-91905875D01*
X154160625Y-91792521D01*
X154244671Y-91696037D01*
X154321706Y-91620616D01*
X154327369Y-91615710D01*
X154426096Y-91531083D01*
X154459635Y-91570943D01*
G37*
G36*
X139201432Y-90054295D02*
G01*
X139275890Y-90220257D01*
X139330644Y-90376802D01*
X139367539Y-90531679D01*
X139388418Y-90692635D01*
X139395125Y-90867421D01*
X139395125Y-90868182D01*
X139394897Y-90928115D01*
X139393825Y-90982831D01*
X139391522Y-91036105D01*
X139387600Y-91091706D01*
X139381672Y-91153407D01*
X139373349Y-91224980D01*
X139362243Y-91310196D01*
X139347968Y-91412827D01*
X139330134Y-91536645D01*
X139317515Y-91623013D01*
X139301829Y-91732060D01*
X139290019Y-91821075D01*
X139281561Y-91897221D01*
X139275926Y-91967660D01*
X139272587Y-92039555D01*
X139271019Y-92120069D01*
X139270693Y-92216363D01*
X139270784Y-92258199D01*
X139270311Y-92382903D01*
X139267705Y-92483959D01*
X139262442Y-92565222D01*
X139253998Y-92630547D01*
X139241849Y-92683788D01*
X139225473Y-92728800D01*
X139204345Y-92769437D01*
X139200456Y-92775843D01*
X139171302Y-92817045D01*
X139146714Y-92840601D01*
X139130194Y-92843372D01*
X139127963Y-92840837D01*
X139123213Y-92823494D01*
X139115514Y-92784916D01*
X139105999Y-92731114D01*
X139097393Y-92678319D01*
X139083326Y-92559447D01*
X139080000Y-92443645D01*
X139087870Y-92324027D01*
X139107391Y-92193711D01*
X139139019Y-92045810D01*
X139139284Y-92044696D01*
X139168141Y-91923573D01*
X139191354Y-91824946D01*
X139209538Y-91744484D01*
X139223305Y-91677855D01*
X139233268Y-91620726D01*
X139240041Y-91568765D01*
X139244236Y-91517641D01*
X139246467Y-91463021D01*
X139247347Y-91400572D01*
X139247488Y-91325963D01*
X139247474Y-91280217D01*
X139246143Y-91153924D01*
X139241600Y-91041299D01*
X139232995Y-90935458D01*
X139219482Y-90829518D01*
X139200212Y-90716595D01*
X139174338Y-90589807D01*
X139147980Y-90472324D01*
X139135316Y-90408289D01*
X139130910Y-90363159D01*
X139134514Y-90341467D01*
X139138447Y-90321490D01*
X139140710Y-90279112D01*
X139141207Y-90219435D01*
X139139841Y-90147562D01*
X139138742Y-90116280D01*
X139130536Y-89909664D01*
X139201432Y-90054295D01*
G37*
G36*
X136717154Y-101450318D02*
G01*
X136718803Y-101466665D01*
X136717154Y-101468684D01*
X136708965Y-101466793D01*
X136707971Y-101459501D01*
X136713011Y-101448163D01*
X136717154Y-101450318D01*
G37*
G36*
X136776843Y-101590358D02*
G01*
X136769956Y-101597245D01*
X136763069Y-101590358D01*
X136769956Y-101583471D01*
X136776843Y-101590358D01*
G37*
G36*
X158314388Y-103724048D02*
G01*
X158348425Y-103738863D01*
X158399318Y-103762956D01*
X158463361Y-103794441D01*
X158536851Y-103831433D01*
X158616083Y-103872048D01*
X158697354Y-103914400D01*
X158776960Y-103956604D01*
X158851196Y-103996775D01*
X158916359Y-104033028D01*
X158926084Y-104038561D01*
X159011348Y-104088169D01*
X159107758Y-104145720D01*
X159203740Y-104204227D01*
X159287721Y-104256708D01*
X159291106Y-104258863D01*
X159470173Y-104372966D01*
X159488280Y-104476185D01*
X159498455Y-104570950D01*
X159499983Y-104682117D01*
X159493232Y-104800054D01*
X159478570Y-104915129D01*
X159469695Y-104962432D01*
X159459950Y-105015611D01*
X159454408Y-105059707D01*
X159454008Y-105086742D01*
X159454714Y-105089634D01*
X159448106Y-105106566D01*
X159423609Y-105141082D01*
X159382886Y-105191362D01*
X159327602Y-105255581D01*
X159259417Y-105331917D01*
X159179996Y-105418547D01*
X159091001Y-105513648D01*
X158994096Y-105615398D01*
X158890942Y-105721973D01*
X158783203Y-105831550D01*
X158719867Y-105895165D01*
X158228200Y-106367331D01*
X157719474Y-106818019D01*
X157194324Y-107246863D01*
X156653384Y-107653495D01*
X156097288Y-108037548D01*
X155526670Y-108398655D01*
X154942164Y-108736450D01*
X154344405Y-109050564D01*
X153734027Y-109340631D01*
X153111664Y-109606284D01*
X152477950Y-109847156D01*
X151833519Y-110062879D01*
X151201857Y-110246923D01*
X151128029Y-110266649D01*
X151076094Y-110279453D01*
X151041406Y-110285816D01*
X151019323Y-110286216D01*
X151005200Y-110281132D01*
X150994393Y-110271041D01*
X150992272Y-110268527D01*
X150958453Y-110237523D01*
X150903874Y-110198952D01*
X150833337Y-110155530D01*
X150751640Y-110109971D01*
X150663582Y-110064989D01*
X150573964Y-110023300D01*
X150513886Y-109997938D01*
X150224411Y-109891093D01*
X149916485Y-109795171D01*
X149597653Y-109711973D01*
X149275460Y-109643305D01*
X148957451Y-109590970D01*
X148677928Y-109559047D01*
X148604282Y-109552512D01*
X148533591Y-109546118D01*
X148474221Y-109540630D01*
X148436568Y-109537015D01*
X148367388Y-109530103D01*
X148383980Y-109365652D01*
X148389792Y-109302821D01*
X148396759Y-109219118D01*
X148404374Y-109121169D01*
X148412127Y-109015600D01*
X148419510Y-108909038D01*
X148422290Y-108866929D01*
X148438187Y-108637634D01*
X148454364Y-108434718D01*
X148470796Y-108258439D01*
X148487458Y-108109057D01*
X148504325Y-107986833D01*
X148512935Y-107935390D01*
X148523875Y-107876500D01*
X148533347Y-107828903D01*
X148540170Y-107798341D01*
X148542856Y-107790037D01*
X148558231Y-107787134D01*
X148596528Y-107781806D01*
X148653277Y-107774572D01*
X148724011Y-107765952D01*
X148804261Y-107756463D01*
X148889556Y-107746624D01*
X148975428Y-107736954D01*
X149057408Y-107727973D01*
X149131028Y-107720197D01*
X149191817Y-107714147D01*
X149215130Y-107712008D01*
X149525002Y-107675093D01*
X149852212Y-107617341D01*
X150196955Y-107538714D01*
X150496149Y-107457688D01*
X150601267Y-107426789D01*
X150705474Y-107394988D01*
X150811773Y-107361248D01*
X150923169Y-107324532D01*
X151042665Y-107283804D01*
X151173265Y-107238028D01*
X151317973Y-107186165D01*
X151479793Y-107127181D01*
X151661729Y-107060038D01*
X151832376Y-106996545D01*
X152054270Y-106913942D01*
X152252658Y-106840557D01*
X152429719Y-106775650D01*
X152587633Y-106718485D01*
X152728581Y-106668324D01*
X152854744Y-106624428D01*
X152968301Y-106586060D01*
X153071434Y-106552483D01*
X153166321Y-106522957D01*
X153255144Y-106496746D01*
X153340083Y-106473112D01*
X153423318Y-106451316D01*
X153498969Y-106432567D01*
X153590477Y-106411361D01*
X153676397Y-106393772D01*
X153761068Y-106379342D01*
X153848827Y-106367613D01*
X153944011Y-106358129D01*
X154050960Y-106350433D01*
X154174011Y-106344067D01*
X154317501Y-106338574D01*
X154421854Y-106335312D01*
X154595149Y-106329818D01*
X154744086Y-106324109D01*
X154871858Y-106317942D01*
X154981654Y-106311077D01*
X155076668Y-106303271D01*
X155160089Y-106294285D01*
X155235110Y-106283876D01*
X155304921Y-106271804D01*
X155331855Y-106266505D01*
X155471997Y-106233097D01*
X155610885Y-106189531D01*
X155750668Y-106134561D01*
X155893491Y-106066941D01*
X156041503Y-105985425D01*
X156196848Y-105888765D01*
X156361675Y-105775716D01*
X156538129Y-105645031D01*
X156728359Y-105495464D01*
X156894359Y-105359331D01*
X157149628Y-105138254D01*
X157385327Y-104916889D01*
X157600319Y-104696527D01*
X157793464Y-104478459D01*
X157963623Y-104263976D01*
X158109657Y-104054371D01*
X158230425Y-103850933D01*
X158238632Y-103835586D01*
X158264825Y-103786429D01*
X158285863Y-103747380D01*
X158298634Y-103724194D01*
X158300910Y-103720396D01*
X158314388Y-103724048D01*
G37*
G36*
X142779039Y-107274503D02*
G01*
X143008619Y-107351774D01*
X143262251Y-107416050D01*
X143539680Y-107467300D01*
X143840654Y-107505496D01*
X144164918Y-107530608D01*
X144512218Y-107542607D01*
X144882299Y-107541464D01*
X145061173Y-107536480D01*
X145171664Y-107532958D01*
X145272250Y-107530480D01*
X145359706Y-107529071D01*
X145430809Y-107528757D01*
X145482332Y-107529564D01*
X145511050Y-107531518D01*
X145515728Y-107532820D01*
X145537205Y-107543189D01*
X145581604Y-107559446D01*
X145645200Y-107580476D01*
X145724273Y-107605166D01*
X145815098Y-107632401D01*
X145913952Y-107661068D01*
X146017114Y-107690052D01*
X146120860Y-107718240D01*
X146221467Y-107744517D01*
X146232971Y-107747443D01*
X146399266Y-107787292D01*
X146569737Y-107823847D01*
X146739802Y-107856375D01*
X146904883Y-107884141D01*
X147060397Y-107906410D01*
X147201764Y-107922449D01*
X147324404Y-107931523D01*
X147392338Y-107933338D01*
X147451803Y-107934314D01*
X147488301Y-107939163D01*
X147506408Y-107951108D01*
X147510699Y-107973370D01*
X147505748Y-108009171D01*
X147505085Y-108012741D01*
X147501159Y-108039083D01*
X147494531Y-108089837D01*
X147485554Y-108162035D01*
X147474586Y-108252709D01*
X147461981Y-108358892D01*
X147448094Y-108477616D01*
X147433280Y-108605915D01*
X147417896Y-108740820D01*
X147417367Y-108745489D01*
X147402018Y-108880879D01*
X147387358Y-109010029D01*
X147373728Y-109129931D01*
X147361471Y-109237575D01*
X147350931Y-109329953D01*
X147342450Y-109404057D01*
X147336371Y-109456877D01*
X147333038Y-109485405D01*
X147332994Y-109485772D01*
X147324380Y-109557325D01*
X147247005Y-109566061D01*
X147098801Y-109584036D01*
X146945021Y-109605247D01*
X146782891Y-109630192D01*
X146609636Y-109659364D01*
X146422481Y-109693259D01*
X146218653Y-109732375D01*
X145995377Y-109777205D01*
X145749878Y-109828246D01*
X145592461Y-109861694D01*
X145303955Y-109922806D01*
X145039794Y-109977349D01*
X144797650Y-110025633D01*
X144575191Y-110067968D01*
X144370087Y-110104662D01*
X144180008Y-110136025D01*
X144002624Y-110162366D01*
X143835604Y-110183994D01*
X143676618Y-110201219D01*
X143523335Y-110214350D01*
X143373426Y-110223696D01*
X143224560Y-110229566D01*
X143074406Y-110232269D01*
X142920635Y-110232116D01*
X142813114Y-110230543D01*
X142700181Y-110228654D01*
X142612169Y-110227958D01*
X142546471Y-110228529D01*
X142500482Y-110230443D01*
X142471597Y-110233775D01*
X142457209Y-110238600D01*
X142454980Y-110240876D01*
X142434957Y-110251122D01*
X142414018Y-110246338D01*
X142390214Y-110234781D01*
X142383025Y-110227473D01*
X142385615Y-110212542D01*
X142392900Y-110174301D01*
X142404158Y-110116450D01*
X142418664Y-110042689D01*
X142435695Y-109956718D01*
X142451134Y-109879226D01*
X142528219Y-109457215D01*
X142587957Y-109047247D01*
X142631160Y-108641129D01*
X142658635Y-108230667D01*
X142671194Y-107807669D01*
X142672224Y-107641970D01*
X142672288Y-107233386D01*
X142779039Y-107274503D01*
G37*
G36*
X151674736Y-103990340D02*
G01*
X151666973Y-104007766D01*
X151652748Y-104029413D01*
X151645342Y-104035314D01*
X151645436Y-104025191D01*
X151653199Y-104007766D01*
X151667424Y-103986118D01*
X151674830Y-103980217D01*
X151674736Y-103990340D01*
G37*
G36*
X155121626Y-98151654D02*
G01*
X155151642Y-98166041D01*
X155195917Y-98189298D01*
X155249744Y-98218814D01*
X155308416Y-98251978D01*
X155367226Y-98286178D01*
X155421468Y-98318804D01*
X155454934Y-98339779D01*
X155561999Y-98411780D01*
X155655130Y-98482563D01*
X155737424Y-98555863D01*
X155811981Y-98635412D01*
X155881900Y-98724945D01*
X155950278Y-98828196D01*
X156020215Y-98948899D01*
X156094809Y-99090787D01*
X156120318Y-99141574D01*
X156183026Y-99262566D01*
X156243343Y-99366398D01*
X156304737Y-99456452D01*
X156370676Y-99536111D01*
X156444630Y-99608756D01*
X156530068Y-99677769D01*
X156630457Y-99746532D01*
X156749268Y-99818427D01*
X156889969Y-99896837D01*
X156901247Y-99902937D01*
X157031624Y-99975397D01*
X157140565Y-100041002D01*
X157232278Y-100102955D01*
X157310975Y-100164461D01*
X157380864Y-100228723D01*
X157446157Y-100298945D01*
X157488596Y-100349887D01*
X157577789Y-100474979D01*
X157646510Y-100601565D01*
X157693697Y-100726630D01*
X157718288Y-100847155D01*
X157719221Y-100960121D01*
X157714710Y-100992189D01*
X157705966Y-101037424D01*
X157695860Y-101078804D01*
X157682865Y-101118746D01*
X157665450Y-101159670D01*
X157642089Y-101203995D01*
X157611253Y-101254139D01*
X157571413Y-101312521D01*
X157521040Y-101381559D01*
X157458607Y-101463673D01*
X157382585Y-101561281D01*
X157291445Y-101676801D01*
X157245319Y-101734989D01*
X157134917Y-101874698D01*
X157038715Y-101997809D01*
X156953297Y-102108901D01*
X156875244Y-102212555D01*
X156801138Y-102313350D01*
X156727563Y-102415867D01*
X156651101Y-102524685D01*
X156587132Y-102617066D01*
X156524267Y-102709549D01*
X156454354Y-102814543D01*
X156379571Y-102928600D01*
X156302097Y-103048272D01*
X156224114Y-103170112D01*
X156147798Y-103290672D01*
X156075331Y-103406503D01*
X156008891Y-103514157D01*
X155950657Y-103610188D01*
X155902808Y-103691146D01*
X155867525Y-103753584D01*
X155860492Y-103766714D01*
X155802381Y-103888909D01*
X155755776Y-104011372D01*
X155723050Y-104127048D01*
X155707109Y-104222786D01*
X155705543Y-104282621D01*
X155716732Y-104323187D01*
X155744638Y-104348860D01*
X155793221Y-104364021D01*
X155840873Y-104370641D01*
X155896047Y-104374277D01*
X155936764Y-104370175D01*
X155975438Y-104356679D01*
X155987306Y-104351130D01*
X156033686Y-104320770D01*
X156090503Y-104271046D01*
X156153839Y-104206106D01*
X156219777Y-104130099D01*
X156284400Y-104047174D01*
X156315910Y-104003092D01*
X156397425Y-103885567D01*
X156465951Y-103787404D01*
X156523973Y-103705174D01*
X156573979Y-103635448D01*
X156618456Y-103574796D01*
X156659891Y-103519791D01*
X156700771Y-103467003D01*
X156743583Y-103413004D01*
X156747126Y-103408579D01*
X156795545Y-103350751D01*
X156858978Y-103278892D01*
X156932676Y-103198162D01*
X157011890Y-103113723D01*
X157091871Y-103030736D01*
X157134893Y-102987156D01*
X157212786Y-102910388D01*
X157293159Y-102833628D01*
X157373512Y-102759035D01*
X157451342Y-102688767D01*
X157524148Y-102624982D01*
X157589430Y-102569840D01*
X157644685Y-102525499D01*
X157687412Y-102494117D01*
X157715109Y-102477853D01*
X157725094Y-102477844D01*
X157724132Y-102500620D01*
X157715201Y-102542674D01*
X157700225Y-102597576D01*
X157681129Y-102658895D01*
X157659836Y-102720198D01*
X157638271Y-102775053D01*
X157631679Y-102790081D01*
X157596122Y-102859605D01*
X157545603Y-102945611D01*
X157483025Y-103043608D01*
X157411291Y-103149109D01*
X157333303Y-103257621D01*
X157304062Y-103296816D01*
X157213780Y-103415314D01*
X157129774Y-103522471D01*
X157048689Y-103622054D01*
X156967173Y-103717834D01*
X156881872Y-103813578D01*
X156789434Y-103913056D01*
X156686504Y-104020037D01*
X156569731Y-104138289D01*
X156444613Y-104262826D01*
X156284684Y-104420366D01*
X156142305Y-104559087D01*
X156016129Y-104680217D01*
X155904812Y-104784985D01*
X155807009Y-104874620D01*
X155721373Y-104950351D01*
X155646561Y-105013406D01*
X155581226Y-105065015D01*
X155524024Y-105106405D01*
X155512845Y-105113964D01*
X155418281Y-105172296D01*
X155305061Y-105234418D01*
X155180985Y-105296440D01*
X155053856Y-105354473D01*
X154931473Y-105404627D01*
X154924620Y-105407236D01*
X154862981Y-105430146D01*
X154816887Y-105444878D01*
X154776961Y-105452927D01*
X154733826Y-105455786D01*
X154678103Y-105454949D01*
X154635357Y-105453321D01*
X154473052Y-105449013D01*
X154332980Y-105450737D01*
X154210341Y-105459221D01*
X154100337Y-105475193D01*
X153998166Y-105499381D01*
X153899028Y-105532514D01*
X153798125Y-105575318D01*
X153782319Y-105582723D01*
X153653191Y-105643892D01*
X153310923Y-105659643D01*
X153087176Y-105670218D01*
X152888512Y-105680262D01*
X152712473Y-105689985D01*
X152556603Y-105699597D01*
X152418445Y-105709309D01*
X152295541Y-105719331D01*
X152185437Y-105729874D01*
X152085674Y-105741148D01*
X151993797Y-105753363D01*
X151907347Y-105766731D01*
X151823870Y-105781461D01*
X151771947Y-105791486D01*
X151654089Y-105817047D01*
X151534803Y-105846771D01*
X151417969Y-105879370D01*
X151307469Y-105913557D01*
X151207183Y-105948045D01*
X151120992Y-105981546D01*
X151052778Y-106012774D01*
X151006420Y-106040442D01*
X150996450Y-106048693D01*
X150970938Y-106089868D01*
X150963308Y-106141985D01*
X150973615Y-106194986D01*
X150995471Y-106232029D01*
X151025831Y-106259505D01*
X151060926Y-106274135D01*
X151105002Y-106275752D01*
X151162302Y-106264191D01*
X151237068Y-106239283D01*
X151285158Y-106220642D01*
X151457940Y-106157417D01*
X151639065Y-106103127D01*
X151831873Y-106057120D01*
X152039708Y-106018745D01*
X152265912Y-105987351D01*
X152513827Y-105962285D01*
X152672505Y-105950140D01*
X152753775Y-105945037D01*
X152834542Y-105940777D01*
X152906345Y-105937754D01*
X152960726Y-105936365D01*
X152968291Y-105936318D01*
X153064348Y-105936182D01*
X152858096Y-106037334D01*
X152793043Y-106069719D01*
X152708737Y-106112425D01*
X152610250Y-106162844D01*
X152502651Y-106218364D01*
X152391013Y-106276376D01*
X152280408Y-106334268D01*
X152244660Y-106353080D01*
X151961589Y-106499197D01*
X151695433Y-106629861D01*
X151441628Y-106746872D01*
X151195612Y-106852029D01*
X150952823Y-106947133D01*
X150708698Y-107033983D01*
X150458674Y-107114379D01*
X150198188Y-107190121D01*
X149965835Y-107252009D01*
X149825050Y-107287412D01*
X149693055Y-107318925D01*
X149565236Y-107347426D01*
X149436979Y-107373787D01*
X149303671Y-107398884D01*
X149160699Y-107423591D01*
X149003449Y-107448782D01*
X148827309Y-107475333D01*
X148660962Y-107499386D01*
X148609560Y-107506709D01*
X148645498Y-107407079D01*
X148697767Y-107273771D01*
X148751799Y-107160817D01*
X148811276Y-107061089D01*
X148858416Y-106994945D01*
X148916979Y-106912484D01*
X148955705Y-106844347D01*
X148976138Y-106787485D01*
X148980360Y-106754371D01*
X148971814Y-106699404D01*
X148947374Y-106650539D01*
X148912259Y-106618111D01*
X148911283Y-106617597D01*
X148876361Y-106607644D01*
X148820900Y-106600934D01*
X148751721Y-106597468D01*
X148675644Y-106597250D01*
X148599487Y-106600282D01*
X148530072Y-106606566D01*
X148474217Y-106616104D01*
X148468832Y-106617446D01*
X148420689Y-106629177D01*
X148356155Y-106643819D01*
X148285874Y-106658988D01*
X148252112Y-106665983D01*
X148104668Y-106699473D01*
X147972631Y-106737741D01*
X147852475Y-106783054D01*
X147740675Y-106837679D01*
X147633705Y-106903883D01*
X147528039Y-106983932D01*
X147420152Y-107080093D01*
X147306518Y-107194632D01*
X147183612Y-107329817D01*
X147137695Y-107382494D01*
X147082966Y-107445761D01*
X147033809Y-107502431D01*
X146993299Y-107548973D01*
X146964508Y-107581855D01*
X146950513Y-107597546D01*
X146950304Y-107597766D01*
X146935674Y-107603134D01*
X146904972Y-107602956D01*
X146854950Y-107596935D01*
X146782361Y-107584775D01*
X146756398Y-107580015D01*
X146660686Y-107560747D01*
X146546340Y-107535384D01*
X146421088Y-107505834D01*
X146292659Y-107474003D01*
X146168781Y-107441799D01*
X146057179Y-107411129D01*
X145979975Y-107388379D01*
X145925402Y-107371008D01*
X145893614Y-107358771D01*
X145880851Y-107349429D01*
X145883352Y-107340741D01*
X145890441Y-107335032D01*
X145927493Y-107311570D01*
X145986338Y-107277246D01*
X146064152Y-107233566D01*
X146158109Y-107182031D01*
X146265384Y-107124148D01*
X146383155Y-107061419D01*
X146508594Y-106995348D01*
X146638878Y-106927440D01*
X146771182Y-106859199D01*
X146902682Y-106792127D01*
X147030552Y-106727731D01*
X147038774Y-106723622D01*
X147165887Y-106660327D01*
X147287816Y-106600073D01*
X147406781Y-106541832D01*
X147525002Y-106484575D01*
X147644697Y-106427271D01*
X147768088Y-106368894D01*
X147897393Y-106308413D01*
X148034832Y-106244799D01*
X148182626Y-106177024D01*
X148342994Y-106104059D01*
X148518155Y-106024875D01*
X148710330Y-105938443D01*
X148921738Y-105843733D01*
X149154599Y-105739718D01*
X149332212Y-105660526D01*
X149594379Y-105543573D01*
X149833429Y-105436622D01*
X150051499Y-105338670D01*
X150250727Y-105248715D01*
X150433250Y-105165753D01*
X150601206Y-105088783D01*
X150756734Y-105016802D01*
X150901969Y-104948806D01*
X151039051Y-104883794D01*
X151170117Y-104820761D01*
X151297305Y-104758707D01*
X151422752Y-104696627D01*
X151548596Y-104633519D01*
X151676974Y-104568381D01*
X151810026Y-104500209D01*
X151852340Y-104478414D01*
X152110885Y-104342429D01*
X152372669Y-104199644D01*
X152634179Y-104052176D01*
X152891897Y-103902144D01*
X153142310Y-103751665D01*
X153381900Y-103602859D01*
X153607153Y-103457842D01*
X153814553Y-103318735D01*
X154000585Y-103187653D01*
X154029284Y-103166723D01*
X154301005Y-102959907D01*
X154561598Y-102746489D01*
X154807892Y-102529357D01*
X155036717Y-102311397D01*
X155244904Y-102095497D01*
X155404696Y-101914056D01*
X155572057Y-101697831D01*
X155719119Y-101472600D01*
X155844385Y-101241302D01*
X155946359Y-101006872D01*
X156023546Y-100772248D01*
X156057247Y-100633037D01*
X156066207Y-100583374D01*
X156072756Y-100529414D01*
X156077181Y-100466124D01*
X156079768Y-100388472D01*
X156080806Y-100291425D01*
X156080797Y-100219805D01*
X156080347Y-100120845D01*
X156079314Y-100044017D01*
X156077180Y-99983904D01*
X156073433Y-99935088D01*
X156067555Y-99892153D01*
X156059032Y-99849682D01*
X156047348Y-99802257D01*
X156037558Y-99765249D01*
X155967600Y-99549593D01*
X155871634Y-99327927D01*
X155750228Y-99101495D01*
X155684606Y-98993883D01*
X155662771Y-98960441D01*
X155627632Y-98907912D01*
X155581599Y-98839838D01*
X155527078Y-98759761D01*
X155466479Y-98671222D01*
X155402209Y-98577765D01*
X155369250Y-98530010D01*
X155307298Y-98440154D01*
X155250667Y-98357628D01*
X155201189Y-98285132D01*
X155160697Y-98225365D01*
X155131021Y-98181027D01*
X155113994Y-98154818D01*
X155110574Y-98148747D01*
X155121626Y-98151654D01*
G37*
G36*
X142864526Y-88134055D02*
G01*
X142849188Y-88154880D01*
X142833774Y-88170645D01*
X142804515Y-88200538D01*
X142784885Y-88224455D01*
X142781139Y-88231090D01*
X142765458Y-88238932D01*
X142726147Y-88247457D01*
X142667088Y-88255971D01*
X142603416Y-88262762D01*
X142519876Y-88271179D01*
X142429730Y-88281325D01*
X142345435Y-88291750D01*
X142294509Y-88298739D01*
X142224297Y-88308905D01*
X142176669Y-88314991D01*
X142146935Y-88316798D01*
X142130405Y-88314124D01*
X142122389Y-88306771D01*
X142118196Y-88294538D01*
X142117324Y-88291185D01*
X142115250Y-88266587D01*
X142119161Y-88258194D01*
X142139091Y-88251893D01*
X142181726Y-88242067D01*
X142242565Y-88229517D01*
X142317107Y-88215044D01*
X142400850Y-88199448D01*
X142489294Y-88183531D01*
X142577935Y-88168093D01*
X142662274Y-88153935D01*
X142737808Y-88141859D01*
X142800037Y-88132664D01*
X142844458Y-88127152D01*
X142862667Y-88125914D01*
X142864526Y-88134055D01*
G37*
G36*
X143593053Y-88099618D02*
G01*
X143621062Y-88102789D01*
X143633544Y-88110651D01*
X143636491Y-88124909D01*
X143636496Y-88125878D01*
X143636108Y-88141045D01*
X143631306Y-88148684D01*
X143616633Y-88148766D01*
X143586634Y-88141265D01*
X143535852Y-88126152D01*
X143533188Y-88125352D01*
X143450542Y-88100534D01*
X143543519Y-88099432D01*
X143593053Y-88099618D01*
G37*
G36*
X136735520Y-101493937D02*
G01*
X136728633Y-101500824D01*
X136721746Y-101493937D01*
X136728633Y-101487050D01*
X136735520Y-101493937D01*
G37*
G36*
X151708297Y-103932006D02*
G01*
X151701409Y-103938894D01*
X151694522Y-103932006D01*
X151701409Y-103925119D01*
X151708297Y-103932006D01*
G37*
G36*
X148714660Y-89494136D02*
G01*
X148712769Y-89502325D01*
X148705477Y-89503319D01*
X148694139Y-89498279D01*
X148696294Y-89494136D01*
X148712641Y-89492487D01*
X148714660Y-89494136D01*
G37*
G36*
X136860544Y-101777820D02*
G01*
X136883770Y-101814244D01*
X136917814Y-101869199D01*
X136961104Y-101940078D01*
X137012069Y-102024272D01*
X137069137Y-102119173D01*
X137130736Y-102222172D01*
X137195296Y-102330661D01*
X137261243Y-102442031D01*
X137327007Y-102553674D01*
X137350178Y-102593163D01*
X137409693Y-102694179D01*
X137469291Y-102794379D01*
X137526358Y-102889437D01*
X137578279Y-102975028D01*
X137622441Y-103046826D01*
X137656228Y-103100505D01*
X137664421Y-103113147D01*
X137698708Y-103166162D01*
X137725969Y-103209634D01*
X137743478Y-103239118D01*
X137748509Y-103250171D01*
X137748474Y-103250173D01*
X137738965Y-103239502D01*
X137717004Y-103210300D01*
X137685671Y-103166790D01*
X137648049Y-103113192D01*
X137640362Y-103102099D01*
X137540279Y-102953809D01*
X137434554Y-102790809D01*
X137329587Y-102623165D01*
X137231782Y-102460943D01*
X137222034Y-102444371D01*
X137176748Y-102366421D01*
X137128743Y-102282469D01*
X137079704Y-102195595D01*
X137031311Y-102108881D01*
X136985246Y-102025406D01*
X136943193Y-101948251D01*
X136906833Y-101880496D01*
X136877847Y-101825222D01*
X136857919Y-101785509D01*
X136848730Y-101764438D01*
X136849708Y-101762538D01*
X136860544Y-101777820D01*
G37*
G36*
X150799186Y-89289816D02*
G01*
X150792299Y-89296703D01*
X150785412Y-89289816D01*
X150792299Y-89282928D01*
X150799186Y-89289816D01*
G37*
G36*
X138132838Y-99657596D02*
G01*
X138136399Y-99672108D01*
X138143454Y-99707986D01*
X138152897Y-99759432D01*
X138161199Y-99806573D01*
X138182248Y-99982517D01*
X138181675Y-100149430D01*
X138158828Y-100314070D01*
X138113056Y-100483197D01*
X138089387Y-100550390D01*
X138065773Y-100610256D01*
X138037847Y-100675634D01*
X138007715Y-100742228D01*
X137977488Y-100805745D01*
X137949272Y-100861890D01*
X137925175Y-100906369D01*
X137907305Y-100934888D01*
X137897770Y-100943152D01*
X137897095Y-100942139D01*
X137898589Y-100925384D01*
X137905318Y-100885265D01*
X137916592Y-100825321D01*
X137931721Y-100749091D01*
X137950015Y-100660114D01*
X137970786Y-100561930D01*
X137974922Y-100542681D01*
X138004121Y-100404516D01*
X138026783Y-100290299D01*
X138043121Y-100197269D01*
X138053349Y-100122664D01*
X138057681Y-100063725D01*
X138056331Y-100017690D01*
X138049511Y-99981797D01*
X138037436Y-99953287D01*
X138022202Y-99931599D01*
X137996868Y-99905817D01*
X137970311Y-99893245D01*
X137931135Y-99889364D01*
X137915354Y-99889219D01*
X137864818Y-99893690D01*
X137792980Y-99906327D01*
X137704458Y-99925967D01*
X137603871Y-99951446D01*
X137495838Y-99981600D01*
X137384976Y-100015266D01*
X137286496Y-100047643D01*
X137135282Y-100102693D01*
X137009122Y-100156710D01*
X136905699Y-100211778D01*
X136822696Y-100269987D01*
X136757794Y-100333423D01*
X136708678Y-100404173D01*
X136673029Y-100484325D01*
X136648530Y-100575965D01*
X136639164Y-100630666D01*
X136628367Y-100752053D01*
X136627486Y-100889943D01*
X136635989Y-101035347D01*
X136653348Y-101179276D01*
X136679031Y-101312740D01*
X136679523Y-101314810D01*
X136691073Y-101366040D01*
X136698786Y-101405852D01*
X136701428Y-101427647D01*
X136701002Y-101429738D01*
X136695049Y-101419796D01*
X136683183Y-101389144D01*
X136667516Y-101343430D01*
X136659836Y-101319603D01*
X136607796Y-101133207D01*
X136575507Y-100964912D01*
X136562835Y-100813751D01*
X136569645Y-100678755D01*
X136570367Y-100673341D01*
X136604953Y-100504007D01*
X136659619Y-100352001D01*
X136733727Y-100218163D01*
X136826638Y-100103335D01*
X136937711Y-100008358D01*
X137066310Y-99934074D01*
X137160059Y-99896928D01*
X137212962Y-99882229D01*
X137286394Y-99865913D01*
X137373499Y-99849333D01*
X137467418Y-99833844D01*
X137513955Y-99827048D01*
X137648142Y-99806992D01*
X137759220Y-99787135D01*
X137851599Y-99766383D01*
X137929691Y-99743646D01*
X137997905Y-99717833D01*
X138046160Y-99695332D01*
X138088331Y-99674857D01*
X138119407Y-99661305D01*
X138132792Y-99657547D01*
X138132838Y-99657596D01*
G37*
G36*
X150684399Y-89259971D02*
G01*
X150682508Y-89268160D01*
X150675216Y-89269154D01*
X150663878Y-89264114D01*
X150666033Y-89259971D01*
X150682380Y-89258322D01*
X150684399Y-89259971D01*
G37*
G36*
X149907374Y-90982299D02*
G01*
X149916617Y-91005411D01*
X149917624Y-91026296D01*
X149921092Y-91066477D01*
X149929514Y-91097542D01*
X149930269Y-91099038D01*
X149934093Y-91116565D01*
X149918848Y-91129108D01*
X149896431Y-91137213D01*
X149866468Y-91144962D01*
X149849466Y-91139955D01*
X149836179Y-91116924D01*
X149828689Y-91098628D01*
X149812007Y-91050046D01*
X149810065Y-91019220D01*
X149823644Y-91000155D01*
X149842762Y-90990613D01*
X149884393Y-90978147D01*
X149907374Y-90982299D01*
G37*
G36*
X133128529Y-103557727D02*
G01*
X133411175Y-103579674D01*
X133694821Y-103618474D01*
X133981624Y-103674766D01*
X134273742Y-103749189D01*
X134573333Y-103842381D01*
X134882555Y-103954980D01*
X135203566Y-104087627D01*
X135538522Y-104240958D01*
X135695553Y-104317458D01*
X135811553Y-104375406D01*
X135922737Y-104431940D01*
X136032112Y-104488717D01*
X136142687Y-104547388D01*
X136257469Y-104609609D01*
X136379467Y-104677033D01*
X136511690Y-104751314D01*
X136657144Y-104834107D01*
X136818838Y-104927065D01*
X136999780Y-105031843D01*
X137087607Y-105082895D01*
X137354096Y-105237039D01*
X137599406Y-105376983D01*
X137825356Y-105503695D01*
X138033762Y-105618147D01*
X138226440Y-105721310D01*
X138405208Y-105814152D01*
X138571883Y-105897645D01*
X138728282Y-105972759D01*
X138876221Y-106040464D01*
X138902709Y-106052211D01*
X138988519Y-106089249D01*
X139089476Y-106131468D01*
X139200901Y-106177031D01*
X139318115Y-106224099D01*
X139436442Y-106270836D01*
X139551203Y-106315404D01*
X139657721Y-106355965D01*
X139751318Y-106390681D01*
X139827315Y-106417715D01*
X139865632Y-106430479D01*
X140027252Y-106476151D01*
X140168332Y-106503720D01*
X140288826Y-106513185D01*
X140388690Y-106504547D01*
X140467879Y-106477805D01*
X140526350Y-106432959D01*
X140528924Y-106430015D01*
X140574857Y-106376352D01*
X140814326Y-106525825D01*
X140890779Y-106573354D01*
X140962903Y-106617837D01*
X141026095Y-106656462D01*
X141075748Y-106686417D01*
X141107258Y-106704887D01*
X141109711Y-106706259D01*
X141165626Y-106737219D01*
X141196461Y-107035751D01*
X141218957Y-107256313D01*
X141238369Y-107453549D01*
X141254952Y-107631482D01*
X141268963Y-107794132D01*
X141280657Y-107945519D01*
X141290291Y-108089666D01*
X141298120Y-108230593D01*
X141304400Y-108372320D01*
X141309388Y-108518868D01*
X141313340Y-108674259D01*
X141316511Y-108842513D01*
X141318070Y-108945889D01*
X141319941Y-109114171D01*
X141320737Y-109271414D01*
X141320500Y-109415672D01*
X141319273Y-109545000D01*
X141317100Y-109657451D01*
X141314023Y-109751080D01*
X141310085Y-109823943D01*
X141305331Y-109874092D01*
X141299802Y-109899583D01*
X141296880Y-109902488D01*
X141281923Y-109897686D01*
X141244957Y-109884631D01*
X141189781Y-109864702D01*
X141120198Y-109839275D01*
X141040008Y-109809729D01*
X140998698Y-109794426D01*
X140386164Y-109554612D01*
X139792589Y-109296554D01*
X139215089Y-109018796D01*
X138650781Y-108719884D01*
X138096783Y-108398364D01*
X137561984Y-108060526D01*
X136998972Y-107674035D01*
X136453566Y-107266412D01*
X135926146Y-106838025D01*
X135417094Y-106389240D01*
X134926789Y-105920425D01*
X134455611Y-105431947D01*
X134003940Y-104924172D01*
X133572157Y-104397467D01*
X133160642Y-103852201D01*
X133065733Y-103719737D01*
X132944477Y-103548792D01*
X133128529Y-103557727D01*
G37*
G36*
X137782466Y-103294246D02*
G01*
X137800732Y-103315439D01*
X137831447Y-103352282D01*
X137876069Y-103406434D01*
X137936059Y-103479553D01*
X137966322Y-103516481D01*
X138014030Y-103575421D01*
X138066955Y-103642008D01*
X138122635Y-103713017D01*
X138178613Y-103785220D01*
X138232428Y-103855390D01*
X138281621Y-103920300D01*
X138323732Y-103976725D01*
X138356301Y-104021437D01*
X138376869Y-104051209D01*
X138382976Y-104062814D01*
X138382807Y-104062863D01*
X138372260Y-104052826D01*
X138347485Y-104025190D01*
X138311712Y-103983673D01*
X138268167Y-103931991D01*
X138246369Y-103905771D01*
X138179135Y-103823375D01*
X138106402Y-103732189D01*
X138032131Y-103637355D01*
X137960288Y-103544015D01*
X137894834Y-103457312D01*
X137839735Y-103382385D01*
X137804702Y-103332820D01*
X137787766Y-103307991D01*
X137777442Y-103292181D01*
X137775189Y-103287046D01*
X137782466Y-103294246D01*
G37*
G36*
X152810249Y-101920944D02*
G01*
X152803362Y-101927831D01*
X152796474Y-101920944D01*
X152803362Y-101914056D01*
X152810249Y-101920944D01*
G37*
G36*
X138413869Y-104095984D02*
G01*
X138428656Y-104109853D01*
X138425623Y-104117827D01*
X138423697Y-104117961D01*
X138412047Y-104108177D01*
X138407795Y-104102058D01*
X138406171Y-104092632D01*
X138413869Y-104095984D01*
G37*
G36*
X137892570Y-100970510D02*
G01*
X137885683Y-100977397D01*
X137878795Y-100970510D01*
X137885683Y-100963622D01*
X137892570Y-100970510D01*
G37*
G36*
X143518327Y-89982855D02*
G01*
X143572744Y-90012235D01*
X143619234Y-90053427D01*
X143637221Y-90077972D01*
X143668935Y-90124934D01*
X143699204Y-90151410D01*
X143736205Y-90162730D01*
X143769986Y-90164490D01*
X143808371Y-90165757D01*
X143824396Y-90174008D01*
X143822435Y-90195923D01*
X143811072Y-90227214D01*
X143794902Y-90269276D01*
X143755665Y-90223770D01*
X143724356Y-90193382D01*
X143692251Y-90180466D01*
X143658202Y-90178265D01*
X143610865Y-90183825D01*
X143576747Y-90203691D01*
X143567894Y-90212413D01*
X143535814Y-90246561D01*
X143505153Y-90215856D01*
X143469608Y-90184184D01*
X143438412Y-90160403D01*
X143409825Y-90127300D01*
X143402612Y-90080543D01*
X143416454Y-90017929D01*
X143417453Y-90015027D01*
X143434672Y-89982923D01*
X143459939Y-89971895D01*
X143466212Y-89971648D01*
X143518327Y-89982855D01*
G37*
G36*
X150109345Y-89139726D02*
G01*
X150143970Y-89145964D01*
X150195561Y-89155905D01*
X150259116Y-89168604D01*
X150272315Y-89171288D01*
X150334643Y-89184827D01*
X150381237Y-89196608D01*
X150408618Y-89205620D01*
X150413306Y-89210850D01*
X150410362Y-89211467D01*
X150373318Y-89225501D01*
X150348377Y-89246469D01*
X150328221Y-89265827D01*
X150303448Y-89271510D01*
X150267547Y-89267325D01*
X150218966Y-89250942D01*
X150171604Y-89216334D01*
X150153908Y-89199170D01*
X150123510Y-89167749D01*
X150102760Y-89145518D01*
X150096691Y-89138136D01*
X150109345Y-89139726D01*
G37*
G36*
X140110314Y-98592702D02*
G01*
X140127172Y-98619974D01*
X140149304Y-98660405D01*
X140173708Y-98708009D01*
X140197380Y-98756797D01*
X140217318Y-98800783D01*
X140230522Y-98833978D01*
X140234218Y-98848815D01*
X140239695Y-98867524D01*
X140254913Y-98906862D01*
X140278052Y-98962454D01*
X140307294Y-99029922D01*
X140338816Y-99100473D01*
X140382543Y-99198037D01*
X140430441Y-99306710D01*
X140480492Y-99421756D01*
X140530679Y-99538441D01*
X140578985Y-99652031D01*
X140623392Y-99757791D01*
X140661883Y-99850987D01*
X140692440Y-99926885D01*
X140707198Y-99964978D01*
X140727056Y-100022662D01*
X140752351Y-100104357D01*
X140782347Y-100207225D01*
X140816305Y-100328431D01*
X140853490Y-100465138D01*
X140893164Y-100614507D01*
X140934589Y-100773704D01*
X140977029Y-100939890D01*
X141019746Y-101110228D01*
X141062003Y-101281883D01*
X141103063Y-101452016D01*
X141142189Y-101617792D01*
X141178642Y-101776372D01*
X141183484Y-101797810D01*
X141219038Y-101952450D01*
X141250987Y-102084047D01*
X141280515Y-102196688D01*
X141308807Y-102294459D01*
X141337045Y-102381446D01*
X141366414Y-102461738D01*
X141398097Y-102539419D01*
X141398685Y-102540792D01*
X141419243Y-102592698D01*
X141444968Y-102663517D01*
X141473246Y-102745734D01*
X141501464Y-102831833D01*
X141516056Y-102878265D01*
X141611023Y-103160754D01*
X141719397Y-103435315D01*
X141842184Y-103703243D01*
X141980391Y-103965836D01*
X142135024Y-104224391D01*
X142307089Y-104480205D01*
X142497594Y-104734574D01*
X142707543Y-104988796D01*
X142937944Y-105244168D01*
X143189803Y-105501986D01*
X143464127Y-105763547D01*
X143761920Y-106030149D01*
X144084191Y-106303088D01*
X144325722Y-106499281D01*
X144410049Y-106566342D01*
X144510156Y-106645361D01*
X144619940Y-106731559D01*
X144733299Y-106820156D01*
X144844133Y-106906372D01*
X144943238Y-106983037D01*
X145291648Y-107251638D01*
X145190672Y-107260168D01*
X145153012Y-107262122D01*
X145092160Y-107263819D01*
X145012467Y-107265247D01*
X144918290Y-107266394D01*
X144813981Y-107267248D01*
X144703895Y-107267798D01*
X144592387Y-107268031D01*
X144483810Y-107267937D01*
X144382519Y-107267502D01*
X144292868Y-107266716D01*
X144219210Y-107265567D01*
X144165900Y-107264042D01*
X144146149Y-107262991D01*
X143848972Y-107234783D01*
X143573169Y-107194475D01*
X143315002Y-107141293D01*
X143070732Y-107074459D01*
X142836619Y-106993199D01*
X142826458Y-106989267D01*
X142663262Y-106925831D01*
X142646914Y-106689277D01*
X142632034Y-106492310D01*
X142616237Y-106318263D01*
X142599632Y-106167994D01*
X142582330Y-106042359D01*
X142564440Y-105942217D01*
X142546074Y-105868425D01*
X142538683Y-105846648D01*
X142488062Y-105751075D01*
X142411970Y-105663235D01*
X142311637Y-105584089D01*
X142188294Y-105514594D01*
X142043173Y-105455711D01*
X142031778Y-105451860D01*
X141948899Y-105431761D01*
X141852590Y-105420381D01*
X141751423Y-105417718D01*
X141653971Y-105423770D01*
X141568808Y-105438536D01*
X141526235Y-105451948D01*
X141451084Y-105491747D01*
X141376430Y-105548437D01*
X141311784Y-105613933D01*
X141274290Y-105666162D01*
X141248868Y-105722740D01*
X141224594Y-105801115D01*
X141202516Y-105895536D01*
X141183684Y-106000251D01*
X141169144Y-106109508D01*
X141159947Y-106217555D01*
X141157103Y-106309022D01*
X141155940Y-106355966D01*
X141151575Y-106380388D01*
X141142696Y-106387246D01*
X141136770Y-106385882D01*
X141113470Y-106373799D01*
X141071036Y-106348730D01*
X141013193Y-106313066D01*
X140943665Y-106269200D01*
X140866178Y-106219523D01*
X140784456Y-106166426D01*
X140702224Y-106112300D01*
X140623205Y-106059538D01*
X140551126Y-106010529D01*
X140537255Y-106000963D01*
X140315103Y-105842780D01*
X140085531Y-105670904D01*
X139856945Y-105491898D01*
X139637753Y-105312322D01*
X139464145Y-105163294D01*
X139391960Y-105099787D01*
X139446279Y-105091102D01*
X139485228Y-105080889D01*
X139513058Y-105066578D01*
X139516554Y-105063189D01*
X139531370Y-105032712D01*
X139545456Y-104981431D01*
X139557656Y-104916090D01*
X139566814Y-104843430D01*
X139571774Y-104770194D01*
X139572327Y-104737809D01*
X139569658Y-104649929D01*
X139561311Y-104564532D01*
X139546220Y-104478263D01*
X139523319Y-104387763D01*
X139491542Y-104289675D01*
X139449822Y-104180643D01*
X139397093Y-104057309D01*
X139332290Y-103916315D01*
X139270465Y-103787375D01*
X139197399Y-103634628D01*
X139137891Y-103504760D01*
X139091601Y-103396866D01*
X139058187Y-103310041D01*
X139037310Y-103243379D01*
X139028627Y-103195973D01*
X139031798Y-103166919D01*
X139035018Y-103161637D01*
X139067335Y-103142264D01*
X139110367Y-103146557D01*
X139156505Y-103170971D01*
X139174711Y-103186763D01*
X139210114Y-103220245D01*
X139260668Y-103269389D01*
X139324330Y-103332170D01*
X139399056Y-103406558D01*
X139482801Y-103490527D01*
X139573523Y-103582050D01*
X139669177Y-103679099D01*
X139684269Y-103694460D01*
X139853345Y-103865638D01*
X140006339Y-104018279D01*
X140145501Y-104154410D01*
X140273079Y-104276059D01*
X140391322Y-104385254D01*
X140502479Y-104484024D01*
X140608799Y-104574395D01*
X140712530Y-104658397D01*
X140815922Y-104738056D01*
X140921223Y-104815402D01*
X140950487Y-104836304D01*
X141097396Y-104937719D01*
X141234686Y-105025694D01*
X141372321Y-105106165D01*
X141520265Y-105185067D01*
X141618546Y-105234333D01*
X141792418Y-105315659D01*
X141953435Y-105382525D01*
X142099627Y-105434256D01*
X142229024Y-105470177D01*
X142339658Y-105489613D01*
X142371307Y-105492271D01*
X142491610Y-105499131D01*
X142535395Y-105455346D01*
X142560673Y-105427557D01*
X142572738Y-105402820D01*
X142575118Y-105369900D01*
X142572903Y-105335873D01*
X142559972Y-105270838D01*
X142530471Y-105193260D01*
X142483592Y-105101583D01*
X142418526Y-104994252D01*
X142334464Y-104869712D01*
X142319140Y-104848004D01*
X142170524Y-104632799D01*
X142039875Y-104430328D01*
X141924394Y-104235218D01*
X141821283Y-104042101D01*
X141727743Y-103845606D01*
X141640977Y-103640361D01*
X141558184Y-103420997D01*
X141522440Y-103319045D01*
X141485578Y-103209367D01*
X141449903Y-103098042D01*
X141414720Y-102982445D01*
X141379334Y-102859948D01*
X141343049Y-102727926D01*
X141305171Y-102583751D01*
X141265003Y-102424798D01*
X141221851Y-102248439D01*
X141175020Y-102052049D01*
X141123813Y-101833000D01*
X141087903Y-101677435D01*
X141031623Y-101434698D01*
X140979730Y-101215896D01*
X140931272Y-101017937D01*
X140885298Y-100837730D01*
X140840856Y-100672183D01*
X140796994Y-100518205D01*
X140752760Y-100372704D01*
X140707204Y-100232588D01*
X140659372Y-100094767D01*
X140608314Y-99956148D01*
X140553077Y-99813639D01*
X140492710Y-99664151D01*
X140426262Y-99504589D01*
X140399688Y-99441776D01*
X140346915Y-99315129D01*
X140296813Y-99190395D01*
X140250315Y-99070260D01*
X140208355Y-98957407D01*
X140171864Y-98854521D01*
X140141777Y-98764287D01*
X140119026Y-98689389D01*
X140104545Y-98632512D01*
X140099266Y-98596339D01*
X140101730Y-98584578D01*
X140110314Y-98592702D01*
G37*
G36*
X136818166Y-101686779D02*
G01*
X136811279Y-101693666D01*
X136804392Y-101686779D01*
X136811279Y-101679891D01*
X136818166Y-101686779D01*
G37*
G36*
X136804392Y-101659230D02*
G01*
X136797505Y-101666117D01*
X136790618Y-101659230D01*
X136797505Y-101652343D01*
X136804392Y-101659230D01*
G37*
G36*
X151694522Y-103959555D02*
G01*
X151687635Y-103966442D01*
X151680748Y-103959555D01*
X151687635Y-103952668D01*
X151694522Y-103959555D01*
G37*
G36*
X153260575Y-93807062D02*
G01*
X153255738Y-93843051D01*
X153247666Y-93895654D01*
X153237132Y-93959609D01*
X153235797Y-93967456D01*
X153219760Y-94077051D01*
X153212282Y-94171868D01*
X153212523Y-94263025D01*
X153212882Y-94271161D01*
X153219886Y-94357407D01*
X153232861Y-94420394D01*
X153253787Y-94464119D01*
X153284643Y-94492580D01*
X153327405Y-94509777D01*
X153331464Y-94510801D01*
X153389939Y-94525062D01*
X153301753Y-94648545D01*
X153222999Y-94763910D01*
X153161573Y-94866809D01*
X153114683Y-94963590D01*
X153079536Y-95060603D01*
X153053338Y-95164195D01*
X153038317Y-95247245D01*
X152997224Y-95464274D01*
X152946330Y-95655733D01*
X152885556Y-95821832D01*
X152814818Y-95962779D01*
X152734035Y-96078783D01*
X152696279Y-96120956D01*
X152657167Y-96160250D01*
X152633602Y-96180761D01*
X152622853Y-96184316D01*
X152622185Y-96172741D01*
X152622716Y-96170130D01*
X152628403Y-96147040D01*
X152640412Y-96100599D01*
X152658126Y-96033101D01*
X152680928Y-95946839D01*
X152708203Y-95844108D01*
X152739333Y-95727201D01*
X152773704Y-95598413D01*
X152810698Y-95460037D01*
X152849699Y-95314366D01*
X152890091Y-95163696D01*
X152931257Y-95010319D01*
X152972581Y-94856529D01*
X153013448Y-94704621D01*
X153053240Y-94556889D01*
X153091341Y-94415625D01*
X153127136Y-94283124D01*
X153160007Y-94161680D01*
X153189338Y-94053587D01*
X153214514Y-93961138D01*
X153234918Y-93886627D01*
X153249932Y-93832349D01*
X153258943Y-93800596D01*
X153261407Y-93792944D01*
X153260575Y-93807062D01*
G37*
G36*
X139183706Y-93049088D02*
G01*
X139200233Y-93056630D01*
X139235009Y-93068602D01*
X139253940Y-93070889D01*
X139260454Y-93071544D01*
X139265794Y-93075118D01*
X139270042Y-93084029D01*
X139273283Y-93100695D01*
X139275598Y-93127532D01*
X139277071Y-93166957D01*
X139277785Y-93221387D01*
X139277822Y-93293240D01*
X139277265Y-93384933D01*
X139276198Y-93498882D01*
X139274703Y-93637504D01*
X139274380Y-93666632D01*
X139272881Y-93792365D01*
X139271286Y-93909693D01*
X139269650Y-94015727D01*
X139268026Y-94107574D01*
X139266467Y-94182344D01*
X139265027Y-94237146D01*
X139263760Y-94269088D01*
X139263084Y-94276150D01*
X139261401Y-94268113D01*
X139259840Y-94236875D01*
X139258533Y-94186783D01*
X139257607Y-94122183D01*
X139257315Y-94083308D01*
X139255092Y-93940852D01*
X139250131Y-93794207D01*
X139242792Y-93648904D01*
X139233438Y-93510477D01*
X139222429Y-93384455D01*
X139210124Y-93276372D01*
X139200454Y-93211516D01*
X139189867Y-93149104D01*
X139181246Y-93097349D01*
X139175515Y-93061865D01*
X139173589Y-93048374D01*
X139183706Y-93049088D01*
G37*
D12*
%TO.C,LS1*%
X120110000Y-90870000D02*
X122610000Y-90870000D01*
X122610000Y-90870000D02*
X122610000Y-101870000D01*
X122610000Y-101870000D02*
X120110000Y-101870000D01*
X116360000Y-90870000D02*
X113610000Y-90870000D01*
X113610000Y-90870000D02*
X113610000Y-101870000D01*
X113610000Y-101870000D02*
X116360000Y-101870000D01*
D16*
%TO.C,U1*%
X174924124Y-101491885D02*
X175260000Y-101156009D01*
X175260000Y-101156009D02*
X175595876Y-101491885D01*
X175595876Y-106788115D02*
X175260000Y-107123991D01*
X175260000Y-107123991D02*
X174924124Y-106788115D01*
X177908115Y-104475876D02*
X178243991Y-104140000D01*
X178243991Y-104140000D02*
X177908115Y-103804124D01*
X172611885Y-103804124D02*
X172276009Y-104140000D01*
D17*
%TO.C,SW4*%
X172260000Y-126480000D02*
X172260000Y-120480000D01*
X172260000Y-120480000D02*
X178260000Y-120480000D01*
X178260000Y-120480000D02*
X178260000Y-126480000D01*
X178260000Y-126480000D02*
X172260000Y-126480000D01*
X169044000Y-120388000D02*
G75*
G03*
X169044000Y-120388000I-89000J0D01*
G01*
%TO.C,SW3*%
X115110000Y-126190000D02*
X115110000Y-120190000D01*
X115110000Y-120190000D02*
X121110000Y-120190000D01*
X121110000Y-120190000D02*
X121110000Y-126190000D01*
X121110000Y-126190000D02*
X115110000Y-126190000D01*
X111894000Y-120098000D02*
G75*
G03*
X111894000Y-120098000I-89000J0D01*
G01*
%TO.C,SW2*%
X172260000Y-76370000D02*
X172260000Y-70370000D01*
X172260000Y-70370000D02*
X178260000Y-70370000D01*
X178260000Y-70370000D02*
X178260000Y-76370000D01*
X178260000Y-76370000D02*
X172260000Y-76370000D01*
X169044000Y-70278000D02*
G75*
G03*
X169044000Y-70278000I-89000J0D01*
G01*
%TO.C,SW1*%
X115110000Y-76370000D02*
X115110000Y-70370000D01*
X115110000Y-70370000D02*
X121110000Y-70370000D01*
X121110000Y-70370000D02*
X121110000Y-76370000D01*
X121110000Y-76370000D02*
X115110000Y-76370000D01*
X111894000Y-70278000D02*
G75*
G03*
X111894000Y-70278000I-89000J0D01*
G01*
D12*
%TO.C,S1*%
X159900000Y-127000000D02*
X164900000Y-127000000D01*
X159050000Y-125950000D02*
X159050000Y-125450000D01*
X165750000Y-125950000D02*
X165750000Y-125450000D01*
X160900000Y-124400000D02*
X162400000Y-124400000D01*
D16*
%TO.C,R7*%
X158022936Y-114660000D02*
X159477064Y-114660000D01*
X158022936Y-116480000D02*
X159477064Y-116480000D01*
%TO.C,R5*%
X117382936Y-82910000D02*
X118837064Y-82910000D01*
X117382936Y-84730000D02*
X118837064Y-84730000D01*
%TO.C,R4*%
X174532936Y-82910000D02*
X175987064Y-82910000D01*
X174532936Y-84730000D02*
X175987064Y-84730000D01*
%TO.C,R3*%
X117382936Y-110850000D02*
X118837064Y-110850000D01*
X117382936Y-112670000D02*
X118837064Y-112670000D01*
%TO.C,R2*%
X175987064Y-112670000D02*
X174532936Y-112670000D01*
X175987064Y-110850000D02*
X174532936Y-110850000D01*
%TO.C,R1*%
X171542064Y-98700000D02*
X170087936Y-98700000D01*
X171542064Y-96880000D02*
X170087936Y-96880000D01*
D12*
%TO.C,DS1*%
X138790000Y-116650000D02*
X138790000Y-124650000D01*
X145690000Y-116650000D02*
X145690000Y-124650000D01*
D13*
X139240000Y-127650000D02*
X139240000Y-127650000D01*
X139140000Y-127650000D02*
X139140000Y-127650000D01*
X139240000Y-127650000D02*
G75*
G03*
X139140000Y-127650000I-50000J0D01*
G01*
X139140000Y-127650000D02*
G75*
G03*
X139240000Y-127650000I50000J0D01*
G01*
D16*
%TO.C,D4*%
X176860000Y-114435000D02*
X172800000Y-114435000D01*
X172800000Y-114435000D02*
X172800000Y-116705000D01*
X172800000Y-116705000D02*
X176860000Y-116705000D01*
%TO.C,D3*%
X119710000Y-114435000D02*
X115650000Y-114435000D01*
X115650000Y-114435000D02*
X115650000Y-116705000D01*
X115650000Y-116705000D02*
X119710000Y-116705000D01*
%TO.C,D2*%
X176860000Y-78875000D02*
X172800000Y-78875000D01*
X172800000Y-78875000D02*
X172800000Y-81145000D01*
X172800000Y-81145000D02*
X176860000Y-81145000D01*
%TO.C,D1*%
X119710000Y-78875000D02*
X115650000Y-78875000D01*
X115650000Y-78875000D02*
X115650000Y-81145000D01*
X115650000Y-81145000D02*
X119710000Y-81145000D01*
%TO.C,R10*%
X164372936Y-114660000D02*
X165827064Y-114660000D01*
X164372936Y-116480000D02*
X165827064Y-116480000D01*
%TO.C,R9*%
X158022936Y-118470000D02*
X159477064Y-118470000D01*
X158022936Y-120290000D02*
X159477064Y-120290000D01*
%TO.C,R8*%
X164372936Y-118470000D02*
X165827064Y-118470000D01*
X164372936Y-120290000D02*
X165827064Y-120290000D01*
D12*
%TO.C,IC2*%
X129060000Y-116240000D02*
X129060000Y-115590000D01*
X129060000Y-118090000D02*
X129060000Y-117440000D01*
X132560000Y-116240000D02*
X132560000Y-115590000D01*
X132560000Y-118090000D02*
X132560000Y-117440000D01*
%TO.C,IC1*%
X132560000Y-124440000D02*
X132560000Y-123790000D01*
X132560000Y-122590000D02*
X132560000Y-121940000D01*
X129060000Y-124440000D02*
X129060000Y-123790000D01*
X129060000Y-122590000D02*
X129060000Y-121940000D01*
%TO.C,DS2*%
X146410000Y-116650000D02*
X146410000Y-124650000D01*
X153310000Y-116650000D02*
X153310000Y-124650000D01*
D13*
X146860000Y-127650000D02*
X146860000Y-127650000D01*
X146760000Y-127650000D02*
X146760000Y-127650000D01*
X146860000Y-127650000D02*
G75*
G03*
X146760000Y-127650000I-50000J0D01*
G01*
X146760000Y-127650000D02*
G75*
G03*
X146860000Y-127650000I50000J0D01*
G01*
%TD*%
M02*
