%TF.GenerationSoftware,KiCad,Pcbnew,(6.0.0)*%
%TF.CreationDate,2022-05-08T17:08:30-04:00*%
%TF.ProjectId,QR_ATTINY3217,51525f41-5454-4494-9e59-333231372e6b,rev?*%
%TF.SameCoordinates,Original*%
%TF.FileFunction,Legend,Bot*%
%TF.FilePolarity,Positive*%
%FSLAX46Y46*%
G04 Gerber Fmt 4.6, Leading zero omitted, Abs format (unit mm)*
G04 Created by KiCad (PCBNEW (6.0.0)) date 2022-05-08 17:08:30*
%MOMM*%
%LPD*%
G01*
G04 APERTURE LIST*
%ADD10C,0.150000*%
%ADD11C,0.100000*%
%ADD12C,0.250000*%
%ADD13C,0.120000*%
%ADD14C,0.200000*%
G04 APERTURE END LIST*
D10*
X177546000Y-106934000D02*
X180594000Y-106934000D01*
X177546000Y-108966000D02*
X177546000Y-106934000D01*
X180594000Y-108966000D02*
X177546000Y-108966000D01*
X180594000Y-106934000D02*
X180594000Y-108966000D01*
X178054000Y-81534000D02*
X174244000Y-86360000D01*
X167132000Y-86360000D02*
X168402000Y-86360000D01*
X167132000Y-96012000D02*
X167132000Y-86360000D01*
X174244000Y-96012000D02*
X167132000Y-96012000D01*
X174244000Y-86360000D02*
X174244000Y-96012000D01*
X168402000Y-86360000D02*
X174244000Y-86360000D01*
X180085714Y-81351333D02*
X180133333Y-81303714D01*
X180228571Y-81160857D01*
X180276190Y-81065619D01*
X180323809Y-80922761D01*
X180371428Y-80684666D01*
X180371428Y-80494190D01*
X180323809Y-80256095D01*
X180276190Y-80113238D01*
X180228571Y-80018000D01*
X180133333Y-79875142D01*
X180085714Y-79827523D01*
X179704761Y-79970380D02*
X179704761Y-80779904D01*
X179657142Y-80875142D01*
X179609523Y-80922761D01*
X179514285Y-80970380D01*
X179323809Y-80970380D01*
X179228571Y-80922761D01*
X179180952Y-80875142D01*
X179133333Y-80779904D01*
X179133333Y-79970380D01*
X178657142Y-80970380D02*
X178657142Y-79970380D01*
X178419047Y-79970380D01*
X178276190Y-80018000D01*
X178180952Y-80113238D01*
X178133333Y-80208476D01*
X178085714Y-80398952D01*
X178085714Y-80541809D01*
X178133333Y-80732285D01*
X178180952Y-80827523D01*
X178276190Y-80922761D01*
X178419047Y-80970380D01*
X178657142Y-80970380D01*
X177657142Y-80970380D02*
X177657142Y-79970380D01*
X177276190Y-79970380D01*
X177180952Y-80018000D01*
X177133333Y-80065619D01*
X177085714Y-80160857D01*
X177085714Y-80303714D01*
X177133333Y-80398952D01*
X177180952Y-80446571D01*
X177276190Y-80494190D01*
X177657142Y-80494190D01*
X176657142Y-80970380D02*
X176657142Y-79970380D01*
X176276190Y-81351333D02*
X176228571Y-81303714D01*
X176133333Y-81160857D01*
X176085714Y-81065619D01*
X176038095Y-80922761D01*
X175990476Y-80684666D01*
X175990476Y-80494190D01*
X176038095Y-80256095D01*
X176085714Y-80113238D01*
X176133333Y-80018000D01*
X176228571Y-79875142D01*
X176276190Y-79827523D01*
X174244000Y-94742000D02*
X173482000Y-93980000D01*
X173482000Y-93980000D02*
X174244000Y-93218000D01*
X174244000Y-93218000D02*
X174244000Y-94742000D01*
G36*
X174244000Y-94742000D02*
G01*
X173482000Y-93980000D01*
X174244000Y-93218000D01*
X174244000Y-94742000D01*
G37*
X174244000Y-94742000D02*
X173482000Y-93980000D01*
X174244000Y-93218000D01*
X174244000Y-94742000D01*
X174244000Y-89662000D02*
X173482000Y-88900000D01*
X173482000Y-88900000D02*
X174244000Y-88138000D01*
X174244000Y-88138000D02*
X174244000Y-89662000D01*
G36*
X174244000Y-89662000D02*
G01*
X173482000Y-88900000D01*
X174244000Y-88138000D01*
X174244000Y-89662000D01*
G37*
X174244000Y-89662000D02*
X173482000Y-88900000D01*
X174244000Y-88138000D01*
X174244000Y-89662000D01*
X170434000Y-86360000D02*
X169672000Y-87122000D01*
X169672000Y-87122000D02*
X168910000Y-86360000D01*
X168910000Y-86360000D02*
X170434000Y-86360000D01*
G36*
X169672000Y-87122000D02*
G01*
X168910000Y-86360000D01*
X170434000Y-86360000D01*
X169672000Y-87122000D01*
G37*
X169672000Y-87122000D02*
X168910000Y-86360000D01*
X170434000Y-86360000D01*
X169672000Y-87122000D01*
X180109523Y-89352380D02*
X180109523Y-88352380D01*
X179728571Y-88352380D01*
X179633333Y-88400000D01*
X179585714Y-88447619D01*
X179538095Y-88542857D01*
X179538095Y-88685714D01*
X179585714Y-88780952D01*
X179633333Y-88828571D01*
X179728571Y-88876190D01*
X180109523Y-88876190D01*
X178919047Y-88352380D02*
X178728571Y-88352380D01*
X178633333Y-88400000D01*
X178538095Y-88495238D01*
X178490476Y-88685714D01*
X178490476Y-89019047D01*
X178538095Y-89209523D01*
X178633333Y-89304761D01*
X178728571Y-89352380D01*
X178919047Y-89352380D01*
X179014285Y-89304761D01*
X179109523Y-89209523D01*
X179157142Y-89019047D01*
X179157142Y-88685714D01*
X179109523Y-88495238D01*
X179014285Y-88400000D01*
X178919047Y-88352380D01*
X178157142Y-88352380D02*
X177919047Y-89352380D01*
X177728571Y-88638095D01*
X177538095Y-89352380D01*
X177300000Y-88352380D01*
X176919047Y-88828571D02*
X176585714Y-88828571D01*
X176442857Y-89352380D02*
X176919047Y-89352380D01*
X176919047Y-88352380D01*
X176442857Y-88352380D01*
X175442857Y-89352380D02*
X175776190Y-88876190D01*
X176014285Y-89352380D02*
X176014285Y-88352380D01*
X175633333Y-88352380D01*
X175538095Y-88400000D01*
X175490476Y-88447619D01*
X175442857Y-88542857D01*
X175442857Y-88685714D01*
X175490476Y-88780952D01*
X175538095Y-88828571D01*
X175633333Y-88876190D01*
X176014285Y-88876190D01*
X180617523Y-93480000D02*
X180712761Y-93432380D01*
X180855619Y-93432380D01*
X180998476Y-93480000D01*
X181093714Y-93575238D01*
X181141333Y-93670476D01*
X181188952Y-93860952D01*
X181188952Y-94003809D01*
X181141333Y-94194285D01*
X181093714Y-94289523D01*
X180998476Y-94384761D01*
X180855619Y-94432380D01*
X180760380Y-94432380D01*
X180617523Y-94384761D01*
X180569904Y-94337142D01*
X180569904Y-94003809D01*
X180760380Y-94003809D01*
X179569904Y-94432380D02*
X179903238Y-93956190D01*
X180141333Y-94432380D02*
X180141333Y-93432380D01*
X179760380Y-93432380D01*
X179665142Y-93480000D01*
X179617523Y-93527619D01*
X179569904Y-93622857D01*
X179569904Y-93765714D01*
X179617523Y-93860952D01*
X179665142Y-93908571D01*
X179760380Y-93956190D01*
X180141333Y-93956190D01*
X178950857Y-93432380D02*
X178760380Y-93432380D01*
X178665142Y-93480000D01*
X178569904Y-93575238D01*
X178522285Y-93765714D01*
X178522285Y-94099047D01*
X178569904Y-94289523D01*
X178665142Y-94384761D01*
X178760380Y-94432380D01*
X178950857Y-94432380D01*
X179046095Y-94384761D01*
X179141333Y-94289523D01*
X179188952Y-94099047D01*
X179188952Y-93765714D01*
X179141333Y-93575238D01*
X179046095Y-93480000D01*
X178950857Y-93432380D01*
X178093714Y-93432380D02*
X178093714Y-94241904D01*
X178046095Y-94337142D01*
X177998476Y-94384761D01*
X177903238Y-94432380D01*
X177712761Y-94432380D01*
X177617523Y-94384761D01*
X177569904Y-94337142D01*
X177522285Y-94241904D01*
X177522285Y-93432380D01*
X177046095Y-94432380D02*
X177046095Y-93432380D01*
X176474666Y-94432380D01*
X176474666Y-93432380D01*
X175998476Y-94432380D02*
X175998476Y-93432380D01*
X175760380Y-93432380D01*
X175617523Y-93480000D01*
X175522285Y-93575238D01*
X175474666Y-93670476D01*
X175427047Y-93860952D01*
X175427047Y-94003809D01*
X175474666Y-94194285D01*
X175522285Y-94289523D01*
X175617523Y-94384761D01*
X175760380Y-94432380D01*
X175998476Y-94432380D01*
X171172000Y-85542380D02*
X171172000Y-84542380D01*
X170933904Y-84542380D01*
X170791047Y-84590000D01*
X170695809Y-84685238D01*
X170648190Y-84780476D01*
X170600571Y-84970952D01*
X170600571Y-85113809D01*
X170648190Y-85304285D01*
X170695809Y-85399523D01*
X170791047Y-85494761D01*
X170933904Y-85542380D01*
X171172000Y-85542380D01*
X170219619Y-85256666D02*
X169743428Y-85256666D01*
X170314857Y-85542380D02*
X169981523Y-84542380D01*
X169648190Y-85542380D01*
X169457714Y-84542380D02*
X168886285Y-84542380D01*
X169172000Y-85542380D02*
X169172000Y-84542380D01*
X168600571Y-85256666D02*
X168124380Y-85256666D01*
X168695809Y-85542380D02*
X168362476Y-84542380D01*
X168029142Y-85542380D01*
X149860000Y-126492000D02*
X149098000Y-125730000D01*
X149098000Y-125730000D02*
X149860000Y-124968000D01*
X149860000Y-124968000D02*
X149860000Y-126492000D01*
G36*
X149860000Y-126492000D02*
G01*
X149098000Y-125730000D01*
X149860000Y-124968000D01*
X149860000Y-126492000D01*
G37*
X149860000Y-126492000D02*
X149098000Y-125730000D01*
X149860000Y-124968000D01*
X149860000Y-126492000D01*
D11*
X152823714Y-126001428D02*
X152823714Y-125401428D01*
X152595142Y-125401428D01*
X152538000Y-125430000D01*
X152509428Y-125458571D01*
X152480857Y-125515714D01*
X152480857Y-125601428D01*
X152509428Y-125658571D01*
X152538000Y-125687142D01*
X152595142Y-125715714D01*
X152823714Y-125715714D01*
X152138000Y-126001428D02*
X152195142Y-125972857D01*
X152223714Y-125944285D01*
X152252285Y-125887142D01*
X152252285Y-125715714D01*
X152223714Y-125658571D01*
X152195142Y-125630000D01*
X152138000Y-125601428D01*
X152052285Y-125601428D01*
X151995142Y-125630000D01*
X151966571Y-125658571D01*
X151938000Y-125715714D01*
X151938000Y-125887142D01*
X151966571Y-125944285D01*
X151995142Y-125972857D01*
X152052285Y-126001428D01*
X152138000Y-126001428D01*
X151738000Y-125601428D02*
X151623714Y-126001428D01*
X151509428Y-125715714D01*
X151395142Y-126001428D01*
X151280857Y-125601428D01*
X150823714Y-125972857D02*
X150880857Y-126001428D01*
X150995142Y-126001428D01*
X151052285Y-125972857D01*
X151080857Y-125915714D01*
X151080857Y-125687142D01*
X151052285Y-125630000D01*
X150995142Y-125601428D01*
X150880857Y-125601428D01*
X150823714Y-125630000D01*
X150795142Y-125687142D01*
X150795142Y-125744285D01*
X151080857Y-125801428D01*
X150538000Y-126001428D02*
X150538000Y-125601428D01*
X150538000Y-125715714D02*
X150509428Y-125658571D01*
X150480857Y-125630000D01*
X150423714Y-125601428D01*
X150366571Y-125601428D01*
D10*
X174879000Y-111633000D02*
X177546000Y-108966000D01*
X163322000Y-80010000D02*
X162560000Y-79248000D01*
X162560000Y-79248000D02*
X163322000Y-78486000D01*
X163322000Y-78486000D02*
X163322000Y-80010000D01*
G36*
X163322000Y-80010000D02*
G01*
X162560000Y-79248000D01*
X163322000Y-78486000D01*
X163322000Y-80010000D01*
G37*
X163322000Y-80010000D02*
X162560000Y-79248000D01*
X163322000Y-78486000D01*
X163322000Y-80010000D01*
D12*
X162417238Y-91582285D02*
X162417238Y-92534666D01*
X164417238Y-92534666D01*
X162417238Y-90915619D02*
X163750571Y-90915619D01*
X164417238Y-90915619D02*
X164322000Y-91010857D01*
X164226761Y-90915619D01*
X164322000Y-90820380D01*
X164417238Y-90915619D01*
X164226761Y-90915619D01*
X163750571Y-89963238D02*
X162417238Y-89963238D01*
X163560095Y-89963238D02*
X163655333Y-89868000D01*
X163750571Y-89677523D01*
X163750571Y-89391809D01*
X163655333Y-89201333D01*
X163464857Y-89106095D01*
X162417238Y-89106095D01*
X162417238Y-88153714D02*
X164417238Y-88153714D01*
X163179142Y-87963238D02*
X162417238Y-87391809D01*
X163750571Y-87391809D02*
X162988666Y-88153714D01*
X162512476Y-85772761D02*
X162417238Y-85963238D01*
X162417238Y-86344190D01*
X162512476Y-86534666D01*
X162702952Y-86629904D01*
X163464857Y-86629904D01*
X163655333Y-86534666D01*
X163750571Y-86344190D01*
X163750571Y-85963238D01*
X163655333Y-85772761D01*
X163464857Y-85677523D01*
X163274380Y-85677523D01*
X163083904Y-86629904D01*
X162417238Y-83963238D02*
X164417238Y-83963238D01*
X162512476Y-83963238D02*
X162417238Y-84153714D01*
X162417238Y-84534666D01*
X162512476Y-84725142D01*
X162607714Y-84820380D01*
X162798190Y-84915619D01*
X163369619Y-84915619D01*
X163560095Y-84820380D01*
X163655333Y-84725142D01*
X163750571Y-84534666D01*
X163750571Y-84153714D01*
X163655333Y-83963238D01*
X162417238Y-83010857D02*
X164417238Y-83010857D01*
X163750571Y-82058476D02*
X162417238Y-82058476D01*
X163560095Y-82058476D02*
X163655333Y-81963238D01*
X163750571Y-81772761D01*
X163750571Y-81487047D01*
X163655333Y-81296571D01*
X163464857Y-81201333D01*
X162417238Y-81201333D01*
D10*
X124586714Y-114066285D02*
X126386714Y-114066285D01*
X124586714Y-113037714D02*
X125615285Y-113809142D01*
X126386714Y-113037714D02*
X125358142Y-114066285D01*
X124586714Y-112266285D02*
X125786714Y-112266285D01*
X126386714Y-112266285D02*
X126301000Y-112352000D01*
X126215285Y-112266285D01*
X126301000Y-112180571D01*
X126386714Y-112266285D01*
X126215285Y-112266285D01*
X124758142Y-110380571D02*
X124672428Y-110466285D01*
X124586714Y-110723428D01*
X124586714Y-110894857D01*
X124672428Y-111152000D01*
X124843857Y-111323428D01*
X125015285Y-111409142D01*
X125358142Y-111494857D01*
X125615285Y-111494857D01*
X125958142Y-111409142D01*
X126129571Y-111323428D01*
X126301000Y-111152000D01*
X126386714Y-110894857D01*
X126386714Y-110723428D01*
X126301000Y-110466285D01*
X126215285Y-110380571D01*
X125101000Y-109694857D02*
X125101000Y-108837714D01*
X124586714Y-109866285D02*
X126386714Y-109266285D01*
X124586714Y-108666285D01*
X124586714Y-108066285D02*
X126386714Y-108066285D01*
X126386714Y-107637714D01*
X126301000Y-107380571D01*
X126129571Y-107209142D01*
X125958142Y-107123428D01*
X125615285Y-107037714D01*
X125358142Y-107037714D01*
X125015285Y-107123428D01*
X124843857Y-107209142D01*
X124672428Y-107380571D01*
X124586714Y-107637714D01*
X124586714Y-108066285D01*
X124672428Y-104980571D02*
X124586714Y-104809142D01*
X124586714Y-104466285D01*
X124672428Y-104294857D01*
X124843857Y-104209142D01*
X124929571Y-104209142D01*
X125101000Y-104294857D01*
X125186714Y-104466285D01*
X125186714Y-104723428D01*
X125272428Y-104894857D01*
X125443857Y-104980571D01*
X125529571Y-104980571D01*
X125701000Y-104894857D01*
X125786714Y-104723428D01*
X125786714Y-104466285D01*
X125701000Y-104294857D01*
X124672428Y-102666285D02*
X124586714Y-102837714D01*
X124586714Y-103180571D01*
X124672428Y-103352000D01*
X124758142Y-103437714D01*
X124929571Y-103523428D01*
X125443857Y-103523428D01*
X125615285Y-103437714D01*
X125701000Y-103352000D01*
X125786714Y-103180571D01*
X125786714Y-102837714D01*
X125701000Y-102666285D01*
X124586714Y-101894857D02*
X126386714Y-101894857D01*
X124586714Y-101123428D02*
X125529571Y-101123428D01*
X125701000Y-101209142D01*
X125786714Y-101380571D01*
X125786714Y-101637714D01*
X125701000Y-101809142D01*
X125615285Y-101894857D01*
X124672428Y-99580571D02*
X124586714Y-99752000D01*
X124586714Y-100094857D01*
X124672428Y-100266285D01*
X124843857Y-100352000D01*
X125529571Y-100352000D01*
X125701000Y-100266285D01*
X125786714Y-100094857D01*
X125786714Y-99752000D01*
X125701000Y-99580571D01*
X125529571Y-99494857D01*
X125358142Y-99494857D01*
X125186714Y-100352000D01*
X124586714Y-98723428D02*
X125786714Y-98723428D01*
X125615285Y-98723428D02*
X125701000Y-98637714D01*
X125786714Y-98466285D01*
X125786714Y-98209142D01*
X125701000Y-98037714D01*
X125529571Y-97952000D01*
X124586714Y-97952000D01*
X125529571Y-97952000D02*
X125701000Y-97866285D01*
X125786714Y-97694857D01*
X125786714Y-97437714D01*
X125701000Y-97266285D01*
X125529571Y-97180571D01*
X124586714Y-97180571D01*
X124586714Y-95552000D02*
X125529571Y-95552000D01*
X125701000Y-95637714D01*
X125786714Y-95809142D01*
X125786714Y-96152000D01*
X125701000Y-96323428D01*
X124672428Y-95552000D02*
X124586714Y-95723428D01*
X124586714Y-96152000D01*
X124672428Y-96323428D01*
X124843857Y-96409142D01*
X125015285Y-96409142D01*
X125186714Y-96323428D01*
X125272428Y-96152000D01*
X125272428Y-95723428D01*
X125358142Y-95552000D01*
X125786714Y-94952000D02*
X125786714Y-94266285D01*
X126386714Y-94694857D02*
X124843857Y-94694857D01*
X124672428Y-94609142D01*
X124586714Y-94437714D01*
X124586714Y-94266285D01*
X124586714Y-93666285D02*
X125786714Y-93666285D01*
X126386714Y-93666285D02*
X126301000Y-93752000D01*
X126215285Y-93666285D01*
X126301000Y-93580571D01*
X126386714Y-93666285D01*
X126215285Y-93666285D01*
X124672428Y-92037714D02*
X124586714Y-92209142D01*
X124586714Y-92552000D01*
X124672428Y-92723428D01*
X124758142Y-92809142D01*
X124929571Y-92894857D01*
X125443857Y-92894857D01*
X125615285Y-92809142D01*
X125701000Y-92723428D01*
X125786714Y-92552000D01*
X125786714Y-92209142D01*
X125701000Y-92037714D01*
X124672428Y-91352000D02*
X124586714Y-91180571D01*
X124586714Y-90837714D01*
X124672428Y-90666285D01*
X124843857Y-90580571D01*
X124929571Y-90580571D01*
X125101000Y-90666285D01*
X125186714Y-90837714D01*
X125186714Y-91094857D01*
X125272428Y-91266285D01*
X125443857Y-91352000D01*
X125529571Y-91352000D01*
X125701000Y-91266285D01*
X125786714Y-91094857D01*
X125786714Y-90837714D01*
X125701000Y-90666285D01*
X124586714Y-87666285D02*
X125529571Y-87666285D01*
X125701000Y-87752000D01*
X125786714Y-87923428D01*
X125786714Y-88266285D01*
X125701000Y-88437714D01*
X124672428Y-87666285D02*
X124586714Y-87837714D01*
X124586714Y-88266285D01*
X124672428Y-88437714D01*
X124843857Y-88523428D01*
X125015285Y-88523428D01*
X125186714Y-88437714D01*
X125272428Y-88266285D01*
X125272428Y-87837714D01*
X125358142Y-87666285D01*
X125786714Y-86809142D02*
X124586714Y-86809142D01*
X125615285Y-86809142D02*
X125701000Y-86723428D01*
X125786714Y-86552000D01*
X125786714Y-86294857D01*
X125701000Y-86123428D01*
X125529571Y-86037714D01*
X124586714Y-86037714D01*
X124586714Y-84409142D02*
X126386714Y-84409142D01*
X124672428Y-84409142D02*
X124586714Y-84580571D01*
X124586714Y-84923428D01*
X124672428Y-85094857D01*
X124758142Y-85180571D01*
X124929571Y-85266285D01*
X125443857Y-85266285D01*
X125615285Y-85180571D01*
X125701000Y-85094857D01*
X125786714Y-84923428D01*
X125786714Y-84580571D01*
X125701000Y-84409142D01*
X121860142Y-111066285D02*
X121774428Y-111152000D01*
X121688714Y-111409142D01*
X121688714Y-111580571D01*
X121774428Y-111837714D01*
X121945857Y-112009142D01*
X122117285Y-112094857D01*
X122460142Y-112180571D01*
X122717285Y-112180571D01*
X123060142Y-112094857D01*
X123231571Y-112009142D01*
X123403000Y-111837714D01*
X123488714Y-111580571D01*
X123488714Y-111409142D01*
X123403000Y-111152000D01*
X123317285Y-111066285D01*
X121774428Y-108152000D02*
X121688714Y-108323428D01*
X121688714Y-108666285D01*
X121774428Y-108837714D01*
X121860142Y-108923428D01*
X122031571Y-109009142D01*
X122545857Y-109009142D01*
X122717285Y-108923428D01*
X122803000Y-108837714D01*
X122888714Y-108666285D01*
X122888714Y-108323428D01*
X122803000Y-108152000D01*
X121688714Y-107123428D02*
X121774428Y-107294857D01*
X121860142Y-107380571D01*
X122031571Y-107466285D01*
X122545857Y-107466285D01*
X122717285Y-107380571D01*
X122803000Y-107294857D01*
X122888714Y-107123428D01*
X122888714Y-106866285D01*
X122803000Y-106694857D01*
X122717285Y-106609142D01*
X122545857Y-106523428D01*
X122031571Y-106523428D01*
X121860142Y-106609142D01*
X121774428Y-106694857D01*
X121688714Y-106866285D01*
X121688714Y-107123428D01*
X121688714Y-104980571D02*
X123488714Y-104980571D01*
X121774428Y-104980571D02*
X121688714Y-105152000D01*
X121688714Y-105494857D01*
X121774428Y-105666285D01*
X121860142Y-105752000D01*
X122031571Y-105837714D01*
X122545857Y-105837714D01*
X122717285Y-105752000D01*
X122803000Y-105666285D01*
X122888714Y-105494857D01*
X122888714Y-105152000D01*
X122803000Y-104980571D01*
X121774428Y-103437714D02*
X121688714Y-103609142D01*
X121688714Y-103952000D01*
X121774428Y-104123428D01*
X121945857Y-104209142D01*
X122631571Y-104209142D01*
X122803000Y-104123428D01*
X122888714Y-103952000D01*
X122888714Y-103609142D01*
X122803000Y-103437714D01*
X122631571Y-103352000D01*
X122460142Y-103352000D01*
X122288714Y-104209142D01*
X121688714Y-100437714D02*
X122631571Y-100437714D01*
X122803000Y-100523428D01*
X122888714Y-100694857D01*
X122888714Y-101037714D01*
X122803000Y-101209142D01*
X121774428Y-100437714D02*
X121688714Y-100609142D01*
X121688714Y-101037714D01*
X121774428Y-101209142D01*
X121945857Y-101294857D01*
X122117285Y-101294857D01*
X122288714Y-101209142D01*
X122374428Y-101037714D01*
X122374428Y-100609142D01*
X122460142Y-100437714D01*
X122888714Y-99752000D02*
X121688714Y-99323428D01*
X122888714Y-98894857D01*
X121688714Y-97437714D02*
X122631571Y-97437714D01*
X122803000Y-97523428D01*
X122888714Y-97694857D01*
X122888714Y-98037714D01*
X122803000Y-98209142D01*
X121774428Y-97437714D02*
X121688714Y-97609142D01*
X121688714Y-98037714D01*
X121774428Y-98209142D01*
X121945857Y-98294857D01*
X122117285Y-98294857D01*
X122288714Y-98209142D01*
X122374428Y-98037714D01*
X122374428Y-97609142D01*
X122460142Y-97437714D01*
X121688714Y-96580571D02*
X122888714Y-96580571D01*
X123488714Y-96580571D02*
X123403000Y-96666285D01*
X123317285Y-96580571D01*
X123403000Y-96494857D01*
X123488714Y-96580571D01*
X123317285Y-96580571D01*
X121688714Y-95466285D02*
X121774428Y-95637714D01*
X121945857Y-95723428D01*
X123488714Y-95723428D01*
X121688714Y-94009142D02*
X122631571Y-94009142D01*
X122803000Y-94094857D01*
X122888714Y-94266285D01*
X122888714Y-94609142D01*
X122803000Y-94780571D01*
X121774428Y-94009142D02*
X121688714Y-94180571D01*
X121688714Y-94609142D01*
X121774428Y-94780571D01*
X121945857Y-94866285D01*
X122117285Y-94866285D01*
X122288714Y-94780571D01*
X122374428Y-94609142D01*
X122374428Y-94180571D01*
X122460142Y-94009142D01*
X121688714Y-93152000D02*
X123488714Y-93152000D01*
X122803000Y-93152000D02*
X122888714Y-92980571D01*
X122888714Y-92637714D01*
X122803000Y-92466285D01*
X122717285Y-92380571D01*
X122545857Y-92294857D01*
X122031571Y-92294857D01*
X121860142Y-92380571D01*
X121774428Y-92466285D01*
X121688714Y-92637714D01*
X121688714Y-92980571D01*
X121774428Y-93152000D01*
X121688714Y-91266285D02*
X121774428Y-91437714D01*
X121945857Y-91523428D01*
X123488714Y-91523428D01*
X121774428Y-89894857D02*
X121688714Y-90066285D01*
X121688714Y-90409142D01*
X121774428Y-90580571D01*
X121945857Y-90666285D01*
X122631571Y-90666285D01*
X122803000Y-90580571D01*
X122888714Y-90409142D01*
X122888714Y-90066285D01*
X122803000Y-89894857D01*
X122631571Y-89809142D01*
X122460142Y-89809142D01*
X122288714Y-90666285D01*
X121688714Y-86894857D02*
X122631571Y-86894857D01*
X122803000Y-86980571D01*
X122888714Y-87152000D01*
X122888714Y-87494857D01*
X122803000Y-87666285D01*
X121774428Y-86894857D02*
X121688714Y-87066285D01*
X121688714Y-87494857D01*
X121774428Y-87666285D01*
X121945857Y-87752000D01*
X122117285Y-87752000D01*
X122288714Y-87666285D01*
X122374428Y-87494857D01*
X122374428Y-87066285D01*
X122460142Y-86894857D01*
X122888714Y-86294857D02*
X122888714Y-85609142D01*
X123488714Y-86037714D02*
X121945857Y-86037714D01*
X121774428Y-85952000D01*
X121688714Y-85780571D01*
X121688714Y-85609142D01*
X121860142Y-85009142D02*
X121774428Y-84923428D01*
X121688714Y-85009142D01*
X121774428Y-85094857D01*
X121860142Y-85009142D01*
X121688714Y-85009142D01*
X122803000Y-85009142D02*
X122717285Y-84923428D01*
X122631571Y-85009142D01*
X122717285Y-85094857D01*
X122803000Y-85009142D01*
X122631571Y-85009142D01*
X117247142Y-124066285D02*
X115709047Y-124066285D01*
X115528095Y-124156761D01*
X115437619Y-124247238D01*
X115347142Y-124428190D01*
X115347142Y-124699619D01*
X115437619Y-124880571D01*
X116070952Y-124066285D02*
X115980476Y-124247238D01*
X115980476Y-124609142D01*
X116070952Y-124790095D01*
X116161428Y-124880571D01*
X116342380Y-124971047D01*
X116885238Y-124971047D01*
X117066190Y-124880571D01*
X117156666Y-124790095D01*
X117247142Y-124609142D01*
X117247142Y-124247238D01*
X117156666Y-124066285D01*
X115980476Y-123161523D02*
X117247142Y-123161523D01*
X117880476Y-123161523D02*
X117790000Y-123252000D01*
X117699523Y-123161523D01*
X117790000Y-123071047D01*
X117880476Y-123161523D01*
X117699523Y-123161523D01*
X117247142Y-122528190D02*
X117247142Y-121804380D01*
X117880476Y-122256761D02*
X116251904Y-122256761D01*
X116070952Y-122166285D01*
X115980476Y-121985333D01*
X115980476Y-121804380D01*
X115980476Y-121171047D02*
X117880476Y-121171047D01*
X115980476Y-120356761D02*
X116975714Y-120356761D01*
X117156666Y-120447238D01*
X117247142Y-120628190D01*
X117247142Y-120899619D01*
X117156666Y-121080571D01*
X117066190Y-121171047D01*
X117247142Y-118637714D02*
X115980476Y-118637714D01*
X117247142Y-119452000D02*
X116251904Y-119452000D01*
X116070952Y-119361523D01*
X115980476Y-119180571D01*
X115980476Y-118909142D01*
X116070952Y-118728190D01*
X116161428Y-118637714D01*
X115980476Y-117732952D02*
X117880476Y-117732952D01*
X117156666Y-117732952D02*
X117247142Y-117552000D01*
X117247142Y-117190095D01*
X117156666Y-117009142D01*
X117066190Y-116918666D01*
X116885238Y-116828190D01*
X116342380Y-116828190D01*
X116161428Y-116918666D01*
X116070952Y-117009142D01*
X115980476Y-117190095D01*
X115980476Y-117552000D01*
X116070952Y-117732952D01*
X116161428Y-116013904D02*
X116070952Y-115923428D01*
X115980476Y-116013904D01*
X116070952Y-116104380D01*
X116161428Y-116013904D01*
X115980476Y-116013904D01*
X116070952Y-114294857D02*
X115980476Y-114475809D01*
X115980476Y-114837714D01*
X116070952Y-115018666D01*
X116161428Y-115109142D01*
X116342380Y-115199619D01*
X116885238Y-115199619D01*
X117066190Y-115109142D01*
X117156666Y-115018666D01*
X117247142Y-114837714D01*
X117247142Y-114475809D01*
X117156666Y-114294857D01*
X115980476Y-113209142D02*
X116070952Y-113390095D01*
X116161428Y-113480571D01*
X116342380Y-113571047D01*
X116885238Y-113571047D01*
X117066190Y-113480571D01*
X117156666Y-113390095D01*
X117247142Y-113209142D01*
X117247142Y-112937714D01*
X117156666Y-112756761D01*
X117066190Y-112666285D01*
X116885238Y-112575809D01*
X116342380Y-112575809D01*
X116161428Y-112666285D01*
X116070952Y-112756761D01*
X115980476Y-112937714D01*
X115980476Y-113209142D01*
X115980476Y-111761523D02*
X117247142Y-111761523D01*
X117066190Y-111761523D02*
X117156666Y-111671047D01*
X117247142Y-111490095D01*
X117247142Y-111218666D01*
X117156666Y-111037714D01*
X116975714Y-110947238D01*
X115980476Y-110947238D01*
X116975714Y-110947238D02*
X117156666Y-110856761D01*
X117247142Y-110675809D01*
X117247142Y-110404380D01*
X117156666Y-110223428D01*
X116975714Y-110132952D01*
X115980476Y-110132952D01*
X117970952Y-107871047D02*
X115528095Y-109499619D01*
X115980476Y-107237714D02*
X117247142Y-107237714D01*
X117066190Y-107237714D02*
X117156666Y-107147238D01*
X117247142Y-106966285D01*
X117247142Y-106694857D01*
X117156666Y-106513904D01*
X116975714Y-106423428D01*
X115980476Y-106423428D01*
X116975714Y-106423428D02*
X117156666Y-106332952D01*
X117247142Y-106152000D01*
X117247142Y-105880571D01*
X117156666Y-105699619D01*
X116975714Y-105609142D01*
X115980476Y-105609142D01*
X115980476Y-104704380D02*
X117247142Y-104704380D01*
X117880476Y-104704380D02*
X117790000Y-104794857D01*
X117699523Y-104704380D01*
X117790000Y-104613904D01*
X117880476Y-104704380D01*
X117699523Y-104704380D01*
X115980476Y-103799619D02*
X117880476Y-103799619D01*
X116704285Y-103618666D02*
X115980476Y-103075809D01*
X117247142Y-103075809D02*
X116523333Y-103799619D01*
X116070952Y-101537714D02*
X115980476Y-101718666D01*
X115980476Y-102080571D01*
X116070952Y-102261523D01*
X116251904Y-102352000D01*
X116975714Y-102352000D01*
X117156666Y-102261523D01*
X117247142Y-102080571D01*
X117247142Y-101718666D01*
X117156666Y-101537714D01*
X116975714Y-101447238D01*
X116794761Y-101447238D01*
X116613809Y-102352000D01*
X117247142Y-100813904D02*
X115980476Y-100361523D01*
X117247142Y-99909142D02*
X115980476Y-100361523D01*
X115528095Y-100542476D01*
X115437619Y-100632952D01*
X115347142Y-100813904D01*
X115980476Y-99185333D02*
X117247142Y-99185333D01*
X117066190Y-99185333D02*
X117156666Y-99094857D01*
X117247142Y-98913904D01*
X117247142Y-98642476D01*
X117156666Y-98461523D01*
X116975714Y-98371047D01*
X115980476Y-98371047D01*
X116975714Y-98371047D02*
X117156666Y-98280571D01*
X117247142Y-98099619D01*
X117247142Y-97828190D01*
X117156666Y-97647238D01*
X116975714Y-97556761D01*
X115980476Y-97556761D01*
X116070952Y-95837714D02*
X115980476Y-96018666D01*
X115980476Y-96380571D01*
X116070952Y-96561523D01*
X116161428Y-96652000D01*
X116342380Y-96742476D01*
X116885238Y-96742476D01*
X117066190Y-96652000D01*
X117156666Y-96561523D01*
X117247142Y-96380571D01*
X117247142Y-96018666D01*
X117156666Y-95837714D01*
X117247142Y-95294857D02*
X117247142Y-94571047D01*
X115980476Y-95023428D02*
X117609047Y-95023428D01*
X117790000Y-94932952D01*
X117880476Y-94752000D01*
X117880476Y-94571047D01*
X115980476Y-93937714D02*
X117247142Y-93937714D01*
X117880476Y-93937714D02*
X117790000Y-94028190D01*
X117699523Y-93937714D01*
X117790000Y-93847238D01*
X117880476Y-93937714D01*
X117699523Y-93937714D01*
X116070952Y-93123428D02*
X115980476Y-92942476D01*
X115980476Y-92580571D01*
X116070952Y-92399619D01*
X116251904Y-92309142D01*
X116342380Y-92309142D01*
X116523333Y-92399619D01*
X116613809Y-92580571D01*
X116613809Y-92852000D01*
X116704285Y-93032952D01*
X116885238Y-93123428D01*
X116975714Y-93123428D01*
X117156666Y-93032952D01*
X117247142Y-92852000D01*
X117247142Y-92580571D01*
X117156666Y-92399619D01*
X115980476Y-91494857D02*
X117880476Y-91494857D01*
X115980476Y-90680571D02*
X116975714Y-90680571D01*
X117156666Y-90771047D01*
X117247142Y-90952000D01*
X117247142Y-91223428D01*
X117156666Y-91404380D01*
X117066190Y-91494857D01*
X117970952Y-88418666D02*
X115528095Y-90047238D01*
X116070952Y-87875809D02*
X115980476Y-87604380D01*
X115980476Y-87152000D01*
X116070952Y-86971047D01*
X116161428Y-86880571D01*
X116342380Y-86790095D01*
X116523333Y-86790095D01*
X116704285Y-86880571D01*
X116794761Y-86971047D01*
X116885238Y-87152000D01*
X116975714Y-87513904D01*
X117066190Y-87694857D01*
X117156666Y-87785333D01*
X117337619Y-87875809D01*
X117518571Y-87875809D01*
X117699523Y-87785333D01*
X117790000Y-87694857D01*
X117880476Y-87513904D01*
X117880476Y-87061523D01*
X117790000Y-86790095D01*
X115980476Y-85975809D02*
X117247142Y-85975809D01*
X117880476Y-85975809D02*
X117790000Y-86066285D01*
X117699523Y-85975809D01*
X117790000Y-85885333D01*
X117880476Y-85975809D01*
X117699523Y-85975809D01*
X115980476Y-85071047D02*
X117247142Y-85071047D01*
X117066190Y-85071047D02*
X117156666Y-84980571D01*
X117247142Y-84799619D01*
X117247142Y-84528190D01*
X117156666Y-84347238D01*
X116975714Y-84256761D01*
X115980476Y-84256761D01*
X116975714Y-84256761D02*
X117156666Y-84166285D01*
X117247142Y-83985333D01*
X117247142Y-83713904D01*
X117156666Y-83532952D01*
X116975714Y-83442476D01*
X115980476Y-83442476D01*
X115980476Y-82266285D02*
X116070952Y-82447238D01*
X116161428Y-82537714D01*
X116342380Y-82628190D01*
X116885238Y-82628190D01*
X117066190Y-82537714D01*
X117156666Y-82447238D01*
X117247142Y-82266285D01*
X117247142Y-81994857D01*
X117156666Y-81813904D01*
X117066190Y-81723428D01*
X116885238Y-81632952D01*
X116342380Y-81632952D01*
X116161428Y-81723428D01*
X116070952Y-81813904D01*
X115980476Y-81994857D01*
X115980476Y-82266285D01*
X117247142Y-80818666D02*
X115980476Y-80818666D01*
X117066190Y-80818666D02*
X117156666Y-80728190D01*
X117247142Y-80547238D01*
X117247142Y-80275809D01*
X117156666Y-80094857D01*
X116975714Y-80004380D01*
X115980476Y-80004380D01*
X117790000Y-78104380D02*
X117880476Y-78285333D01*
X117880476Y-78556761D01*
X117790000Y-78828190D01*
X117609047Y-79009142D01*
X117428095Y-79099619D01*
X117066190Y-79190095D01*
X116794761Y-79190095D01*
X116432857Y-79099619D01*
X116251904Y-79009142D01*
X116070952Y-78828190D01*
X115980476Y-78556761D01*
X115980476Y-78375809D01*
X116070952Y-78104380D01*
X116161428Y-78013904D01*
X116794761Y-78013904D01*
X116794761Y-78375809D01*
X115980476Y-76385333D02*
X116975714Y-76385333D01*
X117156666Y-76475809D01*
X117247142Y-76656761D01*
X117247142Y-77018666D01*
X117156666Y-77199619D01*
X116070952Y-76385333D02*
X115980476Y-76566285D01*
X115980476Y-77018666D01*
X116070952Y-77199619D01*
X116251904Y-77290095D01*
X116432857Y-77290095D01*
X116613809Y-77199619D01*
X116704285Y-77018666D01*
X116704285Y-76566285D01*
X116794761Y-76385333D01*
X115980476Y-75480571D02*
X117247142Y-75480571D01*
X117066190Y-75480571D02*
X117156666Y-75390095D01*
X117247142Y-75209142D01*
X117247142Y-74937714D01*
X117156666Y-74756761D01*
X116975714Y-74666285D01*
X115980476Y-74666285D01*
X116975714Y-74666285D02*
X117156666Y-74575809D01*
X117247142Y-74394857D01*
X117247142Y-74123428D01*
X117156666Y-73942476D01*
X116975714Y-73852000D01*
X115980476Y-73852000D01*
X116070952Y-72223428D02*
X115980476Y-72404380D01*
X115980476Y-72766285D01*
X116070952Y-72947238D01*
X116251904Y-73037714D01*
X116975714Y-73037714D01*
X117156666Y-72947238D01*
X117247142Y-72766285D01*
X117247142Y-72404380D01*
X117156666Y-72223428D01*
X116975714Y-72132952D01*
X116794761Y-72132952D01*
X116613809Y-73037714D01*
X181411142Y-79192380D02*
X181411142Y-78192380D01*
X181411142Y-78668571D02*
X180839714Y-78668571D01*
X180839714Y-79192380D02*
X180839714Y-78192380D01*
X180411142Y-78906666D02*
X179934952Y-78906666D01*
X180506380Y-79192380D02*
X180173047Y-78192380D01*
X179839714Y-79192380D01*
X178934952Y-79097142D02*
X178982571Y-79144761D01*
X179125428Y-79192380D01*
X179220666Y-79192380D01*
X179363523Y-79144761D01*
X179458761Y-79049523D01*
X179506380Y-78954285D01*
X179554000Y-78763809D01*
X179554000Y-78620952D01*
X179506380Y-78430476D01*
X179458761Y-78335238D01*
X179363523Y-78240000D01*
X179220666Y-78192380D01*
X179125428Y-78192380D01*
X178982571Y-78240000D01*
X178934952Y-78287619D01*
X178506380Y-79192380D02*
X178506380Y-78192380D01*
X177934952Y-79192380D02*
X178363523Y-78620952D01*
X177934952Y-78192380D02*
X178506380Y-78763809D01*
X176744476Y-79192380D02*
X176744476Y-78192380D01*
X176411142Y-78906666D01*
X176077809Y-78192380D01*
X176077809Y-79192380D01*
X175601619Y-78668571D02*
X175268285Y-78668571D01*
X175125428Y-79192380D02*
X175601619Y-79192380D01*
X175601619Y-78192380D01*
X175125428Y-78192380D01*
X174696857Y-79097142D02*
X174649238Y-79144761D01*
X174696857Y-79192380D01*
X174744476Y-79144761D01*
X174696857Y-79097142D01*
X174696857Y-79192380D01*
X174696857Y-78811428D02*
X174744476Y-78240000D01*
X174696857Y-78192380D01*
X174649238Y-78240000D01*
X174696857Y-78811428D01*
X174696857Y-78192380D01*
D11*
X177928000Y-112661000D02*
X177961333Y-112694333D01*
X178061333Y-112727666D01*
X178128000Y-112727666D01*
X178228000Y-112694333D01*
X178294666Y-112627666D01*
X178328000Y-112561000D01*
X178361333Y-112427666D01*
X178361333Y-112327666D01*
X178328000Y-112194333D01*
X178294666Y-112127666D01*
X178228000Y-112061000D01*
X178128000Y-112027666D01*
X178061333Y-112027666D01*
X177961333Y-112061000D01*
X177928000Y-112094333D01*
X177528000Y-112727666D02*
X177594666Y-112694333D01*
X177628000Y-112661000D01*
X177661333Y-112594333D01*
X177661333Y-112394333D01*
X177628000Y-112327666D01*
X177594666Y-112294333D01*
X177528000Y-112261000D01*
X177428000Y-112261000D01*
X177361333Y-112294333D01*
X177328000Y-112327666D01*
X177294666Y-112394333D01*
X177294666Y-112594333D01*
X177328000Y-112661000D01*
X177361333Y-112694333D01*
X177428000Y-112727666D01*
X177528000Y-112727666D01*
X176994666Y-112261000D02*
X176994666Y-112727666D01*
X176994666Y-112327666D02*
X176961333Y-112294333D01*
X176894666Y-112261000D01*
X176794666Y-112261000D01*
X176728000Y-112294333D01*
X176694666Y-112361000D01*
X176694666Y-112727666D01*
X176361333Y-112261000D02*
X176361333Y-112727666D01*
X176361333Y-112327666D02*
X176328000Y-112294333D01*
X176261333Y-112261000D01*
X176161333Y-112261000D01*
X176094666Y-112294333D01*
X176061333Y-112361000D01*
X176061333Y-112727666D01*
X175461333Y-112694333D02*
X175528000Y-112727666D01*
X175661333Y-112727666D01*
X175728000Y-112694333D01*
X175761333Y-112627666D01*
X175761333Y-112361000D01*
X175728000Y-112294333D01*
X175661333Y-112261000D01*
X175528000Y-112261000D01*
X175461333Y-112294333D01*
X175428000Y-112361000D01*
X175428000Y-112427666D01*
X175761333Y-112494333D01*
X174828000Y-112694333D02*
X174894666Y-112727666D01*
X175028000Y-112727666D01*
X175094666Y-112694333D01*
X175128000Y-112661000D01*
X175161333Y-112594333D01*
X175161333Y-112394333D01*
X175128000Y-112327666D01*
X175094666Y-112294333D01*
X175028000Y-112261000D01*
X174894666Y-112261000D01*
X174828000Y-112294333D01*
X174628000Y-112261000D02*
X174361333Y-112261000D01*
X174528000Y-112027666D02*
X174528000Y-112627666D01*
X174494666Y-112694333D01*
X174428000Y-112727666D01*
X174361333Y-112727666D01*
X173694666Y-112261000D02*
X173428000Y-112261000D01*
X173594666Y-112027666D02*
X173594666Y-112627666D01*
X173561333Y-112694333D01*
X173494666Y-112727666D01*
X173428000Y-112727666D01*
X173194666Y-112727666D02*
X173194666Y-112027666D01*
X172894666Y-112727666D02*
X172894666Y-112361000D01*
X172928000Y-112294333D01*
X172994666Y-112261000D01*
X173094666Y-112261000D01*
X173161333Y-112294333D01*
X173194666Y-112327666D01*
X172294666Y-112694333D02*
X172361333Y-112727666D01*
X172494666Y-112727666D01*
X172561333Y-112694333D01*
X172594666Y-112627666D01*
X172594666Y-112361000D01*
X172561333Y-112294333D01*
X172494666Y-112261000D01*
X172361333Y-112261000D01*
X172294666Y-112294333D01*
X172261333Y-112361000D01*
X172261333Y-112427666D01*
X172594666Y-112494333D01*
X171994666Y-112694333D02*
X171928000Y-112727666D01*
X171794666Y-112727666D01*
X171728000Y-112694333D01*
X171694666Y-112627666D01*
X171694666Y-112594333D01*
X171728000Y-112527666D01*
X171794666Y-112494333D01*
X171894666Y-112494333D01*
X171961333Y-112461000D01*
X171994666Y-112394333D01*
X171994666Y-112361000D01*
X171961333Y-112294333D01*
X171894666Y-112261000D01*
X171794666Y-112261000D01*
X171728000Y-112294333D01*
X171128000Y-112694333D02*
X171194666Y-112727666D01*
X171328000Y-112727666D01*
X171394666Y-112694333D01*
X171428000Y-112627666D01*
X171428000Y-112361000D01*
X171394666Y-112294333D01*
X171328000Y-112261000D01*
X171194666Y-112261000D01*
X171128000Y-112294333D01*
X171094666Y-112361000D01*
X171094666Y-112427666D01*
X171428000Y-112494333D01*
X170261333Y-112261000D02*
X170261333Y-112961000D01*
X170261333Y-112294333D02*
X170194666Y-112261000D01*
X170061333Y-112261000D01*
X169994666Y-112294333D01*
X169961333Y-112327666D01*
X169928000Y-112394333D01*
X169928000Y-112594333D01*
X169961333Y-112661000D01*
X169994666Y-112694333D01*
X170061333Y-112727666D01*
X170194666Y-112727666D01*
X170261333Y-112694333D01*
X169328000Y-112727666D02*
X169328000Y-112361000D01*
X169361333Y-112294333D01*
X169428000Y-112261000D01*
X169561333Y-112261000D01*
X169628000Y-112294333D01*
X169328000Y-112694333D02*
X169394666Y-112727666D01*
X169561333Y-112727666D01*
X169628000Y-112694333D01*
X169661333Y-112627666D01*
X169661333Y-112561000D01*
X169628000Y-112494333D01*
X169561333Y-112461000D01*
X169394666Y-112461000D01*
X169328000Y-112427666D01*
X168694666Y-112727666D02*
X168694666Y-112027666D01*
X168694666Y-112694333D02*
X168761333Y-112727666D01*
X168894666Y-112727666D01*
X168961333Y-112694333D01*
X168994666Y-112661000D01*
X169028000Y-112594333D01*
X169028000Y-112394333D01*
X168994666Y-112327666D01*
X168961333Y-112294333D01*
X168894666Y-112261000D01*
X168761333Y-112261000D01*
X168694666Y-112294333D01*
X168394666Y-112694333D02*
X168328000Y-112727666D01*
X168194666Y-112727666D01*
X168128000Y-112694333D01*
X168094666Y-112627666D01*
X168094666Y-112594333D01*
X168128000Y-112527666D01*
X168194666Y-112494333D01*
X168294666Y-112494333D01*
X168361333Y-112461000D01*
X168394666Y-112394333D01*
X168394666Y-112361000D01*
X168361333Y-112294333D01*
X168294666Y-112261000D01*
X168194666Y-112261000D01*
X168128000Y-112294333D01*
X178994666Y-113388000D02*
X178861333Y-113854666D01*
X178728000Y-113521333D01*
X178594666Y-113854666D01*
X178461333Y-113388000D01*
X178194666Y-113854666D02*
X178194666Y-113154666D01*
X177894666Y-113854666D02*
X177894666Y-113488000D01*
X177928000Y-113421333D01*
X177994666Y-113388000D01*
X178094666Y-113388000D01*
X178161333Y-113421333D01*
X178194666Y-113454666D01*
X177294666Y-113821333D02*
X177361333Y-113854666D01*
X177494666Y-113854666D01*
X177561333Y-113821333D01*
X177594666Y-113754666D01*
X177594666Y-113488000D01*
X177561333Y-113421333D01*
X177494666Y-113388000D01*
X177361333Y-113388000D01*
X177294666Y-113421333D01*
X177261333Y-113488000D01*
X177261333Y-113554666D01*
X177594666Y-113621333D01*
X176961333Y-113388000D02*
X176961333Y-113854666D01*
X176961333Y-113454666D02*
X176928000Y-113421333D01*
X176861333Y-113388000D01*
X176761333Y-113388000D01*
X176694666Y-113421333D01*
X176661333Y-113488000D01*
X176661333Y-113854666D01*
X175794666Y-113388000D02*
X175794666Y-114088000D01*
X175794666Y-113421333D02*
X175728000Y-113388000D01*
X175594666Y-113388000D01*
X175528000Y-113421333D01*
X175494666Y-113454666D01*
X175461333Y-113521333D01*
X175461333Y-113721333D01*
X175494666Y-113788000D01*
X175528000Y-113821333D01*
X175594666Y-113854666D01*
X175728000Y-113854666D01*
X175794666Y-113821333D01*
X175061333Y-113854666D02*
X175128000Y-113821333D01*
X175161333Y-113788000D01*
X175194666Y-113721333D01*
X175194666Y-113521333D01*
X175161333Y-113454666D01*
X175128000Y-113421333D01*
X175061333Y-113388000D01*
X174961333Y-113388000D01*
X174894666Y-113421333D01*
X174861333Y-113454666D01*
X174828000Y-113521333D01*
X174828000Y-113721333D01*
X174861333Y-113788000D01*
X174894666Y-113821333D01*
X174961333Y-113854666D01*
X175061333Y-113854666D01*
X174594666Y-113388000D02*
X174461333Y-113854666D01*
X174328000Y-113521333D01*
X174194666Y-113854666D01*
X174061333Y-113388000D01*
X173528000Y-113821333D02*
X173594666Y-113854666D01*
X173728000Y-113854666D01*
X173794666Y-113821333D01*
X173828000Y-113754666D01*
X173828000Y-113488000D01*
X173794666Y-113421333D01*
X173728000Y-113388000D01*
X173594666Y-113388000D01*
X173528000Y-113421333D01*
X173494666Y-113488000D01*
X173494666Y-113554666D01*
X173828000Y-113621333D01*
X173194666Y-113854666D02*
X173194666Y-113388000D01*
X173194666Y-113521333D02*
X173161333Y-113454666D01*
X173128000Y-113421333D01*
X173061333Y-113388000D01*
X172994666Y-113388000D01*
X172761333Y-113854666D02*
X172761333Y-113388000D01*
X172761333Y-113154666D02*
X172794666Y-113188000D01*
X172761333Y-113221333D01*
X172728000Y-113188000D01*
X172761333Y-113154666D01*
X172761333Y-113221333D01*
X172428000Y-113388000D02*
X172428000Y-113854666D01*
X172428000Y-113454666D02*
X172394666Y-113421333D01*
X172328000Y-113388000D01*
X172228000Y-113388000D01*
X172161333Y-113421333D01*
X172128000Y-113488000D01*
X172128000Y-113854666D01*
X171494666Y-113388000D02*
X171494666Y-113954666D01*
X171528000Y-114021333D01*
X171561333Y-114054666D01*
X171628000Y-114088000D01*
X171728000Y-114088000D01*
X171794666Y-114054666D01*
X171494666Y-113821333D02*
X171561333Y-113854666D01*
X171694666Y-113854666D01*
X171761333Y-113821333D01*
X171794666Y-113788000D01*
X171828000Y-113721333D01*
X171828000Y-113521333D01*
X171794666Y-113454666D01*
X171761333Y-113421333D01*
X171694666Y-113388000D01*
X171561333Y-113388000D01*
X171494666Y-113421333D01*
X170528000Y-113854666D02*
X170594666Y-113821333D01*
X170628000Y-113788000D01*
X170661333Y-113721333D01*
X170661333Y-113521333D01*
X170628000Y-113454666D01*
X170594666Y-113421333D01*
X170528000Y-113388000D01*
X170428000Y-113388000D01*
X170361333Y-113421333D01*
X170328000Y-113454666D01*
X170294666Y-113521333D01*
X170294666Y-113721333D01*
X170328000Y-113788000D01*
X170361333Y-113821333D01*
X170428000Y-113854666D01*
X170528000Y-113854666D01*
X169994666Y-113388000D02*
X169994666Y-113854666D01*
X169994666Y-113454666D02*
X169961333Y-113421333D01*
X169894666Y-113388000D01*
X169794666Y-113388000D01*
X169728000Y-113421333D01*
X169694666Y-113488000D01*
X169694666Y-113854666D01*
X168928000Y-113388000D02*
X168661333Y-113388000D01*
X168828000Y-113154666D02*
X168828000Y-113754666D01*
X168794666Y-113821333D01*
X168728000Y-113854666D01*
X168661333Y-113854666D01*
X168428000Y-113854666D02*
X168428000Y-113154666D01*
X168128000Y-113854666D02*
X168128000Y-113488000D01*
X168161333Y-113421333D01*
X168228000Y-113388000D01*
X168328000Y-113388000D01*
X168394666Y-113421333D01*
X168428000Y-113454666D01*
X167528000Y-113821333D02*
X167594666Y-113854666D01*
X167728000Y-113854666D01*
X167794666Y-113821333D01*
X167828000Y-113754666D01*
X167828000Y-113488000D01*
X167794666Y-113421333D01*
X167728000Y-113388000D01*
X167594666Y-113388000D01*
X167528000Y-113421333D01*
X167494666Y-113488000D01*
X167494666Y-113554666D01*
X167828000Y-113621333D01*
X179744666Y-114515000D02*
X179744666Y-115081666D01*
X179778000Y-115148333D01*
X179811333Y-115181666D01*
X179878000Y-115215000D01*
X179978000Y-115215000D01*
X180044666Y-115181666D01*
X179744666Y-114948333D02*
X179811333Y-114981666D01*
X179944666Y-114981666D01*
X180011333Y-114948333D01*
X180044666Y-114915000D01*
X180078000Y-114848333D01*
X180078000Y-114648333D01*
X180044666Y-114581666D01*
X180011333Y-114548333D01*
X179944666Y-114515000D01*
X179811333Y-114515000D01*
X179744666Y-114548333D01*
X179111333Y-114981666D02*
X179111333Y-114615000D01*
X179144666Y-114548333D01*
X179211333Y-114515000D01*
X179344666Y-114515000D01*
X179411333Y-114548333D01*
X179111333Y-114948333D02*
X179178000Y-114981666D01*
X179344666Y-114981666D01*
X179411333Y-114948333D01*
X179444666Y-114881666D01*
X179444666Y-114815000D01*
X179411333Y-114748333D01*
X179344666Y-114715000D01*
X179178000Y-114715000D01*
X179111333Y-114681666D01*
X178778000Y-114981666D02*
X178778000Y-114515000D01*
X178778000Y-114581666D02*
X178744666Y-114548333D01*
X178678000Y-114515000D01*
X178578000Y-114515000D01*
X178511333Y-114548333D01*
X178478000Y-114615000D01*
X178478000Y-114981666D01*
X178478000Y-114615000D02*
X178444666Y-114548333D01*
X178378000Y-114515000D01*
X178278000Y-114515000D01*
X178211333Y-114548333D01*
X178178000Y-114615000D01*
X178178000Y-114981666D01*
X177578000Y-114948333D02*
X177644666Y-114981666D01*
X177778000Y-114981666D01*
X177844666Y-114948333D01*
X177878000Y-114881666D01*
X177878000Y-114615000D01*
X177844666Y-114548333D01*
X177778000Y-114515000D01*
X177644666Y-114515000D01*
X177578000Y-114548333D01*
X177544666Y-114615000D01*
X177544666Y-114681666D01*
X177878000Y-114748333D01*
X176811333Y-114515000D02*
X176544666Y-114515000D01*
X176711333Y-114281666D02*
X176711333Y-114881666D01*
X176678000Y-114948333D01*
X176611333Y-114981666D01*
X176544666Y-114981666D01*
X176211333Y-114981666D02*
X176278000Y-114948333D01*
X176311333Y-114915000D01*
X176344666Y-114848333D01*
X176344666Y-114648333D01*
X176311333Y-114581666D01*
X176278000Y-114548333D01*
X176211333Y-114515000D01*
X176111333Y-114515000D01*
X176044666Y-114548333D01*
X176011333Y-114581666D01*
X175978000Y-114648333D01*
X175978000Y-114848333D01*
X176011333Y-114915000D01*
X176044666Y-114948333D01*
X176111333Y-114981666D01*
X176211333Y-114981666D01*
X175144666Y-114981666D02*
X175144666Y-114515000D01*
X175144666Y-114648333D02*
X175111333Y-114581666D01*
X175078000Y-114548333D01*
X175011333Y-114515000D01*
X174944666Y-114515000D01*
X174444666Y-114948333D02*
X174511333Y-114981666D01*
X174644666Y-114981666D01*
X174711333Y-114948333D01*
X174744666Y-114881666D01*
X174744666Y-114615000D01*
X174711333Y-114548333D01*
X174644666Y-114515000D01*
X174511333Y-114515000D01*
X174444666Y-114548333D01*
X174411333Y-114615000D01*
X174411333Y-114681666D01*
X174744666Y-114748333D01*
X174144666Y-114948333D02*
X174078000Y-114981666D01*
X173944666Y-114981666D01*
X173878000Y-114948333D01*
X173844666Y-114881666D01*
X173844666Y-114848333D01*
X173878000Y-114781666D01*
X173944666Y-114748333D01*
X174044666Y-114748333D01*
X174111333Y-114715000D01*
X174144666Y-114648333D01*
X174144666Y-114615000D01*
X174111333Y-114548333D01*
X174044666Y-114515000D01*
X173944666Y-114515000D01*
X173878000Y-114548333D01*
X173278000Y-114948333D02*
X173344666Y-114981666D01*
X173478000Y-114981666D01*
X173544666Y-114948333D01*
X173578000Y-114881666D01*
X173578000Y-114615000D01*
X173544666Y-114548333D01*
X173478000Y-114515000D01*
X173344666Y-114515000D01*
X173278000Y-114548333D01*
X173244666Y-114615000D01*
X173244666Y-114681666D01*
X173578000Y-114748333D01*
X173044666Y-114515000D02*
X172778000Y-114515000D01*
X172944666Y-114281666D02*
X172944666Y-114881666D01*
X172911333Y-114948333D01*
X172844666Y-114981666D01*
X172778000Y-114981666D01*
X172011333Y-114981666D02*
X172011333Y-114281666D01*
X171711333Y-114981666D02*
X171711333Y-114615000D01*
X171744666Y-114548333D01*
X171811333Y-114515000D01*
X171911333Y-114515000D01*
X171978000Y-114548333D01*
X172011333Y-114581666D01*
X171378000Y-114981666D02*
X171378000Y-114515000D01*
X171378000Y-114281666D02*
X171411333Y-114315000D01*
X171378000Y-114348333D01*
X171344666Y-114315000D01*
X171378000Y-114281666D01*
X171378000Y-114348333D01*
X170744666Y-114515000D02*
X170744666Y-115081666D01*
X170778000Y-115148333D01*
X170811333Y-115181666D01*
X170878000Y-115215000D01*
X170978000Y-115215000D01*
X171044666Y-115181666D01*
X170744666Y-114948333D02*
X170811333Y-114981666D01*
X170944666Y-114981666D01*
X171011333Y-114948333D01*
X171044666Y-114915000D01*
X171078000Y-114848333D01*
X171078000Y-114648333D01*
X171044666Y-114581666D01*
X171011333Y-114548333D01*
X170944666Y-114515000D01*
X170811333Y-114515000D01*
X170744666Y-114548333D01*
X170411333Y-114981666D02*
X170411333Y-114281666D01*
X170111333Y-114981666D02*
X170111333Y-114615000D01*
X170144666Y-114548333D01*
X170211333Y-114515000D01*
X170311333Y-114515000D01*
X170378000Y-114548333D01*
X170411333Y-114581666D01*
X169278000Y-114948333D02*
X169211333Y-114981666D01*
X169078000Y-114981666D01*
X169011333Y-114948333D01*
X168978000Y-114881666D01*
X168978000Y-114848333D01*
X169011333Y-114781666D01*
X169078000Y-114748333D01*
X169178000Y-114748333D01*
X169244666Y-114715000D01*
X169278000Y-114648333D01*
X169278000Y-114615000D01*
X169244666Y-114548333D01*
X169178000Y-114515000D01*
X169078000Y-114515000D01*
X169011333Y-114548333D01*
X168378000Y-114948333D02*
X168444666Y-114981666D01*
X168578000Y-114981666D01*
X168644666Y-114948333D01*
X168678000Y-114915000D01*
X168711333Y-114848333D01*
X168711333Y-114648333D01*
X168678000Y-114581666D01*
X168644666Y-114548333D01*
X168578000Y-114515000D01*
X168444666Y-114515000D01*
X168378000Y-114548333D01*
X167978000Y-114981666D02*
X168044666Y-114948333D01*
X168078000Y-114915000D01*
X168111333Y-114848333D01*
X168111333Y-114648333D01*
X168078000Y-114581666D01*
X168044666Y-114548333D01*
X167978000Y-114515000D01*
X167878000Y-114515000D01*
X167811333Y-114548333D01*
X167778000Y-114581666D01*
X167744666Y-114648333D01*
X167744666Y-114848333D01*
X167778000Y-114915000D01*
X167811333Y-114948333D01*
X167878000Y-114981666D01*
X167978000Y-114981666D01*
X167444666Y-114981666D02*
X167444666Y-114515000D01*
X167444666Y-114648333D02*
X167411333Y-114581666D01*
X167378000Y-114548333D01*
X167311333Y-114515000D01*
X167244666Y-114515000D01*
X166744666Y-114948333D02*
X166811333Y-114981666D01*
X166944666Y-114981666D01*
X167011333Y-114948333D01*
X167044666Y-114881666D01*
X167044666Y-114615000D01*
X167011333Y-114548333D01*
X166944666Y-114515000D01*
X166811333Y-114515000D01*
X166744666Y-114548333D01*
X166711333Y-114615000D01*
X166711333Y-114681666D01*
X167044666Y-114748333D01*
X166411333Y-114915000D02*
X166378000Y-114948333D01*
X166411333Y-114981666D01*
X166444666Y-114948333D01*
X166411333Y-114915000D01*
X166411333Y-114981666D01*
D10*
X180022380Y-125515714D02*
X179784285Y-126182380D01*
X179546190Y-125515714D01*
X179165238Y-126087142D02*
X179117619Y-126134761D01*
X179165238Y-126182380D01*
X179212857Y-126134761D01*
X179165238Y-126087142D01*
X179165238Y-126182380D01*
X178260476Y-125182380D02*
X178450952Y-125182380D01*
X178546190Y-125230000D01*
X178593809Y-125277619D01*
X178689047Y-125420476D01*
X178736666Y-125610952D01*
X178736666Y-125991904D01*
X178689047Y-126087142D01*
X178641428Y-126134761D01*
X178546190Y-126182380D01*
X178355714Y-126182380D01*
X178260476Y-126134761D01*
X178212857Y-126087142D01*
X178165238Y-125991904D01*
X178165238Y-125753809D01*
X178212857Y-125658571D01*
X178260476Y-125610952D01*
X178355714Y-125563333D01*
X178546190Y-125563333D01*
X178641428Y-125610952D01*
X178689047Y-125658571D01*
X178736666Y-125753809D01*
D13*
%TO.C,R6*%
X145322936Y-122830000D02*
X146777064Y-122830000D01*
X145322936Y-121010000D02*
X146777064Y-121010000D01*
%TO.C,D5*%
X144450000Y-124595000D02*
X148510000Y-124595000D01*
X148510000Y-124595000D02*
X148510000Y-126865000D01*
X148510000Y-126865000D02*
X144450000Y-126865000D01*
D14*
%TO.C,BT1*%
X162450000Y-111225000D02*
G75*
G03*
X162450000Y-111025000I0J100000D01*
G01*
X162450000Y-111025000D02*
G75*
G03*
X162450000Y-111225000I0J-100000D01*
G01*
X162450000Y-111225000D02*
X162450000Y-111225000D01*
X162450000Y-111025000D02*
X162450000Y-111025000D01*
D11*
X136050000Y-114625000D02*
X131800000Y-114625000D01*
X138430000Y-119175000D02*
X136050000Y-114625000D01*
X153670000Y-119175000D02*
X138430000Y-119175000D01*
X156050000Y-114625000D02*
X153670000Y-119175000D01*
X160300000Y-114625000D02*
X156050000Y-114625000D01*
X136050000Y-107625000D02*
X131800000Y-107625000D01*
X138430000Y-103075000D02*
X136050000Y-107625000D01*
X153670000Y-103075000D02*
X138430000Y-103075000D01*
X156050000Y-107625000D02*
X153670000Y-103075000D01*
X160300000Y-107625000D02*
X156050000Y-107625000D01*
%TO.C,G\u002A\u002A\u002A*%
G36*
X140628828Y-73903480D02*
G01*
X139651905Y-73903480D01*
X139651905Y-72851409D01*
X140628828Y-72851409D01*
X140628828Y-73903480D01*
G37*
G36*
X137547763Y-94644308D02*
G01*
X136495692Y-94644308D01*
X136495692Y-93592237D01*
X137547763Y-93592237D01*
X137547763Y-94644308D01*
G37*
G36*
X147918177Y-84273894D02*
G01*
X144837112Y-84273894D01*
X144837112Y-83221823D01*
X146866106Y-83221823D01*
X146866106Y-82169752D01*
X147918177Y-82169752D01*
X147918177Y-84273894D01*
G37*
G36*
X131310485Y-85325965D02*
G01*
X130258414Y-85325965D01*
X130258414Y-84273894D01*
X131310485Y-84273894D01*
X131310485Y-85325965D01*
G37*
G36*
X136495692Y-80140758D02*
G01*
X137547763Y-80140758D01*
X137547763Y-79088687D01*
X138599834Y-79088687D01*
X138599834Y-81117681D01*
X137547763Y-81117681D01*
X137547763Y-82169752D01*
X136495692Y-82169752D01*
X136495692Y-81117681D01*
X134466698Y-81117681D01*
X134466698Y-80140758D01*
X135443621Y-80140758D01*
X135443621Y-79088687D01*
X136495692Y-79088687D01*
X136495692Y-80140758D01*
G37*
G36*
X136495692Y-83221823D02*
G01*
X135443621Y-83221823D01*
X135443621Y-82169752D01*
X136495692Y-82169752D01*
X136495692Y-83221823D01*
G37*
G36*
X150999242Y-85325965D02*
G01*
X150022319Y-85325965D01*
X150022319Y-84273894D01*
X148970248Y-84273894D01*
X148970248Y-83221823D01*
X150999242Y-83221823D01*
X150999242Y-85325965D01*
G37*
G36*
X158288591Y-84273894D02*
G01*
X156184449Y-84273894D01*
X156184449Y-83221823D01*
X158288591Y-83221823D01*
X158288591Y-84273894D01*
G37*
G36*
X132362556Y-80140758D02*
G01*
X131310485Y-80140758D01*
X131310485Y-79088687D01*
X132362556Y-79088687D01*
X132362556Y-80140758D01*
G37*
G36*
X143785041Y-71799338D02*
G01*
X144837112Y-71799338D01*
X144837112Y-72851409D01*
X141680899Y-72851409D01*
X141680899Y-71799338D01*
X139651905Y-71799338D01*
X139651905Y-72851409D01*
X138599834Y-72851409D01*
X138599834Y-70822415D01*
X143785041Y-70822415D01*
X143785041Y-71799338D01*
G37*
G36*
X132362556Y-83221823D02*
G01*
X131310485Y-83221823D01*
X131310485Y-82169752D01*
X132362556Y-82169752D01*
X132362556Y-83221823D01*
G37*
G36*
X155207526Y-89459101D02*
G01*
X154155455Y-89459101D01*
X154155455Y-88407030D01*
X155207526Y-88407030D01*
X155207526Y-89459101D01*
G37*
G36*
X159340662Y-92540166D02*
G01*
X159340662Y-89459101D01*
X157236520Y-89459101D01*
X157236520Y-90511172D01*
X158288591Y-90511172D01*
X158288591Y-91488095D01*
X157236520Y-91488095D01*
X157236520Y-92540166D01*
X153103384Y-92540166D01*
X153103384Y-91488095D01*
X154155455Y-91488095D01*
X154155455Y-90511172D01*
X156184449Y-90511172D01*
X156184449Y-87354959D01*
X157236520Y-87354959D01*
X157236520Y-86302888D01*
X156184449Y-86302888D01*
X156184449Y-87354959D01*
X154155455Y-87354959D01*
X154155455Y-86302888D01*
X150999242Y-86302888D01*
X150999242Y-85325965D01*
X154155455Y-85325965D01*
X154155455Y-84273894D01*
X152051313Y-84273894D01*
X152051313Y-83221823D01*
X153103384Y-83221823D01*
X154155455Y-83221823D01*
X154155455Y-82169752D01*
X153103384Y-82169752D01*
X153103384Y-83221823D01*
X152051313Y-83221823D01*
X152051313Y-82169752D01*
X153103384Y-82169752D01*
X153103384Y-81117681D01*
X155207526Y-81117681D01*
X155207526Y-85325965D01*
X157236520Y-85325965D01*
X157236520Y-86302888D01*
X159340662Y-86302888D01*
X159340662Y-85325965D01*
X160317585Y-85325965D01*
X160317585Y-92540166D01*
X159340662Y-92540166D01*
G37*
G36*
X147918177Y-71799338D02*
G01*
X145814035Y-71799338D01*
X145814035Y-70822415D01*
X147918177Y-70822415D01*
X147918177Y-71799338D01*
G37*
G36*
X153103384Y-78036616D02*
G01*
X153103384Y-76984545D01*
X154155455Y-76984545D01*
X159340662Y-76984545D01*
X159340662Y-71799338D01*
X154155455Y-71799338D01*
X154155455Y-76984545D01*
X153103384Y-76984545D01*
X153103384Y-70822415D01*
X160317585Y-70822415D01*
X160317585Y-78036616D01*
X153103384Y-78036616D01*
G37*
G36*
X135443621Y-85325965D02*
G01*
X134466698Y-85325965D01*
X134466698Y-84273894D01*
X135443621Y-84273894D01*
X135443621Y-85325965D01*
G37*
G36*
X154155455Y-88407030D02*
G01*
X153103384Y-88407030D01*
X153103384Y-87354959D01*
X154155455Y-87354959D01*
X154155455Y-88407030D01*
G37*
G36*
X150022319Y-90511172D02*
G01*
X148970248Y-90511172D01*
X148970248Y-89459101D01*
X150022319Y-89459101D01*
X150022319Y-90511172D01*
G37*
G36*
X150022319Y-72851409D02*
G01*
X148970248Y-72851409D01*
X148970248Y-70822415D01*
X150022319Y-70822415D01*
X150022319Y-72851409D01*
G37*
G36*
X144837112Y-78036616D02*
G01*
X144837112Y-76984545D01*
X143785041Y-76984545D01*
X143785041Y-78036616D01*
X142732970Y-78036616D01*
X142732970Y-75932474D01*
X143785041Y-75932474D01*
X144837112Y-75932474D01*
X144837112Y-74955551D01*
X143785041Y-74955551D01*
X143785041Y-75932474D01*
X142732970Y-75932474D01*
X138599834Y-75932474D01*
X138599834Y-74955551D01*
X141680899Y-74955551D01*
X141680899Y-73903480D01*
X142732970Y-73903480D01*
X142732970Y-74955551D01*
X143785041Y-74955551D01*
X143785041Y-73903480D01*
X146866106Y-73903480D01*
X146866106Y-72851409D01*
X147918177Y-72851409D01*
X147918177Y-74955551D01*
X145814035Y-74955551D01*
X145814035Y-78036616D01*
X144837112Y-78036616D01*
G37*
G36*
X154155455Y-90511172D02*
G01*
X153103384Y-90511172D01*
X153103384Y-89459101D01*
X154155455Y-89459101D01*
X154155455Y-90511172D01*
G37*
G36*
X134466698Y-80140758D02*
G01*
X133414627Y-80140758D01*
X133414627Y-79088687D01*
X134466698Y-79088687D01*
X134466698Y-80140758D01*
G37*
G36*
X131310485Y-81117681D02*
G01*
X130258414Y-81117681D01*
X130258414Y-80140758D01*
X131310485Y-80140758D01*
X131310485Y-81117681D01*
G37*
G36*
X138599834Y-98777444D02*
G01*
X139651905Y-98777444D01*
X139651905Y-99829515D01*
X137547763Y-99829515D01*
X137547763Y-100881586D01*
X132362556Y-100881586D01*
X132362556Y-99829515D01*
X135443621Y-99829515D01*
X135443621Y-98777444D01*
X134466698Y-98777444D01*
X134466698Y-99829515D01*
X133414627Y-99829515D01*
X133414627Y-98777444D01*
X132362556Y-98777444D01*
X132362556Y-99829515D01*
X131310485Y-99829515D01*
X131310485Y-97725373D01*
X130258414Y-97725373D01*
X130258414Y-95696379D01*
X132362556Y-95696379D01*
X133414627Y-95696379D01*
X133414627Y-96673302D01*
X134466698Y-96673302D01*
X134466698Y-97725373D01*
X135443621Y-97725373D01*
X135443621Y-96673302D01*
X134466698Y-96673302D01*
X134466698Y-95696379D01*
X135443621Y-95696379D01*
X138599834Y-95696379D01*
X138599834Y-92540166D01*
X135443621Y-92540166D01*
X135443621Y-95696379D01*
X134466698Y-95696379D01*
X134466698Y-94644308D01*
X132362556Y-94644308D01*
X132362556Y-95696379D01*
X130258414Y-95696379D01*
X130258414Y-94644308D01*
X132362556Y-94644308D01*
X132362556Y-93592237D01*
X130258414Y-93592237D01*
X130258414Y-91488095D01*
X131310485Y-91488095D01*
X132362556Y-91488095D01*
X133414627Y-91488095D01*
X133414627Y-92540166D01*
X134466698Y-92540166D01*
X134466698Y-90511172D01*
X135443621Y-90511172D01*
X137547763Y-90511172D01*
X139651905Y-90511172D01*
X139651905Y-93592237D01*
X140628828Y-93592237D01*
X140628828Y-90511172D01*
X141680899Y-90511172D01*
X141680899Y-89459101D01*
X137547763Y-89459101D01*
X137547763Y-90511172D01*
X135443621Y-90511172D01*
X135443621Y-89459101D01*
X134466698Y-89459101D01*
X134466698Y-88407030D01*
X135443621Y-88407030D01*
X135443621Y-87354959D01*
X134466698Y-87354959D01*
X134466698Y-88407030D01*
X133414627Y-88407030D01*
X133414627Y-90511172D01*
X132362556Y-90511172D01*
X132362556Y-91488095D01*
X131310485Y-91488095D01*
X131310485Y-90511172D01*
X132362556Y-90511172D01*
X132362556Y-87354959D01*
X134466698Y-87354959D01*
X134466698Y-86302888D01*
X135443621Y-86302888D01*
X135443621Y-85325965D01*
X136495692Y-85325965D01*
X136495692Y-84273894D01*
X139651905Y-84273894D01*
X139651905Y-83221823D01*
X137547763Y-83221823D01*
X137547763Y-82169752D01*
X140628828Y-82169752D01*
X140628828Y-84273894D01*
X141680899Y-84273894D01*
X141680899Y-83221823D01*
X142732970Y-83221823D01*
X142732970Y-84273894D01*
X143785041Y-84273894D01*
X143785041Y-85325965D01*
X141680899Y-85325965D01*
X141680899Y-86302888D01*
X140628828Y-86302888D01*
X140628828Y-85325965D01*
X139651905Y-85325965D01*
X139651905Y-86302888D01*
X136495692Y-86302888D01*
X136495692Y-88407030D01*
X139651905Y-88407030D01*
X139651905Y-87354959D01*
X140628828Y-87354959D01*
X140628828Y-88407030D01*
X141680899Y-88407030D01*
X141680899Y-87354959D01*
X142732970Y-87354959D01*
X142732970Y-88407030D01*
X143785041Y-88407030D01*
X143785041Y-87354959D01*
X144837112Y-87354959D01*
X144837112Y-86302888D01*
X143785041Y-86302888D01*
X143785041Y-85325965D01*
X144837112Y-85325965D01*
X144837112Y-86302888D01*
X145814035Y-86302888D01*
X145814035Y-87354959D01*
X146866106Y-87354959D01*
X146866106Y-88407030D01*
X147918177Y-88407030D01*
X147918177Y-86302888D01*
X146866106Y-86302888D01*
X146866106Y-85325965D01*
X148970248Y-85325965D01*
X148970248Y-87354959D01*
X150999242Y-87354959D01*
X150999242Y-88407030D01*
X147918177Y-88407030D01*
X147918177Y-89459101D01*
X145814035Y-89459101D01*
X145814035Y-88407030D01*
X143785041Y-88407030D01*
X143785041Y-89459101D01*
X145814035Y-89459101D01*
X145814035Y-90511172D01*
X144837112Y-90511172D01*
X144837112Y-92540166D01*
X143785041Y-92540166D01*
X143785041Y-91488095D01*
X142732970Y-91488095D01*
X142732970Y-90511172D01*
X141680899Y-90511172D01*
X141680899Y-91488095D01*
X142732970Y-91488095D01*
X142732970Y-92540166D01*
X143785041Y-92540166D01*
X143785041Y-93592237D01*
X145814035Y-93592237D01*
X145814035Y-91488095D01*
X146866106Y-91488095D01*
X146866106Y-90511172D01*
X147918177Y-90511172D01*
X147918177Y-92540166D01*
X146866106Y-92540166D01*
X146866106Y-93592237D01*
X148970248Y-93592237D01*
X148970248Y-92540166D01*
X150022319Y-92540166D01*
X150022319Y-90511172D01*
X150999242Y-90511172D01*
X150999242Y-92540166D01*
X152051313Y-92540166D01*
X152051313Y-94644308D01*
X150022319Y-94644308D01*
X150022319Y-93592237D01*
X148970248Y-93592237D01*
X148970248Y-94644308D01*
X150022319Y-94644308D01*
X150022319Y-95696379D01*
X148970248Y-95696379D01*
X148970248Y-96673302D01*
X147918177Y-96673302D01*
X147918177Y-94644308D01*
X145814035Y-94644308D01*
X145814035Y-95696379D01*
X144837112Y-95696379D01*
X144837112Y-94644308D01*
X141680899Y-94644308D01*
X141680899Y-93592237D01*
X140628828Y-93592237D01*
X140628828Y-95696379D01*
X139651905Y-95696379D01*
X139651905Y-96673302D01*
X141680899Y-96673302D01*
X141680899Y-95696379D01*
X142732970Y-95696379D01*
X142732970Y-96673302D01*
X143785041Y-96673302D01*
X143785041Y-97725373D01*
X145814035Y-97725373D01*
X145814035Y-96673302D01*
X147918177Y-96673302D01*
X147918177Y-97725373D01*
X146866106Y-97725373D01*
X146866106Y-98777444D01*
X147918177Y-98777444D01*
X147918177Y-100881586D01*
X146866106Y-100881586D01*
X146866106Y-99829515D01*
X145814035Y-99829515D01*
X145814035Y-98777444D01*
X144837112Y-98777444D01*
X144837112Y-99829515D01*
X145814035Y-99829515D01*
X145814035Y-100881586D01*
X144837112Y-100881586D01*
X144837112Y-99829515D01*
X143785041Y-99829515D01*
X143785041Y-98777444D01*
X142732970Y-98777444D01*
X142732970Y-97725373D01*
X140628828Y-97725373D01*
X140628828Y-98777444D01*
X139651905Y-98777444D01*
X139651905Y-96673302D01*
X136495692Y-96673302D01*
X136495692Y-97725373D01*
X138599834Y-97725373D01*
X138599834Y-98777444D01*
G37*
G36*
X153103384Y-88407030D02*
G01*
X153103384Y-89459101D01*
X152051313Y-89459101D01*
X152051313Y-90511172D01*
X150999242Y-90511172D01*
X150999242Y-88407030D01*
X153103384Y-88407030D01*
G37*
G36*
X153103384Y-91488095D02*
G01*
X152051313Y-91488095D01*
X152051313Y-90511172D01*
X153103384Y-90511172D01*
X153103384Y-91488095D01*
G37*
G36*
X158288591Y-98777444D02*
G01*
X155207526Y-98777444D01*
X155207526Y-95696379D01*
X158288591Y-95696379D01*
X158288591Y-98777444D01*
G37*
G36*
X143785041Y-87354959D02*
G01*
X142732970Y-87354959D01*
X142732970Y-86302888D01*
X143785041Y-86302888D01*
X143785041Y-87354959D01*
G37*
G36*
X150999242Y-79088687D02*
G01*
X154155455Y-79088687D01*
X154155455Y-80140758D01*
X152051313Y-80140758D01*
X152051313Y-81117681D01*
X150999242Y-81117681D01*
X150999242Y-80140758D01*
X150022319Y-80140758D01*
X150022319Y-79088687D01*
X148970248Y-79088687D01*
X148970248Y-80140758D01*
X150022319Y-80140758D01*
X150022319Y-82169752D01*
X148970248Y-82169752D01*
X148970248Y-80140758D01*
X147918177Y-80140758D01*
X147918177Y-78036616D01*
X148970248Y-78036616D01*
X148970248Y-76984545D01*
X147918177Y-76984545D01*
X147918177Y-78036616D01*
X146866106Y-78036616D01*
X146866106Y-75932474D01*
X148970248Y-75932474D01*
X148970248Y-76984545D01*
X150022319Y-76984545D01*
X150022319Y-74955551D01*
X148970248Y-74955551D01*
X148970248Y-73903480D01*
X152051313Y-73903480D01*
X152051313Y-74955551D01*
X150999242Y-74955551D01*
X150999242Y-75932474D01*
X152051313Y-75932474D01*
X152051313Y-78036616D01*
X150999242Y-78036616D01*
X150999242Y-76984545D01*
X150022319Y-76984545D01*
X150022319Y-78036616D01*
X150999242Y-78036616D01*
X150999242Y-79088687D01*
G37*
G36*
X132362556Y-87354959D02*
G01*
X131310485Y-87354959D01*
X131310485Y-86302888D01*
X132362556Y-86302888D01*
X132362556Y-87354959D01*
G37*
G36*
X158288591Y-75932474D02*
G01*
X155207526Y-75932474D01*
X155207526Y-72851409D01*
X158288591Y-72851409D01*
X158288591Y-75932474D01*
G37*
G36*
X152051313Y-72851409D02*
G01*
X150999242Y-72851409D01*
X150999242Y-71799338D01*
X152051313Y-71799338D01*
X152051313Y-72851409D01*
G37*
G36*
X160317585Y-80140758D02*
G01*
X159340662Y-80140758D01*
X159340662Y-81117681D01*
X160317585Y-81117681D01*
X160317585Y-82169752D01*
X159340662Y-82169752D01*
X159340662Y-83221823D01*
X158288591Y-83221823D01*
X158288591Y-81117681D01*
X156184449Y-81117681D01*
X156184449Y-80140758D01*
X155207526Y-80140758D01*
X155207526Y-79088687D01*
X160317585Y-79088687D01*
X160317585Y-80140758D01*
G37*
G36*
X152051313Y-100881586D02*
G01*
X150999242Y-100881586D01*
X150999242Y-99829515D01*
X150022319Y-99829515D01*
X150022319Y-100881586D01*
X148970248Y-100881586D01*
X148970248Y-98777444D01*
X150022319Y-98777444D01*
X150022319Y-97725373D01*
X150999242Y-97725373D01*
X150999242Y-96673302D01*
X150022319Y-96673302D01*
X150022319Y-95696379D01*
X152051313Y-95696379D01*
X152051313Y-100881586D01*
G37*
G36*
X142732970Y-100881586D02*
G01*
X141680899Y-100881586D01*
X141680899Y-99829515D01*
X142732970Y-99829515D01*
X142732970Y-100881586D01*
G37*
G36*
X139651905Y-78036616D02*
G01*
X140628828Y-78036616D01*
X140628828Y-79088687D01*
X146866106Y-79088687D01*
X146866106Y-80140758D01*
X147918177Y-80140758D01*
X147918177Y-81117681D01*
X145814035Y-81117681D01*
X145814035Y-80140758D01*
X143785041Y-80140758D01*
X143785041Y-81117681D01*
X144837112Y-81117681D01*
X144837112Y-83221823D01*
X143785041Y-83221823D01*
X143785041Y-82169752D01*
X141680899Y-82169752D01*
X141680899Y-81117681D01*
X139651905Y-81117681D01*
X139651905Y-79088687D01*
X138599834Y-79088687D01*
X138599834Y-76984545D01*
X139651905Y-76984545D01*
X139651905Y-78036616D01*
G37*
G36*
X130258414Y-78036616D02*
G01*
X130258414Y-76984545D01*
X131310485Y-76984545D01*
X136495692Y-76984545D01*
X136495692Y-71799338D01*
X131310485Y-71799338D01*
X131310485Y-76984545D01*
X130258414Y-76984545D01*
X130258414Y-70822415D01*
X137547763Y-70822415D01*
X137547763Y-78036616D01*
X130258414Y-78036616D01*
G37*
G36*
X140628828Y-100881586D02*
G01*
X139651905Y-100881586D01*
X139651905Y-99829515D01*
X140628828Y-99829515D01*
X140628828Y-100881586D01*
G37*
G36*
X153103384Y-100881586D02*
G01*
X153103384Y-99829515D01*
X154155455Y-99829515D01*
X159340662Y-99829515D01*
X159340662Y-94644308D01*
X154155455Y-94644308D01*
X154155455Y-99829515D01*
X153103384Y-99829515D01*
X153103384Y-93592237D01*
X160317585Y-93592237D01*
X160317585Y-100881586D01*
X153103384Y-100881586D01*
G37*
G36*
X135443621Y-75932474D02*
G01*
X132362556Y-75932474D01*
X132362556Y-72851409D01*
X135443621Y-72851409D01*
X135443621Y-75932474D01*
G37*
G36*
X134466698Y-84273894D02*
G01*
X132362556Y-84273894D01*
X132362556Y-83221823D01*
X133414627Y-83221823D01*
X133414627Y-82169752D01*
X134466698Y-82169752D01*
X134466698Y-84273894D01*
G37*
G36*
X141680899Y-78036616D02*
G01*
X140628828Y-78036616D01*
X140628828Y-76984545D01*
X141680899Y-76984545D01*
X141680899Y-78036616D01*
G37*
G36*
X160317585Y-84273894D02*
G01*
X159340662Y-84273894D01*
X159340662Y-83221823D01*
X160317585Y-83221823D01*
X160317585Y-84273894D01*
G37*
G36*
X134466698Y-86302888D02*
G01*
X132362556Y-86302888D01*
X132362556Y-85325965D01*
X134466698Y-85325965D01*
X134466698Y-86302888D01*
G37*
G36*
X131310485Y-89459101D02*
G01*
X130258414Y-89459101D01*
X130258414Y-88407030D01*
X131310485Y-88407030D01*
X131310485Y-89459101D01*
G37*
%TD*%
M02*
