%TF.GenerationSoftware,KiCad,Pcbnew,(6.0.0)*%
%TF.CreationDate,2022-05-08T17:08:30-04:00*%
%TF.ProjectId,QR_ATTINY3217,51525f41-5454-4494-9e59-333231372e6b,rev?*%
%TF.SameCoordinates,Original*%
%TF.FileFunction,Copper,L2,Inr*%
%TF.FilePolarity,Positive*%
%FSLAX46Y46*%
G04 Gerber Fmt 4.6, Leading zero omitted, Abs format (unit mm)*
G04 Created by KiCad (PCBNEW (6.0.0)) date 2022-05-08 17:08:30*
%MOMM*%
%LPD*%
G01*
G04 APERTURE LIST*
%TA.AperFunction,ComponentPad*%
%ADD10R,1.700000X1.700000*%
%TD*%
%TA.AperFunction,ComponentPad*%
%ADD11O,1.700000X1.700000*%
%TD*%
%TA.AperFunction,ViaPad*%
%ADD12C,0.800000*%
%TD*%
G04 APERTURE END LIST*
D10*
%TO.N,/UDPI*%
%TO.C,J1*%
X169545000Y-88900000D03*
D11*
%TO.N,VCC*%
X172085000Y-88900000D03*
%TO.N,unconnected-(J1-Pad3)*%
X169545000Y-91440000D03*
%TO.N,unconnected-(J1-Pad4)*%
X172085000Y-91440000D03*
%TO.N,unconnected-(J1-Pad5)*%
X169545000Y-93980000D03*
%TO.N,GND*%
X172085000Y-93980000D03*
%TD*%
D12*
%TO.N,VCC*%
X168148000Y-105918000D03*
X165227000Y-98552000D03*
X165354000Y-117348000D03*
X170053000Y-109474000D03*
X155829000Y-119507000D03*
X134874000Y-124333000D03*
X136017000Y-115824000D03*
%TO.N,SEG_IN2*%
X131826000Y-113919000D03*
X130937000Y-120777000D03*
%TO.N,SEG_IN2_ENABLE*%
X169672000Y-105537000D03*
X127497500Y-121676500D03*
%TO.N,SEG_IN0*%
X135128000Y-122809000D03*
%TO.N,SEG_IN1*%
X134384343Y-121839989D03*
%TO.N,SEG_IN0*%
X133858000Y-115697000D03*
X137287000Y-110765000D03*
%TO.N,GND*%
X170815000Y-106436500D03*
%TO.N,SEG_IN1*%
X132715000Y-115062000D03*
X134874000Y-109347000D03*
%TO.N,Net-(DS1-Pad3)*%
X160147000Y-117475000D03*
X142494000Y-122428000D03*
%TO.N,Net-(DS1-Pad8)*%
X141097000Y-117729000D03*
X144145000Y-119634000D03*
%TO.N,VCC*%
X160655000Y-113538000D03*
%TO.N,Net-(BT1-Pad2)*%
X129667000Y-127762000D03*
X162306000Y-125476000D03*
%TO.N,GND*%
X130876556Y-113908500D03*
X128397000Y-116164500D03*
%TO.N,SEG_IN1_ENABLE*%
X131699000Y-108204000D03*
X166497000Y-104902000D03*
%TO.N,Net-(SW3-Pad1)*%
X164465000Y-102235000D03*
X164465000Y-100457000D03*
X170561000Y-99187000D03*
X162814000Y-105791000D03*
%TO.N,Net-(D3-Pad2)*%
X179578000Y-101981000D03*
X166116000Y-107061000D03*
%TO.N,Net-(SW1-Pad1)*%
X116840000Y-71247000D03*
X176991135Y-101172135D03*
%TO.N,Net-(D1-Pad2)*%
X178058142Y-100455320D03*
X169081081Y-99904919D03*
%TO.N,Net-(SW4-Pad1)*%
X177419000Y-98044000D03*
X171958000Y-99822000D03*
%TO.N,Net-(JP1-Pad1)*%
X178420000Y-107950000D03*
%TO.N,VCC*%
X170688000Y-95885000D03*
%TO.N,Net-(JP2-Pad1)*%
X171465000Y-97790000D03*
%TO.N,GND*%
X141859000Y-123571000D03*
X174752000Y-93980000D03*
X179705000Y-109347000D03*
X175514000Y-104521000D03*
X179832000Y-74168000D03*
X178308000Y-83693000D03*
X178181000Y-111760000D03*
X179832000Y-124333000D03*
X161417000Y-123952000D03*
X128640500Y-120590989D03*
X126102839Y-122679661D03*
X120015000Y-125349000D03*
X119888000Y-109855000D03*
X121158000Y-83693000D03*
X122682000Y-73787000D03*
%TO.N,SEG_D*%
X139495000Y-123395000D03*
X146558000Y-127599502D03*
%TO.N,SEG_C*%
X143680000Y-123655000D03*
X149860000Y-123571000D03*
%TO.N,SEG_E*%
X135890000Y-126492000D03*
%TO.N,SEG_B*%
X152146000Y-113157000D03*
X145980498Y-115570000D03*
%TO.N,SEG_A*%
X142395500Y-117884500D03*
X145161000Y-117983000D03*
%TO.N,SEG_F*%
X140843000Y-112903000D03*
X147828000Y-112903000D03*
%TO.N,SEG_G*%
X139319000Y-113538000D03*
X146939000Y-113538000D03*
%TO.N,SEG_DP*%
X126100500Y-121158000D03*
X127508000Y-116840000D03*
X142875000Y-120523000D03*
%TO.N,SEG_G*%
X127635000Y-117856000D03*
X135382000Y-117866500D03*
%TO.N,SEG_F*%
X134112000Y-118491000D03*
%TO.N,SEG_A*%
X133477000Y-119507000D03*
X133350000Y-125476000D03*
%TO.N,SEG_B*%
X132140503Y-126111000D03*
X132334000Y-119507000D03*
%TO.N,SEG_C*%
X131191000Y-126111000D03*
X131191000Y-119507000D03*
%TO.N,SEG_D*%
X130175589Y-119507589D03*
X130175000Y-126111000D03*
%TO.N,SEG_E*%
X128651000Y-119507000D03*
X128651000Y-125603000D03*
%TO.N,SEG_F*%
X127635000Y-125603000D03*
X127635000Y-119507000D03*
%TD*%
%TA.AperFunction,Conductor*%
%TO.N,GND*%
G36*
X181378457Y-69489002D02*
G01*
X181385384Y-69493789D01*
X181417639Y-69517710D01*
X181418629Y-69518445D01*
X181428185Y-69526288D01*
X181568616Y-69653567D01*
X181605658Y-69714135D01*
X181610000Y-69746927D01*
X181610000Y-127001000D01*
X181589998Y-127069121D01*
X181536342Y-127115614D01*
X181484000Y-127127000D01*
X146880869Y-127127000D01*
X146832652Y-127117409D01*
X146709343Y-127066334D01*
X146701709Y-127063172D01*
X146558000Y-127044252D01*
X146414291Y-127063172D01*
X146406657Y-127066334D01*
X146283348Y-127117409D01*
X146235131Y-127127000D01*
X136337930Y-127127000D01*
X136269809Y-127106998D01*
X136223316Y-127053342D01*
X136213212Y-126983068D01*
X136242706Y-126918488D01*
X136261226Y-126901038D01*
X136276071Y-126889647D01*
X136282621Y-126884621D01*
X136370861Y-126769625D01*
X136426330Y-126635709D01*
X136445250Y-126492000D01*
X136426330Y-126348291D01*
X136370861Y-126214375D01*
X136282621Y-126099379D01*
X136167625Y-126011139D01*
X136033709Y-125955670D01*
X135890000Y-125936750D01*
X135746291Y-125955670D01*
X135612375Y-126011139D01*
X135497379Y-126099379D01*
X135409139Y-126214375D01*
X135353670Y-126348291D01*
X135334750Y-126492000D01*
X135353670Y-126635709D01*
X135409139Y-126769625D01*
X135497379Y-126884621D01*
X135503929Y-126889647D01*
X135518774Y-126901038D01*
X135560641Y-126958376D01*
X135564863Y-127029247D01*
X135530099Y-127091149D01*
X135467386Y-127124431D01*
X135442070Y-127127000D01*
X111759000Y-127127000D01*
X111690879Y-127106998D01*
X111644386Y-127053342D01*
X111633000Y-127001000D01*
X111633000Y-125603000D01*
X127079750Y-125603000D01*
X127098670Y-125746709D01*
X127154139Y-125880625D01*
X127242379Y-125995621D01*
X127357375Y-126083861D01*
X127491291Y-126139330D01*
X127635000Y-126158250D01*
X127778709Y-126139330D01*
X127912625Y-126083861D01*
X128027621Y-125995621D01*
X128043040Y-125975527D01*
X128100375Y-125933662D01*
X128171246Y-125929440D01*
X128233149Y-125964204D01*
X128242952Y-125975517D01*
X128258379Y-125995621D01*
X128373375Y-126083861D01*
X128507291Y-126139330D01*
X128651000Y-126158250D01*
X128794709Y-126139330D01*
X128863105Y-126111000D01*
X129619750Y-126111000D01*
X129638670Y-126254709D01*
X129694139Y-126388625D01*
X129782379Y-126503621D01*
X129897375Y-126591861D01*
X130031291Y-126647330D01*
X130175000Y-126666250D01*
X130318709Y-126647330D01*
X130452625Y-126591861D01*
X130567621Y-126503621D01*
X130583040Y-126483527D01*
X130640375Y-126441662D01*
X130711246Y-126437440D01*
X130773149Y-126472204D01*
X130782952Y-126483517D01*
X130798379Y-126503621D01*
X130913375Y-126591861D01*
X131047291Y-126647330D01*
X131191000Y-126666250D01*
X131334709Y-126647330D01*
X131468625Y-126591861D01*
X131583621Y-126503621D01*
X131584507Y-126504775D01*
X131638968Y-126475036D01*
X131709783Y-126480101D01*
X131747388Y-126504265D01*
X131747882Y-126503621D01*
X131862878Y-126591861D01*
X131996794Y-126647330D01*
X132140503Y-126666250D01*
X132284212Y-126647330D01*
X132418128Y-126591861D01*
X132533124Y-126503621D01*
X132621364Y-126388625D01*
X132676833Y-126254709D01*
X132695753Y-126111000D01*
X132676833Y-125967291D01*
X132621364Y-125833375D01*
X132533124Y-125718379D01*
X132418128Y-125630139D01*
X132284212Y-125574670D01*
X132140503Y-125555750D01*
X131996794Y-125574670D01*
X131862878Y-125630139D01*
X131747882Y-125718379D01*
X131746998Y-125717227D01*
X131692523Y-125746966D01*
X131621708Y-125741895D01*
X131584117Y-125717733D01*
X131583621Y-125718379D01*
X131468625Y-125630139D01*
X131334709Y-125574670D01*
X131191000Y-125555750D01*
X131047291Y-125574670D01*
X130913375Y-125630139D01*
X130798379Y-125718379D01*
X130782960Y-125738473D01*
X130725625Y-125780338D01*
X130654754Y-125784560D01*
X130592851Y-125749796D01*
X130583048Y-125738483D01*
X130567621Y-125718379D01*
X130452625Y-125630139D01*
X130318709Y-125574670D01*
X130175000Y-125555750D01*
X130031291Y-125574670D01*
X129897375Y-125630139D01*
X129782379Y-125718379D01*
X129694139Y-125833375D01*
X129638670Y-125967291D01*
X129619750Y-126111000D01*
X128863105Y-126111000D01*
X128928625Y-126083861D01*
X129043621Y-125995621D01*
X129131861Y-125880625D01*
X129187330Y-125746709D01*
X129206250Y-125603000D01*
X129189530Y-125476000D01*
X132794750Y-125476000D01*
X132813670Y-125619709D01*
X132869139Y-125753625D01*
X132957379Y-125868621D01*
X133072375Y-125956861D01*
X133206291Y-126012330D01*
X133350000Y-126031250D01*
X133493709Y-126012330D01*
X133627625Y-125956861D01*
X133742621Y-125868621D01*
X133830861Y-125753625D01*
X133853073Y-125700000D01*
X160294318Y-125700000D01*
X160314956Y-125856762D01*
X160375464Y-126002841D01*
X160471718Y-126128282D01*
X160478264Y-126133305D01*
X160486116Y-126139330D01*
X160597159Y-126224536D01*
X160743238Y-126285044D01*
X160860639Y-126300500D01*
X160939361Y-126300500D01*
X161056762Y-126285044D01*
X161202841Y-126224536D01*
X161313884Y-126139330D01*
X161321736Y-126133305D01*
X161328282Y-126128282D01*
X161424536Y-126002841D01*
X161485044Y-125856762D01*
X161505682Y-125700000D01*
X161485044Y-125543238D01*
X161457193Y-125476000D01*
X161750750Y-125476000D01*
X161769670Y-125619709D01*
X161825139Y-125753625D01*
X161913379Y-125868621D01*
X162028375Y-125956861D01*
X162162291Y-126012330D01*
X162306000Y-126031250D01*
X162449709Y-126012330D01*
X162583625Y-125956861D01*
X162698621Y-125868621D01*
X162786861Y-125753625D01*
X162809073Y-125700000D01*
X163294318Y-125700000D01*
X163314956Y-125856762D01*
X163375464Y-126002841D01*
X163471718Y-126128282D01*
X163478264Y-126133305D01*
X163486116Y-126139330D01*
X163597159Y-126224536D01*
X163743238Y-126285044D01*
X163860639Y-126300500D01*
X163939361Y-126300500D01*
X164056762Y-126285044D01*
X164202841Y-126224536D01*
X164313884Y-126139330D01*
X164321736Y-126133305D01*
X164328282Y-126128282D01*
X164424536Y-126002841D01*
X164485044Y-125856762D01*
X164505682Y-125700000D01*
X164485044Y-125543238D01*
X164424536Y-125397159D01*
X164328282Y-125271718D01*
X164202841Y-125175464D01*
X164056762Y-125114956D01*
X163939361Y-125099500D01*
X163860639Y-125099500D01*
X163743238Y-125114956D01*
X163597159Y-125175464D01*
X163471718Y-125271718D01*
X163375464Y-125397159D01*
X163314956Y-125543238D01*
X163294318Y-125700000D01*
X162809073Y-125700000D01*
X162842330Y-125619709D01*
X162861250Y-125476000D01*
X162842330Y-125332291D01*
X162786861Y-125198375D01*
X162698621Y-125083379D01*
X162583625Y-124995139D01*
X162449709Y-124939670D01*
X162306000Y-124920750D01*
X162162291Y-124939670D01*
X162028375Y-124995139D01*
X161913379Y-125083379D01*
X161825139Y-125198375D01*
X161769670Y-125332291D01*
X161750750Y-125476000D01*
X161457193Y-125476000D01*
X161424536Y-125397159D01*
X161328282Y-125271718D01*
X161202841Y-125175464D01*
X161056762Y-125114956D01*
X160939361Y-125099500D01*
X160860639Y-125099500D01*
X160743238Y-125114956D01*
X160597159Y-125175464D01*
X160471718Y-125271718D01*
X160375464Y-125397159D01*
X160314956Y-125543238D01*
X160294318Y-125700000D01*
X133853073Y-125700000D01*
X133886330Y-125619709D01*
X133905250Y-125476000D01*
X133886330Y-125332291D01*
X133830861Y-125198375D01*
X133742621Y-125083379D01*
X133627625Y-124995139D01*
X133493709Y-124939670D01*
X133350000Y-124920750D01*
X133206291Y-124939670D01*
X133072375Y-124995139D01*
X132957379Y-125083379D01*
X132869139Y-125198375D01*
X132813670Y-125332291D01*
X132794750Y-125476000D01*
X129189530Y-125476000D01*
X129187330Y-125459291D01*
X129131861Y-125325375D01*
X129043621Y-125210379D01*
X128928625Y-125122139D01*
X128794709Y-125066670D01*
X128651000Y-125047750D01*
X128507291Y-125066670D01*
X128373375Y-125122139D01*
X128258379Y-125210379D01*
X128242960Y-125230473D01*
X128185625Y-125272338D01*
X128114754Y-125276560D01*
X128052851Y-125241796D01*
X128043048Y-125230483D01*
X128027621Y-125210379D01*
X127912625Y-125122139D01*
X127778709Y-125066670D01*
X127635000Y-125047750D01*
X127491291Y-125066670D01*
X127357375Y-125122139D01*
X127242379Y-125210379D01*
X127154139Y-125325375D01*
X127098670Y-125459291D01*
X127079750Y-125603000D01*
X111633000Y-125603000D01*
X111633000Y-124333000D01*
X134318750Y-124333000D01*
X134337670Y-124476709D01*
X134393139Y-124610625D01*
X134481379Y-124725621D01*
X134596375Y-124813861D01*
X134730291Y-124869330D01*
X134874000Y-124888250D01*
X135017709Y-124869330D01*
X135151625Y-124813861D01*
X135266621Y-124725621D01*
X135354861Y-124610625D01*
X135410330Y-124476709D01*
X135429250Y-124333000D01*
X135410330Y-124189291D01*
X135354861Y-124055375D01*
X135266621Y-123940379D01*
X135151625Y-123852139D01*
X135017709Y-123796670D01*
X134874000Y-123777750D01*
X134730291Y-123796670D01*
X134596375Y-123852139D01*
X134481379Y-123940379D01*
X134393139Y-124055375D01*
X134337670Y-124189291D01*
X134318750Y-124333000D01*
X111633000Y-124333000D01*
X111633000Y-123395000D01*
X138939750Y-123395000D01*
X138958670Y-123538709D01*
X139014139Y-123672625D01*
X139102379Y-123787621D01*
X139217375Y-123875861D01*
X139351291Y-123931330D01*
X139495000Y-123950250D01*
X139638709Y-123931330D01*
X139772625Y-123875861D01*
X139887621Y-123787621D01*
X139975861Y-123672625D01*
X139983161Y-123655000D01*
X143124750Y-123655000D01*
X143143670Y-123798709D01*
X143199139Y-123932625D01*
X143287379Y-124047621D01*
X143402375Y-124135861D01*
X143536291Y-124191330D01*
X143680000Y-124210250D01*
X143823709Y-124191330D01*
X143957625Y-124135861D01*
X144072621Y-124047621D01*
X144160861Y-123932625D01*
X144216330Y-123798709D01*
X144235250Y-123655000D01*
X144224191Y-123571000D01*
X149304750Y-123571000D01*
X149323670Y-123714709D01*
X149379139Y-123848625D01*
X149467379Y-123963621D01*
X149582375Y-124051861D01*
X149716291Y-124107330D01*
X149860000Y-124126250D01*
X150003709Y-124107330D01*
X150137625Y-124051861D01*
X150252621Y-123963621D01*
X150340861Y-123848625D01*
X150396330Y-123714709D01*
X150415250Y-123571000D01*
X150396330Y-123427291D01*
X150340861Y-123293375D01*
X150252621Y-123178379D01*
X150137625Y-123090139D01*
X150003709Y-123034670D01*
X149860000Y-123015750D01*
X149716291Y-123034670D01*
X149582375Y-123090139D01*
X149467379Y-123178379D01*
X149379139Y-123293375D01*
X149323670Y-123427291D01*
X149304750Y-123571000D01*
X144224191Y-123571000D01*
X144216330Y-123511291D01*
X144160861Y-123377375D01*
X144072621Y-123262379D01*
X143957625Y-123174139D01*
X143823709Y-123118670D01*
X143680000Y-123099750D01*
X143536291Y-123118670D01*
X143402375Y-123174139D01*
X143287379Y-123262379D01*
X143199139Y-123377375D01*
X143143670Y-123511291D01*
X143124750Y-123655000D01*
X139983161Y-123655000D01*
X140031330Y-123538709D01*
X140050250Y-123395000D01*
X140031330Y-123251291D01*
X139975861Y-123117375D01*
X139887621Y-123002379D01*
X139772625Y-122914139D01*
X139638709Y-122858670D01*
X139495000Y-122839750D01*
X139351291Y-122858670D01*
X139217375Y-122914139D01*
X139102379Y-123002379D01*
X139014139Y-123117375D01*
X138958670Y-123251291D01*
X138939750Y-123395000D01*
X111633000Y-123395000D01*
X111633000Y-121158000D01*
X125545250Y-121158000D01*
X125564170Y-121301709D01*
X125619639Y-121435625D01*
X125707879Y-121550621D01*
X125822875Y-121638861D01*
X125956791Y-121694330D01*
X126100500Y-121713250D01*
X126244209Y-121694330D01*
X126287255Y-121676500D01*
X126942250Y-121676500D01*
X126961170Y-121820209D01*
X127016639Y-121954125D01*
X127104879Y-122069121D01*
X127219875Y-122157361D01*
X127353791Y-122212830D01*
X127497500Y-122231750D01*
X127641209Y-122212830D01*
X127775125Y-122157361D01*
X127890121Y-122069121D01*
X127978361Y-121954125D01*
X128025637Y-121839989D01*
X133829093Y-121839989D01*
X133848013Y-121983698D01*
X133903482Y-122117614D01*
X133991722Y-122232610D01*
X134106718Y-122320850D01*
X134240634Y-122376319D01*
X134384343Y-122395239D01*
X134505567Y-122379279D01*
X134575715Y-122390218D01*
X134628814Y-122437346D01*
X134648004Y-122505700D01*
X134638422Y-122552418D01*
X134594832Y-122657657D01*
X134591670Y-122665291D01*
X134572750Y-122809000D01*
X134591670Y-122952709D01*
X134647139Y-123086625D01*
X134735379Y-123201621D01*
X134850375Y-123289861D01*
X134984291Y-123345330D01*
X135128000Y-123364250D01*
X135271709Y-123345330D01*
X135405625Y-123289861D01*
X135520621Y-123201621D01*
X135608861Y-123086625D01*
X135664330Y-122952709D01*
X135683250Y-122809000D01*
X135664330Y-122665291D01*
X135608861Y-122531375D01*
X135529538Y-122428000D01*
X141938750Y-122428000D01*
X141957670Y-122571709D01*
X142013139Y-122705625D01*
X142101379Y-122820621D01*
X142216375Y-122908861D01*
X142350291Y-122964330D01*
X142494000Y-122983250D01*
X142637709Y-122964330D01*
X142771625Y-122908861D01*
X142886621Y-122820621D01*
X142974861Y-122705625D01*
X143030330Y-122571709D01*
X143049250Y-122428000D01*
X143030330Y-122284291D01*
X142974861Y-122150375D01*
X142886621Y-122035379D01*
X142771625Y-121947139D01*
X142637709Y-121891670D01*
X142494000Y-121872750D01*
X142350291Y-121891670D01*
X142216375Y-121947139D01*
X142101379Y-122035379D01*
X142013139Y-122150375D01*
X141957670Y-122284291D01*
X141938750Y-122428000D01*
X135529538Y-122428000D01*
X135520621Y-122416379D01*
X135405625Y-122328139D01*
X135271709Y-122272670D01*
X135128000Y-122253750D01*
X135006776Y-122269710D01*
X134936628Y-122258771D01*
X134883529Y-122211643D01*
X134864339Y-122143289D01*
X134873921Y-122096571D01*
X134917511Y-121991332D01*
X134917512Y-121991329D01*
X134920673Y-121983698D01*
X134939593Y-121839989D01*
X134920673Y-121696280D01*
X134865204Y-121562364D01*
X134776964Y-121447368D01*
X134661968Y-121359128D01*
X134528052Y-121303659D01*
X134384343Y-121284739D01*
X134240634Y-121303659D01*
X134106718Y-121359128D01*
X133991722Y-121447368D01*
X133903482Y-121562364D01*
X133848013Y-121696280D01*
X133829093Y-121839989D01*
X128025637Y-121839989D01*
X128033830Y-121820209D01*
X128052750Y-121676500D01*
X128033830Y-121532791D01*
X127978361Y-121398875D01*
X127890121Y-121283879D01*
X127775125Y-121195639D01*
X127641209Y-121140170D01*
X127497500Y-121121250D01*
X127353791Y-121140170D01*
X127219875Y-121195639D01*
X127104879Y-121283879D01*
X127016639Y-121398875D01*
X126961170Y-121532791D01*
X126942250Y-121676500D01*
X126287255Y-121676500D01*
X126378125Y-121638861D01*
X126493121Y-121550621D01*
X126581361Y-121435625D01*
X126636830Y-121301709D01*
X126655750Y-121158000D01*
X126636830Y-121014291D01*
X126581361Y-120880375D01*
X126493121Y-120765379D01*
X126378125Y-120677139D01*
X126244209Y-120621670D01*
X126100500Y-120602750D01*
X125956791Y-120621670D01*
X125822875Y-120677139D01*
X125707879Y-120765379D01*
X125619639Y-120880375D01*
X125564170Y-121014291D01*
X125545250Y-121158000D01*
X111633000Y-121158000D01*
X111633000Y-119507000D01*
X127079750Y-119507000D01*
X127098670Y-119650709D01*
X127154139Y-119784625D01*
X127242379Y-119899621D01*
X127357375Y-119987861D01*
X127491291Y-120043330D01*
X127635000Y-120062250D01*
X127778709Y-120043330D01*
X127912625Y-119987861D01*
X128027621Y-119899621D01*
X128043040Y-119879527D01*
X128100375Y-119837662D01*
X128171246Y-119833440D01*
X128233149Y-119868204D01*
X128242952Y-119879517D01*
X128258379Y-119899621D01*
X128373375Y-119987861D01*
X128507291Y-120043330D01*
X128651000Y-120062250D01*
X128794709Y-120043330D01*
X128928625Y-119987861D01*
X129043621Y-119899621D01*
X129131861Y-119784625D01*
X129187330Y-119650709D01*
X129206172Y-119507589D01*
X129620339Y-119507589D01*
X129639259Y-119651298D01*
X129694728Y-119785214D01*
X129782968Y-119900210D01*
X129897964Y-119988450D01*
X130031880Y-120043919D01*
X130175589Y-120062839D01*
X130319298Y-120043919D01*
X130453214Y-119988450D01*
X130568210Y-119900210D01*
X130583560Y-119880206D01*
X130640895Y-119838341D01*
X130711766Y-119834119D01*
X130773669Y-119868883D01*
X130783480Y-119880205D01*
X130793005Y-119892617D01*
X130798379Y-119899621D01*
X130913375Y-119987861D01*
X130921003Y-119991020D01*
X130927949Y-119995031D01*
X130976942Y-120046415D01*
X130990376Y-120116129D01*
X130963988Y-120182039D01*
X130906155Y-120223220D01*
X130881394Y-120229071D01*
X130793291Y-120240670D01*
X130659375Y-120296139D01*
X130544379Y-120384379D01*
X130456139Y-120499375D01*
X130400670Y-120633291D01*
X130381750Y-120777000D01*
X130400670Y-120920709D01*
X130456139Y-121054625D01*
X130544379Y-121169621D01*
X130659375Y-121257861D01*
X130793291Y-121313330D01*
X130937000Y-121332250D01*
X131080709Y-121313330D01*
X131214625Y-121257861D01*
X131329621Y-121169621D01*
X131417861Y-121054625D01*
X131473330Y-120920709D01*
X131492250Y-120777000D01*
X131473330Y-120633291D01*
X131427647Y-120523000D01*
X142319750Y-120523000D01*
X142338670Y-120666709D01*
X142394139Y-120800625D01*
X142482379Y-120915621D01*
X142597375Y-121003861D01*
X142731291Y-121059330D01*
X142875000Y-121078250D01*
X143018709Y-121059330D01*
X143152625Y-121003861D01*
X143267621Y-120915621D01*
X143355861Y-120800625D01*
X143411330Y-120666709D01*
X143430250Y-120523000D01*
X143411330Y-120379291D01*
X143355861Y-120245375D01*
X143267621Y-120130379D01*
X143152625Y-120042139D01*
X143018709Y-119986670D01*
X142875000Y-119967750D01*
X142731291Y-119986670D01*
X142597375Y-120042139D01*
X142482379Y-120130379D01*
X142394139Y-120245375D01*
X142338670Y-120379291D01*
X142319750Y-120523000D01*
X131427647Y-120523000D01*
X131417861Y-120499375D01*
X131329621Y-120384379D01*
X131214625Y-120296139D01*
X131206996Y-120292979D01*
X131200051Y-120288969D01*
X131151058Y-120237585D01*
X131137624Y-120167871D01*
X131164012Y-120101961D01*
X131221845Y-120060780D01*
X131246607Y-120054929D01*
X131334709Y-120043330D01*
X131468625Y-119987861D01*
X131583621Y-119899621D01*
X131662538Y-119796775D01*
X131719876Y-119754908D01*
X131790747Y-119750686D01*
X131852650Y-119785450D01*
X131862462Y-119796775D01*
X131941379Y-119899621D01*
X132056375Y-119987861D01*
X132190291Y-120043330D01*
X132334000Y-120062250D01*
X132477709Y-120043330D01*
X132611625Y-119987861D01*
X132726621Y-119899621D01*
X132805538Y-119796775D01*
X132862876Y-119754908D01*
X132933747Y-119750686D01*
X132995650Y-119785450D01*
X133005462Y-119796775D01*
X133084379Y-119899621D01*
X133199375Y-119987861D01*
X133333291Y-120043330D01*
X133477000Y-120062250D01*
X133620709Y-120043330D01*
X133754625Y-119987861D01*
X133869621Y-119899621D01*
X133957861Y-119784625D01*
X134013330Y-119650709D01*
X134015530Y-119634000D01*
X143589750Y-119634000D01*
X143608670Y-119777709D01*
X143664139Y-119911625D01*
X143752379Y-120026621D01*
X143867375Y-120114861D01*
X144001291Y-120170330D01*
X144145000Y-120189250D01*
X144288709Y-120170330D01*
X144422625Y-120114861D01*
X144537621Y-120026621D01*
X144625861Y-119911625D01*
X144681330Y-119777709D01*
X144700250Y-119634000D01*
X144683530Y-119507000D01*
X155273750Y-119507000D01*
X155292670Y-119650709D01*
X155348139Y-119784625D01*
X155436379Y-119899621D01*
X155551375Y-119987861D01*
X155685291Y-120043330D01*
X155829000Y-120062250D01*
X155972709Y-120043330D01*
X156106625Y-119987861D01*
X156221621Y-119899621D01*
X156309861Y-119784625D01*
X156365330Y-119650709D01*
X156384250Y-119507000D01*
X156365330Y-119363291D01*
X156309861Y-119229375D01*
X156221621Y-119114379D01*
X156106625Y-119026139D01*
X155972709Y-118970670D01*
X155829000Y-118951750D01*
X155685291Y-118970670D01*
X155551375Y-119026139D01*
X155436379Y-119114379D01*
X155348139Y-119229375D01*
X155292670Y-119363291D01*
X155273750Y-119507000D01*
X144683530Y-119507000D01*
X144681330Y-119490291D01*
X144625861Y-119356375D01*
X144537621Y-119241379D01*
X144422625Y-119153139D01*
X144288709Y-119097670D01*
X144145000Y-119078750D01*
X144001291Y-119097670D01*
X143867375Y-119153139D01*
X143752379Y-119241379D01*
X143664139Y-119356375D01*
X143608670Y-119490291D01*
X143589750Y-119634000D01*
X134015530Y-119634000D01*
X134032250Y-119507000D01*
X134013330Y-119363291D01*
X133957861Y-119229375D01*
X133956503Y-119227605D01*
X133940423Y-119161323D01*
X133963643Y-119094231D01*
X134019450Y-119050344D01*
X134082727Y-119042396D01*
X134112000Y-119046250D01*
X134255709Y-119027330D01*
X134389625Y-118971861D01*
X134504621Y-118883621D01*
X134592861Y-118768625D01*
X134648330Y-118634709D01*
X134667250Y-118491000D01*
X134648330Y-118347291D01*
X134592861Y-118213375D01*
X134504621Y-118098379D01*
X134389625Y-118010139D01*
X134255709Y-117954670D01*
X134112000Y-117935750D01*
X133968291Y-117954670D01*
X133834375Y-118010139D01*
X133719379Y-118098379D01*
X133631139Y-118213375D01*
X133575670Y-118347291D01*
X133556750Y-118491000D01*
X133575670Y-118634709D01*
X133631139Y-118768625D01*
X133632497Y-118770395D01*
X133648577Y-118836677D01*
X133625357Y-118903769D01*
X133569550Y-118947656D01*
X133506273Y-118955604D01*
X133485188Y-118952828D01*
X133477000Y-118951750D01*
X133333291Y-118970670D01*
X133199375Y-119026139D01*
X133084379Y-119114379D01*
X133079353Y-119120929D01*
X133005462Y-119217225D01*
X132948124Y-119259092D01*
X132877253Y-119263314D01*
X132815350Y-119228550D01*
X132805538Y-119217225D01*
X132731647Y-119120929D01*
X132726621Y-119114379D01*
X132611625Y-119026139D01*
X132477709Y-118970670D01*
X132334000Y-118951750D01*
X132190291Y-118970670D01*
X132056375Y-119026139D01*
X131941379Y-119114379D01*
X131936353Y-119120929D01*
X131862462Y-119217225D01*
X131805124Y-119259092D01*
X131734253Y-119263314D01*
X131672350Y-119228550D01*
X131662538Y-119217225D01*
X131588647Y-119120929D01*
X131583621Y-119114379D01*
X131468625Y-119026139D01*
X131334709Y-118970670D01*
X131191000Y-118951750D01*
X131047291Y-118970670D01*
X130913375Y-119026139D01*
X130798379Y-119114379D01*
X130783029Y-119134383D01*
X130725694Y-119176248D01*
X130654823Y-119180470D01*
X130592920Y-119145706D01*
X130583109Y-119134384D01*
X130573236Y-119121518D01*
X130568210Y-119114968D01*
X130453214Y-119026728D01*
X130319298Y-118971259D01*
X130175589Y-118952339D01*
X130031880Y-118971259D01*
X129897964Y-119026728D01*
X129782968Y-119114968D01*
X129694728Y-119229964D01*
X129639259Y-119363880D01*
X129620339Y-119507589D01*
X129206172Y-119507589D01*
X129206250Y-119507000D01*
X129187330Y-119363291D01*
X129131861Y-119229375D01*
X129043621Y-119114379D01*
X128928625Y-119026139D01*
X128794709Y-118970670D01*
X128651000Y-118951750D01*
X128507291Y-118970670D01*
X128373375Y-119026139D01*
X128258379Y-119114379D01*
X128242960Y-119134473D01*
X128185625Y-119176338D01*
X128114754Y-119180560D01*
X128052851Y-119145796D01*
X128043048Y-119134483D01*
X128027621Y-119114379D01*
X127912625Y-119026139D01*
X127778709Y-118970670D01*
X127635000Y-118951750D01*
X127491291Y-118970670D01*
X127357375Y-119026139D01*
X127242379Y-119114379D01*
X127154139Y-119229375D01*
X127098670Y-119363291D01*
X127079750Y-119507000D01*
X111633000Y-119507000D01*
X111633000Y-116840000D01*
X126952750Y-116840000D01*
X126971670Y-116983709D01*
X127027139Y-117117625D01*
X127115379Y-117232621D01*
X127206800Y-117302771D01*
X127248667Y-117360109D01*
X127252888Y-117430980D01*
X127230057Y-117479437D01*
X127220510Y-117491879D01*
X127154139Y-117578375D01*
X127098670Y-117712291D01*
X127079750Y-117856000D01*
X127098670Y-117999709D01*
X127154139Y-118133625D01*
X127242379Y-118248621D01*
X127357375Y-118336861D01*
X127491291Y-118392330D01*
X127635000Y-118411250D01*
X127778709Y-118392330D01*
X127912625Y-118336861D01*
X128027621Y-118248621D01*
X128115861Y-118133625D01*
X128171330Y-117999709D01*
X128188868Y-117866500D01*
X134826750Y-117866500D01*
X134845670Y-118010209D01*
X134901139Y-118144125D01*
X134989379Y-118259121D01*
X135104375Y-118347361D01*
X135238291Y-118402830D01*
X135382000Y-118421750D01*
X135525709Y-118402830D01*
X135659625Y-118347361D01*
X135774621Y-118259121D01*
X135862861Y-118144125D01*
X135918330Y-118010209D01*
X135937250Y-117866500D01*
X135919147Y-117729000D01*
X140541750Y-117729000D01*
X140560670Y-117872709D01*
X140616139Y-118006625D01*
X140704379Y-118121621D01*
X140819375Y-118209861D01*
X140953291Y-118265330D01*
X141097000Y-118284250D01*
X141240709Y-118265330D01*
X141374625Y-118209861D01*
X141489621Y-118121621D01*
X141577861Y-118006625D01*
X141600971Y-117950832D01*
X141609215Y-117930930D01*
X141653763Y-117875649D01*
X141721127Y-117853228D01*
X141789918Y-117870786D01*
X141838296Y-117922748D01*
X141850545Y-117962700D01*
X141859170Y-118028209D01*
X141914639Y-118162125D01*
X142002879Y-118277121D01*
X142117875Y-118365361D01*
X142251791Y-118420830D01*
X142395500Y-118439750D01*
X142539209Y-118420830D01*
X142673125Y-118365361D01*
X142788121Y-118277121D01*
X142876361Y-118162125D01*
X142931830Y-118028209D01*
X142937782Y-117983000D01*
X144605750Y-117983000D01*
X144624670Y-118126709D01*
X144680139Y-118260625D01*
X144768379Y-118375621D01*
X144883375Y-118463861D01*
X145017291Y-118519330D01*
X145161000Y-118538250D01*
X145304709Y-118519330D01*
X145438625Y-118463861D01*
X145553621Y-118375621D01*
X145641861Y-118260625D01*
X145697330Y-118126709D01*
X145716250Y-117983000D01*
X145697330Y-117839291D01*
X145641861Y-117705375D01*
X145553621Y-117590379D01*
X145438625Y-117502139D01*
X145373105Y-117475000D01*
X159591750Y-117475000D01*
X159610670Y-117618709D01*
X159666139Y-117752625D01*
X159754379Y-117867621D01*
X159869375Y-117955861D01*
X160003291Y-118011330D01*
X160147000Y-118030250D01*
X160290709Y-118011330D01*
X160424625Y-117955861D01*
X160539621Y-117867621D01*
X160627861Y-117752625D01*
X160683330Y-117618709D01*
X160702250Y-117475000D01*
X160685530Y-117348000D01*
X164798750Y-117348000D01*
X164817670Y-117491709D01*
X164873139Y-117625625D01*
X164961379Y-117740621D01*
X165076375Y-117828861D01*
X165210291Y-117884330D01*
X165354000Y-117903250D01*
X165497709Y-117884330D01*
X165631625Y-117828861D01*
X165746621Y-117740621D01*
X165834861Y-117625625D01*
X165890330Y-117491709D01*
X165909250Y-117348000D01*
X165890330Y-117204291D01*
X165834861Y-117070375D01*
X165746621Y-116955379D01*
X165631625Y-116867139D01*
X165497709Y-116811670D01*
X165354000Y-116792750D01*
X165210291Y-116811670D01*
X165076375Y-116867139D01*
X164961379Y-116955379D01*
X164873139Y-117070375D01*
X164817670Y-117204291D01*
X164798750Y-117348000D01*
X160685530Y-117348000D01*
X160683330Y-117331291D01*
X160627861Y-117197375D01*
X160539621Y-117082379D01*
X160424625Y-116994139D01*
X160290709Y-116938670D01*
X160147000Y-116919750D01*
X160003291Y-116938670D01*
X159869375Y-116994139D01*
X159754379Y-117082379D01*
X159666139Y-117197375D01*
X159610670Y-117331291D01*
X159591750Y-117475000D01*
X145373105Y-117475000D01*
X145304709Y-117446670D01*
X145161000Y-117427750D01*
X145017291Y-117446670D01*
X144883375Y-117502139D01*
X144768379Y-117590379D01*
X144680139Y-117705375D01*
X144624670Y-117839291D01*
X144605750Y-117983000D01*
X142937782Y-117983000D01*
X142950750Y-117884500D01*
X142931830Y-117740791D01*
X142876361Y-117606875D01*
X142788121Y-117491879D01*
X142673125Y-117403639D01*
X142539209Y-117348170D01*
X142395500Y-117329250D01*
X142251791Y-117348170D01*
X142117875Y-117403639D01*
X142002879Y-117491879D01*
X141914639Y-117606875D01*
X141904158Y-117632178D01*
X141883285Y-117682570D01*
X141838737Y-117737851D01*
X141771373Y-117760272D01*
X141702582Y-117742714D01*
X141654204Y-117690752D01*
X141641954Y-117650798D01*
X141637730Y-117618709D01*
X141633330Y-117585291D01*
X141577861Y-117451375D01*
X141489621Y-117336379D01*
X141374625Y-117248139D01*
X141240709Y-117192670D01*
X141097000Y-117173750D01*
X140953291Y-117192670D01*
X140819375Y-117248139D01*
X140704379Y-117336379D01*
X140616139Y-117451375D01*
X140560670Y-117585291D01*
X140541750Y-117729000D01*
X135919147Y-117729000D01*
X135918330Y-117722791D01*
X135862861Y-117588875D01*
X135774621Y-117473879D01*
X135659625Y-117385639D01*
X135525709Y-117330170D01*
X135382000Y-117311250D01*
X135238291Y-117330170D01*
X135104375Y-117385639D01*
X134989379Y-117473879D01*
X134901139Y-117588875D01*
X134845670Y-117722791D01*
X134826750Y-117866500D01*
X128188868Y-117866500D01*
X128190250Y-117856000D01*
X128171330Y-117712291D01*
X128115861Y-117578375D01*
X128027621Y-117463379D01*
X127936200Y-117393229D01*
X127894333Y-117335891D01*
X127890112Y-117265020D01*
X127912943Y-117216563D01*
X127944967Y-117174828D01*
X127988861Y-117117625D01*
X128044330Y-116983709D01*
X128063250Y-116840000D01*
X128044330Y-116696291D01*
X127988861Y-116562375D01*
X127900621Y-116447379D01*
X127785625Y-116359139D01*
X127651709Y-116303670D01*
X127508000Y-116284750D01*
X127364291Y-116303670D01*
X127230375Y-116359139D01*
X127115379Y-116447379D01*
X127027139Y-116562375D01*
X126971670Y-116696291D01*
X126952750Y-116840000D01*
X111633000Y-116840000D01*
X111633000Y-115062000D01*
X132159750Y-115062000D01*
X132178670Y-115205709D01*
X132234139Y-115339625D01*
X132322379Y-115454621D01*
X132437375Y-115542861D01*
X132571291Y-115598330D01*
X132715000Y-115617250D01*
X132858709Y-115598330D01*
X132992625Y-115542861D01*
X133107621Y-115454621D01*
X133109170Y-115452603D01*
X133169159Y-115419845D01*
X133239974Y-115424910D01*
X133296810Y-115467457D01*
X133321621Y-115533977D01*
X133320864Y-115559413D01*
X133302750Y-115697000D01*
X133321670Y-115840709D01*
X133377139Y-115974625D01*
X133465379Y-116089621D01*
X133580375Y-116177861D01*
X133714291Y-116233330D01*
X133858000Y-116252250D01*
X134001709Y-116233330D01*
X134135625Y-116177861D01*
X134250621Y-116089621D01*
X134338861Y-115974625D01*
X134394330Y-115840709D01*
X134396530Y-115824000D01*
X135461750Y-115824000D01*
X135480670Y-115967709D01*
X135536139Y-116101625D01*
X135624379Y-116216621D01*
X135739375Y-116304861D01*
X135873291Y-116360330D01*
X136017000Y-116379250D01*
X136160709Y-116360330D01*
X136294625Y-116304861D01*
X136409621Y-116216621D01*
X136497861Y-116101625D01*
X136553330Y-115967709D01*
X136572250Y-115824000D01*
X136553330Y-115680291D01*
X136507647Y-115570000D01*
X145425248Y-115570000D01*
X145444168Y-115713709D01*
X145499637Y-115847625D01*
X145587877Y-115962621D01*
X145702873Y-116050861D01*
X145836789Y-116106330D01*
X145980498Y-116125250D01*
X146124207Y-116106330D01*
X146258123Y-116050861D01*
X146373119Y-115962621D01*
X146461359Y-115847625D01*
X146516828Y-115713709D01*
X146535748Y-115570000D01*
X146516828Y-115426291D01*
X146461359Y-115292375D01*
X146373119Y-115177379D01*
X146258123Y-115089139D01*
X146124207Y-115033670D01*
X145980498Y-115014750D01*
X145836789Y-115033670D01*
X145702873Y-115089139D01*
X145587877Y-115177379D01*
X145499637Y-115292375D01*
X145444168Y-115426291D01*
X145425248Y-115570000D01*
X136507647Y-115570000D01*
X136497861Y-115546375D01*
X136409621Y-115431379D01*
X136294625Y-115343139D01*
X136160709Y-115287670D01*
X136017000Y-115268750D01*
X135873291Y-115287670D01*
X135739375Y-115343139D01*
X135624379Y-115431379D01*
X135536139Y-115546375D01*
X135480670Y-115680291D01*
X135461750Y-115824000D01*
X134396530Y-115824000D01*
X134413250Y-115697000D01*
X134394330Y-115553291D01*
X134338861Y-115419375D01*
X134250621Y-115304379D01*
X134135625Y-115216139D01*
X134001709Y-115160670D01*
X133858000Y-115141750D01*
X133714291Y-115160670D01*
X133580375Y-115216139D01*
X133465379Y-115304379D01*
X133463830Y-115306397D01*
X133403841Y-115339155D01*
X133333026Y-115334090D01*
X133276190Y-115291543D01*
X133251379Y-115225023D01*
X133252136Y-115199587D01*
X133269172Y-115070188D01*
X133270250Y-115062000D01*
X133251330Y-114918291D01*
X133195861Y-114784375D01*
X133107621Y-114669379D01*
X132992625Y-114581139D01*
X132858709Y-114525670D01*
X132715000Y-114506750D01*
X132571291Y-114525670D01*
X132437375Y-114581139D01*
X132322379Y-114669379D01*
X132234139Y-114784375D01*
X132178670Y-114918291D01*
X132159750Y-115062000D01*
X111633000Y-115062000D01*
X111633000Y-113919000D01*
X131270750Y-113919000D01*
X131289670Y-114062709D01*
X131345139Y-114196625D01*
X131433379Y-114311621D01*
X131548375Y-114399861D01*
X131682291Y-114455330D01*
X131826000Y-114474250D01*
X131969709Y-114455330D01*
X132103625Y-114399861D01*
X132218621Y-114311621D01*
X132306861Y-114196625D01*
X132362330Y-114062709D01*
X132381250Y-113919000D01*
X132362330Y-113775291D01*
X132306861Y-113641375D01*
X132227538Y-113538000D01*
X138763750Y-113538000D01*
X138782670Y-113681709D01*
X138838139Y-113815625D01*
X138926379Y-113930621D01*
X139041375Y-114018861D01*
X139175291Y-114074330D01*
X139319000Y-114093250D01*
X139462709Y-114074330D01*
X139596625Y-114018861D01*
X139711621Y-113930621D01*
X139799861Y-113815625D01*
X139855330Y-113681709D01*
X139874250Y-113538000D01*
X146383750Y-113538000D01*
X146402670Y-113681709D01*
X146458139Y-113815625D01*
X146546379Y-113930621D01*
X146661375Y-114018861D01*
X146795291Y-114074330D01*
X146939000Y-114093250D01*
X147082709Y-114074330D01*
X147216625Y-114018861D01*
X147331621Y-113930621D01*
X147419861Y-113815625D01*
X147475330Y-113681709D01*
X147494250Y-113538000D01*
X147496248Y-113538263D01*
X147513174Y-113480617D01*
X147566830Y-113434124D01*
X147637104Y-113424020D01*
X147667390Y-113432329D01*
X147684291Y-113439330D01*
X147828000Y-113458250D01*
X147971709Y-113439330D01*
X148105625Y-113383861D01*
X148220621Y-113295621D01*
X148308861Y-113180625D01*
X148318647Y-113157000D01*
X151590750Y-113157000D01*
X151609670Y-113300709D01*
X151665139Y-113434625D01*
X151753379Y-113549621D01*
X151868375Y-113637861D01*
X152002291Y-113693330D01*
X152146000Y-113712250D01*
X152289709Y-113693330D01*
X152423625Y-113637861D01*
X152538621Y-113549621D01*
X152547538Y-113538000D01*
X160099750Y-113538000D01*
X160118670Y-113681709D01*
X160174139Y-113815625D01*
X160262379Y-113930621D01*
X160377375Y-114018861D01*
X160511291Y-114074330D01*
X160655000Y-114093250D01*
X160798709Y-114074330D01*
X160932625Y-114018861D01*
X161047621Y-113930621D01*
X161135861Y-113815625D01*
X161191330Y-113681709D01*
X161210250Y-113538000D01*
X161191330Y-113394291D01*
X161135861Y-113260375D01*
X161047621Y-113145379D01*
X160932625Y-113057139D01*
X160798709Y-113001670D01*
X160655000Y-112982750D01*
X160511291Y-113001670D01*
X160377375Y-113057139D01*
X160262379Y-113145379D01*
X160174139Y-113260375D01*
X160118670Y-113394291D01*
X160099750Y-113538000D01*
X152547538Y-113538000D01*
X152626861Y-113434625D01*
X152682330Y-113300709D01*
X152701250Y-113157000D01*
X152682330Y-113013291D01*
X152626861Y-112879375D01*
X152538621Y-112764379D01*
X152423625Y-112676139D01*
X152289709Y-112620670D01*
X152146000Y-112601750D01*
X152002291Y-112620670D01*
X151868375Y-112676139D01*
X151753379Y-112764379D01*
X151665139Y-112879375D01*
X151609670Y-113013291D01*
X151590750Y-113157000D01*
X148318647Y-113157000D01*
X148364330Y-113046709D01*
X148383250Y-112903000D01*
X148364330Y-112759291D01*
X148308861Y-112625375D01*
X148220621Y-112510379D01*
X148105625Y-112422139D01*
X147971709Y-112366670D01*
X147828000Y-112347750D01*
X147684291Y-112366670D01*
X147550375Y-112422139D01*
X147435379Y-112510379D01*
X147347139Y-112625375D01*
X147291670Y-112759291D01*
X147272750Y-112903000D01*
X147270752Y-112902737D01*
X147253826Y-112960383D01*
X147200170Y-113006876D01*
X147129896Y-113016980D01*
X147099610Y-113008671D01*
X147082709Y-113001670D01*
X146939000Y-112982750D01*
X146795291Y-113001670D01*
X146661375Y-113057139D01*
X146546379Y-113145379D01*
X146458139Y-113260375D01*
X146402670Y-113394291D01*
X146383750Y-113538000D01*
X139874250Y-113538000D01*
X139855330Y-113394291D01*
X139799861Y-113260375D01*
X139711621Y-113145379D01*
X139596625Y-113057139D01*
X139462709Y-113001670D01*
X139319000Y-112982750D01*
X139175291Y-113001670D01*
X139041375Y-113057139D01*
X138926379Y-113145379D01*
X138838139Y-113260375D01*
X138782670Y-113394291D01*
X138763750Y-113538000D01*
X132227538Y-113538000D01*
X132218621Y-113526379D01*
X132103625Y-113438139D01*
X131969709Y-113382670D01*
X131826000Y-113363750D01*
X131682291Y-113382670D01*
X131548375Y-113438139D01*
X131433379Y-113526379D01*
X131345139Y-113641375D01*
X131289670Y-113775291D01*
X131270750Y-113919000D01*
X111633000Y-113919000D01*
X111633000Y-112903000D01*
X140287750Y-112903000D01*
X140306670Y-113046709D01*
X140362139Y-113180625D01*
X140450379Y-113295621D01*
X140565375Y-113383861D01*
X140699291Y-113439330D01*
X140843000Y-113458250D01*
X140986709Y-113439330D01*
X141120625Y-113383861D01*
X141235621Y-113295621D01*
X141323861Y-113180625D01*
X141379330Y-113046709D01*
X141398250Y-112903000D01*
X141379330Y-112759291D01*
X141323861Y-112625375D01*
X141235621Y-112510379D01*
X141120625Y-112422139D01*
X140986709Y-112366670D01*
X140843000Y-112347750D01*
X140699291Y-112366670D01*
X140565375Y-112422139D01*
X140450379Y-112510379D01*
X140362139Y-112625375D01*
X140306670Y-112759291D01*
X140287750Y-112903000D01*
X111633000Y-112903000D01*
X111633000Y-110765000D01*
X136731750Y-110765000D01*
X136750670Y-110908709D01*
X136806139Y-111042625D01*
X136894379Y-111157621D01*
X137009375Y-111245861D01*
X137143291Y-111301330D01*
X137287000Y-111320250D01*
X137430709Y-111301330D01*
X137564625Y-111245861D01*
X137679621Y-111157621D01*
X137767861Y-111042625D01*
X137823330Y-110908709D01*
X137842250Y-110765000D01*
X137823330Y-110621291D01*
X137767861Y-110487375D01*
X137679621Y-110372379D01*
X137564625Y-110284139D01*
X137430709Y-110228670D01*
X137287000Y-110209750D01*
X137143291Y-110228670D01*
X137009375Y-110284139D01*
X136894379Y-110372379D01*
X136806139Y-110487375D01*
X136750670Y-110621291D01*
X136731750Y-110765000D01*
X111633000Y-110765000D01*
X111633000Y-109347000D01*
X134318750Y-109347000D01*
X134337670Y-109490709D01*
X134393139Y-109624625D01*
X134481379Y-109739621D01*
X134596375Y-109827861D01*
X134730291Y-109883330D01*
X134874000Y-109902250D01*
X135017709Y-109883330D01*
X135151625Y-109827861D01*
X135266621Y-109739621D01*
X135354861Y-109624625D01*
X135410330Y-109490709D01*
X135412530Y-109474000D01*
X169497750Y-109474000D01*
X169516670Y-109617709D01*
X169572139Y-109751625D01*
X169660379Y-109866621D01*
X169775375Y-109954861D01*
X169909291Y-110010330D01*
X170053000Y-110029250D01*
X170196709Y-110010330D01*
X170330625Y-109954861D01*
X170445621Y-109866621D01*
X170533861Y-109751625D01*
X170589330Y-109617709D01*
X170608250Y-109474000D01*
X170589330Y-109330291D01*
X170533861Y-109196375D01*
X170445621Y-109081379D01*
X170330625Y-108993139D01*
X170196709Y-108937670D01*
X170053000Y-108918750D01*
X169909291Y-108937670D01*
X169775375Y-108993139D01*
X169660379Y-109081379D01*
X169572139Y-109196375D01*
X169516670Y-109330291D01*
X169497750Y-109474000D01*
X135412530Y-109474000D01*
X135429250Y-109347000D01*
X135410330Y-109203291D01*
X135354861Y-109069375D01*
X135266621Y-108954379D01*
X135151625Y-108866139D01*
X135017709Y-108810670D01*
X134874000Y-108791750D01*
X134730291Y-108810670D01*
X134596375Y-108866139D01*
X134481379Y-108954379D01*
X134393139Y-109069375D01*
X134337670Y-109203291D01*
X134318750Y-109347000D01*
X111633000Y-109347000D01*
X111633000Y-108204000D01*
X131143750Y-108204000D01*
X131162670Y-108347709D01*
X131218139Y-108481625D01*
X131306379Y-108596621D01*
X131421375Y-108684861D01*
X131555291Y-108740330D01*
X131699000Y-108759250D01*
X131842709Y-108740330D01*
X131976625Y-108684861D01*
X132091621Y-108596621D01*
X132179861Y-108481625D01*
X132235330Y-108347709D01*
X132254250Y-108204000D01*
X132235330Y-108060291D01*
X132189647Y-107950000D01*
X177864750Y-107950000D01*
X177883670Y-108093709D01*
X177939139Y-108227625D01*
X178027379Y-108342621D01*
X178142375Y-108430861D01*
X178276291Y-108486330D01*
X178420000Y-108505250D01*
X178563709Y-108486330D01*
X178697625Y-108430861D01*
X178812621Y-108342621D01*
X178900861Y-108227625D01*
X178956330Y-108093709D01*
X178975250Y-107950000D01*
X178956330Y-107806291D01*
X178900861Y-107672375D01*
X178812621Y-107557379D01*
X178697625Y-107469139D01*
X178563709Y-107413670D01*
X178420000Y-107394750D01*
X178276291Y-107413670D01*
X178142375Y-107469139D01*
X178027379Y-107557379D01*
X177939139Y-107672375D01*
X177883670Y-107806291D01*
X177864750Y-107950000D01*
X132189647Y-107950000D01*
X132179861Y-107926375D01*
X132091621Y-107811379D01*
X131976625Y-107723139D01*
X131842709Y-107667670D01*
X131699000Y-107648750D01*
X131555291Y-107667670D01*
X131421375Y-107723139D01*
X131306379Y-107811379D01*
X131218139Y-107926375D01*
X131162670Y-108060291D01*
X131143750Y-108204000D01*
X111633000Y-108204000D01*
X111633000Y-107061000D01*
X165560750Y-107061000D01*
X165579670Y-107204709D01*
X165635139Y-107338625D01*
X165723379Y-107453621D01*
X165838375Y-107541861D01*
X165972291Y-107597330D01*
X166116000Y-107616250D01*
X166259709Y-107597330D01*
X166393625Y-107541861D01*
X166508621Y-107453621D01*
X166596861Y-107338625D01*
X166652330Y-107204709D01*
X166671250Y-107061000D01*
X166652330Y-106917291D01*
X166596861Y-106783375D01*
X166508621Y-106668379D01*
X166393625Y-106580139D01*
X166259709Y-106524670D01*
X166116000Y-106505750D01*
X165972291Y-106524670D01*
X165838375Y-106580139D01*
X165723379Y-106668379D01*
X165635139Y-106783375D01*
X165579670Y-106917291D01*
X165560750Y-107061000D01*
X111633000Y-107061000D01*
X111633000Y-105791000D01*
X162258750Y-105791000D01*
X162277670Y-105934709D01*
X162333139Y-106068625D01*
X162421379Y-106183621D01*
X162536375Y-106271861D01*
X162670291Y-106327330D01*
X162814000Y-106346250D01*
X162957709Y-106327330D01*
X163091625Y-106271861D01*
X163206621Y-106183621D01*
X163294861Y-106068625D01*
X163350330Y-105934709D01*
X163352530Y-105918000D01*
X167592750Y-105918000D01*
X167611670Y-106061709D01*
X167667139Y-106195625D01*
X167755379Y-106310621D01*
X167870375Y-106398861D01*
X168004291Y-106454330D01*
X168148000Y-106473250D01*
X168291709Y-106454330D01*
X168425625Y-106398861D01*
X168540621Y-106310621D01*
X168628861Y-106195625D01*
X168684330Y-106061709D01*
X168703250Y-105918000D01*
X168684330Y-105774291D01*
X168628861Y-105640375D01*
X168549538Y-105537000D01*
X169116750Y-105537000D01*
X169135670Y-105680709D01*
X169191139Y-105814625D01*
X169279379Y-105929621D01*
X169394375Y-106017861D01*
X169528291Y-106073330D01*
X169672000Y-106092250D01*
X169815709Y-106073330D01*
X169949625Y-106017861D01*
X170064621Y-105929621D01*
X170152861Y-105814625D01*
X170208330Y-105680709D01*
X170227250Y-105537000D01*
X170208330Y-105393291D01*
X170152861Y-105259375D01*
X170064621Y-105144379D01*
X169949625Y-105056139D01*
X169815709Y-105000670D01*
X169672000Y-104981750D01*
X169528291Y-105000670D01*
X169394375Y-105056139D01*
X169279379Y-105144379D01*
X169191139Y-105259375D01*
X169135670Y-105393291D01*
X169116750Y-105537000D01*
X168549538Y-105537000D01*
X168540621Y-105525379D01*
X168425625Y-105437139D01*
X168291709Y-105381670D01*
X168148000Y-105362750D01*
X168004291Y-105381670D01*
X167870375Y-105437139D01*
X167755379Y-105525379D01*
X167667139Y-105640375D01*
X167611670Y-105774291D01*
X167592750Y-105918000D01*
X163352530Y-105918000D01*
X163369250Y-105791000D01*
X163350330Y-105647291D01*
X163294861Y-105513375D01*
X163206621Y-105398379D01*
X163091625Y-105310139D01*
X162957709Y-105254670D01*
X162814000Y-105235750D01*
X162670291Y-105254670D01*
X162536375Y-105310139D01*
X162421379Y-105398379D01*
X162333139Y-105513375D01*
X162277670Y-105647291D01*
X162258750Y-105791000D01*
X111633000Y-105791000D01*
X111633000Y-104902000D01*
X165941750Y-104902000D01*
X165960670Y-105045709D01*
X166016139Y-105179625D01*
X166104379Y-105294621D01*
X166219375Y-105382861D01*
X166353291Y-105438330D01*
X166497000Y-105457250D01*
X166640709Y-105438330D01*
X166774625Y-105382861D01*
X166889621Y-105294621D01*
X166977861Y-105179625D01*
X167033330Y-105045709D01*
X167052250Y-104902000D01*
X167033330Y-104758291D01*
X166977861Y-104624375D01*
X166889621Y-104509379D01*
X166774625Y-104421139D01*
X166640709Y-104365670D01*
X166497000Y-104346750D01*
X166353291Y-104365670D01*
X166219375Y-104421139D01*
X166104379Y-104509379D01*
X166016139Y-104624375D01*
X165960670Y-104758291D01*
X165941750Y-104902000D01*
X111633000Y-104902000D01*
X111633000Y-102235000D01*
X163909750Y-102235000D01*
X163928670Y-102378709D01*
X163984139Y-102512625D01*
X164072379Y-102627621D01*
X164187375Y-102715861D01*
X164321291Y-102771330D01*
X164465000Y-102790250D01*
X164608709Y-102771330D01*
X164742625Y-102715861D01*
X164857621Y-102627621D01*
X164945861Y-102512625D01*
X165001330Y-102378709D01*
X165020250Y-102235000D01*
X165001330Y-102091291D01*
X164955647Y-101981000D01*
X179022750Y-101981000D01*
X179041670Y-102124709D01*
X179097139Y-102258625D01*
X179185379Y-102373621D01*
X179300375Y-102461861D01*
X179434291Y-102517330D01*
X179578000Y-102536250D01*
X179721709Y-102517330D01*
X179855625Y-102461861D01*
X179970621Y-102373621D01*
X180058861Y-102258625D01*
X180114330Y-102124709D01*
X180133250Y-101981000D01*
X180114330Y-101837291D01*
X180058861Y-101703375D01*
X179970621Y-101588379D01*
X179855625Y-101500139D01*
X179721709Y-101444670D01*
X179578000Y-101425750D01*
X179434291Y-101444670D01*
X179300375Y-101500139D01*
X179185379Y-101588379D01*
X179097139Y-101703375D01*
X179041670Y-101837291D01*
X179022750Y-101981000D01*
X164955647Y-101981000D01*
X164945861Y-101957375D01*
X164857621Y-101842379D01*
X164742625Y-101754139D01*
X164608709Y-101698670D01*
X164465000Y-101679750D01*
X164321291Y-101698670D01*
X164187375Y-101754139D01*
X164072379Y-101842379D01*
X163984139Y-101957375D01*
X163928670Y-102091291D01*
X163909750Y-102235000D01*
X111633000Y-102235000D01*
X111633000Y-101172135D01*
X176435885Y-101172135D01*
X176454805Y-101315844D01*
X176510274Y-101449760D01*
X176598514Y-101564756D01*
X176713510Y-101652996D01*
X176847426Y-101708465D01*
X176991135Y-101727385D01*
X177134844Y-101708465D01*
X177268760Y-101652996D01*
X177383756Y-101564756D01*
X177471996Y-101449760D01*
X177527465Y-101315844D01*
X177546385Y-101172135D01*
X177527465Y-101028426D01*
X177525557Y-101023820D01*
X177527209Y-100954360D01*
X177567002Y-100895563D01*
X177632266Y-100867614D01*
X177702280Y-100879386D01*
X177723931Y-100892761D01*
X177727583Y-100895563D01*
X177780517Y-100936181D01*
X177914433Y-100991650D01*
X178058142Y-101010570D01*
X178201851Y-100991650D01*
X178335767Y-100936181D01*
X178450763Y-100847941D01*
X178539003Y-100732945D01*
X178594472Y-100599029D01*
X178613392Y-100455320D01*
X178594472Y-100311611D01*
X178539003Y-100177695D01*
X178450763Y-100062699D01*
X178335767Y-99974459D01*
X178201851Y-99918990D01*
X178058142Y-99900070D01*
X177914433Y-99918990D01*
X177780517Y-99974459D01*
X177665521Y-100062699D01*
X177577281Y-100177695D01*
X177521812Y-100311611D01*
X177502892Y-100455320D01*
X177521812Y-100599029D01*
X177523720Y-100603635D01*
X177522068Y-100673095D01*
X177482275Y-100731892D01*
X177417011Y-100759841D01*
X177346997Y-100748069D01*
X177325346Y-100734694D01*
X177313124Y-100725316D01*
X177268760Y-100691274D01*
X177134844Y-100635805D01*
X176991135Y-100616885D01*
X176847426Y-100635805D01*
X176713510Y-100691274D01*
X176598514Y-100779514D01*
X176510274Y-100894510D01*
X176454805Y-101028426D01*
X176435885Y-101172135D01*
X111633000Y-101172135D01*
X111633000Y-100457000D01*
X163909750Y-100457000D01*
X163928670Y-100600709D01*
X163984139Y-100734625D01*
X164072379Y-100849621D01*
X164187375Y-100937861D01*
X164321291Y-100993330D01*
X164465000Y-101012250D01*
X164608709Y-100993330D01*
X164742625Y-100937861D01*
X164857621Y-100849621D01*
X164945861Y-100734625D01*
X165001330Y-100600709D01*
X165020250Y-100457000D01*
X165001330Y-100313291D01*
X164945861Y-100179375D01*
X164857621Y-100064379D01*
X164742625Y-99976139D01*
X164608709Y-99920670D01*
X164489070Y-99904919D01*
X168525831Y-99904919D01*
X168544751Y-100048628D01*
X168600220Y-100182544D01*
X168688460Y-100297540D01*
X168803456Y-100385780D01*
X168937372Y-100441249D01*
X169081081Y-100460169D01*
X169224790Y-100441249D01*
X169358706Y-100385780D01*
X169473702Y-100297540D01*
X169561942Y-100182544D01*
X169617411Y-100048628D01*
X169636331Y-99904919D01*
X169625414Y-99822000D01*
X171402750Y-99822000D01*
X171421670Y-99965709D01*
X171477139Y-100099625D01*
X171565379Y-100214621D01*
X171680375Y-100302861D01*
X171814291Y-100358330D01*
X171958000Y-100377250D01*
X172101709Y-100358330D01*
X172235625Y-100302861D01*
X172350621Y-100214621D01*
X172438861Y-100099625D01*
X172494330Y-99965709D01*
X172513250Y-99822000D01*
X172494330Y-99678291D01*
X172438861Y-99544375D01*
X172350621Y-99429379D01*
X172235625Y-99341139D01*
X172101709Y-99285670D01*
X171958000Y-99266750D01*
X171814291Y-99285670D01*
X171680375Y-99341139D01*
X171565379Y-99429379D01*
X171477139Y-99544375D01*
X171421670Y-99678291D01*
X171402750Y-99822000D01*
X169625414Y-99822000D01*
X169617411Y-99761210D01*
X169561942Y-99627294D01*
X169473702Y-99512298D01*
X169358706Y-99424058D01*
X169224790Y-99368589D01*
X169081081Y-99349669D01*
X168937372Y-99368589D01*
X168803456Y-99424058D01*
X168688460Y-99512298D01*
X168600220Y-99627294D01*
X168544751Y-99761210D01*
X168525831Y-99904919D01*
X164489070Y-99904919D01*
X164465000Y-99901750D01*
X164321291Y-99920670D01*
X164187375Y-99976139D01*
X164072379Y-100064379D01*
X163984139Y-100179375D01*
X163928670Y-100313291D01*
X163909750Y-100457000D01*
X111633000Y-100457000D01*
X111633000Y-99187000D01*
X170005750Y-99187000D01*
X170024670Y-99330709D01*
X170080139Y-99464625D01*
X170168379Y-99579621D01*
X170283375Y-99667861D01*
X170417291Y-99723330D01*
X170561000Y-99742250D01*
X170704709Y-99723330D01*
X170838625Y-99667861D01*
X170953621Y-99579621D01*
X171041861Y-99464625D01*
X171097330Y-99330709D01*
X171116250Y-99187000D01*
X171097330Y-99043291D01*
X171041861Y-98909375D01*
X170953621Y-98794379D01*
X170838625Y-98706139D01*
X170704709Y-98650670D01*
X170561000Y-98631750D01*
X170417291Y-98650670D01*
X170283375Y-98706139D01*
X170168379Y-98794379D01*
X170080139Y-98909375D01*
X170024670Y-99043291D01*
X170005750Y-99187000D01*
X111633000Y-99187000D01*
X111633000Y-98552000D01*
X164671750Y-98552000D01*
X164690670Y-98695709D01*
X164746139Y-98829625D01*
X164834379Y-98944621D01*
X164949375Y-99032861D01*
X165083291Y-99088330D01*
X165227000Y-99107250D01*
X165370709Y-99088330D01*
X165504625Y-99032861D01*
X165619621Y-98944621D01*
X165707861Y-98829625D01*
X165763330Y-98695709D01*
X165782250Y-98552000D01*
X165763330Y-98408291D01*
X165707861Y-98274375D01*
X165619621Y-98159379D01*
X165504625Y-98071139D01*
X165370709Y-98015670D01*
X165227000Y-97996750D01*
X165083291Y-98015670D01*
X164949375Y-98071139D01*
X164834379Y-98159379D01*
X164746139Y-98274375D01*
X164690670Y-98408291D01*
X164671750Y-98552000D01*
X111633000Y-98552000D01*
X111633000Y-97790000D01*
X170909750Y-97790000D01*
X170928670Y-97933709D01*
X170984139Y-98067625D01*
X171072379Y-98182621D01*
X171187375Y-98270861D01*
X171321291Y-98326330D01*
X171465000Y-98345250D01*
X171608709Y-98326330D01*
X171742625Y-98270861D01*
X171857621Y-98182621D01*
X171945861Y-98067625D01*
X171955647Y-98044000D01*
X176863750Y-98044000D01*
X176882670Y-98187709D01*
X176938139Y-98321625D01*
X177026379Y-98436621D01*
X177141375Y-98524861D01*
X177275291Y-98580330D01*
X177419000Y-98599250D01*
X177562709Y-98580330D01*
X177696625Y-98524861D01*
X177811621Y-98436621D01*
X177899861Y-98321625D01*
X177955330Y-98187709D01*
X177974250Y-98044000D01*
X177955330Y-97900291D01*
X177899861Y-97766375D01*
X177811621Y-97651379D01*
X177696625Y-97563139D01*
X177562709Y-97507670D01*
X177419000Y-97488750D01*
X177275291Y-97507670D01*
X177141375Y-97563139D01*
X177026379Y-97651379D01*
X176938139Y-97766375D01*
X176882670Y-97900291D01*
X176863750Y-98044000D01*
X171955647Y-98044000D01*
X172001330Y-97933709D01*
X172020250Y-97790000D01*
X172001330Y-97646291D01*
X171945861Y-97512375D01*
X171857621Y-97397379D01*
X171742625Y-97309139D01*
X171608709Y-97253670D01*
X171465000Y-97234750D01*
X171321291Y-97253670D01*
X171187375Y-97309139D01*
X171072379Y-97397379D01*
X170984139Y-97512375D01*
X170928670Y-97646291D01*
X170909750Y-97790000D01*
X111633000Y-97790000D01*
X111633000Y-95885000D01*
X170132750Y-95885000D01*
X170151670Y-96028709D01*
X170207139Y-96162625D01*
X170295379Y-96277621D01*
X170410375Y-96365861D01*
X170544291Y-96421330D01*
X170688000Y-96440250D01*
X170831709Y-96421330D01*
X170965625Y-96365861D01*
X171080621Y-96277621D01*
X171168861Y-96162625D01*
X171224330Y-96028709D01*
X171243250Y-95885000D01*
X171224330Y-95741291D01*
X171168861Y-95607375D01*
X171080621Y-95492379D01*
X170965625Y-95404139D01*
X170831709Y-95348670D01*
X170688000Y-95329750D01*
X170544291Y-95348670D01*
X170410375Y-95404139D01*
X170295379Y-95492379D01*
X170207139Y-95607375D01*
X170151670Y-95741291D01*
X170132750Y-95885000D01*
X111633000Y-95885000D01*
X111633000Y-93965963D01*
X168539757Y-93965963D01*
X168556175Y-94161483D01*
X168610258Y-94350091D01*
X168613076Y-94355574D01*
X168697123Y-94519113D01*
X168697126Y-94519117D01*
X168699944Y-94524601D01*
X168821818Y-94678369D01*
X168826511Y-94682363D01*
X168826512Y-94682364D01*
X168951456Y-94788699D01*
X168971238Y-94805535D01*
X168976616Y-94808541D01*
X168976618Y-94808542D01*
X169012932Y-94828837D01*
X169142513Y-94901257D01*
X169329118Y-94961889D01*
X169523946Y-94985121D01*
X169530081Y-94984649D01*
X169530083Y-94984649D01*
X169713434Y-94970541D01*
X169713438Y-94970540D01*
X169719576Y-94970068D01*
X169908556Y-94917303D01*
X170083689Y-94828837D01*
X170113515Y-94805535D01*
X170233453Y-94711829D01*
X170238303Y-94708040D01*
X170268084Y-94673539D01*
X170362485Y-94564173D01*
X170362485Y-94564172D01*
X170366509Y-94559511D01*
X170463425Y-94388909D01*
X170508198Y-94254316D01*
X170512214Y-94242245D01*
X170552696Y-94183921D01*
X170618284Y-94156741D01*
X170688154Y-94169336D01*
X170740124Y-94217706D01*
X170754689Y-94254316D01*
X170783565Y-94382447D01*
X170786645Y-94392275D01*
X170866770Y-94589603D01*
X170871413Y-94598794D01*
X170982694Y-94780388D01*
X170988777Y-94788699D01*
X171128213Y-94949667D01*
X171135580Y-94956883D01*
X171299434Y-95092916D01*
X171307881Y-95098831D01*
X171491756Y-95206279D01*
X171501042Y-95210729D01*
X171700001Y-95286703D01*
X171709899Y-95289579D01*
X171813250Y-95310606D01*
X171827299Y-95309410D01*
X171831000Y-95299065D01*
X171831000Y-95298517D01*
X172339000Y-95298517D01*
X172343064Y-95312359D01*
X172356478Y-95314393D01*
X172363184Y-95313534D01*
X172373262Y-95311392D01*
X172577255Y-95250191D01*
X172586842Y-95246433D01*
X172778095Y-95152739D01*
X172786945Y-95147464D01*
X172960328Y-95023792D01*
X172968200Y-95017139D01*
X173119052Y-94866812D01*
X173125730Y-94858965D01*
X173250003Y-94686020D01*
X173255313Y-94677183D01*
X173349670Y-94486267D01*
X173353469Y-94476672D01*
X173415377Y-94272910D01*
X173417555Y-94262837D01*
X173418986Y-94251962D01*
X173416775Y-94237778D01*
X173403617Y-94234000D01*
X172357115Y-94234000D01*
X172341876Y-94238475D01*
X172340671Y-94239865D01*
X172339000Y-94247548D01*
X172339000Y-95298517D01*
X171831000Y-95298517D01*
X171831000Y-93852000D01*
X171851002Y-93783879D01*
X171904658Y-93737386D01*
X171957000Y-93726000D01*
X173403344Y-93726000D01*
X173416875Y-93722027D01*
X173418180Y-93712947D01*
X173376214Y-93545875D01*
X173372894Y-93536124D01*
X173287972Y-93340814D01*
X173283105Y-93331739D01*
X173167426Y-93152926D01*
X173161136Y-93144757D01*
X173017806Y-92987240D01*
X173010273Y-92980215D01*
X172843139Y-92848222D01*
X172834552Y-92842517D01*
X172648117Y-92739599D01*
X172638705Y-92735369D01*
X172437959Y-92664280D01*
X172427988Y-92661646D01*
X172362600Y-92649999D01*
X172299043Y-92618361D01*
X172262679Y-92557384D01*
X172265056Y-92486427D01*
X172305417Y-92428019D01*
X172350812Y-92404594D01*
X172448556Y-92377303D01*
X172623689Y-92288837D01*
X172653515Y-92265535D01*
X172773453Y-92171829D01*
X172778303Y-92168040D01*
X172808084Y-92133539D01*
X172902485Y-92024173D01*
X172902485Y-92024172D01*
X172906509Y-92019511D01*
X173003425Y-91848909D01*
X173065358Y-91662732D01*
X173089949Y-91468071D01*
X173090341Y-91440000D01*
X173071194Y-91244728D01*
X173069413Y-91238829D01*
X173069412Y-91238824D01*
X173016265Y-91062793D01*
X173014484Y-91056894D01*
X172922370Y-90883653D01*
X172798361Y-90731602D01*
X172647180Y-90606535D01*
X172474585Y-90513213D01*
X172380868Y-90484203D01*
X172293039Y-90457015D01*
X172293036Y-90457014D01*
X172287152Y-90455193D01*
X172281027Y-90454549D01*
X172281026Y-90454549D01*
X172098147Y-90435327D01*
X172098146Y-90435327D01*
X172092019Y-90434683D01*
X171969383Y-90445844D01*
X171902759Y-90451907D01*
X171902758Y-90451907D01*
X171896618Y-90452466D01*
X171890704Y-90454207D01*
X171890702Y-90454207D01*
X171761734Y-90492165D01*
X171708393Y-90507864D01*
X171702928Y-90510721D01*
X171539972Y-90595912D01*
X171539968Y-90595915D01*
X171534512Y-90598767D01*
X171529712Y-90602627D01*
X171529711Y-90602627D01*
X171495326Y-90630273D01*
X171381600Y-90721711D01*
X171255480Y-90872016D01*
X171252516Y-90877408D01*
X171252513Y-90877412D01*
X171173813Y-91020567D01*
X171160956Y-91043954D01*
X171101628Y-91230978D01*
X171079757Y-91425963D01*
X171096175Y-91621483D01*
X171150258Y-91810091D01*
X171153076Y-91815574D01*
X171237123Y-91979113D01*
X171237126Y-91979117D01*
X171239944Y-91984601D01*
X171361818Y-92138369D01*
X171511238Y-92265535D01*
X171516616Y-92268541D01*
X171516618Y-92268542D01*
X171552932Y-92288837D01*
X171682513Y-92361257D01*
X171818745Y-92405522D01*
X171877350Y-92445594D01*
X171904987Y-92510991D01*
X171892880Y-92580948D01*
X171844874Y-92633254D01*
X171798869Y-92649904D01*
X171774318Y-92653661D01*
X171764293Y-92656050D01*
X171561868Y-92722212D01*
X171552359Y-92726209D01*
X171363463Y-92824542D01*
X171354738Y-92830036D01*
X171184433Y-92957905D01*
X171176726Y-92964748D01*
X171029590Y-93118717D01*
X171023104Y-93126727D01*
X170903098Y-93302649D01*
X170898000Y-93311623D01*
X170808338Y-93504783D01*
X170804776Y-93514467D01*
X170751004Y-93708358D01*
X170713525Y-93768655D01*
X170649396Y-93799118D01*
X170578978Y-93790074D01*
X170524628Y-93744395D01*
X170508965Y-93711102D01*
X170476266Y-93602796D01*
X170476266Y-93602795D01*
X170474484Y-93596894D01*
X170382370Y-93423653D01*
X170258361Y-93271602D01*
X170107180Y-93146535D01*
X169934585Y-93053213D01*
X169840868Y-93024203D01*
X169753039Y-92997015D01*
X169753036Y-92997014D01*
X169747152Y-92995193D01*
X169741027Y-92994549D01*
X169741026Y-92994549D01*
X169558147Y-92975327D01*
X169558146Y-92975327D01*
X169552019Y-92974683D01*
X169429383Y-92985844D01*
X169362759Y-92991907D01*
X169362758Y-92991907D01*
X169356618Y-92992466D01*
X169350704Y-92994207D01*
X169350702Y-92994207D01*
X169221734Y-93032165D01*
X169168393Y-93047864D01*
X169162928Y-93050721D01*
X168999972Y-93135912D01*
X168999968Y-93135915D01*
X168994512Y-93138767D01*
X168989712Y-93142627D01*
X168989711Y-93142627D01*
X168976902Y-93152926D01*
X168841600Y-93261711D01*
X168715480Y-93412016D01*
X168712516Y-93417408D01*
X168712513Y-93417412D01*
X168664481Y-93504783D01*
X168620956Y-93583954D01*
X168561628Y-93770978D01*
X168539757Y-93965963D01*
X111633000Y-93965963D01*
X111633000Y-91425963D01*
X168539757Y-91425963D01*
X168556175Y-91621483D01*
X168610258Y-91810091D01*
X168613076Y-91815574D01*
X168697123Y-91979113D01*
X168697126Y-91979117D01*
X168699944Y-91984601D01*
X168821818Y-92138369D01*
X168971238Y-92265535D01*
X168976616Y-92268541D01*
X168976618Y-92268542D01*
X169012932Y-92288837D01*
X169142513Y-92361257D01*
X169329118Y-92421889D01*
X169523946Y-92445121D01*
X169530081Y-92444649D01*
X169530083Y-92444649D01*
X169713434Y-92430541D01*
X169713438Y-92430540D01*
X169719576Y-92430068D01*
X169908556Y-92377303D01*
X170083689Y-92288837D01*
X170113515Y-92265535D01*
X170233453Y-92171829D01*
X170238303Y-92168040D01*
X170268084Y-92133539D01*
X170362485Y-92024173D01*
X170362485Y-92024172D01*
X170366509Y-92019511D01*
X170463425Y-91848909D01*
X170525358Y-91662732D01*
X170549949Y-91468071D01*
X170550341Y-91440000D01*
X170531194Y-91244728D01*
X170529413Y-91238829D01*
X170529412Y-91238824D01*
X170476265Y-91062793D01*
X170474484Y-91056894D01*
X170382370Y-90883653D01*
X170258361Y-90731602D01*
X170107180Y-90606535D01*
X169934585Y-90513213D01*
X169840868Y-90484203D01*
X169753039Y-90457015D01*
X169753036Y-90457014D01*
X169747152Y-90455193D01*
X169741027Y-90454549D01*
X169741026Y-90454549D01*
X169558147Y-90435327D01*
X169558146Y-90435327D01*
X169552019Y-90434683D01*
X169429383Y-90445844D01*
X169362759Y-90451907D01*
X169362758Y-90451907D01*
X169356618Y-90452466D01*
X169350704Y-90454207D01*
X169350702Y-90454207D01*
X169221734Y-90492165D01*
X169168393Y-90507864D01*
X169162928Y-90510721D01*
X168999972Y-90595912D01*
X168999968Y-90595915D01*
X168994512Y-90598767D01*
X168989712Y-90602627D01*
X168989711Y-90602627D01*
X168955326Y-90630273D01*
X168841600Y-90721711D01*
X168715480Y-90872016D01*
X168712516Y-90877408D01*
X168712513Y-90877412D01*
X168633813Y-91020567D01*
X168620956Y-91043954D01*
X168561628Y-91230978D01*
X168539757Y-91425963D01*
X111633000Y-91425963D01*
X111633000Y-89764820D01*
X168544500Y-89764820D01*
X168553233Y-89808722D01*
X168560127Y-89819040D01*
X168560128Y-89819042D01*
X168572330Y-89837303D01*
X168586496Y-89858504D01*
X168596815Y-89865399D01*
X168625958Y-89884872D01*
X168625960Y-89884873D01*
X168636278Y-89891767D01*
X168680180Y-89900500D01*
X170409820Y-89900500D01*
X170453722Y-89891767D01*
X170464040Y-89884873D01*
X170464042Y-89884872D01*
X170493185Y-89865399D01*
X170503504Y-89858504D01*
X170517670Y-89837303D01*
X170529872Y-89819042D01*
X170529873Y-89819040D01*
X170536767Y-89808722D01*
X170545500Y-89764820D01*
X170545500Y-88885963D01*
X171079757Y-88885963D01*
X171096175Y-89081483D01*
X171150258Y-89270091D01*
X171153076Y-89275574D01*
X171237123Y-89439113D01*
X171237126Y-89439117D01*
X171239944Y-89444601D01*
X171361818Y-89598369D01*
X171511238Y-89725535D01*
X171516616Y-89728541D01*
X171516618Y-89728542D01*
X171552932Y-89748837D01*
X171682513Y-89821257D01*
X171869118Y-89881889D01*
X172063946Y-89905121D01*
X172070081Y-89904649D01*
X172070083Y-89904649D01*
X172253434Y-89890541D01*
X172253438Y-89890540D01*
X172259576Y-89890068D01*
X172448556Y-89837303D01*
X172623689Y-89748837D01*
X172653515Y-89725535D01*
X172773453Y-89631829D01*
X172778303Y-89628040D01*
X172808084Y-89593539D01*
X172902485Y-89484173D01*
X172902485Y-89484172D01*
X172906509Y-89479511D01*
X173003425Y-89308909D01*
X173065358Y-89122732D01*
X173089949Y-88928071D01*
X173090341Y-88900000D01*
X173071194Y-88704728D01*
X173069413Y-88698829D01*
X173069412Y-88698824D01*
X173016265Y-88522793D01*
X173014484Y-88516894D01*
X172922370Y-88343653D01*
X172798361Y-88191602D01*
X172647180Y-88066535D01*
X172474585Y-87973213D01*
X172372124Y-87941496D01*
X172293039Y-87917015D01*
X172293036Y-87917014D01*
X172287152Y-87915193D01*
X172281027Y-87914549D01*
X172281026Y-87914549D01*
X172098147Y-87895327D01*
X172098146Y-87895327D01*
X172092019Y-87894683D01*
X171969733Y-87905812D01*
X171902759Y-87911907D01*
X171902758Y-87911907D01*
X171896618Y-87912466D01*
X171890704Y-87914207D01*
X171890702Y-87914207D01*
X171821410Y-87934601D01*
X171708393Y-87967864D01*
X171702928Y-87970721D01*
X171539972Y-88055912D01*
X171539968Y-88055915D01*
X171534512Y-88058767D01*
X171529712Y-88062627D01*
X171529711Y-88062627D01*
X171495326Y-88090273D01*
X171381600Y-88181711D01*
X171255480Y-88332016D01*
X171252516Y-88337408D01*
X171252513Y-88337412D01*
X171173813Y-88480567D01*
X171160956Y-88503954D01*
X171101628Y-88690978D01*
X171079757Y-88885963D01*
X170545500Y-88885963D01*
X170545500Y-88035180D01*
X170536767Y-87991278D01*
X170529873Y-87980960D01*
X170529872Y-87980958D01*
X170510399Y-87951815D01*
X170503504Y-87941496D01*
X170493185Y-87934601D01*
X170464042Y-87915128D01*
X170464040Y-87915127D01*
X170453722Y-87908233D01*
X170409820Y-87899500D01*
X168680180Y-87899500D01*
X168636278Y-87908233D01*
X168625960Y-87915127D01*
X168625958Y-87915128D01*
X168596815Y-87934601D01*
X168586496Y-87941496D01*
X168579601Y-87951815D01*
X168560128Y-87980958D01*
X168560127Y-87980960D01*
X168553233Y-87991278D01*
X168544500Y-88035180D01*
X168544500Y-89764820D01*
X111633000Y-89764820D01*
X111633000Y-71247000D01*
X116284750Y-71247000D01*
X116303670Y-71390709D01*
X116359139Y-71524625D01*
X116447379Y-71639621D01*
X116562375Y-71727861D01*
X116696291Y-71783330D01*
X116840000Y-71802250D01*
X116983709Y-71783330D01*
X117117625Y-71727861D01*
X117232621Y-71639621D01*
X117320861Y-71524625D01*
X117376330Y-71390709D01*
X117395250Y-71247000D01*
X117376330Y-71103291D01*
X117320861Y-70969375D01*
X117232621Y-70854379D01*
X117117625Y-70766139D01*
X116983709Y-70710670D01*
X116840000Y-70691750D01*
X116696291Y-70710670D01*
X116562375Y-70766139D01*
X116447379Y-70854379D01*
X116359139Y-70969375D01*
X116303670Y-71103291D01*
X116284750Y-71247000D01*
X111633000Y-71247000D01*
X111633000Y-69596000D01*
X111637810Y-69596000D01*
X111637798Y-69559543D01*
X111676161Y-69499804D01*
X111740731Y-69470289D01*
X111758706Y-69469000D01*
X181310336Y-69469000D01*
X181378457Y-69489002D01*
G37*
%TD.AperFunction*%
%TD*%
M02*
