%TF.GenerationSoftware,KiCad,Pcbnew,(6.0.0)*%
%TF.CreationDate,2022-05-08T17:08:30-04:00*%
%TF.ProjectId,QR_ATTINY3217,51525f41-5454-4494-9e59-333231372e6b,rev?*%
%TF.SameCoordinates,Original*%
%TF.FileFunction,Copper,L4,Bot*%
%TF.FilePolarity,Positive*%
%FSLAX46Y46*%
G04 Gerber Fmt 4.6, Leading zero omitted, Abs format (unit mm)*
G04 Created by KiCad (PCBNEW (6.0.0)) date 2022-05-08 17:08:30*
%MOMM*%
%LPD*%
G01*
G04 APERTURE LIST*
G04 Aperture macros list*
%AMRoundRect*
0 Rectangle with rounded corners*
0 $1 Rounding radius*
0 $2 $3 $4 $5 $6 $7 $8 $9 X,Y pos of 4 corners*
0 Add a 4 corners polygon primitive as box body*
4,1,4,$2,$3,$4,$5,$6,$7,$8,$9,$2,$3,0*
0 Add four circle primitives for the rounded corners*
1,1,$1+$1,$2,$3*
1,1,$1+$1,$4,$5*
1,1,$1+$1,$6,$7*
1,1,$1+$1,$8,$9*
0 Add four rect primitives between the rounded corners*
20,1,$1+$1,$2,$3,$4,$5,0*
20,1,$1+$1,$4,$5,$6,$7,0*
20,1,$1+$1,$6,$7,$8,$9,0*
20,1,$1+$1,$8,$9,$2,$3,0*%
G04 Aperture macros list end*
%TA.AperFunction,SMDPad,CuDef*%
%ADD10R,1.000000X1.500000*%
%TD*%
%TA.AperFunction,ComponentPad*%
%ADD11R,1.700000X1.700000*%
%TD*%
%TA.AperFunction,ComponentPad*%
%ADD12O,1.700000X1.700000*%
%TD*%
%TA.AperFunction,SMDPad,CuDef*%
%ADD13RoundRect,0.250000X-0.400000X-0.625000X0.400000X-0.625000X0.400000X0.625000X-0.400000X0.625000X0*%
%TD*%
%TA.AperFunction,SMDPad,CuDef*%
%ADD14RoundRect,0.250001X0.462499X0.624999X-0.462499X0.624999X-0.462499X-0.624999X0.462499X-0.624999X0*%
%TD*%
%TA.AperFunction,SMDPad,CuDef*%
%ADD15R,2.600000X3.500000*%
%TD*%
%TA.AperFunction,ViaPad*%
%ADD16C,0.800000*%
%TD*%
%TA.AperFunction,Conductor*%
%ADD17C,0.150000*%
%TD*%
G04 APERTURE END LIST*
D10*
%TO.P,JP1,2,B*%
%TO.N,GND*%
X179720000Y-107950000D03*
%TO.P,JP1,1,A*%
%TO.N,Net-(JP1-Pad1)*%
X178420000Y-107950000D03*
%TD*%
%TO.P,JP2,2,B*%
%TO.N,VCC*%
X170165000Y-97790000D03*
%TO.P,JP2,1,A*%
%TO.N,Net-(JP2-Pad1)*%
X171465000Y-97790000D03*
%TD*%
D11*
%TO.P,J1,1,DATA*%
%TO.N,/UDPI*%
X169545000Y-88900000D03*
D12*
%TO.P,J1,2,VCC*%
%TO.N,VCC*%
X172085000Y-88900000D03*
%TO.P,J1,3,NC*%
%TO.N,unconnected-(J1-Pad3)*%
X169545000Y-91440000D03*
%TO.P,J1,4,NC*%
%TO.N,unconnected-(J1-Pad4)*%
X172085000Y-91440000D03*
%TO.P,J1,5,NC*%
%TO.N,unconnected-(J1-Pad5)*%
X169545000Y-93980000D03*
%TO.P,J1,6,GND*%
%TO.N,GND*%
X172085000Y-93980000D03*
%TD*%
D13*
%TO.P,R6,1*%
%TO.N,VCC*%
X144500000Y-121920000D03*
%TO.P,R6,2*%
%TO.N,Net-(D5-Pad1)*%
X147600000Y-121920000D03*
%TD*%
D14*
%TO.P,D5,1,K*%
%TO.N,Net-(D5-Pad1)*%
X147537500Y-125730000D03*
%TO.P,D5,2,A*%
%TO.N,GND*%
X144562500Y-125730000D03*
%TD*%
D15*
%TO.P,BT1,2,-*%
%TO.N,Net-(BT1-Pad2)*%
X131350000Y-111125000D03*
%TO.P,BT1,1,+*%
%TO.N,VCC*%
X160750000Y-111125000D03*
%TD*%
D16*
%TO.N,VCC*%
X168148000Y-105918000D03*
X165227000Y-98552000D03*
X165354000Y-117348000D03*
X170053000Y-109474000D03*
X155829000Y-119507000D03*
X134874000Y-124333000D03*
X136017000Y-115824000D03*
%TO.N,SEG_IN2*%
X131826000Y-113919000D03*
X130937000Y-120777000D03*
%TO.N,SEG_IN2_ENABLE*%
X169672000Y-105537000D03*
X127497500Y-121676500D03*
%TO.N,SEG_IN0*%
X135128000Y-122809000D03*
%TO.N,SEG_IN1*%
X134384343Y-121839989D03*
%TO.N,SEG_IN0*%
X133858000Y-115697000D03*
X137287000Y-110765000D03*
%TO.N,GND*%
X170815000Y-106436500D03*
%TO.N,SEG_IN1*%
X132715000Y-115062000D03*
X134874000Y-109347000D03*
%TO.N,Net-(DS1-Pad3)*%
X160147000Y-117475000D03*
X142494000Y-122428000D03*
%TO.N,Net-(DS1-Pad8)*%
X141097000Y-117729000D03*
X144145000Y-119634000D03*
%TO.N,VCC*%
X160655000Y-113538000D03*
%TO.N,Net-(BT1-Pad2)*%
X129667000Y-127762000D03*
X162306000Y-125476000D03*
%TO.N,GND*%
X130876556Y-113908500D03*
X128397000Y-116164500D03*
%TO.N,SEG_IN1_ENABLE*%
X131699000Y-108204000D03*
X166497000Y-104902000D03*
%TO.N,Net-(SW3-Pad1)*%
X164465000Y-102235000D03*
X164465000Y-100457000D03*
X170561000Y-99187000D03*
X162814000Y-105791000D03*
%TO.N,Net-(D3-Pad2)*%
X179578000Y-101981000D03*
X166116000Y-107061000D03*
%TO.N,Net-(SW1-Pad1)*%
X116840000Y-71247000D03*
X176991135Y-101172135D03*
%TO.N,Net-(D1-Pad2)*%
X178058142Y-100455320D03*
X169081081Y-99904919D03*
%TO.N,Net-(SW4-Pad1)*%
X177419000Y-98044000D03*
X171958000Y-99822000D03*
%TO.N,Net-(JP1-Pad1)*%
X178420000Y-107950000D03*
%TO.N,VCC*%
X170688000Y-95885000D03*
%TO.N,Net-(JP2-Pad1)*%
X171465000Y-97790000D03*
%TO.N,GND*%
X141859000Y-123571000D03*
X174752000Y-93980000D03*
X179705000Y-109347000D03*
X175514000Y-104521000D03*
X179832000Y-74168000D03*
X178308000Y-83693000D03*
X178181000Y-111760000D03*
X179832000Y-124333000D03*
X161417000Y-123952000D03*
X128640500Y-120590989D03*
X126102839Y-122679661D03*
X120015000Y-125349000D03*
X119888000Y-109855000D03*
X121158000Y-83693000D03*
X122682000Y-73787000D03*
%TO.N,SEG_D*%
X139495000Y-123395000D03*
X146558000Y-127599502D03*
%TO.N,SEG_C*%
X143680000Y-123655000D03*
X149860000Y-123571000D03*
%TO.N,SEG_E*%
X135890000Y-126492000D03*
%TO.N,SEG_B*%
X152146000Y-113157000D03*
X145980498Y-115570000D03*
%TO.N,SEG_A*%
X142395500Y-117884500D03*
X145161000Y-117983000D03*
%TO.N,SEG_F*%
X140843000Y-112903000D03*
X147828000Y-112903000D03*
%TO.N,SEG_G*%
X139319000Y-113538000D03*
X146939000Y-113538000D03*
%TO.N,SEG_DP*%
X126100500Y-121158000D03*
X127508000Y-116840000D03*
X142875000Y-120523000D03*
%TO.N,SEG_G*%
X127635000Y-117856000D03*
X135382000Y-117866500D03*
%TO.N,SEG_F*%
X134112000Y-118491000D03*
%TO.N,SEG_A*%
X133477000Y-119507000D03*
X133350000Y-125476000D03*
%TO.N,SEG_B*%
X132140503Y-126111000D03*
X132334000Y-119507000D03*
%TO.N,SEG_C*%
X131191000Y-126111000D03*
X131191000Y-119507000D03*
%TO.N,SEG_D*%
X130175589Y-119507589D03*
X130175000Y-126111000D03*
%TO.N,SEG_E*%
X128651000Y-119507000D03*
X128651000Y-125603000D03*
%TO.N,SEG_F*%
X127635000Y-125603000D03*
X127635000Y-119507000D03*
%TD*%
D17*
%TO.N,SEG_IN1*%
X134874000Y-112903000D02*
X132715000Y-115062000D01*
X134874000Y-109347000D02*
X134874000Y-112903000D01*
%TO.N,VCC*%
X165989000Y-97790000D02*
X165227000Y-98552000D01*
X170165000Y-97790000D02*
X165989000Y-97790000D01*
X146913000Y-119507000D02*
X155829000Y-119507000D01*
X144500000Y-121920000D02*
X146913000Y-119507000D01*
X144383489Y-121803489D02*
X137403511Y-121803489D01*
X144500000Y-121920000D02*
X144383489Y-121803489D01*
X137403511Y-121803489D02*
X134874000Y-124333000D01*
%TO.N,SEG_C*%
X131572000Y-125730000D02*
X131191000Y-126111000D01*
X131191000Y-119507000D02*
X131572000Y-119888000D01*
X131572000Y-119888000D02*
X131572000Y-125730000D01*
%TO.N,SEG_D*%
X129286000Y-120397178D02*
X129286000Y-125222000D01*
X130175589Y-119507589D02*
X129286000Y-120397178D01*
X129286000Y-125222000D02*
X130175000Y-126111000D01*
%TO.N,SEG_E*%
X128016000Y-124968000D02*
X128651000Y-125603000D01*
X128016000Y-122041193D02*
X128016000Y-124968000D01*
X128122011Y-121417818D02*
X128122011Y-121935182D01*
X128016000Y-121311807D02*
X128122011Y-121417818D01*
X128122011Y-121935182D02*
X128016000Y-122041193D01*
X128016000Y-120142000D02*
X128016000Y-121311807D01*
X128651000Y-119507000D02*
X128016000Y-120142000D01*
%TO.N,SEG_F*%
X127127000Y-119761000D02*
X126873000Y-120015000D01*
X127381000Y-119761000D02*
X127127000Y-119761000D01*
X126873000Y-120015000D02*
X126873000Y-124841000D01*
X126873000Y-124841000D02*
X127635000Y-125603000D01*
X127635000Y-119507000D02*
X127381000Y-119761000D01*
%TO.N,SEG_DP*%
X126100500Y-118247500D02*
X127508000Y-116840000D01*
X126100500Y-121158000D02*
X126100500Y-118247500D01*
%TO.N,Net-(BT1-Pad2)*%
X128910807Y-127762000D02*
X129667000Y-127762000D01*
X124841000Y-123692193D02*
X128910807Y-127762000D01*
X124841000Y-117634000D02*
X124841000Y-123692193D01*
X131350000Y-111125000D02*
X124841000Y-117634000D01*
%TO.N,SEG_IN0*%
X137287000Y-110765000D02*
X137287000Y-112268000D01*
X137287000Y-112268000D02*
X133858000Y-115697000D01*
%TO.N,Net-(DS1-Pad8)*%
X143002000Y-119634000D02*
X141097000Y-117729000D01*
X144145000Y-119634000D02*
X143002000Y-119634000D01*
%TO.N,VCC*%
X160655000Y-113538000D02*
X160750000Y-113443000D01*
X160750000Y-113443000D02*
X160750000Y-111125000D01*
%TO.N,SEG_D*%
X143862000Y-127762000D02*
X139495000Y-123395000D01*
X146395502Y-127762000D02*
X143862000Y-127762000D01*
X146558000Y-127599502D02*
X146395502Y-127762000D01*
%TO.N,Net-(SW3-Pad1)*%
X164465000Y-104140000D02*
X162814000Y-105791000D01*
X164465000Y-102235000D02*
X164465000Y-104140000D01*
X165608000Y-100457000D02*
X164465000Y-100457000D01*
X166878000Y-99187000D02*
X165608000Y-100457000D01*
X170561000Y-99187000D02*
X166878000Y-99187000D01*
%TO.N,Net-(D3-Pad2)*%
X176403000Y-105156000D02*
X179578000Y-101981000D01*
X176022000Y-107061000D02*
X176403000Y-106680000D01*
X176403000Y-106680000D02*
X176403000Y-105156000D01*
X166116000Y-107061000D02*
X176022000Y-107061000D01*
%TO.N,Net-(SW1-Pad1)*%
X176991135Y-101172135D02*
X146765135Y-101172135D01*
X146765135Y-101172135D02*
X116840000Y-71247000D01*
%TO.N,Net-(D1-Pad2)*%
X169631482Y-100455320D02*
X178058142Y-100455320D01*
X169081081Y-99904919D02*
X169631482Y-100455320D01*
%TO.N,Net-(SW4-Pad1)*%
X173736000Y-98044000D02*
X177419000Y-98044000D01*
X171958000Y-99822000D02*
X173736000Y-98044000D01*
%TO.N,VCC*%
X170165000Y-96408000D02*
X170165000Y-97790000D01*
X170688000Y-95885000D02*
X170165000Y-96408000D01*
%TO.N,GND*%
X144018000Y-125730000D02*
X141859000Y-123571000D01*
X144562500Y-125730000D02*
X144018000Y-125730000D01*
X179720000Y-109332000D02*
X179705000Y-109347000D01*
X179720000Y-107950000D02*
X179720000Y-109332000D01*
%TO.N,Net-(D5-Pad1)*%
X149098000Y-125730000D02*
X147537500Y-125730000D01*
X149092193Y-121920000D02*
X150484511Y-123312318D01*
X150484511Y-124343489D02*
X149098000Y-125730000D01*
X147600000Y-121920000D02*
X149092193Y-121920000D01*
X150484511Y-123312318D02*
X150484511Y-124343489D01*
%TO.N,SEG_C*%
X143764000Y-123571000D02*
X143680000Y-123655000D01*
X149860000Y-123571000D02*
X143764000Y-123571000D01*
%TO.N,SEG_E*%
X129783511Y-126735511D02*
X128651000Y-125603000D01*
X135890000Y-126492000D02*
X135646489Y-126735511D01*
X135646489Y-126735511D02*
X129783511Y-126735511D01*
%TO.N,SEG_B*%
X149733000Y-115570000D02*
X145980498Y-115570000D01*
X152146000Y-113157000D02*
X149733000Y-115570000D01*
%TO.N,SEG_A*%
X142494000Y-117983000D02*
X142395500Y-117884500D01*
X145161000Y-117983000D02*
X142494000Y-117983000D01*
%TO.N,SEG_F*%
X147828000Y-112903000D02*
X140843000Y-112903000D01*
%TO.N,SEG_G*%
X146939000Y-113538000D02*
X139319000Y-113538000D01*
%TO.N,SEG_DP*%
X139192000Y-116840000D02*
X127508000Y-116840000D01*
X142875000Y-120523000D02*
X139192000Y-116840000D01*
%TO.N,SEG_G*%
X135382000Y-117866500D02*
X135371500Y-117856000D01*
X135371500Y-117856000D02*
X127635000Y-117856000D01*
%TO.N,SEG_F*%
X128651000Y-118491000D02*
X134112000Y-118491000D01*
X127635000Y-119507000D02*
X128651000Y-118491000D01*
%TO.N,SEG_A*%
X133477000Y-119507000D02*
X133477000Y-125349000D01*
X133477000Y-125349000D02*
X133350000Y-125476000D01*
%TO.N,SEG_B*%
X132334000Y-125917503D02*
X132140503Y-126111000D01*
X132334000Y-119507000D02*
X132334000Y-125917503D01*
%TD*%
M02*
