M48
; DRILL file {KiCad (6.0.0)} date Sun May  8 17:08:32 2022
; FORMAT={-:-/ absolute / inch / decimal}
; #@! TF.CreationDate,2022-05-08T17:08:32-04:00
; #@! TF.GenerationSoftware,Kicad,Pcbnew,(6.0.0)
; #@! TF.FileFunction,Plated,1,4,PTH
FMAT,2
INCH
; #@! TA.AperFunction,Plated,PTH,ViaDrill
T1C0.0157
; #@! TA.AperFunction,Plated,PTH,ComponentDrill
T2C0.0394
%
G90
G05
T1
X4.6Y-2.805
X4.72Y-4.325
X4.725Y-4.935
X4.77Y-3.295
X4.83Y-2.905
X4.9646Y-4.77
X4.9647Y-4.8299
X5.0196Y-4.7904
X5.02Y-4.6
X5.025Y-4.64
X5.025Y-4.705
X5.025Y-4.945
X5.055Y-4.5734
X5.0646Y-4.7477
X5.065Y-4.705
X5.065Y-4.945
X5.105Y-5.03
X5.125Y-4.965
X5.125Y-4.705
X5.1526Y-4.4846
X5.155Y-4.755
X5.165Y-4.705
X5.165Y-4.965
X5.185Y-4.26
X5.19Y-4.485
X5.2024Y-4.965
X5.21Y-4.705
X5.225Y-4.53
X5.25Y-4.94
X5.255Y-4.705
X5.27Y-4.555
X5.28Y-4.665
X5.2907Y-4.7968
X5.31Y-4.305
X5.31Y-4.895
X5.32Y-4.835
X5.33Y-4.6404
X5.35Y-4.98
X5.355Y-4.56
X5.405Y-4.3608
X5.485Y-4.47
X5.4919Y-4.8581
X5.545Y-4.445
X5.555Y-4.635
X5.585Y-4.865
X5.6061Y-4.6411
X5.61Y-4.82
X5.625Y-4.745
X5.6567Y-4.8683
X5.675Y-4.71
X5.715Y-4.645
X5.7473Y-4.55
X5.77Y-5.0236
X5.785Y-4.47
X5.82Y-4.445
X5.9Y-4.865
X5.99Y-4.455
X6.135Y-4.705
X6.305Y-4.625
X6.325Y-4.47
X6.355Y-4.88
X6.39Y-4.94
X6.41Y-4.165
X6.475Y-3.955
X6.475Y-4.025
X6.505Y-3.88
X6.51Y-4.62
X6.54Y-4.215
X6.555Y-4.13
X6.62Y-4.17
X6.6567Y-3.9333
X6.68Y-4.155
X6.695Y-4.31
X6.715Y-3.905
X6.72Y-3.775
X6.725Y-4.1904
X6.7506Y-3.85
X6.77Y-3.93
X6.88Y-3.7
X6.91Y-4.115
X6.9682Y-3.9832
X6.985Y-3.86
X7.0102Y-3.9549
X7.015Y-4.4
X7.02Y-3.295
X7.0244Y-4.25
X7.07Y-4.015
X7.075Y-4.305
X7.08Y-2.92
X7.08Y-4.895
T2
X6.675Y-3.5
X6.675Y-3.6
X6.675Y-3.7
X6.775Y-3.5
X6.775Y-3.6
X6.775Y-3.7
T0
M30
