%TF.GenerationSoftware,KiCad,Pcbnew,(6.0.0)*%
%TF.CreationDate,2022-05-08T17:08:30-04:00*%
%TF.ProjectId,QR_ATTINY3217,51525f41-5454-4494-9e59-333231372e6b,rev?*%
%TF.SameCoordinates,Original*%
%TF.FileFunction,Paste,Top*%
%TF.FilePolarity,Positive*%
%FSLAX46Y46*%
G04 Gerber Fmt 4.6, Leading zero omitted, Abs format (unit mm)*
G04 Created by KiCad (PCBNEW (6.0.0)) date 2022-05-08 17:08:30*
%MOMM*%
%LPD*%
G01*
G04 APERTURE LIST*
G04 Aperture macros list*
%AMRoundRect*
0 Rectangle with rounded corners*
0 $1 Rounding radius*
0 $2 $3 $4 $5 $6 $7 $8 $9 X,Y pos of 4 corners*
0 Add a 4 corners polygon primitive as box body*
4,1,4,$2,$3,$4,$5,$6,$7,$8,$9,$2,$3,0*
0 Add four circle primitives for the rounded corners*
1,1,$1+$1,$2,$3*
1,1,$1+$1,$4,$5*
1,1,$1+$1,$6,$7*
1,1,$1+$1,$8,$9*
0 Add four rect primitives between the rounded corners*
20,1,$1+$1,$2,$3,$4,$5,0*
20,1,$1+$1,$4,$5,$6,$7,0*
20,1,$1+$1,$6,$7,$8,$9,0*
20,1,$1+$1,$8,$9,$2,$3,0*%
G04 Aperture macros list end*
%ADD10R,2.500000X2.500000*%
%ADD11RoundRect,0.062500X-0.203293X-0.291682X0.291682X0.203293X0.203293X0.291682X-0.291682X-0.203293X0*%
%ADD12RoundRect,0.062500X0.203293X-0.291682X0.291682X-0.203293X-0.203293X0.291682X-0.291682X0.203293X0*%
%ADD13RoundRect,0.250000X0.000000X-0.388909X0.388909X0.000000X0.000000X0.388909X-0.388909X0.000000X0*%
%ADD14R,2.100000X1.400000*%
%ADD15R,0.700000X1.500000*%
%ADD16R,1.000000X0.800000*%
%ADD17RoundRect,0.250000X-0.312500X-0.625000X0.312500X-0.625000X0.312500X0.625000X-0.312500X0.625000X0*%
%ADD18RoundRect,0.250000X-0.400000X-0.625000X0.400000X-0.625000X0.400000X0.625000X-0.400000X0.625000X0*%
%ADD19RoundRect,0.250000X0.400000X0.625000X-0.400000X0.625000X-0.400000X-0.625000X0.400000X-0.625000X0*%
%ADD20R,0.900000X2.800000*%
%ADD21RoundRect,0.250001X-0.462499X-0.624999X0.462499X-0.624999X0.462499X0.624999X-0.462499X0.624999X0*%
%ADD22R,1.900000X0.900000*%
%ADD23R,0.900000X0.240000*%
%ADD24R,0.240000X0.900000*%
G04 APERTURE END LIST*
D10*
%TO.C,LS1*%
X118110000Y-102870000D03*
X118110000Y-89870000D03*
%TD*%
D11*
%TO.C,U1*%
X173006097Y-104626136D03*
X173359651Y-104979689D03*
X173713204Y-105333243D03*
X174066757Y-105686796D03*
X174420311Y-106040349D03*
X174773864Y-106393903D03*
D12*
X175746136Y-106393903D03*
X176099689Y-106040349D03*
X176453243Y-105686796D03*
X176806796Y-105333243D03*
X177160349Y-104979689D03*
X177513903Y-104626136D03*
D11*
X177513903Y-103653864D03*
X177160349Y-103300311D03*
X176806796Y-102946757D03*
X176453243Y-102593204D03*
X176099689Y-102239651D03*
X175746136Y-101886097D03*
D12*
X174773864Y-101886097D03*
X174420311Y-102239651D03*
X174066757Y-102593204D03*
X173713204Y-102946757D03*
X173359651Y-103300311D03*
X173006097Y-103653864D03*
D13*
X174340761Y-104140000D03*
X175260000Y-105059239D03*
X175260000Y-103220761D03*
X176179239Y-104140000D03*
%TD*%
D14*
%TO.C,SW4*%
X170710000Y-121230000D03*
X179810000Y-121230000D03*
X170710000Y-125730000D03*
X179810000Y-125730000D03*
%TD*%
%TO.C,SW3*%
X113560000Y-120940000D03*
X122660000Y-120940000D03*
X113560000Y-125440000D03*
X122660000Y-125440000D03*
%TD*%
%TO.C,SW2*%
X170710000Y-71120000D03*
X179810000Y-71120000D03*
X170710000Y-75620000D03*
X179810000Y-75620000D03*
%TD*%
%TO.C,SW1*%
X113560000Y-71120000D03*
X122660000Y-71120000D03*
X113560000Y-75620000D03*
X122660000Y-75620000D03*
%TD*%
D15*
%TO.C,S1*%
X160150000Y-123950000D03*
X163150000Y-123950000D03*
X164650000Y-123950000D03*
D16*
X158750000Y-124650000D03*
X158750000Y-126750000D03*
X166050000Y-126750000D03*
X166050000Y-124650000D03*
%TD*%
D17*
%TO.C,R7*%
X157287500Y-115570000D03*
X160212500Y-115570000D03*
%TD*%
D18*
%TO.C,R5*%
X116560000Y-83820000D03*
X119660000Y-83820000D03*
%TD*%
%TO.C,R4*%
X173710000Y-83820000D03*
X176810000Y-83820000D03*
%TD*%
%TO.C,R3*%
X116560000Y-111760000D03*
X119660000Y-111760000D03*
%TD*%
D19*
%TO.C,R2*%
X176810000Y-111760000D03*
X173710000Y-111760000D03*
%TD*%
%TO.C,R1*%
X172365000Y-97790000D03*
X169265000Y-97790000D03*
%TD*%
D20*
%TO.C,DS1*%
X139360000Y-125650000D03*
X140800000Y-125650000D03*
X142240000Y-125650000D03*
X143680000Y-125650000D03*
X145120000Y-125650000D03*
X145120000Y-115650000D03*
X143680000Y-115650000D03*
X142240000Y-115650000D03*
X140800000Y-115650000D03*
X139360000Y-115650000D03*
%TD*%
D21*
%TO.C,D4*%
X173772500Y-115570000D03*
X176747500Y-115570000D03*
%TD*%
%TO.C,D3*%
X116622500Y-115570000D03*
X119597500Y-115570000D03*
%TD*%
%TO.C,D2*%
X173772500Y-80010000D03*
X176747500Y-80010000D03*
%TD*%
%TO.C,D1*%
X116622500Y-80010000D03*
X119597500Y-80010000D03*
%TD*%
D17*
%TO.C,R10*%
X163637500Y-115570000D03*
X166562500Y-115570000D03*
%TD*%
%TO.C,R9*%
X157287500Y-119380000D03*
X160212500Y-119380000D03*
%TD*%
%TO.C,R8*%
X163637500Y-119380000D03*
X166562500Y-119380000D03*
%TD*%
D22*
%TO.C,IC2*%
X130810000Y-116840000D03*
D23*
X132610000Y-117090000D03*
D24*
X132060000Y-118140000D03*
X131560000Y-118140000D03*
X131060000Y-118140000D03*
X130560000Y-118140000D03*
X130060000Y-118140000D03*
X129560000Y-118140000D03*
D23*
X129010000Y-117090000D03*
X129010000Y-116590000D03*
D24*
X129560000Y-115540000D03*
X130060000Y-115540000D03*
X130560000Y-115540000D03*
X131060000Y-115540000D03*
X131560000Y-115540000D03*
X132060000Y-115540000D03*
D23*
X132610000Y-116590000D03*
%TD*%
%TO.C,IC1*%
X132610000Y-122940000D03*
D24*
X132060000Y-121890000D03*
X131560000Y-121890000D03*
X131060000Y-121890000D03*
X130560000Y-121890000D03*
X130060000Y-121890000D03*
X129560000Y-121890000D03*
D23*
X129010000Y-122940000D03*
X129010000Y-123440000D03*
D24*
X129560000Y-124490000D03*
X130060000Y-124490000D03*
X130560000Y-124490000D03*
X131060000Y-124490000D03*
X131560000Y-124490000D03*
X132060000Y-124490000D03*
D23*
X132610000Y-123440000D03*
D22*
X130810000Y-123190000D03*
%TD*%
D20*
%TO.C,DS2*%
X146980000Y-125650000D03*
X148420000Y-125650000D03*
X149860000Y-125650000D03*
X151300000Y-125650000D03*
X152740000Y-125650000D03*
X152740000Y-115650000D03*
X151300000Y-115650000D03*
X149860000Y-115650000D03*
X148420000Y-115650000D03*
X146980000Y-115650000D03*
%TD*%
M02*
